<svg xmlns="http://www.w3.org/2000/svg" xmlns:xlink="http://www.w3.org/1999/xlink" viewBox="0 0 1080 1080" xmlns:v="https://vecta.io/nano"><style><![CDATA[.U{fill:#fff}.V{stroke-miterlimit:10}.W{stroke-width:2}.X{stroke:#fff}.Y{stroke-dasharray:2 6}]]></style><defs><linearGradient id="A" x1="11.716" y1="11.716" x2="1068.284" y2="1068.284" xlink:href="#AS"><stop offset="0" stop-color="#000c40"/><stop offset="1" stop-color="#05966c"/></linearGradient><linearGradient id="B" x1="1046.027" y1="593.508" x2="105.235" y2="593.508" xlink:href="#AS"><stop offset="0" stop-color="#8e9eab"/><stop offset=".18" stop-color="#a5b2b0"/><stop offset=".541" stop-color="#cdd4b9"/><stop offset=".826" stop-color="#e6e9be"/><stop offset="1" stop-color="#eff1c0"/></linearGradient><linearGradient id="C" x1="689.262" y1="931.678" x2="34.003" y2="931.678" xlink:href="#B"/><linearGradient id="D" x1="655.678" y1="963.243" x2="718.808" y2="900.113" xlink:href="#AS"><stop offset="0" stop-color="#ec6f66"/><stop offset=".251" stop-color="#ee7f6f"/><stop offset=".716" stop-color="#f2987e"/><stop offset="1" stop-color="#f3a183"/></linearGradient><linearGradient id="E" x1="264.919" y1="308.662" x2="264.919" y2="377.579" xlink:href="#AS"><stop offset="0" stop-color="#e66700"/><stop offset=".248" stop-color="#ec8a0b"/><stop offset=".579" stop-color="#f3b218"/><stop offset=".841" stop-color="#f7cb20"/><stop offset="1" stop-color="#f9d423"/></linearGradient><linearGradient id="F" x1="262.038" y1="377.579" x2="262.038" y2="343.12" xlink:href="#AS"><stop offset="0" stop-color="#00fff2"/><stop offset=".082" stop-color="#10ffe9"/><stop offset=".393" stop-color="#47ffc8"/><stop offset=".661" stop-color="#70feb1"/><stop offset=".872" stop-color="#89fea2"/><stop offset="1" stop-color="#92fe9d"/></linearGradient><linearGradient id="G" x1="849.014" y1="192.673" x2="849.014" y2="413.028" xlink:href="#E"/><linearGradient id="H" x1="853.806" y1="515.511" x2="853.806" y2="732.671" xlink:href="#F"/><path id="I" d="M55.803 963.536h-.898c-2.3 0-3.42-1.092-3.42-3.276v-9.995h-1.48a.798.798 0 1 1 0-1.597h1.48v-4.284a.802.802 0 0 1 .841-.783.778.778 0 0 1 .812.783v4.284h2.667a.798.798 0 1 1 0 1.597h-2.667v9.995c0 1.372.406 1.68 1.77 1.68h.898a.798.798 0 1 1 0 1.596z"/><path id="J" d="M65.286 964.01c-4.667 0-7.276-3.695-7.276-7.924 0-4.2 2.61-7.896 7.276-7.896s7.277 3.696 7.277 7.896c0 4.23-2.61 7.924-7.277 7.924zm0-14.224c-3.42 0-5.624 2.66-5.624 6.3s2.203 6.328 5.624 6.328c3.45 0 5.625-2.687 5.625-6.328s-2.175-6.3-5.625-6.3z"/><path id="K" d="M98.747 963.536h-.028a2.99 2.99 0 0 1-2.87-2.184 6.659 6.659 0 0 1-5.625 2.659c-4.726 0-7.276-3.752-7.276-7.924 0-4.228 2.61-7.896 7.276-7.896a6.711 6.711 0 0 1 5.625 2.632v-1.372a.805.805 0 0 1 .841-.784.779.779 0 0 1 .812.784v11.284c0 1.792 2.087.672 2.087 2.016a.784.784 0 0 1-.841.784zm-8.523-13.748c-3.42 0-5.624 2.66-5.624 6.3s2.203 6.328 5.624 6.328c3.45 0 5.625-2.687 5.625-6.328s-2.175-6.3-5.625-6.3z"/><path id="L" d="M104.52 963.704a2.98 2.98 0 0 1-2.87-2.968v-16.353a.827.827 0 0 1 1.652 0v16.353c0 1.792 2.06.756 2.06 2.016a.914.914 0 0 1-.841.952z"/><path id="M" d="M251.45 964.068c-1.74 0-4.667-.588-5.682-2.212a.658.658 0 0 1-.116-.42.871.871 0 0 1 .841-.841.898.898 0 0 1 .638.393c1.044 1.23 2.9 1.483 4.32 1.483 2.813 0 4.233-.896 4.233-2.716 0-4.228-9.5-1.987-9.5-7.588 0-2.828 2.93-3.92 5.566-3.92a8.039 8.039 0 0 1 4.987 1.624.773.773 0 0 1 .261.532.926.926 0 0 1-.899.84.782.782 0 0 1-.551-.224 5.934 5.934 0 0 0-3.798-1.177c-2.55 0-3.914.952-3.914 2.324 0 3.92 9.5 1.85 9.5 7.588 0 3.192-2.9 4.313-5.886 4.313z"/><path id="N" d="M74.42 214.14h-12.58c.476 3.196 2.516 5.235 5.507 5.235a5.104 5.104 0 0 0 4.046-1.768 1.407 1.407 0 0 1 1.054-.544 1.586 1.586 0 0 1 1.53 1.496c0 .408-.102.714-.816 1.428a8.286 8.286 0 0 1-5.813 2.278c-5.473 0-8.533-4.522-8.533-9.62 0-5.065 3.06-9.587 8.533-9.587 5.54 0 8.5 4.522 8.5 9.587a1.45 1.45 0 0 1-1.428 1.496zm-7.07-8.193c-3.195 0-5.065 2.346-5.507 5.27h11.015c-.476-3.264-2.516-5.27-5.508-5.27z"/><path id="O" d="M124.5 221.687a3.309 3.309 0 0 1-3.026-1.938 7.789 7.789 0 0 1-5.983 2.516c-5.54 0-8.533-4.556-8.533-9.62s3.06-9.587 8.533-9.587a7.512 7.512 0 0 1 5.609 2.244v-.136a1.403 1.403 0 0 1 1.428-1.53 1.366 1.366 0 0 1 1.496 1.428v13.123a.55.55 0 0 0 .476.612 1.445 1.445 0 1 1 0 2.89zm-9.01-15.74c-3.4 0-5.61 2.65-5.61 6.697 0 4.08 2.2 6.73 5.61 6.73 3.434 0 5.61-2.65 5.61-6.73 0-4.046-2.176-6.697-5.61-6.697z"/><path id="P" d="M142.487 221.687a1.373 1.373 0 0 1-1.428-1.428v-9.45a4.845 4.845 0 1 0-9.689 0v9.417a1.445 1.445 0 0 1-1.496 1.496 1.401 1.401 0 0 1-1.428-1.462v-15.197a1.352 1.352 0 0 1 1.428-1.428 1.421 1.421 0 0 1 1.462 1.122 7.764 7.764 0 0 1 12.613 6.051v9.417a1.391 1.391 0 0 1-1.462 1.462z"/><path id="Q" d="M162.615 214.14h-12.58c.476 3.196 2.516 5.235 5.507 5.235a5.103 5.103 0 0 0 4.046-1.768 1.407 1.407 0 0 1 1.054-.544 1.586 1.586 0 0 1 1.53 1.496c0 .408-.102.714-.816 1.428a8.286 8.286 0 0 1-5.813 2.278c-5.473 0-8.533-4.522-8.533-9.62 0-5.065 3.06-9.587 8.533-9.587 5.542 0 8.5 4.522 8.5 9.587a1.45 1.45 0 0 1-1.428 1.496zm-7.07-8.193c-3.195 0-5.065 2.346-5.507 5.27h11.015c-.476-3.264-2.516-5.27-5.508-5.27z"/><path id="R" d="M189.508 221.652a1.38 1.38 0 0 1-1.461-1.428 8.226 8.226 0 0 1-5.61 2.04c-5.473 0-8.533-4.488-8.533-9.62 0-5.1 3.06-9.587 8.533-9.587a7.494 7.494 0 0 1 5.61 2.21v-6.323a1.462 1.462 0 0 1 2.923-.034v21.316a1.38 1.38 0 0 1-1.462 1.428zm-7.07-15.706c-3.4 0-5.61 2.65-5.61 6.697 0 4.08 2.2 6.73 5.61 6.73 3.434 0 5.6-2.65 5.6-6.73 0-4.046-2.176-6.697-5.6-6.697z"/><path id="S" d="M196.684 200.88a2.448 2.448 0 1 1 2.448-2.447 2.437 2.437 0 0 1-2.448 2.447zm0 20.806a1.428 1.428 0 0 1-1.496-1.428v-15.163a1.435 1.435 0 0 1 1.496-1.462 1.4 1.4 0 0 1 1.428 1.462v15.163a1.372 1.372 0 0 1-1.428 1.428z"/><path id="T" d="M237.652 214.14h-12.58c.476 3.196 2.516 5.235 5.507 5.235a5.104 5.104 0 0 0 4.046-1.768 1.407 1.407 0 0 1 1.054-.544 1.586 1.586 0 0 1 1.53 1.496c0 .408-.102.714-.816 1.428a8.286 8.286 0 0 1-5.813 2.278c-5.473 0-8.533-4.522-8.533-9.62 0-5.065 3.06-9.587 8.533-9.587 5.542 0 8.5 4.522 8.5 9.587a1.45 1.45 0 0 1-1.428 1.496zm-7.07-8.193c-3.195 0-5.065 2.346-5.507 5.27h11.015c-.476-3.264-2.516-5.27-5.508-5.27z"/><path id="U" d="M247.75 222.265c-1.87 0-4.998-.578-6.595-2.55a1.504 1.504 0 0 1 1.224-2.414 1.396 1.396 0 0 1 1.054.578 5.81 5.81 0 0 0 4.317 1.496c3.06 0 4.046-1.054 4.046-2.583 0-4.352-10.37-1.666-10.37-8.67 0-3.706 3.468-5.066 6.697-5.066 1.836 0 6.153.918 6.153 2.822a1.526 1.526 0 0 1-1.428 1.53 2.048 2.048 0 0 1-1.122-.442 5.512 5.512 0 0 0-3.604-1.02c-2.822 0-3.808 1.054-3.808 2.176 0 4.045 10.403 1.428 10.403 8.67 0 4.012-3.365 5.474-6.97 5.474z"/><path id="V" d="M263.288 221.687h-.578c-3.23 0-4.454-1.7-4.454-4.488v-10.675h-1.02a1.445 1.445 0 1 1-.034-2.89h1.02v-4.726a1.38 1.38 0 0 1 1.462-1.428 1.354 1.354 0 0 1 1.428 1.428v4.726h2.176a1.41 1.41 0 0 1 1.428 1.428 1.383 1.383 0 0 1-1.428 1.462h-2.176v10.98c0 .952.34 1.292 1.292 1.292h.85a1.403 1.403 0 0 1 1.462 1.428 1.383 1.383 0 0 1-1.428 1.462z"/><path id="W" d="M281.92 214.14h-12.58c.476 3.196 2.516 5.235 5.507 5.235a5.103 5.103 0 0 0 4.046-1.768 1.407 1.407 0 0 1 1.054-.544 1.586 1.586 0 0 1 1.53 1.496c0 .408-.102.714-.816 1.428a8.286 8.286 0 0 1-5.813 2.278c-5.473 0-8.533-4.522-8.533-9.62 0-5.065 3.06-9.587 8.533-9.587 5.54 0 8.5 4.522 8.5 9.587a1.45 1.45 0 0 1-1.428 1.496zm-7.07-8.193c-3.195 0-5.065 2.346-5.507 5.27h11.015c-.476-3.264-2.516-5.27-5.508-5.27z"/><path id="X" d="M302.558 222.265c-1.87 0-4.998-.578-6.595-2.55a1.504 1.504 0 0 1 1.224-2.414 1.396 1.396 0 0 1 1.054.578 5.81 5.81 0 0 0 4.317 1.496c3.06 0 4.046-1.054 4.046-2.583 0-4.352-10.37-1.666-10.37-8.67 0-3.706 3.468-5.066 6.697-5.066 1.836 0 6.153.918 6.153 2.822a1.526 1.526 0 0 1-1.428 1.53 2.048 2.048 0 0 1-1.122-.442 5.512 5.512 0 0 0-3.604-1.02c-2.822 0-3.808 1.054-3.808 2.176 0 4.045 10.403 1.428 10.403 8.67 0 4.012-3.366 5.474-6.97 5.474z"/><path id="Y" d="M450.147 205.572l-5.27 14.924a1.545 1.545 0 0 1-1.496 1.19c-.714 0-1.122-.306-1.428-1.2l-3.978-11.22-4.012 11.22a1.472 1.472 0 0 1-2.89 0l-5.235-14.924a1.491 1.491 0 0 1-.068-.544 1.465 1.465 0 0 1 1.496-1.394 1.347 1.347 0 0 1 1.326.952l3.944 11.354 4.012-11.117c.27-.782.612-1.2 1.428-1.2.748 0 1.156.374 1.428 1.2l3.978 11.117 3.978-11.354a1.337 1.337 0 0 1 1.292-.952 1.511 1.511 0 0 1 1.564 1.428 1.413 1.413 0 0 1-.068.51z"/><path id="Z" d="M41.27 242.524h-1.53v13.7a1.39 1.39 0 0 1-1.496 1.428 1.371 1.371 0 0 1-1.428-1.428v-13.7h-1.394a1.445 1.445 0 0 1 0-2.89h1.394v-2.312a3.874 3.874 0 0 1 3.91-3.842 1.446 1.446 0 1 1 0 2.89.952.952 0 0 0-.986.918v2.346h1.53a1.446 1.446 0 1 1 0 2.89z"/><path id="a" d="M52.898 241.946a4.897 4.897 0 0 0-4.827 4.861v9.417a1.417 1.417 0 0 1-1.496 1.462 1.392 1.392 0 0 1-1.428-1.428v-15.163a1.44 1.44 0 0 1 1.428-1.462 1.395 1.395 0 0 1 1.462 1.156 7.862 7.862 0 0 1 4.861-1.734 1.446 1.446 0 1 1 0 2.89z"/><path id="b" d="M63.438 258.265c-5.473 0-8.533-4.488-8.533-9.62 0-5.1 3.06-9.587 8.533-9.587s8.533 4.488 8.533 9.587c0 5.133-3.06 9.62-8.533 9.62zm0-16.318c-3.4 0-5.61 2.65-5.61 6.697 0 4.08 2.2 6.73 5.61 6.73 3.434 0 5.61-2.65 5.61-6.73 0-4.046-2.176-6.697-5.61-6.697z"/><path id="c" d="M194.574 584.07c-4.186 0-6.526-3.432-6.526-7.358 0-3.9 2.34-7.332 6.526-7.332s6.526 3.432 6.526 7.332c0 3.926-2.34 7.358-6.526 7.358zm0-13.208c-3.068 0-5.044 2.47-5.044 5.85s1.976 5.876 5.044 5.876c3.094 0 5.044-2.496 5.044-5.876s-1.95-5.85-5.044-5.85z"/><path id="d" d="M232.065 577.466h-10.79c.234 2.964 2.158 5.122 4.992 5.122a4.699 4.699 0 0 0 3.822-1.794.682.682 0 0 1 .624-.364.795.795 0 0 1 .806.702c0 .234 0 .286-.494.858a6.139 6.139 0 0 1-4.758 2.08c-4.186 0-6.526-3.432-6.526-7.358 0-3.9 2.34-7.332 6.526-7.332s6.526 3.458 6.526 7.332a.787.787 0 0 1-.728.754zm-5.798-6.604c-3.12 0-4.758 2.392-4.992 5.123h10c-.234-2.964-2.158-5.123-5.018-5.123z"/><path id="e" d="M331.176 583.628a.71.71 0 0 1-.728-.728v-8.736a3.315 3.315 0 0 0-6.63-.026v8.762a.71.71 0 0 1-.728.728.731.731 0 0 1-.754-.728v-8.736a3.302 3.302 0 0 0-6.604-.026v8.762a.741.741 0 0 1-1.482 0v-12.35a.741.741 0 0 1 1.482 0v.156a4.726 4.726 0 0 1 3.302-1.326 4.823 4.823 0 0 1 4.056 2.21 4.8 4.8 0 0 1 8.84 2.548v8.762a.731.731 0 0 1-.754.728z"/><path id="f" d="M798.08 447.206a2.016 2.016 0 1 1 2.016-2.016 2.008 2.008 0 0 1-2.016 2.016zm0 17.136a1.176 1.176 0 0 1-1.232-1.176v-12.488a1.183 1.183 0 0 1 1.232-1.204 1.154 1.154 0 0 1 1.176 1.204v12.488a1.13 1.13 0 0 1-1.176 1.176z"/><path id="g" d="M809.728 464.817c-4.508 0-7.028-3.696-7.028-7.924 0-4.2 2.52-7.896 7.028-7.896s7.028 3.696 7.028 7.896c0 4.228-2.52 7.924-7.028 7.924zm0-13.44c-2.8 0-4.62 2.184-4.62 5.516 0 3.36 1.82 5.544 4.62 5.544 2.828 0 4.62-2.184 4.62-5.544 0-3.332-1.792-5.516-4.62-5.516z"/><path id="h" d="M826.472 470.725c-1.708 0-5.936-.616-5.936-2.296a1.304 1.304 0 0 1 1.204-1.26c.644 0 .084.084 1.568.644a8.75 8.75 0 0 0 3.164.532c3.108 0 4.62-1.484 4.62-4.424v-1.26a6.549 6.549 0 0 1-4.62 1.68c-4.424 0-7.028-3.136-7.028-7.448 0-4.2 2.52-7.896 7.028-7.896a6.032 6.032 0 0 1 4.62 1.792v-.112a1.192 1.192 0 0 1 1.204-1.204 1.176 1.176 0 0 1 1.204 1.204v13.244c0 4.452-2.66 6.804-7.028 6.804zm0-19.348c-2.8 0-4.62 2.184-4.62 5.516 0 3.192 1.68 5.068 4.62 5.068s4.62-1.876 4.62-5.068c0-3.332-1.792-5.516-4.62-5.516z"/><path id="i" d="M851.28 464.34a2.724 2.724 0 0 1-2.492-1.596 6.415 6.415 0 0 1-4.928 2.072c-4.564 0-7.028-3.752-7.028-7.924s2.52-7.896 7.028-7.896a6.186 6.186 0 0 1 4.62 1.848v-.112a1.156 1.156 0 0 1 1.176-1.26 1.126 1.126 0 0 1 1.232 1.176v10.808a.453.453 0 0 0 .392.504 1.19 1.19 0 1 1 0 2.38zm-7.42-12.964c-2.8 0-4.62 2.184-4.62 5.516 0 3.36 1.82 5.544 4.62 5.544 2.828 0 4.62-2.184 4.62-5.544 0-3.332-1.792-5.516-4.62-5.516z"/><path id="j" d="M859.764 464.817c-1.54 0-4.116-.476-5.432-2.1a1.239 1.239 0 0 1 1.008-1.988 1.149 1.149 0 0 1 .868.476 4.787 4.787 0 0 0 3.556 1.232c2.52 0 3.332-.868 3.332-2.128 0-3.584-8.54-1.372-8.54-7.14 0-3.052 2.856-4.172 5.516-4.172 1.512 0 5.068.756 5.068 2.324a1.257 1.257 0 0 1-1.176 1.26 1.684 1.684 0 0 1-.924-.364 4.54 4.54 0 0 0-2.968-.84c-2.324 0-3.136.868-3.136 1.792 0 3.332 8.568 1.176 8.568 7.14 0 3.304-2.772 4.508-5.74 4.508z"/><path id="k" d="M879.81 451.854h-1.26v11.284a1.145 1.145 0 0 1-1.232 1.176 1.13 1.13 0 0 1-1.176-1.176v-11.284h-1.148a1.19 1.19 0 0 1 0-2.38h1.148v-1.904a3.191 3.191 0 0 1 3.22-3.164 1.191 1.191 0 1 1 0 2.38.785.785 0 0 0-.812.756v1.932h1.26a1.191 1.191 0 1 1 0 2.38z"/><path id="l" d="M927.802 462.69a6.503 6.503 0 0 1-5.012 2.128c-4.508 0-7.028-3.696-7.028-7.924 0-4.2 2.52-7.896 7.028-7.896a6.503 6.503 0 0 1 5.012 2.128 1.219 1.219 0 0 1 .336.812 1.303 1.303 0 0 1-1.26 1.204 1.326 1.326 0 0 1-.868-.392 4.112 4.112 0 0 0-3.22-1.372c-2.8 0-4.62 2.184-4.62 5.516 0 3.36 1.82 5.544 4.62 5.544a4.164 4.164 0 0 0 3.22-1.372 1.118 1.118 0 0 1 .868-.42 1.209 1.209 0 0 1 .924 2.044z"/><path id="m" d="M807.003 790.73a1.141 1.141 0 0 1-1.176-.924 6.517 6.517 0 0 1-4.032 1.4 6.436 6.436 0 0 1-6.384-6.384v-7.756a1.204 1.204 0 0 1 2.408-.028v7.784a3.99 3.99 0 1 0 7.98 0v-7.756a1.117 1.117 0 0 1 1.176-1.232 1.146 1.146 0 0 1 1.204 1.204v12.516a1.115 1.115 0 0 1-1.176 1.176z"/><path id="n" d="M816.887 790.703h-.476c-2.66 0-3.668-1.4-3.668-3.696v-8.792h-.84a1.19 1.19 0 0 1-.028-2.38h.84v-3.892a1.137 1.137 0 0 1 1.204-1.176 1.115 1.115 0 0 1 1.176 1.176v3.892h1.792a1.161 1.161 0 0 1 1.176 1.176 1.139 1.139 0 0 1-1.176 1.204h-1.792v9.044c0 .784.28 1.064 1.064 1.064h.7a1.155 1.155 0 0 1 1.204 1.176 1.139 1.139 0 0 1-1.176 1.204z"/><path id="o" d="M826.967 777.74a4.034 4.034 0 0 0-3.976 4.004v7.756a1.167 1.167 0 0 1-1.232 1.204 1.147 1.147 0 0 1-1.176-1.176V777.04a1.186 1.186 0 0 1 1.176-1.204 1.15 1.15 0 0 1 1.204.952 6.474 6.474 0 0 1 4.004-1.428 1.191 1.191 0 1 1 0 2.38z"/><path id="p" d="M831.11 773.567a2.016 2.016 0 1 1 2.016-2.016 2.008 2.008 0 0 1-2.016 2.016zm0 17.136a1.176 1.176 0 0 1-1.232-1.176V777.04a1.183 1.183 0 0 1 1.232-1.204 1.154 1.154 0 0 1 1.176 1.204v12.488a1.13 1.13 0 0 1-1.176 1.176z"/><path id="q" d="M848.582 784.487h-10.36c.392 2.632 2.072 4.312 4.536 4.312a4.203 4.203 0 0 0 3.332-1.456 1.158 1.158 0 0 1 .868-.448 1.307 1.307 0 0 1 1.26 1.232c0 .336-.084.588-.672 1.176a6.823 6.823 0 0 1-4.788 1.876c-4.508 0-7.028-3.724-7.028-7.924 0-4.172 2.52-7.896 7.028-7.896 4.564 0 7 3.724 7 7.896a1.194 1.194 0 0 1-1.176 1.232zm-5.824-6.748c-2.632 0-4.172 1.932-4.536 4.34h9.072c-.392-2.688-2.072-4.34-4.536-4.34z"/><path id="r" d="M109.45 868.256h-.578c-3.23 0-4.453-1.7-4.453-4.487v-10.675h-1.02a1.445 1.445 0 0 1-.034-2.89h1.02v-4.726a1.381 1.381 0 0 1 1.462-1.429 1.354 1.354 0 0 1 1.428 1.429v4.726h2.176a1.409 1.409 0 0 1 1.428 1.428 1.383 1.383 0 0 1-1.428 1.462h-2.176v10.98c0 .952.34 1.292 1.292 1.292h.85a1.402 1.402 0 0 1 1.462 1.428 1.383 1.383 0 0 1-1.428 1.462z"/><path id="s" d="M165.3 868.256a1.374 1.374 0 0 1-1.429-1.428v-9.45a4.844 4.844 0 1 0-9.688 0v9.417a1.445 1.445 0 0 1-1.496 1.496 1.4 1.4 0 0 1-1.428-1.462v-15.196a1.352 1.352 0 0 1 1.428-1.428 1.421 1.421 0 0 1 1.462 1.121 7.765 7.765 0 0 1 12.612 6.052v9.417a1.39 1.39 0 0 1-1.461 1.462z"/><path id="t" d="M210.3 868.222a1.38 1.38 0 0 1-1.462-1.428 8.226 8.226 0 0 1-5.609 2.04c-5.474 0-8.533-4.487-8.533-9.62 0-5.1 3.06-9.587 8.533-9.587a7.488 7.488 0 0 1 5.609 2.21v-6.324a1.462 1.462 0 0 1 2.924-.033v21.315a1.38 1.38 0 0 1-1.462 1.428zm-7.07-15.706c-3.4 0-5.61 2.65-5.61 6.697 0 4.08 2.2 6.73 5.61 6.73 3.434 0 5.61-2.652 5.61-6.73 0-4.046-2.176-6.697-5.61-6.697z"/><path id="u" d="M216.786 847.45a2.448 2.448 0 1 1 2.448-2.448 2.438 2.438 0 0 1-2.448 2.448zm0 20.806a1.427 1.427 0 0 1-1.495-1.428v-15.163a1.434 1.434 0 0 1 1.495-1.461 1.4 1.4 0 0 1 1.428 1.461v15.163a1.371 1.371 0 0 1-1.428 1.428z"/><path id="v" d="M256.393 860.71h-12.578c.476 3.195 2.516 5.235 5.507 5.235a5.104 5.104 0 0 0 4.046-1.768 1.404 1.404 0 0 1 1.054-.545 1.588 1.588 0 0 1 1.53 1.496c0 .408-.103.714-.816 1.428a8.284 8.284 0 0 1-5.813 2.278c-5.474 0-8.533-4.52-8.533-9.62 0-5.065 3.06-9.587 8.533-9.587 5.542 0 8.5 4.52 8.5 9.587a1.45 1.45 0 0 1-1.428 1.496zm-7.07-8.193c-3.195 0-5.065 2.346-5.507 5.27h11.015c-.477-3.264-2.516-5.27-5.508-5.27z"/><path id="w" d="M358.3 868.834c-5.474 0-8.533-4.487-8.533-9.62 0-5.1 3.06-9.587 8.533-9.587s8.533 4.487 8.533 9.587c0 5.134-3.06 9.62-8.533 9.62zm0-16.318c-3.4 0-5.61 2.65-5.61 6.697 0 4.08 2.2 6.73 5.61 6.73 3.434 0 5.61-2.652 5.61-6.73 0-4.046-2.176-6.697-5.61-6.697z"/><path id="x" d="M674.247 868.3a2.438 2.438 0 0 1-2.447-2.448 2.449 2.449 0 0 1 4.896 0 2.438 2.438 0 0 1-2.448 2.448z"/><path id="y" d="M104.714 1045.51a1.36 1.36 0 0 1-1.4-1.101 7.763 7.763 0 0 1-4.804 1.668 7.666 7.666 0 0 1-7.604-7.605v-9.24a1.434 1.434 0 0 1 2.868-.033v9.272a4.753 4.753 0 1 0 9.507 0v-9.24a1.33 1.33 0 0 1 1.4-1.468 1.364 1.364 0 0 1 1.435 1.435v14.9a1.328 1.328 0 0 1-1.401 1.4z"/><path id="z" d="M858.094 1046.325c-3.22 0-5.02-2.64-5.02-5.66 0-3 1.8-5.64 5.02-5.64s5.02 2.64 5.02 5.64c0 3.02-1.8 5.66-5.02 5.66zm0-10.162c-2.36 0-3.88 1.9-3.88 4.5s1.52 4.52 3.88 4.52c2.38 0 3.88-1.92 3.88-4.52s-1.5-4.5-3.88-4.5z"/><path id="AA" d="M881.833 1036.343a3.418 3.418 0 0 0-3.421 3.42v5.66a.57.57 0 0 1-1.141 0v-9.502a.57.57 0 0 1 1.141 0v.82a4.565 4.565 0 0 1 3.421-1.54.57.57 0 1 1 0 1.141z"/><path id="AB" d="M924.294 1045.985a.563.563 0 0 1-.581-.561v-1a4.536 4.536 0 0 1-3.88 1.9c-3.22 0-5.02-2.64-5.02-5.66 0-3 1.8-5.64 5.02-5.64a4.571 4.571 0 0 1 3.88 1.88v-4.6a.57.57 0 0 1 1.141 0v13.122a.558.558 0 0 1-.56.561zm-4.46-9.822c-2.36 0-3.88 1.9-3.88 4.5s1.52 4.52 3.88 4.52c2.38 0 3.88-1.92 3.88-4.52s-1.5-4.5-3.88-4.5z"/><path id="AC" d="M1009.45 904.525h-8.568c-.812 0-1.288-.476-1.288-1.064a1.355 1.355 0 0 1 .252-.756l7.644-11.62a3.368 3.368 0 0 0 .532-1.68 2.834 2.834 0 0 0-2.884-2.912 4.065 4.065 0 0 0-3.22 2.156 1.045 1.045 0 0 1-.952.588 1.209 1.209 0 0 1-1.232-1.148c0-.868 1.988-4.004 5.404-4.004a5.276 5.276 0 0 1 5.264 5.264 5.46 5.46 0 0 1-.952 3.024l-6.412 9.772h6.412a1.191 1.191 0 1 1 0 2.38z"/><path id="AD" d="M843.973 939.606c-1.54 0-4.116-.476-5.432-2.1a1.239 1.239 0 0 1 1.008-1.988 1.15 1.15 0 0 1 .868.476 4.787 4.787 0 0 0 3.556 1.232c2.52 0 3.332-.868 3.332-2.128 0-3.584-8.54-1.372-8.54-7.14 0-3.052 2.856-4.172 5.516-4.172 1.512 0 5.068.756 5.068 2.324a1.258 1.258 0 0 1-1.176 1.26 1.684 1.684 0 0 1-.924-.364 4.54 4.54 0 0 0-2.968-.84c-2.324 0-3.136.868-3.136 1.792 0 3.332 8.568 1.176 8.568 7.14 0 3.304-2.772 4.508-5.74 4.508z"/><path id="AE" d="M865.532 939.606c-4.508 0-7.028-3.696-7.028-7.924 0-4.2 2.52-7.896 7.028-7.896s7.028 3.696 7.028 7.896c0 4.227-2.52 7.924-7.028 7.924zm0-13.44c-2.8 0-4.62 2.184-4.62 5.516 0 3.36 1.82 5.544 4.62 5.544 2.828 0 4.62-2.184 4.62-5.544 0-3.332-1.792-5.516-4.62-5.516z"/><path id="AF" d="M979.126 939.102a1.137 1.137 0 0 1-1.204-1.176 6.774 6.774 0 0 1-4.62 1.68c-4.508 0-7.028-3.696-7.028-7.924 0-4.2 2.52-7.896 7.028-7.896a6.169 6.169 0 0 1 4.62 1.82v-5.208a1.204 1.204 0 0 1 2.408-.028v17.556a1.137 1.137 0 0 1-1.204 1.176zm-5.824-12.936c-2.8 0-4.62 2.184-4.62 5.516 0 3.36 1.82 5.544 4.62 5.544 2.828 0 4.62-2.184 4.62-5.544 0-3.332-1.792-5.516-4.62-5.516z"/><path id="AG" d="M997.4 939.606a6.624 6.624 0 0 1-4.62-1.68 1.145 1.145 0 0 1-1.232 1.176 1.13 1.13 0 0 1-1.176-1.176v-17.528a1.204 1.204 0 0 1 2.408-.028v5.236a6.215 6.215 0 0 1 4.62-1.82c4.508 0 7.028 3.696 7.028 7.896 0 4.228-2.52 7.924-7.028 7.924zm0-13.44c-2.8 0-4.62 2.184-4.62 5.516 0 3.36 1.82 5.544 4.62 5.544s4.62-2.184 4.62-5.544c0-3.332-1.82-5.516-4.62-5.516z"/><path id="AH" d="M949.838 974.21c-5.992 0-5.992-7.112-5.992-11.2 0-3.948.616-9.716 5.964-9.716s6.02 5.628 6.02 9.716c0 4.256-.112 11.2-5.992 11.2zm3.584-11.2c0-2.464-.056-7.308-3.584-7.308s-3.584 4.844-3.584 7.308v1.568c0 2.912.392 7.252 3.556 7.252 3.22 0 3.612-4.34 3.612-7.252z"/><path id="AI" d="M83.935 80.38c-9.66 0-15.06-7.92-15.06-16.98 0-9 5.4-16.92 15.06-16.92s15.06 7.92 15.06 16.92c0 9.06-5.4 16.98-15.06 16.98zm0-28.8c-6 0-9.9 4.68-9.9 11.82 0 7.2 3.9 11.88 9.9 11.88 6.06 0 9.9-4.68 9.9-11.88 0-7.14-3.84-11.82-9.9-11.82z"/><path id="AJ" d="M176.274 66.042h-22.2c.84 5.64 4.44 9.24 9.72 9.24a9.005 9.005 0 0 0 7.14-3.12 2.483 2.483 0 0 1 1.86-.96 2.8 2.8 0 0 1 2.7 2.64c0 .72-.18 1.26-1.44 2.52a14.622 14.622 0 0 1-10.26 4.02c-9.66 0-15.06-7.98-15.06-16.98 0-8.94 5.4-16.92 15.06-16.92 9.78 0 15 7.98 15 16.92a2.558 2.558 0 0 1-2.52 2.64zm-12.48-14.46c-5.64 0-8.94 4.14-9.72 9.3h19.44c-.84-5.76-4.44-9.3-9.72-9.3z"/><path id="AK" d="M473.7 42.643a4.32 4.32 0 1 1 4.32-4.319 4.302 4.302 0 0 1-4.32 4.319zm0 36.72a2.52 2.52 0 0 1-2.64-2.52v-26.76a2.534 2.534 0 0 1 2.64-2.58 2.472 2.472 0 0 1 2.52 2.58v26.76a2.421 2.421 0 0 1-2.52 2.52z"/><path id="AL" d="M543.588 66.042h-22.2c.84 5.64 4.44 9.24 9.72 9.24a9.007 9.007 0 0 0 7.14-3.12 2.483 2.483 0 0 1 1.859-.96 2.8 2.8 0 0 1 2.7 2.64c0 .72-.18 1.26-1.44 2.52a14.618 14.618 0 0 1-10.259 4.02c-9.66 0-15.06-7.98-15.06-16.98 0-8.94 5.4-16.92 15.06-16.92 9.78 0 15 7.98 15 16.92a2.558 2.558 0 0 1-2.52 2.64zm-12.48-14.46c-5.64 0-8.94 4.14-9.72 9.3h19.438c-.84-5.76-4.44-9.3-9.72-9.3z"/><path id="AM" d="M560.208 80.38c-3.3 0-8.82-1.02-11.64-4.5a2.655 2.655 0 0 1 2.16-4.26 2.463 2.463 0 0 1 1.859 1.02c1.86 2.04 4.92 2.64 7.62 2.64 5.4 0 7.14-1.86 7.14-4.56 0-7.68-18.3-2.94-18.3-15.3 0-6.54 6.12-8.94 11.82-8.94 3.24 0 10.86 1.62 10.86 4.98a2.694 2.694 0 0 1-2.52 2.7 3.612 3.612 0 0 1-1.98-.78c-1.62-1.38-3.96-1.8-6.36-1.8-4.98 0-6.72 1.86-6.72 3.84 0 7.14 18.36 2.52 18.36 15.3 0 7.08-5.94 9.66-12.3 9.66z"/><path id="AN" d="M586.43 79.36h-1.02c-5.7 0-7.86-3-7.86-7.92v-18.84h-1.8a2.55 2.55 0 0 1-.061-5.1h1.8v-8.34a2.436 2.436 0 0 1 2.579-2.52 2.39 2.39 0 0 1 2.521 2.52v8.34h3.84a2.487 2.487 0 0 1 2.52 2.52 2.441 2.441 0 0 1-2.52 2.58h-3.84v19.38c0 1.68.6 2.28 2.28 2.28h1.5a2.475 2.475 0 0 1 2.58 2.52 2.441 2.441 0 0 1-2.52 2.58z"/><path id="AO" d="M710.325 73.842c-2.94 4.08-7.14 6.54-13.38 6.54-12.9 0-17.46-10.68-17.46-22.38 0-11.76 4.56-22.44 17.46-22.44 6.06 0 10.5 2.4 13.32 6.54a2.311 2.311 0 0 1 .54 1.5 2.6 2.6 0 0 1-2.64 2.52 2.509 2.509 0 0 1-2.04-1.08c-1.86-2.7-4.62-4.32-9.18-4.32-8.52 0-12.3 6.3-12.3 17.28s3.78 17.28 12.3 17.28c4.56 0 7.32-1.74 9.18-4.38a2.424 2.424 0 0 1 2.04-1.14 2.525 2.525 0 0 1 2.159 4.08z"/><path id="AP" d="M206.574 137.02a13.936 13.936 0 0 1-10.74 4.56c-9.66 0-15.06-7.92-15.06-16.98 0-9 5.4-16.92 15.06-16.92a13.936 13.936 0 0 1 10.74 4.56 2.615 2.615 0 0 1 .72 1.74 2.794 2.794 0 0 1-2.7 2.58 2.84 2.84 0 0 1-1.86-.84 8.814 8.814 0 0 0-6.9-2.94c-6 0-9.9 4.68-9.9 11.82 0 7.2 3.9 11.88 9.9 11.88a8.923 8.923 0 0 0 6.9-2.939 2.396 2.396 0 0 1 1.86-.9 2.59 2.59 0 0 1 1.98 4.38z"/><path id="AQ" d="M295.25 140.562a2.424 2.424 0 0 1-2.52-2.52v-16.68a8.55 8.55 0 1 0-17.099 0v16.62a2.551 2.551 0 0 1-2.64 2.64 2.472 2.472 0 0 1-2.52-2.58v-26.82a2.387 2.387 0 0 1 2.52-2.52 2.509 2.509 0 0 1 2.58 1.98 13.703 13.703 0 0 1 22.259 10.68v16.62a2.454 2.454 0 0 1-2.58 2.58z"/><path id="AR" d="M345.95 113.803h-2.7v24.18a2.453 2.453 0 0 1-2.64 2.52 2.421 2.421 0 0 1-2.52-2.52v-24.18h-2.46a2.55 2.55 0 0 1 0-5.1h2.46v-4.08a6.836 6.836 0 0 1 6.899-6.78 2.551 2.551 0 1 1 0 5.1 1.681 1.681 0 0 0-1.74 1.62v4.14h2.7a2.552 2.552 0 1 1 0 5.1z"/><linearGradient id="AS" gradientUnits="userSpaceOnUse"/></defs><rect width="1080" height="1080" rx="40" fill="url(#A)"/><g opacity=".25"><path d="M1045.997 734.908H33.994" fill="none" stroke="#fff6da" class="V W"/><path d="M863.975 430.073v-15.25h-15.25v15.25H702.63c-78.572 0-109.604 33.733-136.983 63.496-13.894 15.104-27.017 29.37-46.345 39.915-22.05 12.03-50.384 17.88-86.62 17.88h-8.69v-26.29a60 60 0 0 0-60-60h-45.97V454.44a54.22 54.22 0 0 1 54.22-54.22v-22.638H156.986v22.638a54.22 54.22 0 0 1 54.22 54.22v10.633h-45.97a60 60 0 0 0-60 60v209.835h318.757v-46.764h8.69c36.235 0 64.568 5.85 86.62 17.88 19.328 10.546 32.45 24.812 46.345 39.915 27.38 29.763 58.41 63.496 136.983 63.496v-50c-61.018 0-81.55-22.32-107.545-50.577-30.49-33.145-65.05-70.714-162.402-70.714h-8.69v-36.78h8.69c97.35 0 131.91-37.568 162.402-70.714 25.995-28.258 46.527-50.577 107.545-50.577h343.4v-50z" fill-rule="evenodd" fill="url(#B)"/></g><g opacity=".5" class="U"><use xlink:href="#I"/><use xlink:href="#J"/><use xlink:href="#I" x="24.937"/><use xlink:href="#K"/><use xlink:href="#L"/><path d="M120.554 969.92c-2.464 0-5.943-.895-5.943-1.904a.901.901 0 0 1 .841-.896 10.597 10.597 0 0 1 1.537.672 11.214 11.214 0 0 0 3.565.532c3.71 0 5.625-1.764 5.625-5.208v-1.96a7.03 7.03 0 0 1-5.625 2.38c-4.58 0-7.276-3.136-7.276-7.448 0-4.2 2.61-7.896 7.276-7.896a6.711 6.711 0 0 1 5.625 2.632v-1.344a.827.827 0 0 1 1.652 0v13.636c0 4.452-2.754 6.804-7.277 6.804zm0-20.132c-3.42 0-5.624 2.66-5.624 6.3 0 3.612 2.06 5.853 5.624 5.853s5.625-2.24 5.625-5.853c0-3.64-2.175-6.3-5.625-6.3z"/><use xlink:href="#L" x="29.723"/><use xlink:href="#J" x="78.466"/><path d="M161.18 964.01a6.657 6.657 0 0 1-5.624-2.659v1.4a.827.827 0 0 1-1.652 0v-18.368a.827.827 0 0 1 1.652 0v6.44a6.71 6.71 0 0 1 5.624-2.632c4.668 0 7.277 3.696 7.277 7.896 0 4.23-2.61 7.924-7.277 7.924zm0-14.224c-3.45 0-5.624 2.66-5.624 6.3s2.174 6.328 5.624 6.328 5.625-2.687 5.625-6.328-2.175-6.3-5.625-6.3z"/><use xlink:href="#K" x="87.717"/><use xlink:href="#L" x="87.718"/><path d="M214.738 956.9h-12.032c.262 3.2 2.406 5.516 5.566 5.516a5.314 5.314 0 0 0 4.262-1.932.767.767 0 0 1 .696-.393.876.876 0 0 1 .898.756c0 .253 0 .3-.55.925a6.957 6.957 0 0 1-5.306 2.239c-4.667 0-7.276-3.695-7.276-7.924 0-4.2 2.6-7.896 7.276-7.896s7.277 3.724 7.277 7.896a.863.863 0 0 1-.812.813zm-6.466-7.112c-3.48 0-5.305 2.576-5.566 5.516h11.162c-.26-3.2-2.406-5.516-5.596-5.516zm29.024 13.748a.779.779 0 0 1-.812-.784v-9.408a3.7 3.7 0 0 0-7.393-.027v9.436a.779.779 0 0 1-.812.784.804.804 0 0 1-.841-.784v-9.408a3.684 3.684 0 0 0-7.363-.027v9.436a.827.827 0 0 1-1.652 0v-13.3a.827.827 0 0 1 1.652 0v.168a5.368 5.368 0 0 1 3.682-1.428 5.425 5.425 0 0 1 4.522 2.38 5.399 5.399 0 0 1 4.494-2.38 5.216 5.216 0 0 1 5.363 5.124v9.436a.803.803 0 0 1-.841.784zm4.962-17.556a1.597 1.597 0 1 1 1.653-1.597 1.606 1.606 0 0 1-1.653 1.597zm0 17.556a.785.785 0 0 1-.84-.784v-13.3a.786.786 0 0 1 .84-.784.778.778 0 0 1 .813.784v13.3a.764.764 0 0 1-.812.784z"/><use xlink:href="#M"/><path d="M264.644 964.068c-1.74 0-4.667-.588-5.682-2.212a.658.658 0 0 1-.116-.42.872.872 0 0 1 .841-.841.898.898 0 0 1 .638.393c1.044 1.23 2.9 1.483 4.32 1.483 2.813 0 4.233-.896 4.233-2.716 0-4.228-9.5-1.987-9.5-7.588 0-2.828 2.93-3.92 5.566-3.92a8.035 8.035 0 0 1 4.986 1.624.77.77 0 0 1 .262.532.926.926 0 0 1-.899.84.782.782 0 0 1-.551-.224 5.936 5.936 0 0 0-3.798-1.177c-2.55 0-3.914.952-3.914 2.324 0 3.92 9.5 1.85 9.5 7.588 0 3.192-2.9 4.313-5.886 4.313zm9.194-18.088a1.597 1.597 0 1 1 1.652-1.597 1.607 1.607 0 0 1-1.652 1.597zm0 17.556a.785.785 0 0 1-.841-.784v-13.3a.787.787 0 0 1 .841-.784.778.778 0 0 1 .812.784v13.3a.763.763 0 0 1-.812.784z"/><use xlink:href="#J" x="219.511"/><path d="M307.357 963.536a.803.803 0 0 1-.841-.784v-8.176a4.961 4.961 0 0 0-9.915 0v8.176a.827.827 0 0 1-1.652 0v-13.3a.827.827 0 0 1 1.652 0v.896a6.723 6.723 0 0 1 4.957-2.156 6.552 6.552 0 0 1 6.61 6.384v8.176a.796.796 0 0 1-.812.784z"/><use xlink:href="#M" x="64.84"/></g><g class="U"><path d="M54.224 221.72a1.401 1.401 0 0 1-1.428-1.462v-15.64L46.2 216.927a1.488 1.488 0 0 1-1.36.917 1.619 1.619 0 0 1-1.36-.917l-6.56-12.24v15.57a1.417 1.417 0 0 1-1.496 1.462 1.401 1.401 0 0 1-1.428-1.462V199.01a1.431 1.431 0 0 1 1.564-1.53 1.303 1.303 0 0 1 1.224.85l8.057 14.992 8.09-14.992a1.305 1.305 0 0 1 1.326-.85 1.408 1.408 0 0 1 1.462 1.53v21.248a1.417 1.417 0 0 1-1.496 1.462z"/><use xlink:href="#N"/><path d="M84.587 221.687h-.578c-3.23 0-4.454-1.7-4.454-4.488v-10.675h-1.02a1.445 1.445 0 1 1-.034-2.89h1.02v-4.726a1.38 1.38 0 0 1 1.462-1.428 1.354 1.354 0 0 1 1.428 1.428v4.726h2.176a1.41 1.41 0 0 1 1.428 1.428 1.383 1.383 0 0 1-1.428 1.462H82.4v10.98c0 .952.34 1.292 1.292 1.292h.85a1.403 1.403 0 0 1 1.462 1.428 1.383 1.383 0 0 1-1.428 1.462zm17.85 0a1.373 1.373 0 0 1-1.428-1.428v-9.45a4.845 4.845 0 1 0-9.689 0v9.417a1.445 1.445 0 0 1-1.496 1.496 1.401 1.401 0 0 1-1.428-1.462v-21.316a1.462 1.462 0 0 1 2.924-.034v5.88a6.855 6.855 0 0 1 4.827-1.734 7.814 7.814 0 0 1 7.751 7.751v9.417a1.391 1.391 0 0 1-1.462 1.462z"/><use xlink:href="#O"/><use xlink:href="#P"/><use xlink:href="#Q"/><use xlink:href="#R"/><use xlink:href="#S"/><path d="M210.146 229.438c-2.074 0-7.207-.748-7.207-2.788a1.583 1.583 0 0 1 1.462-1.53c.782 0 .102.102 1.904.782a10.618 10.618 0 0 0 3.841.646c3.774 0 5.61-1.802 5.61-5.37v-1.53a7.953 7.953 0 0 1-5.609 2.04c-5.37 0-8.533-3.808-8.533-9.043 0-5.1 3.06-9.587 8.533-9.587a7.326 7.326 0 0 1 5.609 2.176v-.136a1.447 1.447 0 0 1 1.462-1.462 1.427 1.427 0 0 1 1.462 1.462v16.08c0 5.405-3.23 8.26-8.533 8.26zm0-23.492c-3.4 0-5.61 2.65-5.61 6.697 0 3.875 2.04 6.153 5.61 6.153s5.61-2.278 5.61-6.153c0-4.046-2.176-6.697-5.61-6.697z"/><use xlink:href="#T"/><use xlink:href="#U"/><use xlink:href="#V"/><use xlink:href="#W"/><path d="M294.09 205.946a4.897 4.897 0 0 0-4.827 4.861v9.417a1.417 1.417 0 0 1-1.496 1.462 1.392 1.392 0 0 1-1.428-1.428v-15.163a1.44 1.44 0 0 1 1.428-1.462 1.396 1.396 0 0 1 1.462 1.156 7.861 7.861 0 0 1 4.861-1.734 1.446 1.446 0 1 1 0 2.89z"/><use xlink:href="#X"/><use xlink:href="#V" x="62.457"/><use xlink:href="#O" x="221.814"/><path d="M363.28 206.116l-5.065 5.065 5.27 8.26a1.863 1.863 0 0 1 .238.816 1.532 1.532 0 0 1-1.53 1.462 1.376 1.376 0 0 1-1.156-.68l-4.963-7.717-2.9 2.9v4.046a1.462 1.462 0 0 1-2.924 0v-21.35a1.372 1.372 0 0 1 1.428-1.428 1.39 1.39 0 0 1 1.496 1.428v13.19l8.023-8.023a1.459 1.459 0 0 1 1.088-.442 1.52 1.52 0 0 1 1.462 1.462 1.497 1.497 0 0 1-.476 1.02z"/><use xlink:href="#W" x="99.277"/><use xlink:href="#S" x="198.148"/><use xlink:href="#P" x="272.097"/><use xlink:href="#Y"/><path d="M469.323 221.687a3.309 3.309 0 0 1-3.026-1.938 7.789 7.789 0 0 1-5.983 2.516c-5.542 0-8.533-4.556-8.533-9.62s3.06-9.587 8.533-9.587a7.513 7.513 0 0 1 5.61 2.244v-.136a1.402 1.402 0 0 1 1.428-1.53 1.366 1.366 0 0 1 1.496 1.428v13.123a.55.55 0 0 0 .476.612 1.445 1.445 0 1 1 0 2.89zm-9.01-15.74c-3.4 0-5.61 2.65-5.61 6.697 0 4.08 2.2 6.73 5.61 6.73 3.434 0 5.6-2.65 5.6-6.73 0-4.046-2.176-6.697-5.6-6.697z"/><use xlink:href="#X" x="176.388"/><path d="M494.484 221.687h-.578c-3.23 0-4.454-1.7-4.454-4.488v-10.675h-1.02a1.445 1.445 0 1 1-.034-2.89h1.02v-4.726a1.381 1.381 0 0 1 1.462-1.428 1.354 1.354 0 0 1 1.428 1.428v4.726h2.176a1.41 1.41 0 0 1 1.428 1.428 1.383 1.383 0 0 1-1.428 1.462h-2.176v10.98c0 .952.34 1.292 1.29 1.292h.85a1.403 1.403 0 0 1 1.462 1.428 1.383 1.383 0 0 1-1.428 1.462z"/><use xlink:href="#N" x="438.695"/><use xlink:href="#Z"/><use xlink:href="#a"/><use xlink:href="#b"/><path d="M96.96 257.687a1.392 1.392 0 0 1-1.428-1.428v-10.7a3.587 3.587 0 0 0-7.173-.034v10.7a1.39 1.39 0 0 1-1.462 1.462 1.373 1.373 0 0 1-1.428-1.428v-10.7a3.604 3.604 0 0 0-7.207-.034v10.7a1.417 1.417 0 0 1-1.496 1.462 1.392 1.392 0 0 1-1.428-1.428v-15.197a1.491 1.491 0 0 1 2.72-.816 6.552 6.552 0 0 1 3.773-1.19 6.435 6.435 0 0 1 5.065 2.414 6.368 6.368 0 0 1 5.032-2.414 6.493 6.493 0 0 1 6.527 6.459v10.7a1.417 1.417 0 0 1-1.496 1.462zm16.186.067a3.469 3.469 0 0 1-3.4-3.468v-19.344a1.462 1.462 0 0 1 2.924-.034v19.378a.537.537 0 0 0 .476.578 1.445 1.445 0 1 1 0 2.89z"/><use xlink:href="#S" x="-78.098" y="36"/><path d="M138.168 241.64l-6.187 14.89a1.551 1.551 0 0 1-1.462 1.156 1.647 1.647 0 0 1-1.462-1.156l-6.187-14.89a2.081 2.081 0 0 1-.102-.612 1.466 1.466 0 0 1 1.496-1.394 1.392 1.392 0 0 1 1.292.884l4.963 11.9 4.963-11.9a1.465 1.465 0 0 1 2.822.476 1.69 1.69 0 0 1-.136.646z"/><use xlink:href="#Q" x="-7.38" y="36"/><use xlink:href="#U" x="-82.416" y="36"/><use xlink:href="#V" x="-82.416" y="36"/><use xlink:href="#b" x="128.994"/><path d="M217.692 255.68a7.895 7.895 0 0 1-6.085 2.584c-5.473 0-8.533-4.488-8.533-9.62 0-5.1 3.06-9.587 8.533-9.587a7.895 7.895 0 0 1 6.085 2.584 1.483 1.483 0 0 1 .408.986 1.583 1.583 0 0 1-1.53 1.462 1.61 1.61 0 0 1-1.054-.476 4.994 4.994 0 0 0-3.91-1.666c-3.4 0-5.6 2.65-5.6 6.697 0 4.08 2.2 6.73 5.6 6.73a5.055 5.055 0 0 0 3.91-1.666 1.358 1.358 0 0 1 1.054-.51 1.467 1.467 0 0 1 1.122 2.482zm16.422-13.564l-5.065 5.065 5.27 8.26a1.87 1.87 0 0 1 .238.816 1.532 1.532 0 0 1-1.53 1.462 1.376 1.376 0 0 1-1.156-.68l-4.963-7.717-2.9 2.9v4.046a1.462 1.462 0 0 1-2.924 0v-21.35a1.372 1.372 0 0 1 1.428-1.428 1.39 1.39 0 0 1 1.496 1.428v13.2l8.023-8.023a1.459 1.459 0 0 1 1.088-.442 1.52 1.52 0 0 1 1.462 1.462 1.497 1.497 0 0 1-.476 1.02zm4.796 18.562a1.379 1.379 0 0 1-.714.238 1.497 1.497 0 0 1-1.428-1.496c0-1.156 1.292-1.394 1.292-1.938v-.034s-1.36-.374-1.36-2.414a2.199 2.199 0 0 1 2.278-2.107c1.598 0 2.55 1.802 2.55 3.264a5.378 5.378 0 0 1-2.618 4.487z"/><use xlink:href="#Z" x="217.086"/><use xlink:href="#b" x="206.545"/><use xlink:href="#b" x="226.197"/><use xlink:href="#R" x="126.85" y="36"/><path d="M346.243 257.72a1.194 1.194 0 0 1-.986-.476l-2.448-2.448-1.29 1.292a7.276 7.276 0 1 1-8.839-11.389l-.68-.68a6.284 6.284 0 0 1-2.108-4.76 6.428 6.428 0 0 1 6.391-6.391 7.321 7.321 0 0 1 6.629 4.793 1.556 1.556 0 0 1-1.53 1.462c-1.36 0-2.176-3.332-5.1-3.332a3.439 3.439 0 0 0-3.467 3.468 3.362 3.362 0 0 0 1.224 2.652l8.77 8.77 2.346-2.346a1.708 1.708 0 0 1 1.02-.51 1.533 1.533 0 0 1 1.462 1.53 1.483 1.483 0 0 1-.408 1.054l-2.38 2.312 2.448 2.48a1.434 1.434 0 0 1 .476 1.02 1.563 1.563 0 0 1-1.53 1.496zM334.89 246.9a4.301 4.301 0 0 0-2.924 4.08 4.427 4.427 0 0 0 4.317 4.385 4.2 4.2 0 0 0 3.06-1.258l1.394-1.394z"/><use xlink:href="#Y" x="-69.531" y="36"/><path d="M399.792 257.687a3.309 3.309 0 0 1-3.026-1.938 7.789 7.789 0 0 1-5.983 2.516c-5.54 0-8.533-4.556-8.533-9.62s3.06-9.587 8.533-9.587a7.511 7.511 0 0 1 5.609 2.244v-.136a1.403 1.403 0 0 1 1.428-1.53 1.366 1.366 0 0 1 1.496 1.428v13.123a.55.55 0 0 0 .476.612 1.445 1.445 0 1 1 0 2.89zm-9-15.74c-3.4 0-5.6 2.65-5.6 6.697 0 4.08 2.2 6.73 5.6 6.73 3.434 0 5.6-2.65 5.6-6.73 0-4.046-2.176-6.697-5.6-6.697zm18.7 15.74h-.578c-3.23 0-4.454-1.7-4.454-4.488v-10.675h-1.02a1.445 1.445 0 1 1-.034-2.89h1.02v-4.726a1.381 1.381 0 0 1 1.462-1.428 1.354 1.354 0 0 1 1.428 1.428v4.726h2.176a1.41 1.41 0 0 1 1.428 1.428 1.383 1.383 0 0 1-1.428 1.462h-2.176v10.98c0 .952.34 1.292 1.292 1.292h.85a1.403 1.403 0 0 1 1.462 1.428 1.383 1.383 0 0 1-1.428 1.462z"/><use xlink:href="#T" x="190.462" y="36"/><use xlink:href="#a" x="387.388"/><path d="M156.536 583.628a.71.71 0 0 1-.728-.728v-14.12l-6.188 11.493a.686.686 0 0 1-.598.468.803.803 0 0 1-.702-.468l-6.162-11.493v14.12a.741.741 0 0 1-1.482 0v-17.057a.754.754 0 0 1 .78-.728.679.679 0 0 1 .624.364l6.9 12.87 6.917-12.87a.706.706 0 0 1 .624-.364.754.754 0 0 1 .78.728V582.9a.731.731 0 0 1-.754.728zm5.2-16.302a1.482 1.482 0 1 1 1.482-1.482 1.465 1.465 0 0 1-1.482 1.482zm0 16.303a.715.715 0 0 1-.754-.728v-12.35a.716.716 0 0 1 .754-.728.708.708 0 0 1 .728.728v12.35a.696.696 0 0 1-.728.728zm15.002-1.535a6.041 6.041 0 0 1-4.654 1.976c-4.187 0-6.526-3.432-6.526-7.358 0-3.9 2.34-7.332 6.526-7.332a6.041 6.041 0 0 1 4.654 1.976.689.689 0 0 1 .208.494.815.815 0 0 1-.754.78.767.767 0 0 1-.546-.26 4.584 4.584 0 0 0-3.562-1.508c-3.068 0-5.044 2.47-5.044 5.85s1.976 5.876 5.044 5.876a4.671 4.671 0 0 0 3.562-1.508.738.738 0 0 1 1.3.494.746.746 0 0 1-.208.52zm9.256-10.998a4.444 4.444 0 0 0-4.446 4.446v7.358a.741.741 0 0 1-1.482 0v-12.35a.741.741 0 0 1 1.482 0v1.066a5.936 5.936 0 0 1 4.446-2.002.741.741 0 1 1 0 1.482z"/><use xlink:href="#c"/><path d="M210.72 584.07a5.9 5.9 0 0 1-5.044-2.47v1.3a.741.741 0 0 1-1.482 0v-17.057a.741.741 0 0 1 1.482 0v5.98a5.945 5.945 0 0 1 5.044-2.444c4.186 0 6.526 3.432 6.526 7.332 0 3.926-2.34 7.358-6.526 7.358zm0-13.208c-3.094 0-5.044 2.47-5.044 5.85s1.95 5.876 5.044 5.876 5.044-2.496 5.044-5.876-1.95-5.85-5.044-5.85z"/><use xlink:href="#d"/><path d="M240.228 584.123c-1.56 0-4.186-.546-5.096-2.054a.626.626 0 0 1-.105-.39.709.709 0 0 1 1.326-.416 4.954 4.954 0 0 0 3.874 1.378c2.522 0 3.796-.832 3.796-2.522 0-3.926-8.528-1.846-8.528-7.046 0-2.626 2.626-3.64 4.992-3.64a7.045 7.045 0 0 1 4.472 1.508.725.725 0 0 1 .234.494.843.843 0 0 1-.806.78.687.687 0 0 1-.494-.208 5.2 5.2 0 0 0-3.406-1.092c-2.288 0-3.5.884-3.5 2.158 0 3.64 8.528 1.716 8.528 7.046 0 2.964-2.6 4.004-5.278 4.004zm24.596-.495a.731.731 0 0 1-.754-.728v-1.3a5.9 5.9 0 0 1-5.044 2.47c-4.187 0-6.526-3.432-6.526-7.358 0-3.9 2.34-7.332 6.526-7.332a5.944 5.944 0 0 1 5.044 2.444v-5.98a.741.741 0 0 1 1.482 0V582.9a.725.725 0 0 1-.729.728zm-5.798-12.767c-3.068 0-5.044 2.47-5.044 5.85s1.976 5.876 5.044 5.876c3.094 0 5.044-2.496 5.044-5.876s-1.95-5.85-5.044-5.85z"/><use xlink:href="#d" x="48.905"/><path d="M295.374 582.094a6.038 6.038 0 0 1-4.654 1.976c-4.186 0-6.526-3.432-6.526-7.358 0-3.9 2.34-7.332 6.526-7.332a6.038 6.038 0 0 1 4.654 1.976.687.687 0 0 1 .208.494.814.814 0 0 1-.754.78.768.768 0 0 1-.546-.26 4.584 4.584 0 0 0-3.562-1.508c-3.068 0-5.044 2.47-5.044 5.85s1.976 5.876 5.044 5.876a4.671 4.671 0 0 0 3.562-1.508.738.738 0 0 1 1.3.494.744.744 0 0 1-.208.52zm9.256 1.976c-4.187 0-6.526-3.432-6.526-7.358 0-3.9 2.34-7.332 6.526-7.332s6.526 3.432 6.526 7.332c0 3.926-2.34 7.358-6.526 7.358zm0-13.208c-3.068 0-5.044 2.47-5.044 5.85s1.976 5.876 5.044 5.876c3.094 0 5.044-2.496 5.044-5.876s-1.95-5.85-5.044-5.85z"/><use xlink:href="#e"/><path d="M341.913 584.07a5.9 5.9 0 0 1-5.044-2.47v6.734a.741.741 0 1 1-1.482 0V570.55a.741.741 0 0 1 1.482 0v1.274a5.944 5.944 0 0 1 5.044-2.444c4.187 0 6.526 3.432 6.526 7.332 0 3.926-2.34 7.358-6.526 7.358zm0-13.208c-3.094 0-5.044 2.47-5.044 5.85s1.95 5.876 5.044 5.876 5.044-2.496 5.044-5.876-1.95-5.85-5.044-5.85z"/><use xlink:href="#c" x="162.886"/><path d="M371.423 584.123c-1.56 0-4.187-.546-5.097-2.054a.631.631 0 0 1-.104-.39.709.709 0 0 1 1.326-.416 4.955 4.955 0 0 0 3.875 1.378c2.522 0 3.796-.832 3.796-2.522 0-3.926-8.528-1.846-8.528-7.046 0-2.626 2.626-3.64 4.992-3.64a7.045 7.045 0 0 1 4.472 1.508.728.728 0 0 1 .234.494.842.842 0 0 1-.806.78.687.687 0 0 1-.494-.208 5.2 5.2 0 0 0-3.406-1.092c-2.288 0-3.5.884-3.5 2.158 0 3.64 8.528 1.716 8.528 7.046 0 2.964-2.6 4.004-5.278 4.004z"/><use xlink:href="#d" x="159.092"/><path d="M143.185 612.233h-.806c-2.054 0-3.068-1.014-3.068-3.042v-9.282h-1.326a.741.741 0 0 1 0-1.482h1.326v-3.978a.731.731 0 0 1 .754-.728.709.709 0 0 1 .728.728v3.978h2.393a.741.741 0 0 1 0 1.482h-2.393v9.282c0 1.274.364 1.56 1.586 1.56h.806a.741.741 0 0 1 0 1.482zm14.223 0a.731.731 0 0 1-.754-.728v-7.592a4.446 4.446 0 1 0-8.892 0v7.592a.741.741 0 0 1-1.482 0V594.45a.741.741 0 0 1 1.482 0v5.538a5.776 5.776 0 0 1 4.446-2.002 5.976 5.976 0 0 1 5.928 5.928v7.592a.725.725 0 0 1-.728.728zm15.912-6.163h-10.8c.234 2.964 2.158 5.122 4.992 5.122a4.701 4.701 0 0 0 3.822-1.794.682.682 0 0 1 .624-.364.795.795 0 0 1 .806.702c0 .234 0 .286-.494.858a6.137 6.137 0 0 1-4.758 2.08c-4.187 0-6.526-3.432-6.526-7.358 0-3.9 2.34-7.333 6.526-7.333s6.526 3.458 6.526 7.333a.787.787 0 0 1-.729.754zm-5.798-6.604c-3.12 0-4.758 2.392-4.992 5.122h10c-.234-2.964-2.158-5.122-5.018-5.122zm33.098-.076l-4.238 12.22c-.182.494-.416.624-.754.624-.442 0-.572-.156-.728-.624l-3.406-10.14-3.406 10.14c-.182.494-.416.624-.754.624a.759.759 0 0 1-.728-.624l-4.212-12.22a1.109 1.109 0 0 1-.052-.286.739.739 0 0 1 .754-.676.675.675 0 0 1 .676.494l3.562 10.296 3.406-10.167c.156-.494.312-.624.754-.624.313 0 .572.104.73.624l3.458 10.167 3.5-10.296a.675.675 0 0 1 .676-.494.757.757 0 0 1 .806.702.769.769 0 0 1-.052.26zm16.118 12.843h-.026a2.692 2.692 0 0 1-2.574-2.028 5.898 5.898 0 0 1-5.044 2.47c-4.238 0-6.526-3.484-6.526-7.358 0-3.926 2.34-7.333 6.526-7.333a5.944 5.944 0 0 1 5.044 2.444v-1.274a.733.733 0 0 1 .754-.728.71.71 0 0 1 .728.728v10.48c0 1.664 1.872.624 1.872 1.872a.715.715 0 0 1-.754.728zm-7.644-12.767c-3.068 0-5.044 2.47-5.044 5.85s1.976 5.876 5.044 5.876c3.094 0 5.044-2.496 5.044-5.876s-1.95-5.85-5.044-5.85zm15.106 13.262c-1.56 0-4.187-.546-5.097-2.054a.63.63 0 0 1-.104-.39.709.709 0 0 1 1.326-.416 4.954 4.954 0 0 0 3.875 1.378c2.522 0 3.796-.832 3.796-2.522 0-3.926-8.528-1.846-8.528-7.046 0-2.626 2.626-3.64 4.992-3.64a7.045 7.045 0 0 1 4.472 1.508.729.729 0 0 1 .234.494.843.843 0 0 1-.806.78.687.687 0 0 1-.494-.208 5.2 5.2 0 0 0-3.406-1.092c-2.288 0-3.5.884-3.5 2.158 0 3.64 8.528 1.716 8.528 7.046 0 2.964-2.6 4.004-5.278 4.004zm12.766-.495h-.806c-2.054 0-3.068-1.014-3.068-3.042v-9.282h-1.326a.741.741 0 0 1 0-1.482h1.326v-3.978a.731.731 0 0 1 .754-.728.71.71 0 0 1 .729.728v3.978h2.392a.741.741 0 0 1 0 1.482h-2.392v9.282c0 1.274.364 1.56 1.586 1.56h.806a.741.741 0 0 1 0 1.482zm14.82-6.163h-10.8c.234 2.964 2.158 5.122 4.992 5.122a4.699 4.699 0 0 0 3.822-1.794.682.682 0 0 1 .624-.364.795.795 0 0 1 .806.702c0 .234 0 .286-.494.858a6.139 6.139 0 0 1-4.758 2.08c-4.186 0-6.526-3.432-6.526-7.358 0-3.9 2.34-7.333 6.526-7.333s6.526 3.458 6.526 7.333a.787.787 0 0 1-.728.754zm-5.798-6.604c-3.12 0-4.758 2.392-4.992 5.122h10c-.234-2.964-2.158-5.122-5.018-5.122zm10.66 15.08a.677.677 0 0 1-.39.104.727.727 0 0 1-.702-.754c0-.728 1.118-.832 1.3-1.664a1.497 1.497 0 0 1 .104-2.99c1.274 0 1.56 1.3 1.56 2.106a3.711 3.711 0 0 1-1.872 3.198zm18.46-1.872a5.9 5.9 0 0 1-5.044-2.47v6.734a.741.741 0 1 1-1.482 0v-17.785a.741.741 0 0 1 1.482 0v1.274a5.946 5.946 0 0 1 5.044-2.444c4.186 0 6.526 3.432 6.526 7.333 0 3.926-2.34 7.358-6.526 7.358zm0-13.208c-3.094 0-5.044 2.47-5.044 5.85s1.95 5.876 5.044 5.876 5.044-2.496 5.044-5.876-1.95-5.85-5.044-5.85zm15.548.233a4.444 4.444 0 0 0-4.446 4.446v7.358a.741.741 0 0 1-1.482 0v-12.35a.741.741 0 0 1 1.482 0v1.066a5.937 5.937 0 0 1 4.446-2.002.741.741 0 1 1 0 1.482zm8.58 12.975c-4.186 0-6.526-3.432-6.526-7.358 0-3.9 2.34-7.333 6.526-7.333s6.526 3.432 6.526 7.333c0 3.926-2.34 7.358-6.526 7.358zm0-13.208c-3.068 0-5.044 2.47-5.044 5.85s1.976 5.876 5.044 5.876c3.094 0 5.044-2.496 5.044-5.876s-1.95-5.85-5.044-5.85zm21.345 12.766a.731.731 0 0 1-.754-.728v-1.3a5.899 5.899 0 0 1-5.044 2.47c-4.187 0-6.526-3.432-6.526-7.358 0-3.9 2.34-7.333 6.526-7.333a5.945 5.945 0 0 1 5.044 2.444v-5.98a.741.741 0 0 1 1.482 0v17.057a.725.725 0 0 1-.729.728zm-5.798-12.767c-3.068 0-5.044 2.47-5.044 5.85s1.976 5.876 5.044 5.876c3.094 0 5.044-2.496 5.044-5.876s-1.95-5.85-5.044-5.85zm21.112 12.767a.731.731 0 0 1-.754-.728v-.832a5.775 5.775 0 0 1-4.446 2.002 5.993 5.993 0 0 1-5.929-5.928v-7.592a.741.741 0 0 1 1.482 0v7.592a4.446 4.446 0 1 0 8.892 0v-7.592a.741.741 0 0 1 1.482 0v12.35a.724.724 0 0 1-.728.728zm15.002-1.533a6.039 6.039 0 0 1-4.654 1.976c-4.187 0-6.526-3.432-6.526-7.358 0-3.9 2.34-7.333 6.526-7.333a6.041 6.041 0 0 1 4.654 1.976.69.69 0 0 1 .208.494.815.815 0 0 1-.754.78.765.765 0 0 1-.546-.26 4.583 4.583 0 0 0-3.562-1.508c-3.068 0-5.044 2.47-5.044 5.85s1.976 5.876 5.044 5.876a4.674 4.674 0 0 0 3.562-1.508.738.738 0 0 1 1.3.494.745.745 0 0 1-.208.52zm4.082-14.77a1.482 1.482 0 1 1 1.482-1.482 1.465 1.465 0 0 1-1.482 1.482zm0 16.303a.715.715 0 0 1-.754-.728v-12.35a.716.716 0 0 1 .754-.728.709.709 0 0 1 .728.728v12.35a.695.695 0 0 1-.728.728zm15.548 0a.73.73 0 0 1-.754-.728v-7.592a4.446 4.446 0 1 0-8.893 0v7.592a.741.741 0 0 1-1.482 0v-12.35a.741.741 0 0 1 1.482 0v.832a5.931 5.931 0 0 1 10.375 3.926v7.592a.725.725 0 0 1-.728.728zm10.114 5.93c-2.2 0-5.33-.832-5.33-1.768a.826.826 0 0 1 .754-.832 9.397 9.397 0 0 1 1.378.624 9.749 9.749 0 0 0 3.198.494c3.328 0 5.044-1.638 5.044-4.836v-1.82a6.207 6.207 0 0 1-5.044 2.21c-4.108 0-6.526-2.912-6.526-6.916 0-3.9 2.34-7.333 6.526-7.333a5.944 5.944 0 0 1 5.044 2.444v-1.248a.741.741 0 0 1 1.482 0v12.663c0 4.134-2.47 6.318-6.526 6.318zm0-18.695c-3.068 0-5.044 2.47-5.044 5.85 0 3.354 1.846 5.434 5.044 5.434s5.044-2.08 5.044-5.434c0-3.38-1.95-5.85-5.044-5.85z"/><use xlink:href="#e" x="-125.904" y="57.21"/><path d="M221.2 634.676h-10.8c.234 2.964 2.158 5.122 4.992 5.122a4.701 4.701 0 0 0 3.822-1.794.681.681 0 0 1 .624-.364.795.795 0 0 1 .806.702c0 .234 0 .286-.494.858a6.137 6.137 0 0 1-4.758 2.08c-4.187 0-6.526-3.432-6.526-7.358 0-3.9 2.34-7.332 6.526-7.332s6.526 3.458 6.526 7.332a.788.788 0 0 1-.729.754zm-5.798-6.604c-3.12 0-4.758 2.392-4.992 5.123h10c-.234-2.964-2.158-5.123-5.018-5.123zm14.398 12.766h-.806c-2.054 0-3.068-1.014-3.068-3.042v-9.283H224.6a.741.741 0 0 1 0-1.482h1.326v-3.978a.731.731 0 0 1 .754-.728.71.71 0 0 1 .728.728v3.978h2.393a.741.741 0 0 1 0 1.482h-2.393v9.283c0 1.274.364 1.56 1.586 1.56h.806a.741.741 0 0 1 0 1.482zm14.212 0a.731.731 0 0 1-.754-.728v-7.592a4.446 4.446 0 1 0-8.892 0v7.592a.741.741 0 0 1-1.482 0v-17.057a.741.741 0 0 1 1.482 0v5.538a5.776 5.776 0 0 1 4.446-2.002 5.976 5.976 0 0 1 5.928 5.928v7.592a.725.725 0 0 1-.728.728zm17.758 0h-.026a2.693 2.693 0 0 1-2.574-2.028 5.9 5.9 0 0 1-5.044 2.47c-4.238 0-6.526-3.484-6.526-7.358 0-3.926 2.34-7.332 6.526-7.332a5.944 5.944 0 0 1 5.044 2.444v-1.274a.733.733 0 0 1 .754-.728.71.71 0 0 1 .729.728v10.48c0 1.664 1.872.624 1.872 1.872a.716.716 0 0 1-.754.728zm-7.644-12.767c-3.068 0-5.044 2.47-5.044 5.85s1.976 5.876 5.044 5.876c3.094 0 5.044-2.496 5.044-5.876s-1.95-5.85-5.044-5.85zm21.892 12.767a.731.731 0 0 1-.754-.728v-7.592a4.446 4.446 0 0 0-8.893 0v7.592a.741.741 0 0 1-1.482 0v-12.35a.741.741 0 0 1 1.482 0v.832a5.931 5.931 0 0 1 10.375 3.926v7.592a.725.725 0 0 1-.728.728z"/><use xlink:href="#d" x="59.865" y="57.21"/><path d="M308.05 646.767c-2.2 0-5.33-.832-5.33-1.768a.825.825 0 0 1 .754-.832 9.374 9.374 0 0 1 1.378.624 9.746 9.746 0 0 0 3.198.494c3.328 0 5.044-1.638 5.044-4.836v-1.82a6.208 6.208 0 0 1-5.044 2.21c-4.108 0-6.526-2.912-6.526-6.917 0-3.9 2.34-7.332 6.526-7.332a5.944 5.944 0 0 1 5.044 2.444v-1.248a.741.741 0 0 1 1.482 0v12.662c0 4.134-2.47 6.318-6.526 6.318zm0-18.695c-3.068 0-5.044 2.47-5.044 5.85 0 3.354 1.846 5.435 5.044 5.435s5.044-2.08 5.044-5.435c0-3.38-1.95-5.85-5.044-5.85zm23.8 12.766h-.026a2.693 2.693 0 0 1-2.574-2.028 5.899 5.899 0 0 1-5.044 2.47c-4.238 0-6.526-3.484-6.526-7.358 0-3.926 2.34-7.332 6.526-7.332a5.943 5.943 0 0 1 5.044 2.444v-1.274a.733.733 0 0 1 .754-.728.71.71 0 0 1 .728.728v10.48c0 1.664 1.872.624 1.872 1.872a.715.715 0 0 1-.754.728zm-7.644-12.767c-3.068 0-5.044 2.47-5.044 5.85s1.976 5.876 5.044 5.876c3.094 0 5.044-2.496 5.044-5.876s-1.95-5.85-5.044-5.85zm15.104 13.262c-1.56 0-4.186-.546-5.096-2.054a.626.626 0 0 1-.104-.39.709.709 0 0 1 1.326-.416 4.954 4.954 0 0 0 3.874 1.378c2.522 0 3.796-.832 3.796-2.522 0-3.926-8.528-1.846-8.528-7.046 0-2.626 2.626-3.64 4.992-3.64a7.045 7.045 0 0 1 4.472 1.508.725.725 0 0 1 .234.494.843.843 0 0 1-.806.78.687.687 0 0 1-.494-.208 5.2 5.2 0 0 0-3.406-1.092c-2.288 0-3.5.884-3.5 2.158 0 3.64 8.528 1.716 8.528 7.046 0 2.964-2.6 4.004-5.278 4.004z"/></g><g fill="#fbd044"><path d="M786.433 464.817a6.624 6.624 0 0 1-4.62-1.68 1.145 1.145 0 0 1-1.232 1.176 1.13 1.13 0 0 1-1.176-1.176V445.61a1.204 1.204 0 0 1 2.408-.028v5.236a6.215 6.215 0 0 1 4.62-1.82c4.508 0 7.028 3.696 7.028 7.896 0 4.228-2.52 7.924-7.028 7.924zm0-13.44c-2.8 0-4.62 2.184-4.62 5.516 0 3.36 1.82 5.544 4.62 5.544s4.62-2.184 4.62-5.544c0-3.332-1.82-5.516-4.62-5.516z"/><use xlink:href="#f"/><use xlink:href="#g"/><use xlink:href="#h"/><use xlink:href="#i"/><use xlink:href="#j"/><use xlink:href="#k"/><use xlink:href="#g" x="80.219"/><path d="M906.69 451.377a4.034 4.034 0 0 0-3.976 4.004v7.756a1.167 1.167 0 0 1-1.232 1.204 1.146 1.146 0 0 1-1.176-1.176v-12.488a1.186 1.186 0 0 1 1.176-1.204 1.149 1.149 0 0 1 1.204.952 6.476 6.476 0 0 1 4.004-1.428 1.191 1.191 0 1 1 0 2.38z"/><use xlink:href="#l"/><use xlink:href="#g" x="127.818"/><use xlink:href="#g" x="144.562"/><path d="M975.373 451.518l-4.172 4.172 4.34 6.804a1.541 1.541 0 0 1 .196.672 1.262 1.262 0 0 1-1.26 1.204 1.133 1.133 0 0 1-.952-.56l-4.088-6.356-2.38 2.38v3.332a1.204 1.204 0 0 1-2.408 0V445.58a1.13 1.13 0 0 1 1.176-1.176 1.145 1.145 0 0 1 1.232 1.176v10.864l6.608-6.608a1.2 1.2 0 0 1 .896-.364 1.252 1.252 0 0 1 1.204 1.204 1.234 1.234 0 0 1-.392.84z"/><use xlink:href="#f" x="181.688"/><path d="M996.596 464.34a1.131 1.131 0 0 1-1.176-1.176v-7.784a3.99 3.99 0 1 0-7.98 0v7.756a1.19 1.19 0 0 1-1.232 1.232 1.153 1.153 0 0 1-1.176-1.204V450.65a1.114 1.114 0 0 1 1.176-1.176 1.17 1.17 0 0 1 1.204.924 6.395 6.395 0 0 1 10.388 4.984v7.756a1.145 1.145 0 0 1-1.204 1.204zm11.314 6.385c-1.708 0-5.936-.616-5.936-2.296a1.304 1.304 0 0 1 1.204-1.26c.644 0 .084.084 1.568.644a8.751 8.751 0 0 0 3.164.532c3.108 0 4.62-1.484 4.62-4.424v-1.26a6.549 6.549 0 0 1-4.62 1.68c-4.424 0-7.028-3.136-7.028-7.448 0-4.2 2.52-7.896 7.028-7.896a6.032 6.032 0 0 1 4.62 1.792v-.112a1.192 1.192 0 0 1 1.204-1.204 1.176 1.176 0 0 1 1.204 1.204v13.244c0 4.452-2.66 6.804-7.028 6.804zm0-19.348c-2.8 0-4.62 2.184-4.62 5.516 0 3.192 1.68 5.068 4.62 5.068s4.62-1.876 4.62-5.068c0-3.332-1.792-5.516-4.62-5.516z"/></g><g fill="#4df1b8"><path d="M790.735 790.703a1.131 1.131 0 0 1-1.176-1.176v-7.784a3.99 3.99 0 1 0-7.98 0v7.756a1.19 1.19 0 0 1-1.232 1.232 1.153 1.153 0 0 1-1.176-1.204V777.01a1.114 1.114 0 0 1 1.176-1.176 1.17 1.17 0 0 1 1.204.924 6.395 6.395 0 0 1 10.388 4.984v7.756a1.145 1.145 0 0 1-1.204 1.204z"/><use xlink:href="#m"/><use xlink:href="#n"/><use xlink:href="#o"/><use xlink:href="#p"/><use xlink:href="#q"/><path d="M864.346 790.703a1.131 1.131 0 0 1-1.176-1.176v-7.784a3.99 3.99 0 1 0-7.98 0v7.756a1.19 1.19 0 0 1-1.232 1.232 1.154 1.154 0 0 1-1.176-1.204V777.01a1.114 1.114 0 0 1 1.176-1.176 1.171 1.171 0 0 1 1.204.924 6.395 6.395 0 0 1 10.388 4.984v7.756a1.145 1.145 0 0 1-1.204 1.204z"/><use xlink:href="#n" x="57.119"/><path d="M886.27 782.78h-8.008a1.19 1.19 0 1 1 0-2.38h8.008a1.19 1.19 0 0 1 0 2.38z"/><use xlink:href="#o" x="70.195"/><use xlink:href="#p" x="70.196"/><use xlink:href="#l" x="-9.837" y="326.36"/><path d="M932.9 790.703a1.131 1.131 0 0 1-1.176-1.176v-7.784a3.99 3.99 0 1 0-7.98 0v7.756a1.19 1.19 0 0 1-1.232 1.232 1.153 1.153 0 0 1-1.176-1.204V771.97a1.204 1.204 0 0 1 2.408-.028v4.844a5.647 5.647 0 0 1 3.976-1.428 6.435 6.435 0 0 1 6.384 6.384v7.756a1.145 1.145 0 0 1-1.204 1.204zm16.35-12.488h-1.26V789.5a1.145 1.145 0 0 1-1.232 1.176 1.13 1.13 0 0 1-1.176-1.176v-11.284h-1.148a1.19 1.19 0 0 1 0-2.38h1.148v-1.904a3.191 3.191 0 0 1 3.22-3.164 1.191 1.191 0 1 1 0 2.38.785.785 0 0 0-.812.756v1.932h1.26a1.191 1.191 0 1 1 0 2.38z"/><use xlink:href="#q" x="116.618"/><path d="M975.784 777.74a4.034 4.034 0 0 0-3.976 4.004v7.756a1.167 1.167 0 0 1-1.232 1.204 1.146 1.146 0 0 1-1.176-1.176V777.04a1.186 1.186 0 0 1 1.176-1.204 1.149 1.149 0 0 1 1.204.952 6.476 6.476 0 0 1 4.004-1.428 1.191 1.191 0 1 1 0 2.38z"/><use xlink:href="#n" x="166.485"/><use xlink:href="#p" x="157.245"/><path d="M996.25 790.76a2.857 2.857 0 0 1-2.8-2.856V771.97a1.204 1.204 0 0 1 2.408-.028v15.96a.442.442 0 0 0 .392.476 1.19 1.19 0 1 1 0 2.38z"/><use xlink:href="#p" x="170.19"/><path d="M1016.718 790.703h-10.024c-1.344 0-1.372-.924-1.372-1.344a1.035 1.035 0 0 1 .252-.616l8.596-10.528h-7.672a1.19 1.19 0 0 1-.028-2.38h10.22a1.103 1.103 0 0 1 1.176 1.12 1.333 1.333 0 0 1-.308.812l-8.54 10.556h7.672a1.19 1.19 0 0 1 .028 2.38z"/><use xlink:href="#q" x="184.236"/><use xlink:href="#o" x="216.435"/></g><g class="U"><path d="M39.376 868.256h-3.9a1.445 1.445 0 0 1 0-2.89h.5V846.94h-.5a1.445 1.445 0 0 1 0-2.891h3.9a1.446 1.446 0 1 1 0 2.891h-.5v18.426h.5a1.446 1.446 0 1 1 0 2.89zm9.316-15.162h-1.53v13.7a1.39 1.39 0 0 1-1.496 1.428 1.371 1.371 0 0 1-1.428-1.428v-13.7h-1.394a1.445 1.445 0 0 1 0-2.89h1.394v-2.312a3.874 3.874 0 0 1 3.909-3.842 1.446 1.446 0 1 1 0 2.891.952.952 0 0 0-.985.918v2.346h1.53a1.446 1.446 0 1 1 0 2.89zm31.788 15.162a1.392 1.392 0 0 1-1.428-1.428v-10.7a3.587 3.587 0 0 0-7.174-.034v10.7a1.39 1.39 0 0 1-1.462 1.462 1.373 1.373 0 0 1-1.428-1.428v-10.7a3.604 3.604 0 0 0-7.207-.034v10.7a1.417 1.417 0 0 1-1.496 1.462 1.392 1.392 0 0 1-1.428-1.428v-15.196a1.492 1.492 0 0 1 2.72-.816 6.548 6.548 0 0 1 3.773-1.189 6.437 6.437 0 0 1 5.065 2.413 6.372 6.372 0 0 1 5.031-2.413 6.492 6.492 0 0 1 6.527 6.459v10.7a1.417 1.417 0 0 1-1.495 1.462zm19.482-7.546H87.384c.476 3.195 2.516 5.235 5.507 5.235a5.104 5.104 0 0 0 4.046-1.768 1.404 1.404 0 0 1 1.054-.545 1.588 1.588 0 0 1 1.53 1.496c0 .408-.103.714-.816 1.428a8.284 8.284 0 0 1-5.813 2.278c-5.474 0-8.533-4.52-8.533-9.62 0-5.065 3.06-9.587 8.533-9.587 5.542 0 8.5 4.52 8.5 9.587a1.45 1.45 0 0 1-1.428 1.496zm-7.07-8.193c-3.195 0-5.065 2.346-5.507 5.27H98.4c-.477-3.264-2.516-5.27-5.508-5.27z"/><use xlink:href="#r"/><path d="M126.62 868.256a1.374 1.374 0 0 1-1.429-1.428v-9.45a4.844 4.844 0 1 0-9.688 0v9.417a1.445 1.445 0 0 1-1.496 1.496 1.4 1.4 0 0 1-1.428-1.462v-21.316a1.462 1.462 0 0 1 2.924-.033v5.88a6.856 6.856 0 0 1 4.827-1.733 7.813 7.813 0 0 1 7.751 7.751v9.417a1.39 1.39 0 0 1-1.461 1.462zm21.383 0a3.309 3.309 0 0 1-3.026-1.937 7.791 7.791 0 0 1-5.983 2.516c-5.54 0-8.533-4.556-8.533-9.62s3.06-9.587 8.533-9.587a7.512 7.512 0 0 1 5.609 2.243v-.136a1.403 1.403 0 0 1 1.428-1.529 1.366 1.366 0 0 1 1.496 1.428v13.122a.55.55 0 0 0 .477.612 1.445 1.445 0 1 1 0 2.89zm-9-15.74c-3.4 0-5.6 2.65-5.6 6.697 0 4.08 2.2 6.73 5.6 6.73 3.434 0 5.6-2.652 5.6-6.73 0-4.046-2.176-6.697-5.6-6.697z"/><use xlink:href="#s"/><path d="M184.757 860.71H172.18c.476 3.195 2.516 5.235 5.507 5.235a5.104 5.104 0 0 0 4.046-1.768 1.404 1.404 0 0 1 1.054-.545 1.588 1.588 0 0 1 1.53 1.496c0 .408-.103.714-.816 1.428a8.284 8.284 0 0 1-5.813 2.278c-5.474 0-8.533-4.52-8.533-9.62 0-5.065 3.06-9.587 8.533-9.587 5.542 0 8.5 4.52 8.5 9.587a1.45 1.45 0 0 1-1.428 1.496zm-7.07-8.193c-3.195 0-5.065 2.346-5.507 5.27h11.015c-.477-3.264-2.516-5.27-5.508-5.27z"/><use xlink:href="#t"/><use xlink:href="#u"/><path d="M229.57 876.007c-2.073 0-7.207-.748-7.207-2.787a1.583 1.583 0 0 1 1.462-1.53c.782 0 .102.103 1.903.782a10.636 10.636 0 0 0 3.842.646c3.773 0 5.61-1.802 5.61-5.37v-1.53a7.953 7.953 0 0 1-5.609 2.04c-5.37 0-8.533-3.808-8.533-9.043 0-5.1 3.06-9.587 8.533-9.587a7.324 7.324 0 0 1 5.609 2.176v-.137a1.447 1.447 0 0 1 1.462-1.461 1.427 1.427 0 0 1 1.462 1.461v16.08c0 5.405-3.23 8.26-8.533 8.26zm0-23.49c-3.4 0-5.61 2.65-5.61 6.697 0 3.876 2.04 6.153 5.61 6.153s5.61-2.277 5.61-6.153c0-4.046-2.176-6.697-5.61-6.697z"/><use xlink:href="#v"/><path d="M265.813 868.834c-1.87 0-4.998-.578-6.596-2.55a1.505 1.505 0 0 1 1.224-2.414 1.395 1.395 0 0 1 1.054.578 5.811 5.811 0 0 0 4.318 1.496c3.06 0 4.045-1.054 4.045-2.584 0-4.352-10.368-1.666-10.368-8.67 0-3.706 3.467-5.065 6.697-5.065 1.835 0 6.153.918 6.153 2.82a1.527 1.527 0 0 1-1.429 1.53 2.042 2.042 0 0 1-1.121-.442 5.511 5.511 0 0 0-3.604-1.02c-2.822 0-3.808 1.054-3.808 2.176 0 4.046 10.402 1.428 10.402 8.67 0 4.012-3.365 5.474-6.97 5.474z"/><use xlink:href="#r" x="171.22"/><use xlink:href="#v" x="42.227"/><path d="M310.114 852.516a4.898 4.898 0 0 0-4.827 4.861v9.417a1.417 1.417 0 0 1-1.496 1.462 1.392 1.392 0 0 1-1.428-1.428v-15.163a1.44 1.44 0 0 1 1.428-1.461 1.395 1.395 0 0 1 1.462 1.155 7.862 7.862 0 0 1 4.861-1.733 1.446 1.446 0 1 1 0 2.89zm7.786 16.318c-1.87 0-4.998-.578-6.596-2.55a1.505 1.505 0 0 1 1.224-2.414 1.396 1.396 0 0 1 1.054.578 5.811 5.811 0 0 0 4.318 1.496c3.06 0 4.045-1.054 4.045-2.584 0-4.352-10.37-1.666-10.37-8.67 0-3.706 3.468-5.065 6.698-5.065 1.835 0 6.153.918 6.153 2.82a1.527 1.527 0 0 1-1.428 1.53 2.042 2.042 0 0 1-1.122-.442 5.511 5.511 0 0 0-3.604-1.02c-2.822 0-3.808 1.054-3.808 2.176 0 4.046 10.402 1.428 10.402 8.67 0 4.012-3.365 5.474-6.97 5.474zm29.92-2.584a7.897 7.897 0 0 1-6.086 2.584c-5.474 0-8.533-4.487-8.533-9.62 0-5.1 3.06-9.587 8.533-9.587a7.897 7.897 0 0 1 6.086 2.584 1.482 1.482 0 0 1 .407.985 1.583 1.583 0 0 1-1.529 1.462 1.607 1.607 0 0 1-1.054-.476 4.993 4.993 0 0 0-3.91-1.666c-3.4 0-5.6 2.65-5.6 6.697 0 4.08 2.2 6.73 5.6 6.73a5.058 5.058 0 0 0 3.91-1.666 1.357 1.357 0 0 1 1.054-.51 1.468 1.468 0 0 1 1.122 2.481z"/><use xlink:href="#w"/><use xlink:href="#s" x="218.252"/><use xlink:href="#r" x="284.47"/><use xlink:href="#u" x="181.828"/><use xlink:href="#s" x="252.387"/><path d="M436.08 868.3a1.386 1.386 0 0 1-1.428-1.122 7.915 7.915 0 0 1-4.896 1.7 7.814 7.814 0 0 1-7.751-7.752V851.7a1.462 1.462 0 0 1 2.923-.034v9.45a4.845 4.845 0 1 0 9.689 0V851.7a1.355 1.355 0 0 1 1.428-1.495 1.39 1.39 0 0 1 1.462 1.461v15.197a1.354 1.354 0 0 1-1.428 1.428z"/><use xlink:href="#v" x="199.407"/><use xlink:href="#r" x="362.806"/><use xlink:href="#w" x="124.835"/><path d="M509.86 868.834a8.045 8.045 0 0 1-5.609-2.04 1.39 1.39 0 0 1-1.496 1.428 1.371 1.371 0 0 1-1.428-1.428v-21.282a1.462 1.462 0 0 1 2.924-.033v6.357a7.542 7.542 0 0 1 5.609-2.21c5.474 0 8.533 4.487 8.533 9.587 0 5.134-3.06 9.62-8.533 9.62zm0-16.318c-3.4 0-5.61 2.65-5.61 6.697 0 4.08 2.2 6.73 5.61 6.73s5.61-2.652 5.61-6.73c0-4.046-2.2-6.697-5.61-6.697z"/><use xlink:href="#v" x="279.509"/><path d="M563.372 868.256a3.31 3.31 0 0 1-3.025-1.937 7.791 7.791 0 0 1-5.983 2.516c-5.54 0-8.533-4.556-8.533-9.62s3.06-9.587 8.533-9.587a7.512 7.512 0 0 1 5.609 2.243v-.136a1.402 1.402 0 0 1 1.428-1.529 1.366 1.366 0 0 1 1.496 1.428v13.122a.55.55 0 0 0 .476.612 1.445 1.445 0 1 1 0 2.89zm-9.01-15.74c-3.4 0-5.61 2.65-5.61 6.697 0 4.08 2.2 6.73 5.61 6.73 3.434 0 5.61-2.652 5.61-6.73 0-4.046-2.176-6.697-5.61-6.697z"/><use xlink:href="#t" x="371.16"/><use xlink:href="#w" x="235.843"/><path d="M613.897 868.834a7.44 7.44 0 0 1-5.609-2.244v7.378a1.417 1.417 0 0 1-1.496 1.461 1.4 1.4 0 0 1-1.428-1.461v-22.303a1.4 1.4 0 0 1 1.428-1.461 1.417 1.417 0 0 1 1.496 1.461 8.161 8.161 0 0 1 5.609-2.073c5.474 0 8.533 4.487 8.533 9.587 0 5.168-3.06 9.655-8.533 9.655zm0-16.353c-3.366 0-5.61 2.686-5.61 6.697 0 4.08 2.2 6.766 5.61 6.766s5.61-2.652 5.61-6.73c0-4.046-2.2-6.73-5.61-6.73z"/><use xlink:href="#r" x="521.413"/><use xlink:href="#v" x="392.421"/><use xlink:href="#t" x="457.077"/><use xlink:href="#x"/><use xlink:href="#x" x="7.353"/><use xlink:href="#x" x="14.687"/></g><path d="M34.003 883.443h655.26v96.47H34.003z" opacity=".25" fill="url(#C)"/><path d="M672.348 883.443h29.79v96.47h-29.79z" fill="url(#D)"/><path d="M358.655 377.58c-.226-3.664-.3-7.247-1.75-10.563s-4.367-6.125-7.717-6.112c-.25-3.422-3.2-6.336-6.33-6.252s-5.947 3.154-6.043 6.585a3.501 3.501 0 0 0-4.342-1.212 4.172 4.172 0 0 0-2.042 4.372c-.742-6.417-5.646-11.983-11.47-13.02.623-3.777-1.835-7.85-5.25-8.696s-7.234 1.666-8.156 5.37c-2.26-4.89-9.026-5.912-12.006-1.51-.27-4.902-.584-9.974-2.675-14.316s-6.485-7.76-10.884-6.83c.73-3.735-1.437-7.88-4.745-9.08a7.186 7.186 0 0 0-8.752 4.183 11.472 11.472 0 0 0-4.901-9.134 16.432 16.432 0 0 0-9.636-2.699 20.69 20.69 0 0 0-15.241 6.327c-2.584-3.665-8.23-2.794-11.148.555s-3.802 8.193-4.45 12.77c-3.805-2.37-8.995.25-11.01 4.5s-1.5 9.458-.073 13.993c-4.857-3.454-12.3-1.052-14.676 4.736-1.623-4.102-7.464-4.407-10.307-1.2s-3.005 8.395-1.607 12.596c-6.464.5-12.59 7.988-12.247 14.63z" fill="url(#E)"/><path d="M211.836 377.58c-1.15-6.48 3.438-16.56 8.24-15.7.462-5.665 2.024-11.452 5.268-14.992s8.407-4.045 11.354-.043c3.966-6.175 12.504-4.362 14.937 3.17 8.713-3.952 19.17 5.882 19.674 18.5 2.65-1.037 5.732.606 7.185 3.832.406-5.418 4.473-9.767 8.384-8.965.632-3.17 2.148-6.254 4.432-7.21s5.207 1.154 5.3 4.44c3.374-2.23 7.863 2.84 6.935 7.835 4.066-.887 8.34 3.51 8.875 9.133" fill="url(#F)"/><path d="M264.594 267.946V541.15" fill="none" class="V W X Y"/><path d="M257.613 539.107l6.98 12.1 6.98-12.1h-13.962z" class="U"/><path d="M755.32 455.07h-51.18c-145.36 0-99.56 121.29-269.947 121.29h-31.2" fill="none" class="V W X Y"/><path d="M753.276 448.1l12.1 6.98-12.1 6.98V448.1z" class="U"/><path d="M402.98 663.112h31.2c170.385 0 124.587 121.29 269.947 121.29h54.197" fill="none" class="V W X Y"/><path d="M756.292 791.384l12.09-6.98-12.09-6.98v13.962z" class="U"/><path d="M719.477 931.678h49.197" fill="none" class="V W X Y"/><path d="M721.52 938.66l-12.09-6.98 12.09-6.98v13.962z" class="U"/><path d="M899.164 255.676a1.001 1.001 0 0 0-1.846.707c3.45 16.255-6.527 26.128-17.09 36.582q-1.043 1.03-2.092 2.075c-3.427-9.96-9.225-20.833-14.37-30.48-3.17-5.944-6.164-11.56-8.218-16.238-5.854-13.333-11.382-25.927 4.468-54.16a1 1 0 0 0-1.344-1.371 131.769 131.769 0 0 0-27.498 20.833c-17.08 17.202-23.334 35.51-18.084 52.944 9.353 31.058 9.254 43.023 3.832 59.373-14.5-12.536-28.264-26.467-32.23-43.303a1 1 0 0 0-1.955.422 258.709 258.709 0 0 1 3.624 55.031c-1.93 39.997 32.47 55.694 53.02 65.074 7.638 3.485 14.234 6.495 15.432 9.26a1.001 1.001 0 0 0 .918.603h.014a.999.999 0 0 0 .914-.628c1.688-4.207 6.553-8.527 13.288-14.508 9.273-8.234 21.974-19.512 34.472-37.872 16.37-24.052 14.013-70.86-5.257-104.344z" fill="url(#G)"/><path d="M913.407 600.16c-3.87-7.98-7.2-14.87-7.2-19.5a.997.997 0 0 0-1.95-.3c-6.2 19.68-10.84 32.52-22.72 44.8-5.14 5.3-7.1 13.46-5.65 23.6a59.703 59.703 0 0 0 3.48 13.11 77.308 77.308 0 0 1-16.97 14.85c-1.93-17.43-5.1-34.25-8.05-50.04l-1.28-6.8v-.03c-.37-4.16 1.38-5.8 4.27-8.55a39.158 39.158 0 0 0 5.92-6.68c11.04-16.17 7.62-31.47 4-47.67-2.8-12.5-5.7-25.4-2.63-40.2a.037.037 0 0 0 .01-.03 1.318 1.318 0 0 0 .02-.2v-.01a.759.759 0 0 0-.02-.16 1.072 1.072 0 0 0-.04-.17 1.047 1.047 0 0 0-.07-.15l-.03-.06-.03-.03a.726.726 0 0 0-.14-.16.01.01 0 0 0-.01-.01.862.862 0 0 0-.2-.13.496.496 0 0 0-.2-.08.142.142 0 0 0-.06-.02 1.35 1.35 0 0 0-.2-.02.612.612 0 0 0-.14.01.363.363 0 0 0-.11.02.295.295 0 0 0-.1.04.42.42 0 0 0-.14.06l-.06.03a.418.418 0 0 0-.08.06c-22.1 14.4-45.77 37.66-45.94 59.74-.1 11.68 6.23 21.9 18.74 30.3 1.52 1.13 3.18 2.2 4.8 3.22 4.84 3.1 9.42 6.03 10.42 10.87.01.02.01.03.02.05a.599.599 0 0 0 .02.13 1.517 1.517 0 0 0 .04.2l1.26 6.78c3.03 16.2 6.28 33.48 8.18 51.37q.735 6.7 1.16 13.5l-2.25-1.26c-4.98-2.77-12.4-6.9-20.48-12.45a.846.846 0 0 0-.1-.07c-2.06-1.6-1.9-2.7-1.52-5.35a25.815 25.815 0 0 0-.52-11.29c-5.3-20.5-17.6-29.02-28.46-36.53-8.96-6.2-16.7-11.55-17.52-22.5a.996.996 0 0 0-.91-.92.981.981 0 0 0-1.05.73c-11.46 42.73-8.73 58.2 30.6 71.66a59.207 59.207 0 0 0 6.73 1.79c4.02.9 8.16 1.85 11 3.7.2.12.37.25.55.38.05.03.1.06.14.1.01.01.01.01.02.01 8.12 5.6 15.55 9.72 20.55 12.5l3.36 1.9q.4 6.825.4 13.73c0 3.23-.06 6.48-.2 9.73-5.22-1.73-10-3.45-14.6-5.2-2.37-3.1-2.6-5.8-2.83-8.68-.33-4.06-.67-8.25-7.1-13.06-4.5-3.38-10.87-4.48-17.6-5.65-9.53-1.66-19.4-3.37-24.5-11.73a.989.989 0 0 0-1.12-.45 1.017 1.017 0 0 0-.73.97c0 7.9 3.25 27.65 12.9 34.88 7.24 5.43 20.04 5.37 30.35 5.3 3.7-.02 7.2-.04 9.8.22 4.8 1.86 9.84 3.66 15.35 5.48q-.315 5.865-.97 11.74a1.007 1.007 0 0 0 .88 1.11h.1a1.004 1.004 0 0 0 1-.88q.705-6.27 1-12.52a.946.946 0 0 0 .01-.17 230.27 230.27 0 0 0 .27-10.48c4.75-2.42 8.7-4.54 12.05-6.46a.969.969 0 0 0 .49-.79.868.868 0 0 0 .42.1c2.65 0 26.08-.25 32.95-8.93 6.84-8.64 5.9-15.78 5.23-21-.36-2.7-.66-5.03.18-6.84a1.001 1.001 0 0 0-1.51-1.22c-2.05 1.54-6.7 2.85-11.62 4.24-7.22 2.05-14.7 4.16-17.9 7.8-2.62 2.98-3 6.46-3.4 10.13-.45 4.16-.97 8.88-4.74 14.26a.944.944 0 0 0-.18.48 1.033 1.033 0 0 0-.92.04c-3.1 1.78-6.74 3.74-11.06 5.96q-.045-6.5-.43-12.95c-.28-4.87-.7-9.72-1.18-14.52a79.249 79.249 0 0 0 18.48-16.03c2.4-1 5.92-1.16 10-1.35 9.25-.43 20.76-.96 28.6-11.4 10.9-14.5 1.38-34.18-6.3-49.98z" fill="url(#H)"/><g opacity=".4" fill="#fff6da"><path d="M42.328 1046.045a7.892 7.892 0 0 1-5.503-2.002 1.364 1.364 0 0 1-1.468 1.401 1.346 1.346 0 0 1-1.401-1.401v-20.88a1.435 1.435 0 0 1 2.869-.033v6.238a7.4 7.4 0 0 1 5.503-2.169c5.37 0 8.373 4.403 8.373 9.406 0 5.037-3.002 9.44-8.373 9.44zm0-16c-3.335 0-5.503 2.602-5.503 6.57 0 4.003 2.168 6.604 5.503 6.604s5.504-2.602 5.504-6.604c0-3.97-2.168-6.57-5.504-6.57zm25.555 8.037h-12.34c.467 3.136 2.468 5.137 5.403 5.137a5.003 5.003 0 0 0 3.969-1.734 1.383 1.383 0 0 1 1.034-.533 1.556 1.556 0 0 1 1.501 1.468c0 .4-.1.7-.8 1.4a8.129 8.129 0 0 1-5.704 2.235c-5.37 0-8.372-4.437-8.372-9.44 0-4.97 3.002-9.406 8.372-9.406 5.437 0 8.34 4.437 8.34 9.406a1.422 1.422 0 0 1-1.401 1.468zm-6.937-8.038c-3.136 0-4.97 2.3-5.403 5.17H66.35c-.467-3.202-2.468-5.17-5.403-5.17zM88 1045.478a3.247 3.247 0 0 1-2.969-1.901 7.642 7.642 0 0 1-5.87 2.469c-5.437 0-8.372-4.47-8.372-9.44s3.002-9.406 8.372-9.406a7.369 7.369 0 0 1 5.504 2.202v-.134a1.376 1.376 0 0 1 1.4-1.501 1.341 1.341 0 0 1 1.468 1.401v12.875a.54.54 0 0 0 .467.601 1.418 1.418 0 1 1 0 2.835zm-8.84-15.443c-3.336 0-5.504 2.602-5.504 6.57 0 4.003 2.168 6.604 5.504 6.604 3.37 0 5.504-2.602 5.504-6.604 0-3.97-2.135-6.57-5.504-6.57z"/><use xlink:href="#y"/><path d="M115.158 1045.478h-.567c-3.17 0-4.37-1.668-4.37-4.403V1030.6h-1a1.418 1.418 0 1 1-.033-2.835h1v-4.637a1.355 1.355 0 0 1 1.435-1.4 1.328 1.328 0 0 1 1.401 1.4v4.637h2.135a1.383 1.383 0 0 1 1.4 1.401 1.356 1.356 0 0 1-1.4 1.434h-2.135v10.774c0 .934.333 1.268 1.268 1.268h.833a1.376 1.376 0 0 1 1.435 1.4 1.357 1.357 0 0 1-1.4 1.435zm4.604-20.415a2.401 2.401 0 1 1 2.402-2.401 2.392 2.392 0 0 1-2.402 2.401zm0 20.414a1.4 1.4 0 0 1-1.467-1.401V1029.2a1.408 1.408 0 0 1 1.467-1.435 1.374 1.374 0 0 1 1.401 1.435v14.876a1.346 1.346 0 0 1-1.401 1.401zm10.376-14.877h-1.5v13.442a1.364 1.364 0 0 1-1.468 1.401 1.346 1.346 0 0 1-1.401-1.401V1030.6h-1.37a1.418 1.418 0 0 1 0-2.835h1.367v-2.27a3.801 3.801 0 0 1 3.836-3.769 1.418 1.418 0 1 1 0 2.835.934.934 0 0 0-.967.9v2.302h1.5a1.418 1.418 0 1 1 0 2.835z"/><use xlink:href="#y" x="42.068"/><path d="M154.725 1045.544a3.403 3.403 0 0 1-3.336-3.402v-18.98a1.435 1.435 0 0 1 2.869-.033v19.013a.527.527 0 0 0 .467.567 1.418 1.418 0 1 1 0 2.835zm15.37-.066v-1.264c1.886-.237 2.046-.437 2.046-3.157v-6.7c0-2.8-1.248-4.017-3.064-4.017a5.597 5.597 0 0 0-3.47 1.493v9.476c0 2.527.187 2.658 2.06 2.896v1.264h-8.968v-1.264c2.254-.33 2.5-.4 2.5-3v-8.2c0-2.446-.303-2.565-2.185-2.922v-1.184a34.101 34.101 0 0 0 6.653-1.533l-.052 2.95 2.6-1.745a5.659 5.659 0 0 1 3.159-1.086c3.194 0 5.2 2.338 5.2 6.3v7.5c0 2.54.237 2.657 2.277 2.92v1.264zm23.9-3.703c-2.458 3.427-5.488 4.178-7.014 4.178-5.142 0-8.124-3.936-8.124-8.594a10.333 10.333 0 0 1 2.832-7.062 8.602 8.602 0 0 1 6.082-2.814 6.386 6.386 0 0 1 6.37 6.347c-.014.715-.08 1.277-.612 1.4-.767.184-6.17.5-10.318.647.062 4.587 2.717 6.74 5.556 6.74a6.776 6.776 0 0 0 4.543-1.866zm-7.07-12.7c-1.667 0-3.167 1.807-3.516 4.963l5.486-.118c.6-.026.848-.146.848-.792.04-2.022-1.037-4.053-2.818-4.053zm34.284.145c-1.943.343-2.248.624-3.105 2.765-1.33 3.462-3.102 8.53-4.934 13.94h-1.512l-4.65-11.46-4.55 11.46h-1.472l-4.685-14.192c-.687-1.985-.94-2.274-2.855-2.512v-1.25h9.397v1.25c-2.325.345-2.535.672-2.058 2.133l2.52 8.214c1.507-3.68 2.988-7.62 4.327-11.424h1.456c1.4 3.76 2.986 7.702 4.573 11.568.742-2.107 2.062-5.964 2.557-8.108.412-1.674-.008-2.078-2.753-2.383v-1.25h7.742zm9.4 3.746c-.92-2.606-2.155-3.984-4.2-3.984a2.166 2.166 0 0 0-2.225 2.266c0 1.497 1.046 2.264 3.16 3.216 3.278 1.496 5.3 2.787 5.3 5.736 0 3.85-3.6 5.764-6.945 5.764a12.073 12.073 0 0 1-4.92-1.161l-.662-4.892 1.252-.224c.8 2.5 2.33 4.75 4.976 4.75a2.231 2.231 0 0 0 2.438-2.281c0-1.423-.76-2.333-3.092-3.467-2.67-1.295-5.107-2.64-5.107-5.775 0-3.046 2.533-5.42 6.565-5.42a18.751 18.751 0 0 1 4.112.567l.62 4.577z"/></g><g opacity=".6" fill="#fff6da"><path d="M847.373 1046.365c-1.2 0-3.22-.42-3.92-1.58a.482.482 0 0 1-.08-.3.546.546 0 0 1 1.021-.32 3.812 3.812 0 0 0 2.98 1.061c1.94 0 2.92-.64 2.92-1.94 0-3.02-6.562-1.42-6.562-5.422 0-2.02 2.02-2.8 3.84-2.8a5.415 5.415 0 0 1 3.44 1.16.558.558 0 0 1 .18.38.648.648 0 0 1-.62.6.531.531 0 0 1-.38-.16 4.001 4.001 0 0 0-2.62-.84c-1.76 0-2.7.68-2.7 1.66 0 2.8 6.562 1.32 6.562 5.422 0 2.28-2 3.08-4.06 3.08z"/><use xlink:href="#z"/><path d="M873.874 1045.985a.562.562 0 0 1-.58-.561v-.64a4.442 4.442 0 0 1-3.421 1.54 4.61 4.61 0 0 1-4.561-4.561v-5.842a.57.57 0 0 1 1.14 0v5.842a3.421 3.421 0 0 0 6.842 0v-5.842a.57.57 0 0 1 1.141 0v9.502a.558.558 0 0 1-.561.561z"/><use xlink:href="#AA"/><path d="M892.014 1044.804a4.645 4.645 0 0 1-3.58 1.521c-3.22 0-5.02-2.64-5.02-5.66 0-3 1.8-5.64 5.02-5.64a4.647 4.647 0 0 1 3.58 1.52.531.531 0 0 1 .16.381.627.627 0 0 1-.58.6.587.587 0 0 1-.42-.2 3.526 3.526 0 0 0-2.74-1.16c-2.36 0-3.88 1.9-3.88 4.5s1.52 4.52 3.88 4.52a3.596 3.596 0 0 0 2.74-1.16.587.587 0 0 1 .42-.2.594.594 0 0 1 .58.58.571.571 0 0 1-.16.399zm11.3-3.56h-8.302c.18 2.28 1.66 3.94 3.84 3.94a3.615 3.615 0 0 0 2.94-1.381.525.525 0 0 1 .479-.28.611.611 0 0 1 .62.541c0 .18 0 .22-.38.66a4.72 4.72 0 0 1-3.66 1.601c-3.22 0-5.02-2.64-5.02-5.66 0-3 1.8-5.64 5.02-5.64s5.02 2.66 5.02 5.64a.606.606 0 0 1-.56.58zm-4.46-5.08c-2.4 0-3.66 1.84-3.84 3.94h7.7c-.18-2.28-1.66-3.94-3.86-3.94zm8.436 3.26a1.14 1.14 0 1 1 0-2.28 1.14 1.14 0 0 1 0 2.28zm0 6.562a1.14 1.14 0 1 1 0-2.28 1.14 1.14 0 0 1 0 2.28z"/><use xlink:href="#AB"/><use xlink:href="#AA" x="50.42"/><path d="M944.27 1045.985h-.02a2.072 2.072 0 0 1-1.98-1.561 4.536 4.536 0 0 1-3.88 1.9c-3.26 0-5.02-2.68-5.02-5.66 0-3.02 1.8-5.64 5.02-5.64a4.571 4.571 0 0 1 3.88 1.88v-.98a.564.564 0 0 1 .581-.56.546.546 0 0 1 .56.56v8.063c0 1.28 1.44.48 1.44 1.44a.55.55 0 0 1-.58.561zm-5.88-9.822c-2.36 0-3.88 1.9-3.88 4.5s1.52 4.52 3.88 4.52c2.38 0 3.88-1.92 3.88-4.52s-1.5-4.5-3.88-4.5zm21.44-.06l-3.26 9.4c-.14.38-.32.48-.58.48-.34 0-.44-.12-.56-.48l-2.62-7.802-2.62 7.802c-.14.38-.32.48-.58.48a.584.584 0 0 1-.56-.48l-3.24-9.4a.876.876 0 0 1-.04-.221.569.569 0 0 1 .58-.52.519.519 0 0 1 .521.38l2.74 7.922 2.62-7.822c.12-.38.24-.48.58-.48.24 0 .44.08.56.48l2.66 7.822 2.7-7.922a.519.519 0 0 1 .52-.38.582.582 0 0 1 .62.54.607.607 0 0 1-.04.2z"/><use xlink:href="#AB" x="46.506"/><use xlink:href="#z" x="120.674"/><path d="M999 1036.103l-3.26 9.4c-.14.38-.32.48-.58.48-.34 0-.44-.12-.56-.48l-2.62-7.802-2.62 7.802c-.14.38-.32.48-.58.48a.584.584 0 0 1-.56-.48l-3.24-9.4a.876.876 0 0 1-.04-.221.569.569 0 0 1 .58-.52.519.519 0 0 1 .521.38l2.74 7.922 2.62-7.822c.12-.38.24-.48.58-.48.24 0 .44.08.56.48l2.66 7.822 2.7-7.922a.519.519 0 0 1 .521-.38.582.582 0 0 1 .62.54.607.607 0 0 1-.04.2zm10.527 9.882a.563.563 0 0 1-.58-.561v-5.84a3.421 3.421 0 1 0-6.841 0v5.84a.57.57 0 0 1-1.141 0v-9.502a.57.57 0 0 1 1.141 0v.64a4.563 4.563 0 0 1 7.981 3.021v5.84a.558.558 0 0 1-.561.561zm4.36 0a1.14 1.14 0 1 1 1.14-1.141 1.127 1.127 0 0 1-1.14 1.141z"/><use xlink:href="#z" x="164.334"/><use xlink:href="#AA" x="152.554"/><path d="M1040.987 1050.545c-1.7 0-4.102-.64-4.102-1.36a.636.636 0 0 1 .58-.641 7.128 7.128 0 0 1 1.061.48 7.508 7.508 0 0 0 2.461.38c2.56 0 3.88-1.26 3.88-3.72v-1.4a4.776 4.776 0 0 1-3.88 1.7c-3.16 0-5.02-2.24-5.02-5.32 0-3 1.8-5.64 5.02-5.64a4.571 4.571 0 0 1 3.88 1.88v-.96a.57.57 0 0 1 1.141 0v9.742c0 3.18-1.9 4.86-5.02 4.86zm0-14.383c-2.36 0-3.88 1.9-3.88 4.5 0 2.58 1.42 4.18 3.88 4.18s3.88-1.6 3.88-4.18c0-2.6-1.5-4.5-3.88-4.5z"/></g><g fill="#f29393"><path d="M781.73 904.525a1.164 1.164 0 0 1-1.176-1.176v-15.01l-2.24 2.184a1.083 1.083 0 0 1-.784.336 1.307 1.307 0 0 1-1.26-1.232 1.148 1.148 0 0 1 .364-.84l4.172-4.032a1.547 1.547 0 0 1 1.036-.448c.784 0 1.12.784 1.12 1.428v17.584a1.183 1.183 0 0 1-1.232 1.204zm4.2.028a2.008 2.008 0 0 1-2.016-2.016 2.017 2.017 0 0 1 4.032 0 2.008 2.008 0 0 1-2.016 2.016zm9.743.447a5.799 5.799 0 0 1-5.152-2.772 1.139 1.139 0 0 1-.28-.728 1.235 1.235 0 0 1 1.26-1.148 1.144 1.144 0 0 1 .98.532 3.522 3.522 0 0 0 3.192 1.736c2.688 0 3.892-2.408 4.004-7.728a5.862 5.862 0 0 1-4.004 1.596 6.206 6.206 0 0 1 0-12.404c5.908 0 6.384 6.048 6.384 10.444 0 5.236-1.148 10.472-6.384 10.472zm0-18.508a3.799 3.799 0 0 0 0 7.588 3.818 3.818 0 0 0 3.668-3.864c-.336-2.156-1.484-3.724-3.668-3.724z"/><use xlink:href="#h" x="-7.532" y="440.185"/><path d="M831.232 887.39a2.016 2.016 0 1 1 2.016-2.016 2.008 2.008 0 0 1-2.016 2.016zm0 17.136a1.176 1.176 0 0 1-1.232-1.176V890.86a1.183 1.183 0 0 1 1.232-1.204 1.154 1.154 0 0 1 1.176 1.204v12.488a1.13 1.13 0 0 1-1.176 1.176z"/><use xlink:href="#h" x="16.408" y="440.185"/><use xlink:href="#i" x="16.407" y="440.185"/><path d="M876.227 904.525h-.476c-2.66 0-3.668-1.4-3.668-3.696v-8.792h-.84a1.19 1.19 0 1 1-.028-2.38h.84v-3.892a1.137 1.137 0 0 1 1.204-1.176 1.115 1.115 0 0 1 1.176 1.176v3.892h1.792a1.161 1.161 0 0 1 1.176 1.176 1.139 1.139 0 0 1-1.176 1.204h-1.792v9.044c0 .784.28 1.064 1.064 1.064h.7a1.155 1.155 0 0 1 1.204 1.176 1.139 1.139 0 0 1-1.176 1.204z"/><use xlink:href="#g" x="76.579" y="440.183"/><path d="M908.23 904.525a1.131 1.131 0 0 1-1.176-1.176v-7.784a3.99 3.99 0 1 0-7.98 0v7.756a1.19 1.19 0 0 1-1.232 1.232 1.153 1.153 0 0 1-1.176-1.204v-12.516a1.114 1.114 0 0 1 1.176-1.176 1.17 1.17 0 0 1 1.204.924 6.395 6.395 0 0 1 10.388 4.984v7.756a1.145 1.145 0 0 1-1.204 1.204zm9.604.475c-1.54 0-4.116-.476-5.432-2.1a1.239 1.239 0 0 1 1.008-1.988 1.15 1.15 0 0 1 .868.476 4.785 4.785 0 0 0 3.556 1.232c2.52 0 3.332-.868 3.332-2.128 0-3.584-8.54-1.372-8.54-7.14 0-3.052 2.856-4.172 5.516-4.172 1.512 0 5.068.756 5.068 2.324a1.257 1.257 0 0 1-1.176 1.26 1.684 1.684 0 0 1-.924-.364 4.54 4.54 0 0 0-2.968-.84c-2.324 0-3.136.868-3.136 1.792 0 3.332 8.568 1.176 8.568 7.14 0 3.304-2.772 4.508-5.74 4.508z"/></g><g class="U"><use xlink:href="#g" x="129.974" y="440.183"/><use xlink:href="#k" x="74.815" y="440.183"/><path d="M977.92 901.95a7.172 7.172 0 0 1-6.244 3.052c-6.02 0-8.148-4.984-8.148-10.444 0-5.488 2.128-10.472 8.148-10.472a7.091 7.091 0 0 1 6.216 3.052 1.079 1.079 0 0 1 .252.7 1.214 1.214 0 0 1-1.232 1.176 1.171 1.171 0 0 1-.952-.504 4.736 4.736 0 0 0-4.284-2.016c-3.976 0-5.74 2.94-5.74 8.064s1.764 8.064 5.74 8.064a4.813 4.813 0 0 0 4.284-2.044 1.131 1.131 0 0 1 .952-.532 1.178 1.178 0 0 1 1.008 1.904zm10.5 3.05c-6.02 0-8.148-4.984-8.148-10.444 0-5.488 2.128-10.472 8.148-10.472 5.992 0 8.148 4.984 8.148 10.472 0 5.46-2.156 10.444-8.148 10.444zm0-18.508c-3.976 0-5.74 2.94-5.74 8.064s1.764 8.064 5.74 8.064c3.948 0 5.74-2.94 5.74-8.064s-1.792-8.064-5.74-8.064z"/><use xlink:href="#AC"/><use xlink:href="#q" x="-56.102" y="148.427"/><path d="M814.49 939.13a1.147 1.147 0 0 1-1.176-1.176v-8.82a2.954 2.954 0 1 0-5.908-.028v8.82a1.145 1.145 0 0 1-1.204 1.204 1.131 1.131 0 0 1-1.176-1.176v-8.82a2.968 2.968 0 0 0-5.936-.028v8.82a1.167 1.167 0 0 1-1.232 1.204 1.147 1.147 0 0 1-1.176-1.176v-12.516a1.228 1.228 0 0 1 2.24-.672 5.392 5.392 0 0 1 3.108-.98 5.301 5.301 0 0 1 4.172 1.988 5.245 5.245 0 0 1 4.144-1.988 5.348 5.348 0 0 1 5.376 5.32v8.82a1.167 1.167 0 0 1-1.232 1.204z"/><use xlink:href="#f" x="22.653" y="474.788"/><use xlink:href="#j" x="-29.092" y="474.789"/><use xlink:href="#AD"/><use xlink:href="#f" x="55.804" y="474.788"/><use xlink:href="#AE"/><path d="M887.456 939.13a1.131 1.131 0 0 1-1.176-1.176v-7.784a3.99 3.99 0 1 0-7.98 0v7.756a1.19 1.19 0 0 1-1.232 1.232 1.154 1.154 0 0 1-1.176-1.204v-12.516a1.114 1.114 0 0 1 1.176-1.176 1.171 1.171 0 0 1 1.204.924 6.395 6.395 0 0 1 10.388 4.984v7.756a1.145 1.145 0 0 1-1.204 1.204z"/><use xlink:href="#AD" x="53.087"/><use xlink:href="#l" x="-3.862" y="474.788"/><use xlink:href="#AE" x="68.151"/><use xlink:href="#m" x="148.379" y="148.428"/><path d="M963.166 939.186a2.857 2.857 0 0 1-2.8-2.856v-15.932a1.204 1.204 0 0 1 2.408-.028v15.96a.442.442 0 0 0 .392.476 1.19 1.19 0 1 1 0 2.38z"/><use xlink:href="#AF"/><use xlink:href="#AG"/><use xlink:href="#q" x="171.395" y="148.427"/><use xlink:href="#i" x="-57.595" y="509.395"/><path d="M808.917 960.52l-5.096 12.264a1.277 1.277 0 0 1-1.204.952 1.356 1.356 0 0 1-1.204-.952l-5.096-12.264a1.719 1.719 0 0 1-.084-.504 1.208 1.208 0 0 1 1.232-1.148 1.147 1.147 0 0 1 1.064.728l4.088 9.8 4.088-9.8a1.206 1.206 0 0 1 2.324.392 1.395 1.395 0 0 1-.112.532z"/><use xlink:href="#g" x="8.372" y="509.393"/><path d="M829.748 956.6a2.016 2.016 0 1 1 2.016-2.016 2.008 2.008 0 0 1-2.016 2.016zm0 17.136a1.176 1.176 0 0 1-1.232-1.176V960.07a1.183 1.183 0 0 1 1.232-1.204 1.154 1.154 0 0 1 1.176 1.204v12.488a1.13 1.13 0 0 1-1.176 1.176z"/><use xlink:href="#AF" x="-131.906" y="34.605"/><path d="M864.607 967.52h-10.36c.392 2.632 2.072 4.312 4.536 4.312a4.204 4.204 0 0 0 3.332-1.456 1.158 1.158 0 0 1 .868-.448 1.307 1.307 0 0 1 1.26 1.232c0 .336-.084.588-.672 1.176a6.823 6.823 0 0 1-4.788 1.876c-4.508 0-7.028-3.724-7.028-7.924 0-4.172 2.52-7.896 7.028-7.896 4.564 0 7 3.724 7 7.896a1.194 1.194 0 0 1-1.176 1.232zm-5.824-6.748c-2.632 0-4.172 1.932-4.536 4.34h9.072c-.392-2.688-2.072-4.34-4.536-4.34z"/><use xlink:href="#AF" x="-98.111" y="34.605"/><use xlink:href="#AG" x="-97.317" y="34.604"/><path d="M922.566 960.547l-7.56 17.192a3.209 3.209 0 0 1-3.08 1.876h-.895a1.129 1.129 0 0 1-1.176-1.232 1.114 1.114 0 0 1 1.176-1.176h.868a.885.885 0 0 0 .924-.448l1.848-4.144-5.46-12.068a1.011 1.011 0 0 1-.14-.532 1.263 1.263 0 0 1 1.288-1.176 1.078 1.078 0 0 1 1.008.728l4.564 10.136 4.452-10.136a1.109 1.109 0 0 1 1.036-.7 1.241 1.241 0 0 1 1.288 1.148.951.951 0 0 1-.14.532z"/><use xlink:href="#AC" x="-68.6" y="69.21"/><use xlink:href="#AH"/><path d="M963.446 974.015a6.19 6.19 0 0 1-5.04-2.66 1.242 1.242 0 0 1-.196-.672 1.184 1.184 0 0 1 1.204-1.148c.532 0 .728.196 1.148.756a3.722 3.722 0 0 0 2.884 1.344 4.319 4.319 0 0 0 0-8.596 3.346 3.346 0 0 0-2.968 1.568 1.186 1.186 0 0 1-1.092.644c-.728 0-1.204-.476-1.204-1.4v-8.876a1.207 1.207 0 0 1 1.204-1.176h8.512a1.153 1.153 0 0 1 1.232 1.204 1.13 1.13 0 0 1-1.176 1.176h-7.392v5.236a5.17 5.17 0 0 1 2.884-.756 6.691 6.691 0 0 1 0 13.356z"/><use xlink:href="#AH" x="27.916"/><path d="M61.616 79.36a2.52 2.52 0 0 1-2.64-2.52v-17.82h-19.8v17.82a2.581 2.581 0 0 1-5.16 0V39.163a2.581 2.581 0 0 1 5.16 0v14.76h19.8v-14.7a2.58 2.58 0 1 1 5.16 0V76.78a2.541 2.541 0 0 1-2.52 2.58z"/><use xlink:href="#AI"/><path d="M141.894 79.36a2.457 2.457 0 0 1-2.52-2.52v-18.9a6.33 6.33 0 1 0-12.659-.06v18.9a2.454 2.454 0 0 1-2.58 2.58 2.424 2.424 0 0 1-2.52-2.52v-18.9a6.36 6.36 0 0 0-12.719-.06v18.9a2.501 2.501 0 0 1-2.64 2.58 2.456 2.456 0 0 1-2.52-2.52v-26.82a2.632 2.632 0 0 1 4.8-1.44 11.56 11.56 0 0 1 6.66-2.1 11.358 11.358 0 0 1 8.939 4.26 11.24 11.24 0 0 1 8.88-4.26 11.459 11.459 0 0 1 11.52 11.4v18.9a2.501 2.501 0 0 1-2.64 2.58z"/><use xlink:href="#AJ"/><path d="M230.872 79.42a2.472 2.472 0 0 1-2.52-2.58v-27.6l-11.64 21.72a2.626 2.626 0 0 1-2.4 1.62 2.857 2.857 0 0 1-2.4-1.62l-11.58-21.6v27.48a2.501 2.501 0 0 1-2.64 2.58 2.472 2.472 0 0 1-2.52-2.58v-37.5a2.526 2.526 0 0 1 2.76-2.7 2.3 2.3 0 0 1 2.16 1.5l14.22 26.46 14.28-26.46a2.303 2.303 0 0 1 2.34-1.5 2.485 2.485 0 0 1 2.58 2.7v37.5a2.501 2.501 0 0 1-2.64 2.58z"/><use xlink:href="#AJ" x="89.519"/><path d="M282.533 79.36h-1.02c-5.7 0-7.86-3-7.86-7.92V52.6h-1.8a2.55 2.55 0 1 1-.06-5.1h1.8v-8.34a2.436 2.436 0 0 1 2.58-2.52 2.39 2.39 0 0 1 2.52 2.52v8.34h3.84a2.487 2.487 0 0 1 2.52 2.52 2.441 2.441 0 0 1-2.52 2.58h-3.84v19.38c0 1.68.6 2.28 2.28 2.28h1.5a2.475 2.475 0 0 1 2.58 2.52 2.441 2.441 0 0 1-2.52 2.58zm30.3 0a2.424 2.424 0 0 1-2.52-2.52V60.16a8.55 8.55 0 1 0-17.099 0v16.62a2.55 2.55 0 0 1-2.64 2.64 2.472 2.472 0 0 1-2.52-2.58V39.223a2.58 2.58 0 0 1 5.16-.06v10.38a12.097 12.097 0 0 1 8.52-3.06 13.79 13.79 0 0 1 13.68 13.68v16.62a2.454 2.454 0 0 1-2.58 2.58zm37.738 0a5.839 5.839 0 0 1-5.34-3.42 13.747 13.747 0 0 1-10.56 4.44c-9.78 0-15.06-8.04-15.06-16.98s5.4-16.92 15.06-16.92a13.258 13.258 0 0 1 9.899 3.96v-.24a2.476 2.476 0 0 1 2.52-2.7 2.412 2.412 0 0 1 2.64 2.52v23.16a.971.971 0 0 0 .84 1.08 2.55 2.55 0 1 1 0 5.1zm-15.9-27.78c-6 0-9.9 4.68-9.9 11.82 0 7.2 3.9 11.88 9.9 11.88 6.06 0 9.9-4.68 9.9-11.88 0-7.14-3.84-11.82-9.9-11.82zm46.44 27.78a2.424 2.424 0 0 1-2.52-2.52V60.16a8.55 8.55 0 1 0-17.099 0v16.62a2.55 2.55 0 0 1-2.64 2.64 2.472 2.472 0 0 1-2.52-2.58V50.02a2.387 2.387 0 0 1 2.52-2.52 2.509 2.509 0 0 1 2.58 1.98 13.703 13.703 0 0 1 22.259 10.68v16.62a2.454 2.454 0 0 1-2.58 2.58z"/><use xlink:href="#AJ" x="239.156"/><path d="M449.4 79.36h-12.42a2.73 2.73 0 0 1-2.64-2.52V39.223a2.693 2.693 0 0 1 2.64-2.58h12.42c12.36 0 16.44 10.2 16.44 21.3 0 11.16-4.08 21.42-16.44 21.42zm0-37.62h-9.9v32.52h9.9c7.74 0 11.28-5.7 11.28-16.32 0-10.44-3.54-16.2-11.28-16.2z"/><use xlink:href="#AK"/><path d="M496.248 93.04c-3.66 0-12.72-1.32-12.72-4.92a2.794 2.794 0 0 1 2.58-2.7c1.38 0 .18.18 3.36 1.38a18.748 18.748 0 0 0 6.78 1.14c6.66 0 9.9-3.18 9.9-9.48v-2.7a14.038 14.038 0 0 1-9.9 3.6c-9.48 0-15.06-6.72-15.06-15.96 0-9 5.4-16.92 15.06-16.92 4.2 0 7.44 1.26 9.9 3.84v-.24a2.553 2.553 0 0 1 2.58-2.58 2.518 2.518 0 0 1 2.579 2.58v28.38c0 9.54-5.7 14.58-15.06 14.58zm0-41.458c-6 0-9.9 4.68-9.9 11.82 0 6.84 3.6 10.86 9.9 10.86s9.9-4.02 9.9-10.86c0-7.14-3.84-11.82-9.9-11.82z"/><use xlink:href="#AL"/><use xlink:href="#AM"/><use xlink:href="#AN"/><use xlink:href="#AL" x="74.519"/><path d="M638.387 51.583a8.644 8.644 0 0 0-8.521 8.58v16.62a2.501 2.501 0 0 1-2.64 2.58 2.456 2.456 0 0 1-2.52-2.52v-26.76a2.541 2.541 0 0 1 2.52-2.58 2.463 2.463 0 0 1 2.58 2.04 13.874 13.874 0 0 1 8.58-3.06 2.552 2.552 0 1 1 0 5.1z"/><use xlink:href="#AM" x="91.919"/><use xlink:href="#AO"/><path d="M744.344 79.36a5.837 5.837 0 0 1-5.339-3.42 13.748 13.748 0 0 1-10.56 4.44c-9.78 0-15.06-8.04-15.06-16.98s5.4-16.92 15.06-16.92a13.259 13.259 0 0 1 9.899 3.96v-.24a2.475 2.475 0 0 1 2.52-2.7 2.412 2.412 0 0 1 2.64 2.52v23.16a.971.971 0 0 0 .84 1.08 2.55 2.55 0 1 1 0 5.1zm-15.898-27.78c-6 0-9.9 4.68-9.9 11.82 0 7.2 3.9 11.88 9.9 11.88 6.06 0 9.9-4.68 9.9-11.88 0-7.14-3.84-11.82-9.9-11.82zm46.44 27.78a2.424 2.424 0 0 1-2.521-2.52V60.16a8.55 8.55 0 1 0-17.1 0v16.62a2.55 2.55 0 0 1-2.64 2.64 2.472 2.472 0 0 1-2.52-2.58V50.02a2.387 2.387 0 0 1 2.52-2.52 2.509 2.509 0 0 1 2.58 1.98 13.702 13.702 0 0 1 22.259 10.68v16.62a2.453 2.453 0 0 1-2.579 2.58zm-713.51 61.262a2.574 2.574 0 0 1-1.98-1.08l-12.48-17.46h-7.74v15.9a2.501 2.501 0 0 1-2.64 2.58 2.456 2.456 0 0 1-2.52-2.52v-37.618a2.491 2.491 0 0 1 2.52-2.58h15.54c5.28 0 12.06 4.14 12.06 12.06a12.096 12.096 0 0 1-11.04 12.12l10.5 14.46a2.355 2.355 0 0 1 .54 1.56 2.76 2.76 0 0 1-2.76 2.58zm-9.36-37.68h-12.84v14.04h12.78a7.02 7.02 0 0 0 .06-14.04z"/><use xlink:href="#AJ" x="-82.198" y="61.2"/><path d="M115.735 141.582a13.13 13.13 0 0 1-9.899-3.96v13.02a2.501 2.501 0 0 1-2.64 2.58 2.472 2.472 0 0 1-2.52-2.58v-39.358a2.472 2.472 0 0 1 2.52-2.58 2.501 2.501 0 0 1 2.64 2.58 14.401 14.401 0 0 1 9.899-3.66c9.66 0 15.06 7.92 15.06 16.92 0 9.12-5.4 17.04-15.06 17.04zm0-28.86c-5.94 0-9.9 4.74-9.9 11.82 0 7.2 3.9 11.94 9.9 11.94s9.9-4.68 9.9-11.88c0-7.14-3.9-11.88-9.9-11.88zm25.44 27.96a6.122 6.122 0 0 1-6-6.12v-34.138a2.58 2.58 0 0 1 5.16-.06v34.198a.947.947 0 0 0 .84 1.02 2.55 2.55 0 1 1 0 5.1zm35.218-.12a5.839 5.839 0 0 1-5.34-3.42 13.747 13.747 0 0 1-10.56 4.44c-9.78 0-15.06-8.04-15.06-16.98s5.4-16.92 15.06-16.92a13.26 13.26 0 0 1 9.9 3.96v-.24a2.475 2.475 0 0 1 2.52-2.7 2.412 2.412 0 0 1 2.64 2.52v23.16a.971.971 0 0 0 .84 1.08 2.55 2.55 0 1 1 0 5.1zm-15.9-27.78c-6 0-9.9 4.68-9.9 11.82 0 7.2 3.9 11.88 9.9 11.88 6.06 0 9.9-4.68 9.9-11.88 0-7.14-3.84-11.82-9.9-11.82z"/><use xlink:href="#AP"/><use xlink:href="#AJ" x="61.259" y="61.2"/><path d="M263.812 140.562h-6.9a2.55 2.55 0 0 1 0-5.1h.9v-32.52h-.9a2.55 2.55 0 0 1 0-5.1h6.9a2.551 2.551 0 1 1 0 5.1h-.9v32.52h.9a2.551 2.551 0 1 1 0 5.1z"/><use xlink:href="#AQ"/><use xlink:href="#AJ" x="153.296" y="61.2"/><use xlink:href="#AR"/><use xlink:href="#AR" x="16.02"/><use xlink:href="#AK" x="-102.73" y="61.2"/><use xlink:href="#AP" x="197.696"/><use xlink:href="#AK" x="-61.87" y="61.2"/><use xlink:href="#AJ" x="270.593" y="61.2"/><use xlink:href="#AQ" x="182.997"/><path d="M496.547 140.562h-1.02c-5.7 0-7.86-3-7.86-7.92v-18.84h-1.8a2.55 2.55 0 1 1-.06-5.1h1.8v-8.34a2.436 2.436 0 0 1 2.58-2.52 2.389 2.389 0 0 1 2.52 2.52v8.34h3.84a2.488 2.488 0 0 1 2.521 2.52 2.441 2.441 0 0 1-2.521 2.58h-3.84v19.38c0 1.68.6 2.28 2.28 2.28h1.5a2.475 2.475 0 0 1 2.58 2.52 2.441 2.441 0 0 1-2.521 2.58z"/><use xlink:href="#AO" x="-166.14" y="61.2"/><use xlink:href="#AI" x="477.71" y="61.202"/><use xlink:href="#AI" x="511.189" y="61.202"/><path d="M637.902 113.083l-8.94 8.94 9.3 14.58a3.291 3.291 0 0 1 .42 1.44 2.705 2.705 0 0 1-2.7 2.58 2.426 2.426 0 0 1-2.039-1.2l-8.76-13.62-5.1 5.1v7.14a2.58 2.58 0 0 1-5.159 0v-37.678a2.421 2.421 0 0 1 2.52-2.52 2.453 2.453 0 0 1 2.64 2.52v23.28l14.16-14.16a2.574 2.574 0 0 1 1.92-.78 2.682 2.682 0 0 1 2.579 2.58 2.641 2.641 0 0 1-.84 1.8zm14.28 28.5c-3.3 0-8.82-1.02-11.64-4.5a2.655 2.655 0 0 1 2.16-4.26 2.463 2.463 0 0 1 1.859 1.02c1.86 2.04 4.92 2.64 7.62 2.64 5.4 0 7.14-1.86 7.14-4.56 0-7.68-18.3-2.94-18.3-15.3 0-6.54 6.12-8.94 11.82-8.94 3.24 0 10.86 1.62 10.86 4.98a2.694 2.694 0 0 1-2.521 2.7 3.612 3.612 0 0 1-1.979-.78c-1.62-1.38-3.96-1.8-6.36-1.8-4.98 0-6.72 1.86-6.72 3.84 0 7.14 18.36 2.52 18.36 15.3 0 7.08-5.94 9.66-12.3 9.66z"/><use xlink:href="#AN" x="91.973" y="61.202"/><use xlink:href="#AI" x="613.667" y="61.202"/><path d="M740.56 112.243l-10.92 26.28a2.737 2.737 0 0 1-2.58 2.04 2.904 2.904 0 0 1-2.58-2.04l-10.92-26.28a3.721 3.721 0 0 1-.18-1.08 2.588 2.588 0 0 1 2.64-2.46 2.456 2.456 0 0 1 2.28 1.56l8.76 21 8.76-21a2.584 2.584 0 0 1 4.98.84 2.975 2.975 0 0 1-.24 1.14z"/><use xlink:href="#AL" x="226.732" y="61.2"/><use xlink:href="#AM" x="226.732" y="61.202"/></g></svg>