<svg xmlns="http://www.w3.org/2000/svg" xmlns:xlink="http://www.w3.org/1999/xlink" viewBox="0 0 1080 1080" xmlns:v="https://vecta.io/nano"><defs><radialGradient id="A" cx="540" cy="540" r="540" gradientUnits="userSpaceOnUse"><stop offset="0" stop-color="#fff"/><stop offset=".336" stop-color="#fefffd"/><stop offset=".511" stop-color="#fcfef5"/><stop offset=".649" stop-color="#f7fce7"/><stop offset=".767" stop-color="#f1f9d4"/><stop offset=".873" stop-color="#e9f5bc"/><stop offset=".968" stop-color="#dff19e"/><stop offset="1" stop-color="#dbef92"/></radialGradient><radialGradient id="B" cx="540" cy="670.941" r="239.625" gradientUnits="userSpaceOnUse"><stop offset="0" stop-color="#0c4c8f"/><stop offset=".171" stop-color="#0e508f"/><stop offset=".325" stop-color="#165b91"/><stop offset=".473" stop-color="#226d93"/><stop offset=".617" stop-color="#338796"/><stop offset=".758" stop-color="#49a89b"/><stop offset=".895" stop-color="#64d0a0"/><stop offset=".99" stop-color="#79f1a4"/></radialGradient><path id="C" d="M831.642 1046.318c-3.22 0-5.02-2.64-5.02-5.66 0-3 1.8-5.64 5.02-5.64s5.02 2.64 5.02 5.64c0 3.02-1.8 5.66-5.02 5.66zm0-10.162c-2.36 0-3.88 1.9-3.88 4.5s1.52 4.52 3.88 4.52c2.38 0 3.88-1.92 3.88-4.52s-1.5-4.5-3.88-4.5z"/><path id="D" d="M847.422 1045.98a.562.562 0 0 1-.58-.561v-.64a4.442 4.442 0 0 1-3.421 1.54 4.61 4.61 0 0 1-4.561-4.561v-5.842a.57.57 0 0 1 1.14 0v5.842a3.421 3.421 0 0 0 6.842 0v-5.842a.57.57 0 0 1 1.141 0v9.502a.558.558 0 0 1-.561.561z"/><path id="E" d="M855.38 1036.337a3.418 3.418 0 0 0-3.421 3.42v5.66a.57.57 0 0 1-1.141 0v-9.502a.57.57 0 0 1 1.141 0v.82a4.565 4.565 0 0 1 3.421-1.54.57.57 0 1 1 0 1.141z"/><path id="F" d="M1026.54 1045.98h-.02a2.072 2.072 0 0 1-1.98-1.561 4.536 4.536 0 0 1-3.88 1.9c-3.26 0-5.02-2.68-5.02-5.66 0-3.02 1.8-5.64 5.02-5.64a4.571 4.571 0 0 1 3.88 1.88v-.98a.564.564 0 0 1 .581-.56.546.546 0 0 1 .56.56v8.063c0 1.28 1.44.48 1.44 1.44a.55.55 0 0 1-.58.561zm-5.88-9.822c-2.36 0-3.88 1.9-3.88 4.5s1.52 4.52 3.88 4.52c2.38 0 3.88-1.92 3.88-4.52s-1.5-4.5-3.88-4.5z"/><path id="G" d="M528.182 714.43a.728.728 0 0 1-.42.112.783.783 0 0 1-.756-.812c0-.784 1.204-.896 1.4-1.792a1.612 1.612 0 0 1 .112-3.22c1.372 0 1.68 1.4 1.68 2.268a3.996 3.996 0 0 1-2.016 3.444z"/><path id="H" d="M559.766 712.415c-5.852 0-6.384-5.992-6.384-10.444 0-5.236 1.12-10.472 6.384-10.472a5.834 5.834 0 0 1 5.18 2.8.627.627 0 0 1 .168.476.85.85 0 0 1-.84.756.749.749 0 0 1-.644-.364 4.4 4.4 0 0 0-3.864-2.072c-3.528 0-4.788 3.36-4.788 8.848v.476a6.105 6.105 0 1 1 4.788 9.996zm0-10.78a4.667 4.667 0 0 0-4.48 4.76c.504 2.352 1.624 4.424 4.48 4.424a4.596 4.596 0 0 0 0-9.184z"/><path id="I" d="M508.162 354.674a.787.787 0 0 1-.812-.784v-1.4a6.352 6.352 0 0 1-5.432 2.66c-4.508 0-7.028-3.696-7.028-7.924 0-4.2 2.52-7.896 7.028-7.896a6.401 6.401 0 0 1 5.432 2.632v-6.44a.798.798 0 0 1 1.596 0V353.9a.781.781 0 0 1-.784.784zm-6.244-13.748c-3.304 0-5.432 2.66-5.432 6.3s2.128 6.328 5.432 6.328c3.332 0 5.432-2.688 5.432-6.328s-2.1-6.3-5.432-6.3z"/><path id="J" d="M527.538 354.674h-.028a2.899 2.899 0 0 1-2.772-2.184 6.352 6.352 0 0 1-5.432 2.66c-4.564 0-7.028-3.752-7.028-7.924 0-4.228 2.52-7.896 7.028-7.896a6.401 6.401 0 0 1 5.432 2.632V340.6a.789.789 0 0 1 .812-.784.764.764 0 0 1 .784.784v11.284c0 1.792 2.016.672 2.016 2.016a.77.77 0 0 1-.812.784zm-8.232-13.748c-3.304 0-5.432 2.66-5.432 6.3s2.128 6.328 5.432 6.328c3.332 0 5.432-2.688 5.432-6.328s-2.1-6.3-5.432-6.3z"/><path id="K" d="M278.524 66.043h-22.2c.84 5.64 4.44 9.24 9.72 9.24a9.007 9.007 0 0 0 7.14-3.12 2.483 2.483 0 0 1 1.859-.96 2.8 2.8 0 0 1 2.7 2.64c0 .72-.18 1.26-1.44 2.52a14.622 14.622 0 0 1-10.26 4.02c-9.66 0-15.06-7.98-15.06-16.98 0-8.94 5.4-16.92 15.06-16.92 9.78 0 15 7.98 15 16.92a2.558 2.558 0 0 1-2.52 2.64zm-12.48-14.46c-5.64 0-8.94 4.14-9.72 9.3h19.44c-.84-5.76-4.44-9.3-9.72-9.3z"/><path id="L" d="M529.2 51.583a8.644 8.644 0 0 0-8.52 8.58v16.62a2.501 2.501 0 0 1-2.64 2.58 2.456 2.456 0 0 1-2.52-2.52v-26.76a2.541 2.541 0 0 1 2.52-2.58 2.463 2.463 0 0 1 2.58 2.04 13.874 13.874 0 0 1 8.579-3.06 2.552 2.552 0 1 1 0 5.1z"/><path id="M" d="M590.458 79.362a2.423 2.423 0 0 1-2.52-2.52v-16.68a8.55 8.55 0 1 0-17.1 0v16.62a2.55 2.55 0 0 1-2.64 2.64 2.472 2.472 0 0 1-2.52-2.58v-26.82a2.387 2.387 0 0 1 2.52-2.52 2.509 2.509 0 0 1 2.58 1.98 13.702 13.702 0 0 1 22.259 10.68v16.62a2.454 2.454 0 0 1-2.58 2.58z"/><path id="N" d="M384.512 141.582c-9.66 0-15.06-7.92-15.06-16.98 0-9 5.4-16.92 15.06-16.92s15.06 7.92 15.06 16.92c0 9.06-5.4 16.98-15.06 16.98zm0-28.8c-6 0-9.9 4.68-9.9 11.82 0 7.2 3.9 11.88 9.9 11.88 6.06 0 9.9-4.68 9.9-11.88 0-7.14-3.84-11.82-9.9-11.82z"/></defs><rect width="1080" height="1080" rx="40" fill="url(#A)"/><path d="M42.373 1046.003a7.892 7.892 0 0 1-5.503-2.002 1.364 1.364 0 0 1-1.468 1.401 1.346 1.346 0 0 1-1.401-1.401v-20.88a1.435 1.435 0 0 1 2.869-.033v6.238a7.4 7.4 0 0 1 5.503-2.169c5.37 0 8.373 4.403 8.373 9.406 0 5.037-3.002 9.44-8.373 9.44zm0-16c-3.335 0-5.503 2.602-5.503 6.57 0 4.003 2.168 6.604 5.503 6.604s5.504-2.602 5.504-6.604c0-3.97-2.168-6.57-5.504-6.57zm25.554 8.037h-12.34c.467 3.136 2.468 5.137 5.403 5.137a5.003 5.003 0 0 0 3.969-1.734 1.383 1.383 0 0 1 1.034-.533 1.556 1.556 0 0 1 1.501 1.468c0 .4-.1.7-.8 1.4a8.129 8.129 0 0 1-5.704 2.235c-5.37 0-8.372-4.437-8.372-9.44 0-4.97 3.002-9.406 8.372-9.406 5.437 0 8.34 4.437 8.34 9.406a1.422 1.422 0 0 1-1.401 1.468zM61 1029.992c-3.136 0-4.97 2.3-5.403 5.17h10.807c-.467-3.202-2.468-5.17-5.403-5.17zm27.044 15.444a3.247 3.247 0 0 1-2.969-1.901 7.642 7.642 0 0 1-5.87 2.469c-5.437 0-8.372-4.47-8.372-9.44s3.002-9.406 8.372-9.406a7.369 7.369 0 0 1 5.504 2.202v-.134a1.376 1.376 0 0 1 1.4-1.501 1.341 1.341 0 0 1 1.468 1.401V1042a.54.54 0 0 0 .467.601 1.418 1.418 0 1 1 0 2.835zm-8.84-15.443c-3.336 0-5.504 2.602-5.504 6.57 0 4.003 2.168 6.604 5.504 6.604 3.37 0 5.504-2.602 5.504-6.604 0-3.97-2.135-6.57-5.504-6.57zm25.554 15.477a1.36 1.36 0 0 1-1.4-1.101 7.763 7.763 0 0 1-4.804 1.668 7.666 7.666 0 0 1-7.605-7.605v-9.24a1.434 1.434 0 0 1 2.868-.033v9.272a4.754 4.754 0 1 0 9.507 0v-9.24a1.33 1.33 0 0 1 1.4-1.468 1.364 1.364 0 0 1 1.435 1.435v14.9a1.328 1.328 0 0 1-1.401 1.4zm10.445-.034h-.567c-3.17 0-4.37-1.668-4.37-4.403v-10.474h-1a1.418 1.418 0 1 1-.033-2.835h1v-4.637a1.355 1.355 0 0 1 1.435-1.4 1.328 1.328 0 0 1 1.401 1.4v4.637h2.135a1.383 1.383 0 0 1 1.4 1.401 1.356 1.356 0 0 1-1.4 1.434h-2.135v10.774c0 .934.333 1.268 1.268 1.268h.833a1.376 1.376 0 0 1 1.435 1.4 1.357 1.357 0 0 1-1.4 1.435zm4.603-20.416a2.401 2.401 0 1 1 2.402-2.401 2.392 2.392 0 0 1-2.402 2.401zm0 20.414a1.4 1.4 0 0 1-1.467-1.401v-14.876a1.408 1.408 0 0 1 1.467-1.435 1.374 1.374 0 0 1 1.401 1.435v14.876a1.346 1.346 0 0 1-1.401 1.401zm10.376-14.874h-1.5V1044a1.364 1.364 0 0 1-1.468 1.401 1.346 1.346 0 0 1-1.401-1.401v-13.442h-1.367a1.418 1.418 0 0 1 0-2.835h1.367v-2.27a3.801 3.801 0 0 1 3.836-3.769 1.418 1.418 0 1 1 0 2.835.934.934 0 0 0-.967.9v2.302h1.5a1.418 1.418 0 1 1 0 2.835zm16.645 14.9a1.36 1.36 0 0 1-1.4-1.101 7.763 7.763 0 0 1-4.804 1.668 7.666 7.666 0 0 1-7.604-7.605v-9.24a1.434 1.434 0 0 1 2.868-.033v9.272a4.754 4.754 0 1 0 9.507 0v-9.24a1.33 1.33 0 0 1 1.4-1.468 1.364 1.364 0 0 1 1.435 1.435v14.9a1.328 1.328 0 0 1-1.401 1.4zm7.943.032a3.403 3.403 0 0 1-3.336-3.402v-18.98a1.435 1.435 0 0 1 2.869-.033v19.013a.527.527 0 0 0 .467.567 1.418 1.418 0 1 1 0 2.835zm15.368-.066v-1.264c1.886-.237 2.046-.437 2.046-3.157v-6.7c0-2.8-1.248-4.017-3.064-4.017a5.597 5.597 0 0 0-3.47 1.493v9.476c0 2.527.187 2.658 2.06 2.896v1.264h-8.968v-1.264c2.254-.33 2.5-.4 2.5-3v-8.2c0-2.446-.303-2.565-2.185-2.922v-1.184a34.102 34.102 0 0 0 6.653-1.533l-.052 2.95 2.6-1.745a5.659 5.659 0 0 1 3.159-1.086c3.194 0 5.2 2.338 5.2 6.3v7.5c0 2.54.237 2.657 2.277 2.92v1.264zm23.912-3.703c-2.458 3.427-5.488 4.178-7.014 4.178-5.142 0-8.124-3.936-8.124-8.594a10.333 10.333 0 0 1 2.832-7.062 8.602 8.602 0 0 1 6.082-2.814 6.386 6.386 0 0 1 6.37 6.347c-.014.715-.08 1.277-.612 1.4-.767.184-6.17.5-10.318.647.062 4.587 2.717 6.74 5.556 6.74a6.776 6.776 0 0 0 4.543-1.866zm-7.07-12.7c-1.667 0-3.167 1.807-3.516 4.963l5.486-.118c.6-.026.848-.146.848-.792.04-2.022-1.037-4.053-2.818-4.053zm34.282.144c-1.943.343-2.248.624-3.105 2.765-1.33 3.462-3.102 8.53-4.934 13.94h-1.512l-4.65-11.46-4.55 11.46h-1.472l-4.685-14.192c-.687-1.985-.94-2.274-2.855-2.512v-1.25h9.397v1.25c-2.325.345-2.535.672-2.058 2.133l2.52 8.214c1.507-3.68 2.988-7.62 4.327-11.424h1.456c1.4 3.76 2.986 7.702 4.573 11.568.742-2.107 2.062-5.964 2.557-8.108.412-1.674-.008-2.078-2.753-2.383v-1.25h7.742zm9.41 3.747c-.92-2.606-2.155-3.984-4.2-3.984a2.166 2.166 0 0 0-2.225 2.266c0 1.497 1.046 2.264 3.16 3.216 3.278 1.496 5.3 2.787 5.3 5.736 0 3.85-3.6 5.764-6.945 5.764a12.074 12.074 0 0 1-4.92-1.161l-.662-4.892 1.252-.224c.8 2.5 2.33 4.75 4.976 4.75a2.231 2.231 0 0 0 2.438-2.281c0-1.423-.76-2.333-3.092-3.467-2.67-1.295-5.107-2.64-5.107-5.775 0-3.046 2.533-5.42 6.565-5.42a18.751 18.751 0 0 1 4.112.567l.62 4.577z" opacity=".6"/><g opacity=".8"><path d="M820.92 1046.358c-1.2 0-3.22-.42-3.92-1.58a.482.482 0 0 1-.08-.3.546.546 0 0 1 1.021-.32 3.812 3.812 0 0 0 2.98 1.061c1.94 0 2.92-.64 2.92-1.94 0-3.02-6.562-1.42-6.562-5.422 0-2.02 2.02-2.8 3.84-2.8a5.415 5.415 0 0 1 3.44 1.16.558.558 0 0 1 .18.38.648.648 0 0 1-.62.6.531.531 0 0 1-.38-.16 4.001 4.001 0 0 0-2.62-.84c-1.76 0-2.7.68-2.7 1.66 0 2.8 6.562 1.32 6.562 5.422 0 2.28-2 3.08-4.06 3.08z"/><use xlink:href="#C" /><use xlink:href="#D" /><use xlink:href="#E" /><path d="M865.562 1044.798a4.645 4.645 0 0 1-3.58 1.521c-3.22 0-5.02-2.64-5.02-5.66 0-3 1.8-5.64 5.02-5.64a4.647 4.647 0 0 1 3.58 1.52.531.531 0 0 1 .16.381.627.627 0 0 1-.58.6.587.587 0 0 1-.42-.2 3.526 3.526 0 0 0-2.74-1.16c-2.36 0-3.88 1.9-3.88 4.5s1.52 4.52 3.88 4.52a3.596 3.596 0 0 0 2.74-1.16.587.587 0 0 1 .42-.2.594.594 0 0 1 .58.58.571.571 0 0 1-.16.399zm11.58-3.56h-8.302c.18 2.28 1.66 3.94 3.84 3.94a3.615 3.615 0 0 0 2.94-1.381.525.525 0 0 1 .479-.28.611.611 0 0 1 .62.541c0 .18 0 .22-.38.66a4.72 4.72 0 0 1-3.66 1.601c-3.22 0-5.02-2.64-5.02-5.66 0-3 1.8-5.64 5.02-5.64s5.02 2.66 5.02 5.64a.606.606 0 0 1-.56.58zm-4.46-5.08c-2.4 0-3.66 1.84-3.84 3.94h7.7c-.18-2.28-1.66-3.94-3.86-3.94zm8.438 3.26a1.14 1.14 0 1 1 0-2.28 1.14 1.14 0 0 1 0 2.28zm0 6.562a1.14 1.14 0 1 1 0-2.28 1.14 1.14 0 0 1 0 2.28zm14.22.34c-4.3 0-5.82-3.56-5.82-7.46 0-3.92 1.52-7.482 5.82-7.482 4.28 0 5.82 3.562 5.82 7.482 0 3.9-1.54 7.46-5.82 7.46zm0-13.803c-3.32 0-4.682 2.6-4.682 6.342 0 3.72 1.36 6.32 4.682 6.32 3.3 0 4.68-2.6 4.68-6.32 0-3.74-1.38-6.342-4.68-6.342z"/><use xlink:href="#D" x="64.618"/><use xlink:href="#E" x="64.62"/><path d="M940.222 1032.456l-3.52 13.103a.553.553 0 0 1-.56.42.533.533 0 0 1-.541-.42l-3-11.083-2.98 11.083a.533.533 0 0 1-.54.42.554.554 0 0 1-.561-.42l-3.52-13.103a.545.545 0 0 1-.02-.181.581.581 0 0 1 .58-.58.499.499 0 0 1 .52.44l3 11.082 2.98-11.082a.529.529 0 0 1 .54-.4.537.537 0 0 1 .56.4l2.98 11.082 3-11.082a.526.526 0 0 1 .521-.44.581.581 0 0 1 .58.58.545.545 0 0 1-.021.181z"/><use xlink:href="#C" x="115.098"/><use xlink:href="#E" x="103.32"/><path d="M962.72 1046.1a2.096 2.096 0 0 1-1.98-2.12v-11.683a.57.57 0 0 1 1.141 0v11.683c0 1.28 1.42.54 1.42 1.44a.645.645 0 0 1-.58.681zm11.42-.12a.563.563 0 0 1-.581-.561v-1a4.536 4.536 0 0 1-3.88 1.9c-3.22 0-5.02-2.64-5.02-5.66 0-3 1.8-5.64 5.02-5.64a4.571 4.571 0 0 1 3.88 1.88v-4.6a.57.57 0 0 1 1.141 0v13.122a.558.558 0 0 1-.56.561zm-4.46-9.822c-2.36 0-3.88 1.9-3.88 4.5s1.52 4.52 3.88 4.52c2.38 0 3.88-1.92 3.88-4.52s-1.5-4.5-3.88-4.5zm13.338-2.722a1.14 1.14 0 1 1 1.141-1.14 1.127 1.127 0 0 1-1.141 1.14zm0 12.543a.55.55 0 0 1-.58-.561v-9.502a.551.551 0 0 1 .58-.56.545.545 0 0 1 .561.56v9.502a.536.536 0 0 1-.561.561zm11.962.001a.563.563 0 0 1-.58-.561v-5.84a3.421 3.421 0 1 0-6.841 0v5.84a.57.57 0 0 1-1.141 0v-9.502a.57.57 0 0 1 1.141 0v.64a4.563 4.563 0 0 1 7.981 3.021v5.84a.558.558 0 0 1-.561.561zm13.14 0h-4.44a.606.606 0 0 1-.58-.561v-13.122a.59.59 0 0 1 .58-.561h4.44c4.12 0 5.48 3.44 5.48 7.102 0 3.72-1.36 7.142-5.48 7.142zm0-13.123h-3.88v11.982h3.88c3.42 0 4.34-2.96 4.34-5.98 0-3.562-1.24-6.002-4.34-6.002z"/><use xlink:href="#F" /><path d="M1032.598 1045.98h-.62a2.075 2.075 0 0 1-2.36-2.341v-7.142h-1.02a.57.57 0 0 1 0-1.14h1.02v-3.06a.562.562 0 0 1 .58-.561.546.546 0 0 1 .56.561v3.06h1.84a.57.57 0 0 1 0 1.14h-1.84v7.142c0 .98.28 1.2 1.22 1.2h.62a.57.57 0 0 1 0 1.141z"/><use xlink:href="#F" x="18.88"/></g><circle cx="540" cy="593.941" r="407.546" opacity=".9"/><circle cx="540" cy="670.941" r="239.625" fill="url(#B)"/><g fill="#fff"><path d="M497.457 673.655v-3.84a31.822 31.822 0 0 1 2.688-6.368 66.342 66.342 0 0 1 3.52-5.632q1.856-2.655 3.776-5.12 1.92-2.463 3.456-4.864a28.1 28.1 0 0 0 2.496-4.832 13.642 13.642 0 0 0 .96-5.056 8.1 8.1 0 0 0-1.6-5.472 5.071 5.071 0 0 0-3.968-1.824 5.637 5.637 0 0 0-4.576 2.272q-1.824 2.272-2.144 7.456h-4.224a23.228 23.228 0 0 1 1.12-6.528 11.761 11.761 0 0 1 2.4-4.192 8.21 8.21 0 0 1 3.328-2.208 12.101 12.101 0 0 1 3.968-.64 9.823 9.823 0 0 1 7.424 3.008q2.88 3 2.88 8.768a15.744 15.744 0 0 1-.8 5.184 21.874 21.874 0 0 1-2.144 4.448 39.049 39.049 0 0 1-3.104 4.256q-1.76 2.112-3.68 4.64-1.92 2.53-3.872 5.6a49.876 49.876 0 0 0-3.68 7.104h17.536v3.84zm47.103-23.105a73.717 73.717 0 0 1-.672 10.752 26.294 26.294 0 0 1-2.048 7.36 10.1 10.1 0 0 1-3.488 4.256 9.514 9.514 0 0 1-9.856 0 10.093 10.093 0 0 1-3.488-4.256 26.261 26.261 0 0 1-2.048-7.36 86.305 86.305 0 0 1 0-21.504 26.271 26.271 0 0 1 2.048-7.36 10.101 10.101 0 0 1 3.488-4.256 9.513 9.513 0 0 1 9.856 0 10.108 10.108 0 0 1 3.488 4.256 26.304 26.304 0 0 1 2.048 7.36 73.736 73.736 0 0 1 .672 10.752zm-4.608 0a90.028 90.028 0 0 0-.416-9.504 27.273 27.273 0 0 0-1.248-6.112 7.432 7.432 0 0 0-2.048-3.296 4.493 4.493 0 0 0-5.632 0 7.414 7.414 0 0 0-2.048 3.296 27.164 27.164 0 0 0-1.248 6.112 108.768 108.768 0 0 0 0 19.008 27.152 27.152 0 0 0 1.248 6.112 7.409 7.409 0 0 0 2.048 3.296 4.493 4.493 0 0 0 5.632 0 7.426 7.426 0 0 0 2.048-3.296 27.261 27.261 0 0 0 1.248-6.112 89.999 89.999 0 0 0 .416-9.504zm7.808 23.105v-3.84h5.632v-37.12l-5.76.512v-2.816a22.246 22.246 0 0 0 3.84-1.376 15.6 15.6 0 0 0 3.456-2.208H558v43.008h5.376v3.84zm17.662-46.208h20.736v2.432l-13.44 43.776h-4.864l13.44-42.368h-15.872zm-40.936 84.493h-9.156a.807.807 0 0 1-.812-.784.795.795 0 0 1 .168-.448l8.344-11.788a3.945 3.945 0 0 0 .644-2.1 3.693 3.693 0 0 0-3.668-3.724c-2.66 0-3.724 2.912-4.48 2.912a.858.858 0 0 1-.868-.784c0-.644 2.128-3.724 5.348-3.724a5.27 5.27 0 0 1 5.264 5.236 5.367 5.367 0 0 1-.98 3.08l-7.42 10.528h7.616a.798.798 0 0 1 0 1.596z"/><use xlink:href="#G" /><path d="M541.902 711.94h-9.156a.807.807 0 0 1-.812-.784.795.795 0 0 1 .168-.448l8.344-11.788a3.945 3.945 0 0 0 .644-2.1 3.693 3.693 0 0 0-3.668-3.724c-2.66 0-3.724 2.912-4.48 2.912a.858.858 0 0 1-.868-.784c0-.644 2.128-3.724 5.348-3.724a5.27 5.27 0 0 1 5.264 5.236 5.364 5.364 0 0 1-.98 3.08l-7.42 10.528h7.616a.798.798 0 0 1 0 1.596zm7.616 0a.765.765 0 0 1-.784-.784V694.4l-3.052 2.968a.691.691 0 0 1-.532.252.886.886 0 0 1-.84-.868.93.93 0 0 1 .252-.532l4.424-4.284a1.058 1.058 0 0 1 .532-.224c.588 0 .812.42.812.98v18.452a.757.757 0 0 1-.812.784z"/><use xlink:href="#H" /><path d="M496.84 316.204v-3.84h5.632v-37.12l-5.76.512v-2.816a22.246 22.246 0 0 0 3.84-1.376 15.609 15.609 0 0 0 3.456-2.208h3.072v43.008h5.376v3.84zm21.952-8.576a9.023 9.023 0 0 0 .8 2.784 5.044 5.044 0 0 0 1.248 1.632 3.76 3.76 0 0 0 1.472.768 6.064 6.064 0 0 0 1.472.192q3.073 0 4.864-4.416 1.8-4.416 1.92-14.08a13.737 13.737 0 0 1-3.232 2.496 7.787 7.787 0 0 1-3.872 1.024 9.671 9.671 0 0 1-3.712-.736 7.962 7.962 0 0 1-3.168-2.432 12.95 12.95 0 0 1-2.208-4.384 22.788 22.788 0 0 1-.832-6.656q0-6.783 2.656-10.624a8.375 8.375 0 0 1 7.264-3.84 12.644 12.644 0 0 1 5.216.992 8.348 8.348 0 0 1 3.68 3.392 18.966 18.966 0 0 1 2.208 6.528 60.509 60.509 0 0 1 .736 10.336 76.367 76.367 0 0 1-.8 11.936 30.554 30.554 0 0 1-2.304 8.128 11.615 11.615 0 0 1-3.648 4.672 8.325 8.325 0 0 1-4.896 1.504 10.096 10.096 0 0 1-3.808-.64 6.985 6.985 0 0 1-2.624-1.824 9.252 9.252 0 0 1-1.696-2.816 17.388 17.388 0 0 1-.96-3.68zm11.904-21.76a33.048 33.048 0 0 0-.448-5.92 13.118 13.118 0 0 0-1.28-3.904 5.355 5.355 0 0 0-2.048-2.176 5.914 5.914 0 0 0-5.216-.128 4.586 4.586 0 0 0-1.888 1.792 10.666 10.666 0 0 0-1.216 3.296 24.124 24.124 0 0 0-.448 5.056 22.493 22.493 0 0 0 .48 5.088 9.386 9.386 0 0 0 1.28 3.168 4.361 4.361 0 0 0 1.856 1.6 5.437 5.437 0 0 0 2.144.448 6.578 6.578 0 0 0 3.936-1.216 12.951 12.951 0 0 0 2.848-2.752zm12.03 21.76a9.023 9.023 0 0 0 .8 2.784 5.044 5.044 0 0 0 1.248 1.632 3.76 3.76 0 0 0 1.472.768 6.064 6.064 0 0 0 1.472.192q3.073 0 4.864-4.416 1.8-4.416 1.92-14.08a13.737 13.737 0 0 1-3.232 2.496 7.787 7.787 0 0 1-3.872 1.024 9.671 9.671 0 0 1-3.712-.736 7.962 7.962 0 0 1-3.168-2.432 12.95 12.95 0 0 1-2.208-4.384 22.788 22.788 0 0 1-.832-6.656q0-6.783 2.656-10.624a8.375 8.375 0 0 1 7.264-3.84 12.644 12.644 0 0 1 5.216.992 8.348 8.348 0 0 1 3.68 3.392 18.966 18.966 0 0 1 2.208 6.528 60.509 60.509 0 0 1 .736 10.336 76.367 76.367 0 0 1-.8 11.936 30.554 30.554 0 0 1-2.304 8.128 11.615 11.615 0 0 1-3.648 4.672 8.325 8.325 0 0 1-4.896 1.504 10.096 10.096 0 0 1-3.808-.64 6.985 6.985 0 0 1-2.624-1.824 9.252 9.252 0 0 1-1.696-2.816 17.388 17.388 0 0 1-.96-3.68zm11.904-21.76a33.048 33.048 0 0 0-.448-5.92 13.118 13.118 0 0 0-1.28-3.904 5.355 5.355 0 0 0-2.048-2.176 5.914 5.914 0 0 0-5.216-.128 4.586 4.586 0 0 0-1.888 1.792 10.666 10.666 0 0 0-1.216 3.296 24.124 24.124 0 0 0-.448 5.056 22.493 22.493 0 0 0 .48 5.088 9.386 9.386 0 0 0 1.28 3.168 4.36 4.36 0 0 0 1.856 1.6 5.437 5.437 0 0 0 2.144.448 6.578 6.578 0 0 0 3.936-1.216 12.951 12.951 0 0 0 2.848-2.752zm28.8 7.232a73.72 73.72 0 0 1-.672 10.752 26.292 26.292 0 0 1-2.048 7.36 10.101 10.101 0 0 1-3.488 4.256 9.513 9.513 0 0 1-9.856 0 10.093 10.093 0 0 1-3.488-4.256 26.259 26.259 0 0 1-2.048-7.36 86.305 86.305 0 0 1 0-21.504 26.27 26.27 0 0 1 2.048-7.36 10.099 10.099 0 0 1 3.488-4.256 9.513 9.513 0 0 1 9.856 0 10.106 10.106 0 0 1 3.488 4.256 26.303 26.303 0 0 1 2.048 7.36 73.734 73.734 0 0 1 .672 10.752zm-4.608 0a90.027 90.027 0 0 0-.416-9.504 27.279 27.279 0 0 0-1.248-6.112 7.431 7.431 0 0 0-2.048-3.296 4.492 4.492 0 0 0-5.632 0 7.413 7.413 0 0 0-2.048 3.296 27.17 27.17 0 0 0-1.248 6.112 108.768 108.768 0 0 0 0 19.008 27.149 27.149 0 0 0 1.248 6.112 7.406 7.406 0 0 0 2.048 3.296 4.493 4.493 0 0 0 5.632 0 7.423 7.423 0 0 0 2.048-3.296 27.258 27.258 0 0 0 1.248-6.112 89.999 89.999 0 0 0 .416-9.504z"/><use xlink:href="#H" x="-124.039" y="-357.265"/><use xlink:href="#G" x="-82.292" y="-357.264"/><path d="M461.767 350.95h-1.82v2.94a.798.798 0 0 1-1.596 0v-2.94h-7.532c-.56 0-.84-.308-.84-.7a.922.922 0 0 1 .14-.504l7.896-15.064a.817.817 0 0 1 .728-.448.826.826 0 0 1 .812.784.94.94 0 0 1-.112.42l-7.28 13.916h6.188v-3.612a.799.799 0 1 1 1.596-.028v3.64h1.82a.764.764 0 0 1 .784.784.787.787 0 0 1-.784.812zm7.113 3.724a.765.765 0 0 1-.784-.784v-16.744l-3.052 2.968a.691.691 0 0 1-.532.252.887.887 0 0 1-.84-.868.93.93 0 0 1 .252-.532l4.424-4.284a1.058 1.058 0 0 1 .532-.224c.588 0 .812.42.812.98V353.9a.757.757 0 0 1-.812.784zm10.303.476c-5.936 0-5.992-7.112-5.992-11.2 0-4.004.616-9.716 5.964-9.716 5.236 0 6.02 5.376 6.02 9.716 0 4.06-.084 11.2-5.992 11.2zm4.396-11.2c0-4.004-.56-8.12-4.396-8.12-4.2 0-4.396 5.152-4.396 8.12v1.792c0 3.248.616 7.812 4.368 7.812 3.836 0 4.424-4.564 4.424-7.812z"/><use xlink:href="#I" /><use xlink:href="#J" /><path d="M531.7 337.118a1.596 1.596 0 1 1 1.596-1.596 1.577 1.577 0 0 1-1.596 1.596zm0 17.556a.77.77 0 0 1-.812-.784v-13.3a.771.771 0 0 1 .812-.784.763.763 0 0 1 .784.784v13.3a.749.749 0 0 1-.784.784zm7.53.168a2.935 2.935 0 0 1-2.772-2.968v-16.352a.798.798 0 0 1 1.596 0v16.352c0 1.792 1.988.756 1.988 2.016a.903.903 0 0 1-.812.952zm15.43-13.916l-7.588 17.948a2.897 2.897 0 0 1-2.996 1.68h-1.232a.798.798 0 0 1 0-1.596h1.232c.616 0 1.26-.028 1.512-.672l1.596-3.808-5.796-13.552a.896.896 0 0 1-.056-.364.783.783 0 0 1 .812-.756.718.718 0 0 1 .7.476l5.208 12.152 5.152-12.152a.729.729 0 0 1 .728-.476.759.759 0 0 1 .784.756.889.889 0 0 1-.056.364z"/><use xlink:href="#I" x="67.928"/><path d="M593.477 348.038h-11.62c.252 3.192 2.324 5.516 5.376 5.516a5.061 5.061 0 0 0 4.116-1.932.735.735 0 0 1 .672-.392.856.856 0 0 1 .868.756c0 .252 0 .308-.532.924a6.611 6.611 0 0 1-5.124 2.24c-4.508 0-7.028-3.696-7.028-7.924 0-4.2 2.52-7.896 7.028-7.896s7.028 3.724 7.028 7.896a.848.848 0 0 1-.784.812zm-6.244-7.112c-3.36 0-5.124 2.576-5.376 5.516h10.78c-.252-3.192-2.324-5.516-5.404-5.516z"/><use xlink:href="#J" x="84.67"/><path d="M620.692 354.674h-.868c-2.212 0-3.304-1.092-3.304-3.276v-9.996h-1.428a.798.798 0 0 1 0-1.596h1.428v-4.284a.787.787 0 0 1 .812-.784.764.764 0 0 1 .784.784v4.284h2.576a.798.798 0 0 1 0 1.596h-2.576v9.996c0 1.372.392 1.68 1.708 1.68h.868a.798.798 0 0 1 0 1.596zm15.316 0a.787.787 0 0 1-.812-.784v-8.176a4.788 4.788 0 1 0-9.576 0v8.176a.798.798 0 0 1-1.596 0v-18.368a.798.798 0 0 1 1.596 0v5.964a6.22 6.22 0 0 1 4.788-2.156 6.436 6.436 0 0 1 6.384 6.384v8.176a.781.781 0 0 1-.784.784zm9.184.532c-1.68 0-4.508-.588-5.488-2.212a.677.677 0 0 1-.112-.42.764.764 0 0 1 1.428-.448c1.008 1.232 2.8 1.484 4.172 1.484 2.716 0 4.088-.896 4.088-2.716 0-4.228-9.184-1.988-9.184-7.588 0-2.828 2.828-3.92 5.376-3.92a7.586 7.586 0 0 1 4.816 1.624.783.783 0 0 1 .252.532.908.908 0 0 1-.868.84.742.742 0 0 1-.532-.224 5.597 5.597 0 0 0-3.668-1.176c-2.464 0-3.78.952-3.78 2.324 0 3.92 9.184 1.848 9.184 7.588 0 3.192-2.8 4.312-5.684 4.312z"/></g><path d="M251.885 41.743h-22.44v12.12h15.72a2.561 2.561 0 0 1 2.58 2.58 2.523 2.523 0 0 1-2.58 2.58h-15.72v17.82a2.58 2.58 0 0 1-5.159 0V39.224a2.612 2.612 0 0 1 2.64-2.58h24.96a2.425 2.425 0 0 1 2.52 2.52 2.504 2.504 0 0 1-2.52 2.58z"/><use xlink:href="#K" /><path d="M325.022 50.923l-9.3 26.34a2.728 2.728 0 0 1-2.641 2.1c-1.26 0-1.98-.54-2.52-2.1l-7.02-19.8-7.08 19.8a2.598 2.598 0 0 1-5.1 0l-9.24-26.34a2.64 2.64 0 0 1-.12-.96 2.585 2.585 0 0 1 2.64-2.46 2.378 2.378 0 0 1 2.34 1.68l6.96 20.04 7.08-19.62c.48-1.38 1.08-2.1 2.52-2.1 1.32 0 2.04.66 2.52 2.1l7.02 19.62 7.02-20.04a2.359 2.359 0 0 1 2.279-1.68 2.666 2.666 0 0 1 2.76 2.52 2.484 2.484 0 0 1-.12.9z"/><use xlink:href="#K" x="75.719"/><path d="M374.523 51.583a8.644 8.644 0 0 0-8.52 8.58v16.62a2.502 2.502 0 0 1-2.641 2.58 2.456 2.456 0 0 1-2.52-2.52v-26.76a2.541 2.541 0 0 1 2.52-2.58 2.463 2.463 0 0 1 2.58 2.04 13.874 13.874 0 0 1 8.58-3.06 2.552 2.552 0 1 1 0 5.1zm45.837 22.26c-2.94 4.08-7.14 6.54-13.38 6.54-12.9 0-17.46-10.68-17.46-22.38 0-11.76 4.56-22.44 17.46-22.44 6.06 0 10.5 2.4 13.32 6.54a2.31 2.31 0 0 1 .539 1.5 2.6 2.6 0 0 1-2.64 2.52 2.511 2.511 0 0 1-2.04-1.08c-1.86-2.7-4.62-4.32-9.18-4.32-8.52 0-12.3 6.3-12.3 17.28s3.78 17.28 12.3 17.28c4.56 0 7.32-1.74 9.18-4.38a2.425 2.425 0 0 1 2.04-1.14 2.525 2.525 0 0 1 2.16 4.08zm29.22 5.52a2.424 2.424 0 0 1-2.521-2.52v-16.68a8.549 8.549 0 1 0-17.099 0v16.62a2.551 2.551 0 0 1-2.641 2.64 2.472 2.472 0 0 1-2.52-2.58V39.224a2.58 2.58 0 0 1 5.16-.06v10.38a12.097 12.097 0 0 1 8.52-3.06 13.791 13.791 0 0 1 13.68 13.68v16.62a2.454 2.454 0 0 1-2.58 2.58zm10.922-36.72a4.32 4.32 0 1 1 4.319-4.319 4.302 4.302 0 0 1-4.319 4.319zm0 36.72a2.521 2.521 0 0 1-2.641-2.52v-26.76a2.534 2.534 0 0 1 2.641-2.58 2.472 2.472 0 0 1 2.52 2.58v26.76a2.421 2.421 0 0 1-2.52 2.52zm14.518.12a6.122 6.122 0 0 1-6-6.12V39.224a2.58 2.58 0 0 1 5.16-.06v34.198a.947.947 0 0 0 .84 1.02 2.55 2.55 0 1 1 0 5.1zm31.8-.18a2.436 2.436 0 0 1-2.58-2.52 14.518 14.518 0 0 1-9.899 3.6c-9.66 0-15.06-7.92-15.06-16.98 0-9 5.4-16.92 15.06-16.92a13.224 13.224 0 0 1 9.899 3.9v-11.16a2.58 2.58 0 0 1 5.16-.06V76.78a2.437 2.437 0 0 1-2.58 2.52zm-12.48-27.72c-6 0-9.9 4.68-9.9 11.82 0 7.2 3.9 11.88 9.9 11.88 6.06 0 9.9-4.68 9.9-11.88 0-7.14-3.84-11.82-9.9-11.82z"/><use xlink:href="#L" /><path d="M559.078 66.043h-22.2c.84 5.64 4.44 9.24 9.72 9.24a9.004 9.004 0 0 0 7.14-3.12 2.484 2.484 0 0 1 1.86-.96 2.8 2.8 0 0 1 2.7 2.64c0 .72-.18 1.26-1.44 2.52a14.622 14.622 0 0 1-10.26 4.02c-9.66 0-15.06-7.98-15.06-16.98 0-8.94 5.4-16.92 15.06-16.92 9.78 0 15 7.98 15 16.92a2.558 2.558 0 0 1-2.521 2.64zm-12.48-14.46c-5.64 0-8.94 4.14-9.72 9.3h19.44c-.84-5.76-4.44-9.3-9.72-9.3z"/><use xlink:href="#M" /><path d="M641.098 79.362a2.456 2.456 0 0 1-2.28-1.56l-3.18-7.8h-19.98l-3.24 7.8a2.439 2.439 0 0 1-2.22 1.56 2.651 2.651 0 0 1-2.699-2.52 1.976 1.976 0 0 1 .239-1.02l15.42-37.498a2.621 2.621 0 0 1 2.46-1.86 2.725 2.725 0 0 1 2.46 1.86l15.48 37.498a2.823 2.823 0 0 1 .18 1.02 2.561 2.561 0 0 1-2.64 2.52zm-15.48-33.6l-7.86 19.08h15.72z"/><use xlink:href="#L" x="130.857"/><use xlink:href="#K" x="411.412"/><path d="M723.895 79.362h-12.42a2.73 2.73 0 0 1-2.64-2.52V39.224a2.693 2.693 0 0 1 2.64-2.58h12.42c12.36 0 16.44 10.2 16.44 21.3 0 11.16-4.08 21.42-16.44 21.42zm0-37.62h-9.9v32.52h9.9c7.74 0 11.28-5.7 11.28-16.32 0-10.44-3.54-16.2-11.28-16.2zm47.52 9.36l-16.2 36.838a6.875 6.875 0 0 1-6.6 4.02h-1.92a2.42 2.42 0 0 1-2.52-2.64 2.387 2.387 0 0 1 2.52-2.52h1.86a1.894 1.894 0 0 0 1.979-.96l3.96-8.88-11.7-25.86a2.163 2.163 0 0 1-.3-1.14 2.705 2.705 0 0 1 2.76-2.52 2.308 2.308 0 0 1 2.159 1.56l9.78 21.72 9.54-21.72a2.376 2.376 0 0 1 2.221-1.5 2.659 2.659 0 0 1 2.76 2.46 2.036 2.036 0 0 1-.301 1.14zm6.24-8.46a4.32 4.32 0 1 1 4.32-4.319 4.302 4.302 0 0 1-4.32 4.319zm0 36.72a2.52 2.52 0 0 1-2.64-2.52v-26.76a2.533 2.533 0 0 1 2.64-2.58 2.472 2.472 0 0 1 2.52 2.58v26.76a2.421 2.421 0 0 1-2.52 2.52z"/><use xlink:href="#M" x="220.855"/><path d="M833.154 93.042c-3.66 0-12.72-1.32-12.72-4.92a2.794 2.794 0 0 1 2.58-2.7c1.38 0 .18.18 3.36 1.38a18.754 18.754 0 0 0 6.78 1.14c6.66 0 9.9-3.18 9.9-9.48v-2.7a14.038 14.038 0 0 1-9.899 3.6c-9.48 0-15.06-6.72-15.06-15.96 0-9 5.4-16.92 15.06-16.92 4.2 0 7.44 1.26 9.9 3.84v-.24a2.553 2.553 0 0 1 2.58-2.58 2.519 2.519 0 0 1 2.58 2.58v28.38c0 9.54-5.7 14.58-15.06 14.58zm0-41.458c-6 0-9.9 4.68-9.9 11.82 0 6.84 3.6 10.86 9.9 10.86s9.9-4.02 9.9-10.86c0-7.14-3.84-11.82-9.9-11.82z"/><use xlink:href="#N" /><path d="M414.1 113.803h-2.7v24.18a2.453 2.453 0 0 1-2.641 2.52 2.421 2.421 0 0 1-2.52-2.52v-24.18h-2.46a2.55 2.55 0 0 1 0-5.1h2.46v-4.08a6.836 6.836 0 0 1 6.899-6.78 2.551 2.551 0 1 1 0 5.1 1.681 1.681 0 0 0-1.739 1.62v4.14h2.7a2.552 2.552 0 1 1 0 5.1zm35.94 8.28H437.2v15.9a2.58 2.58 0 0 1-5.16.06v-37.618a2.491 2.491 0 0 1 2.52-2.58h15.54c5.28 0 12.06 4.14 12.06 12.06a12.099 12.099 0 0 1-12.12 12.179zm0-19.14H437.2v14.04h12.78a7.02 7.02 0 0 0 .06-14.04z"/><use xlink:href="#M" x="-100.288" y="61.2"/><path d="M524.5 127.243h-22.2c.84 5.64 4.44 9.24 9.72 9.24a9.007 9.007 0 0 0 7.14-3.12 2.483 2.483 0 0 1 1.859-.96 2.8 2.8 0 0 1 2.7 2.64c0 .72-.18 1.26-1.44 2.52a14.622 14.622 0 0 1-10.26 4.02c-9.66 0-15.06-7.98-15.06-16.98 0-8.94 5.4-16.92 15.06-16.92 9.78 0 15 7.98 15 16.92a2.558 2.558 0 0 1-2.52 2.64zm-12.5-14.46c-5.64 0-8.94 4.14-9.72 9.3h19.44c-.84-5.76-4.44-9.3-9.72-9.3zm43.4 27.84a2.446 2.446 0 0 1-2.52-1.98 13.965 13.965 0 0 1-8.64 3 13.79 13.79 0 0 1-13.679-13.68v-16.62a2.58 2.58 0 0 1 5.159-.06v16.68a8.55 8.55 0 1 0 17.1 0v-16.62a2.393 2.393 0 0 1 2.52-2.64 2.454 2.454 0 0 1 2.58 2.58v26.82a2.39 2.39 0 0 1-2.52 2.52zm46.797-.06a2.456 2.456 0 0 1-2.52-2.52v-18.9a6.33 6.33 0 1 0-12.659-.06v18.9a2.454 2.454 0 0 1-2.58 2.58 2.424 2.424 0 0 1-2.52-2.52v-18.9a6.36 6.36 0 0 0-12.719-.06v18.9a2.502 2.502 0 0 1-2.641 2.58 2.456 2.456 0 0 1-2.52-2.52v-26.82a2.632 2.632 0 0 1 4.8-1.44 11.562 11.562 0 0 1 6.66-2.1 11.36 11.36 0 0 1 8.939 4.26 11.238 11.238 0 0 1 8.88-4.26 11.459 11.459 0 0 1 11.52 11.4v18.9a2.502 2.502 0 0 1-2.641 2.58z"/><use xlink:href="#N" x="239.578"/><use xlink:href="#M" x="78.209" y="61.2"/><path d="M679.588 103.843a4.32 4.32 0 1 1 4.32-4.319 4.302 4.302 0 0 1-4.32 4.319zm0 36.72a2.52 2.52 0 0 1-2.64-2.52v-26.76a2.533 2.533 0 0 1 2.64-2.58 2.472 2.472 0 0 1 2.521 2.58v26.76a2.421 2.421 0 0 1-2.521 2.52zm38.458-.001a5.839 5.839 0 0 1-5.34-3.42 13.746 13.746 0 0 1-10.56 4.44c-9.78 0-15.06-8.04-15.06-16.98s5.4-16.92 15.06-16.92a13.257 13.257 0 0 1 9.899 3.96v-.24a2.476 2.476 0 0 1 2.521-2.7 2.412 2.412 0 0 1 2.64 2.52v23.16a.971.971 0 0 0 .84 1.08 2.55 2.55 0 1 1 0 5.1zm-15.9-27.78c-6 0-9.9 4.68-9.9 11.82 0 7.2 3.9 11.88 9.9 11.88 6.06 0 9.9-4.68 9.9-11.88 0-7.14-3.84-11.82-9.9-11.82z"/></svg>