<svg xmlns="http://www.w3.org/2000/svg" xmlns:xlink="http://www.w3.org/1999/xlink" viewBox="0 0 1080 1080" xmlns:v="https://vecta.io/nano"><defs><linearGradient id="A" x1="11.716" y1="1068.284" x2="1068.284" y2="11.716" gradientUnits="userSpaceOnUse"><stop offset="0" stop-color="#ff7e08"/><stop offset=".21" stop-color="#ff9a15"/><stop offset=".557" stop-color="#ffc227"/><stop offset=".833" stop-color="#ffdb33"/><stop offset="1" stop-color="#ffe437"/></linearGradient><linearGradient id="B" x1="138.791" y1="1062.643" x2="984.459" y2="216.975" gradientUnits="userSpaceOnUse"><stop offset="0" stop-color="#8e0e00"/><stop offset=".258" stop-color="#691308"/><stop offset=".584" stop-color="#411811"/><stop offset=".843" stop-color="#281b16"/><stop offset="1" stop-color="#1f1c18"/></linearGradient><path id="C" d="M104.714 1045.51a1.36 1.36 0 0 1-1.4-1.101 7.763 7.763 0 0 1-4.804 1.668 7.666 7.666 0 0 1-7.604-7.605v-9.24a1.434 1.434 0 0 1 2.868-.033v9.272a4.753 4.753 0 1 0 9.507 0v-9.24a1.33 1.33 0 0 1 1.4-1.468 1.364 1.364 0 0 1 1.435 1.435v14.9a1.328 1.328 0 0 1-1.401 1.4z"/><path id="D" d="M803.922 1046.357c-1.2 0-3.22-.42-3.92-1.58a.482.482 0 0 1-.08-.3.546.546 0 0 1 1.021-.32 3.812 3.812 0 0 0 2.98 1.061c1.94 0 2.92-.64 2.92-1.94 0-3.02-6.562-1.42-6.562-5.422 0-2.02 2.02-2.8 3.84-2.8a5.415 5.415 0 0 1 3.44 1.16.558.558 0 0 1 .18.38.648.648 0 0 1-.62.6.531.531 0 0 1-.38-.16 4.001 4.001 0 0 0-2.62-.84c-1.76 0-2.7.68-2.7 1.66 0 2.8 6.562 1.32 6.562 5.422 0 2.28-2 3.08-4.06 3.08z"/><path id="E" d="M814.643 1046.317c-3.22 0-5.02-2.64-5.02-5.66 0-3 1.8-5.64 5.02-5.64s5.02 2.64 5.02 5.64c0 3.02-1.8 5.66-5.02 5.66zm0-10.162c-2.36 0-3.88 1.9-3.88 4.5s1.52 4.52 3.88 4.52c2.38 0 3.88-1.92 3.88-4.52s-1.5-4.5-3.88-4.5z"/><path id="F" d="M848.562 1044.797a4.645 4.645 0 0 1-3.58 1.521c-3.22 0-5.02-2.64-5.02-5.66 0-3 1.8-5.64 5.02-5.64a4.647 4.647 0 0 1 3.58 1.52.531.531 0 0 1 .16.381.627.627 0 0 1-.58.6.587.587 0 0 1-.42-.2 3.526 3.526 0 0 0-2.74-1.16c-2.36 0-3.88 1.9-3.88 4.5s1.52 4.52 3.88 4.52a3.596 3.596 0 0 0 2.74-1.16.587.587 0 0 1 .42-.2.594.594 0 0 1 .58.58.571.571 0 0 1-.16.399z"/><path id="G" d="M860.143 1041.236h-8.302c.18 2.28 1.66 3.94 3.84 3.94a3.615 3.615 0 0 0 2.94-1.381.525.525 0 0 1 .479-.28.611.611 0 0 1 .62.541c0 .18 0 .22-.38.66a4.72 4.72 0 0 1-3.66 1.601c-3.22 0-5.02-2.64-5.02-5.66 0-3 1.8-5.64 5.02-5.64s5.02 2.66 5.02 5.64a.606.606 0 0 1-.56.58zm-4.46-5.08c-2.4 0-3.66 1.84-3.84 3.94h7.7c-.18-2.28-1.66-3.94-3.86-3.94z"/><path id="H" d="M110.02 43.28a4.32 4.32 0 1 1 4.32-4.319 4.302 4.302 0 0 1-4.32 4.319zm0 36.72a2.52 2.52 0 0 1-2.64-2.52V50.72a2.534 2.534 0 0 1 2.64-2.58 2.472 2.472 0 0 1 2.52 2.58v26.76a2.421 2.421 0 0 1-2.52 2.52z"/><path id="I" d="M143.678 80a2.424 2.424 0 0 1-2.52-2.52V60.8a8.55 8.55 0 1 0-17.099 0v16.62a2.55 2.55 0 0 1-2.64 2.64 2.472 2.472 0 0 1-2.52-2.58V50.66a2.387 2.387 0 0 1 2.52-2.52 2.509 2.509 0 0 1 2.58 1.98 13.703 13.703 0 0 1 22.259 10.68v16.62a2.454 2.454 0 0 1-2.58 2.58z"/><path id="J" d="M165.52 81.02c-9.66 0-15.06-7.92-15.06-16.98 0-9 5.4-16.92 15.06-16.92s15.06 7.92 15.06 16.92c0 9.06-5.4 16.98-15.06 16.98zm0-28.8c-6 0-9.9 4.68-9.9 11.82 0 7.2 3.9 11.88 9.9 11.88 6.06 0 9.9-4.68 9.9-11.88 0-7.14-3.84-11.82-9.9-11.82z"/><path id="K" d="M560.97 52.22a8.644 8.644 0 0 0-8.521 8.58v16.62a2.501 2.501 0 0 1-2.64 2.58 2.456 2.456 0 0 1-2.52-2.52V50.72a2.541 2.541 0 0 1 2.52-2.58 2.463 2.463 0 0 1 2.58 2.04 13.874 13.874 0 0 1 8.58-3.06 2.552 2.552 0 1 1 0 5.1z"/><path id="L" d="M752.648 215.924c-4.508 0-7.028-3.696-7.028-7.924 0-4.2 2.52-7.896 7.028-7.896s7.028 3.696 7.028 7.896c0 4.228-2.52 7.924-7.028 7.924zm0-14.224c-3.304 0-5.432 2.66-5.432 6.3s2.128 6.328 5.432 6.328c3.332 0 5.432-2.688 5.432-6.328s-2.1-6.3-5.432-6.3z"/><path id="M" d="M768.832 201.952a4.786 4.786 0 0 0-4.788 4.788v7.924a.798.798 0 0 1-1.596 0v-13.3a.798.798 0 0 1 1.596 0v1.148a6.393 6.393 0 0 1 4.788-2.156.798.798 0 1 1 0 1.596z"/><path id="N" d="M117.938 128a1.068 1.068 0 0 1-1.102-1.063v-11.095a6.497 6.497 0 0 0-12.994 0v11.095a1.083 1.083 0 0 1-2.166 0V108.89a1.083 1.083 0 0 1 2.166 0v1.216a8.667 8.667 0 0 1 15.16 5.737v11.095a1.059 1.059 0 0 1-1.064 1.064z"/><path id="O" d="M173.57 128h-1.178c-3 0-4.483-1.48-4.483-4.445V109.99h-1.937a1.083 1.083 0 0 1 0-2.165h1.938v-5.813a1.068 1.068 0 0 1 1.103-1.063 1.037 1.037 0 0 1 1.063 1.063v5.813h3.495a1.083 1.083 0 0 1 0 2.165h-3.495v13.564c0 1.86.532 2.28 2.317 2.28h1.178a1.083 1.083 0 0 1 0 2.166z"/><path id="P" d="M185.997 128.646c-6.117 0-9.536-5.015-9.536-10.752 0-5.7 3.42-10.715 9.536-10.715s9.537 5.016 9.537 10.715c0 5.737-3.42 10.752-9.537 10.752zm0-19.3c-4.483 0-7.37 3.61-7.37 8.55s2.888 8.587 7.37 8.587c4.52 0 7.37-3.647 7.37-8.587s-2.85-8.55-7.37-8.55z"/><path id="Q" d="M211.608 128.228a3.982 3.982 0 0 1-3.762-4.027v-22.188a1.083 1.083 0 0 1 2.166 0V124.2c0 2.432 2.697 1.026 2.697 2.736a1.224 1.224 0 0 1-1.102 1.291z"/><path id="R" d="M235.242 128h-.038a3.933 3.933 0 0 1-3.762-2.964 8.619 8.619 0 0 1-7.371 3.609c-6.193 0-9.536-5.09-9.536-10.752 0-5.737 3.42-10.715 9.536-10.715a8.686 8.686 0 0 1 7.371 3.572v-1.862a1.071 1.071 0 0 1 1.102-1.063 1.037 1.037 0 0 1 1.064 1.063V124.2c0 2.432 2.735.912 2.735 2.736a1.045 1.045 0 0 1-1.102 1.064zm-11.17-18.655c-4.483 0-7.37 3.61-7.37 8.55s2.888 8.587 7.37 8.587c4.52 0 7.37-3.647 7.37-8.587s-2.85-8.55-7.37-8.55z"/><path id="S" d="M360.716 109.687a6.494 6.494 0 0 0-6.497 6.497v10.753a1.083 1.083 0 0 1-2.166 0V108.89a1.083 1.083 0 0 1 2.166 0v1.558a8.676 8.676 0 0 1 6.497-2.925 1.083 1.083 0 1 1 0 2.165z"/><path id="T" d="M379.297 125.76a8.825 8.825 0 0 1-6.801 2.887c-6.117 0-9.536-5.015-9.536-10.752 0-5.7 3.42-10.715 9.536-10.715a8.826 8.826 0 0 1 6.801 2.888 1.006 1.006 0 0 1 .305.722 1.191 1.191 0 0 1-1.103 1.141 1.123 1.123 0 0 1-.798-.38 6.696 6.696 0 0 0-5.205-2.204c-4.483 0-7.37 3.61-7.37 8.55s2.888 8.587 7.37 8.587a6.826 6.826 0 0 0 5.205-2.204 1.079 1.079 0 0 1 1.9.722 1.089 1.089 0 0 1-.305.761z"/><path id="U" d="M540.643 128.646a8.619 8.619 0 0 1-7.371-3.609v9.84a1.083 1.083 0 1 1-2.166 0V108.89a1.083 1.083 0 0 1 2.166 0v1.862a8.686 8.686 0 0 1 7.371-3.572c6.117 0 9.536 5.016 9.536 10.715 0 5.737-3.42 10.752-9.536 10.752zm0-19.3c-4.52 0-7.37 3.61-7.37 8.55s2.85 8.587 7.37 8.587 7.37-3.647 7.37-8.587-2.85-8.55-7.37-8.55z"/><path id="V" d="M663.383 104.178a2.166 2.166 0 1 1 2.165-2.166 2.141 2.141 0 0 1-2.165 2.166zm0 23.822a1.045 1.045 0 0 1-1.103-1.063V108.89a1.047 1.047 0 0 1 1.103-1.063 1.034 1.034 0 0 1 1.063 1.063v18.048a1.016 1.016 0 0 1-1.063 1.064z"/></defs><rect width="1080" height="1080" rx="40" fill="url(#A)"/><g opacity=".4"><path d="M42.328 1046.045a7.892 7.892 0 0 1-5.503-2.002 1.364 1.364 0 0 1-1.468 1.401 1.346 1.346 0 0 1-1.401-1.401v-20.88a1.435 1.435 0 0 1 2.869-.033v6.238a7.4 7.4 0 0 1 5.503-2.169c5.37 0 8.373 4.403 8.373 9.406 0 5.037-3.002 9.44-8.373 9.44zm0-16c-3.335 0-5.503 2.602-5.503 6.57 0 4.003 2.168 6.604 5.503 6.604s5.504-2.602 5.504-6.604c0-3.97-2.168-6.57-5.504-6.57zm25.555 8.037h-12.34c.467 3.136 2.468 5.137 5.403 5.137a5.003 5.003 0 0 0 3.969-1.734 1.383 1.383 0 0 1 1.034-.533 1.556 1.556 0 0 1 1.501 1.468c0 .4-.1.7-.8 1.4a8.129 8.129 0 0 1-5.704 2.235c-5.37 0-8.372-4.437-8.372-9.44 0-4.97 3.002-9.406 8.372-9.406 5.437 0 8.34 4.437 8.34 9.406a1.422 1.422 0 0 1-1.401 1.468zm-6.937-8.038c-3.136 0-4.97 2.3-5.403 5.17H66.35c-.467-3.202-2.468-5.17-5.403-5.17zM88 1045.478a3.247 3.247 0 0 1-2.969-1.901 7.642 7.642 0 0 1-5.87 2.469c-5.437 0-8.372-4.47-8.372-9.44s3.002-9.406 8.372-9.406a7.369 7.369 0 0 1 5.504 2.202v-.134a1.376 1.376 0 0 1 1.4-1.501 1.341 1.341 0 0 1 1.468 1.401v12.875a.54.54 0 0 0 .467.601 1.418 1.418 0 1 1 0 2.835zm-8.84-15.443c-3.336 0-5.504 2.602-5.504 6.57 0 4.003 2.168 6.604 5.504 6.604 3.37 0 5.504-2.602 5.504-6.604 0-3.97-2.135-6.57-5.504-6.57z"/><use xlink:href="#C"/><path d="M115.158 1045.478h-.567c-3.17 0-4.37-1.668-4.37-4.403V1030.6h-1a1.418 1.418 0 1 1-.033-2.835h1v-4.637a1.355 1.355 0 0 1 1.435-1.4 1.328 1.328 0 0 1 1.401 1.4v4.637h2.135a1.383 1.383 0 0 1 1.4 1.401 1.356 1.356 0 0 1-1.4 1.434h-2.135v10.774c0 .934.333 1.268 1.268 1.268h.833a1.376 1.376 0 0 1 1.435 1.4 1.357 1.357 0 0 1-1.4 1.435zm4.604-20.415a2.401 2.401 0 1 1 2.402-2.401 2.392 2.392 0 0 1-2.402 2.401zm0 20.414a1.4 1.4 0 0 1-1.467-1.401V1029.2a1.408 1.408 0 0 1 1.467-1.435 1.374 1.374 0 0 1 1.401 1.435v14.876a1.346 1.346 0 0 1-1.401 1.401zm10.376-14.877h-1.5v13.442a1.364 1.364 0 0 1-1.468 1.401 1.346 1.346 0 0 1-1.401-1.401V1030.6h-1.37a1.418 1.418 0 0 1 0-2.835h1.367v-2.27a3.801 3.801 0 0 1 3.836-3.769 1.418 1.418 0 1 1 0 2.835.934.934 0 0 0-.967.9v2.302h1.5a1.418 1.418 0 1 1 0 2.835z"/><use xlink:href="#C" x="42.068"/><path d="M154.725 1045.544a3.403 3.403 0 0 1-3.336-3.402v-18.98a1.435 1.435 0 0 1 2.869-.033v19.013a.527.527 0 0 0 .467.567 1.418 1.418 0 1 1 0 2.835zm15.37-.066v-1.264c1.886-.237 2.046-.437 2.046-3.157v-6.7c0-2.8-1.248-4.017-3.064-4.017a5.597 5.597 0 0 0-3.47 1.493v9.476c0 2.527.187 2.658 2.06 2.896v1.264h-8.968v-1.264c2.254-.33 2.5-.4 2.5-3v-8.2c0-2.446-.303-2.565-2.185-2.922v-1.184a34.101 34.101 0 0 0 6.653-1.533l-.052 2.95 2.6-1.745a5.659 5.659 0 0 1 3.159-1.086c3.194 0 5.2 2.338 5.2 6.3v7.5c0 2.54.237 2.657 2.277 2.92v1.264zm23.9-3.703c-2.458 3.427-5.488 4.178-7.014 4.178-5.142 0-8.124-3.936-8.124-8.594a10.333 10.333 0 0 1 2.832-7.062 8.602 8.602 0 0 1 6.082-2.814 6.386 6.386 0 0 1 6.37 6.347c-.014.715-.08 1.277-.612 1.4-.767.184-6.17.5-10.318.647.062 4.587 2.717 6.74 5.556 6.74a6.776 6.776 0 0 0 4.543-1.866zm-7.07-12.7c-1.667 0-3.167 1.807-3.516 4.963l5.486-.118c.6-.026.848-.146.848-.792.04-2.022-1.037-4.053-2.818-4.053zm34.284.145c-1.943.343-2.248.624-3.105 2.765-1.33 3.462-3.102 8.53-4.934 13.94h-1.512l-4.65-11.46-4.55 11.46h-1.472l-4.685-14.192c-.687-1.985-.94-2.274-2.855-2.512v-1.25h9.397v1.25c-2.325.345-2.535.672-2.058 2.133l2.52 8.214c1.507-3.68 2.988-7.62 4.327-11.424h1.456c1.4 3.76 2.986 7.702 4.573 11.568.742-2.107 2.062-5.964 2.557-8.108.412-1.674-.008-2.078-2.753-2.383v-1.25h7.742zm9.4 3.746c-.92-2.606-2.155-3.984-4.2-3.984a2.166 2.166 0 0 0-2.225 2.266c0 1.497 1.046 2.264 3.16 3.216 3.278 1.496 5.3 2.787 5.3 5.736 0 3.85-3.6 5.764-6.945 5.764a12.073 12.073 0 0 1-4.92-1.161l-.662-4.892 1.252-.224c.8 2.5 2.33 4.75 4.976 4.75a2.231 2.231 0 0 0 2.438-2.281c0-1.423-.76-2.333-3.092-3.467-2.67-1.295-5.107-2.64-5.107-5.775 0-3.046 2.533-5.42 6.565-5.42a18.751 18.751 0 0 1 4.112.567l.62 4.577z"/></g><g opacity=".5"><use xlink:href="#D"/><use xlink:href="#E"/><path d="M830.423 1045.977a.562.562 0 0 1-.58-.561v-.64a4.442 4.442 0 0 1-3.421 1.54 4.61 4.61 0 0 1-4.561-4.561v-5.842a.57.57 0 0 1 1.14 0v5.842a3.421 3.421 0 0 0 6.842 0v-5.842a.57.57 0 0 1 1.141 0v9.502a.558.558 0 0 1-.561.561zm7.96-9.64a3.418 3.418 0 0 0-3.421 3.42v5.66a.57.57 0 0 1-1.141 0v-9.502a.57.57 0 0 1 1.141 0v.82a4.565 4.565 0 0 1 3.421-1.54.571.571 0 1 1 0 1.141z"/><use xlink:href="#F"/><use xlink:href="#G"/><path d="M864.12 1039.416a1.14 1.14 0 1 1 0-2.28 1.14 1.14 0 0 1 0 2.28zm0 6.562a1.14 1.14 0 1 1 0-2.28 1.14 1.14 0 0 1 0 2.28zm15.122-.001h-5.802a.606.606 0 0 1-.58-.561v-13.122a.495.495 0 0 1 .52-.561h5.42a3.616 3.616 0 0 1 3.601 3.561 3.471 3.471 0 0 1-1.42 2.861 4.1 4.1 0 0 1-1.74 7.821zm-.44-13.123H874v4.92h4.8a2.461 2.461 0 1 0 0-4.921zm.44 6.062H874v5.92h5.24a2.961 2.961 0 1 0 0-5.921zm12.88 7.06h-5.802a.606.606 0 0 1-.58-.561v-13.122a.495.495 0 0 1 .521-.561h5.42a3.616 3.616 0 0 1 3.601 3.561 3.471 3.471 0 0 1-1.42 2.861 4.1 4.1 0 0 1-1.74 7.821zm-.44-13.123h-4.8v4.92h4.8a2.461 2.461 0 1 0 0-4.921zm.44 6.062h-5.24v5.92h5.24a2.961 2.961 0 1 0 0-5.921zm16.438 5.22a5.125 5.125 0 0 1-4.461 2.181c-4.3 0-5.82-3.56-5.82-7.46 0-3.92 1.52-7.482 5.82-7.482a5.065 5.065 0 0 1 4.44 2.181.405.405 0 0 1 .12.32.6.6 0 0 1-.62.561.528.528 0 0 1-.439-.221 3.937 3.937 0 0 0-3.501-1.7c-3.32 0-4.682 2.6-4.682 6.342 0 3.72 1.36 6.32 4.682 6.32a3.988 3.988 0 0 0 3.541-1.701.465.465 0 0 1 .439-.26.612.612 0 0 1 .601.58.633.633 0 0 1-.12.34zm11.32 2.18a7.388 7.388 0 0 1-4.78-1.76.523.523 0 0 1-.181-.4.609.609 0 0 1 .58-.58c.24 0 .22.06.64.38a6.335 6.335 0 0 0 3.74 1.221c2.52 0 3.98-.94 3.98-2.74 0-4.74-8.462-2.1-8.462-7.562 0-2.4 2.1-3.5 4.68-3.5a5.74 5.74 0 0 1 4.361 1.881.557.557 0 0 1-.48.9c-.28 0-.28-.08-.62-.42a4.625 4.625 0 0 0-3.261-1.221c-2.38 0-3.54.92-3.54 2.36 0 4.3 8.462 1.8 8.462 7.562 0 2.78-2.44 3.88-5.12 3.88z"/><use xlink:href="#F" x="86.578"/><path d="M938.28 1033.434a1.14 1.14 0 1 1 1.141-1.14 1.127 1.127 0 0 1-1.141 1.14zm0 12.543a.55.55 0 0 1-.58-.561v-9.502a.551.551 0 0 1 .58-.56.545.545 0 0 1 .561.56v9.502a.536.536 0 0 1-.561.561zm12.42-4.74h-8.3c.18 2.28 1.66 3.94 3.84 3.94a3.615 3.615 0 0 0 2.94-1.381.525.525 0 0 1 .479-.28.611.611 0 0 1 .62.541c0 .18 0 .22-.38.66a4.72 4.72 0 0 1-3.66 1.601c-3.22 0-5.02-2.64-5.02-5.66 0-3 1.8-5.64 5.02-5.64s5.02 2.66 5.02 5.64a.606.606 0 0 1-.56.58zm-4.46-5.08c-2.4 0-3.66 1.84-3.84 3.94h7.7c-.18-2.28-1.66-3.94-3.86-3.94zm15.96 9.82a.563.563 0 0 1-.58-.561v-5.84a3.421 3.421 0 1 0-6.841 0v5.84a.57.57 0 0 1-1.141 0v-9.502a.57.57 0 0 1 1.141 0v.64a4.563 4.563 0 0 1 7.981 3.021v5.84a.558.558 0 0 1-.561.561z"/><use xlink:href="#F" x="124.998"/><use xlink:href="#G" x="124.997"/><path d="M1002.44 1032.854h-8.32v4.92h6.1a.551.551 0 0 1 .58.561.561.561 0 0 1-.56.58h-6.12v6.5a.57.57 0 0 1-1.141 0v-13.122a.59.59 0 0 1 .58-.561h8.882a.56.56 0 1 1 0 1.12z"/><use xlink:href="#E" x="192.935"/><use xlink:href="#F" x="174.556"/><path d="M1034.058 1045.977a.562.562 0 0 1-.58-.561v-.64a4.442 4.442 0 0 1-3.421 1.54 4.61 4.61 0 0 1-4.561-4.561v-5.842a.57.57 0 0 1 1.14 0v5.842a3.421 3.421 0 1 0 6.842 0v-5.842a.57.57 0 0 1 1.141 0v9.502a.558.558 0 0 1-.561.561z"/><use xlink:href="#D" x="236.875"/></g><path d="M66.82 80.06a2.574 2.574 0 0 1-1.98-1.08L52.36 61.52h-7.74v15.9A2.501 2.501 0 0 1 41.98 80a2.456 2.456 0 0 1-2.52-2.52V39.86a2.491 2.491 0 0 1 2.52-2.58h15.54c5.28 0 12.06 4.14 12.06 12.06a12.096 12.096 0 0 1-11.04 12.12l10.5 14.46a2.355 2.355 0 0 1 .54 1.56 2.76 2.76 0 0 1-2.76 2.58zm-9.36-37.68H44.62v14.04H57.4a7.02 7.02 0 0 0 .06-14.04zM99.1 80a2.424 2.424 0 0 1-2.52-2.52V60.8a8.55 8.55 0 1 0-17.099 0v16.62a2.55 2.55 0 0 1-2.64 2.64 2.472 2.472 0 0 1-2.52-2.58V39.86a2.58 2.58 0 0 1 5.16-.06v10.38a12.097 12.097 0 0 1 8.52-3.06 13.79 13.79 0 0 1 13.68 13.68v16.62a2.454 2.454 0 0 1-2.58 2.58z"/><use xlink:href="#H"/><use xlink:href="#I"/><use xlink:href="#J"/><path d="M215.617 61.52h-12.84v15.9a2.58 2.58 0 0 1-5.16.06V39.86a2.491 2.491 0 0 1 2.52-2.58h15.54c5.28 0 12.06 4.14 12.06 12.06a12.099 12.099 0 0 1-12.12 12.179zm0-19.14h-12.84v14.04h12.78a7.02 7.02 0 0 0 .06-14.04z"/><use xlink:href="#J" x="79.977"/><path d="M280.355 81.02a13.13 13.13 0 0 1-9.899-3.96v13.02a2.501 2.501 0 0 1-2.64 2.58 2.472 2.472 0 0 1-2.52-2.58V50.72a2.472 2.472 0 0 1 2.52-2.58 2.501 2.501 0 0 1 2.64 2.58 14.4 14.4 0 0 1 9.899-3.66c9.66 0 15.06 7.92 15.06 16.92 0 9.12-5.4 17.04-15.06 17.04zm0-28.86c-5.94 0-9.9 4.74-9.9 11.82 0 7.2 3.9 11.94 9.9 11.94s9.9-4.68 9.9-11.88c0-7.14-3.9-11.88-9.9-11.88zm44.1 27.9a2.446 2.446 0 0 1-2.52-1.98 13.966 13.966 0 0 1-8.64 3 13.79 13.79 0 0 1-13.679-13.68V50.78a2.58 2.58 0 0 1 5.16-.06V67.4a8.55 8.55 0 1 0 17.099 0V50.78a2.393 2.393 0 0 1 2.52-2.64 2.454 2.454 0 0 1 2.58 2.58v26.82a2.39 2.39 0 0 1-2.52 2.52zm14.28.06a6.122 6.122 0 0 1-6-6.12V39.86a2.58 2.58 0 0 1 5.16-.06V74a.947.947 0 0 0 .84 1.02 2.55 2.55 0 1 1 0 5.1zm35.22-.12a5.839 5.839 0 0 1-5.34-3.42 13.747 13.747 0 0 1-10.56 4.44c-9.78 0-15.06-8.04-15.06-16.98s5.4-16.92 15.06-16.92a13.26 13.26 0 0 1 9.9 3.96v-.24a2.475 2.475 0 0 1 2.52-2.7 2.412 2.412 0 0 1 2.64 2.52v23.16a.971.971 0 0 0 .84 1.08 2.55 2.55 0 1 1 0 5.1zm-15.9-27.78c-6 0-9.9 4.68-9.9 11.82 0 7.2 3.9 11.88 9.9 11.88 6.06 0 9.9-4.68 9.9-11.88 0-7.14-3.84-11.82-9.9-11.82zm31.8 27.78h-1.02c-5.7 0-7.86-3-7.86-7.92V53.24h-1.8a2.55 2.55 0 1 1-.06-5.1h1.8V39.8a2.436 2.436 0 0 1 2.58-2.52 2.389 2.389 0 0 1 2.52 2.52v8.34h3.84a2.488 2.488 0 0 1 2.52 2.52 2.441 2.441 0 0 1-2.52 2.58h-3.84v19.38c0 1.68.6 2.28 2.28 2.28h1.5a2.475 2.475 0 0 1 2.58 2.52 2.441 2.441 0 0 1-2.52 2.58z"/><use xlink:href="#H" x="288.114"/><use xlink:href="#J" x="255.172"/><use xlink:href="#I" x="321.592"/><path d="M483.452 81.02c-3.3 0-8.82-1.02-11.64-4.5a2.655 2.655 0 0 1 2.16-4.26 2.464 2.464 0 0 1 1.86 1.02c1.86 2.04 4.92 2.64 7.62 2.64 5.4 0 7.14-1.86 7.14-4.56 0-7.68-18.3-2.94-18.3-15.3 0-6.54 6.12-8.94 11.82-8.94 3.24 0 10.86 1.62 10.86 4.98a2.694 2.694 0 0 1-2.52 2.7 3.612 3.612 0 0 1-1.98-.78c-1.62-1.38-3.96-1.8-6.36-1.8-4.98 0-6.72 1.86-6.72 3.84 0 7.14 18.36 2.52 18.36 15.3 0 7.08-5.94 9.66-12.3 9.66zM542 80a2.457 2.457 0 0 1-2.28-1.56l-3.18-7.8h-19.98l-3.24 7.8A2.44 2.44 0 0 1 511.1 80a2.651 2.651 0 0 1-2.7-2.52 1.967 1.967 0 0 1 .24-1.02l15.42-37.498a2.621 2.621 0 0 1 2.46-1.86 2.724 2.724 0 0 1 2.46 1.86l15.48 37.498a2.802 2.802 0 0 1 .18 1.02A2.561 2.561 0 0 1 542 80zm-15.48-33.6l-7.86 19.08h15.72z"/><use xlink:href="#K"/><path d="M589.458 66.68h-22.2c.84 5.64 4.44 9.24 9.72 9.24a9.007 9.007 0 0 0 7.14-3.12 2.483 2.483 0 0 1 1.859-.96 2.8 2.8 0 0 1 2.7 2.64c0 .72-.18 1.26-1.44 2.52a14.618 14.618 0 0 1-10.259 4.02c-9.66 0-15.06-7.98-15.06-16.98 0-8.94 5.4-16.92 15.06-16.92 9.78 0 15 7.98 15 16.92a2.558 2.558 0 0 1-2.52 2.64zm-12.48-14.46c-5.64 0-8.94 4.14-9.72 9.3h19.438c-.84-5.76-4.44-9.3-9.72-9.3zm47.82 28.8c-13.2 0-17.46-11.1-17.46-22.38 0-11.58 4.56-22.44 17.46-22.44 5.46 0 10.02 1.92 13.32 6.54a2.561 2.561 0 0 1 .54 1.5 2.873 2.873 0 0 1-2.88 2.58c-1.08 0-1.2-.48-2.16-1.56-1.92-2.34-4.5-3.9-8.82-3.9-9.24 0-12.3 7.86-12.3 17.28 0 8.22 2.22 17.28 12.3 17.28 7.32 0 11.7-5.22 12.12-13.86h-5.4a2.502 2.502 0 0 1-2.641-2.58 2.472 2.472 0 0 1 2.521-2.58h8.22a2.52 2.52 0 0 1 2.64 2.64c-.24 11.22-4.74 21.48-17.46 21.48z"/><use xlink:href="#K" x="99.347"/><use xlink:href="#J" x="512.196"/><path d="M737.415 51.56l-9.3 26.34a2.727 2.727 0 0 1-2.64 2.1c-1.26 0-1.98-.54-2.52-2.1l-7.02-19.8-7.08 19.8a2.599 2.599 0 0 1-5.101 0l-9.24-26.34a2.64 2.64 0 0 1-.12-.96 2.585 2.585 0 0 1 2.64-2.46 2.378 2.378 0 0 1 2.34 1.68l6.96 20.04 7.08-19.62c.48-1.38 1.08-2.1 2.52-2.1 1.32 0 2.04.66 2.52 2.1l7.02 19.62 7.02-20.04a2.359 2.359 0 0 1 2.279-1.68 2.667 2.667 0 0 1 2.761 2.52 2.484 2.484 0 0 1-.12.9zm5.82-8.28a4.32 4.32 0 1 1 4.319-4.319 4.302 4.302 0 0 1-4.319 4.319zm0 36.72a2.52 2.52 0 0 1-2.64-2.52V50.72a2.533 2.533 0 0 1 2.64-2.58 2.472 2.472 0 0 1 2.52 2.58v26.76a2.421 2.421 0 0 1-2.52 2.52zm33.658 0a2.423 2.423 0 0 1-2.52-2.52V60.8a8.55 8.55 0 1 0-17.1 0v16.62a2.55 2.55 0 0 1-2.64 2.64 2.472 2.472 0 0 1-2.52-2.58V50.66a2.387 2.387 0 0 1 2.52-2.52 2.509 2.509 0 0 1 2.58 1.98 13.702 13.702 0 0 1 22.259 10.68v16.62a2.454 2.454 0 0 1-2.58 2.58zm21.84 13.68c-3.66 0-12.72-1.32-12.72-4.92a2.794 2.794 0 0 1 2.58-2.7c1.38 0 .18.18 3.36 1.38a18.749 18.749 0 0 0 6.78 1.14c6.66 0 9.9-3.18 9.9-9.48v-2.7a14.038 14.038 0 0 1-9.899 3.6c-9.48 0-15.06-6.72-15.06-15.96 0-9 5.4-16.92 15.06-16.92 4.2 0 7.44 1.26 9.9 3.84v-.24a2.553 2.553 0 0 1 2.58-2.58 2.518 2.518 0 0 1 2.579 2.58V79.1c0 9.54-5.7 14.58-15.06 14.58zm0-41.458c-6 0-9.9 4.68-9.9 11.82 0 6.84 3.6 10.86 9.9 10.86s9.9-4.02 9.9-10.86c0-7.14-3.84-11.82-9.9-11.82z"/><path d="M33.956 385.878v571.93h489.066v-621.93H83.956a50 50 0 0 0-50 50zm961.98-136.717H639.773a35.036 35.036 0 0 0 2.593-6.304c.28-1.86-2.8-8.428-1.07-10.568 1.713-2.148 4.86-12.027 4.012-15.177 1.47 3.293 1.338 12.97-.102 23.7-1.418 10.552 10.33-21.483.102-32.28-7.736-8.16-13.192-10.55-16.175-10.1-12.526 1.89-21.74.71-27.177-1.9-2.6-1.24-8.344-4.408-10.636-4.408s-10.375-.72-13.233-1.58c-2.866-.858-9.785 5.524-10.79 6.817-1.006 1.286-3.728 1.43-3.728 1.43s-1.286-3.864-.858-4.722-5.437 0-5.577 2c-.147 2.004 1.86 4.726 1.573 6.156s-.193 5.72-1.218 7.19c-.93 1.35-2.148 2.594-3.78 2.01-2.93-1.047-6.065-8.405-6.065-8.405s-2.45 7.116 1.47 12.22c-2.57.862-9.15-3.153-12.443-11.452 0 0-1.928 13.34 6.866 18.04 5.426 2.904 3.573 7 3.573 7s2.58 3.153 5.584 2.58 8.44-2.72 10.443-4.44c2.008-1.713 4.586-5.006 5.16-4.72a37.669 37.669 0 0 1 5.577 4.012c.866.998 3.006 1.138 3.58 2.284.567 1.153 1.286 4.3 2.718 5.3a5.814 5.814 0 0 1 2.431 4.004c0 1.146-.457 6.167-1.883 7.168a31.012 31.012 0 0 0-2.734 2.734 2.923 2.923 0 0 0-.683 1.393h-20.327v708.647h488.957V299.162a50 50 0 0 0-50-50zM619.2 243.79c-.866 1.146-2.58 3.23-3.44 3.376-.484.08-.993 1.112-1.344 1.994h-28.144v-2.478s5.78-7.524 5.206-8.53c-.567-1.006.14-4.726 1.86-4.726s11.025 3.58 15.317 2.58 13.596-4.866 13.596-4.866 2.148 3.58 2.148 6.012c0 2.44-4.34 5.486-5.2 6.64zm16.432-2.824c-.597 2.605-4.2 6.386-4.61 6.74a2.517 2.517 0 0 0-.8 1.453h-5.926l-.598-.984 11.105-16.663a17.709 17.709 0 0 1 .828 9.452z" fill="url(#B)"/><path d="M74.786 916.808v-2.28c2.432-8.13 10.03-12.7 10.03-18.92 0-2.888-1.444-4.33-3.305-4.33-2.166 0-3.762 1.67-4 5.775h-2.507c.304-6.23 3.115-8.055 6.42-8.055 3.6 0 6.117 2.432 6.117 7 0 6.84-6.155 8.967-10.26 18.542h10.4v2.28zm20.444.38c-4.483 0-6.6-4.18-6.6-14.096s2.127-14.096 6.6-14.096 6.6 4.18 6.6 14.096-2.128 14.096-6.6 14.096zm0-25.912c-2.507 0-3.875 2.812-3.875 11.816s1.368 11.816 3.875 11.816 3.875-2.812 3.875-11.816-1.368-11.816-3.875-11.816zm9.423 25.532v-2.28h3.343V892.49l-3.42.304v-1.672a10.517 10.517 0 0 0 4.331-2.127h1.824v25.532h3.192v2.28zm11.627 0v-2.28c2.432-8.13 10.03-12.7 10.03-18.92 0-2.888-1.444-4.33-3.306-4.33-2.166 0-3.762 1.67-4 5.775h-2.508c.304-6.23 3.115-8.055 6.42-8.055 3.6 0 6.117 2.432 6.117 7 0 6.84-6.155 8.967-10.26 18.542h10.4v2.28zm481.52 0v-2.28c2.432-8.13 10.03-12.7 10.03-18.92 0-2.888-1.444-4.33-3.306-4.33-2.166 0-3.76 1.67-4 5.775h-2.508c.304-6.23 3.116-8.055 6.42-8.055 3.6 0 6.117 2.432 6.117 7 0 6.84-6.155 8.967-10.258 18.542h10.4v2.28zm20.443.38c-4.483 0-6.6-4.18-6.6-14.096s2.128-14.096 6.6-14.096 6.6 4.18 6.6 14.096-2.128 14.096-6.6 14.096zm0-25.912c-2.508 0-3.875 2.812-3.875 11.816s1.368 11.816 3.875 11.816 3.875-2.812 3.875-11.816-1.367-11.816-3.875-11.816zm9.424 25.532v-2.28h3.344V892.49l-3.42.304v-1.672a10.513 10.513 0 0 0 4.332-2.127h1.824v25.532h3.2v2.28zm18.24.38c-4.256 0-6.764-3.344-6.764-7.295 0-3.382 1.786-5.813 4.408-7.675-2.432-1.938-3.8-3.838-3.8-7.067a6.155 6.155 0 0 1 12.31 0c0 3.23-1.368 5.13-3.8 7.067 2.622 1.86 4.407 4.293 4.407 7.675 0 3.95-2.508 7.295-6.763 7.295zm0-13.526c-2.204 1.634-4.027 3.382-4.027 6.345 0 2.242 1.216 4.9 4.027 4.9s4.027-2.66 4.027-4.9c0-2.963-1.824-4.7-4.027-6.345zm0-12.386a3.34 3.34 0 0 0-3.42 3.571 6.87 6.87 0 0 0 3.42 6.079 6.869 6.869 0 0 0 3.419-6.079 3.34 3.34 0 0 0-3.419-3.571z" fill="#fbc500"/><g fill="#522016"><path d="M688.053 196.576l-7.084 18.368a.78.78 0 0 1-.7.532.855.855 0 0 1-.84-.812 1.181 1.181 0 0 1 .056-.308l6.636-17.276h-8.82a.784.784 0 1 1 0-1.568h9.996c.504 0 .84.28.84.7a.859.859 0 0 1-.084.364zm7.42 19.348a5.992 5.992 0 0 1-5.992-5.964 5.887 5.887 0 0 1 3.08-5.264 5.181 5.181 0 0 1-2.353-4.424 5.264 5.264 0 0 1 10.528 0 5.205 5.205 0 0 1-2.38 4.424 5.875 5.875 0 0 1 3.08 5.236 5.975 5.975 0 0 1-5.964 5.992zm0-10.36a4.382 4.382 0 1 0 4.368 4.396 4.398 4.398 0 0 0-4.368-4.396zm0-8.96a3.682 3.682 0 1 0 3.668 3.668 3.663 3.663 0 0 0-3.668-3.668zm13.552 19.124a6.187 6.187 0 0 1-5.04-2.66.755.755 0 0 1-.141-.448.856.856 0 0 1 .84-.812c.42 0 .448.224.868.672a4.408 4.408 0 0 0 3.472 1.652 5.099 5.099 0 0 0 0-10.164 4.525 4.525 0 0 0-3.696 1.988.803.803 0 0 1-.756.392.772.772 0 0 1-.812-.84v-9.212a.765.765 0 0 1 .784-.784h9.352a.786.786 0 1 1 0 1.568h-8.54v6.552a5.666 5.666 0 0 1 3.668-1.26 6.691 6.691 0 0 1 0 13.356zm33.265-.28a.764.764 0 0 1-.784-.784v-9.408a3.57 3.57 0 0 0-7.14-.028v9.436a.764.764 0 0 1-.784.784.787.787 0 0 1-.812-.784v-9.408a3.556 3.556 0 0 0-7.112-.028v9.436a.798.798 0 0 1-1.596 0v-13.3a.798.798 0 0 1 1.596 0v.168a5.089 5.089 0 0 1 3.556-1.428 5.193 5.193 0 0 1 4.368 2.38 5.169 5.169 0 0 1 9.52 2.744v9.436a.787.787 0 0 1-.812.784z"/><use xlink:href="#L"/><use xlink:href="#M"/><path d="M783.106 208.812h-11.62c.252 3.192 2.324 5.516 5.376 5.516a5.063 5.063 0 0 0 4.116-1.932.735.735 0 0 1 .672-.392.856.856 0 0 1 .868.756c0 .252 0 .308-.532.924a6.611 6.611 0 0 1-5.124 2.24c-4.508 0-7.028-3.696-7.028-7.924 0-4.2 2.52-7.896 7.028-7.896s7.028 3.724 7.028 7.896a.848.848 0 0 1-.784.812zm-6.244-7.112c-3.36 0-5.124 2.576-5.376 5.516h10.78c-.252-3.192-2.324-5.516-5.404-5.516z"/><use xlink:href="#M" x="30.514"/><path d="M813.625 215.448a.787.787 0 0 1-.812-.784v-8.176a4.788 4.788 0 0 0-9.576 0v8.176a.798.798 0 0 1-1.596 0v-18.368a.798.798 0 0 1 1.596 0v5.964a6.219 6.219 0 0 1 4.788-2.156 6.435 6.435 0 0 1 6.384 6.384v8.176a.78.78 0 0 1-.784.784zm4.76-17.556a1.596 1.596 0 1 1 1.596-1.596 1.577 1.577 0 0 1-1.596 1.596zm0 17.556a.77.77 0 0 1-.812-.784v-13.3a.772.772 0 0 1 .813-.784.763.763 0 0 1 .784.784v13.3a.749.749 0 0 1-.784.784zm16.184 0a.787.787 0 0 1-.812-.784v-8.176a4.788 4.788 0 1 0-9.575 0v8.176a.798.798 0 0 1-1.597 0v-13.3a.798.798 0 0 1 1.597 0v.896a6.387 6.387 0 0 1 11.172 4.228v8.176a.78.78 0 0 1-.784.784z"/><use xlink:href="#L" x="92.252"/><path d="M859.377 215.98c-1.68 0-4.508-.588-5.488-2.212a.679.679 0 0 1-.111-.42.764.764 0 0 1 1.428-.448c1.008 1.232 2.8 1.484 4.172 1.484 2.716 0 4.088-.896 4.088-2.716 0-4.228-9.184-1.988-9.184-7.588 0-2.828 2.828-3.92 5.376-3.92a7.585 7.585 0 0 1 4.815 1.624.783.783 0 0 1 .252.532.907.907 0 0 1-.867.84.742.742 0 0 1-.532-.224 5.6 5.6 0 0 0-3.668-1.176c-2.464 0-3.78.952-3.78 2.324 0 3.92 9.184 1.848 9.184 7.588 0 3.192-2.8 4.312-5.684 4.312z"/></g><path d="M104.816 855.342h-4.55v7.35a1.995 1.995 0 0 1-3.99 0v-7.35H77.443c-1.4 0-2.1-.77-2.1-1.75a2.307 2.307 0 0 1 .35-1.26l19.742-37.664a2.042 2.042 0 0 1 1.82-1.12 2.064 2.064 0 0 1 2.03 1.96 2.351 2.351 0 0 1-.28 1.05l-18.2 34.792h15.472v-9.03a1.997 1.997 0 1 1 3.99-.07v9.1h4.55a1.911 1.911 0 0 1 1.96 1.96 1.968 1.968 0 0 1-1.96 2.03zm8.747 15.542a1.822 1.822 0 0 1-1.05.28 1.958 1.958 0 0 1-1.89-2.03c0-1.96 3-2.24 3.5-4.48a4.029 4.029 0 0 1 .28-8.051c3.43 0 4.2 3.5 4.2 5.67a9.992 9.992 0 0 1-5.041 8.611zm25.2-5.04a14.984 14.984 0 0 1-14.982-14.912 14.718 14.718 0 0 1 7.701-13.162 12.954 12.954 0 0 1-5.88-11.061 13.162 13.162 0 0 1 26.323 0 13.013 13.013 0 0 1-5.95 11.061 14.688 14.688 0 0 1 7.7 13.092 14.938 14.938 0 0 1-14.911 14.981zm0-25.903a10.956 10.956 0 1 0 10.921 10.991 10.995 10.995 0 0 0-10.921-10.991zm0-22.402a9.206 9.206 0 1 0 9.171 9.171 9.157 9.157 0 0 0-9.171-9.171zm45.57 37.804h-4.55v7.35a1.995 1.995 0 0 1-3.99 0v-7.35h-18.832c-1.4 0-2.1-.77-2.1-1.75a2.303 2.303 0 0 1 .351-1.26l19.74-37.664a2.035 2.035 0 0 1 3.851.84 2.35 2.35 0 0 1-.279 1.05l-18.202 34.793h15.472v-9.03a1.997 1.997 0 1 1 3.99-.07v9.1h4.55a1.911 1.911 0 0 1 1.96 1.96 1.968 1.968 0 0 1-1.96 2.03zm18.338 10.01c-4.7 0-10.012-2.52-12.602-6.65a1.893 1.893 0 0 1-.351-1.12 2.141 2.141 0 0 1 2.101-2.03c1.05 0 1.12.56 2.17 1.68a11.018 11.018 0 0 0 8.682 4.13c6.16 0 11.7-5.32 11.7-12.67 0-7.42-5.53-12.74-11.7-12.74a11.313 11.313 0 0 0-9.241 4.97 2.008 2.008 0 0 1-1.891.98 1.931 1.931 0 0 1-2.03-2.101V816.77a1.913 1.913 0 0 1 1.961-1.96h23.382a1.965 1.965 0 1 1 0 3.92H193.5v16.37a14.173 14.173 0 0 1 9.172-3.15c8.6 0 15.682 7.28 15.682 16.732 0 9.3-7.07 16.662-15.682 16.662zm33.643-12.747a4.271 4.271 0 0 0-4.273 4.274v7.073a.713.713 0 0 1-1.425 0V852.08a.713.713 0 0 1 1.425 0v1.025a5.705 5.705 0 0 1 4.273-1.925.713.713 0 1 1 0 1.425zm13.2 12.047a.702.702 0 0 1-.725-.7v-7.298a4.274 4.274 0 0 0-8.548 0v7.298a.712.712 0 0 1-1.424 0v-16.396a.712.712 0 0 1 1.424 0v5.324a5.553 5.553 0 0 1 4.274-1.924 5.744 5.744 0 0 1 5.698 5.698v7.298a.697.697 0 0 1-.699.7zm4.702-15.67a1.425 1.425 0 1 1 1.424-1.425 1.409 1.409 0 0 1-1.424 1.425zm0 15.67a.687.687 0 0 1-.725-.7V852.08a.689.689 0 0 1 .725-.7.68.68 0 0 1 .699.7v11.872a.668.668 0 0 1-.699.7zm14.897.001a.702.702 0 0 1-.725-.7v-7.298a4.274 4.274 0 0 0-8.548 0v7.298a.713.713 0 0 1-1.425 0V852.08a.713.713 0 0 1 1.425 0v.8a5.701 5.701 0 0 1 9.972 3.774v7.298a.697.697 0 0 1-.7.7zm9.675.425c-4.024 0-6.273-3.3-6.273-7.074 0-3.75 2.25-7.048 6.273-7.048s6.273 3.3 6.273 7.048c0 3.774-2.25 7.074-6.273 7.074zm0-12.697c-2.95 0-4.85 2.374-4.85 5.623s1.9 5.65 4.85 5.65c2.975 0 4.85-2.4 4.85-5.65s-1.874-5.623-4.85-5.623zm13.376 12.747c-1.5 0-4.024-.525-4.898-1.975a.602.602 0 0 1-.1-.375.682.682 0 0 1 1.275-.4 4.76 4.76 0 0 0 3.724 1.325c2.425 0 3.65-.8 3.65-2.425 0-3.774-8.198-1.774-8.198-6.773 0-2.524 2.524-3.5 4.8-3.5a6.772 6.772 0 0 1 4.299 1.45.698.698 0 0 1 .226.475.81.81 0 0 1-.775.75.661.661 0 0 1-.475-.2 4.996 4.996 0 0 0-3.274-1.05c-2.2 0-3.374.85-3.374 2.074 0 3.5 8.198 1.65 8.198 6.773 0 2.85-2.5 3.85-5.074 3.85zm322.574.225c-4.7 0-10-2.52-12.6-6.65a1.893 1.893 0 0 1-.351-1.12 2.141 2.141 0 0 1 2.101-2.03c1.05 0 1.12.56 2.17 1.68a11.018 11.018 0 0 0 8.681 4.13c6.16 0 11.7-5.32 11.7-12.67 0-7.42-5.53-12.74-11.7-12.74a11.313 11.313 0 0 0-9.241 4.97 2.007 2.007 0 0 1-1.891.98 1.931 1.931 0 0 1-2.03-2.101V816.77a1.913 1.913 0 0 1 1.96-1.96h23.382a1.965 1.965 0 1 1 0 3.92H605.57v16.37a14.171 14.171 0 0 1 9.171-3.15c8.6 0 15.682 7.28 15.682 16.732 0 9.3-7.07 16.662-15.682 16.662zm23.237 5.53a1.824 1.824 0 0 1-1.05.28 1.959 1.959 0 0 1-1.891-2.03c0-1.96 3-2.24 3.5-4.48a4.029 4.029 0 0 1 .28-8.051c3.43 0 4.2 3.5 4.2 5.67a9.991 9.991 0 0 1-5.041 8.611zm26.53-5.04c-14.63 0-15.96-14.98-15.96-26.113 0-13.1 2.8-26.183 15.96-26.183a14.589 14.589 0 0 1 12.951 7 1.567 1.567 0 0 1 .421 1.19 2.127 2.127 0 0 1-2.101 1.89 1.872 1.872 0 0 1-1.61-.91 11.002 11.002 0 0 0-9.661-5.181c-8.82 0-11.97 8.4-11.97 22.123v1.2a15.397 15.397 0 0 1 11.971-5.951c8.4 0 15.052 7.28 15.052 15.472s-6.65 15.472-15.052 15.472zm0-26.953a11.669 11.669 0 0 0-11.201 11.901c1.26 5.88 4.06 11.062 11.2 11.062 6.02 0 11-5.25 11-11.48s-4.97-11.48-11-11.48zm30.87 26.953a15.005 15.005 0 0 1-12.741-7.071 2.61 2.61 0 0 1-.279-1.12 2.194 2.194 0 0 1 2.029-2.1 1.877 1.877 0 0 1 1.61 1.05 10.996 10.996 0 0 0 20.372-5.67 10.95 10.95 0 0 0-10.921-10.991h-.07a2.031 2.031 0 0 1-2.03-2.03 1.971 1.971 0 0 1 2.03-1.96h.07a9.206 9.206 0 0 0 0-18.412c-7.63 0-8.6 7.28-11.4 7.28a2.08 2.08 0 0 1-2.101-1.96c0-1.54 5.32-9.3 13.512-9.3a13.236 13.236 0 0 1 13.161 13.161 12.912 12.912 0 0 1-6.02 11.061 14.617 14.617 0 0 1 7.771 13.092 14.999 14.999 0 0 1-14.982 14.982zm34.3 0c-14.842 0-14.98-17.782-14.98-28.003 0-10 1.54-24.292 14.912-24.292 13.1 0 15.05 13.44 15.05 24.292 0 10.15-.2 28.003-14.98 28.003zm11-28.003c0-10-1.4-20.302-11-20.302-10.5 0-11 12.88-11 20.302v4.48c0 8.12 1.54 19.532 10.922 19.532 9.6 0 11.06-11.4 11.06-19.532z" fill="#fbc500"/><path d="M53.074 103.077h-7.37v23.86A1.047 1.047 0 0 1 44.601 128a1.035 1.035 0 0 1-1.064-1.063v-23.86h-7.37a1.065 1.065 0 1 1 0-2.128h16.907a1.064 1.064 0 0 1 0 2.128zM72.68 128a1.068 1.068 0 0 1-1.102-1.063v-11.095a6.497 6.497 0 1 0-12.994 0v11.095a1.083 1.083 0 0 1-2.166 0v-24.925a1.083 1.083 0 0 1 2.166 0v8.093a8.44 8.44 0 0 1 6.497-2.926 8.734 8.734 0 0 1 8.663 8.663v11.095A1.059 1.059 0 0 1 72.681 128zm25.195 0h-.038a3.933 3.933 0 0 1-3.762-2.964 8.619 8.619 0 0 1-7.371 3.609c-6.193 0-9.536-5.1-9.536-10.752 0-5.737 3.42-10.715 9.536-10.715a8.686 8.686 0 0 1 7.371 3.572v-1.862a1.071 1.071 0 0 1 1.102-1.063 1.037 1.037 0 0 1 1.064 1.063V124.2c0 2.432 2.735.912 2.735 2.736A1.045 1.045 0 0 1 97.875 128zm-11.17-18.655c-4.483 0-7.37 3.6-7.37 8.55s2.888 8.587 7.37 8.587c4.52 0 7.37-3.647 7.37-8.587s-2.85-8.55-7.37-8.55z"/><use xlink:href="#N"/><path d="M137.508 109.687l-6.534 6.535 6.46 10.106a1.083 1.083 0 0 1 .228.608 1.155 1.155 0 0 1-1.14 1.025 1.077 1.077 0 0 1-.912-.494l-6.23-9.688-3.913 3.95v5.206a1.083 1.083 0 0 1-2.166 0V102a1.083 1.083 0 0 1 2.166 0v16.642l10.486-10.486a1.068 1.068 0 0 1 .798-.342 1.096 1.096 0 0 1 1.102 1.063 1.064 1.064 0 0 1-.343.798zm9.615 19.035c-2.28 0-6.117-.798-7.447-3a.922.922 0 0 1-.151-.57 1.036 1.036 0 0 1 1.938-.607c1.367 1.67 3.8 2.014 5.66 2.014 3.686 0 5.547-1.216 5.547-3.686 0-5.737-12.462-2.698-12.462-10.297 0-3.837 3.837-5.32 7.295-5.32 1.976 0 5.015.685 6.535 2.204a1.064 1.064 0 0 1 .342.722 1.232 1.232 0 0 1-1.178 1.14 1.006 1.006 0 0 1-.722-.304 7.597 7.597 0 0 0-4.978-1.596c-3.344 0-5.13 1.292-5.13 3.153 0 5.32 12.462 2.508 12.462 10.297 0 4.33-3.8 5.85-7.713 5.85z"/><use xlink:href="#O"/><use xlink:href="#P"/><use xlink:href="#Q"/><use xlink:href="#R"/><path d="M264.044 109.23l-6.193 17.857c-.266.722-.607.912-1.102.912-.646 0-.836-.228-1.064-.912l-4.977-14.817-4.978 14.817c-.266.722-.608.912-1.102.912a1.111 1.111 0 0 1-1.064-.912L237.4 109.23a1.605 1.605 0 0 1-.076-.418 1.079 1.079 0 0 1 1.102-.987.986.986 0 0 1 .988.722l5.205 15.046 4.977-14.855c.23-.723.456-.912 1.103-.912.456 0 .836.15 1.063.912l5.054 14.855 5.13-15.046a.985.985 0 0 1 .987-.722 1.028 1.028 0 0 1 1.103 1.405zm28.653 9.765H276.93c.342 4.332 3.153 7.485 7.295 7.485a6.866 6.866 0 0 0 5.585-2.622.997.997 0 0 1 .912-.531 1.161 1.161 0 0 1 1.178 1.025c0 .342 0 .418-.722 1.254a8.969 8.969 0 0 1-6.953 3.039c-6.117 0-9.536-5.015-9.536-10.752 0-5.7 3.42-10.715 9.536-10.715s9.537 5.054 9.537 10.715a1.15 1.15 0 0 1-1.064 1.102zm-8.473-9.65c-4.56 0-6.953 3.495-7.295 7.485h14.628c-.342-4.332-3.153-7.485-7.333-7.485z"/><use xlink:href="#N" x="195.848"/><path d="M326.1 103.077h-1.178a1.679 1.679 0 0 0-1.672 1.633v3.116h2.85a1.035 1.035 0 0 1 1.064 1.063 1.068 1.068 0 0 1-1.064 1.102h-2.85v16.946a1.037 1.037 0 0 1-1.063 1.063 1.014 1.014 0 0 1-1.063-1.063V109.99H318.5a1.083 1.083 0 0 1 0-2.165h2.622v-3.116a3.769 3.769 0 0 1 3.761-3.761h1.216a1.078 1.078 0 0 1 1.103 1.102 1.019 1.019 0 0 1-1.103 1.026z"/><use xlink:href="#P" x="152.756"/><use xlink:href="#S"/><use xlink:href="#T"/><path d="M400.54 118.995h-15.77c.342 4.332 3.153 7.485 7.295 7.485a6.866 6.866 0 0 0 5.585-2.622.997.997 0 0 1 .912-.531 1.161 1.161 0 0 1 1.178 1.025c0 .342 0 .418-.722 1.254a8.969 8.969 0 0 1-6.953 3.039c-6.117 0-9.536-5.015-9.536-10.752 0-5.7 3.42-10.715 9.536-10.715s9.537 5.054 9.537 10.715a1.15 1.15 0 0 1-1.065 1.102zm-8.473-9.65c-4.56 0-6.953 3.495-7.295 7.485H399.4c-.342-4.332-3.153-7.485-7.333-7.485zM430.1 128a1.037 1.037 0 0 1-1.063-1.063V114.17a4.844 4.844 0 0 0-9.688-.038v12.805a1.037 1.037 0 0 1-1.063 1.063 1.068 1.068 0 0 1-1.103-1.063V114.17a4.825 4.825 0 0 0-9.65-.038v12.805a1.083 1.083 0 0 1-2.166 0V108.9a1.083 1.083 0 0 1 2.166 0v.23a6.906 6.906 0 0 1 4.825-1.938 7.048 7.048 0 0 1 5.928 3.229 7.013 7.013 0 0 1 12.918 3.724v12.805a1.068 1.068 0 0 1-1.103 1.064zm22.536-9.005H436.87c.342 4.332 3.153 7.485 7.295 7.485a6.866 6.866 0 0 0 5.585-2.622.997.997 0 0 1 .912-.531 1.161 1.161 0 0 1 1.178 1.025c0 .342 0 .418-.722 1.254a8.969 8.969 0 0 1-6.953 3.039c-6.117 0-9.536-5.015-9.536-10.752 0-5.7 3.42-10.715 9.536-10.715s9.537 5.054 9.537 10.715a1.15 1.15 0 0 1-1.064 1.102zm-8.473-9.65c-4.56 0-6.953 3.495-7.295 7.485h14.628c-.342-4.332-3.153-7.485-7.333-7.485zM473.726 128a1.068 1.068 0 0 1-1.102-1.063v-11.095a6.497 6.497 0 1 0-12.994 0v11.095a1.083 1.083 0 0 1-2.166 0V108.9a1.083 1.083 0 0 1 2.166 0v1.216a8.667 8.667 0 0 1 15.16 5.737v11.095a1.059 1.059 0 0 1-1.064 1.064z"/><use xlink:href="#O" x="312.47"/><path d="M518.413 119.413l-3.8 3.838 3.534 3.533a1.067 1.067 0 0 1 .342.798 1.095 1.095 0 0 1-1.064 1.102 1.068 1.068 0 0 1-.798-.342l-3.533-3.57-1.292 1.292a8.323 8.323 0 0 1-5.965 2.583 8.122 8.122 0 0 1-4.065-15.159l-.722-.722a7.159 7.159 0 0 1 4.749-12.501c4.445 0 7.333 4.218 7.333 5.054a1.129 1.129 0 0 1-1.14 1.063c-1.102 0-2.508-3.95-6.193-3.95a4.995 4.995 0 0 0-4.978 4.978 4.804 4.804 0 0 0 1.71 3.762l10.563 10.562 3.8-3.837a1.231 1.231 0 0 1 .798-.342 1.15 1.15 0 0 1 1.063 1.102.992.992 0 0 1-.342.76zm-15.046-4.33a5.967 5.967 0 0 0 2.432 11.398 5.763 5.763 0 0 0 4.18-1.672l1.596-1.634z"/><use xlink:href="#U"/><use xlink:href="#P" x="376.61"/><use xlink:href="#U" x="44.802"/><path d="M614.665 128a1.067 1.067 0 0 1-1.102-1.063v-1.216a8.44 8.44 0 0 1-6.497 2.925 8.758 8.758 0 0 1-8.663-8.662V108.89a1.083 1.083 0 0 1 2.166 0v11.095a6.497 6.497 0 0 0 12.994 0V108.89a1.083 1.083 0 0 1 2.166 0v18.048a1.059 1.059 0 0 1-1.064 1.064z"/><use xlink:href="#Q" x="412.522"/><use xlink:href="#R" x="412.521"/><use xlink:href="#O" x="484.948"/><use xlink:href="#V"/><use xlink:href="#P" x="491.749"/><use xlink:href="#N" x="589.369"/><use xlink:href="#S" x="369.164"/><path d="M749.25 118.995h-15.768c.342 4.332 3.153 7.485 7.295 7.485a6.866 6.866 0 0 0 5.585-2.622.997.997 0 0 1 .912-.531 1.161 1.161 0 0 1 1.178 1.025c0 .342 0 .418-.722 1.254a8.969 8.969 0 0 1-6.953 3.039c-6.117 0-9.536-5.015-9.536-10.752 0-5.7 3.42-10.715 9.536-10.715s9.537 5.054 9.537 10.715a1.15 1.15 0 0 1-1.064 1.102zm-8.473-9.65c-4.56 0-6.953 3.495-7.295 7.485h14.628c-.342-4.332-3.153-7.485-7.333-7.485z"/><use xlink:href="#Q" x="546.232"/><use xlink:href="#P" x="584.306"/><use xlink:href="#T" x="419.771"/><use xlink:href="#R" x="587.766"/><use xlink:href="#O" x="660.192"/><use xlink:href="#V" x="175.244"/><use xlink:href="#P" x="666.993"/><use xlink:href="#N" x="764.614"/></svg>