<svg xmlns="http://www.w3.org/2000/svg" xmlns:xlink="http://www.w3.org/1999/xlink" viewBox="0 0 1080 1080" xmlns:v="https://vecta.io/nano"><defs><linearGradient id="A" x1="540" x2="540" y2="1080" gradientUnits="userSpaceOnUse"><stop offset="0" stop-color="#0096c4"/><stop offset=".205" stop-color="#06a4a9"/><stop offset=".554" stop-color="#0fba81"/><stop offset=".831" stop-color="#14c768"/><stop offset="1" stop-color="#16cc5f"/></linearGradient><linearGradient id="B" x1="281.973" y1="288.98" x2="790.075" y2="797.082" gradientUnits="userSpaceOnUse"><stop offset="0" stop-color="#00c3ff"/><stop offset=".159" stop-color="#35cfd0"/><stop offset=".39" stop-color="#7ce091"/><stop offset=".598" stop-color="#b4ed5e"/><stop offset=".775" stop-color="#ddf73a"/><stop offset=".915" stop-color="#f6fd24"/><stop offset="1" stop-color="#ffff1c"/></linearGradient><linearGradient id="C" x1="359.915" y1="477.15" x2="712.132" y2="829.367" xlink:href="#A"/><linearGradient id="D" x1="75.868" y1="596.776" x2="249.053" y2="769.962" gradientUnits="userSpaceOnUse"><stop offset="0" stop-color="#abeb67"/><stop offset=".088" stop-color="#b5ed5e"/><stop offset=".489" stop-color="#ddf73a"/><stop offset=".807" stop-color="#f6fd24"/><stop offset="1" stop-color="#ffff1c"/></linearGradient><linearGradient id="E" x1="130.029" y1="727.533" x2="194.892" y2="792.396" xlink:href="#A"/><linearGradient id="F" x1="788.431" y1="683.369" x2="1043.742" y2="683.369" xlink:href="#D"/><path id="G" d="M104.714 1045.51a1.36 1.36 0 0 1-1.4-1.101 7.763 7.763 0 0 1-4.804 1.668 7.666 7.666 0 0 1-7.604-7.605v-9.24a1.434 1.434 0 0 1 2.868-.033v9.272a4.753 4.753 0 1 0 9.507 0v-9.24a1.33 1.33 0 0 1 1.4-1.468 1.364 1.364 0 0 1 1.435 1.435v14.9a1.328 1.328 0 0 1-1.401 1.4z"/><path id="H" d="M887.655 1036.336a3.418 3.418 0 0 0-3.42 3.42v5.662a.57.57 0 0 1-1.141 0v-9.502a.57.57 0 0 1 1.141 0v.82a4.564 4.564 0 0 1 3.42-1.541.57.57 0 1 1 0 1.141z"/><path id="I" d="M996.934 1045.98h-.02a2.073 2.073 0 0 1-1.98-1.561 4.54 4.54 0 0 1-3.881 1.9c-3.26 0-5.02-2.682-5.02-5.662 0-3.02 1.8-5.64 5.02-5.64a4.574 4.574 0 0 1 3.881 1.881v-.98a.564.564 0 0 1 .58-.561.548.548 0 0 1 .561.561v8.063c0 1.28 1.44.48 1.44 1.44a.55.55 0 0 1-.58.561zm-5.88-9.822c-2.36 0-3.88 1.9-3.88 4.5s1.52 4.52 3.88 4.52c2.38 0 3.88-1.92 3.88-4.52s-1.5-4.5-3.88-4.5z"/><path id="J" d="M249.19 79.998a5.839 5.839 0 0 1-5.34-3.42 13.744 13.744 0 0 1-10.56 4.439c-9.78 0-15.06-8.04-15.06-16.98s5.4-16.92 15.06-16.92a13.261 13.261 0 0 1 9.9 3.96v-.24a2.476 2.476 0 0 1 2.52-2.701 2.412 2.412 0 0 1 2.64 2.521v23.16a.972.972 0 0 0 .84 1.08 2.55 2.55 0 1 1 0 5.1zm-15.9-27.78c-6 0-9.9 4.68-9.9 11.82 0 7.2 3.9 11.88 9.9 11.88 6.06 0 9.9-4.68 9.9-11.88 0-7.14-3.84-11.82-9.9-11.82z"/><path id="K" d="M260.59 80.12a6.122 6.122 0 0 1-6-6.12V39.86a2.58 2.58 0 0 1 5.16-.06v34.198a.946.946 0 0 0 .84 1.02 2.55 2.55 0 1 1 0 5.101z"/><path id="L" d="M354.063 81.018c-9.66 0-15.06-7.92-15.06-16.98 0-9 5.4-16.92 15.06-16.92s15.06 7.92 15.06 16.92c0 9.06-5.4 16.98-15.06 16.98zm0-28.8c-6 0-9.9 4.68-9.9 11.82 0 7.2 3.9 11.88 9.9 11.88 6.06 0 9.9-4.68 9.9-11.88 0-7.14-3.84-11.82-9.9-11.82z"/><path id="M" d="M742.007 79.998a2.424 2.424 0 0 1-2.521-2.52V60.8a8.549 8.549 0 1 0-17.099 0v16.62a2.551 2.551 0 0 1-2.641 2.641 2.472 2.472 0 0 1-2.52-2.58V50.66a2.387 2.387 0 0 1 2.52-2.521 2.509 2.509 0 0 1 2.58 1.98 13.703 13.703 0 0 1 22.26 10.68v16.62a2.454 2.454 0 0 1-2.58 2.58z"/><path id="N" d="M248.355 141.2a5.839 5.839 0 0 1-5.34-3.42 13.748 13.748 0 0 1-10.56 4.44c-9.78 0-15.06-8.04-15.06-16.98s5.4-16.92 15.06-16.92a13.261 13.261 0 0 1 9.9 3.96v-.24a2.474 2.474 0 0 1 2.52-2.699 2.412 2.412 0 0 1 2.64 2.52v23.16a.971.971 0 0 0 .84 1.08 2.55 2.55 0 1 1 0 5.1zm-15.9-27.778c-6 0-9.9 4.68-9.9 11.818 0 7.2 3.9 11.88 9.9 11.88 6.06 0 9.9-4.68 9.9-11.88 0-7.14-3.84-11.818-9.9-11.818z"/><path id="O" d="M502.57 127.88h-22.2c.84 5.64 4.44 9.24 9.72 9.24a9.004 9.004 0 0 0 7.14-3.12 2.483 2.483 0 0 1 1.859-.959 2.8 2.8 0 0 1 2.7 2.64c0 .72-.18 1.26-1.44 2.52a14.624 14.624 0 0 1-10.26 4.021c-9.66 0-15.06-7.98-15.06-16.98 0-8.94 5.4-16.92 15.06-16.92 9.78 0 15 7.98 15 16.92a2.558 2.558 0 0 1-2.52 2.641zm-12.48-14.46c-5.64 0-8.94 4.14-9.72 9.3h19.44c-.84-5.76-4.44-9.3-9.72-9.3z"/><path id="P" d="M749.814 127.88h-22.2c.84 5.64 4.44 9.24 9.72 9.24a9.003 9.003 0 0 0 7.14-3.12 2.485 2.485 0 0 1 1.86-.959 2.8 2.8 0 0 1 2.7 2.64c0 .72-.18 1.26-1.44 2.52a14.624 14.624 0 0 1-10.26 4.021c-9.66 0-15.06-7.98-15.06-16.98 0-8.94 5.4-16.92 15.06-16.92 9.78 0 15 7.98 15 16.92a2.559 2.559 0 0 1-2.521 2.641zm-12.48-14.46c-5.64 0-8.94 4.14-9.72 9.3h19.44c-.84-5.76-4.44-9.3-9.72-9.3z"/><path id="Q" d="M515.626 672.226q-.224 4.853-2.51 7.084a6.74 6.74 0 0 1-4.407 2.176c-.298 0-.428-.187-.39-.558v-1.506c-.037-.335.112-.503.446-.503a4.649 4.649 0 0 0 2.622-1.617 5.433 5.433 0 0 0 1.228-3.459c-.075-.187-.167-.26-.28-.223l-1.06.167q-2.455-.056-2.733-3.013.278-3.3 3.29-3.402a3.519 3.519 0 0 1 3.18 1.841 5.896 5.896 0 0 1 .614 3.013h0z"/><path id="R" d="M537.722 635.575a11.87 11.87 0 0 1 3.18 8.313v18.855a12.07 12.07 0 0 1-3.18 8.367 11.091 11.091 0 0 1-8.089 3.291 11.213 11.213 0 0 1-8.089-3.291 11.857 11.857 0 0 1-3.124-8.367v-18.855a11.662 11.662 0 0 1 3.124-8.312 10.925 10.925 0 0 1 8.089-3.291 10.811 10.811 0 0 1 8.089 3.291zm-15.118 8.313v18.855a8.42 8.42 0 0 0 1.897 5.578 7.14 7.14 0 0 0 10.264 0 8.27 8.27 0 0 0 1.953-5.578v-18.855a8.053 8.053 0 0 0-1.953-5.522 7.14 7.14 0 0 0-10.264 0 8.198 8.198 0 0 0-1.897 5.522h0z"/><path id="S" d="M513.14 284.472v-1.68c1.792-5.992 7.393-9.353 7.393-13.944 0-2.128-1.064-3.19-2.437-3.19-1.596 0-2.77 1.23-2.94 4.256h-1.85c.225-4.593 2.296-5.937 4.732-5.937 2.66 0 4.508 1.792 4.508 5.152 0 5.04-4.536 6.607-7.56 13.664h7.672v1.68z"/><path id="T" d="M530.445 284.752c-3.304 0-4.872-3.08-4.872-10.39s1.568-10.388 4.872-10.388 4.872 3.08 4.872 10.388-1.568 10.39-4.872 10.39zm0-19.096c-1.848 0-2.855 2.07-2.855 8.707s1.008 8.708 2.855 8.708 2.856-2.07 2.856-8.708-1.008-8.707-2.856-8.707z"/><path id="U" d="M108.09 864.164c-5.313 0-8.284-4.356-8.284-9.34 0-4.95 2.97-9.308 8.284-9.308s8.284 4.357 8.284 9.308c0 4.984-2.97 9.34-8.284 9.34zm0-16.767c-3.895 0-6.403 3.136-6.403 7.426s2.51 7.46 6.403 7.46c3.928 0 6.403-3.168 6.403-7.46s-2.476-7.426-6.403-7.426z"/><path id="V" d="M222.724 863.603h-.032a3.416 3.416 0 0 1-3.268-2.574 7.49 7.49 0 0 1-6.403 3.136c-5.38 0-8.284-4.423-8.284-9.34 0-4.983 2.97-9.308 8.284-9.308a7.546 7.546 0 0 1 6.403 3.104V847a.93.93 0 0 1 .957-.924.901.901 0 0 1 .924.924v13.302c0 2.11 2.376.792 2.376 2.376a.908.908 0 0 1-.957.924zm-9.703-16.205c-3.895 0-6.403 3.136-6.403 7.426s2.51 7.46 6.403 7.46c3.928 0 6.403-3.168 6.403-7.46s-2.476-7.426-6.403-7.426z"/><path id="W" d="M77.002 898.164c-5.314 0-8.285-4.356-8.285-9.34 0-4.95 2.97-9.308 8.285-9.308s8.283 4.357 8.283 9.308c0 4.984-2.97 9.34-8.283 9.34zm0-16.767c-3.895 0-6.403 3.136-6.403 7.426s2.51 7.46 6.403 7.46c3.927 0 6.402-3.168 6.402-7.46s-2.476-7.426-6.402-7.426z"/><path id="X" d="M155.043 897.603a.928.928 0 0 1-.957-.924v-1.056a7.33 7.33 0 0 1-5.644 2.541 7.608 7.608 0 0 1-7.525-7.525V881a.941.941 0 0 1 1.882 0v9.638a5.644 5.644 0 1 0 11.287 0V881a.941.941 0 0 1 1.882 0v15.678a.92.92 0 0 1-.925.924z"/><path id="Y" d="M226.816 876.9a1.881 1.881 0 1 1 1.882-1.882 1.861 1.861 0 0 1-1.882 1.882zm0 20.693a.907.907 0 0 1-.957-.924V881a.909.909 0 0 1 .957-.924.9.9 0 0 1 .925.924v15.678a.883.883 0 0 1-.925.924z"/><path id="Z" d="M245.263 897.8a3.459 3.459 0 0 1-3.268-3.498v-19.275a.941.941 0 0 1 1.882 0v19.275c0 2.11 2.343.89 2.343 2.376a1.064 1.064 0 0 1-.957 1.122z"/><path id="a" d="M792.637 864.164c-5.313 0-8.284-4.356-8.284-9.34 0-4.95 2.97-9.308 8.284-9.308s8.284 4.357 8.284 9.308c0 4.984-2.97 9.34-8.284 9.34zm0-16.767c-3.895 0-6.402 3.136-6.402 7.426s2.508 7.46 6.402 7.46c3.928 0 6.403-3.168 6.403-7.46s-2.476-7.426-6.403-7.426z"/><path id="b" d="M876.192 863.8a3.458 3.458 0 0 1-3.268-3.498v-19.275a.941.941 0 0 1 1.881 0v19.275c0 2.11 2.344.89 2.344 2.376a1.064 1.064 0 0 1-.957 1.122z"/><path id="c" d="M965.158 847.695a5.641 5.641 0 0 0-5.644 5.644v9.34a.941.941 0 0 1-1.881 0V847a.941.941 0 0 1 1.881 0v1.354a7.536 7.536 0 0 1 5.644-2.541.941.941 0 1 1 0 1.881z"/><path id="d" d="M934.894 897.8a3.459 3.459 0 0 1-3.268-3.498v-19.275a.941.941 0 0 1 1.881 0v19.275c0 2.11 2.344.89 2.344 2.376a1.064 1.064 0 0 1-.957 1.122z"/><path id="e" d="M1005.973 876.9a1.881 1.881 0 1 1 1.881-1.882 1.859 1.859 0 0 1-1.881 1.882zm0 20.693a.907.907 0 0 1-.957-.924V881a.909.909 0 0 1 .957-.924.898.898 0 0 1 .924.924v15.678a.883.883 0 0 1-.924.924z"/></defs><rect width="1080" height="1080" rx="40" fill="url(#A)"/><g opacity=".5" fill="#fff"><path d="M42.328 1046.045a7.892 7.892 0 0 1-5.503-2.002 1.364 1.364 0 0 1-1.468 1.401 1.346 1.346 0 0 1-1.401-1.401v-20.88a1.435 1.435 0 0 1 2.869-.033v6.238a7.4 7.4 0 0 1 5.503-2.169c5.37 0 8.373 4.403 8.373 9.406 0 5.037-3.002 9.44-8.373 9.44zm0-16c-3.335 0-5.503 2.602-5.503 6.57 0 4.003 2.168 6.604 5.503 6.604s5.504-2.602 5.504-6.604c0-3.97-2.168-6.57-5.504-6.57zm25.555 8.037h-12.34c.467 3.136 2.468 5.137 5.403 5.137a5.003 5.003 0 0 0 3.969-1.734 1.383 1.383 0 0 1 1.034-.533 1.556 1.556 0 0 1 1.501 1.468c0 .4-.1.7-.8 1.4a8.129 8.129 0 0 1-5.704 2.235c-5.37 0-8.372-4.437-8.372-9.44 0-4.97 3.002-9.406 8.372-9.406 5.437 0 8.34 4.437 8.34 9.406a1.422 1.422 0 0 1-1.401 1.468zm-6.937-8.038c-3.136 0-4.97 2.3-5.403 5.17H66.35c-.467-3.202-2.468-5.17-5.403-5.17zM88 1045.478a3.247 3.247 0 0 1-2.969-1.901 7.642 7.642 0 0 1-5.87 2.469c-5.437 0-8.372-4.47-8.372-9.44s3.002-9.406 8.372-9.406a7.369 7.369 0 0 1 5.504 2.202v-.134a1.376 1.376 0 0 1 1.4-1.501 1.341 1.341 0 0 1 1.468 1.401v12.875a.54.54 0 0 0 .467.601 1.418 1.418 0 1 1 0 2.835zm-8.84-15.443c-3.336 0-5.504 2.602-5.504 6.57 0 4.003 2.168 6.604 5.504 6.604 3.37 0 5.504-2.602 5.504-6.604 0-3.97-2.135-6.57-5.504-6.57z"/><use xlink:href="#G"/><path d="M115.158 1045.478h-.567c-3.17 0-4.37-1.668-4.37-4.403V1030.6h-1a1.418 1.418 0 1 1-.033-2.835h1v-4.637a1.355 1.355 0 0 1 1.435-1.4 1.328 1.328 0 0 1 1.401 1.4v4.637h2.135a1.383 1.383 0 0 1 1.4 1.401 1.356 1.356 0 0 1-1.4 1.434h-2.135v10.774c0 .934.333 1.268 1.268 1.268h.833a1.376 1.376 0 0 1 1.435 1.4 1.357 1.357 0 0 1-1.4 1.435zm4.604-20.415a2.401 2.401 0 1 1 2.402-2.401 2.392 2.392 0 0 1-2.402 2.401zm0 20.414a1.4 1.4 0 0 1-1.467-1.401V1029.2a1.408 1.408 0 0 1 1.467-1.435 1.374 1.374 0 0 1 1.401 1.435v14.876a1.346 1.346 0 0 1-1.401 1.401zm10.376-14.877h-1.5v13.442a1.364 1.364 0 0 1-1.468 1.401 1.346 1.346 0 0 1-1.401-1.401V1030.6h-1.37a1.418 1.418 0 0 1 0-2.835h1.367v-2.27a3.801 3.801 0 0 1 3.836-3.769 1.418 1.418 0 1 1 0 2.835.934.934 0 0 0-.967.9v2.302h1.5a1.418 1.418 0 1 1 0 2.835z"/><use xlink:href="#G" x="42.068"/><path d="M154.725 1045.544a3.403 3.403 0 0 1-3.336-3.402v-18.98a1.435 1.435 0 0 1 2.869-.033v19.013a.527.527 0 0 0 .467.567 1.418 1.418 0 1 1 0 2.835zm15.37-.066v-1.264c1.886-.237 2.046-.437 2.046-3.157v-6.7c0-2.8-1.248-4.017-3.064-4.017a5.597 5.597 0 0 0-3.47 1.493v9.476c0 2.527.187 2.658 2.06 2.896v1.264h-8.968v-1.264c2.254-.33 2.5-.4 2.5-3v-8.2c0-2.446-.303-2.565-2.185-2.922v-1.184a34.101 34.101 0 0 0 6.653-1.533l-.052 2.95 2.6-1.745a5.659 5.659 0 0 1 3.159-1.086c3.194 0 5.2 2.338 5.2 6.3v7.5c0 2.54.237 2.657 2.277 2.92v1.264zm23.9-3.703c-2.458 3.427-5.488 4.178-7.014 4.178-5.142 0-8.124-3.936-8.124-8.594a10.333 10.333 0 0 1 2.832-7.062 8.602 8.602 0 0 1 6.082-2.814 6.386 6.386 0 0 1 6.37 6.347c-.014.715-.08 1.277-.612 1.4-.767.184-6.17.5-10.318.647.062 4.587 2.717 6.74 5.556 6.74a6.776 6.776 0 0 0 4.543-1.866zm-7.07-12.7c-1.667 0-3.167 1.807-3.516 4.963l5.486-.118c.6-.026.848-.146.848-.792.04-2.022-1.037-4.053-2.818-4.053zm34.284.145c-1.943.343-2.248.624-3.105 2.765-1.33 3.462-3.102 8.53-4.934 13.94h-1.512l-4.65-11.46-4.55 11.46h-1.472l-4.685-14.192c-.687-1.985-.94-2.274-2.855-2.512v-1.25h9.397v1.25c-2.325.345-2.535.672-2.058 2.133l2.52 8.214c1.507-3.68 2.988-7.62 4.327-11.424h1.456c1.4 3.76 2.986 7.702 4.573 11.568.742-2.107 2.062-5.964 2.557-8.108.412-1.674-.008-2.078-2.753-2.383v-1.25h7.742zm9.4 3.746c-.92-2.606-2.155-3.984-4.2-3.984a2.166 2.166 0 0 0-2.225 2.266c0 1.497 1.046 2.264 3.16 3.216 3.278 1.496 5.3 2.787 5.3 5.736 0 3.85-3.6 5.764-6.945 5.764a12.073 12.073 0 0 1-4.92-1.161l-.662-4.892 1.252-.224c.8 2.5 2.33 4.75 4.976 4.75a2.231 2.231 0 0 0 2.438-2.281c0-1.423-.76-2.333-3.092-3.467-2.67-1.295-5.107-2.64-5.107-5.775 0-3.046 2.533-5.42 6.565-5.42a18.751 18.751 0 0 1 4.112.567l.62 4.577z"/></g><g opacity=".75" fill="#fff"><path d="M853.196 1046.358c-1.2 0-3.22-.42-3.922-1.58a.478.478 0 0 1-.08-.299.614.614 0 0 1 .58-.602.621.621 0 0 1 .441.281 3.814 3.814 0 0 0 2.98 1.061c1.94 0 2.92-.64 2.92-1.94 0-3.02-6.56-1.42-6.56-5.422 0-2.02 2.02-2.8 3.84-2.8a5.418 5.418 0 0 1 3.441 1.16.561.561 0 0 1 .18.379.648.648 0 0 1-.621.6.523.523 0 0 1-.379-.16 4.004 4.004 0 0 0-2.621-.84c-1.76 0-2.7.682-2.7 1.66 0 2.8 6.563 1.32 6.563 5.422 0 2.28-2 3.08-4.06 3.08zm10.72-.038c-3.22 0-5.02-2.64-5.02-5.662 0-3 1.8-5.64 5.02-5.64s5.02 2.64 5.02 5.64c0 3.02-1.8 5.662-5.02 5.662zm0-10.162c-2.36 0-3.88 1.9-3.88 4.5s1.52 4.52 3.88 4.52c2.38 0 3.88-1.92 3.88-4.52s-1.5-4.5-3.88-4.5zm15.78 9.822a.563.563 0 0 1-.58-.561v-.64a4.442 4.442 0 0 1-3.42 1.541 4.61 4.61 0 0 1-4.561-4.561v-5.842a.57.57 0 0 1 1.139 0v5.842a3.421 3.421 0 0 0 6.842 0v-5.842a.57.57 0 0 1 1.141 0v9.502a.559.559 0 0 1-.561.561z"/><use xlink:href="#H"/><path d="M897.836 1044.797a4.648 4.648 0 0 1-3.58 1.521c-3.22 0-5.02-2.64-5.02-5.662 0-3 1.8-5.64 5.02-5.64a4.654 4.654 0 0 1 3.58 1.52.539.539 0 0 1 .16.381.627.627 0 0 1-.58.6.582.582 0 0 1-.42-.199 3.526 3.526 0 0 0-2.74-1.16c-2.36 0-3.88 1.9-3.88 4.5s1.52 4.52 3.88 4.52a3.592 3.592 0 0 0 2.74-1.16.582.582 0 0 1 .42-.199.594.594 0 0 1 .58.58.574.574 0 0 1-.16.398zm11.58-3.56h-8.303c.18 2.28 1.66 3.94 3.842 3.94a3.613 3.613 0 0 0 2.939-1.381.528.528 0 0 1 .48-.279.61.61 0 0 1 .619.541c0 .18 0 .22-.38.658a4.719 4.719 0 0 1-3.66 1.602c-3.22 0-5.02-2.64-5.02-5.662 0-3 1.8-5.64 5.02-5.64s5.02 2.66 5.02 5.64a.604.604 0 0 1-.559.58zm-4.46-5.08c-2.402 0-3.662 1.84-3.842 3.94h7.7c-.18-2.28-1.66-3.94-3.86-3.94zm8.437 3.26a1.14 1.14 0 1 1 0-2.279 1.14 1.14 0 0 1 0 2.279zm0 6.563a1.141 1.141 0 1 1 0-2.281 1.141 1.141 0 0 1 0 2.281zm16.963-13.123h-3.88v12.563a.552.552 0 0 1-.58.561.545.545 0 0 1-.561-.561v-12.562h-3.88a.561.561 0 1 1 0-1.121h8.902a.561.561 0 1 1 0 1.121zm10.72 13.124a.563.563 0 0 1-.58-.561v-5.842a3.42 3.42 0 1 0-6.84 0v5.842a.57.57 0 0 1-1.141 0v-13.123a.57.57 0 0 1 1.141 0v4.262a4.442 4.442 0 0 1 3.42-1.541 4.598 4.598 0 0 1 4.561 4.561v5.842a.558.558 0 0 1-.561.56zm12.24-4.743h-8.3c.18 2.28 1.66 3.94 3.84 3.94a3.617 3.617 0 0 0 2.941-1.381.523.523 0 0 1 .479-.279.612.612 0 0 1 .621.541c0 .18 0 .22-.38.658a4.716 4.716 0 0 1-3.66 1.602c-3.22 0-5.02-2.64-5.02-5.662 0-3 1.8-5.64 5.02-5.64s5.02 2.66 5.02 5.64a.606.606 0 0 1-.561.58zm-4.46-5.08c-2.4 0-3.66 1.84-3.84 3.94h7.7c-.18-2.28-1.66-3.94-3.86-3.94zm17.778 10.163c-4.4 0-5.82-3.7-5.82-7.46 0-3.742 1.42-7.482 5.82-7.482a5.098 5.098 0 0 1 4.441 2.18.409.409 0 0 1 .119.32.599.599 0 0 1-.619.561c-.28 0-.44-.24-.66-.52a3.881 3.881 0 0 0-3.281-1.4c-3.02 0-4.682 2.32-4.682 6.342 0 3.04.96 6.32 4.682 6.32 3.16 0 4.54-2.42 4.682-5.74h-2.44a.572.572 0 0 1-.6-.58.561.561 0 0 1 .561-.58h3.04a.556.556 0 0 1 .58.58c0 3.9-1.54 7.46-5.822 7.46zm16.46-.34a.562.562 0 0 1-.58-.561v-.64a4.444 4.444 0 0 1-3.422 1.541 4.61 4.61 0 0 1-4.561-4.561v-5.842a.57.57 0 0 1 1.141 0v5.842a3.421 3.421 0 0 0 6.842 0v-5.842a.57.57 0 0 1 1.141 0v9.502a.559.559 0 0 1-.561.561z"/><use xlink:href="#I"/><use xlink:href="#H" x="116.238"/><path d="M1014.953 1045.98a.563.563 0 0 1-.58-.561v-1a4.54 4.54 0 0 1-3.881 1.9c-3.22 0-5.02-2.64-5.02-5.662 0-3 1.8-5.64 5.02-5.64a4.574 4.574 0 0 1 3.881 1.881v-4.602a.57.57 0 0 1 1.141 0v13.123a.559.559 0 0 1-.561.561zm-4.46-9.822c-2.36 0-3.88 1.9-3.88 4.5s1.52 4.52 3.88 4.52c2.38 0 3.88-1.92 3.88-4.52s-1.5-4.5-3.88-4.5zm8.44-2.722a1.141 1.141 0 1 1 1.141-1.141 1.127 1.127 0 0 1-1.141 1.141zm0 12.543a.549.549 0 0 1-.58-.561v-9.502a.551.551 0 0 1 .58-.561.545.545 0 0 1 .561.561v9.502a.537.537 0 0 1-.561.561z"/><use xlink:href="#I" x="35.84"/><path d="M1043.733 1045.98a.563.563 0 0 1-.58-.561v-5.842a3.42 3.42 0 0 0-6.84 0v5.842a.57.57 0 0 1-1.141 0v-9.502a.57.57 0 0 1 1.141 0v.64a4.562 4.562 0 0 1 7.98 3.02v5.842a.558.558 0 0 1-.561.561z"/></g><g fill="#fff"><path d="M138.974 42.38h-22.438V54.5h15.72a2.561 2.561 0 0 1 2.58 2.58 2.522 2.522 0 0 1-2.58 2.579h-15.72v17.82a2.581 2.581 0 0 1-5.16 0V39.86a2.613 2.613 0 0 1 2.64-2.58h24.96a2.426 2.426 0 0 1 2.521 2.521 2.505 2.505 0 0 1-2.52 2.579zm27.656 24.3h-22.2c.84 5.64 4.44 9.24 9.72 9.24a9.006 9.006 0 0 0 7.14-3.119 2.482 2.482 0 0 1 1.859-.961 2.8 2.8 0 0 1 2.7 2.641c0 .72-.18 1.26-1.44 2.52a14.619 14.619 0 0 1-10.26 4.02c-9.66 0-15.06-7.98-15.06-16.98 0-8.94 5.4-16.92 15.06-16.92 9.78 0 15 7.98 15 16.92a2.558 2.558 0 0 1-2.52 2.64zm-12.48-14.46c-5.64 0-8.94 4.14-9.72 9.3h19.44c-.84-5.76-4.44-9.3-9.72-9.3zm57.24 27.778a2.457 2.457 0 0 1-2.52-2.52v-18.9a6.33 6.33 0 1 0-12.659-.06v18.898a2.454 2.454 0 0 1-2.58 2.58 2.424 2.424 0 0 1-2.52-2.52v-18.9a6.36 6.36 0 0 0-12.72-.06v18.898a2.501 2.501 0 0 1-2.64 2.58 2.457 2.457 0 0 1-2.52-2.52V50.66a2.632 2.632 0 0 1 4.8-1.44 11.56 11.56 0 0 1 6.659-2.1 11.359 11.359 0 0 1 8.939 4.26 11.242 11.242 0 0 1 8.88-4.26 11.459 11.459 0 0 1 11.52 11.4v18.898a2.501 2.501 0 0 1-2.64 2.58z"/><use xlink:href="#J"/><use xlink:href="#K"/><path d="M292.388 66.68h-22.2c.84 5.64 4.44 9.24 9.72 9.24a9.005 9.005 0 0 0 7.14-3.119 2.484 2.484 0 0 1 1.86-.961 2.8 2.8 0 0 1 2.7 2.641c0 .72-.18 1.26-1.44 2.52a14.619 14.619 0 0 1-10.26 4.02c-9.66 0-15.06-7.98-15.06-16.98 0-8.94 5.4-16.92 15.06-16.92 9.78 0 15 7.98 15 16.92a2.558 2.558 0 0 1-2.521 2.64zm-12.48-14.46c-5.64 0-8.94 4.14-9.72 9.3h19.44c-.84-5.76-4.44-9.3-9.72-9.3zm58.98-9.84h-22.44V54.5h15.72a2.561 2.561 0 0 1 2.58 2.58 2.523 2.523 0 0 1-2.58 2.579h-15.72v17.82a2.58 2.58 0 0 1-5.159 0V39.86a2.612 2.612 0 0 1 2.64-2.58h24.96a2.426 2.426 0 0 1 2.52 2.521 2.504 2.504 0 0 1-2.52 2.579z"/><use xlink:href="#L"/><use xlink:href="#L" x="33.479"/><path d="M417.482 79.998h-1.02c-5.7 0-7.86-3-7.86-7.92V53.24h-1.8a2.551 2.551 0 0 1-.061-5.101h1.8V39.8a2.437 2.437 0 0 1 2.58-2.521 2.39 2.39 0 0 1 2.521 2.521v8.34h3.84a2.488 2.488 0 0 1 2.52 2.521 2.44 2.44 0 0 1-2.52 2.58h-3.84v19.38c0 1.68.6 2.28 2.28 2.28h1.5a2.475 2.475 0 0 1 2.58 2.52 2.441 2.441 0 0 1-2.52 2.58zm20.578 1.02a14.2 14.2 0 0 1-9.899-3.6 2.452 2.452 0 0 1-2.64 2.52 2.42 2.42 0 0 1-2.52-2.52V39.86a2.58 2.58 0 0 1 5.159-.06v11.22a13.318 13.318 0 0 1 9.899-3.9c9.66 0 15.06 7.92 15.06 16.92 0 9.06-5.4 16.98-15.06 16.98zm0-28.8c-6 0-9.9 4.68-9.9 11.82 0 7.2 3.9 11.88 9.9 11.88s9.9-4.68 9.9-11.88c0-7.14-3.9-11.82-9.9-11.82zm49.38 27.78a5.839 5.839 0 0 1-5.34-3.42 13.746 13.746 0 0 1-10.56 4.439c-9.78 0-15.06-8.04-15.06-16.98s5.4-16.92 15.06-16.92a13.259 13.259 0 0 1 9.899 3.96v-.24a2.476 2.476 0 0 1 2.52-2.701 2.412 2.412 0 0 1 2.641 2.521v23.16a.972.972 0 0 0 .84 1.08 2.55 2.55 0 1 1 0 5.1zm-15.9-27.78c-6 0-9.9 4.68-9.9 11.82 0 7.2 3.9 11.88 9.9 11.88 6.06 0 9.9-4.68 9.9-11.88 0-7.14-3.84-11.82-9.9-11.82z"/><use xlink:href="#K" x="238.25"/><use xlink:href="#K" x="249.53"/><path d="M551.818 42.38h-9.96v35.1a2.424 2.424 0 0 1-2.52 2.52 2.505 2.505 0 0 1-2.58-2.52v-35.1h-9.84a2.534 2.534 0 0 1-2.64-2.579 2.506 2.506 0 0 1 2.58-2.521h24.96a2.55 2.55 0 1 1 0 5.1zm27.052 24.3h-22.2c.84 5.64 4.44 9.24 9.72 9.24a9.005 9.005 0 0 0 7.14-3.119 2.484 2.484 0 0 1 1.86-.961 2.8 2.8 0 0 1 2.7 2.641c0 .72-.18 1.26-1.44 2.52a14.619 14.619 0 0 1-10.26 4.02c-9.66 0-15.06-7.98-15.06-16.98 0-8.94 5.4-16.92 15.06-16.92 9.78 0 15 7.98 15 16.92a2.558 2.558 0 0 1-2.521 2.64zM566.4 52.22c-5.64 0-8.94 4.14-9.72 9.3h19.44c-.84-5.76-4.44-9.3-9.72-9.3z"/><use xlink:href="#J" x="365.86"/><path d="M658.968 79.998a2.457 2.457 0 0 1-2.52-2.52v-18.9a6.33 6.33 0 1 0-12.659-.06v18.898a2.454 2.454 0 0 1-2.58 2.58 2.424 2.424 0 0 1-2.521-2.52v-18.9a6.36 6.36 0 0 0-12.719-.06v18.898a2.501 2.501 0 0 1-2.641 2.58 2.457 2.457 0 0 1-2.52-2.52V50.66a2.632 2.632 0 0 1 4.8-1.44 11.566 11.566 0 0 1 6.66-2.1 11.359 11.359 0 0 1 8.939 4.26 11.239 11.239 0 0 1 8.88-4.26 11.459 11.459 0 0 1 11.52 11.4v18.898a2.502 2.502 0 0 1-2.641 2.58zm18.242 1.02c-3.3 0-8.82-1.02-11.64-4.5a2.655 2.655 0 0 1 2.16-4.26 2.467 2.467 0 0 1 1.86 1.021c1.86 2.04 4.92 2.64 7.62 2.64 5.4 0 7.14-1.86 7.14-4.56 0-7.68-18.3-2.94-18.3-15.3 0-6.54 6.12-8.94 11.82-8.94 3.24 0 10.86 1.62 10.86 4.98a2.694 2.694 0 0 1-2.52 2.699 3.618 3.618 0 0 1-1.98-.779c-1.62-1.38-3.96-1.8-6.36-1.8-4.98 0-6.72 1.86-6.72 3.84 0 7.14 18.36 2.52 18.36 15.3 0 7.08-5.94 9.66-12.3 9.66zm31.14-37.738a4.32 4.32 0 1 1 4.319-4.319 4.302 4.302 0 0 1-4.319 4.319zm0 36.72a2.521 2.521 0 0 1-2.641-2.52V50.72a2.534 2.534 0 0 1 2.641-2.58 2.472 2.472 0 0 1 2.52 2.58v26.76a2.42 2.42 0 0 1-2.52 2.52z"/><use xlink:href="#M"/><path d="M790.066 79.998h-24.96a2.602 2.602 0 0 1-2.64-2.52V39.86a2.613 2.613 0 0 1 2.64-2.58h24.96a2.426 2.426 0 0 1 2.521 2.521 2.505 2.505 0 0 1-2.521 2.579h-22.438V54.5h15.72a2.561 2.561 0 0 1 2.58 2.58 2.522 2.522 0 0 1-2.58 2.579h-15.72V74.9h22.438a2.471 2.471 0 0 1 2.521 2.58 2.426 2.426 0 0 1-2.521 2.52zm32.04 0a2.424 2.424 0 0 1-2.52-2.52V60.8a8.55 8.55 0 1 0-17.1 0v16.62a2.551 2.551 0 0 1-2.64 2.641 2.472 2.472 0 0 1-2.52-2.58V50.66a2.387 2.387 0 0 1 2.52-2.521 2.509 2.509 0 0 1 2.58 1.98 13.702 13.702 0 0 1 22.259 10.68v16.62a2.454 2.454 0 0 1-2.58 2.58zm21.84 13.68c-3.66 0-12.72-1.32-12.72-4.92a2.794 2.794 0 0 1 2.58-2.7c1.38 0 .18.18 3.36 1.38a18.752 18.752 0 0 0 6.78 1.141c6.66 0 9.9-3.18 9.9-9.48v-2.7a14.038 14.038 0 0 1-9.899 3.6c-9.48 0-15.06-6.72-15.06-15.96 0-9 5.4-16.92 15.06-16.92 4.2 0 7.44 1.26 9.9 3.84v-.24a2.554 2.554 0 0 1 2.58-2.58 2.519 2.519 0 0 1 2.58 2.58V79.1c0 9.54-5.7 14.58-15.06 14.58zm0-41.46c-6 0-9.9 4.68-9.9 11.82 0 6.84 3.6 10.86 9.9 10.86s9.9-4.02 9.9-10.86c0-7.14-3.84-11.82-9.9-11.82z"/><use xlink:href="#K" x="610.177"/><use xlink:href="#J" x="656.795"/><use xlink:href="#M" x="194.518"/><path d="M970.844 79.938a2.436 2.436 0 0 1-2.579-2.52 14.52 14.52 0 0 1-9.9 3.6c-9.66 0-15.06-7.92-15.06-16.98 0-9 5.4-16.92 15.06-16.92a13.224 13.224 0 0 1 9.9 3.9V39.86a2.58 2.58 0 0 1 5.159-.06v37.618a2.436 2.436 0 0 1-2.58 2.52zm-12.48-27.72c-6 0-9.9 4.68-9.9 11.82 0 7.2 3.9 11.88 9.9 11.88 6.06 0 9.9-4.68 9.9-11.88 0-7.14-3.84-11.82-9.9-11.82zM210.136 141.2a2.519 2.519 0 0 1-2.64-2.52v-17.82h-19.8v17.818a2.58 2.58 0 0 1-5.159 0V101a2.58 2.58 0 0 1 5.159 0v14.76h19.8v-14.7a2.58 2.58 0 1 1 5.159 0v37.558a2.541 2.541 0 0 1-2.52 2.58z"/><use xlink:href="#N"/><path d="M278.595 112.88l-10.92 26.28a2.735 2.735 0 0 1-2.579 2.04 2.904 2.904 0 0 1-2.58-2.04l-10.92-26.28a3.686 3.686 0 0 1-.18-1.08 2.588 2.588 0 0 1 2.64-2.459 2.456 2.456 0 0 1 2.28 1.56l8.76 21 8.76-21a2.584 2.584 0 0 1 4.979.84 2.993 2.993 0 0 1-.24 1.14zm29.76 15h-22.2c.84 5.64 4.44 9.24 9.72 9.24a9.003 9.003 0 0 0 7.14-3.12 2.485 2.485 0 0 1 1.86-.959 2.8 2.8 0 0 1 2.7 2.64c0 .72-.18 1.26-1.44 2.52a14.624 14.624 0 0 1-10.26 4.021c-9.66 0-15.06-7.98-15.06-16.98 0-8.94 5.4-16.92 15.06-16.92 9.78 0 15 7.98 15 16.92a2.559 2.559 0 0 1-2.52 2.641zm-12.48-14.46c-5.64 0-8.94 4.14-9.72 9.3h19.44c-.84-5.76-4.44-9.3-9.72-9.3zm46.44 27.78h-12.42a2.73 2.73 0 0 1-2.64-2.52v-37.62a2.693 2.693 0 0 1 2.64-2.58h12.42c12.36 0 16.44 10.2 16.44 21.3 0 11.16-4.08 21.42-16.44 21.42zm0-37.618h-9.9v32.52h9.9c7.74 0 11.28-5.7 11.28-16.32 0-10.44-3.54-16.2-11.28-16.2zm35.22 38.638c-9.66 0-15.06-7.92-15.06-16.98 0-9 5.4-16.92 15.06-16.92s15.06 7.92 15.06 16.92c0 9.06-5.4 16.98-15.06 16.98zm0-28.8c-6 0-9.9 4.68-9.9 11.818 0 7.2 3.9 11.88 9.9 11.88 6.06 0 9.9-4.68 9.9-11.88 0-7.14-3.84-11.818-9.9-11.818zm44.097 27.838a2.446 2.446 0 0 1-2.52-1.979 13.964 13.964 0 0 1-8.64 3 13.79 13.79 0 0 1-13.68-13.68v-16.62a2.58 2.58 0 0 1 5.16-.06v16.68a8.549 8.549 0 1 0 17.099 0v-16.62a2.392 2.392 0 0 1 2.521-2.64 2.454 2.454 0 0 1 2.58 2.58v26.818a2.39 2.39 0 0 1-2.521 2.52zm23.7.962a14.203 14.203 0 0 1-9.899-3.601 2.453 2.453 0 0 1-2.64 2.52 2.421 2.421 0 0 1-2.52-2.52v-37.56a2.58 2.58 0 0 1 5.159-.061v11.22a13.322 13.322 0 0 1 9.899-3.899c9.66 0 15.06 7.92 15.06 16.92 0 9.06-5.4 16.98-15.06 16.98zm0-28.8c-6 0-9.9 4.68-9.9 11.818 0 7.2 3.9 11.88 9.9 11.88s9.9-4.68 9.9-11.88c0-7.14-3.9-11.818-9.9-11.818zm25.442 27.9a6.122 6.122 0 0 1-6-6.12v-34.14a2.58 2.58 0 0 1 5.16-.061v34.2a.948.948 0 0 0 .84 1.021 2.55 2.55 0 1 1 0 5.1z"/><use xlink:href="#O"/><path d="M535.33 141.14a2.436 2.436 0 0 1-2.579-2.52 14.518 14.518 0 0 1-9.9 3.601c-9.66 0-15.06-7.92-15.06-16.98 0-9 5.4-16.92 15.06-16.92a13.227 13.227 0 0 1 9.9 3.899v-11.16a2.58 2.58 0 0 1 5.159-.061v37.618a2.436 2.436 0 0 1-2.58 2.52zm-12.48-27.72c-6 0-9.9 4.68-9.9 11.818 0 7.2 3.9 11.88 9.9 11.88 6.06 0 9.9-4.68 9.9-11.88 0-7.14-3.84-11.818-9.9-11.818zm36.25-8.94a4.32 4.32 0 1 1 4.319-4.319 4.302 4.302 0 0 1-4.319 4.319zm0 36.72a2.52 2.52 0 0 1-2.641-2.52v-26.76a2.533 2.533 0 0 1 2.641-2.58 2.471 2.471 0 0 1 2.52 2.58v26.758a2.421 2.421 0 0 1-2.52 2.52zm33.648 0a2.424 2.424 0 0 1-2.521-2.52V122a8.55 8.55 0 1 0-17.099 0v16.62a2.55 2.55 0 0 1-2.641 2.64 2.471 2.471 0 0 1-2.52-2.58v-26.82a2.386 2.386 0 0 1 2.52-2.52 2.509 2.509 0 0 1 2.58 1.979 13.703 13.703 0 0 1 22.26 10.68v16.62a2.454 2.454 0 0 1-2.58 2.58zm44.22-37.62h-9.96v35.098a2.424 2.424 0 0 1-2.52 2.52 2.504 2.504 0 0 1-2.579-2.52V103.58h-9.84a2.534 2.534 0 0 1-2.64-2.58 2.505 2.505 0 0 1 2.579-2.52h24.96a2.55 2.55 0 1 1 0 5.1zm29.76 37.62a2.424 2.424 0 0 1-2.52-2.52V122a8.55 8.55 0 1 0-17.099 0v16.62a2.55 2.55 0 0 1-2.641 2.64 2.471 2.471 0 0 1-2.52-2.58v-37.62a2.58 2.58 0 0 1 5.16-.061v10.38a12.099 12.099 0 0 1 8.52-3.06 13.791 13.791 0 0 1 13.68 13.68v16.62a2.454 2.454 0 0 1-2.58 2.58zm21.84-27.78a8.644 8.644 0 0 0-8.52 8.579v16.62a2.5 2.5 0 0 1-2.64 2.58 2.456 2.456 0 0 1-2.52-2.52v-26.76a2.541 2.541 0 0 1 2.52-2.58 2.463 2.463 0 0 1 2.58 2.039 13.873 13.873 0 0 1 8.579-3.06 2.552 2.552 0 1 1 0 5.101z"/><use xlink:href="#O" x="214.485"/><use xlink:href="#P"/><path d="M795.533 102.26l-11.88 22.14v14.22a2.501 2.501 0 0 1-2.641 2.58 2.421 2.421 0 0 1-2.52-2.52V124.4l-11.88-22.2a2.259 2.259 0 0 1-.359-1.26 2.747 2.747 0 0 1 2.699-2.58 2.45 2.45 0 0 1 2.16 1.44l9.9 18.48 10.02-18.48a2.424 2.424 0 0 1 2.16-1.319 2.654 2.654 0 0 1 2.7 2.52 2.145 2.145 0 0 1-.36 1.26z"/><use xlink:href="#P" x="73.13"/><use xlink:href="#N" x="610.768"/><path d="M878.564 113.42a8.643 8.643 0 0 0-8.52 8.579v16.62a2.501 2.501 0 0 1-2.641 2.58 2.456 2.456 0 0 1-2.52-2.52v-26.76a2.541 2.541 0 0 1 2.52-2.58 2.462 2.462 0 0 1 2.58 2.039 13.876 13.876 0 0 1 8.58-3.06 2.552 2.552 0 1 1 0 5.101zm13.74 28.8c-3.3 0-8.82-1.02-11.64-4.5a2.655 2.655 0 0 1 2.16-4.26 2.462 2.462 0 0 1 1.859 1.02c1.86 2.04 4.92 2.64 7.62 2.64 5.4 0 7.14-1.86 7.14-4.56 0-7.68-18.3-2.94-18.3-15.3 0-6.54 6.12-8.94 11.82-8.94 3.24 0 10.86 1.62 10.86 4.98a2.694 2.694 0 0 1-2.52 2.7 3.607 3.607 0 0 1-1.98-.78c-1.62-1.38-3.96-1.8-6.36-1.8-4.98 0-6.72 1.86-6.72 3.84 0 7.14 18.36 2.52 18.36 15.3 0 7.08-5.94 9.66-12.3 9.66z"/></g><path transform="matrix(-.707107 -.707107 .707107 -.707107 531.0688 1306.0384)" d="M281.973 288.98h508.102v508.102H281.973z" fill="url(#B)"/><path transform="matrix(-.707107 -.707107 .707107 -.707107 453.12653 1494.2077)" d="M359.915 477.15h352.217v352.217H359.915z" fill="url(#C)"/><g opacity=".7" fill="#fff"><path d="M517.628 620.777v-1.6c1.706-5.704 7.038-8.903 7.038-13.275 0-2.025-1.014-3.038-2.32-3.038-1.52 0-2.64 1.173-2.8 4.052h-1.76c.213-4.372 2.186-5.65 4.505-5.65 2.532 0 4.292 1.706 4.292 4.904 0 4.8-4.318 6.3-7.197 13h7.304v1.6zm14.342.266c-3.146 0-4.64-2.933-4.64-9.9s1.493-9.9 4.64-9.9 4.64 2.932 4.64 9.9-1.493 9.9-4.64 9.9zm0-18.18c-1.76 0-2.72 1.972-2.72 8.3s.96 8.3 2.72 8.3 2.72-1.973 2.72-8.3-.96-8.3-2.72-8.3zm6.6 17.914v-1.6h2.347v-15.46l-2.4.213v-1.173a7.386 7.386 0 0 0 3.039-1.492h1.28v17.913h2.24v1.6zm8.478-19.247h8.637v1.013l-5.598 18.233h-2.026l5.598-17.647h-6.6zM487.45 652.3q.054.614.502.223 1.784-2.398 6.75-2.845a10.12 10.12 0 0 1 7.865 3.514 13.097 13.097 0 0 1 2.957 8.647 13.498 13.498 0 0 1-3.068 8.758 10.572 10.572 0 0 1-16.178.056 13.831 13.831 0 0 1-3.012-8.981v-17.517a12.388 12.388 0 0 1 3.012-8.367 10.611 10.611 0 0 1 8.2-3.515 11.308 11.308 0 0 1 7.196 2.455 10.166 10.166 0 0 1 3.57 6.582q.1.502-.558.502h-3.3q-.558 0-.56-.67a7.306 7.306 0 0 0-1.952-3.459 6.418 6.418 0 0 0-4.463-1.45 6.513 6.513 0 0 0-5.132 2.231 8.643 8.643 0 0 0-1.841 5.689zm0 9.65a9.661 9.661 0 0 0 1.785 6.024 6.501 6.501 0 0 0 10.265 0 10.524 10.524 0 0 0 1.784-6.136 10.143 10.143 0 0 0-1.729-5.97 6.112 6.112 0 0 0-5.077-2.343q-6.974.447-7.028 8.424h0z"/><use xlink:href="#Q"/><use xlink:href="#R"/><path d="M562.83 635.575a11.87 11.87 0 0 1 3.18 8.313v18.855a12.07 12.07 0 0 1-3.18 8.367 11.091 11.091 0 0 1-8.089 3.291 11.213 11.213 0 0 1-8.089-3.291 11.857 11.857 0 0 1-3.124-8.367v-18.855a11.662 11.662 0 0 1 3.124-8.312 10.925 10.925 0 0 1 8.089-3.291 10.811 10.811 0 0 1 8.089 3.291zm-15.118 8.313v18.855a8.42 8.42 0 0 0 1.897 5.578 7.14 7.14 0 0 0 10.264 0 8.27 8.27 0 0 0 1.953-5.578v-18.855a8.054 8.054 0 0 0-1.953-5.522 7.14 7.14 0 0 0-10.264 0 8.198 8.198 0 0 0-1.897 5.522h0z"/><use xlink:href="#R" x="50.215"/></g><path transform="matrix(-.707107 -.707107 .707107 -.707107 -205.87719 1281.46092)" d="M75.868 596.776h173.186v173.186H75.868z" fill="url(#D)"/><path transform="matrix(-.707107 -.707107 .707107 -.707107 -260.03821 1412.2172)" d="M130.03 727.533h64.864v64.864H130.03z" fill="url(#E)"/><path d="M105.957 679.413h-9.05q-.517.05-.465-.518v-2.638q-.053-.516.465-.466h9.05q.568.105.518-.465v-9.103q-.104-.568.466-.518h2.74q.568-.05.465.518v9.103q-.05.57.518.465h9.05q.516-.05.466.466v2.638q.05.517-.466.518h-9.05q-.57-.104-.518.465v9.103q.103.57-.465.466h-2.74q-.52.053-.466-.466v-9.103q.05-.568-.518-.465h0z"/><path d="M141.028 663.95a67.27 67.27 0 0 0-6.93 15.568 68.238 68.238 0 0 0-2.586 16.239q.103.672-.518.57h-2.948c-.38-.035-.535-.224-.465-.57a66.495 66.495 0 0 1 2.896-16.446 68.367 68.367 0 0 1 7.086-15.93q.466-.724-.052-.725h-15.93c-.38.07-.535-.104-.466-.517v-2.74q-.104-.568.466-.466h19.188q.568-.103.465.466v3.827l-.207.724zm11.537-4.552l.62-.466h3.672c.38 0 .55.173.518.518v32.687q-.105.57.465.518h6.724q.568-.104.466.465v2.534c.034.38-.12.534-.466.466h-18.3c-.38.068-.552-.086-.518-.466v-2.534q-.05-.568.518-.465h6.982q.516.05.465-.518V664.57q-.05-.62-.517-.104a22.7 22.7 0 0 1-7.086 4.138q-.415.207-.465-.26v-2.638a.501.501 0 0 1 .361-.466 12.999 12.999 0 0 0 6.568-5.844h0zm19.245 28.238q.415 5.587 6.207 5.845a5.855 5.855 0 0 0 4.395-1.759 7.067 7.067 0 0 0 1.707-4.913v-4.706a6.77 6.77 0 0 0-1.5-4.552 5.563 5.563 0 0 0-4.345-1.862 7.569 7.569 0 0 0-5.12 1.759.589.589 0 0 1-.672.259h-2.534q-.57.104-.466-.466V659.5q-.104-.568.466-.466h16.137q.568-.103.465.466v2.638q.104.57-.465.517h-12.62q-.517-.103-.466.466v10.24q0 .466.466.207a10.919 10.919 0 0 1 5.12-1.189 9.16 9.16 0 0 1 6.724 2.638 9.744 9.744 0 0 1 2.638 7.086v4.706a10.123 10.123 0 0 1-2.948 7.395 10.25 10.25 0 0 1-7.137 2.845 9.603 9.603 0 0 1-6.931-2.741 9.969 9.969 0 0 1-2.845-6.826q-.104-.517.466-.466h2.7q.568-.05.568.62h0z" stroke="#000" stroke-miterlimit="10" stroke-width=".5"/><path d="M198.328 657.407a3.899 3.899 0 0 1 1.025 2.713V662a3.901 3.901 0 0 1-1.025 2.714 3.568 3.568 0 0 1-2.653 1.085 3.532 3.532 0 0 1-2.623-1.085 3.836 3.836 0 0 1-1.055-2.714v-1.87a3.834 3.834 0 0 1 1.055-2.713 3.533 3.533 0 0 1 2.623-1.086 3.569 3.569 0 0 1 2.653 1.086zm-4.07 21.106h-1.326c-.24.02-.302-.08-.182-.302l12.423-21.137c.08-.24.212-.342.393-.302h1.326c.222-.02.28.07.182.27L194.62 678.18c-.08.24-.2.352-.362.332zm-.572-16.614q.12 2.11 1.99 2.14 1.9-.03 2-2.14V660.2q-.09-2.11-2-2.14-1.87.03-1.99 2.14zm7.81 15.98a3.794 3.794 0 0 1-1.055-2.683v-1.84a3.798 3.798 0 0 1 1.055-2.684 3.826 3.826 0 0 1 5.277 0 3.871 3.871 0 0 1 1.025 2.684v1.84a3.867 3.867 0 0 1-1.025 2.683 3.749 3.749 0 0 1-5.277 0zm4.614-2.773v-1.658q-.09-2.05-2-2.08-1.87.03-2 2.08v1.658q.12 2.08 2 2.1 1.9-.03 2-2.1h0z"/><g fill="#003140"><use xlink:href="#S"/><use xlink:href="#T"/><use xlink:href="#S" x="24.864"/><use xlink:href="#T" x="24.863"/><path d="M479.555 297.373l.67-.502h3.96q.612 0 .558.558v35.256q-.113.615.502.56h7.252q.614-.1.502.502v2.733q.056.614-.502.502H472.75q-.614.1-.558-.502v-2.733q-.056-.614.558-.502h7.53q.557.056.502-.56v-29.732q-.056-.67-.558-.112a24.483 24.483 0 0 1-7.643 4.463c-.298.15-.466.056-.502-.278v-2.846a.54.54 0 0 1 .391-.502 14.02 14.02 0 0 0 7.084-6.304h0zm21.203 35.034q-.057.558.502.502h16.3q.614-.1.502.502v3.013c.074.4-.093.594-.502.558h-20.473c-.4.036-.577-.148-.502-.558v-3.068q.278-7.53 4.35-11.436a103.868 103.868 0 0 1 8.089-7.029 10.543 10.543 0 0 0 4.407-8.033 7.535 7.535 0 0 0-1.674-4.909 5.7 5.7 0 0 0-4.519-2.008 6.199 6.199 0 0 0-4.909 2.12 8.05 8.05 0 0 0-1.841 5.021q.056.78-.613.67h-3.013q-.614.113-.502-.502a12.308 12.308 0 0 1 3.18-7.865 10.156 10.156 0 0 1 7.754-3.403 10.034 10.034 0 0 1 7.42 3.068 10.846 10.846 0 0 1 3.012 7.643 12.547 12.547 0 0 1-4.351 9.428l-8.1 6.75q-4.074 3.347-4.52 9.54h0z"/><use xlink:href="#Q" x="12.862" y="-336.306"/><path d="M535.7 327.832q.445 6.025 6.694 6.304a6.315 6.315 0 0 0 4.741-1.897 7.621 7.621 0 0 0 1.841-5.299v-5.077a7.301 7.301 0 0 0-1.617-4.908 6 6 0 0 0-4.687-2.009 8.157 8.157 0 0 0-5.522 1.896.636.636 0 0 1-.726.279h-2.733q-.614.113-.502-.502v-19.135q-.113-.612.502-.502h17.405q.614-.1.502.502v2.846q.1.614-.502.558h-13.6q-.558-.1-.502.502v11.046c0 .334.167.4.502.223a11.775 11.775 0 0 1 5.522-1.283 9.88 9.88 0 0 1 7.252 2.846 10.506 10.506 0 0 1 2.845 7.642v5.077a10.92 10.92 0 0 1-3.18 7.977 11.057 11.057 0 0 1-7.698 3.068 10.36 10.36 0 0 1-7.475-2.956 10.759 10.759 0 0 1-3.068-7.364q-.113-.557.502-.502h2.9q.614-.054.614.67h0zm40-28.562a11.87 11.87 0 0 1 3.18 8.313v18.855a12.07 12.07 0 0 1-3.18 8.367 11.091 11.091 0 0 1-8.089 3.291 11.212 11.212 0 0 1-8.089-3.291 11.857 11.857 0 0 1-3.124-8.367v-18.855a11.662 11.662 0 0 1 3.124-8.312 10.925 10.925 0 0 1 8.089-3.291 10.811 10.811 0 0 1 8.089 3.291zm-15.118 8.313v18.855a8.42 8.42 0 0 0 1.897 5.578 7.14 7.14 0 0 0 10.264 0 8.27 8.27 0 0 0 1.953-5.578v-18.855a8.053 8.053 0 0 0-1.953-5.522 7.14 7.14 0 0 0-10.264 0 8.198 8.198 0 0 0-1.897 5.522h0zm40.226-8.313a11.87 11.87 0 0 1 3.18 8.313v18.855a12.07 12.07 0 0 1-3.18 8.367 11.091 11.091 0 0 1-8.089 3.291 11.212 11.212 0 0 1-8.089-3.291 11.857 11.857 0 0 1-3.124-8.367v-18.855a11.662 11.662 0 0 1 3.124-8.312 10.925 10.925 0 0 1 8.089-3.291 10.811 10.811 0 0 1 8.089 3.291zm-15.118 8.313v18.855a8.42 8.42 0 0 0 1.897 5.578 7.14 7.14 0 0 0 10.264 0 8.27 8.27 0 0 0 1.953-5.578v-18.855a8.054 8.054 0 0 0-1.953-5.522 7.14 7.14 0 0 0-10.264 0 8.198 8.198 0 0 0-1.897 5.522h0zm-76.696 59.164h-.738a2.469 2.469 0 0 1-2.809-2.785v-8.498h-1.214a.678.678 0 0 1 0-1.356h1.214v-3.643a.669.669 0 0 1 .69-.666.65.65 0 0 1 .666.666v3.643h2.2a.678.678 0 0 1 0 1.356h-2.2v8.498c0 1.167.334 1.43 1.452 1.43h.738a.678.678 0 0 1 0 1.356zm13.52-5.64h-9.878c.214 2.714 1.976 4.7 4.57 4.7a4.302 4.302 0 0 0 3.499-1.643.623.623 0 0 1 .571-.333.727.727 0 0 1 .737.643c0 .214 0 .262-.452.785a5.616 5.616 0 0 1-4.355 1.904c-3.833 0-5.975-3.142-5.975-6.736 0-3.57 2.142-6.712 5.975-6.712s5.975 3.165 5.975 6.712a.721.721 0 0 1-.667.69zm-5.308-6.046c-2.856 0-4.356 2.2-4.57 4.7h9.164c-.214-2.714-1.976-4.7-4.594-4.7zm21.185 11.687h-.023a2.466 2.466 0 0 1-2.357-1.856 5.399 5.399 0 0 1-4.617 2.261c-3.88 0-5.975-3.2-5.975-6.736 0-3.594 2.142-6.712 5.975-6.712a5.44 5.44 0 0 1 4.617 2.237v-1.167a.671.671 0 0 1 .69-.666.65.65 0 0 1 .667.666v9.594c0 1.523 1.714.57 1.714 1.713a.655.655 0 0 1-.69.667zm-6.998-11.687c-2.8 0-4.618 2.26-4.618 5.355s1.8 5.38 4.618 5.38c2.832 0 4.617-2.285 4.617-5.38s-1.785-5.355-4.617-5.355zm25.3 11.687a.65.65 0 0 1-.666-.667v-7.998a3.035 3.035 0 0 0-6.07-.023v8.02a.65.65 0 0 1-.666.667.669.669 0 0 1-.69-.667v-7.998a3.023 3.023 0 0 0-6.046-.023v8.02a.679.679 0 0 1-1.357 0V354.77a.679.679 0 0 1 1.357 0v.144a4.324 4.324 0 0 1 3.022-1.214 4.418 4.418 0 0 1 3.714 2.022 4.394 4.394 0 0 1 8.093 2.333v8.02a.669.669 0 0 1-.69.667zm7.782.453c-1.43 0-3.833-.5-4.666-1.88a.576.576 0 0 1-.095-.356.649.649 0 0 1 1.214-.381 4.536 4.536 0 0 0 3.547 1.262c2.3 0 3.476-.762 3.476-2.3 0-3.594-7.8-1.7-7.8-6.45 0-2.404 2.404-3.333 4.57-3.333a6.45 6.45 0 0 1 4.095 1.381.666.666 0 0 1 .214.452.771.771 0 0 1-.737.714.626.626 0 0 1-.452-.19 4.762 4.762 0 0 0-3.119-.999c-2.094 0-3.213.8-3.213 1.976 0 3.332 7.808 1.57 7.808 6.45 0 2.714-2.38 3.666-4.832 3.666z"/></g><path d="M902.722 569.078l8.17-8.17 8.17 8.17-8.17 8.17zm-2.22 18.56l8.17-8.17-8.17-8.17-8.17 8.17zm-10.4 10.4l8.17-8.17-8.17-8.17-8.17 8.17zm-10.4 10.4l8.17-8.17-8.17-8.17-8.17 8.17zm-10.4 10.4l8.17-8.17-8.17-8.17-8.17 8.17zm-10.4 10.4l8.17-8.17-8.17-8.17-8.17 8.17zm-10.4 10.4l8.17-8.17-8.17-8.17-8.17 8.17zm-10.4 10.4l8.17-8.17-8.17-8.17-8.17 8.17zm-10.4 10.4l8.17-8.17-8.17-8.17-8.17 8.17zm-10.4 10.4l8.17-8.17-8.17-8.17-8.17 8.17zm-10.4 10.4l8.17-8.17-8.17-8.17-8.17 8.17zm-10.4 10.4l8.17-8.17-8.17-8.17-8.17 8.17zm124.68-103.9l8.17-8.17-8.17-8.17-8.17 8.17zm-10.4 10.4l8.17-8.17-8.17-8.17-8.17 8.17zm-10.4 10.4l8.17-8.17-8.17-8.17-8.17 8.17zm-10.4 10.4l8.17-8.17-8.17-8.17-8.17 8.17zm-10.4 10.4l8.17-8.17-8.17-8.17-8.17 8.17zm-10.4 10.4l8.17-8.17-8.17-8.17-8.17 8.17zm-10.4 10.4l8.17-8.17-8.17-8.17-8.17 8.17zm-10.4 10.4l8.17-8.17-8.17-8.17-8.17 8.17zm-10.4 10.4l8.17-8.17-8.17-8.17-8.17 8.17zm-10.4 10.4l8.17-8.17-8.17-8.17-8.17 8.17zm-10.4 10.4l8.17-8.17-8.17-8.17-8.17 8.17zm-10.4 10.4l8.17-8.17-8.17-8.17-8.17 8.17zm124.68-103.9l8.17-8.17-8.17-8.17-8.17 8.17zm-10.4 10.4l8.17-8.17-8.17-8.17-8.17 8.17zm-10.4 10.4l8.17-8.17-8.17-8.17-8.17 8.17zm-10.4 10.4l8.17-8.17-8.17-8.17-8.17 8.17zm-10.4 10.4l8.17-8.17-8.17-8.17-8.17 8.17zm-10.4 10.4l8.17-8.17-8.17-8.17-8.17 8.17zm-10.4 10.4l8.17-8.17-8.17-8.17-8.17 8.17zm-10.4 10.4l8.17-8.17-8.17-8.17-8.17 8.17zm-10.4 10.4l8.17-8.17-8.17-8.17-8.17 8.17zm-10.4 10.4l8.17-8.17-8.17-8.17-8.17 8.17zm-10.4 10.4l8.17-8.17-8.17-8.17-8.17 8.17zm-10.4 10.4l8.17-8.17-8.17-8.17-8.17 8.17zm124.68-103.9l8.17-8.17-8.17-8.17-8.17 8.17zm-10.4 10.4l8.17-8.17-8.17-8.17-8.17 8.17zm-10.4 10.4l8.17-8.17-8.17-8.17-8.17 8.17zm-10.4 10.4l8.17-8.17-8.17-8.17-8.17 8.17zm-10.4 10.4l8.17-8.17-8.17-8.17-8.17 8.17zm-10.4 10.4l8.17-8.17-8.17-8.17-8.17 8.17zm-10.4 10.4l8.17-8.17-8.17-8.17-8.17 8.17zm-10.4 10.4l8.17-8.17-8.17-8.17-8.17 8.17zm-10.4 10.4l8.17-8.17-8.17-8.17-8.17 8.17zm-10.4 10.4l8.17-8.17-8.17-8.17-8.17 8.17zm-10.4 10.4l8.17-8.17-8.17-8.17-8.17 8.17zm-10.4 10.4l8.17-8.17-8.17-8.17-8.17 8.17zm124.68-103.9l8.17-8.17-8.17-8.17-8.17 8.17zm-10.4 10.4l8.17-8.17-8.17-8.17-8.17 8.17zm-10.4 10.4l8.17-8.17-8.17-8.17-8.17 8.17zm-10.4 10.4l8.17-8.17-8.17-8.17-8.17 8.17zm-10.4 10.4l8.17-8.17-8.17-8.17-8.17 8.17zm-10.4 10.4l8.17-8.17-8.17-8.17-8.17 8.17zm-10.4 10.4l8.17-8.17-8.17-8.17-8.17 8.17zm-10.4 10.4l8.17-8.17-8.17-8.17-8.17 8.17zm-10.4 10.4l8.17-8.17-8.17-8.17-8.17 8.17zm-10.4 10.4l8.17-8.17-8.17-8.17-8.17 8.17zm-10.4 10.4l8.17-8.17-8.17-8.17-8.17 8.17zm-10.4 10.4l8.17-8.17-8.17-8.17-8.17 8.17zm124.68-103.9l8.17-8.17-8.17-8.17-8.17 8.17zm-10.4 10.4l8.17-8.17-8.17-8.17-8.17 8.17zm-10.4 10.4l8.17-8.17-8.17-8.17-8.17 8.17zm-10.4 10.4l8.17-8.17-8.17-8.17-8.17 8.17zm-10.4 10.4l8.17-8.17-8.17-8.17-8.17 8.17zm-10.4 10.4l8.17-8.17-8.17-8.17-8.17 8.17zm-10.4 10.4l8.17-8.17-8.17-8.17-8.17 8.17zm-10.4 10.4l8.17-8.17-8.17-8.17-8.17 8.17zm-10.4 10.4l8.17-8.17-8.17-8.17-8.17 8.17zm-10.4 10.4l8.17-8.17-8.17-8.17-8.17 8.17zm-10.4 10.4l8.17-8.17-8.17-8.17-8.17 8.17zm-10.4 10.4l8.17-8.17-8.17-8.17-8.17 8.17zm124.68-103.9l8.17-8.17-8.17-8.17-8.17 8.17zm-10.4 10.4l8.17-8.17-8.17-8.17-8.17 8.17zm-10.4 10.4l8.17-8.17-8.17-8.17-8.17 8.17zm-10.4 10.4l8.17-8.17-8.17-8.17-8.17 8.17zm-10.4 10.4l8.17-8.17-8.17-8.17-8.17 8.17zm-10.4 10.4l8.17-8.17-8.17-8.17-8.17 8.17zm-10.4 10.4l8.17-8.17-8.17-8.17-8.17 8.17zm-10.4 10.4l8.17-8.17-8.17-8.17-8.17 8.17zm-10.4 10.4l8.17-8.17-8.17-8.17-8.17 8.17zm-10.4 10.4l8.17-8.17-8.17-8.17-8.17 8.17zm-10.4 10.4l8.17-8.17-8.17-8.17-8.17 8.17zm-10.4 10.4l8.17-8.17-8.17-8.17-8.17 8.17zm124.68-103.9l8.17-8.17-8.17-8.17-8.17 8.17zm-10.4 10.4l8.17-8.17-8.17-8.17-8.17 8.17zm-10.4 10.4l8.17-8.17-8.17-8.17-8.17 8.17zm-10.4 10.4l8.17-8.17-8.17-8.17-8.17 8.17zm-10.4 10.4l8.17-8.17-8.17-8.17-8.17 8.17zm-10.4 10.4l8.17-8.17-8.17-8.17-8.17 8.17zm-10.4 10.4l8.17-8.17-8.17-8.17-8.17 8.17zm-10.4 10.4l8.17-8.17-8.17-8.17-8.17 8.17zm-10.4 10.4l8.17-8.17-8.17-8.17-8.17 8.17zm-10.4 10.4l8.17-8.17-8.17-8.17-8.17 8.17zm-10.4 10.4l8.17-8.17-8.17-8.17-8.17 8.17zm-10.4 10.4l8.17-8.17-8.17-8.17-8.17 8.17zm124.68-103.9l8.17-8.17-8.17-8.17-8.17 8.17zm-10.4 10.4l8.17-8.17-8.17-8.17-8.17 8.17zm-10.4 10.4l8.17-8.17-8.17-8.17-8.17 8.17zm-10.4 10.4l8.17-8.17-8.17-8.17-8.17 8.17zm-10.4 10.4l8.17-8.17-8.17-8.17-8.17 8.17zm-10.4 10.4l8.17-8.17-8.17-8.17-8.17 8.17zm-10.4 10.4l8.17-8.17-8.17-8.17-8.17 8.17zm-10.4 10.4l8.17-8.17-8.17-8.17-8.17 8.17zm-10.4 10.4l8.17-8.17-8.17-8.17-8.17 8.17zm-10.4 10.4l8.17-8.17-8.17-8.17-8.17 8.17zm-10.4 10.4l8.17-8.17-8.17-8.17-8.17 8.17zm-10.4 10.4l8.17-8.17-8.17-8.17-8.17 8.17zm124.68-103.9l8.17-8.17-8.17-8.17-8.17 8.17zm-10.4 10.4l8.17-8.17-8.17-8.17-8.17 8.17zm-10.4 10.4l8.17-8.17-8.17-8.17-8.17 8.17zm-10.4 10.4l8.17-8.17-8.17-8.17-8.17 8.17zm-10.4 10.4l8.17-8.17-8.17-8.17-8.17 8.17zm-10.4 10.4l8.17-8.17-8.17-8.17-8.17 8.17zm-10.4 10.4l8.17-8.17-8.17-8.17-8.17 8.17zm-10.4 10.4l8.17-8.17-8.17-8.17-8.17 8.17zm-10.4 10.4l8.17-8.17-8.17-8.17-8.17 8.17zm-10.4 10.4l8.17-8.17-8.17-8.17-8.17 8.17zm-10.4 10.4l8.17-8.17-8.17-8.17-8.17 8.17zm-10.4 10.4l8.17-8.17-8.17-8.17-8.17 8.17zm124.68-103.9l8.17-8.17-8.17-8.17-8.17 8.17zm-10.4 10.4l8.17-8.17-8.17-8.17-8.17 8.17zm-10.4 10.4l8.17-8.17-8.17-8.17-8.17 8.17zm41.56 0l8.17-8.17-8.17-8.17-8.17 8.17zm-10.4 10.4l8.17-8.17-8.17-8.17-8.17 8.17zm-10.4 10.4l8.17-8.17-8.17-8.17-8.17 8.17zm-31.17-10.4l8.17-8.17-8.17-8.17-8.17 8.17zm-10.4 10.4l8.17-8.17-8.17-8.17-8.17 8.17zm-10.4 10.4l8.17-8.17-8.17-8.17-8.17 8.17zm-10.4 10.4l8.17-8.17-8.17-8.17-8.17 8.17zm-10.4 10.4l8.17-8.17-8.17-8.17-8.17 8.17zm-10.4 10.4l8.17-8.17-8.17-8.17-8.17 8.17zm-10.4 10.4l8.17-8.17-8.17-8.17-8.17 8.17zm-10.4 10.4l8.17-8.17-8.17-8.17-8.17 8.17zm-10.4 10.4l8.17-8.17-8.17-8.17-8.17 8.17zm124.68-103.9l8.17-8.17-8.17-8.17-8.17 8.17zm-10.4 10.4l8.17-8.17-8.17-8.17-8.17 8.17zm-10.4 10.4l8.17-8.17-8.17-8.17-8.17 8.17zm-10.4 10.4l8.17-8.17-8.17-8.17-8.17 8.17zm-10.4 10.4l8.17-8.17-8.17-8.17-8.17 8.17zm-10.4 10.4l8.17-8.17-8.17-8.17-8.17 8.17zm-10.4 10.4l8.17-8.17-8.17-8.17-8.17 8.17zm-10.4 10.4l8.17-8.17-8.17-8.17-8.17 8.17zm-10.4 10.4l8.17-8.17-8.17-8.17-8.17 8.17zm-10.4 10.4l8.17-8.17-8.17-8.17-8.17 8.17zm-10.4 10.4l8.17-8.17-8.17-8.17-8.17 8.17zm-10.4 10.4l8.17-8.17-8.17-8.17-8.17 8.17z" fill="url(#F)"/><path d="M884.15 655.28l.668-.5h3.952c.408 0 .593.187.557.557v35.18c-.075.4.092.594.5.557h7.236q.612-.1.5.5v2.728c.036.4-.13.575-.5.5H877.36c-.4.074-.594-.092-.557-.5v-2.728c-.037-.408.147-.575.557-.5h7.515c.37.037.537-.147.5-.557v-29.67q-.056-.668-.557-.1a24.43 24.43 0 0 1-7.626 4.453q-.447.223-.5-.278v-2.84a.54.54 0 0 1 .39-.501 13.992 13.992 0 0 0 7.069-6.29h0zm34.07 26.05c-.037.4.13.594.5.557h3.396q.612-.1.5.5v2.728c.074.4-.093.594-.5.557h-3.396q-.557-.1-.5.5v8.016q.1.724-.5.612h-2.84q-.557.1-.5-.612v-8.016q.1-.612-.5-.5h-12.914c-.37.037-.538-.147-.5-.557V681.6l.223-.946 11.856-25.438a.734.734 0 0 1 .779-.445h4.397c.408-.036.575.148.5.557zm-13.972 0c-.223.4-.1.594.334.557h9.296c.408.037.575-.147.5-.557v-20.818c-.075-.445-.223-.48-.445-.1zm42.644-21.15a72.424 72.424 0 0 0-7.459 16.755 73.506 73.506 0 0 0-2.783 17.479c.074.48-.1.687-.557.612h-3.173q-.614-.056-.5-.612a71.581 71.581 0 0 1 3.117-17.701 73.55 73.55 0 0 1 7.626-17.145q.5-.78-.056-.78h-17.144c-.4.075-.576-.1-.5-.557v-2.95q-.113-.612.5-.5h20.65q.612-.1.5.5v4.12l-.223.78z" opacity=".8" stroke="#000" stroke-miterlimit="10"/><g fill="#fff"><path d="M57.3 842.9a1.881 1.881 0 1 1 1.882-1.882A1.86 1.86 0 0 1 57.3 842.9zm0 20.693a.908.908 0 0 1-.957-.924V847a.909.909 0 0 1 .957-.924.899.899 0 0 1 .925.924v15.678a.883.883 0 0 1-.925.924zm19.077.01a.928.928 0 0 1-.957-.924v-9.638a5.644 5.644 0 1 0-11.287 0v9.638a.941.941 0 0 1-1.882 0V847a.941.941 0 0 1 1.882 0v1.057a7.529 7.529 0 0 1 13.169 4.983v9.638a.92.92 0 0 1-.925.924zm10.693 0h-1.023c-2.607 0-3.895-1.287-3.895-3.86V847.96h-1.684a.941.941 0 0 1 0-1.882h1.684v-5.05a.928.928 0 0 1 .957-.924.901.901 0 0 1 .924.924v5.05h3.037a.941.941 0 0 1 0 1.882h-3.037v11.782c0 1.617.463 1.98 2.014 1.98h1.023a.941.941 0 0 1 0 1.881zm10.8-15.908a5.642 5.642 0 0 0-5.645 5.644v9.34a.941.941 0 0 1-1.881 0V847a.941.941 0 0 1 1.881 0v1.354a7.537 7.537 0 0 1 5.645-2.541.941.941 0 1 1 0 1.881z"/><use xlink:href="#U"/><path d="M135.346 864.164a7.488 7.488 0 0 1-6.402-3.136v8.548a.941.941 0 1 1-1.881 0V847a.941.941 0 0 1 1.881 0v1.618a7.545 7.545 0 0 1 6.402-3.103c5.314 0 8.285 4.357 8.285 9.308 0 4.984-2.97 9.34-8.285 9.34zm0-16.767c-3.927 0-6.402 3.136-6.402 7.426s2.476 7.46 6.402 7.46 6.403-3.168 6.403-7.46-2.476-7.426-6.403-7.426zm19.074.298a5.641 5.641 0 0 0-5.644 5.644v9.34a.941.941 0 0 1-1.882 0V847a.941.941 0 0 1 1.882 0v1.354a7.536 7.536 0 0 1 5.644-2.541.941.941 0 1 1 0 1.881z"/><use xlink:href="#U" x="56.56"/><path d="M183.724 871.128c-2.806 0-6.767-1.056-6.767-2.244a1.048 1.048 0 0 1 .957-1.057 11.958 11.958 0 0 1 1.75.792 12.368 12.368 0 0 0 4.06.627c4.225 0 6.402-2.08 6.402-6.14v-2.3a7.877 7.877 0 0 1-6.402 2.806c-5.215 0-8.284-3.696-8.284-8.78 0-4.95 2.97-9.308 8.284-9.308a7.543 7.543 0 0 1 6.402 3.104v-1.585a.941.941 0 0 1 1.882 0v16.073c0 5.248-3.136 8.02-8.284 8.02zm0-23.73c-3.895 0-6.403 3.136-6.403 7.426 0 4.258 2.344 6.898 6.403 6.898s6.402-2.64 6.402-6.898c0-4.3-2.476-7.426-6.402-7.426zm19.833.297a5.641 5.641 0 0 0-5.645 5.644v9.34a.941.941 0 0 1-1.881 0V847a.941.941 0 0 1 1.881 0v1.354a7.537 7.537 0 0 1 5.645-2.541.941.941 0 1 1 0 1.881z"/><use xlink:href="#V"/><path d="M247.508 863.603a.901.901 0 0 1-.925-.924v-11.1a4.208 4.208 0 0 0-8.416-.033v11.123a.901.901 0 0 1-.925.924.928.928 0 0 1-.957-.924v-11.1a4.192 4.192 0 0 0-8.383-.033v11.123a.941.941 0 0 1-1.881 0V847a.941.941 0 0 1 1.881 0v.198a6.001 6.001 0 0 1 4.191-1.684 6.119 6.119 0 0 1 5.148 2.806 6.093 6.093 0 0 1 11.223 3.234v11.123a.928.928 0 0 1-.957.924zm10.194.627c-1.98 0-5.312-.692-6.47-2.606a.8.8 0 0 1-.132-.496.901.901 0 0 1 1.684-.527c1.188 1.452 3.3 1.75 4.917 1.75 3.202 0 4.82-1.056 4.82-3.2 0-4.984-10.825-2.344-10.825-8.944 0-3.334 3.333-4.62 6.336-4.62 1.717 0 4.357.594 5.678 1.914a.928.928 0 0 1 .297.627 1.069 1.069 0 0 1-1.023.99.873.873 0 0 1-.627-.264 6.598 6.598 0 0 0-4.324-1.386c-2.904 0-4.455 1.122-4.455 2.74 0 4.62 10.826 2.178 10.826 8.944 0 3.763-3.3 5.082-6.7 5.082zm-191.69 11.722H65a1.459 1.459 0 0 0-1.452 1.42v2.706h2.476a.899.899 0 0 1 .924.924.928.928 0 0 1-.924.958h-2.476v14.72a.901.901 0 0 1-.924.924.881.881 0 0 1-.924-.924v-14.72h-2.277a.941.941 0 0 1 0-1.882H61.7v-2.706a3.274 3.274 0 0 1 3.267-3.268h1.057a.937.937 0 0 1 .957.957.885.885 0 0 1-.957.891z"/><use xlink:href="#W"/><path d="M96.076 881.695a5.641 5.641 0 0 0-5.644 5.644v9.34a.941.941 0 0 1-1.882 0V881a.941.941 0 0 1 1.882 0v1.354a7.533 7.533 0 0 1 5.644-2.541.941.941 0 1 1 0 1.881zm24.354-.297l-8.944 21.156c-.66 1.55-2.014 1.98-3.532 1.98h-1.45a.941.941 0 0 1 0-1.882h1.45c.727 0 1.485-.033 1.783-.792l1.88-4.488-6.832-15.975a1.042 1.042 0 0 1-.066-.429.924.924 0 0 1 .957-.892.849.849 0 0 1 .826.562l6.14 14.324 6.072-14.324a.861.861 0 0 1 .858-.562.895.895 0 0 1 .924.892 1.056 1.056 0 0 1-.065.429zm9.236 16.766c-5.313 0-8.284-4.356-8.284-9.34 0-4.95 2.97-9.308 8.284-9.308s8.284 4.357 8.284 9.308c0 4.984-2.97 9.34-8.284 9.34zm0-16.767c-3.895 0-6.403 3.136-6.403 7.426s2.5 7.46 6.403 7.46c3.928 0 6.402-3.168 6.402-7.46s-2.475-7.426-6.402-7.426z"/><use xlink:href="#X"/><path d="M174.118 897.603a.928.928 0 0 1-.957-.924v-9.638a5.644 5.644 0 1 0-11.287 0v9.638a.941.941 0 0 1-1.882 0V881a.941.941 0 0 1 1.882 0v1.057a7.528 7.528 0 0 1 13.168 4.983v9.638a.919.919 0 0 1-.924.924zm12.175 7.525c-2.805 0-6.766-1.056-6.766-2.244a1.048 1.048 0 0 1 .957-1.057 11.955 11.955 0 0 1 1.749.792 12.378 12.378 0 0 0 4.06.627c4.225 0 6.403-2.08 6.403-6.14v-2.3a7.879 7.879 0 0 1-6.403 2.806c-5.215 0-8.284-3.696-8.284-8.78 0-4.95 2.97-9.308 8.284-9.308a7.546 7.546 0 0 1 6.403 3.104v-1.585a.941.941 0 0 1 1.881 0v16.073c0 5.248-3.136 8.02-8.284 8.02zm0-23.73c-3.895 0-6.402 3.136-6.402 7.426 0 4.258 2.343 6.898 6.402 6.898s6.403-2.64 6.403-6.898c0-4.3-2.476-7.426-6.403-7.426zm27.257 23.73c-2.806 0-6.766-1.056-6.766-2.244a1.048 1.048 0 0 1 .957-1.057 11.955 11.955 0 0 1 1.749.792 12.373 12.373 0 0 0 4.06.627c4.225 0 6.402-2.08 6.402-6.14v-2.3a7.876 7.876 0 0 1-6.402 2.806c-5.215 0-8.284-3.696-8.284-8.78 0-4.95 2.97-9.308 8.284-9.308a7.543 7.543 0 0 1 6.402 3.104v-1.585a.941.941 0 0 1 1.882 0v16.073c0 5.248-3.136 8.02-8.284 8.02zm0-23.73c-3.895 0-6.403 3.136-6.403 7.426 0 4.258 2.344 6.898 6.403 6.898s6.402-2.64 6.402-6.898c0-4.3-2.475-7.426-6.402-7.426z"/><use xlink:href="#Y"/><path d="M239.29 881.695a5.642 5.642 0 0 0-5.645 5.644v9.34a.941.941 0 0 1-1.881 0V881a.941.941 0 0 1 1.881 0v1.354a7.54 7.54 0 0 1 5.645-2.541.941.941 0 1 1 0 1.881z"/><use xlink:href="#Z"/><path d="M254.075 898.23c-1.98 0-5.314-.692-6.47-2.606a.795.795 0 0 1-.133-.496.901.901 0 0 1 1.684-.527c1.188 1.452 3.3 1.75 4.918 1.75 3.2 0 4.818-1.056 4.818-3.2 0-4.984-10.826-2.344-10.826-8.944 0-3.334 3.334-4.62 6.338-4.62 1.716 0 4.355.594 5.676 1.914a.921.921 0 0 1 .298.627 1.069 1.069 0 0 1-1.023.99.872.872 0 0 1-.627-.264 6.597 6.597 0 0 0-4.323-1.386c-2.904 0-4.456 1.122-4.456 2.74 0 4.62 10.825 2.178 10.825 8.944 0 3.763-3.3 5.082-6.7 5.082zm527.575-56.278h-1.023a1.459 1.459 0 0 0-1.452 1.42v2.706h2.476a.899.899 0 0 1 .924.924.928.928 0 0 1-.924.958h-2.476v14.72a.901.901 0 0 1-.925.924.881.881 0 0 1-.924-.924v-14.72h-2.277a.941.941 0 0 1 0-1.882h2.277v-2.706a3.275 3.275 0 0 1 3.268-3.268h1.057a.937.937 0 0 1 .957.957.885.885 0 0 1-.957.891z"/><use xlink:href="#a"/><use xlink:href="#W" x="734.708" y="-34"/><path d="M829.3 863.603h-1.023c-2.607 0-3.895-1.287-3.895-3.86V847.96H822.7a.941.941 0 0 1 0-1.882h1.683v-5.05a.928.928 0 0 1 .957-.924.901.901 0 0 1 .925.924v5.05h3.036a.941.941 0 0 1 0 1.882h-3.036v11.782c0 1.617.462 1.98 2.013 1.98h1.023a.941.941 0 0 1 0 1.881zm11.55.56a7.487 7.487 0 0 1-6.402-3.136v1.65a.941.941 0 0 1-1.882 0v-21.65a.941.941 0 0 1 1.882 0v7.592a7.543 7.543 0 0 1 6.402-3.103c5.313 0 8.284 4.357 8.284 9.308 0 4.984-2.97 9.34-8.284 9.34zm0-16.767c-3.927 0-6.402 3.136-6.402 7.426s2.476 7.46 6.402 7.46 6.403-3.168 6.403-7.46-2.476-7.426-6.403-7.426z"/><use xlink:href="#V" x="646.902"/><use xlink:href="#b"/><use xlink:href="#b" x="6.566"/><path d="M906.914 861.656a7.665 7.665 0 0 1-5.908 2.509c-5.313 0-8.283-4.356-8.283-9.34 0-4.95 2.97-9.308 8.283-9.308a7.665 7.665 0 0 1 5.908 2.509.872.872 0 0 1 .264.627 1.034 1.034 0 0 1-.957.99.973.973 0 0 1-.693-.33 5.818 5.818 0 0 0-4.521-1.914c-3.895 0-6.402 3.136-6.402 7.426s2.508 7.46 6.402 7.46a5.928 5.928 0 0 0 4.521-1.914.937.937 0 0 1 1.65.627.943.943 0 0 1-.264.66zm18.448-5.876h-13.697c.297 3.763 2.74 6.502 6.337 6.502a5.965 5.965 0 0 0 4.852-2.277.868.868 0 0 1 .792-.462 1.009 1.009 0 0 1 1.023.892c0 .297 0 .362-.627 1.1a7.792 7.792 0 0 1-6.04 2.641c-5.313 0-8.284-4.356-8.284-9.34 0-4.95 2.97-9.308 8.284-9.308s8.284 4.4 8.284 9.308a.999.999 0 0 1-.924.957zm-7.36-8.383c-3.96 0-6.04 3.036-6.337 6.502h12.707c-.297-3.763-2.74-6.502-6.37-6.502zm25.674 16.206a.928.928 0 0 1-.957-.924v-9.638a5.644 5.644 0 0 0-11.288 0v9.638a.941.941 0 0 1-1.881 0V847a.941.941 0 0 1 1.881 0v1.057a7.529 7.529 0 0 1 13.169 4.983v9.638a.92.92 0 0 1-.924.924zm10.69 0h-1.022c-2.607 0-3.896-1.287-3.896-3.86V847.96h-1.683a.941.941 0 0 1 0-1.882h1.683v-5.05a.928.928 0 0 1 .958-.924.901.901 0 0 1 .924.924v5.05h3.036a.941.941 0 0 1 0 1.882h-3.036v11.782c0 1.617.462 1.98 2.014 1.98h1.022a.941.941 0 0 1 0 1.881z"/><use xlink:href="#c"/><path d="M981.983 855.78h-13.697c.297 3.763 2.74 6.502 6.337 6.502a5.965 5.965 0 0 0 4.852-2.277.868.868 0 0 1 .792-.462 1.01 1.01 0 0 1 1.023.892c0 .297 0 .362-.627 1.1a7.794 7.794 0 0 1-6.04 2.641c-5.313 0-8.284-4.356-8.284-9.34 0-4.95 2.97-9.308 8.284-9.308s8.284 4.4 8.284 9.308a1 1 0 0 1-.924.957zm-7.36-8.383c-3.96 0-6.04 3.036-6.337 6.502h12.707c-.298-3.763-2.74-6.502-6.37-6.502zm17.06 16.833c-1.98 0-5.312-.692-6.47-2.606a.8.8 0 0 1-.132-.496.901.901 0 0 1 1.684-.527c1.188 1.452 3.3 1.75 4.917 1.75 3.202 0 4.82-1.056 4.82-3.2 0-4.984-10.825-2.344-10.825-8.944 0-3.334 3.333-4.62 6.336-4.62 1.717 0 4.357.594 5.678 1.914a.928.928 0 0 1 .297.627 1.069 1.069 0 0 1-1.023.99.872.872 0 0 1-.627-.264 6.598 6.598 0 0 0-4.324-1.386c-2.904 0-4.455 1.122-4.455 2.74 0 4.62 10.826 2.178 10.826 8.944 0 3.763-3.3 5.082-6.7 5.082zm22.968-22.278h-1.023a1.459 1.459 0 0 0-1.453 1.42v2.706h2.477a.899.899 0 0 1 .924.924.928.928 0 0 1-.924.958h-2.477v14.72a.9.9 0 0 1-.924.924.881.881 0 0 1-.924-.924v-14.72h-2.277a.941.941 0 0 1 0-1.882h2.277v-2.706a3.275 3.275 0 0 1 3.268-3.268h1.057a.937.937 0 0 1 .957.957.885.885 0 0 1-.957.891z"/><use xlink:href="#a" x="233.003"/><use xlink:href="#c" x="79.554"/><path d="M794.88 897.603h-.033a3.418 3.418 0 0 1-3.268-2.574 7.487 7.487 0 0 1-6.402 3.136c-5.38 0-8.284-4.423-8.284-9.34 0-4.983 2.97-9.308 8.284-9.308a7.543 7.543 0 0 1 6.402 3.104V881a.931.931 0 0 1 .958-.924.901.901 0 0 1 .924.924v13.302c0 2.1 2.376.792 2.376 2.376a.908.908 0 0 1-.957.924zm-9.703-16.205c-3.895 0-6.403 3.136-6.403 7.426s2.5 7.46 6.403 7.46c3.928 0 6.402-3.168 6.402-7.46s-2.475-7.426-6.402-7.426zm27.885 16.205a.928.928 0 0 1-.957-.924v-1.65a7.49 7.49 0 0 1-6.403 3.136c-5.313 0-8.284-4.356-8.284-9.34 0-4.95 2.97-9.308 8.284-9.308a7.546 7.546 0 0 1 6.403 3.104v-7.592a.941.941 0 0 1 1.881 0v21.65a.92.92 0 0 1-.924.924zm-7.36-16.205c-3.895 0-6.402 3.136-6.402 7.426s2.508 7.46 6.402 7.46c3.928 0 6.403-3.168 6.403-7.46s-2.476-7.426-6.403-7.426z"/><use xlink:href="#X" x="676.795"/><use xlink:href="#Z" x="594.791"/><path d="M849.393 897.603h-1.023c-2.607 0-3.895-1.287-3.895-3.86V881.96h-1.683a.941.941 0 0 1 0-1.882h1.683v-5.05a.928.928 0 0 1 .957-.924.901.901 0 0 1 .925.924v5.05h3.036a.941.941 0 0 1 0 1.882h-3.036v11.782c0 1.617.462 1.98 2.013 1.98h1.023a.941.941 0 0 1 0 1.881zm8.777.627c-1.98 0-5.313-.692-6.47-2.606a.8.8 0 0 1-.132-.496.901.901 0 0 1 1.684-.527c1.188 1.452 3.3 1.75 4.917 1.75 3.202 0 4.82-1.056 4.82-3.2 0-4.984-10.825-2.344-10.825-8.944 0-3.334 3.333-4.62 6.336-4.62 1.717 0 4.357.594 5.678 1.914a.928.928 0 0 1 .297.627 1.069 1.069 0 0 1-1.023.99.872.872 0 0 1-.627-.264 6.598 6.598 0 0 0-4.324-1.386c-2.904 0-4.455 1.122-4.455 2.74 0 4.62 10.825 2.178 10.825 8.944 0 3.763-3.3 5.082-6.7 5.082z"/><use xlink:href="#a" x="89.986" y="34"/><path d="M900.2 875.952h-1.022a1.459 1.459 0 0 0-1.452 1.42v2.706h2.475a.899.899 0 0 1 .925.924.928.928 0 0 1-.925.958h-2.475v14.72a.901.901 0 0 1-.924.924.881.881 0 0 1-.925-.924v-14.72H893.6a.941.941 0 0 1 0-1.882h2.277v-2.706a3.275 3.275 0 0 1 3.268-3.268h1.056a.937.937 0 0 1 .958.957.885.885 0 0 1-.958.891zm28.118 21.65h-.032a3.417 3.417 0 0 1-3.268-2.574 7.49 7.49 0 0 1-6.403 3.136c-5.38 0-8.284-4.423-8.284-9.34 0-4.983 2.97-9.308 8.284-9.308a7.546 7.546 0 0 1 6.403 3.104V881a.93.93 0 0 1 .957-.924.901.901 0 0 1 .924.924v13.302c0 2.1 2.376.792 2.376 2.376a.908.908 0 0 1-.957.924zm-9.703-16.205c-3.895 0-6.402 3.136-6.402 7.426s2.508 7.46 6.402 7.46c3.928 0 6.403-3.168 6.403-7.46s-2.476-7.426-6.403-7.426z"/><use xlink:href="#d"/><use xlink:href="#Z" x="696.197"/><path d="M969.412 897.603h-.033a3.417 3.417 0 0 1-3.268-2.574 7.487 7.487 0 0 1-6.402 3.136c-5.38 0-8.284-4.423-8.284-9.34 0-4.983 2.97-9.308 8.284-9.308a7.543 7.543 0 0 1 6.402 3.104V881a.931.931 0 0 1 .957-.924.901.901 0 0 1 .925.924v13.302c0 2.1 2.376.792 2.376 2.376a.908.908 0 0 1-.957.924zm-9.703-16.205c-3.895 0-6.403 3.136-6.403 7.426s2.5 7.46 6.403 7.46c3.928 0 6.402-3.168 6.402-7.46s-2.475-7.426-6.402-7.426zm21.285 16.766a7.487 7.487 0 0 1-6.402-3.136v1.65a.941.941 0 0 1-1.882 0v-21.65a.941.941 0 0 1 1.882 0v7.592a7.543 7.543 0 0 1 6.402-3.104c5.313 0 8.284 4.357 8.284 9.308 0 4.984-2.97 9.34-8.284 9.34zm0-16.767c-3.927 0-6.402 3.136-6.402 7.426s2.476 7.46 6.402 7.46 6.403-3.168 6.403-7.46-2.476-7.426-6.403-7.426z"/><use xlink:href="#Y" x="766.684"/><use xlink:href="#d" x="66.823"/><use xlink:href="#e"/><path d="M1016.963 897.603h-1.023c-2.607 0-3.895-1.287-3.895-3.86V881.96h-1.684a.941.941 0 0 1 0-1.882h1.684v-5.05a.927.927 0 0 1 .957-.924.901.901 0 0 1 .924.924v5.05h3.037a.941.941 0 0 1 0 1.882h-3.037v11.782c0 1.617.462 1.98 2.014 1.98h1.023a.941.941 0 0 1 0 1.881z"/><use xlink:href="#e" x="15.213"/><path d="M1041.02 889.78h-13.697c.298 3.763 2.74 6.502 6.337 6.502a5.965 5.965 0 0 0 4.852-2.277.869.869 0 0 1 .793-.462 1.009 1.009 0 0 1 1.022.892c0 .297 0 .362-.627 1.1a7.793 7.793 0 0 1-6.04 2.641c-5.313 0-8.284-4.356-8.284-9.34 0-4.95 2.97-9.308 8.284-9.308s8.284 4.4 8.284 9.308a.999.999 0 0 1-.924.957zm-7.36-8.383c-3.96 0-6.04 3.036-6.337 6.502h12.707c-.297-3.763-2.74-6.502-6.37-6.502zm17.06 16.833c-1.98 0-5.313-.692-6.47-2.606a.795.795 0 0 1-.133-.496.901.901 0 0 1 1.684-.527c1.188 1.452 3.3 1.75 4.918 1.75 3.2 0 4.818-1.056 4.818-3.2 0-4.984-10.825-2.344-10.825-8.944 0-3.334 3.333-4.62 6.337-4.62 1.717 0 4.356.594 5.677 1.914a.925.925 0 0 1 .298.627 1.07 1.07 0 0 1-1.023.99.871.871 0 0 1-.627-.264 6.6 6.6 0 0 0-4.324-1.386c-2.904 0-4.455 1.122-4.455 2.74 0 4.62 10.825 2.178 10.825 8.944 0 3.763-3.3 5.082-6.7 5.082z"/></g></svg>