<svg xmlns="http://www.w3.org/2000/svg" xmlns:xlink="http://www.w3.org/1999/xlink" viewBox="0 0 1080 1080" xmlns:v="https://vecta.io/nano"><defs><linearGradient id="A" x1="540" y1="1080" x2="540" gradientUnits="userSpaceOnUse"><stop offset="0" stop-color="#ff596a"/><stop offset=".273" stop-color="#fc8145"/><stop offset=".592" stop-color="#f8a920"/><stop offset=".846" stop-color="#f6c209"/><stop offset="1" stop-color="#f5cb00"/></linearGradient><linearGradient id="B" x1="662.627" y1="106.404" x2="515.837" y2="695.148" gradientUnits="userSpaceOnUse"><stop offset="0" stop-color="#fcf2d9"/><stop offset=".161" stop-color="#fcf1d6"/><stop offset=".299" stop-color="#fbeecb"/><stop offset=".429" stop-color="#fae8b9"/><stop offset=".554" stop-color="#f8e0a0"/><stop offset=".675" stop-color="#f5d680"/><stop offset=".794" stop-color="#f2c959"/><stop offset=".908" stop-color="#eebb2b"/><stop offset="1" stop-color="#ebad00"/></linearGradient><path id="C" d="M104.756 1045.467a1.36 1.36 0 0 1-1.4-1.101 7.763 7.763 0 0 1-4.804 1.668 7.666 7.666 0 0 1-7.604-7.605v-9.24a1.434 1.434 0 0 1 2.868-.033v9.272a4.753 4.753 0 1 0 9.507 0v-9.24a1.33 1.33 0 0 1 1.4-1.468 1.364 1.364 0 0 1 1.435 1.435v14.9a1.328 1.328 0 0 1-1.401 1.4z"/><path id="D" d="M58.63 918.453q0 1.008-.028 2.24a20.336 20.336 0 0 1-.21 2.479 15.7 15.7 0 0 1-.546 2.408 6.938 6.938 0 0 1-1.036 2.071 5.039 5.039 0 0 1-1.68 1.456 5.179 5.179 0 0 1-2.492.546 5.258 5.258 0 0 1-2.506-.546 4.868 4.868 0 0 1-1.681-1.456 7.429 7.429 0 0 1-1.035-2.071 13.785 13.785 0 0 1-.547-2.408 22.211 22.211 0 0 1-.195-2.479q-.03-1.232-.028-2.24a29.875 29.875 0 0 1 .183-3.206 11.081 11.081 0 0 1 .797-3.15 6.104 6.104 0 0 1 1.793-2.408 4.931 4.931 0 0 1 3.191-.952 5.053 5.053 0 0 1 3.15.91 5.901 5.901 0 0 1 1.82 2.324 10.932 10.932 0 0 1 .84 3.136 27.726 27.726 0 0 1 .21 3.347zm-1.597 0a28.255 28.255 0 0 0-.153-2.969 9.669 9.669 0 0 0-.616-2.604 4.463 4.463 0 0 0-1.33-1.848 3.545 3.545 0 0 0-2.296-.7 3.374 3.374 0 0 0-2.45.854 5.313 5.313 0 0 0-1.316 2.101 10.138 10.138 0 0 0-.531 2.646q-.1 1.4-.098 2.52v1.792a23.552 23.552 0 0 0 .153 2.59 9.579 9.579 0 0 0 .616 2.534 5.031 5.031 0 0 0 1.33 1.918 3.286 3.286 0 0 0 2.268.77 3.385 3.385 0 0 0 2.311-.77 4.966 4.966 0 0 0 1.344-1.918 9.579 9.579 0 0 0 .616-2.534 23.552 23.552 0 0 0 .153-2.59z"/><path id="E" d="M64.994 911.847a3.039 3.039 0 0 1-.759 2.023 2.659 2.659 0 0 1-.816.621 2.21 2.21 0 0 1-.987.229 2.251 2.251 0 0 1-1.005-.229 2.655 2.655 0 0 1-.815-.621 2.978 2.978 0 0 1-.556-.914 3.134 3.134 0 0 1 0-2.22 2.978 2.978 0 0 1 .556-.914 2.539 2.539 0 0 1 .815-.612 2.326 2.326 0 0 1 1.005-.221 2.284 2.284 0 0 1 .987.221 2.543 2.543 0 0 1 .816.612 2.976 2.976 0 0 1 .555.914 3.01 3.01 0 0 1 .204 1.11zm-.93.008a2.184 2.184 0 0 0-.139-.797 1.929 1.929 0 0 0-.367-.609 1.637 1.637 0 0 0-.522-.39 1.385 1.385 0 0 0-1.208 0 1.644 1.644 0 0 0-.521.39 2.041 2.041 0 0 0-.376.609 2.227 2.227 0 0 0 0 1.594 2.041 2.041 0 0 0 .376.609 1.662 1.662 0 0 0 .521.391 1.394 1.394 0 0 0 1.208 0 1.655 1.655 0 0 0 .522-.391 1.929 1.929 0 0 0 .367-.609 2.18 2.18 0 0 0 .139-.797zm4.555-2.686a.592.592 0 0 1-.016.131l-3.12 11.264a.42.42 0 0 1-.408.343.54.54 0 0 1-.342-.131.417.417 0 0 1-.164-.343.345.345 0 0 1 .017-.131l3.118-11.263a.435.435 0 0 1 .424-.359.492.492 0 0 1 .335.139.451.451 0 0 1 .155.351zm4.587 8.57a3.013 3.013 0 0 1-.204 1.11 2.98 2.98 0 0 1-.555.914 2.671 2.671 0 0 1-.816.62 2.247 2.247 0 0 1-1.004.229 2.21 2.21 0 0 1-.987-.229 2.659 2.659 0 0 1-.816-.62 3.001 3.001 0 0 1-.556-.914 3.136 3.136 0 0 1 0-2.221 2.889 2.889 0 0 1 .556-.905 2.713 2.713 0 0 1 .816-.612 2.21 2.21 0 0 1 .987-.229 2.247 2.247 0 0 1 1.004.229 2.725 2.725 0 0 1 .816.612 2.869 2.869 0 0 1 .555.905 3.013 3.013 0 0 1 .204 1.11zm-.93 0a2.136 2.136 0 0 0-.139-.792 1.894 1.894 0 0 0-.375-.604 1.73 1.73 0 0 0-.531-.392 1.383 1.383 0 0 0-1.207 0 1.633 1.633 0 0 0-.523.392 1.986 1.986 0 0 0-.367.604 2.156 2.156 0 0 0-.139.792 2.217 2.217 0 0 0 .139.8 1.962 1.962 0 0 0 .367.612 1.633 1.633 0 0 0 .523.392 1.383 1.383 0 0 0 1.207 0 1.729 1.729 0 0 0 .531-.392 1.873 1.873 0 0 0 .375-.612 2.196 2.196 0 0 0 .139-.8z"/><path id="F" d="M64.994 623.847a3.005 3.005 0 0 1-.204 1.109 2.957 2.957 0 0 1-.555.914 2.659 2.659 0 0 1-.816.621 2.207 2.207 0 0 1-.987.229 2.247 2.247 0 0 1-1.004-.229 2.659 2.659 0 0 1-.816-.621 2.957 2.957 0 0 1-.555-.914 3.12 3.12 0 0 1 0-2.22 2.957 2.957 0 0 1 .555-.914 2.543 2.543 0 0 1 .816-.612 2.322 2.322 0 0 1 1.004-.221 2.28 2.28 0 0 1 .987.221 2.543 2.543 0 0 1 .816.612 2.957 2.957 0 0 1 .555.914 3.01 3.01 0 0 1 .204 1.11zm-.93.008a2.205 2.205 0 0 0-.139-.797 1.949 1.949 0 0 0-.368-.609 1.637 1.637 0 0 0-.522-.39 1.383 1.383 0 0 0-1.207 0 1.637 1.637 0 0 0-.522.39 2.041 2.041 0 0 0-.376.609 2.241 2.241 0 0 0 0 1.594 2.041 2.041 0 0 0 .376.609 1.655 1.655 0 0 0 .522.391 1.391 1.391 0 0 0 1.207 0 1.655 1.655 0 0 0 .522-.391 1.949 1.949 0 0 0 .368-.609 2.201 2.201 0 0 0 .139-.797zm4.554-2.686a.539.539 0 0 1-.016.131l-3.118 11.264a.421.421 0 0 1-.408.343.541.541 0 0 1-.343-.131.416.416 0 0 1-.163-.343.35.35 0 0 1 .016-.131l3.118-11.263a.435.435 0 0 1 .425-.359.492.492 0 0 1 .334.139.451.451 0 0 1 .155.351zm4.587 8.57a3.013 3.013 0 0 1-.204 1.11 2.98 2.98 0 0 1-.555.914 2.671 2.671 0 0 1-.816.62 2.244 2.244 0 0 1-1.004.229 2.213 2.213 0 0 1-.987-.229 2.671 2.671 0 0 1-.816-.62 2.98 2.98 0 0 1-.555-.914 3.122 3.122 0 0 1 0-2.221 2.869 2.869 0 0 1 .555-.905 2.725 2.725 0 0 1 .816-.612 2.213 2.213 0 0 1 .987-.229 2.244 2.244 0 0 1 1.004.229 2.725 2.725 0 0 1 .816.612 2.869 2.869 0 0 1 .555.905 3.013 3.013 0 0 1 .204 1.11zm-.93 0a2.156 2.156 0 0 0-.139-.792 1.914 1.914 0 0 0-.376-.604 1.737 1.737 0 0 0-.53-.392 1.385 1.385 0 0 0-1.208 0 1.629 1.629 0 0 0-.522.392 1.967 1.967 0 0 0-.367.604 2.136 2.136 0 0 0-.139.792 2.196 2.196 0 0 0 .139.8 1.944 1.944 0 0 0 .367.612 1.629 1.629 0 0 0 .522.392 1.385 1.385 0 0 0 1.208 0 1.737 1.737 0 0 0 .53-.392 1.892 1.892 0 0 0 .376-.612 2.217 2.217 0 0 0 .139-.8z"/><path id="G" d="M138.213 354.808a3.304 3.304 0 0 1 .865 2.309v1.6a3.304 3.304 0 0 1-.865 2.309 3.198 3.198 0 0 1-4.485 0 3.209 3.209 0 0 1-.893-2.309v-1.6a3.209 3.209 0 0 1 .893-2.309 3.198 3.198 0 0 1 4.485 0zm-3.463 17.94h-1.128c-.2 0-.262-.08-.157-.263l10.57-17.94c.053-.21.158-.288.315-.262h1.128c.184-.026.262.053.157.236l-10.57 17.94c-.078.2-.184.315-.314.29zm-.472-14.11c0 1.206.63 1.8 1.68 1.8a1.592 1.592 0 0 0 1.705-1.81v-1.443a1.592 1.592 0 0 0-1.705-1.81c-1.05 0-1.627.63-1.68 1.8zm6.636 13.56a3.104 3.104 0 0 1-.918-2.256v-1.574a3.1 3.1 0 0 1 .918-2.281 2.922 2.922 0 0 1 2.203-.893 3.001 3.001 0 0 1 2.256.893 3.186 3.186 0 0 1 .892 2.281v1.574a3.084 3.084 0 0 1-.892 2.256 3.036 3.036 0 0 1-2.256.944 2.96 2.96 0 0 1-2.203-.944zm3.908-3.75a1.693 1.693 0 1 0-3.384 0v1.416a1.565 1.565 0 0 0 1.679 1.784c1.102 0 1.652-.604 1.705-1.784v-1.416z"/><path id="H" d="M95.3 76.793a2.36 2.36 0 0 1-.789 1.92 2.755 2.755 0 0 1-1.821.66 2.64 2.64 0 0 1-1.791-.66 2.332 2.332 0 0 1-.758-1.86v-16.68a8.069 8.069 0 0 0-.691-3.3 8.858 8.858 0 0 0-4.59-4.59 8.066 8.066 0 0 0-3.299-.69 7.863 7.863 0 0 0-3.271.69 9.048 9.048 0 0 0-2.7 1.859 8.928 8.928 0 0 0-1.859 2.73 8.052 8.052 0 0 0-.69 3.3v16.62a2.425 2.425 0 0 1-.81 1.95 2.749 2.749 0 0 1-1.83.689 2.619 2.619 0 0 1-1.74-.66 2.372 2.372 0 0 1-.78-1.92v-37.62a2.356 2.356 0 0 1 .78-1.949 2.701 2.701 0 0 1 1.74-.631 2.908 2.908 0 0 1 1.83.631 2.248 2.248 0 0 1 .81 1.89l.01 10.38a10.813 10.813 0 0 1 3.849-2.31 14.233 14.233 0 0 1 4.69-.75 13.021 13.021 0 0 1 5.291 1.08 14.436 14.436 0 0 1 4.359 2.939 13.661 13.661 0 0 1 2.977 4.351 13.156 13.156 0 0 1 1.083 5.31z"/><path id="I" d="M450.624 38.333a4.181 4.181 0 0 1-1.252 3.06 4.296 4.296 0 0 1-6.078 0 4.371 4.371 0 0 1 0-6.12 4.296 4.296 0 0 1 6.078 0 4.184 4.184 0 0 1 1.252 3.061zm-1.74 38.52a2.288 2.288 0 0 1-.78 1.891 2.703 2.703 0 0 1-1.739.63 2.814 2.814 0 0 1-1.83-.66 2.26 2.26 0 0 1-.811-1.86v-26.76a2.331 2.331 0 0 1 .811-1.92 2.819 2.819 0 0 1 1.83-.66 2.632 2.632 0 0 1 1.739.66 2.377 2.377 0 0 1 .78 1.92z"/><path id="J" d="M471.262 49.073a2.593 2.593 0 0 1-.66 1.77 2.495 2.495 0 0 1-1.979.75 7.863 7.863 0 0 0-3.271.69 9.044 9.044 0 0 0-2.699 1.859 8.931 8.931 0 0 0-1.86 2.73 8.068 8.068 0 0 0-.69 3.3v16.62a2.332 2.332 0 0 1-.81 1.92 2.819 2.819 0 0 1-1.83.66 2.621 2.621 0 0 1-1.739-.66 2.298 2.298 0 0 1-.781-1.86v-26.76a2.294 2.294 0 0 1 .84-1.92 2.723 2.723 0 0 1 1.681-.66 2.877 2.877 0 0 1 1.649.51 2.227 2.227 0 0 1 .931 1.53 13.119 13.119 0 0 1 4.021-2.25 13.536 13.536 0 0 1 4.56-.81 2.452 2.452 0 0 1 1.979.779 2.711 2.711 0 0 1 .66 1.801z"/><path id="K" d="M201.33 137.993a2.285 2.285 0 0 1-.779 1.89 2.888 2.888 0 0 1-3.601 0 2.283 2.283 0 0 1-.78-1.89 11.32 11.32 0 0 1-2.58 1.8 16.261 16.261 0 0 1-3.119 1.26 14.665 14.665 0 0 1-4.2.54 14.422 14.422 0 0 1-6.42-1.38 14.01 14.01 0 0 1-4.74-3.72 16.362 16.362 0 0 1-2.91-5.4 21.519 21.519 0 0 1 0-12.899 16.352 16.352 0 0 1 2.91-5.4 14.01 14.01 0 0 1 4.74-3.72 14.422 14.422 0 0 1 6.42-1.38 14.856 14.856 0 0 1 5.67 1.02 11.89 11.89 0 0 1 4.229 2.88v-11.16a2.356 2.356 0 0 1 .78-1.949 2.884 2.884 0 0 1 3.601 0 2.285 2.285 0 0 1 .779 1.89zm-5.16-13.38a13.044 13.044 0 0 0-2.67-8.61 8.912 8.912 0 0 0-7.229-3.21 9.593 9.593 0 0 0-4.05.84 8.995 8.995 0 0 0-3.15 2.4 10.718 10.718 0 0 0-2.01 3.72 15.913 15.913 0 0 0-.689 4.86q0 5.46 2.7 8.67a9.713 9.713 0 0 0 14.43 0q2.67-3.21 2.67-8.67z"/><path id="L" d="M522.382 138.173a2.595 2.595 0 0 1-.66 1.77 2.422 2.422 0 0 1-1.92.75 5.749 5.749 0 0 1-2.31-.48 5.82 5.82 0 0 1-1.92-1.32 6.474 6.474 0 0 1-1.291-1.949 5.903 5.903 0 0 1-.479-2.37v-34.14a2.356 2.356 0 0 1 .78-1.949 2.883 2.883 0 0 1 3.6 0 2.285 2.285 0 0 1 .779 1.89v34.2a.936.936 0 0 0 .301.779.895.895 0 0 0 .54.24 2.377 2.377 0 0 1 1.92.78 2.709 2.709 0 0 1 .66 1.8z"/></defs><rect width="1080" height="1080" rx="40" fill="url(#A)"/><g opacity=".5" fill="#fff"><path d="M42.37 1046a7.892 7.892 0 0 1-5.503-2.002 1.364 1.364 0 0 1-1.468 1.401 1.346 1.346 0 0 1-1.401-1.401v-20.88a1.435 1.435 0 0 1 2.869-.033v6.238a7.4 7.4 0 0 1 5.503-2.169c5.37 0 8.373 4.403 8.373 9.406 0 5.037-3.002 9.44-8.373 9.44zm0-16c-3.335 0-5.503 2.602-5.503 6.57 0 4.003 2.168 6.604 5.503 6.604s5.504-2.602 5.504-6.604c0-3.97-2.168-6.57-5.504-6.57zm25.555 8.038h-12.34c.467 3.136 2.468 5.137 5.403 5.137a5.003 5.003 0 0 0 3.969-1.734 1.383 1.383 0 0 1 1.034-.533 1.556 1.556 0 0 1 1.501 1.468c0 .4-.1.7-.8 1.4a8.129 8.129 0 0 1-5.704 2.235c-5.37 0-8.372-4.437-8.372-9.44 0-4.97 3.002-9.406 8.372-9.406 5.437 0 8.34 4.437 8.34 9.406a1.422 1.422 0 0 1-1.401 1.468zM60.988 1030c-3.136 0-4.97 2.3-5.403 5.17H66.4c-.467-3.202-2.468-5.17-5.403-5.17zm27.054 15.433a3.247 3.247 0 0 1-2.969-1.901 7.642 7.642 0 0 1-5.87 2.469c-5.437 0-8.372-4.47-8.372-9.44s3.002-9.406 8.372-9.406a7.369 7.369 0 0 1 5.504 2.202v-.134a1.376 1.376 0 0 1 1.4-1.501 1.341 1.341 0 0 1 1.468 1.401v12.875a.54.54 0 0 0 .467.601 1.418 1.418 0 1 1 0 2.835zM79.203 1030c-3.336 0-5.504 2.602-5.504 6.57 0 4.003 2.168 6.604 5.504 6.604 3.37 0 5.504-2.602 5.504-6.604 0-3.97-2.135-6.57-5.504-6.57z"/><use xlink:href="#C"/><path d="M115.2 1045.433h-.567c-3.17 0-4.37-1.668-4.37-4.403v-10.474h-1a1.418 1.418 0 1 1-.033-2.835h1v-4.637a1.355 1.355 0 0 1 1.435-1.4 1.328 1.328 0 0 1 1.401 1.4v4.637h2.135a1.383 1.383 0 0 1 1.4 1.401 1.356 1.356 0 0 1-1.4 1.434h-2.135v10.774c0 .934.333 1.268 1.268 1.268h.833a1.376 1.376 0 0 1 1.435 1.4 1.357 1.357 0 0 1-1.4 1.435zm4.604-20.413a2.401 2.401 0 1 1 2.402-2.401 2.392 2.392 0 0 1-2.402 2.401zm0 20.414a1.4 1.4 0 0 1-1.467-1.401v-14.876a1.408 1.408 0 0 1 1.467-1.435 1.374 1.374 0 0 1 1.401 1.435v14.876a1.346 1.346 0 0 1-1.401 1.401zm10.376-14.877h-1.5V1044a1.364 1.364 0 0 1-1.468 1.401 1.346 1.346 0 0 1-1.401-1.401v-13.442h-1.367a1.418 1.418 0 0 1 0-2.835h1.367v-2.27a3.801 3.801 0 0 1 3.836-3.769 1.418 1.418 0 1 1 0 2.835.934.934 0 0 0-.967.9v2.302h1.5a1.418 1.418 0 1 1 0 2.835z"/><use xlink:href="#C" x="42.069"/><path d="M154.767 1045.5a3.403 3.403 0 0 1-3.336-3.402v-18.98a1.435 1.435 0 0 1 2.869-.033v19.013a.527.527 0 0 0 .467.567 1.418 1.418 0 1 1 0 2.835zm15.37-.067v-1.264c1.886-.237 2.046-.437 2.046-3.157v-6.7c0-2.8-1.248-4.017-3.064-4.017a5.597 5.597 0 0 0-3.47 1.493v9.476c0 2.527.187 2.658 2.06 2.896v1.264h-8.968v-1.264c2.254-.33 2.5-.4 2.5-3v-8.2c0-2.446-.303-2.565-2.185-2.922v-1.184a34.102 34.102 0 0 0 6.653-1.533l-.052 2.95 2.6-1.745a5.659 5.659 0 0 1 3.159-1.086c3.194 0 5.2 2.338 5.2 6.3v7.5c0 2.54.237 2.657 2.277 2.92v1.264zm23.91-3.703c-2.458 3.427-5.488 4.178-7.014 4.178-5.142 0-8.124-3.936-8.124-8.594a10.333 10.333 0 0 1 2.832-7.062 8.602 8.602 0 0 1 6.082-2.814 6.386 6.386 0 0 1 6.37 6.347c-.014.715-.08 1.277-.612 1.4-.767.184-6.17.5-10.318.647.062 4.587 2.717 6.74 5.556 6.74a6.776 6.776 0 0 0 4.543-1.866zm-7.07-12.7c-1.667 0-3.167 1.807-3.516 4.963l5.486-.118c.6-.026.848-.146.848-.792.04-2.022-1.037-4.053-2.818-4.053zm34.283.145c-1.943.343-2.248.624-3.105 2.765-1.33 3.462-3.102 8.53-4.934 13.94h-1.52l-4.65-11.46-4.55 11.46h-1.472l-4.685-14.192c-.687-1.985-.94-2.274-2.855-2.512v-1.25h9.397v1.25c-2.325.345-2.535.672-2.058 2.133l2.52 8.214c1.507-3.68 2.988-7.62 4.327-11.424h1.456c1.4 3.76 2.986 7.702 4.573 11.568.742-2.107 2.062-5.964 2.557-8.108.412-1.674-.008-2.078-2.753-2.383v-1.25h7.742zm9.4 3.747c-.92-2.606-2.155-3.984-4.2-3.984a2.166 2.166 0 0 0-2.225 2.266c0 1.497 1.046 2.264 3.16 3.216 3.278 1.496 5.3 2.787 5.3 5.736 0 3.85-3.6 5.764-6.945 5.764a12.073 12.073 0 0 1-4.92-1.161l-.662-4.892 1.252-.224c.8 2.5 2.33 4.75 4.976 4.75a2.231 2.231 0 0 0 2.438-2.281c0-1.423-.76-2.333-3.092-3.467-2.67-1.295-5.107-2.64-5.107-5.775 0-3.046 2.533-5.42 6.565-5.42a18.751 18.751 0 0 1 4.112.567l.62 4.577z"/></g><path d="M881.656 1043.305a2.866 2.866 0 0 1-.34 1.45 2.703 2.703 0 0 1-.91.95 4.017 4.017 0 0 1-1.3.52 7.046 7.046 0 0 1-1.51.16 7.517 7.517 0 0 1-1.021-.08 6.024 6.024 0 0 1-1.13-.27 5.038 5.038 0 0 1-1.029-.49 2.172 2.172 0 0 1-.74-.74.483.483 0 0 1-.07-.17.897.897 0 0 1-.01-.13.575.575 0 0 1 .18-.42.553.553 0 0 1 .4-.18.45.45 0 0 1 .22.069.728.728 0 0 1 .22.21 2.539 2.539 0 0 0 .641.53 3.503 3.503 0 0 0 .76.33 4.212 4.212 0 0 0 .81.16q.4.04.77.04 2.92 0 2.92-1.94a1.439 1.439 0 0 0-.49-1.17 4.114 4.114 0 0 0-1.21-.68 15.09 15.09 0 0 0-1.58-.49 8.322 8.322 0 0 1-1.58-.57 3.647 3.647 0 0 1-1.21-.93 2.373 2.373 0 0 1-.49-1.58 2.333 2.333 0 0 1 .341-1.29 2.785 2.785 0 0 1 .89-.87 3.912 3.912 0 0 1 1.24-.489 6.392 6.392 0 0 1 1.37-.15 5.911 5.911 0 0 1 .87.07 6.791 6.791 0 0 1 .939.21 5.262 5.262 0 0 1 .9.359 2.898 2.898 0 0 1 .73.521.537.537 0 0 1 .181.38.574.574 0 0 1-.19.41.593.593 0 0 1-.43.189.515.515 0 0 1-.38-.16 2.575 2.575 0 0 0-1.211-.649 5.739 5.739 0 0 0-1.409-.19 3.633 3.633 0 0 0-2.011.46 1.39 1.39 0 0 0-.689 1.2 1.313 1.313 0 0 0 .49 1.09 4.198 4.198 0 0 0 1.21.65q.72.26 1.58.48a7.551 7.551 0 0 1 1.579.591 3.701 3.701 0 0 1 1.211.979 2.531 2.531 0 0 1 .489 1.63zm11.68-2.62a6.978 6.978 0 0 1-.33 2.16 5.462 5.462 0 0 1-.971 1.8 4.663 4.663 0 0 1-1.58 1.24 5.207 5.207 0 0 1-4.279 0 4.663 4.663 0 0 1-1.58-1.24 5.442 5.442 0 0 1-.97-1.8 7.166 7.166 0 0 1 0-4.3 5.442 5.442 0 0 1 .97-1.8 4.663 4.663 0 0 1 1.58-1.24 5.207 5.207 0 0 1 4.279 0 4.663 4.663 0 0 1 1.58 1.24 5.462 5.462 0 0 1 .971 1.8 6.916 6.916 0 0 1 .33 2.14zm-1.14 0a5.741 5.741 0 0 0-.27-1.8 4.203 4.203 0 0 0-.78-1.42 3.821 3.821 0 0 0-4.43-.94 3.631 3.631 0 0 0-1.23.94 4.203 4.203 0 0 0-.78 1.42 5.741 5.741 0 0 0-.27 1.8 5.836 5.836 0 0 0 .27 1.811 4.194 4.194 0 0 0 .78 1.43 3.619 3.619 0 0 0 1.23.94 3.96 3.96 0 0 0 3.21 0 3.656 3.656 0 0 0 1.22-.94 4.194 4.194 0 0 0 .78-1.43 5.836 5.836 0 0 0 .27-1.811zm12.46 4.76a.499.499 0 0 1-.18.42.613.613 0 0 1-.38.14.639.639 0 0 1-.4-.14.499.499 0 0 1-.18-.42v-.64a4.394 4.394 0 0 1-1.521 1.141 4.537 4.537 0 0 1-1.899.399 4.361 4.361 0 0 1-1.75-.359 4.685 4.685 0 0 1-2.45-2.45 4.349 4.349 0 0 1-.36-1.75v-5.84a.502.502 0 0 1 .181-.421.638.638 0 0 1 .399-.14.609.609 0 0 1 .38.14.502.502 0 0 1 .181.421v5.84a3.324 3.324 0 0 0 .27 1.34 3.432 3.432 0 0 0 1.811 1.81 3.454 3.454 0 0 0 2.68 0 3.426 3.426 0 0 0 1.81-1.81 3.309 3.309 0 0 0 .271-1.34v-5.84a.501.501 0 0 1 .18-.421.639.639 0 0 1 .4-.14.613.613 0 0 1 .38.14.501.501 0 0 1 .18.421zm7.98-9.66a.606.606 0 0 1-.15.399.527.527 0 0 1-.43.181 3.275 3.275 0 0 0-1.32.27 3.596 3.596 0 0 0-1.09.73 3.38 3.38 0 0 0-.739 1.08 3.305 3.305 0 0 0-.271 1.34v5.66a.499.499 0 0 1-.18.42.613.613 0 0 1-.38.14.639.639 0 0 1-.4-.14.499.499 0 0 1-.18-.42v-9.5a.501.501 0 0 1 .18-.421.639.639 0 0 1 .4-.14.613.613 0 0 1 .38.14.501.501 0 0 1 .18.421v.82a4.872 4.872 0 0 1 1.54-1.14 4.404 4.404 0 0 1 1.88-.4.527.527 0 0 1 .43.181.58.58 0 0 1 .15.38zm9.76 8.64a.591.591 0 0 1-.16.4 4.431 4.431 0 0 1-1.56 1.13 5.038 5.038 0 0 1-2.02.39 4.804 4.804 0 0 1-2.14-.46 4.663 4.663 0 0 1-1.58-1.24 5.442 5.442 0 0 1-.97-1.8 7.167 7.167 0 0 1 0-4.3 5.442 5.442 0 0 1 .97-1.8 4.663 4.663 0 0 1 1.58-1.24 4.804 4.804 0 0 1 2.14-.46 5.038 5.038 0 0 1 2.02.39 4.443 4.443 0 0 1 1.56 1.13.522.522 0 0 1 .16.381.588.588 0 0 1-.18.409.542.542 0 0 1-.4.19.591.591 0 0 1-.42-.2 3.41 3.41 0 0 0-1.18-.859 3.832 3.832 0 0 0-1.561-.301 3.697 3.697 0 0 0-1.6.34 3.631 3.631 0 0 0-1.23.94 4.203 4.203 0 0 0-.78 1.42 5.741 5.741 0 0 0-.27 1.8 5.836 5.836 0 0 0 .27 1.811 4.194 4.194 0 0 0 .78 1.43 3.619 3.619 0 0 0 1.23.94 4.003 4.003 0 0 0 3.16.029 3.652 3.652 0 0 0 1.18-.85.594.594 0 0 1 .42-.2.571.571 0 0 1 .4.17.546.546 0 0 1 .18.41zm11.96-3.74a.57.57 0 0 1-.17.4.518.518 0 0 1-.389.18h-8.28a4.803 4.803 0 0 0 .37 1.58 4.196 4.196 0 0 0 .8 1.24 3.565 3.565 0 0 0 1.17.82 3.687 3.687 0 0 0 1.5.3 4.291 4.291 0 0 0 1.66-.351 2.719 2.719 0 0 0 1.28-1.029.521.521 0 0 1 .479-.28.664.664 0 0 1 .42.16.473.473 0 0 1 .2.38.467.467 0 0 1-.05.229 4.586 4.586 0 0 1-1.98 1.641 5.241 5.241 0 0 1-2.01.39 4.804 4.804 0 0 1-2.14-.46 4.663 4.663 0 0 1-1.58-1.24 5.442 5.442 0 0 1-.97-1.8 7.176 7.176 0 0 1-.001-4.3 5.456 5.456 0 0 1 .968-1.8 4.652 4.652 0 0 1 1.577-1.24 5.188 5.188 0 0 1 4.271 0 4.658 4.658 0 0 1 1.576 1.24 5.458 5.458 0 0 1 .969 1.8 6.944 6.944 0 0 1 .329 2.14zm-1.14-.56a4.828 4.828 0 0 0-.37-1.58 4.245 4.245 0 0 0-.811-1.25 3.477 3.477 0 0 0-1.18-.82 3.801 3.801 0 0 0-1.5-.29 3.748 3.748 0 0 0-1.59.32 3.539 3.539 0 0 0-1.17.86 3.953 3.953 0 0 0-.75 1.26 5.442 5.442 0 0 0-.33 1.5zm5.72-1.82a1.132 1.132 0 0 1-1.13 1.141 1.15 1.15 0 0 1-.827-.33 1.129 1.129 0 0 1 0-1.62 1.146 1.146 0 0 1 .827-.33 1.132 1.132 0 0 1 1.13 1.14zm0 6.56a1.132 1.132 0 0 1-1.13 1.14 1.15 1.15 0 0 1-.827-.33 1.129 1.129 0 0 1 0-1.62 1.15 1.15 0 0 1 .827-.33 1.132 1.132 0 0 1 1.13 1.141zm21.34-12.56a.638.638 0 0 1-.02.181l-3.52 13.1a.53.53 0 0 1-.56.42.631.631 0 0 1-.34-.1.45.45 0 0 1-.2-.32l-3-11.08-2.98 11.08a.452.452 0 0 1-.199.32.637.637 0 0 1-.341.1.53.53 0 0 1-.56-.42l-3.52-13.1a.597.597 0 0 1-.021-.181.539.539 0 0 1 .18-.42.591.591 0 0 1 .4-.16.479.479 0 0 1 .52.44l3 11.08 2.98-11.08a.496.496 0 0 1 .21-.311.632.632 0 0 1 .33-.09.527.527 0 0 1 .56.4l2.98 11.08 3-11.08a.513.513 0 0 1 .52-.44.591.591 0 0 1 .4.16.536.536 0 0 1 .18.42zm10.82 8.38a6.978 6.978 0 0 1-.33 2.16 5.462 5.462 0 0 1-.971 1.8 4.663 4.663 0 0 1-1.58 1.24 5.207 5.207 0 0 1-4.279 0 4.663 4.663 0 0 1-1.58-1.24 5.442 5.442 0 0 1-.97-1.8 7.166 7.166 0 0 1 0-4.3 5.442 5.442 0 0 1 .97-1.8 4.663 4.663 0 0 1 1.58-1.24 5.207 5.207 0 0 1 4.279 0 4.663 4.663 0 0 1 1.58 1.24 5.462 5.462 0 0 1 .971 1.8 6.916 6.916 0 0 1 .33 2.14zm-1.14 0a5.741 5.741 0 0 0-.27-1.8 4.203 4.203 0 0 0-.78-1.42 3.821 3.821 0 0 0-4.43-.94 3.631 3.631 0 0 0-1.23.94 4.203 4.203 0 0 0-.78 1.42 5.741 5.741 0 0 0-.27 1.8 5.836 5.836 0 0 0 .27 1.811 4.194 4.194 0 0 0 .78 1.43 3.619 3.619 0 0 0 1.23.94 3.96 3.96 0 0 0 3.21 0 3.656 3.656 0 0 0 1.22-.94 4.194 4.194 0 0 0 .78-1.43 5.836 5.836 0 0 0 .269-1.811zm8.48-4.9a.606.606 0 0 1-.15.399.527.527 0 0 1-.43.181 3.275 3.275 0 0 0-1.32.27 3.596 3.596 0 0 0-1.09.73 3.38 3.38 0 0 0-.739 1.08 3.305 3.305 0 0 0-.271 1.34v5.66a.499.499 0 0 1-.18.42.613.613 0 0 1-.38.14.639.639 0 0 1-.4-.14.499.499 0 0 1-.18-.42v-9.5a.501.501 0 0 1 .18-.421.639.639 0 0 1 .4-.14.613.613 0 0 1 .38.14.501.501 0 0 1 .18.421v.82a4.871 4.871 0 0 1 1.54-1.14 4.404 4.404 0 0 1 1.88-.4.527.527 0 0 1 .43.181.58.58 0 0 1 .15.38zm4.02 9.66a.759.759 0 0 1-.16.47.504.504 0 0 1-.42.21 1.759 1.759 0 0 1-.76-.17 1.978 1.978 0 0 1-.63-.47 2.401 2.401 0 0 1-.43-.681 2.024 2.024 0 0 1-.16-.8v-11.68a.498.498 0 0 1 .18-.42.634.634 0 0 1 .4-.141.609.609 0 0 1 .38.141.498.498 0 0 1 .18.42v11.68a.753.753 0 0 0 .22.64 1.297 1.297 0 0 0 .49.221 3.119 3.119 0 0 1 .49.149q.22.1.22.43zm11.4 0a.5.5 0 0 1-.181.42.613.613 0 0 1-.38.14.636.636 0 0 1-.399-.14.5.5 0 0 1-.181-.42v-1a4.482 4.482 0 0 1-1.6 1.399 4.882 4.882 0 0 1-2.28.5 4.804 4.804 0 0 1-2.14-.46 4.663 4.663 0 0 1-1.58-1.24 5.442 5.442 0 0 1-.97-1.8 7.167 7.167 0 0 1 0-4.3 5.442 5.442 0 0 1 .97-1.8 4.663 4.663 0 0 1 1.58-1.24 4.804 4.804 0 0 1 2.14-.46 4.882 4.882 0 0 1 2.28.5 4.552 4.552 0 0 1 1.6 1.38v-4.6a.499.499 0 0 1 .181-.42.631.631 0 0 1 .399-.141.609.609 0 0 1 .38.141.499.499 0 0 1 .181.42zm-1.14-4.76a5.741 5.741 0 0 0-.27-1.8 4.203 4.203 0 0 0-.78-1.42 3.821 3.821 0 0 0-4.43-.94 3.631 3.631 0 0 0-1.23.94 4.203 4.203 0 0 0-.78 1.42 5.741 5.741 0 0 0-.27 1.8 5.836 5.836 0 0 0 .27 1.811 4.194 4.194 0 0 0 .78 1.43 3.619 3.619 0 0 0 1.23.94 3.96 3.96 0 0 0 3.21 0 3.656 3.656 0 0 0 1.22-.94 4.194 4.194 0 0 0 .78-1.43 5.836 5.836 0 0 0 .269-1.811zm19.38 1.22a3.993 3.993 0 0 1-.32 1.6 4.161 4.161 0 0 1-.88 1.3 4.11 4.11 0 0 1-1.311.88 4.047 4.047 0 0 1-1.609.32h-5.8a.57.57 0 0 1-.4-.17.522.522 0 0 1-.18-.39v-13.12c0-.373.173-.56.52-.56h5.42a3.445 3.445 0 0 1 1.4.29 3.818 3.818 0 0 1 1.149.771 3.487 3.487 0 0 1 .771 1.13 3.429 3.429 0 0 1 .28 1.37 3.56 3.56 0 0 1-.37 1.63 3.448 3.448 0 0 1-1.05 1.229 4.085 4.085 0 0 1 1.729 1.49 3.972 3.972 0 0 1 .65 2.231zm-2.1-6.53a2.337 2.337 0 0 0-.2-.966 2.675 2.675 0 0 0-.529-.787 2.355 2.355 0 0 0-.78-.527 2.413 2.413 0 0 0-.95-.189h-4.8v4.9h4.8a2.26 2.26 0 0 0 1.061-.239 2.547 2.547 0 0 0 1.239-1.384 2.293 2.293 0 0 0 .16-.807zm.96 6.53a2.928 2.928 0 0 0-.229-1.16 2.867 2.867 0 0 0-.641-.94 3.075 3.075 0 0 0-.949-.63 2.932 2.932 0 0 0-1.16-.229h-5.24v5.92h5.24a2.932 2.932 0 0 0 1.16-.23 3.075 3.075 0 0 0 .949-.63 2.867 2.867 0 0 0 .641-.94 2.924 2.924 0 0 0 .23-1.159zm13.78 3.54a.613.613 0 0 1-.14.38.523.523 0 0 1-.44.18h-.02a1.994 1.994 0 0 1-.53-.08 1.909 1.909 0 0 1-.56-.26 2.256 2.256 0 0 1-.891-1.22 4.481 4.481 0 0 1-1.6 1.399 4.882 4.882 0 0 1-2.28.5 4.767 4.767 0 0 1-2.16-.47 4.678 4.678 0 0 1-1.569-1.25 5.559 5.559 0 0 1-.96-1.8 7.17 7.17 0 0 1 0-4.301 5.324 5.324 0 0 1 .97-1.789 4.722 4.722 0 0 1 1.58-1.23 4.804 4.804 0 0 1 2.14-.46 4.882 4.882 0 0 1 2.28.5 4.552 4.552 0 0 1 1.6 1.38v-.98a.527.527 0 0 1 .17-.4.578.578 0 0 1 .41-.16.603.603 0 0 1 .391.14.518.518 0 0 1 .17.421v8.06a.705.705 0 0 0 .229.63 1.497 1.497 0 0 0 .5.21 3.019 3.019 0 0 1 .49.15q.22.1.22.45zm-2.58-4.76a5.741 5.741 0 0 0-.27-1.8 4.203 4.203 0 0 0-.78-1.42 3.821 3.821 0 0 0-4.43-.94 3.631 3.631 0 0 0-1.23.94 4.203 4.203 0 0 0-.78 1.42 5.741 5.741 0 0 0-.27 1.8 5.836 5.836 0 0 0 .27 1.811 4.194 4.194 0 0 0 .78 1.43 3.619 3.619 0 0 0 1.23.94 3.96 3.96 0 0 0 3.21 0 3.656 3.656 0 0 0 1.22-.94 4.194 4.194 0 0 0 .78-1.43 5.836 5.836 0 0 0 .27-1.811zm13.52 4.76a.5.5 0 0 1-.181.42.613.613 0 0 1-.38.14.636.636 0 0 1-.399-.14.5.5 0 0 1-.181-.42v-5.84a3.328 3.328 0 0 0-.27-1.34 3.433 3.433 0 0 0-1.811-1.81 3.305 3.305 0 0 0-1.34-.271 3.26 3.26 0 0 0-1.32.271 3.593 3.593 0 0 0-1.09.729 3.391 3.391 0 0 0-.739 1.08 3.312 3.312 0 0 0-.271 1.34v5.84a.499.499 0 0 1-.18.42.613.613 0 0 1-.38.14.639.639 0 0 1-.4-.14.499.499 0 0 1-.18-.42v-9.5a.501.501 0 0 1 .18-.421.639.639 0 0 1 .4-.14.613.613 0 0 1 .38.14.501.501 0 0 1 .18.421v.64a4.872 4.872 0 0 1 1.54-1.14 4.404 4.404 0 0 1 1.88-.4 4.324 4.324 0 0 1 1.76.36 4.786 4.786 0 0 1 1.45.979 4.568 4.568 0 0 1 .99 1.45 4.398 4.398 0 0 1 .36 1.77zm10.32-9.5a.577.577 0 0 1-.181.42l-3.44 3.44 3.4 5.32a.53.53 0 0 1 .12.32.484.484 0 0 1-.189.38.627.627 0 0 1-.41.16.557.557 0 0 1-.48-.261l-3.28-5.1-2.06 2.08v2.74a.499.499 0 0 1-.18.42.613.613 0 0 1-.38.14.639.639 0 0 1-.4-.14.499.499 0 0 1-.18-.42v-13.12a.498.498 0 0 1 .18-.42.634.634 0 0 1 .4-.141.609.609 0 0 1 .38.141.498.498 0 0 1 .18.42v8.76l5.52-5.52a.577.577 0 0 1 .42-.18.558.558 0 0 1 .409.17.538.538 0 0 1 .171.391z" fill="#fff"/><g opacity=".65" fill="none" stroke="#eee" stroke-width="2"><path d="M1045.968 921.2h-1"/><path d="M1038.96 921.2H88.677" stroke-dasharray="2.0027 6.00811"/><path d="M85.673 921.2h-1"/></g><g opacity=".65" fill="none" stroke="#eee" stroke-width="2"><path d="M84.673 777.2h1"/><path d="M91.67 777.2h740.618" stroke-dasharray="1.99897 5.99691"/><path d="M835.286 777.2h1"/></g><g opacity=".65" fill="none" stroke="#eee" stroke-width="2"><path d="M84.673 633.2h1"/><path d="M91.695 633.2h542.95" stroke-dasharray="2.00721 6.02162"/><path d="M637.655 633.2h1"/></g><g opacity=".65" fill="none" stroke="#eee" stroke-width="2"><path d="M239.056 489.2h1"/><path d="M246.667 489.2h23.14" stroke-dasharray="2.20376 6.61127"/><path d="M273.113 489.2h1"/></g><g opacity=".65" fill="none" stroke="#eee" stroke-width="2"><path d="M84.673 489.2h1"/><path d="M91.485 489.2h74.58" stroke-dasharray="1.93716 5.81148"/><path d="M168.97 489.2h1"/></g><path d="M1045.933 201.972v589.553H925.746c-6.668 0-13.346-14.375-20.015-14.375h-60.094c-6.668 0-13.336-9.598-20.005-14.397-6.678-4.777-13.346-14.375-20.015-14.375h-20.015c-6.688 0-13.376-9.576-20.065-14.375-6.678-4.777-13.346-4.8-20.015-14.375-6.668-9.598-13.346-43.147-20.015-43.147h-20.015c-6.688 0-13.376-9.576-20.065-14.375q-10.002-7.166-20.015-14.375-10.002-7.198-20.005-14.375c-6.678-4.8-13.346-14.397-20.015-14.397h-20.075c-6.668 0-13.336-14.375-20.005-14.375-6.678 0-13.346 14.375-20.015 14.375s-13.346-14.375-20.015-14.375H465.18c-6.688 0-13.376-9.576-20.065-14.375-6.668-4.777-13.336-14.375-20.015-14.375h-20.005c-6.678 0-13.346-21.573-20.015-28.75-6.688-7.22-13.376-14.397-20.065-14.397h-20.015c-6.678 0-13.346-14.375-20.015-14.375h-20.015c-6.688 0-13.376-7.177-20.065-14.375-6.668-7.177-13.346-28.75-20.015-28.75H244.88c-6.668 0-13.336 28.75-20.005 28.75h-40.09c-6.668 0-13.336-21.573-20.005-28.75-6.678-7.198-13.346-4.82-20.015-14.397-6.688-9.576-13.376-33.55-20.065-43.125-6.678-9.555-13.346-14.375-20.015-14.375s-13.18 7.28-19.85 14.48l-.165-215.796z" opacity=".9" fill="url(#B)"/><path d="M1045.934 793.525h-120.13c-4.21 0-7.902-3.98-11.474-7.83-2.848-3.068-6.076-6.546-8.532-6.546h-60.065c-5.25 0-10.065-4.62-14.72-9.09a64.527 64.527 0 0 0-6.449-5.685 66.927 66.927 0 0 1-6.917-6.058c-4.076-3.903-8.288-7.94-11.915-7.94h-20.005c-5.266 0-10.095-4.616-14.767-9.08a65.135 65.135 0 0 0-6.459-5.672 40.389 40.389 0 0 0-6.345-3.53c-4.613-2.212-9.383-4.498-14.136-11.327-2.937-4.23-5.68-12.276-8.583-20.797-2.18-6.395-7.282-21.37-9.777-21.5h-20.004c-5.266 0-10.095-4.616-14.767-9.08a65.136 65.136 0 0 0-6.459-5.672q-7.796-5.587-15.6-11.207l-4.407-3.17q-9.996-7.198-19.992-14.373a67.467 67.467 0 0 1-6.902-6.057c-4.08-3.915-8.302-7.964-11.934-7.964H605.53c-4.21 0-7.9-3.98-11.47-7.83-2.846-3.068-6.07-6.546-8.526-6.546-2.462 0-5.7 3.48-8.538 6.55-3.57 3.847-7.26 7.825-11.467 7.825s-7.902-3.98-11.474-7.83c-2.848-3.068-6.076-6.546-8.532-6.546h-80.07c-5.265 0-10.096-4.616-14.767-9.08a65.226 65.226 0 0 0-6.458-5.671 66.779 66.779 0 0 1-6.899-6.046c-4.08-3.91-8.297-7.952-11.935-7.952H405.4c-5.23 0-9.196-7.7-13.79-16.614-2.56-4.97-5.207-10.106-7.686-12.776-6.264-6.765-12.738-13.757-18.585-13.757h-20.005c-4.215 0-7.908-3.98-11.48-7.833-2.845-3.066-6.07-6.542-8.525-6.542h-20.005c-7.58 0-14.67-7.634-21.526-15.016-2.854-3.073-5.508-8.22-8.317-13.67-3.142-6.094-7.443-14.44-10.218-14.44H245.26c-2.05 0-6.036 8.597-8.178 13.215-3.865 8.336-7.203 15.535-11.817 15.535h-40.07c-5.22 0-9.186-7.695-13.775-16.606-2.56-4.972-5.21-10.113-7.7-12.784-2.687-2.898-5.384-4.087-8.24-5.345-3.712-1.637-7.92-3.49-11.943-9.27-3.473-4.976-6.916-13.612-10.244-21.964-3.244-8.142-6.6-16.56-9.81-21.16-6.267-8.97-12.443-13.52-18.36-13.52-4.856 0-10.16 4.862-15.416 10.395q-.81.852-1.616 1.72l-3.26 3.513v-5.876c6.836-7.385 12.717-13.752 20.292-13.752 7.304 0 14.59 5.125 21.65 15.232 3.475 4.98 6.918 13.615 10.246 21.967 3.244 8.142 6.6 16.56 9.81 21.16 3.38 4.858 6.728 6.333 10.27 7.895 3.103 1.367 6.312 2.78 9.56 6.286 2.854 3.073 5.506 8.223 8.315 13.674 3.138 6.092 7.435 14.435 10.21 14.435h40.07c2.05 0 6.036-8.597 8.178-13.215 3.865-8.336 7.203-15.535 11.817-15.535h20.005c5.222 0 9.2 7.697 13.784 16.6 2.562 4.97 5.21 10.11 7.69 12.78 6.27 6.752 12.756 13.734 18.585 13.734h20.005c4.208 0 7.898 3.98 11.468 7.825 2.848 3.07 6.076 6.55 8.538 6.55h20.005c7.603 0 14.682 7.646 21.528 15.04 2.852 3.07 5.503 8.217 8.3 13.665 3.14 6.095 7.44 14.442 10.223 14.442h19.996c5.252 0 10.06 4.61 14.713 9.067a64.072 64.072 0 0 0 6.461 5.684 67.598 67.598 0 0 1 6.891 6.029c4.1 3.918 8.34 7.97 11.994 7.97h80.07c4.21 0 7.902 3.98 11.474 7.83 2.848 3.068 6.076 6.546 8.532 6.546s5.68-3.476 8.523-6.542c3.572-3.85 7.267-7.833 11.482-7.833 4.21 0 7.9 3.98 11.47 7.83 2.845 3.068 6.07 6.546 8.526 6.546h20.065c5.247 0 10.06 4.616 14.713 9.08a64.514 64.514 0 0 0 6.464 5.693q9.996 7.166 19.997 14.376l4.406 3.17q7.802 5.612 15.594 11.204a67.73 67.73 0 0 1 6.893 6.03c4.1 3.918 8.338 7.97 11.993 7.97h20.005c5.068 0 8.46 9.197 13.573 24.203 2.687 7.885 5.466 16.038 8.082 19.805 4.148 5.96 8.242 7.923 12.577 10a44.105 44.105 0 0 1 6.948 3.888 67.767 67.767 0 0 1 6.894 6.031c4.1 3.918 8.338 7.97 11.993 7.97h20.005c5.24 0 10.045 4.603 14.693 9.054a64.064 64.064 0 0 0 6.482 5.696 67.497 67.497 0 0 1 6.887 6.05c4.082 3.92 8.304 7.973 11.94 7.973h60.065c4.21 0 7.902 3.98 11.474 7.83 2.848 3.068 6.076 6.546 8.532 6.546h120.13z" fill="#e0022f"/><g fill="#fff"><path d="M45.682 215.975a6.96 6.96 0 0 1-.49 2.618 6.582 6.582 0 0 1-1.344 2.113 6.321 6.321 0 0 1-2.002 1.414 5.864 5.864 0 0 1-3.863.336 6.313 6.313 0 0 1-1.4-.531 6.611 6.611 0 0 1-1.246-.841 4.915 4.915 0 0 1-.967-1.105.843.843 0 0 1-.139-.448.743.743 0 0 1 .266-.574.846.846 0 0 1 .574-.237.507.507 0 0 1 .434.168q.126.167.434.504a4.373 4.373 0 0 0 3.473 1.651 4.255 4.255 0 0 0 1.764-.378 4.854 4.854 0 0 0 2.533-2.659 5.368 5.368 0 0 0 .379-2.03 5.443 5.443 0 0 0-.379-2.059 4.854 4.854 0 0 0-2.533-2.659 4.256 4.256 0 0 0-1.764-.379 3.992 3.992 0 0 0-1.33.211 5.073 5.073 0 0 0-1.064.504 3.836 3.836 0 0 0-.783.644 6.16 6.16 0 0 0-.519.63.907.907 0 0 1-1.345.168.835.835 0 0 1-.223-.616v-9.212a.723.723 0 0 1 .237-.573.798.798 0 0 1 .546-.21h9.352a.789.789 0 0 1 .631.242.843.843 0 0 1 0 1.111.792.792 0 0 1-.631.242h-8.54v6.524a5.558 5.558 0 0 1 1.582-.909 5.776 5.776 0 0 1 2.086-.351 5.853 5.853 0 0 1 2.436.519 6.336 6.336 0 0 1 2.002 1.414 6.592 6.592 0 0 1 1.344 2.113 7.038 7.038 0 0 1 .49 2.646zm12.852-4.34q0 1.008-.027 2.24a20.534 20.534 0 0 1-.211 2.479 15.583 15.583 0 0 1-.545 2.408 6.94 6.94 0 0 1-1.037 2.071 5.029 5.029 0 0 1-1.68 1.456 5.174 5.174 0 0 1-2.492.546 5.26 5.26 0 0 1-2.506-.546 4.856 4.856 0 0 1-1.68-1.456 7.431 7.431 0 0 1-1.036-2.071 13.695 13.695 0 0 1-.546-2.408 22.208 22.208 0 0 1-.195-2.479q-.03-1.232-.03-2.24a29.875 29.875 0 0 1 .183-3.206 11.081 11.081 0 0 1 .798-3.15 6.086 6.086 0 0 1 1.793-2.408 4.931 4.931 0 0 1 3.191-.952 5.055 5.055 0 0 1 3.15.91 5.899 5.899 0 0 1 1.819 2.324 10.932 10.932 0 0 1 .841 3.136 27.92 27.92 0 0 1 .209 3.347zm-1.596 0a28.253 28.253 0 0 0-.154-2.969 9.706 9.706 0 0 0-.615-2.604 4.463 4.463 0 0 0-1.33-1.848 3.548 3.548 0 0 0-2.297-.7 3.373 3.373 0 0 0-2.449.854 5.302 5.302 0 0 0-1.316 2.101 10.138 10.138 0 0 0-.531 2.645q-.1 1.4-.1 2.52v1.792a23.797 23.797 0 0 0 .153 2.59 9.617 9.617 0 0 0 .617 2.534 5.009 5.009 0 0 0 1.33 1.918 3.286 3.286 0 0 0 2.268.77 3.388 3.388 0 0 0 2.311-.77 4.966 4.966 0 0 0 1.344-1.918 9.616 9.616 0 0 0 .615-2.534 23.565 23.565 0 0 0 .154-2.59zm7.96-6.607a3.039 3.039 0 0 1-.759 2.023 2.659 2.659 0 0 1-.816.621 2.21 2.21 0 0 1-.987.229 2.251 2.251 0 0 1-1.005-.229 2.655 2.655 0 0 1-.815-.621 2.978 2.978 0 0 1-.556-.914 3.134 3.134 0 0 1 0-2.22 2.978 2.978 0 0 1 .556-.914 2.539 2.539 0 0 1 .815-.612 2.326 2.326 0 0 1 1.005-.221 2.284 2.284 0 0 1 .987.221 2.543 2.543 0 0 1 .816.612 2.976 2.976 0 0 1 .555.914 3.01 3.01 0 0 1 .204 1.11zm-.93.008a2.184 2.184 0 0 0-.139-.797 1.929 1.929 0 0 0-.367-.609 1.637 1.637 0 0 0-.522-.39 1.385 1.385 0 0 0-1.208 0 1.645 1.645 0 0 0-.521.39 2.041 2.041 0 0 0-.376.609 2.227 2.227 0 0 0 0 1.594 2.041 2.041 0 0 0 .376.609 1.662 1.662 0 0 0 .521.391 1.394 1.394 0 0 0 1.208 0 1.655 1.655 0 0 0 .522-.391 1.929 1.929 0 0 0 .367-.609 2.18 2.18 0 0 0 .139-.797zm4.555-2.686a.592.592 0 0 1-.016.131l-3.12 11.264a.42.42 0 0 1-.408.343.54.54 0 0 1-.342-.131.417.417 0 0 1-.164-.343.345.345 0 0 1 .017-.131l3.118-11.263a.435.435 0 0 1 .424-.359.492.492 0 0 1 .335.139.451.451 0 0 1 .155.351zm4.587 8.57a3.013 3.013 0 0 1-.204 1.11 2.98 2.98 0 0 1-.555.914 2.671 2.671 0 0 1-.816.62 2.247 2.247 0 0 1-1.004.229 2.21 2.21 0 0 1-.987-.229 2.659 2.659 0 0 1-.816-.62 3.001 3.001 0 0 1-.556-.914 3.136 3.136 0 0 1 0-2.221 2.889 2.889 0 0 1 .556-.905 2.713 2.713 0 0 1 .816-.612 2.21 2.21 0 0 1 .987-.229 2.247 2.247 0 0 1 1.004.229 2.725 2.725 0 0 1 .816.612 2.869 2.869 0 0 1 .555.905 3.013 3.013 0 0 1 .204 1.11zm-.93 0a2.136 2.136 0 0 0-.139-.792 1.894 1.894 0 0 0-.375-.604 1.73 1.73 0 0 0-.531-.392 1.383 1.383 0 0 0-1.207 0 1.633 1.633 0 0 0-.523.392 1.985 1.985 0 0 0-.367.604 2.156 2.156 0 0 0-.139.792 2.217 2.217 0 0 0 .139.8 1.962 1.962 0 0 0 .367.612 1.633 1.633 0 0 0 .523.392 1.383 1.383 0 0 0 1.207 0 1.729 1.729 0 0 0 .531-.392 1.874 1.874 0 0 0 .375-.612 2.196 2.196 0 0 0 .139-.8z"/><use xlink:href="#D"/><use xlink:href="#E"/><path d="M43.82 784.393a.751.751 0 0 1-.225.574.829.829 0 0 1-.588.21.807.807 0 0 1-.547-.21.726.726 0 0 1-.237-.574v-16.744l-3.052 2.97a.639.639 0 0 1-.532.252.786.786 0 0 1-.588-.267.851.851 0 0 1-.252-.602.909.909 0 0 1 .252-.532l4.424-4.284a.878.878 0 0 1 .322-.182.965.965 0 0 1 .21-.042.694.694 0 0 1 .63.28 1.26 1.26 0 0 1 .183.699z"/><use xlink:href="#D" y="-144"/><use xlink:href="#E" y="-144"/><path d="M45.443 640.393a.859.859 0 0 1-.196.532.7.7 0 0 1-.588.252h-9.156a.789.789 0 0 1-.812-.784.746.746 0 0 1 .168-.448l8.344-11.787a3.623 3.623 0 0 0 .476-.994 3.732 3.732 0 0 0 .168-1.106 3.796 3.796 0 0 0-.279-1.441 3.58 3.58 0 0 0-.784-1.19 3.813 3.813 0 0 0-1.176-.798 3.523 3.523 0 0 0-1.429-.294 3.18 3.18 0 0 0-1.722.447 6.335 6.335 0 0 0-1.232.994q-.52.546-.882 1-.363.46-.644.462a.925.925 0 0 1-.588-.225.687.687 0 0 1-.28-.56 2.036 2.036 0 0 1 .378-.854 6.308 6.308 0 0 1 1.078-1.246 7.176 7.176 0 0 1 1.693-1.134 4.912 4.912 0 0 1 2.198-.49 5.104 5.104 0 0 1 2.059.421 5.365 5.365 0 0 1 1.68 1.134 5.235 5.235 0 0 1 1.12 1.666 5.088 5.088 0 0 1 .406 2.016 5.382 5.382 0 0 1-.98 3.08l-7.42 10.528h7.616a.7.7 0 0 1 .588.252.895.895 0 0 1 .196.56zm13.187-9.94q0 1.008-.028 2.24a20.336 20.336 0 0 1-.21 2.479 15.585 15.585 0 0 1-.546 2.408 6.938 6.938 0 0 1-1.036 2.071 5.029 5.029 0 0 1-1.68 1.456 5.177 5.177 0 0 1-2.492.546 5.26 5.26 0 0 1-2.506-.546 4.856 4.856 0 0 1-1.68-1.456 7.405 7.405 0 0 1-1.036-2.071 13.695 13.695 0 0 1-.546-2.408 22.213 22.213 0 0 1-.196-2.479q-.028-1.232-.028-2.24a29.875 29.875 0 0 1 .183-3.206 11.049 11.049 0 0 1 .798-3.15 6.093 6.093 0 0 1 1.792-2.408 4.934 4.934 0 0 1 3.192-.952 5.052 5.052 0 0 1 3.149.91 5.901 5.901 0 0 1 1.82 2.324 10.901 10.901 0 0 1 .84 3.136 27.726 27.726 0 0 1 .21 3.347zm-1.596 0a28.253 28.253 0 0 0-.154-2.969 9.669 9.669 0 0 0-.616-2.604 4.446 4.446 0 0 0-1.33-1.848 3.545 3.545 0 0 0-2.296-.7 3.377 3.377 0 0 0-2.45.854 5.3 5.3 0 0 0-1.315 2.101 10.139 10.139 0 0 0-.532 2.646q-.098 1.4-.098 2.52v1.792a23.552 23.552 0 0 0 .153 2.59 9.617 9.617 0 0 0 .616 2.534 5.031 5.031 0 0 0 1.33 1.918 3.289 3.289 0 0 0 2.269.77 3.384 3.384 0 0 0 2.31-.77 4.956 4.956 0 0 0 1.344-1.918 9.579 9.579 0 0 0 .616-2.534 23.565 23.565 0 0 0 .154-2.59z"/><use xlink:href="#F"/><path d="M45.47 491.753a5.96 5.96 0 0 1-1.736 4.228 6.113 6.113 0 0 1-1.903 1.288 5.825 5.825 0 0 1-2.353.476 5.686 5.686 0 0 1-2.968-.783 6.364 6.364 0 0 1-2.128-2.044.989.989 0 0 1-.112-.448.805.805 0 0 1 .252-.588.776.776 0 0 1 .561-.252.74.74 0 0 1 .644.42 4.414 4.414 0 0 0 1.582 1.525 4.26 4.26 0 0 0 2.17.574 4.171 4.171 0 0 0 1.694-.35 4.653 4.653 0 0 0 1.399-.938 4.361 4.361 0 0 0 .952-1.386 4.172 4.172 0 0 0 .351-1.694 4.241 4.241 0 0 0-.351-1.722 4.419 4.419 0 0 0-2.324-2.324 4.166 4.166 0 0 0-1.693-.35h-.028a.818.818 0 0 1-.56-.225.747.747 0 0 1-.252-.588.706.706 0 0 1 .252-.573.851.851 0 0 1 .56-.211h.028a3.425 3.425 0 0 0 1.414-.294 3.84 3.84 0 0 0 1.162-.798 3.801 3.801 0 0 0 .798-1.176 3.614 3.614 0 0 0 0-2.855 3.63 3.63 0 0 0-.798-1.162 3.982 3.982 0 0 0-1.162-.784 3.815 3.815 0 0 0-3.263.153 5.128 5.128 0 0 0-1.161.994q-.463.546-.8 1a.943.943 0 0 1-.756.462.877.877 0 0 1-.574-.225.704.704 0 0 1-.266-.56 2.152 2.152 0 0 1 .378-.84 5.908 5.908 0 0 1 1.092-1.261 7.508 7.508 0 0 1 1.708-1.134 5.24 5.24 0 0 1 4.271-.069 5.396 5.396 0 0 1 2.8 2.8 5.001 5.001 0 0 1 .42 2.044 5.09 5.09 0 0 1-.658 2.576 5.266 5.266 0 0 1-1.75 1.848 5.758 5.758 0 0 1 2.269 2.142 5.861 5.861 0 0 1 .84 3.095zm13.16-5.208q0 1.008-.028 2.24a20.337 20.337 0 0 1-.21 2.479 15.7 15.7 0 0 1-.546 2.408 6.961 6.961 0 0 1-1.036 2.071 5.039 5.039 0 0 1-1.68 1.456 5.179 5.179 0 0 1-2.492.546 5.255 5.255 0 0 1-2.506-.546 4.859 4.859 0 0 1-1.681-1.456 7.458 7.458 0 0 1-1.036-2.071 13.695 13.695 0 0 1-.546-2.408 22.211 22.211 0 0 1-.195-2.479q-.03-1.232-.028-2.24a30.12 30.12 0 0 1 .182-3.206 11.082 11.082 0 0 1 .798-3.15 6.104 6.104 0 0 1 1.793-2.408 4.931 4.931 0 0 1 3.191-.952 5.055 5.055 0 0 1 3.15.91 5.899 5.899 0 0 1 1.819 2.324 10.933 10.933 0 0 1 .841 3.136 27.726 27.726 0 0 1 .21 3.347zm-1.597 0a28.522 28.522 0 0 0-.153-2.969 9.743 9.743 0 0 0-.616-2.604 4.463 4.463 0 0 0-1.33-1.848 3.547 3.547 0 0 0-2.296-.7 3.374 3.374 0 0 0-2.45.854 5.313 5.313 0 0 0-1.316 2.101 10.138 10.138 0 0 0-.531 2.646q-.1 1.4-.1 2.52v1.792a23.565 23.565 0 0 0 .154 2.59 9.578 9.578 0 0 0 .616 2.534 5.02 5.02 0 0 0 1.33 1.918 3.286 3.286 0 0 0 2.268.77 3.386 3.386 0 0 0 2.311-.77 4.966 4.966 0 0 0 1.344-1.918 9.655 9.655 0 0 0 .616-2.534 23.796 23.796 0 0 0 .153-2.59zm7.96-6.607a3.039 3.039 0 0 1-.759 2.023 2.671 2.671 0 0 1-.816.621 2.213 2.213 0 0 1-.987.229 2.251 2.251 0 0 1-1.005-.229 2.655 2.655 0 0 1-.815-.621 2.978 2.978 0 0 1-.556-.914 3.12 3.12 0 0 1 0-2.22 2.978 2.978 0 0 1 .556-.914 2.539 2.539 0 0 1 .815-.612 2.326 2.326 0 0 1 1.005-.221 2.287 2.287 0 0 1 .987.221 2.554 2.554 0 0 1 .816.612 2.994 2.994 0 0 1 .555.914 3.03 3.03 0 0 1 .204 1.11zm-.93.008a2.184 2.184 0 0 0-.139-.797 1.947 1.947 0 0 0-.367-.609 1.637 1.637 0 0 0-.522-.39 1.385 1.385 0 0 0-1.208 0 1.638 1.638 0 0 0-.522.39 2.132 2.132 0 0 0 0 2.813 1.655 1.655 0 0 0 .522.391 1.394 1.394 0 0 0 1.208 0 1.655 1.655 0 0 0 .522-.391 1.947 1.947 0 0 0 .367-.609 2.18 2.18 0 0 0 .139-.797zm4.555-2.686a.54.54 0 0 1-.017.131l-3.118 11.264a.421.421 0 0 1-.408.343.545.545 0 0 1-.343-.131.418.418 0 0 1-.163-.343.345.345 0 0 1 .017-.131l3.118-11.263a.435.435 0 0 1 .424-.359.492.492 0 0 1 .335.139.451.451 0 0 1 .155.351zm4.587 8.57a3.033 3.033 0 0 1-.204 1.11 2.999 2.999 0 0 1-.555.914 2.683 2.683 0 0 1-.816.62 2.247 2.247 0 0 1-1.004.229 2.207 2.207 0 0 1-.987-.229 2.659 2.659 0 0 1-.816-.62 3.001 3.001 0 0 1-.556-.914 3.122 3.122 0 0 1 0-2.221 2.889 2.889 0 0 1 .556-.905 2.713 2.713 0 0 1 .816-.612 2.207 2.207 0 0 1 .987-.229 2.247 2.247 0 0 1 1.004.229 2.738 2.738 0 0 1 .816.612 2.887 2.887 0 0 1 .555.905 3.033 3.033 0 0 1 .204 1.11zm-.93 0a2.136 2.136 0 0 0-.139-.792 1.912 1.912 0 0 0-.375-.604 1.73 1.73 0 0 0-.531-.392 1.385 1.385 0 0 0-1.208 0 1.64 1.64 0 0 0-.522.392 1.986 1.986 0 0 0-.367.604 2.156 2.156 0 0 0-.139.792 2.217 2.217 0 0 0 .139.8 1.962 1.962 0 0 0 .367.612 1.64 1.64 0 0 0 .522.392 1.385 1.385 0 0 0 1.208 0 1.73 1.73 0 0 0 .531-.392 1.89 1.89 0 0 0 .375-.612 2.196 2.196 0 0 0 .139-.8zm-25.63-136.142a.894.894 0 0 1-.195.561.7.7 0 0 1-.588.252h-1.82v2.94a.697.697 0 0 1-.252.588.891.891 0 0 1-.561.196.851.851 0 0 1-.531-.196.697.697 0 0 1-.252-.588v-2.94h-7.532a.892.892 0 0 1-.63-.196.657.657 0 0 1-.21-.504 1.108 1.108 0 0 1 .027-.238.915.915 0 0 1 .112-.266l7.896-15.065a.797.797 0 0 1 .729-.448.823.823 0 0 1 .56.225.718.718 0 0 1 .252.56.945.945 0 0 1-.111.42l-7.28 13.916h6.188v-3.6a.772.772 0 0 1 .252-.63.816.816 0 0 1 .531-.211.853.853 0 0 1 .561.211.739.739 0 0 1 .252.602v3.64h1.82a.72.72 0 0 1 .588.238.839.839 0 0 1 .195.546z"/><path d="M58.63 343.5q0 1.008-.028 2.24a20.337 20.337 0 0 1-.21 2.479 15.7 15.7 0 0 1-.546 2.408 6.961 6.961 0 0 1-1.036 2.071 5.039 5.039 0 0 1-1.68 1.456 5.179 5.179 0 0 1-2.492.546 5.255 5.255 0 0 1-2.506-.546 4.859 4.859 0 0 1-1.681-1.456 7.458 7.458 0 0 1-1.036-2.071 13.695 13.695 0 0 1-.546-2.408 22.211 22.211 0 0 1-.195-2.479q-.03-1.232-.028-2.24a30.119 30.119 0 0 1 .182-3.206 11.082 11.082 0 0 1 .798-3.15 6.104 6.104 0 0 1 1.793-2.408 4.931 4.931 0 0 1 3.191-.952 5.055 5.055 0 0 1 3.15.91 5.899 5.899 0 0 1 1.819 2.324 10.933 10.933 0 0 1 .841 3.136 27.726 27.726 0 0 1 .21 3.347zm-1.597 0a28.522 28.522 0 0 0-.153-2.969 9.743 9.743 0 0 0-.616-2.604 4.463 4.463 0 0 0-1.33-1.848 3.547 3.547 0 0 0-2.296-.7 3.374 3.374 0 0 0-2.45.854 5.313 5.313 0 0 0-1.316 2.101 10.138 10.138 0 0 0-.531 2.646q-.1 1.4-.1 2.52v1.792a23.565 23.565 0 0 0 .154 2.59 9.578 9.578 0 0 0 .616 2.534 5.02 5.02 0 0 0 1.33 1.918 3.286 3.286 0 0 0 2.268.77 3.386 3.386 0 0 0 2.311-.77 4.966 4.966 0 0 0 1.344-1.918 9.655 9.655 0 0 0 .616-2.534 23.797 23.797 0 0 0 .153-2.59z"/><use xlink:href="#F" y="-286.952"/><path d="M84.72 969.18v-1.92h2.816V948.7l-2.88.257v-1.408a11.193 11.193 0 0 0 1.92-.688 7.802 7.802 0 0 0 1.727-1.104h1.537v21.504h2.688v1.92zm12.064-4.288a4.522 4.522 0 0 0 .4 1.392 2.542 2.542 0 0 0 .623.816 1.884 1.884 0 0 0 .736.384 3.017 3.017 0 0 0 .736.097q1.535 0 2.432-2.208a20.912 20.912 0 0 0 .961-7.04 6.915 6.915 0 0 1-1.617 1.248 3.894 3.894 0 0 1-1.936.512 4.848 4.848 0 0 1-1.855-.368 3.986 3.986 0 0 1-1.584-1.216 6.486 6.486 0 0 1-1.104-2.192 11.399 11.399 0 0 1-.416-3.328 9.217 9.217 0 0 1 1.328-5.312 4.185 4.185 0 0 1 3.631-1.92 6.318 6.318 0 0 1 2.609.496 4.189 4.189 0 0 1 1.84 1.695 9.509 9.509 0 0 1 1.104 3.265 30.337 30.337 0 0 1 .367 5.168 38.031 38.031 0 0 1-.4 5.968 15.277 15.277 0 0 1-1.15 4.064 5.813 5.813 0 0 1-1.824 2.336 4.163 4.163 0 0 1-2.449.752 5.038 5.038 0 0 1-1.902-.32 3.479 3.479 0 0 1-1.312-.912 4.631 4.631 0 0 1-.848-1.408 8.552 8.552 0 0 1-.48-1.84zm5.953-10.88a16.561 16.561 0 0 0-.225-2.96 6.58 6.58 0 0 0-.641-1.952 2.677 2.677 0 0 0-1.023-1.088 2.959 2.959 0 0 0-2.607-.064 2.288 2.288 0 0 0-.945.896 5.327 5.327 0 0 0-.607 1.647 12.136 12.136 0 0 0-.225 2.528 11.228 11.228 0 0 0 .24 2.544 4.681 4.681 0 0 0 .641 1.584 2.172 2.172 0 0 0 .928.8 2.702 2.702 0 0 0 1.072.225 3.296 3.296 0 0 0 1.969-.608 6.523 6.523 0 0 0 1.424-1.376zm3.615-7.936h10.367v1.216L110 969.18h-2.434l6.72-21.184h-7.935zm22.878 11.552a37.073 37.073 0 0 1-.336 5.376 13.151 13.151 0 0 1-1.025 3.68 5.049 5.049 0 0 1-1.742 2.128 4.756 4.756 0 0 1-4.93 0 5.035 5.035 0 0 1-1.742-2.128 13.086 13.086 0 0 1-1.025-3.68 43.183 43.183 0 0 1 0-10.752 13.093 13.093 0 0 1 1.025-3.681 5.041 5.041 0 0 1 1.742-2.128 4.762 4.762 0 0 1 4.93 0 5.055 5.055 0 0 1 1.742 2.128 13.159 13.159 0 0 1 1.025 3.681 37.073 37.073 0 0 1 .336 5.376zm-2.305 0a45.045 45.045 0 0 0-.207-4.752 13.61 13.61 0 0 0-.625-3.057 3.722 3.722 0 0 0-1.023-1.647 2.247 2.247 0 0 0-2.816 0 3.704 3.704 0 0 0-1.023 1.647 13.611 13.611 0 0 0-.625 3.057 54.639 54.639 0 0 0 0 9.504 13.589 13.589 0 0 0 .625 3.056 3.703 3.703 0 0 0 1.023 1.648 2.247 2.247 0 0 0 2.816 0 3.72 3.72 0 0 0 1.023-1.648 13.588 13.588 0 0 0 .625-3.056 45.045 45.045 0 0 0 .207-4.752zm871.918 11.516v-1.92a15.882 15.882 0 0 1 1.344-3.184q.832-1.488 1.76-2.816.93-1.327 1.9-2.56.96-1.23 1.728-2.432a14.076 14.076 0 0 0 1.248-2.416 6.819 6.819 0 0 0 .48-2.528 4.046 4.046 0 0 0-.801-2.735 2.532 2.532 0 0 0-1.983-.912 2.818 2.818 0 0 0-2.288 1.136 6.673 6.673 0 0 0-1.072 3.729h-2.112a11.629 11.629 0 0 1 .561-3.265 5.881 5.881 0 0 1 1.2-2.096 4.096 4.096 0 0 1 1.664-1.104 6.025 6.025 0 0 1 1.983-.32 4.91 4.91 0 0 1 3.712 1.504 6.101 6.101 0 0 1 1.44 4.384 7.869 7.869 0 0 1-.4 2.592 10.955 10.955 0 0 1-1.071 2.225 19.557 19.557 0 0 1-1.553 2.128q-.88 1.056-1.84 2.32-.96 1.266-1.936 2.8a24.797 24.797 0 0 0-1.84 3.552h8.768v1.92zm24.064-11.552a36.936 36.936 0 0 1-.336 5.376 13.121 13.121 0 0 1-1.024 3.68 5.044 5.044 0 0 1-1.743 2.128 4.755 4.755 0 0 1-4.929 0 5.037 5.037 0 0 1-1.743-2.128 13.088 13.088 0 0 1-1.024-3.68 43.183 43.183 0 0 1 0-10.752 13.095 13.095 0 0 1 1.024-3.681 5.043 5.043 0 0 1 1.743-2.128 4.761 4.761 0 0 1 4.929 0 5.05 5.05 0 0 1 1.743 2.128 13.128 13.128 0 0 1 1.024 3.681 36.936 36.936 0 0 1 .336 5.376zm-2.304 0a45.011 45.011 0 0 0-.208-4.752 13.616 13.616 0 0 0-.624-3.057 3.714 3.714 0 0 0-1.024-1.647 2.245 2.245 0 0 0-2.815 0 3.705 3.705 0 0 0-1.024 1.647 13.617 13.617 0 0 0-.624 3.057 54.383 54.383 0 0 0 0 9.504 13.595 13.595 0 0 0 .624 3.056 3.703 3.703 0 0 0 1.024 1.648 2.245 2.245 0 0 0 2.815 0 3.712 3.712 0 0 0 1.024-1.648 13.594 13.594 0 0 0 .624-3.056 45.011 45.011 0 0 0 .208-4.752zm4.51 11.552v-1.92h2.816v-18.56l-2.88.257v-1.408a11.163 11.163 0 0 0 1.92-.688 7.785 7.785 0 0 0 1.728-1.104h1.536v21.504h2.688v1.92zm20.766-5.824a7.253 7.253 0 0 1-.384 2.368 5.701 5.701 0 0 1-1.12 1.952 5.469 5.469 0 0 1-1.792 1.328 6.053 6.053 0 0 1-4.8 0 5.458 5.458 0 0 1-1.792-1.328 5.685 5.685 0 0 1-1.12-1.952 7.253 7.253 0 0 1-.384-2.368 6.638 6.638 0 0 1 1.023-3.712 10.292 10.292 0 0 1 2.688-2.752 10.115 10.115 0 0 1-2.368-2.56 6.344 6.344 0 0 1-.832-3.393 5.306 5.306 0 0 1 .4-2.096 4.959 4.959 0 0 1 1.104-1.632 5.042 5.042 0 0 1 1.648-1.072 5.57 5.57 0 0 1 4.063 0 5.062 5.062 0 0 1 1.648 1.072 4.974 4.974 0 0 1 1.104 1.632 5.323 5.323 0 0 1 .4 2.096 6.344 6.344 0 0 1-.832 3.393 10.115 10.115 0 0 1-2.368 2.56 10.307 10.307 0 0 1 2.688 2.752 6.638 6.638 0 0 1 1.023 3.712zm-2.304.097a5.041 5.041 0 0 0-.272-1.696 5.537 5.537 0 0 0-.735-1.408 7.466 7.466 0 0 0-1.072-1.184 16.565 16.565 0 0 0-1.312-1.057 16.726 16.726 0 0 0-1.312 1.057 7.467 7.467 0 0 0-1.072 1.184 5.506 5.506 0 0 0-.735 1.408 5.041 5.041 0 0 0-.272 1.696 5.692 5.692 0 0 0 .192 1.439 4.07 4.07 0 0 0 .607 1.328 3.419 3.419 0 0 0 1.057.976 3.257 3.257 0 0 0 3.071 0 3.43 3.43 0 0 0 1.057-.976 4.09 4.09 0 0 0 .607-1.328 5.692 5.692 0 0 0 .192-1.439zm-.512-12.77a3.527 3.527 0 0 0-.177-1.088 2.978 2.978 0 0 0-.527-.976 2.532 2.532 0 0 0-.896-.688 3.329 3.329 0 0 0-2.56 0 2.515 2.515 0 0 0-.896.688 2.96 2.96 0 0 0-.527.976 3.497 3.497 0 0 0-.177 1.088 5.705 5.705 0 0 0 .784 3.04 2.096 2.096 0 0 0 4.192 0 5.705 5.705 0 0 0 .784-3.04z"/></g><g fill="#e0022f"><path d="M104.83 382.158a6.301 6.301 0 0 0 1.484-4.32 6.827 6.827 0 0 0-1.755-4.994 6.208 6.208 0 0 0-4.59-1.755h-.495c-.314.045-.45-.135-.404-.45v-2.115c-.046-.314.1-.45.404-.36h.27a5.791 5.791 0 0 0 5.939-6.21c-.1-3.104-1.665-4.814-4.545-4.905a4.127 4.127 0 0 0-3.149 1.17 5.702 5.702 0 0 0-1.62 3.465q0 .608-.405.54H93.58c-.36.045-.495-.1-.405-.45a8.811 8.811 0 0 1 2.521-5.58 7.821 7.821 0 0 1 11.069 0 8.051 8.051 0 0 1 2.295 5.76 7.337 7.337 0 0 1-1.53 4.725 8.569 8.569 0 0 1-3.06 2.565c-.225.135-.225.314.045.494a9.628 9.628 0 0 1 3.375 2.565 8.073 8.073 0 0 1 1.755 5.534 9.354 9.354 0 0 1-2.52 6.48 8.672 8.672 0 0 1-6.345 2.79 8.499 8.499 0 0 1-5.896-2.295 9.002 9.002 0 0 1-2.654-6.391c-.1-.18.045-.27.36-.36h2.385c.315-.045.45.135.495.54.226 3.42 2.025 5.22 5.355 5.354h0a5.174 5.174 0 0 0 4.005-1.8zm9.945-12.465c0 .315.135.36.36.18.944-1.26 2.744-2.025 5.354-2.25a7.951 7.951 0 0 1 6.165 2.745 10.249 10.249 0 0 1 2.34 6.839 10.447 10.447 0 0 1-2.431 6.885 7.853 7.853 0 0 1-6.345 3.016 7.97 7.97 0 0 1-6.39-2.971 10.893 10.893 0 0 1-2.385-7.064V363.26a9.732 9.732 0 0 1 2.385-6.569 8.309 8.309 0 0 1 6.48-2.79 8.826 8.826 0 0 1 5.669 1.935 8.083 8.083 0 0 1 2.79 5.175c.045.27-.1.405-.45.405h-2.565c-.314 0-.45-.18-.45-.495a5.73 5.73 0 0 0-1.529-2.745 4.976 4.976 0 0 0-3.51-1.125 4.905 4.905 0 0 0-4.05 1.755 6.632 6.632 0 0 0-1.44 4.455zm1.395 12.33a5.133 5.133 0 0 0 8.101 0 8.135 8.135 0 0 0 1.395-4.815 8.05 8.05 0 0 0-1.35-4.725 4.59 4.59 0 0 0-4.005-1.845c-3.7.135-5.535 2.475-5.535 6.66h0a7.47 7.47 0 0 0 1.395 4.725z"/><use xlink:href="#G"/><path d="M1018.488 759.782q0-.472-.405-.135-1.418 1.822-5.4 2.16a7.884 7.884 0 0 1-6.165-2.745 10.163 10.163 0 0 1-2.295-6.795 10.413 10.413 0 0 1 2.34-6.84 8.106 8.106 0 0 1 6.39-2.97 7.871 7.871 0 0 1 6.39 2.925 10.651 10.651 0 0 1 2.34 7.02v13.77a9.661 9.661 0 0 1-2.34 6.525 8.288 8.288 0 0 1-6.479 2.744 8.655 8.655 0 0 1-5.67-1.935 7.818 7.818 0 0 1-2.745-5.13c0-.27.1-.36.405-.36h2.52c.27 0 .45.136.495.495a5.319 5.319 0 0 0 1.485 2.745 5.939 5.939 0 0 0 7.694-.63 6.874 6.874 0 0 0 1.44-4.455zm-1.396-12.374a4.844 4.844 0 0 0-4.14-1.936 4.681 4.681 0 0 0-4.05 1.936 7.888 7.888 0 0 0-1.439 4.859 7.7 7.7 0 0 0 1.395 4.77 4.486 4.486 0 0 0 4.005 1.846c3.734-.136 5.58-2.476 5.625-6.705h0a7.599 7.599 0 0 0-1.396-4.77z"/><use xlink:href="#G" x="892.057" y="388.519"/></g><path d="M65.85 39.173a2.742 2.742 0 0 1-.659 1.77 2.334 2.334 0 0 1-1.921.811h-9.96v35.1a2.333 2.333 0 0 1-.76 1.86 2.638 2.638 0 0 1-1.791.66 2.789 2.789 0 0 1-1.79-.66 2.25 2.25 0 0 1-.819-1.86v-35.1h-9.84a2.403 2.403 0 0 1-1.98-.811 2.738 2.738 0 0 1-.66-1.77 2.667 2.667 0 0 1 .66-1.71 2.332 2.332 0 0 1 1.92-.811h25.02a2.334 2.334 0 0 1 1.921.811 2.671 2.671 0 0 1 .659 1.71z"/><use xlink:href="#H"/><path d="M128.5 63.413a2.823 2.823 0 0 1-.66 1.83 2.266 2.266 0 0 1-1.86.81h-22.2a11.592 11.592 0 0 0 3.21 6.75 8.932 8.932 0 0 0 6.511 2.49 10.56 10.56 0 0 0 3.93-.75 7.786 7.786 0 0 0 3.209-2.37 2.451 2.451 0 0 1 1.861-.96 2.677 2.677 0 0 1 1.859.78 2.457 2.457 0 0 1 .6 2.909 6.338 6.338 0 0 1-1.199 1.471 13.752 13.752 0 0 1-4.711 3 15.42 15.42 0 0 1-5.549 1.02 14.416 14.416 0 0 1-6.42-1.38 14 14 0 0 1-4.74-3.72 16.285 16.285 0 0 1-2.91-5.43 21.008 21.008 0 0 1-.99-6.45 20.72 20.72 0 0 1 .99-6.42 16.334 16.334 0 0 1 2.91-5.4 14 14 0 0 1 4.74-3.72 14.416 14.416 0 0 1 6.42-1.38 14.566 14.566 0 0 1 6.479 1.38 13.711 13.711 0 0 1 4.71 3.72 16.243 16.243 0 0 1 2.85 5.4 21.332 21.332 0 0 1 .961 6.42zm-5.28-2.46a11.766 11.766 0 0 0-3.209-6.854 8.902 8.902 0 0 0-6.51-2.506 9.467 9.467 0 0 0-3.781.725 8.938 8.938 0 0 0-2.909 1.993 9.941 9.941 0 0 0-1.979 2.989 14.665 14.665 0 0 0-1.051 3.653zm47.7 15.84a2.346 2.346 0 0 1-.811 1.89 2.742 2.742 0 0 1-1.83.69 2.311 2.311 0 0 1-1.17-.33 2.914 2.914 0 0 1-.99-.99l-20.16-30.3v29.04a2.334 2.334 0 0 1-.81 1.92 2.821 2.821 0 0 1-1.83.66 2.624 2.624 0 0 1-1.74-.66 2.3 2.3 0 0 1-.78-1.86v-37.62a2.337 2.337 0 0 1 .81-1.92 2.826 2.826 0 0 1 1.83-.66 2.515 2.515 0 0 1 2.16 1.261l20.16 30.3v-28.98a2.356 2.356 0 0 1 .78-1.949 2.698 2.698 0 0 1 1.739-.631 2.904 2.904 0 0 1 1.83.631 2.243 2.243 0 0 1 .811 1.89zm31.738.12a2.315 2.315 0 0 1-.759 1.89 2.72 2.72 0 0 1-1.791.63 2.957 2.957 0 0 1-1.609-.479 2.107 2.107 0 0 1-.94-1.5 15.311 15.311 0 0 1-3.96 2.189 13.224 13.224 0 0 1-4.68.811 13.049 13.049 0 0 1-5.25-1.08 14.288 14.288 0 0 1-4.381-2.94 13.659 13.659 0 0 1-2.97-4.35 13.201 13.201 0 0 1-1.08-5.311v-16.62a2.375 2.375 0 0 1 .78-1.92 2.628 2.628 0 0 1 1.74-.659 2.825 2.825 0 0 1 1.83.659 2.269 2.269 0 0 1 .81 1.86v16.68a8.053 8.053 0 0 0 .69 3.301 8.923 8.923 0 0 0 1.859 2.729 9.033 9.033 0 0 0 2.7 1.86 7.862 7.862 0 0 0 3.271.689 8.066 8.066 0 0 0 3.299-.689 8.874 8.874 0 0 0 4.591-4.59 8.085 8.085 0 0 0 .69-3.301v-16.62a2.468 2.468 0 0 1 .758-2.01 2.718 2.718 0 0 1 1.791-.63 2.76 2.76 0 0 1 1.821.66 2.361 2.361 0 0 1 .789 1.92zm46.56-.12a2.334 2.334 0 0 1-.809 1.92 2.821 2.821 0 0 1-1.83.66 2.624 2.624 0 0 1-1.74-.66 2.3 2.3 0 0 1-.78-1.86v-18.9a5.971 5.971 0 0 0-.509-2.46 6.983 6.983 0 0 0-1.343-2.011 6.206 6.206 0 0 0-2.001-1.38 5.981 5.981 0 0 0-2.418-.51 6.133 6.133 0 0 0-2.479.51 6.273 6.273 0 0 0-3.344 3.36 6.053 6.053 0 0 0-.508 2.43v18.9a2.363 2.363 0 0 1-.789 1.92 2.755 2.755 0 0 1-1.82.66 2.639 2.639 0 0 1-1.791-.66 2.33 2.33 0 0 1-.76-1.86v-18.9a5.956 5.956 0 0 0-.51-2.46 6.659 6.659 0 0 0-3.39-3.391 6.19 6.19 0 0 0-4.92 0 6.98 6.98 0 0 0-2.011 1.351 6.186 6.186 0 0 0-1.379 2.01 6.006 6.006 0 0 0-.51 2.43v18.9a2.332 2.332 0 0 1-.811 1.92 2.819 2.819 0 0 1-1.83.66 2.624 2.624 0 0 1-1.74-.66 2.303 2.303 0 0 1-.779-1.86v-26.82a2.316 2.316 0 0 1 .81-1.95 2.903 2.903 0 0 1 1.83-.63 2.843 2.843 0 0 1 1.229.27 2.153 2.153 0 0 1 .93.87 10.449 10.449 0 0 1 3.091-1.56 11.766 11.766 0 0 1 3.569-.54 11.361 11.361 0 0 1 5.041 1.14 11.059 11.059 0 0 1 3.899 3.12 11.209 11.209 0 0 1 8.88-4.26 11.311 11.311 0 0 1 4.5.899 11.831 11.831 0 0 1 3.66 2.431 11.338 11.338 0 0 1 3.359 8.069zm35.4-13.38a20.918 20.918 0 0 1-.99 6.479 16.379 16.379 0 0 1-2.91 5.4 14.01 14.01 0 0 1-4.74 3.72 14.419 14.419 0 0 1-6.42 1.38 14.968 14.968 0 0 1-4.229-.54 15.699 15.699 0 0 1-3.09-1.229 15.035 15.035 0 0 1-2.58-1.83 2.248 2.248 0 0 1-.81 1.89 2.907 2.907 0 0 1-1.83.63 2.7 2.7 0 0 1-1.74-.63 2.283 2.283 0 0 1-.78-1.89v-37.56a2.356 2.356 0 0 1 .78-1.949 2.701 2.701 0 0 1 1.74-.631 2.908 2.908 0 0 1 1.83.631 2.248 2.248 0 0 1 .81 1.89v11.22a12.555 12.555 0 0 1 4.26-2.88 14.625 14.625 0 0 1 5.64-1.02 14.419 14.419 0 0 1 6.42 1.38 14.01 14.01 0 0 1 4.74 3.72 16.37 16.37 0 0 1 2.91 5.4 20.72 20.72 0 0 1 .99 6.42zm-5.16 0a15.973 15.973 0 0 0-.689-4.86 10.783 10.783 0 0 0-2.01-3.72 9.098 9.098 0 0 0-3.121-2.4 10.255 10.255 0 0 0-8.129 0 8.995 8.995 0 0 0-3.15 2.4 10.719 10.719 0 0 0-2.01 3.72 15.912 15.912 0 0 0-.69 4.86q0 5.46 2.7 8.67a9.68 9.68 0 0 0 14.4 0q2.698-3.2 2.7-8.67zm38.28 0a2.817 2.817 0 0 1-.66 1.83 2.264 2.264 0 0 1-1.86.81h-22.2a11.591 11.591 0 0 0 3.209 6.75 8.933 8.933 0 0 0 6.511 2.49 10.56 10.56 0 0 0 3.93-.75 7.789 7.789 0 0 0 3.21-2.37 2.45 2.45 0 0 1 1.86-.96 2.679 2.679 0 0 1 1.86.78 2.457 2.457 0 0 1 .6 2.909 6.323 6.323 0 0 1-1.2 1.471 13.739 13.739 0 0 1-4.71 3 15.429 15.429 0 0 1-5.55 1.02 14.422 14.422 0 0 1-6.42-1.38 14.01 14.01 0 0 1-4.74-3.72 16.303 16.303 0 0 1-2.91-5.43 21.037 21.037 0 0 1-.989-6.45 20.749 20.749 0 0 1 .989-6.42 16.352 16.352 0 0 1 2.91-5.4 14.01 14.01 0 0 1 4.74-3.72 15.763 15.763 0 0 1 12.899 0 13.724 13.724 0 0 1 4.711 3.72 16.243 16.243 0 0 1 2.85 5.4 21.362 21.362 0 0 1 .96 6.42zm-5.28-2.46a11.767 11.767 0 0 0-3.21-6.854 8.899 8.899 0 0 0-6.51-2.506 9.459 9.459 0 0 0-3.78.725 8.943 8.943 0 0 0-2.91 1.993 9.941 9.941 0 0 0-1.979 2.989 14.705 14.705 0 0 0-1.05 3.653zm25.38-11.88a2.592 2.592 0 0 1-.659 1.77 2.497 2.497 0 0 1-1.979.75 7.863 7.863 0 0 0-3.271.69 9.048 9.048 0 0 0-2.7 1.859 8.928 8.928 0 0 0-1.859 2.73 8.052 8.052 0 0 0-.69 3.3v16.62a2.334 2.334 0 0 1-.81 1.92 2.821 2.821 0 0 1-1.83.66 2.624 2.624 0 0 1-1.74-.66 2.3 2.3 0 0 1-.78-1.86v-26.76a2.294 2.294 0 0 1 .84-1.92 2.72 2.72 0 0 1 1.681-.66 2.881 2.881 0 0 1 1.649.51 2.23 2.23 0 0 1 .931 1.53 13.126 13.126 0 0 1 4.02-2.25 13.537 13.537 0 0 1 4.561-.81 2.454 2.454 0 0 1 1.979.779 2.71 2.71 0 0 1 .659 1.801zm38.34 14.34a20.918 20.918 0 0 1-.99 6.479 16.379 16.379 0 0 1-2.91 5.4 14.019 14.019 0 0 1-4.74 3.72 15.624 15.624 0 0 1-12.84 0 14.01 14.01 0 0 1-4.74-3.72 16.362 16.362 0 0 1-2.91-5.4 21.519 21.519 0 0 1 0-12.899 16.352 16.352 0 0 1 2.91-5.4 14.01 14.01 0 0 1 4.74-3.72 15.624 15.624 0 0 1 12.84 0 14.019 14.019 0 0 1 4.74 3.72 16.37 16.37 0 0 1 2.91 5.4 20.72 20.72 0 0 1 .99 6.42zm-5.16 0a13.044 13.044 0 0 0-2.67-8.61 8.915 8.915 0 0 0-7.23-3.21 9.596 9.596 0 0 0-4.05.84 8.991 8.991 0 0 0-3.149 2.4 10.718 10.718 0 0 0-2.01 3.72 15.912 15.912 0 0 0-.69 4.86q0 5.46 2.7 8.67a9.713 9.713 0 0 0 14.43 0q2.67-3.2 2.67-8.67zm22.02-13.32a2.595 2.595 0 0 1-.66 1.771 2.503 2.503 0 0 1-1.98.75h-2.7v24.18a2.246 2.246 0 0 1-.811 1.89 2.905 2.905 0 0 1-1.83.63 2.7 2.7 0 0 1-1.74-.63 2.285 2.285 0 0 1-.779-1.89v-24.18h-2.46a2.344 2.344 0 0 1-1.859-.75 2.586 2.586 0 0 1-.66-1.771 2.699 2.699 0 0 1 .66-1.8 2.301 2.301 0 0 1 1.859-.78h2.46v-4.08a6.26 6.26 0 0 1 .57-2.67 7.447 7.447 0 0 1 1.5-2.16 6.52 6.52 0 0 1 2.189-1.439 6.968 6.968 0 0 1 2.64-.511 2.449 2.449 0 0 1 1.979.78 2.704 2.704 0 0 1 .66 1.8 2.624 2.624 0 0 1-.66 1.74 2.445 2.445 0 0 1-1.979.78 1.704 1.704 0 0 0-1.26.48 1.556 1.556 0 0 0-.479 1.141v4.14h2.7a2.455 2.455 0 0 1 1.98.78 2.709 2.709 0 0 1 .66 1.8z"/><g fill="#e0022f"><path d="M439.524 58.966a35.838 35.838 0 0 1-1.02 8.081 20.352 20.352 0 0 1-3.03 6.852 15.253 15.253 0 0 1-5.34 4.729 16.83 16.83 0 0 1-8.07 1.765 16.463 16.463 0 0 1-8.28-1.92 15.548 15.548 0 0 1-5.399-5.04 21.009 21.009 0 0 1-2.91-7.17 39.096 39.096 0 0 1-.87-8.25 38.499 38.499 0 0 1 .9-8.37 21.117 21.117 0 0 1 2.97-7.17 15.66 15.66 0 0 1 5.399-5.01 16.38 16.38 0 0 1 8.19-1.89 17.866 17.866 0 0 1 7.47 1.512 14.917 14.917 0 0 1 5.851 4.968 2.467 2.467 0 0 1 .54 1.5 2.276 2.276 0 0 1-.93 1.83 3.067 3.067 0 0 1-1.951.75 1.433 1.433 0 0 1-1.139-.36q-.302-.36-1.02-1.2a11.25 11.25 0 0 0-3.511-2.82 11.445 11.445 0 0 0-5.31-1.08 11.271 11.271 0 0 0-5.819 1.383 10.875 10.875 0 0 0-3.781 3.727 16.659 16.659 0 0 0-2.069 5.499 34.197 34.197 0 0 0-.63 6.701 37.869 37.869 0 0 0 .51 6.162 17.688 17.688 0 0 0 1.86 5.589 10.796 10.796 0 0 0 3.75 4.026 11.293 11.293 0 0 0 6.18 1.533 10.834 10.834 0 0 0 8.67-3.66q3.15-3.66 3.45-10.2h-5.4a2.462 2.462 0 0 1-1.979-.771 2.727 2.727 0 0 1 0-3.558 2.316 2.316 0 0 1 1.86-.771h8.22a2.474 2.474 0 0 1 2.64 2.633z"/><use xlink:href="#I"/><use xlink:href="#J"/><path d="M481.043 76.973a2.595 2.595 0 0 1-.66 1.771 2.422 2.422 0 0 1-1.92.75 5.749 5.749 0 0 1-2.31-.48 5.82 5.82 0 0 1-1.92-1.32 6.474 6.474 0 0 1-1.291-1.949 5.903 5.903 0 0 1-.479-2.37v-34.14a2.356 2.356 0 0 1 .78-1.949 2.883 2.883 0 0 1 3.6 0 2.285 2.285 0 0 1 .779 1.89v34.2a.936.936 0 0 0 .301.779.895.895 0 0 0 .54.24 2.377 2.377 0 0 1 1.92.78 2.709 2.709 0 0 1 .66 1.8zm25.08-6.24a9.236 9.236 0 0 1-1.02 4.5 8.382 8.382 0 0 1-2.73 3 11.742 11.742 0 0 1-3.93 1.65 20.589 20.589 0 0 1-4.62.51 21.362 21.362 0 0 1-2.819-.21 19.217 19.217 0 0 1-3.181-.72 14.709 14.709 0 0 1-3.09-1.38 9.504 9.504 0 0 1-2.55-2.19 2.928 2.928 0 0 1-.541-1.56 2.48 2.48 0 0 1 .871-1.92 2.715 2.715 0 0 1 1.83-.78 2.53 2.53 0 0 1 1.859 1.02 6.784 6.784 0 0 0 3.48 2.101 16.553 16.553 0 0 0 4.14.54q4.08 0 5.6-1.26a4.072 4.072 0 0 0 1.529-3.301 3.461 3.461 0 0 0-1.35-2.939 11.451 11.451 0 0 0-3.391-1.68q-2.04-.66-4.4-1.26a20.625 20.625 0 0 1-4.41-1.649 9.617 9.617 0 0 1-3.39-2.88 8.053 8.053 0 0 1-1.351-4.891 7.831 7.831 0 0 1 1.05-4.17 8.364 8.364 0 0 1 2.73-2.76 12.212 12.212 0 0 1 3.779-1.53 19.103 19.103 0 0 1 4.261-.479 21.921 21.921 0 0 1 6.659 1.229 11.234 11.234 0 0 1 2.971 1.561 2.703 2.703 0 0 1 1.23 2.189 2.789 2.789 0 0 1-.721 1.86 2.273 2.273 0 0 1-1.8.84 2.677 2.677 0 0 1-.96-.21 4.258 4.258 0 0 1-1.02-.57 6.683 6.683 0 0 0-2.867-1.41 15.22 15.22 0 0 0-3.465-.39q-3.703 0-5.195 1.17a3.364 3.364 0 0 0-1.493 2.67 3.108 3.108 0 0 0 1.345 2.73 12.382 12.382 0 0 0 3.379 1.56q2.033.63 4.426 1.23a18.664 18.664 0 0 1 4.426 1.71 9.946 9.946 0 0 1 3.379 3 8.581 8.581 0 0 1 1.346 5.069zm49.378-12.72a37.591 37.591 0 0 1-.93 8.43 21.261 21.261 0 0 1-3 7.141 15.481 15.481 0 0 1-5.4 4.95 18.836 18.836 0 0 1-16.32 0 15.486 15.486 0 0 1-5.399-4.95 20.793 20.793 0 0 1-2.97-7.141 40.194 40.194 0 0 1 0-16.92 20.804 20.804 0 0 1 2.97-7.14 15.495 15.495 0 0 1 5.399-4.95 18.836 18.836 0 0 1 16.32 0 15.49 15.49 0 0 1 5.4 4.95 21.272 21.272 0 0 1 3 7.14 37.884 37.884 0 0 1 .93 8.49zm-5.16-.03q0-8.294-2.97-12.8-2.97-4.5-9.33-4.5-6.36 0-9.33 4.538-2.97 4.538-2.97 12.77 0 8.235 2.97 12.772 2.97 4.538 9.33 4.538 6.36 0 9.33-4.508 2.97-4.5 2.97-12.803zm36.3 18.93a2.315 2.315 0 0 1-.76 1.89 2.716 2.716 0 0 1-1.791.63 2.959 2.959 0 0 1-1.609-.479 2.109 2.109 0 0 1-.939-1.5 15.317 15.317 0 0 1-3.961 2.189 13.22 13.22 0 0 1-4.68.811 13.056 13.056 0 0 1-5.25-1.08 14.295 14.295 0 0 1-4.38-2.94 13.643 13.643 0 0 1-2.97-4.35 13.185 13.185 0 0 1-1.08-5.311v-16.62a2.377 2.377 0 0 1 .779-1.92 2.628 2.628 0 0 1 1.74-.659 2.823 2.823 0 0 1 1.83.659 2.267 2.267 0 0 1 .811 1.86v16.68a8.052 8.052 0 0 0 .689 3.301 8.923 8.923 0 0 0 1.859 2.729 9.05 9.05 0 0 0 2.701 1.86 7.858 7.858 0 0 0 3.27.689 8.067 8.067 0 0 0 3.3-.689 8.883 8.883 0 0 0 4.591-4.59 8.084 8.084 0 0 0 .689-3.301v-16.62a2.468 2.468 0 0 1 .758-2.01 2.72 2.72 0 0 1 1.792-.63 2.764 2.764 0 0 1 1.821.66 2.364 2.364 0 0 1 .789 1.92zm18.42-.12a2.676 2.676 0 0 1-.66 1.83 2.35 2.35 0 0 1-1.86.75h-1.02q-4.318 0-6.1-2.1a8.757 8.757 0 0 1-1.77-5.819v-18.84h-1.8a2.492 2.492 0 0 1-1.83-.75 2.421 2.421 0 0 1-.75-1.771 2.492 2.492 0 0 1 .75-1.83 2.421 2.421 0 0 1 1.771-.75h1.8v-8.34a2.283 2.283 0 0 1 .78-1.89 2.783 2.783 0 0 1 1.8-.631 2.666 2.666 0 0 1 1.77.631 2.328 2.328 0 0 1 .75 1.89v8.34h3.84a2.212 2.212 0 0 1 1.89.84 2.796 2.796 0 0 1 .631 1.681 2.676 2.676 0 0 1-.66 1.83 2.35 2.35 0 0 1-1.86.75h-3.84v19.38a1.905 1.905 0 0 0 2.281 2.279h1.5a2.445 2.445 0 0 1 1.89.75 2.536 2.536 0 0 1 .69 1.77zm42.12-13.38a20.918 20.918 0 0 1-.99 6.479 16.362 16.362 0 0 1-2.91 5.4 14.025 14.025 0 0 1-4.739 3.72 15.624 15.624 0 0 1-12.84 0 14 14 0 0 1-4.74-3.72 16.344 16.344 0 0 1-2.91-5.4 21.499 21.499 0 0 1 0-12.899 16.334 16.334 0 0 1 2.91-5.4 14 14 0 0 1 4.74-3.72 15.624 15.624 0 0 1 12.84 0 14.025 14.025 0 0 1 4.739 3.72 16.352 16.352 0 0 1 2.91 5.4 20.72 20.72 0 0 1 .99 6.42zm-5.16 0a13.044 13.044 0 0 0-2.67-8.61 8.913 8.913 0 0 0-7.23-3.21 9.601 9.601 0 0 0-4.051.84 9.004 9.004 0 0 0-3.15 2.4 10.735 10.735 0 0 0-2.01 3.72 15.943 15.943 0 0 0-.689 4.86q0 5.46 2.7 8.67a9.714 9.714 0 0 0 14.431 0q2.67-3.2 2.67-8.67zm22.018-13.32a2.594 2.594 0 0 1-.659 1.771 2.5 2.5 0 0 1-1.979.75h-2.7v24.18a2.245 2.245 0 0 1-.81 1.89 2.905 2.905 0 0 1-1.83.63 2.697 2.697 0 0 1-1.739-.63 2.281 2.281 0 0 1-.781-1.89v-24.18h-2.46a2.346 2.346 0 0 1-1.86-.75 2.591 2.591 0 0 1-.66-1.771 2.704 2.704 0 0 1 .66-1.8 2.303 2.303 0 0 1 1.86-.78h2.46v-4.08a6.26 6.26 0 0 1 .57-2.67 7.485 7.485 0 0 1 1.5-2.16 6.523 6.523 0 0 1 2.19-1.439 6.972 6.972 0 0 1 2.64-.511 2.455 2.455 0 0 1 1.98.78 2.709 2.709 0 0 1 .66 1.8 2.629 2.629 0 0 1-.66 1.74 2.452 2.452 0 0 1-1.98.78 1.707 1.707 0 0 0-1.26.48 1.561 1.561 0 0 0-.48 1.141v4.14h2.7a2.451 2.451 0 0 1 1.979.78 2.708 2.708 0 0 1 .659 1.8zm43.38-1.38a11.835 11.835 0 0 1-.959 4.74 12.619 12.619 0 0 1-2.58 3.87 11.984 11.984 0 0 1-3.84 2.609 11.806 11.806 0 0 1-4.74.96h-12.84v15.9a2.441 2.441 0 0 1-.75 1.89 2.529 2.529 0 0 1-1.77.69 2.784 2.784 0 0 1-1.86-.66 2.303 2.303 0 0 1-.779-1.86v-37.62a3.118 3.118 0 0 1 .569-1.71 2.156 2.156 0 0 1 1.95-.87h15.54a11.949 11.949 0 0 1 4.11.78 12.852 12.852 0 0 1 3.899 2.28 11.895 11.895 0 0 1 2.91 3.75 11.486 11.486 0 0 1 1.14 5.25zm-5.16.06a6.989 6.989 0 0 0-4.26-6.48 6.774 6.774 0 0 0-2.699-.54h-12.84v14.04h12.78a6.98 6.98 0 0 0 7.02-7.02zm24.06.3a2.593 2.593 0 0 1-.66 1.77 2.499 2.499 0 0 1-1.98.75 7.858 7.858 0 0 0-3.27.69 9.061 9.061 0 0 0-2.7 1.859 8.931 8.931 0 0 0-1.86 2.73 8.067 8.067 0 0 0-.689 3.3v16.62a2.329 2.329 0 0 1-.811 1.92 2.817 2.817 0 0 1-1.83.66 2.621 2.621 0 0 1-1.739-.66 2.3 2.3 0 0 1-.78-1.86v-26.76a2.294 2.294 0 0 1 .84-1.92 2.72 2.72 0 0 1 1.68-.66 2.88 2.88 0 0 1 1.65.51 2.222 2.222 0 0 1 .93 1.53 13.142 13.142 0 0 1 4.02-2.25 13.536 13.536 0 0 1 4.56-.81 2.456 2.456 0 0 1 1.98.779 2.711 2.711 0 0 1 .66 1.801z"/><use xlink:href="#I" x="285.293"/><path d="M781.036 76.793a2.329 2.329 0 0 1-.811 1.92 2.817 2.817 0 0 1-1.83.66 2.624 2.624 0 0 1-1.74-.66 2.303 2.303 0 0 1-.779-1.86v-18.9a5.986 5.986 0 0 0-.508-2.46 7.006 7.006 0 0 0-1.344-2.011 6.202 6.202 0 0 0-2-1.38 5.991 5.991 0 0 0-2.418-.51 6.134 6.134 0 0 0-2.479.51 6.264 6.264 0 0 0-3.344 3.36 6.035 6.035 0 0 0-.507 2.43v18.9a2.36 2.36 0 0 1-.79 1.92 2.755 2.755 0 0 1-1.82.66 2.641 2.641 0 0 1-1.792-.66 2.332 2.332 0 0 1-.758-1.86v-18.9a5.972 5.972 0 0 0-.51-2.46 6.676 6.676 0 0 0-3.391-3.391 6.19 6.19 0 0 0-4.92 0 6.975 6.975 0 0 0-2.01 1.351 6.206 6.206 0 0 0-1.381 2.01 6.022 6.022 0 0 0-.51 2.43v18.9a2.332 2.332 0 0 1-.81 1.92 2.819 2.819 0 0 1-1.83.66 2.621 2.621 0 0 1-1.739-.66 2.298 2.298 0 0 1-.781-1.86v-26.82a2.317 2.317 0 0 1 .811-1.95 2.903 2.903 0 0 1 1.83-.63 2.847 2.847 0 0 1 1.23.27 2.164 2.164 0 0 1 .93.87 10.432 10.432 0 0 1 3.09-1.56 11.778 11.778 0 0 1 3.57-.54 11.352 11.352 0 0 1 5.039 1.14 11.063 11.063 0 0 1 3.9 3.12 11.209 11.209 0 0 1 8.881-4.26 11.318 11.318 0 0 1 4.5.899 11.838 11.838 0 0 1 3.659 2.431 11.344 11.344 0 0 1 3.36 8.069zm37.44.06a2.624 2.624 0 0 1-.66 1.74 2.372 2.372 0 0 1-1.92.78 5.404 5.404 0 0 1-2.16-.391 5.978 5.978 0 0 1-1.529-.93 6.754 6.754 0 0 1-1.051-1.11 5.203 5.203 0 0 1-.6-.989 13.855 13.855 0 0 1-4.41 3.21 15.784 15.784 0 0 1-12.629-.181 14.009 14.009 0 0 1-4.711-3.75 16.666 16.666 0 0 1-2.88-5.399 21.326 21.326 0 0 1 0-12.84 16.352 16.352 0 0 1 2.91-5.4 14.01 14.01 0 0 1 4.74-3.72 15.722 15.722 0 0 1 12.09-.33 12.219 12.219 0 0 1 4.229 2.91v-.24a5.49 5.49 0 0 1 .061-.69 2.339 2.339 0 0 1 .33-.899 2.424 2.424 0 0 1 .779-.78 2.456 2.456 0 0 1 1.351-.33 3.15 3.15 0 0 1 1.8.57 2.184 2.184 0 0 1 .84 1.95v23.16a1.018 1.018 0 0 0 .301.841.899.899 0 0 0 .539.239 2.375 2.375 0 0 1 1.92.78 2.704 2.704 0 0 1 .66 1.8zm-8.58-13.44a13.044 13.044 0 0 0-2.67-8.61 8.912 8.912 0 0 0-7.229-3.21 9.593 9.593 0 0 0-4.05.84 8.995 8.995 0 0 0-3.15 2.4 10.718 10.718 0 0 0-2.01 3.72 15.913 15.913 0 0 0-.689 4.86q0 5.46 2.7 8.67a9.713 9.713 0 0 0 14.43 0q2.67-3.2 2.67-8.67zm27.78-14.34a2.593 2.593 0 0 1-.66 1.77 2.495 2.495 0 0 1-1.98.75 7.863 7.863 0 0 0-3.27.69 9.044 9.044 0 0 0-2.699 1.859 8.931 8.931 0 0 0-1.86 2.73 8.068 8.068 0 0 0-.69 3.3v16.62a2.332 2.332 0 0 1-.81 1.92 2.819 2.819 0 0 1-1.83.66 2.621 2.621 0 0 1-1.739-.66 2.298 2.298 0 0 1-.781-1.86v-26.76a2.294 2.294 0 0 1 .84-1.92 2.723 2.723 0 0 1 1.681-.66 2.877 2.877 0 0 1 1.649.51 2.227 2.227 0 0 1 .931 1.53 13.119 13.119 0 0 1 4.02-2.25 13.536 13.536 0 0 1 4.56-.81 2.452 2.452 0 0 1 1.98.779 2.711 2.711 0 0 1 .66 1.801zm29.64.9a2.325 2.325 0 0 1-.301 1.141l-16.2 36.84a6.003 6.003 0 0 1-2.701 3.06 8.161 8.161 0 0 1-3.899.96h-1.92a2.244 2.244 0 0 1-1.921-.801 2.944 2.944 0 0 1-.6-1.809 2.729 2.729 0 0 1 .6-1.719 2.283 2.283 0 0 1 1.921-.771h1.86a4.264 4.264 0 0 0 1.14-.15 1.338 1.338 0 0 0 .84-.812l3.96-8.894-11.7-25.9a2.311 2.311 0 0 1-.3-1.142 2.222 2.222 0 0 1 .87-1.833 2.978 2.978 0 0 1 1.89-.69 2.309 2.309 0 0 1 2.16 1.56l9.78 21.72 9.54-21.72a2.304 2.304 0 0 1 .96-1.17 2.577 2.577 0 0 1 1.26-.33 2.98 2.98 0 0 1 1.89.69 2.16 2.16 0 0 1 .871 1.77zm36.48 18.28a11.512 11.512 0 0 1-1.29 5.68 10.741 10.741 0 0 1-3.45 3.756 14.622 14.622 0 0 1-4.92 2.072 25.81 25.81 0 0 1-5.76.631 21.041 21.041 0 0 1-3.54-.33 24.907 24.907 0 0 1-3.78-.96 23.84 23.84 0 0 1-3.6-1.56 13.609 13.609 0 0 1-3-2.13 2.863 2.863 0 0 1-.66-.931 2.476 2.476 0 0 1-.18-.93 2.518 2.518 0 0 1 .75-1.8 2.443 2.443 0 0 1 1.83-.78 1.995 1.995 0 0 1 1.049.24q.4.24 1.23.9a14.823 14.823 0 0 0 4.74 2.43 17.99 17.99 0 0 0 5.16.75q5.4 0 7.83-1.83a6.115 6.115 0 0 0 2.43-5.19 6.305 6.305 0 0 0-1.77-4.8 13.611 13.611 0 0 0-4.44-2.729 55.734 55.734 0 0 0-5.76-1.891 30.36 30.36 0 0 1-5.761-2.189 12.636 12.636 0 0 1-4.439-3.69 10.415 10.415 0 0 1-1.77-6.42 10.113 10.113 0 0 1 1.08-4.8 9.822 9.822 0 0 1 3-3.42 13.678 13.678 0 0 1 4.5-2.07 21.323 21.323 0 0 1 5.52-.689 20.677 20.677 0 0 1 3.359.297 21.826 21.826 0 0 1 3.601.919 18.263 18.263 0 0 1 3.39 1.571 10.245 10.245 0 0 1 2.67 2.253 2.339 2.339 0 0 1 .66 1.619 2.59 2.59 0 0 1-.81 1.891 2.466 2.466 0 0 1-1.771.81 1.954 1.954 0 0 1-1.14-.33q-.482-.328-1.26-1a11.119 11.119 0 0 0-4.02-2.25 15.682 15.682 0 0 0-4.68-.69q-4.86 0-6.9 1.683a5.176 5.176 0 0 0-2.039 4.146 5.36 5.36 0 0 0 1.77 4.328 14.72 14.72 0 0 0 4.439 2.493q2.67.992 5.76 1.833a26.084 26.084 0 0 1 5.761 2.313 13.082 13.082 0 0 1 4.44 3.997 11.63 11.63 0 0 1 1.769 6.789zm28.38 5.84a2.653 2.653 0 0 1-.721 1.74 13.278 13.278 0 0 1-4.68 3.39 15.093 15.093 0 0 1-6.061 1.17 14.422 14.422 0 0 1-6.42-1.38 14.01 14.01 0 0 1-4.74-3.72 16.362 16.362 0 0 1-2.91-5.4 21.519 21.519 0 0 1 0-12.899 16.352 16.352 0 0 1 2.91-5.4 14.01 14.01 0 0 1 4.74-3.72 14.422 14.422 0 0 1 6.42-1.38 15.093 15.093 0 0 1 6.061 1.17 13.278 13.278 0 0 1 4.68 3.39 2.506 2.506 0 0 1 .721 1.74 2.392 2.392 0 0 1-.841 1.8 2.675 2.675 0 0 1-1.86.78 2.718 2.718 0 0 1-1.859-.84 9.195 9.195 0 0 0-2.939-2.16 9.343 9.343 0 0 0-3.961-.78 9.596 9.596 0 0 0-4.05.84 8.991 8.991 0 0 0-3.149 2.4 10.718 10.718 0 0 0-2.01 3.72 15.912 15.912 0 0 0-.69 4.86q0 5.46 2.7 8.67a8.932 8.932 0 0 0 7.199 3.21 9.526 9.526 0 0 0 3.99-.78 8.44 8.44 0 0 0 2.91-2.16 2.586 2.586 0 0 1 .9-.689 2.376 2.376 0 0 1 .959-.21 2.682 2.682 0 0 1 1.86.779 2.457 2.457 0 0 1 .841 1.86z"/><use xlink:href="#H" x="868.073"/><path d="M997.333 63.413a20.918 20.918 0 0 1-.99 6.479 16.362 16.362 0 0 1-2.91 5.4 14.006 14.006 0 0 1-4.739 3.72 15.624 15.624 0 0 1-12.84 0 14.01 14.01 0 0 1-4.74-3.72 16.362 16.362 0 0 1-2.91-5.4 21.519 21.519 0 0 1 0-12.899 16.352 16.352 0 0 1 2.91-5.4 14.01 14.01 0 0 1 4.74-3.72 15.624 15.624 0 0 1 12.84 0 14.006 14.006 0 0 1 4.739 3.72 16.352 16.352 0 0 1 2.91 5.4 20.72 20.72 0 0 1 .99 6.42zm-5.16 0a13.044 13.044 0 0 0-2.67-8.61 8.912 8.912 0 0 0-7.23-3.21 9.593 9.593 0 0 0-4.05.84 8.995 8.995 0 0 0-3.15 2.4 10.719 10.719 0 0 0-2.01 3.72 15.913 15.913 0 0 0-.689 4.86q0 5.46 2.7 8.67a9.713 9.713 0 0 0 14.43 0q2.67-3.2 2.67-8.67zm38.34 0a20.918 20.918 0 0 1-.99 6.479 16.379 16.379 0 0 1-2.91 5.4 14.038 14.038 0 0 1-4.74 3.72 15.624 15.624 0 0 1-12.84 0 14 14 0 0 1-4.74-3.72 16.344 16.344 0 0 1-2.91-5.4 21.499 21.499 0 0 1 0-12.899 16.334 16.334 0 0 1 2.91-5.4 14 14 0 0 1 4.74-3.72 15.624 15.624 0 0 1 12.84 0 14.038 14.038 0 0 1 4.74 3.72 16.37 16.37 0 0 1 2.91 5.4 20.72 20.72 0 0 1 .99 6.42zm-5.16 0a13.044 13.044 0 0 0-2.67-8.61 8.917 8.917 0 0 0-7.23-3.21 9.604 9.604 0 0 0-4.051.84 9 9 0 0 0-3.149 2.4 10.735 10.735 0 0 0-2.01 3.72 15.942 15.942 0 0 0-.69 4.86q0 5.46 2.7 8.67a9.714 9.714 0 0 0 14.431 0q2.67-3.2 2.67-8.67zm17.818 13.56a2.586 2.586 0 0 1-.66 1.771 2.418 2.418 0 0 1-1.92.75 5.748 5.748 0 0 1-2.309-.48 5.83 5.83 0 0 1-1.92-1.32 6.474 6.474 0 0 1-1.291-1.949 5.903 5.903 0 0 1-.48-2.37v-34.14a2.354 2.354 0 0 1 .781-1.949 2.883 2.883 0 0 1 3.6 0 2.285 2.285 0 0 1 .779 1.89v34.2a.936.936 0 0 0 .301.779.895.895 0 0 0 .539.24 2.373 2.373 0 0 1 1.92.78 2.699 2.699 0 0 1 .66 1.8z"/></g><path d="M112 100.193a3.573 3.573 0 0 1-.119.84l-9.9 37.44a2.307 2.307 0 0 1-2.461 2.101 2.522 2.522 0 0 1-2.579-2.101l-8.1-28.74-8.04 28.74a2.492 2.492 0 0 1-2.521 2.101 2.438 2.438 0 0 1-2.521-2.101l-9.9-37.44a3.479 3.479 0 0 1-.12-.84 2.005 2.005 0 0 1 .84-1.74 3.133 3.133 0 0 1 1.86-.601 2.513 2.513 0 0 1 1.44.45 2.555 2.555 0 0 1 .959 1.41l7.56 28.62 7.92-28.38a2.492 2.492 0 0 1 2.52-2.101 2.525 2.525 0 0 1 2.58 2.101l7.92 28.38 7.56-28.62a2.544 2.544 0 0 1 1.05-1.5 2.646 2.646 0 0 1 1.41-.48 2.824 2.824 0 0 1 1.83.659 2.201 2.201 0 0 1 .81 1.801zm27.84 24.42a20.918 20.918 0 0 1-.99 6.479 16.362 16.362 0 0 1-2.91 5.4 14.006 14.006 0 0 1-4.739 3.72 15.624 15.624 0 0 1-12.84 0 14.01 14.01 0 0 1-4.74-3.72 16.362 16.362 0 0 1-2.91-5.4 21.519 21.519 0 0 1 0-12.899 16.352 16.352 0 0 1 2.91-5.4 14.01 14.01 0 0 1 4.74-3.72 15.624 15.624 0 0 1 12.84 0 14.006 14.006 0 0 1 4.739 3.72 16.352 16.352 0 0 1 2.91 5.4 20.72 20.72 0 0 1 .99 6.42zm-5.16 0a13.044 13.044 0 0 0-2.67-8.61 8.912 8.912 0 0 0-7.229-3.21 9.593 9.593 0 0 0-4.05.84 8.995 8.995 0 0 0-3.15 2.4 10.718 10.718 0 0 0-2.01 3.72 15.913 15.913 0 0 0-.689 4.86q0 5.46 2.7 8.67a9.713 9.713 0 0 0 14.43 0q2.67-3.2 2.67-8.67z"/><use xlink:href="#J" x="-310.962" y="61.2"/><path d="M170.13 138.173a2.595 2.595 0 0 1-.66 1.77 2.421 2.421 0 0 1-1.92.75 5.749 5.749 0 0 1-2.31-.48 5.83 5.83 0 0 1-1.92-1.32 6.489 6.489 0 0 1-1.29-1.949 5.904 5.904 0 0 1-.48-2.37v-34.14a2.356 2.356 0 0 1 .78-1.949 2.884 2.884 0 0 1 3.601 0 2.285 2.285 0 0 1 .779 1.89v34.2a.936.936 0 0 0 .301.779.895.895 0 0 0 .539.24 2.375 2.375 0 0 1 1.92.78 2.709 2.709 0 0 1 .66 1.8z"/><use xlink:href="#K"/><path d="M246.87 111.233v.42a1.375 1.375 0 0 1-.12.479l-9.3 26.34a2.738 2.738 0 0 1-2.64 2.101 2.402 2.402 0 0 1-1.53-.45 3.571 3.571 0 0 1-.99-1.65l-7.02-19.8-7.08 19.8a2.64 2.64 0 0 1-2.579 2.101 2.611 2.611 0 0 1-2.521-2.101l-9.24-26.34a1.37 1.37 0 0 1-.119-.479v-.48a2.166 2.166 0 0 1 .84-1.8 2.863 2.863 0 0 1 1.8-.66 2.687 2.687 0 0 1 1.38.39 2.253 2.253 0 0 1 .96 1.29l6.96 20.04 7.08-19.62a4.121 4.121 0 0 1 .9-1.561 2.198 2.198 0 0 1 1.619-.54 2.611 2.611 0 0 1 2.521 2.101l7.02 19.62 7.02-20.04a2.245 2.245 0 0 1 .96-1.29 2.588 2.588 0 0 1 1.32-.39 2.98 2.98 0 0 1 1.89.69 2.22 2.22 0 0 1 .87 1.83zm9.358-11.7a4.18 4.18 0 0 1-1.251 3.06 4.296 4.296 0 0 1-6.078 0 4.368 4.368 0 0 1 0-6.12 4.296 4.296 0 0 1 6.078 0 4.184 4.184 0 0 1 1.251 3.061zm-1.74 38.52a2.288 2.288 0 0 1-.781 1.891 2.699 2.699 0 0 1-1.739.63 2.817 2.817 0 0 1-1.83-.66 2.262 2.262 0 0 1-.81-1.86v-26.76a2.333 2.333 0 0 1 .81-1.92 2.823 2.823 0 0 1 1.83-.66 2.628 2.628 0 0 1 1.739.66 2.377 2.377 0 0 1 .781 1.92z"/><use xlink:href="#K" x="87.657"/><path d="M323.187 124.613a2.817 2.817 0 0 1-.66 1.83 2.264 2.264 0 0 1-1.86.81h-22.2a11.591 11.591 0 0 0 3.209 6.75 8.933 8.933 0 0 0 6.511 2.49 10.56 10.56 0 0 0 3.93-.75 7.789 7.789 0 0 0 3.21-2.37 2.45 2.45 0 0 1 1.86-.96 2.679 2.679 0 0 1 1.86.78 2.457 2.457 0 0 1 .6 2.909 6.324 6.324 0 0 1-1.2 1.471 13.739 13.739 0 0 1-4.71 3 15.429 15.429 0 0 1-5.55 1.02 14.422 14.422 0 0 1-6.42-1.38 14.01 14.01 0 0 1-4.74-3.72 16.303 16.303 0 0 1-2.91-5.43 21.037 21.037 0 0 1-.989-6.45 20.749 20.749 0 0 1 .989-6.42 16.352 16.352 0 0 1 2.91-5.4 14.01 14.01 0 0 1 4.74-3.72 15.763 15.763 0 0 1 12.899 0 13.724 13.724 0 0 1 4.711 3.72 16.243 16.243 0 0 1 2.85 5.4 21.362 21.362 0 0 1 .96 6.42zm-5.28-2.46a11.766 11.766 0 0 0-3.21-6.855 8.899 8.899 0 0 0-6.51-2.506 9.459 9.459 0 0 0-3.78.725 8.942 8.942 0 0 0-2.91 1.993 9.94 9.94 0 0 0-1.979 2.989 14.705 14.705 0 0 0-1.05 3.653zm47.94 15.84a2.298 2.298 0 0 1-.84 1.92 2.721 2.721 0 0 1-1.681.66 2.817 2.817 0 0 1-1.83-.66 2.262 2.262 0 0 1-.81-1.86v-17.82h-19.8v17.82a2.227 2.227 0 0 1-.84 1.86 2.716 2.716 0 0 1-1.68.66 2.817 2.817 0 0 1-1.83-.66 2.263 2.263 0 0 1-.811-1.86v-37.68a2.246 2.246 0 0 1 .811-1.89 2.904 2.904 0 0 1 1.83-.631 2.796 2.796 0 0 1 1.68.631 2.21 2.21 0 0 1 .84 1.89v14.76h19.8v-14.7a2.277 2.277 0 0 1 .84-1.949 2.791 2.791 0 0 1 1.68-.631 2.906 2.906 0 0 1 1.83.631 2.316 2.316 0 0 1 .811 1.949zm37.14.06a2.624 2.624 0 0 1-.66 1.74 2.372 2.372 0 0 1-1.92.78 5.404 5.404 0 0 1-2.16-.391 5.978 5.978 0 0 1-1.529-.93 6.754 6.754 0 0 1-1.051-1.11 5.202 5.202 0 0 1-.6-.989 13.855 13.855 0 0 1-4.41 3.21 15.784 15.784 0 0 1-12.629-.181 14.009 14.009 0 0 1-4.711-3.75 16.666 16.666 0 0 1-2.88-5.399 21.326 21.326 0 0 1 0-12.84 16.352 16.352 0 0 1 2.91-5.4 14.01 14.01 0 0 1 4.74-3.72 15.722 15.722 0 0 1 12.09-.33 12.219 12.219 0 0 1 4.229 2.91v-.24a5.488 5.488 0 0 1 .061-.69 2.339 2.339 0 0 1 .33-.899 2.424 2.424 0 0 1 .779-.78 2.456 2.456 0 0 1 1.351-.33 3.15 3.15 0 0 1 1.8.57 2.184 2.184 0 0 1 .84 1.95v23.16a1.018 1.018 0 0 0 .301.841.899.899 0 0 0 .539.239 2.375 2.375 0 0 1 1.92.78 2.704 2.704 0 0 1 .66 1.8zm-8.58-13.44a13.044 13.044 0 0 0-2.67-8.61 8.912 8.912 0 0 0-7.229-3.21 9.593 9.593 0 0 0-4.05.84 8.995 8.995 0 0 0-3.15 2.4 10.718 10.718 0 0 0-2.01 3.72 15.913 15.913 0 0 0-.689 4.86q0 5.46 2.7 8.67a9.713 9.713 0 0 0 14.43 0q2.67-3.2 2.67-8.67zm34.2 7.32a9.236 9.236 0 0 1-1.02 4.5 8.373 8.373 0 0 1-2.73 3 11.725 11.725 0 0 1-3.93 1.65 20.579 20.579 0 0 1-4.619.51 21.376 21.376 0 0 1-2.82-.21 19.207 19.207 0 0 1-3.18-.72 14.686 14.686 0 0 1-3.09-1.38 9.523 9.523 0 0 1-2.551-2.19 2.935 2.935 0 0 1-.54-1.56 2.479 2.479 0 0 1 .87-1.92 2.716 2.716 0 0 1 1.83-.78 2.53 2.53 0 0 1 1.859 1.02 6.784 6.784 0 0 0 3.48 2.101 16.561 16.561 0 0 0 4.141.54q4.078 0 5.6-1.26a4.073 4.073 0 0 0 1.53-3.301 3.462 3.462 0 0 0-1.351-2.939 11.433 11.433 0 0 0-3.39-1.68q-2.04-.66-4.4-1.26a20.606 20.606 0 0 1-4.41-1.649 9.62 9.62 0 0 1-3.391-2.88 8.053 8.053 0 0 1-1.35-4.891 7.822 7.822 0 0 1 1.05-4.17 8.37 8.37 0 0 1 2.729-2.76 12.218 12.218 0 0 1 3.78-1.53 19.096 19.096 0 0 1 4.261-.48 21.922 21.922 0 0 1 6.659 1.23 11.243 11.243 0 0 1 2.97 1.561 2.701 2.701 0 0 1 1.23 2.189 2.789 2.789 0 0 1-.721 1.86 2.269 2.269 0 0 1-1.799.84 2.681 2.681 0 0 1-.961-.21 4.277 4.277 0 0 1-1.02-.57 6.683 6.683 0 0 0-2.867-1.41 15.219 15.219 0 0 0-3.464-.39q-3.705 0-5.196 1.17a3.362 3.362 0 0 0-1.492 2.67 3.106 3.106 0 0 0 1.345 2.73 12.369 12.369 0 0 0 3.379 1.56q2.033.63 4.426 1.23a18.672 18.672 0 0 1 4.425 1.71 9.937 9.937 0 0 1 3.379 3 8.574 8.574 0 0 1 1.346 5.069zm43.02-31.56a2.738 2.738 0 0 1-.66 1.77 2.262 2.262 0 0 1-1.859.811h-22.44v12.18h15.72a2.435 2.435 0 0 1 1.861.771 2.53 2.53 0 0 1 .719 1.778 2.591 2.591 0 0 1-.689 1.779 2.407 2.407 0 0 1-1.891.771h-15.72v17.82a2.562 2.562 0 0 1-2.521 2.521 2.591 2.591 0 0 1-1.86-.75 2.377 2.377 0 0 1-.779-1.771v-37.62a2.445 2.445 0 0 1 .779-1.83 2.595 2.595 0 0 1 1.86-.75h24.96a2.348 2.348 0 0 1 1.859.75 2.594 2.594 0 0 1 .66 1.77zm29.28 37.68a2.624 2.624 0 0 1-.66 1.74 2.372 2.372 0 0 1-1.92.78 5.404 5.404 0 0 1-2.16-.391 5.978 5.978 0 0 1-1.529-.93 6.754 6.754 0 0 1-1.051-1.11 5.202 5.202 0 0 1-.6-.989 13.855 13.855 0 0 1-4.41 3.21 15.784 15.784 0 0 1-12.629-.181 14.009 14.009 0 0 1-4.711-3.75 16.666 16.666 0 0 1-2.88-5.399 21.326 21.326 0 0 1 0-12.84 16.352 16.352 0 0 1 2.91-5.4 14.01 14.01 0 0 1 4.74-3.72 15.722 15.722 0 0 1 12.09-.33 12.219 12.219 0 0 1 4.229 2.91v-.24a5.488 5.488 0 0 1 .061-.69 2.339 2.339 0 0 1 .33-.899 2.424 2.424 0 0 1 .779-.78 2.456 2.456 0 0 1 1.351-.33 3.15 3.15 0 0 1 1.8.57 2.184 2.184 0 0 1 .84 1.95v23.16a1.018 1.018 0 0 0 .301.841.899.899 0 0 0 .539.239 2.375 2.375 0 0 1 1.92.78 2.704 2.704 0 0 1 .66 1.8zm-8.58-13.44a13.044 13.044 0 0 0-2.67-8.61 8.912 8.912 0 0 0-7.229-3.21 9.593 9.593 0 0 0-4.05.84 8.995 8.995 0 0 0-3.15 2.4 10.719 10.719 0 0 0-2.01 3.72 15.913 15.913 0 0 0-.689 4.86q0 5.46 2.7 8.67a9.713 9.713 0 0 0 14.43 0q2.67-3.2 2.67-8.67zm19.38 13.56a2.595 2.595 0 0 1-.66 1.77 2.424 2.424 0 0 1-1.92.75 5.757 5.757 0 0 1-2.311-.48 5.84 5.84 0 0 1-1.92-1.32 6.471 6.471 0 0 1-1.29-1.949 5.886 5.886 0 0 1-.479-2.37v-34.14a2.359 2.359 0 0 1 .779-1.949 2.883 2.883 0 0 1 3.6 0 2.286 2.286 0 0 1 .78 1.89v34.2a.938.938 0 0 0 .3.779.9.9 0 0 0 .541.24 2.378 2.378 0 0 1 1.92.78 2.709 2.709 0 0 1 .66 1.8z"/><use xlink:href="#L"/><path d="M553.522 124.613a2.823 2.823 0 0 1-.66 1.83 2.264 2.264 0 0 1-1.859.81h-22.2a11.593 11.593 0 0 0 3.211 6.75 8.928 8.928 0 0 0 6.51 2.49 10.56 10.56 0 0 0 3.93-.75 7.795 7.795 0 0 0 3.21-2.37 2.449 2.449 0 0 1 1.86-.96 2.677 2.677 0 0 1 1.859.78 2.46 2.46 0 0 1 .601 2.909 6.35 6.35 0 0 1-1.2 1.471 13.739 13.739 0 0 1-4.71 3 15.429 15.429 0 0 1-5.55 1.02 14.416 14.416 0 0 1-6.42-1.38 14 14 0 0 1-4.74-3.72 16.285 16.285 0 0 1-2.91-5.43 21.008 21.008 0 0 1-.99-6.45 20.72 20.72 0 0 1 .99-6.42 16.334 16.334 0 0 1 2.91-5.4 14 14 0 0 1 4.74-3.72 14.416 14.416 0 0 1 6.42-1.38 14.57 14.57 0 0 1 6.48 1.38 13.717 13.717 0 0 1 4.709 3.72 16.245 16.245 0 0 1 2.851 5.4 21.331 21.331 0 0 1 .96 6.42zm-5.28-2.46a11.772 11.772 0 0 0-3.21-6.855 8.901 8.901 0 0 0-6.51-2.506 9.466 9.466 0 0 0-3.78.725 8.918 8.918 0 0 0-2.909 1.993 9.961 9.961 0 0 0-1.98 2.989 14.749 14.749 0 0 0-1.051 3.653zm36.178 15.84a2.36 2.36 0 0 1-.789 1.92 2.753 2.753 0 0 1-1.82.66 2.64 2.64 0 0 1-1.791-.66 2.329 2.329 0 0 1-.759-1.86v-16.68a8.084 8.084 0 0 0-.69-3.3 8.858 8.858 0 0 0-4.59-4.59 8.074 8.074 0 0 0-3.3-.69 7.863 7.863 0 0 0-3.271.69 9.044 9.044 0 0 0-2.699 1.859 8.931 8.931 0 0 0-1.86 2.73 8.068 8.068 0 0 0-.69 3.3v16.62a2.422 2.422 0 0 1-.81 1.95 2.747 2.747 0 0 1-1.83.689 2.616 2.616 0 0 1-1.739-.66 2.37 2.37 0 0 1-.781-1.92v-26.82a2.266 2.266 0 0 1 .781-1.92 2.784 2.784 0 0 1 1.739-.601 2.853 2.853 0 0 1 1.62.48 2.361 2.361 0 0 1 .96 1.5 14.367 14.367 0 0 1 3.91-2.19 13.292 13.292 0 0 1 4.693-.81 13.045 13.045 0 0 1 5.294 1.08 14.445 14.445 0 0 1 4.361 2.939 13.682 13.682 0 0 1 2.979 4.351 13.172 13.172 0 0 1 1.082 5.31zm26.28 0a2.671 2.671 0 0 1-.66 1.83 2.345 2.345 0 0 1-1.859.75h-1.02q-4.32 0-6.1-2.1a8.747 8.747 0 0 1-1.771-5.819v-18.84h-1.8a2.489 2.489 0 0 1-1.83-.75 2.417 2.417 0 0 1-.75-1.771 2.488 2.488 0 0 1 .75-1.83 2.419 2.419 0 0 1 1.77-.75h1.8v-8.34a2.285 2.285 0 0 1 .779-1.89 2.782 2.782 0 0 1 1.801-.631 2.668 2.668 0 0 1 1.77.631 2.328 2.328 0 0 1 .75 1.89v8.34h3.84a2.215 2.215 0 0 1 1.891.84 2.793 2.793 0 0 1 .629 1.681 2.671 2.671 0 0 1-.66 1.83 2.345 2.345 0 0 1-1.859.75h-3.84v19.38a1.903 1.903 0 0 0 2.279 2.279h1.5a2.446 2.446 0 0 1 1.891.75 2.535 2.535 0 0 1 .689 1.771zm31.14-13.38a20.918 20.918 0 0 1-.99 6.479 16.38 16.38 0 0 1-2.91 5.4 14.038 14.038 0 0 1-4.74 3.72 15.624 15.624 0 0 1-12.84 0 14 14 0 0 1-4.74-3.72 16.344 16.344 0 0 1-2.91-5.4 21.499 21.499 0 0 1 0-12.899 16.334 16.334 0 0 1 2.91-5.4 14 14 0 0 1 4.74-3.72 15.624 15.624 0 0 1 12.84 0 14.038 14.038 0 0 1 4.74 3.72 16.37 16.37 0 0 1 2.91 5.4 20.72 20.72 0 0 1 .99 6.42zm-5.16 0a13.044 13.044 0 0 0-2.67-8.61 8.917 8.917 0 0 0-7.23-3.21 9.604 9.604 0 0 0-4.051.84 9 9 0 0 0-3.149 2.4 10.734 10.734 0 0 0-2.01 3.72 15.942 15.942 0 0 0-.69 4.86q0 5.46 2.7 8.67a9.714 9.714 0 0 0 14.431 0q2.67-3.2 2.67-8.67zm48.838 13.44a2.629 2.629 0 0 1-.66 1.74 2.374 2.374 0 0 1-1.92.78 5.4 5.4 0 0 1-2.16-.391 5.978 5.978 0 0 1-1.529-.93 6.713 6.713 0 0 1-1.051-1.11 5.102 5.102 0 0 1-.6-.989 13.866 13.866 0 0 1-4.41 3.21 15.786 15.786 0 0 1-12.63-.181 14.005 14.005 0 0 1-4.71-3.75 16.668 16.668 0 0 1-2.881-5.399 21.326 21.326 0 0 1 0-12.84 16.352 16.352 0 0 1 2.91-5.4 14.01 14.01 0 0 1 4.74-3.72 15.722 15.722 0 0 1 12.09-.33 12.214 12.214 0 0 1 4.23 2.91v-.24a5.488 5.488 0 0 1 .061-.69 2.323 2.323 0 0 1 .33-.899 2.424 2.424 0 0 1 .779-.78 2.452 2.452 0 0 1 1.35-.33 3.153 3.153 0 0 1 1.801.57 2.186 2.186 0 0 1 .84 1.95v23.16a1.021 1.021 0 0 0 .3.841.904.904 0 0 0 .54.239 2.377 2.377 0 0 1 1.92.78 2.709 2.709 0 0 1 .66 1.8zm-8.58-13.44a13.044 13.044 0 0 0-2.67-8.61 8.915 8.915 0 0 0-7.23-3.21 9.596 9.596 0 0 0-4.05.84 8.991 8.991 0 0 0-3.149 2.4 10.718 10.718 0 0 0-2.01 3.72 15.912 15.912 0 0 0-.69 4.86q0 5.46 2.7 8.67a9.713 9.713 0 0 0 14.43 0q2.67-3.2 2.67-8.67zm38.58 13.38a2.363 2.363 0 0 1-.789 1.92 2.759 2.759 0 0 1-1.821.66 2.643 2.643 0 0 1-1.792-.66 2.332 2.332 0 0 1-.758-1.86v-16.68a8.068 8.068 0 0 0-.69-3.3 8.868 8.868 0 0 0-4.59-4.59 8.068 8.068 0 0 0-3.3-.69 7.858 7.858 0 0 0-3.27.69 9.065 9.065 0 0 0-2.701 1.859 8.928 8.928 0 0 0-1.859 2.73 8.051 8.051 0 0 0-.689 3.3v16.62a2.422 2.422 0 0 1-.811 1.95 2.747 2.747 0 0 1-1.83.689 2.619 2.619 0 0 1-1.74-.66 2.375 2.375 0 0 1-.779-1.92v-26.82a2.27 2.27 0 0 1 .779-1.92 2.787 2.787 0 0 1 1.74-.601 2.853 2.853 0 0 1 1.62.48 2.365 2.365 0 0 1 .96 1.5 14.367 14.367 0 0 1 3.91-2.19 13.288 13.288 0 0 1 4.693-.81 13.042 13.042 0 0 1 5.294 1.08 14.445 14.445 0 0 1 4.361 2.939 13.666 13.666 0 0 1 2.979 4.351 13.173 13.173 0 0 1 1.083 5.31zm46.44.06a2.285 2.285 0 0 1-.81 1.83 2.743 2.743 0 0 1-1.83.69 2.565 2.565 0 0 1-1.29-.36 2.412 2.412 0 0 1-.99-1.2l-3.18-7.8h-19.98l-3.24 7.8a2.471 2.471 0 0 1-.961 1.2 2.412 2.412 0 0 1-1.26.36 2.853 2.853 0 0 1-1.859-.69 2.246 2.246 0 0 1-.84-1.83 2.024 2.024 0 0 1 .239-1.02l15.42-37.5a3.002 3.002 0 0 1 1.199-1.53 2.82 2.82 0 0 1 1.26-.33 3.414 3.414 0 0 1 1.2.33 2.578 2.578 0 0 1 1.261 1.53l15.48 37.5a2.584 2.584 0 0 1 .18 1.02zm-18.12-31.02l-7.86 19.08h15.72z"/><use xlink:href="#L" x="249.834"/><path d="M782.895 138.173a2.595 2.595 0 0 1-.66 1.77 2.421 2.421 0 0 1-1.92.75 5.749 5.749 0 0 1-2.31-.48 5.83 5.83 0 0 1-1.92-1.32 6.489 6.489 0 0 1-1.29-1.949 5.903 5.903 0 0 1-.48-2.37v-34.14a2.356 2.356 0 0 1 .78-1.949 2.884 2.884 0 0 1 3.601 0 2.285 2.285 0 0 1 .779 1.89v34.2a.936.936 0 0 0 .301.779.895.895 0 0 0 .539.24 2.375 2.375 0 0 1 1.92.78 2.709 2.709 0 0 1 .66 1.8zm36.54-37.8a2.743 2.743 0 0 1-.66 1.77 2.333 2.333 0 0 1-1.92.811h-9.96v35.1a2.332 2.332 0 0 1-.759 1.86 2.642 2.642 0 0 1-1.791.66 2.79 2.79 0 0 1-1.791-.66 2.249 2.249 0 0 1-.818-1.86v-35.1h-9.84a2.402 2.402 0 0 1-1.979-.811 2.732 2.732 0 0 1-.66-1.77 2.662 2.662 0 0 1 .66-1.71 2.332 2.332 0 0 1 1.92-.811h25.02a2.333 2.333 0 0 1 1.92.811 2.673 2.673 0 0 1 .66 1.71z"/><path d="M828.194 99.533a4.177 4.177 0 0 1-1.252 3.06 4.296 4.296 0 0 1-6.078 0 4.371 4.371 0 0 1 0-6.12 4.296 4.296 0 0 1 6.078 0 4.181 4.181 0 0 1 1.252 3.061zm-1.74 38.52a2.287 2.287 0 0 1-.779 1.891 2.707 2.707 0 0 1-1.74.63 2.817 2.817 0 0 1-1.83-.66 2.263 2.263 0 0 1-.811-1.86v-26.76a2.333 2.333 0 0 1 .811-1.92 2.823 2.823 0 0 1 1.83-.66 2.636 2.636 0 0 1 1.74.66 2.376 2.376 0 0 1 .779 1.92zm46.558-.06a2.334 2.334 0 0 1-.809 1.92 2.821 2.821 0 0 1-1.83.66 2.624 2.624 0 0 1-1.74-.66 2.3 2.3 0 0 1-.78-1.86v-18.9a5.971 5.971 0 0 0-.509-2.46 6.983 6.983 0 0 0-1.343-2.011 6.206 6.206 0 0 0-2.001-1.38 5.98 5.98 0 0 0-2.418-.51 6.132 6.132 0 0 0-2.479.51 6.273 6.273 0 0 0-3.344 3.36 6.053 6.053 0 0 0-.508 2.43v18.9a2.363 2.363 0 0 1-.789 1.92 2.755 2.755 0 0 1-1.82.66 2.639 2.639 0 0 1-1.791-.66 2.33 2.33 0 0 1-.76-1.86v-18.9a5.956 5.956 0 0 0-.51-2.46 6.659 6.659 0 0 0-3.39-3.391 6.19 6.19 0 0 0-4.92 0 6.98 6.98 0 0 0-2.011 1.351 6.186 6.186 0 0 0-1.379 2.01 6.006 6.006 0 0 0-.51 2.43v18.9a2.332 2.332 0 0 1-.811 1.92 2.819 2.819 0 0 1-1.83.66 2.624 2.624 0 0 1-1.74-.66 2.303 2.303 0 0 1-.779-1.86v-26.82a2.316 2.316 0 0 1 .81-1.95 2.903 2.903 0 0 1 1.83-.63 2.843 2.843 0 0 1 1.229.27 2.153 2.153 0 0 1 .93.87 10.449 10.449 0 0 1 3.091-1.56 11.767 11.767 0 0 1 3.569-.54 11.361 11.361 0 0 1 5.041 1.14 11.059 11.059 0 0 1 3.899 3.12 11.209 11.209 0 0 1 8.88-4.26 11.311 11.311 0 0 1 4.5.899 11.831 11.831 0 0 1 3.66 2.431 11.338 11.338 0 0 1 3.359 8.069zm33.66-13.38a2.817 2.817 0 0 1-.66 1.83 2.262 2.262 0 0 1-1.859.81h-22.2a11.592 11.592 0 0 0 3.21 6.75 8.929 8.929 0 0 0 6.51 2.49 10.56 10.56 0 0 0 3.93-.75 7.798 7.798 0 0 0 3.211-2.37 2.449 2.449 0 0 1 1.859-.96 2.679 2.679 0 0 1 1.86.78 2.46 2.46 0 0 1 .601 2.909 6.335 6.335 0 0 1-1.201 1.471 13.725 13.725 0 0 1-4.709 3 15.438 15.438 0 0 1-5.551 1.02 14.422 14.422 0 0 1-6.42-1.38 14.01 14.01 0 0 1-4.74-3.72 16.303 16.303 0 0 1-2.91-5.43 21.037 21.037 0 0 1-.989-6.45 20.749 20.749 0 0 1 .989-6.42 16.352 16.352 0 0 1 2.91-5.4 14.01 14.01 0 0 1 4.74-3.72 14.422 14.422 0 0 1 6.42-1.38 14.57 14.57 0 0 1 6.48 1.38 13.73 13.73 0 0 1 4.71 3.72 16.245 16.245 0 0 1 2.851 5.4 21.361 21.361 0 0 1 .959 6.42zm-5.28-2.46a11.773 11.773 0 0 0-3.211-6.855 8.898 8.898 0 0 0-6.51-2.506 9.458 9.458 0 0 0-3.779.725 8.922 8.922 0 0 0-2.91 1.993 9.961 9.961 0 0 0-1.98 2.989 14.789 14.789 0 0 0-1.05 3.653zm40.197 15.84a2.49 2.49 0 0 1-.75 1.83 2.424 2.424 0 0 1-1.77.75h-18.24a2.591 2.591 0 0 1-1.86-.75 2.377 2.377 0 0 1-.779-1.771v-37.62a2.277 2.277 0 0 1 .84-1.949 2.791 2.791 0 0 1 1.68-.631 2.906 2.906 0 0 1 1.83.631 2.246 2.246 0 0 1 .811 1.89v35.1h15.72a2.562 2.562 0 0 1 2.52 2.521zm27.72-13.38a20.918 20.918 0 0 1-.99 6.479 16.362 16.362 0 0 1-2.91 5.4 14.006 14.006 0 0 1-4.739 3.72 15.624 15.624 0 0 1-12.84 0 14.01 14.01 0 0 1-4.74-3.72 16.362 16.362 0 0 1-2.91-5.4 21.519 21.519 0 0 1 0-12.899 16.352 16.352 0 0 1 2.91-5.4 14.01 14.01 0 0 1 4.74-3.72 15.624 15.624 0 0 1 12.84 0 14.006 14.006 0 0 1 4.739 3.72 16.352 16.352 0 0 1 2.91 5.4 20.72 20.72 0 0 1 .99 6.42zm-5.16 0a13.044 13.044 0 0 0-2.67-8.61 8.912 8.912 0 0 0-7.229-3.21 9.593 9.593 0 0 0-4.05.84 8.995 8.995 0 0 0-3.15 2.4 10.719 10.719 0 0 0-2.01 3.72 15.913 15.913 0 0 0-.689 4.86q0 5.46 2.7 8.67a9.713 9.713 0 0 0 14.43 0q2.67-3.2 2.67-8.67zm49.32-13.38v.42a1.381 1.381 0 0 1-.121.479l-9.3 26.34a2.738 2.738 0 0 1-2.64 2.101 2.402 2.402 0 0 1-1.53-.45 3.571 3.571 0 0 1-.99-1.65l-7.02-19.8-7.08 19.8a2.64 2.64 0 0 1-2.579 2.101 2.611 2.611 0 0 1-2.52-2.101l-9.24-26.34a1.37 1.37 0 0 1-.119-.479v-.48a2.166 2.166 0 0 1 .84-1.8 2.863 2.863 0 0 1 1.8-.66 2.687 2.687 0 0 1 1.38.39 2.253 2.253 0 0 1 .96 1.29l6.96 20.04 7.08-19.62a4.121 4.121 0 0 1 .9-1.561 2.198 2.198 0 0 1 1.619-.54 2.611 2.611 0 0 1 2.521 2.101l7.02 19.62 7.02-20.04a2.242 2.242 0 0 1 .961-1.29 2.581 2.581 0 0 1 1.318-.39 2.982 2.982 0 0 1 1.891.69 2.22 2.22 0 0 1 .871 1.83z"/></svg>