<svg xmlns="http://www.w3.org/2000/svg" xmlns:xlink="http://www.w3.org/1999/xlink" viewBox="0 0 1080 1080"><defs><style>.cls-1{fill:url(#New_Gradient_Swatch_12);}.cls-2,.cls-55,.cls-59{opacity:0.5;}.cls-3{font-size:20px;letter-spacing:-0.04em;}.cls-3,.cls-56,.cls-57,.cls-58,.cls-62{font-family:Typ1451;}.cls-4{letter-spacing:-0.1em;}.cls-5{opacity:0.2;}.cls-5,.cls-6,.cls-7{isolation:isolate;}.cls-6,.cls-61,.cls-62{fill:#fff;}.cls-8{fill:url(#linear-gradient);}.cls-9{fill:url(#linear-gradient-2);}.cls-10{fill:url(#linear-gradient-3);}.cls-11{fill:url(#linear-gradient-4);}.cls-12{fill:url(#linear-gradient-5);}.cls-13{fill:url(#linear-gradient-6);}.cls-14{fill:url(#linear-gradient-7);}.cls-15{fill:url(#linear-gradient-8);}.cls-16{fill:url(#linear-gradient-9);}.cls-17{fill:url(#linear-gradient-10);}.cls-18{fill:url(#linear-gradient-11);}.cls-19{fill:url(#linear-gradient-12);}.cls-20{fill:url(#linear-gradient-13);}.cls-21{fill:url(#linear-gradient-14);}.cls-22{fill:url(#linear-gradient-15);}.cls-23{fill:url(#linear-gradient-16);}.cls-24{fill:url(#linear-gradient-17);}.cls-25{fill:url(#linear-gradient-18);}.cls-26{fill:url(#linear-gradient-19);}.cls-27{fill:url(#linear-gradient-20);}.cls-28{fill:url(#linear-gradient-21);}.cls-29{fill:url(#linear-gradient-22);}.cls-30{fill:url(#linear-gradient-23);}.cls-31{fill:url(#linear-gradient-24);}.cls-32{fill:url(#linear-gradient-25);}.cls-33{fill:url(#linear-gradient-26);}.cls-34{fill:url(#linear-gradient-27);}.cls-35{fill:url(#linear-gradient-28);}.cls-36{fill:url(#linear-gradient-29);}.cls-37{fill:url(#linear-gradient-30);}.cls-38{fill:url(#linear-gradient-31);}.cls-39{fill:url(#linear-gradient-32);}.cls-40{fill:url(#linear-gradient-33);}.cls-41{fill:url(#linear-gradient-34);}.cls-42{fill:url(#linear-gradient-35);}.cls-43{fill:url(#linear-gradient-36);}.cls-44{fill:url(#linear-gradient-37);}.cls-45{fill:url(#linear-gradient-38);}.cls-46{fill:url(#linear-gradient-39);}.cls-47{fill:url(#linear-gradient-40);}.cls-48{fill:url(#linear-gradient-41);}.cls-49{fill:url(#linear-gradient-42);}.cls-50{fill:url(#linear-gradient-43);}.cls-51{fill:url(#linear-gradient-44);}.cls-52,.cls-54{font-size:67.01px;fill:#0071bc;font-family:NumbersClaimcheck-Regular, Numbers Claimcheck;}.cls-53{letter-spacing:-0.06em;}.cls-54{letter-spacing:-0.06em;}.cls-55,.cls-60{fill:none;stroke:#eee;stroke-width:2px;}.cls-55{stroke-linecap:square;}.cls-56,.cls-57,.cls-58{font-size:23.27px;}.cls-56{letter-spacing:-0.06em;}.cls-57{letter-spacing:-0.06em;}.cls-58{letter-spacing:-0.06em;}.cls-59{font-size:28px;font-family:TradeGothic-CondEighteen, TradeGothic;letter-spacing:-0.06em;}.cls-60{opacity:0.35;}.cls-61{font-size:60px;font-family:Typ1451-Medium;font-weight:500;letter-spacing:-0.08em;}.cls-62{opacity:0.8;font-size:38px;letter-spacing:-0.06em;}</style><linearGradient id="New_Gradient_Swatch_12" x1="540" y1="1080" x2="540" gradientUnits="userSpaceOnUse"><stop offset="0" stop-color="#fff886"/><stop offset="0.1" stop-color="#f8f58a"/><stop offset="0.24" stop-color="#e3ec94"/><stop offset="0.41" stop-color="#c2dda4"/><stop offset="0.61" stop-color="#93c8bb"/><stop offset="0.82" stop-color="#58aed8"/><stop offset="1" stop-color="#2196f3"/></linearGradient><linearGradient id="linear-gradient" x1="1016.39" y1="950.45" x2="1016.39" y2="268.02" gradientUnits="userSpaceOnUse"><stop offset="0" stop-color="#fffbb8"/><stop offset="0.02" stop-color="#fffbb1"/><stop offset="0.04" stop-color="#fffaa5"/><stop offset="0.16" stop-color="#f7f49e"/><stop offset="0.34" stop-color="#e1e58b"/><stop offset="0.36" stop-color="#dee389"/><stop offset="0.43" stop-color="#d1db8a"/><stop offset="0.55" stop-color="#aec58d"/><stop offset="0.71" stop-color="#75a192"/><stop offset="0.9" stop-color="#287099"/><stop offset="1" stop-color="#00579c"/></linearGradient><linearGradient id="linear-gradient-2" x1="1038.13" y1="950.45" x2="1038.13" y2="265.75" xlink:href="#linear-gradient"/><linearGradient id="linear-gradient-3" x1="951.17" y1="950.45" x2="951.17" y2="275.6" xlink:href="#linear-gradient"/><linearGradient id="linear-gradient-4" x1="972.91" y1="950.45" x2="972.91" y2="272.57" xlink:href="#linear-gradient"/><linearGradient id="linear-gradient-5" x1="885.95" y1="950.45" x2="885.95" y2="284.69" xlink:href="#linear-gradient"/><linearGradient id="linear-gradient-6" x1="929.43" y1="950.45" x2="929.43" y2="278.63" xlink:href="#linear-gradient"/><linearGradient id="linear-gradient-7" x1="907.69" y1="950.45" x2="907.69" y2="281.66" xlink:href="#linear-gradient"/><linearGradient id="linear-gradient-8" x1="994.65" y1="950.45" x2="994.65" y2="269.54" xlink:href="#linear-gradient"/><linearGradient id="linear-gradient-9" x1="755.51" y1="950.45" x2="755.51" y2="302.11" xlink:href="#linear-gradient"/><linearGradient id="linear-gradient-10" x1="777.25" y1="950.45" x2="777.25" y2="299.83" xlink:href="#linear-gradient"/><linearGradient id="linear-gradient-11" x1="712.03" y1="950.45" x2="712.03" y2="309.68" xlink:href="#linear-gradient"/><linearGradient id="linear-gradient-12" x1="733.77" y1="950.45" x2="733.77" y2="302.11" xlink:href="#linear-gradient"/><linearGradient id="linear-gradient-13" x1="798.99" y1="950.45" x2="798.99" y2="296.05" xlink:href="#linear-gradient"/><linearGradient id="linear-gradient-14" x1="842.47" y1="950.45" x2="842.47" y2="289.99" xlink:href="#linear-gradient"/><linearGradient id="linear-gradient-15" x1="864.21" y1="950.45" x2="864.21" y2="288.48" xlink:href="#linear-gradient"/><linearGradient id="linear-gradient-16" x1="820.73" y1="950.45" x2="820.73" y2="291.5" xlink:href="#linear-gradient"/><linearGradient id="linear-gradient-17" x1="646.81" y1="950.45" x2="646.81" y2="318.77" xlink:href="#linear-gradient"/><linearGradient id="linear-gradient-18" x1="690.29" y1="950.45" x2="690.29" y2="313.47" xlink:href="#linear-gradient"/><linearGradient id="linear-gradient-19" x1="668.55" y1="950.45" x2="668.55" y2="318.01" xlink:href="#linear-gradient"/><linearGradient id="linear-gradient-20" x1="625.07" y1="950.45" x2="625.07" y2="322.56" xlink:href="#linear-gradient"/><linearGradient id="linear-gradient-21" x1="603.33" y1="950.45" x2="603.33" y2="326.35" xlink:href="#linear-gradient"/><linearGradient id="linear-gradient-22" x1="516.37" y1="950.45" x2="516.37" y2="345.28" xlink:href="#linear-gradient"/><linearGradient id="linear-gradient-23" x1="559.85" y1="950.45" x2="559.85" y2="339.22" xlink:href="#linear-gradient"/><linearGradient id="linear-gradient-24" x1="538.11" y1="950.45" x2="538.11" y2="342.25" xlink:href="#linear-gradient"/><linearGradient id="linear-gradient-25" x1="581.59" y1="950.45" x2="581.59" y2="330.13" xlink:href="#linear-gradient"/><linearGradient id="linear-gradient-26" x1="494.63" y1="950.45" x2="494.63" y2="347.55" xlink:href="#linear-gradient"/><linearGradient id="linear-gradient-27" x1="472.89" y1="950.45" x2="472.89" y2="349.07" xlink:href="#linear-gradient"/><linearGradient id="linear-gradient-28" x1="364.19" y1="950.45" x2="364.19" y2="362.7" xlink:href="#linear-gradient"/><linearGradient id="linear-gradient-29" x1="385.93" y1="950.45" x2="385.93" y2="359.67" xlink:href="#linear-gradient"/><linearGradient id="linear-gradient-30" x1="451.15" y1="950.45" x2="451.15" y2="351.34" xlink:href="#linear-gradient"/><linearGradient id="linear-gradient-31" x1="429.41" y1="950.45" x2="429.41" y2="352.86" xlink:href="#linear-gradient"/><linearGradient id="linear-gradient-32" x1="407.67" y1="950.45" x2="407.67" y2="356.65" xlink:href="#linear-gradient"/><linearGradient id="linear-gradient-33" x1="342.45" y1="950.45" x2="342.45" y2="368.76" xlink:href="#linear-gradient"/><linearGradient id="linear-gradient-34" x1="320.71" y1="950.45" x2="320.71" y2="373.31" xlink:href="#linear-gradient"/><linearGradient id="linear-gradient-35" x1="298.97" y1="950.45" x2="298.97" y2="377.85" xlink:href="#linear-gradient"/><linearGradient id="linear-gradient-36" x1="277.23" y1="950.45" x2="277.23" y2="383.15" xlink:href="#linear-gradient"/><linearGradient id="linear-gradient-37" x1="103.31" y1="950.45" x2="103.31" y2="420.26" xlink:href="#linear-gradient"/><linearGradient id="linear-gradient-38" x1="125.05" y1="950.45" x2="125.05" y2="419.51" xlink:href="#linear-gradient"/><linearGradient id="linear-gradient-39" x1="146.79" y1="950.45" x2="146.79" y2="417.24" xlink:href="#linear-gradient"/><linearGradient id="linear-gradient-40" x1="168.53" y1="950.45" x2="168.53" y2="411.18" xlink:href="#linear-gradient"/><linearGradient id="linear-gradient-41" x1="190.27" y1="950.45" x2="190.27" y2="405.12" xlink:href="#linear-gradient"/><linearGradient id="linear-gradient-42" x1="212.01" y1="950.45" x2="212.01" y2="399.06" xlink:href="#linear-gradient"/><linearGradient id="linear-gradient-43" x1="255.49" y1="950.45" x2="255.49" y2="386.94" xlink:href="#linear-gradient"/><linearGradient id="linear-gradient-44" x1="233.75" y1="950.45" x2="233.75" y2="393.75" xlink:href="#linear-gradient"/></defs><g id="bg"><rect class="cls-1" width="1080" height="1080" rx="40"/></g><g id="credits"><g class="cls-2"><path d="M42.33,1046a7.84,7.84,0,0,1-5.5-2,1.37,1.37,0,0,1-1.47,1.4A1.34,1.34,0,0,1,34,1044v-20.88a1.35,1.35,0,0,1,1.4-1.43,1.37,1.37,0,0,1,1.47,1.4v6.24a7.37,7.37,0,0,1,5.5-2.17c5.37,0,8.37,4.4,8.37,9.4S47.7,1046,42.33,1046Zm0-16c-3.34,0-5.5,2.61-5.5,6.57s2.16,6.61,5.5,6.61,5.5-2.6,5.5-6.61S45.66,1030,42.33,1030Z"/><path d="M67.88,1038.07H55.54c.47,3.14,2.47,5.14,5.41,5.14a5,5,0,0,0,4-1.74,1.4,1.4,0,0,1,1-.53,1.56,1.56,0,0,1,1.5,1.47c0,.4-.1.7-.8,1.4A8.11,8.11,0,0,1,61,1046c-5.37,0-8.38-4.43-8.38-9.44s3-9.4,8.38-9.4,8.33,4.43,8.33,9.4A1.42,1.42,0,0,1,67.88,1038.07ZM61,1030c-3.14,0-5,2.3-5.41,5.17H66.35C65.88,1032,63.88,1030,61,1030Z"/><path d="M88,1045.48a3.24,3.24,0,0,1-3-1.9,7.66,7.66,0,0,1-5.87,2.46c-5.44,0-8.37-4.46-8.37-9.44s3-9.4,8.37-9.4a7.34,7.34,0,0,1,5.5,2.2v-.13a1.38,1.38,0,0,1,1.4-1.5,1.34,1.34,0,0,1,1.47,1.4V1042a.53.53,0,0,0,.47.6,1.42,1.42,0,1,1,0,2.84ZM79.16,1030c-3.34,0-5.5,2.61-5.5,6.57s2.16,6.61,5.5,6.61,5.5-2.6,5.5-6.61S82.53,1030,79.16,1030Z"/><path d="M104.71,1045.51a1.37,1.37,0,0,1-1.4-1.1,7.78,7.78,0,0,1-4.8,1.67,7.66,7.66,0,0,1-7.6-7.61v-9.24a1.43,1.43,0,0,1,2.86,0v9.27a4.76,4.76,0,1,0,9.51,0v-9.24a1.33,1.33,0,0,1,1.4-1.46,1.37,1.37,0,0,1,1.44,1.43v14.91A1.33,1.33,0,0,1,104.71,1045.51Z"/><path d="M115.16,1045.48h-.57c-3.17,0-4.37-1.67-4.37-4.41V1030.6h-1a1.42,1.42,0,1,1,0-2.83h1v-4.64a1.35,1.35,0,0,1,1.43-1.4,1.33,1.33,0,0,1,1.4,1.4v4.64h2.14a1.38,1.38,0,0,1,1.4,1.4,1.35,1.35,0,0,1-1.4,1.43H113v10.78c0,.93.34,1.26,1.27,1.26h.83a1.38,1.38,0,0,1,1.44,1.4A1.36,1.36,0,0,1,115.16,1045.48Z"/><path d="M119.76,1025.06a2.4,2.4,0,1,1,2.4-2.4A2.39,2.39,0,0,1,119.76,1025.06Zm0,20.42a1.4,1.4,0,0,1-1.47-1.4V1029.2a1.41,1.41,0,0,1,1.47-1.43,1.37,1.37,0,0,1,1.4,1.43v14.88A1.35,1.35,0,0,1,119.76,1045.48Z"/><path d="M130.14,1030.6h-1.5V1044a1.36,1.36,0,0,1-1.47,1.4,1.34,1.34,0,0,1-1.4-1.4V1030.6H124.4a1.42,1.42,0,0,1,0-2.83h1.37v-2.27a3.8,3.8,0,0,1,3.83-3.77,1.42,1.42,0,1,1,0,2.83.94.94,0,0,0-1,.9v2.31h1.5a1.42,1.42,0,1,1,0,2.83Z"/><path d="M146.78,1045.51a1.37,1.37,0,0,1-1.4-1.1,7.78,7.78,0,0,1-4.8,1.67,7.67,7.67,0,0,1-7.61-7.61v-9.24a1.44,1.44,0,0,1,2.87,0v9.27a4.76,4.76,0,1,0,9.51,0v-9.24a1.33,1.33,0,0,1,1.4-1.46,1.36,1.36,0,0,1,1.43,1.43v14.91A1.33,1.33,0,0,1,146.78,1045.51Z"/><path d="M154.72,1045.54a3.4,3.4,0,0,1-3.33-3.4v-19a1.44,1.44,0,0,1,2.87,0v19a.53.53,0,0,0,.46.57,1.42,1.42,0,1,1,0,2.83Z"/><path d="M170.09,1045.48v-1.27c1.89-.23,2-.43,2-3.15v-6.69c0-2.8-1.25-4-3.06-4a5.59,5.59,0,0,0-3.47,1.49v9.48c0,2.53.18,2.66,2,2.89v1.27h-9v-1.27c2.25-.33,2.49-.41,2.49-3V1033c0-2.44-.3-2.56-2.19-2.92v-1.18a34.47,34.47,0,0,0,6.66-1.53c0,.67,0,2,0,2.94.79-.55,1.63-1.14,2.59-1.74a5.69,5.69,0,0,1,3.16-1.09c3.19,0,5.2,2.34,5.2,6.31v7.5c0,2.54.23,2.66,2.27,2.92v1.27Z"/><path d="M194,1041.78c-2.45,3.42-5.48,4.17-7,4.17-5.14,0-8.12-3.93-8.12-8.59a10.3,10.3,0,0,1,2.83-7.06,8.6,8.6,0,0,1,6.08-2.82,6.39,6.39,0,0,1,6.37,6.35c0,.71-.08,1.28-.61,1.41-.77.18-6.17.49-10.32.65.06,4.58,2.72,6.74,5.56,6.74a6.78,6.78,0,0,0,4.54-1.87Zm-7.07-12.71c-1.66,0-3.16,1.8-3.51,5,1.83,0,3.58,0,5.48-.12.61,0,.85-.15.85-.79C189.79,1031.1,188.71,1029.07,186.93,1029.07Z"/><path d="M221.22,1029.21c-1.95.34-2.25.62-3.11,2.76-1.33,3.47-3.1,8.53-4.93,13.94h-1.51c-1.51-3.87-3.16-7.79-4.65-11.46-1.49,3.67-3.07,7.5-4.55,11.46H201c-1.53-4.81-3.17-9.64-4.69-14.19-.69-2-.94-2.27-2.85-2.51V1028h9.39v1.25c-2.32.34-2.53.67-2,2.13.8,2.74,1.69,5.61,2.52,8.22,1.5-3.68,3-7.62,4.32-11.43h1.46c1.39,3.76,3,7.7,4.57,11.57.74-2.11,2.06-6,2.56-8.11.41-1.67,0-2.08-2.75-2.38V1028h7.74Z"/><path d="M230.63,1033c-.92-2.61-2.16-4-4.21-4a2.17,2.17,0,0,0-2.23,2.27c0,1.49,1.05,2.26,3.16,3.21,3.28,1.5,5.29,2.79,5.29,5.74,0,3.85-3.61,5.76-6.94,5.76a12,12,0,0,1-4.92-1.16c-.17-1-.53-3.53-.66-4.89l1.25-.22c.79,2.51,2.33,4.75,5,4.75a2.24,2.24,0,0,0,2.44-2.29c0-1.42-.76-2.33-3.09-3.46-2.67-1.3-5.11-2.64-5.11-5.78s2.54-5.42,6.57-5.42a18.73,18.73,0,0,1,4.11.57c.12,1,.45,3.55.62,4.58Z"/></g><g class="cls-2"><text class="cls-3" transform="translate(870.4 1045.98)">source: World Ban<tspan class="cls-4" x="166.34" y="0">k</tspan></text></g></g><g id="bars"><g class="cls-5"><path id="point-0-0" class="cls-6" d="M95.15,193h16.31V950.45H95.15Z"/><path id="point-0-1" class="cls-6" d="M116.89,193H133.2V950.45H116.89Z"/><path id="point-0-2" class="cls-6" d="M138.63,193h16.31V950.45H138.63Z"/><path id="point-0-3" class="cls-6" d="M160.37,193h16.31V950.45H160.37Z"/><path id="point-0-4" class="cls-6" d="M182.11,193h16.31V950.45H182.11Z"/><path id="point-0-5" class="cls-6" d="M203.85,193h16.31V950.45H203.85Z"/><path id="point-0-6" class="cls-6" d="M225.59,193H241.9V950.45H225.59Z"/><path id="point-0-7" class="cls-6" d="M247.33,193h16.31V950.45H247.33Z"/><path id="point-0-8" class="cls-6" d="M269.07,193h16.31V950.45H269.07Z"/><path id="point-0-9" class="cls-6" d="M290.81,193h16.31V950.45H290.81Z"/><path id="point-0-10" class="cls-6" d="M312.55,193h16.31V950.45H312.55Z"/><path id="point-0-11" class="cls-6" d="M334.29,193H350.6V950.45H334.29Z"/><path id="point-0-12" class="cls-6" d="M356,193h16.31V950.45H356Z"/><path id="point-0-13" class="cls-6" d="M377.77,193h16.31V950.45H377.77Z"/><path id="point-0-14" class="cls-6" d="M399.51,193h16.31V950.45H399.51Z"/><path id="point-0-15" class="cls-6" d="M421.25,193h16.31V950.45H421.25Z"/><path id="point-0-16" class="cls-6" d="M443,193H459.3V950.45H443Z"/><path id="point-0-17" class="cls-6" d="M464.73,193H481V950.45H464.73Z"/><path id="point-0-18" class="cls-6" d="M486.47,193h16.31V950.45H486.47Z"/><path id="point-0-19" class="cls-6" d="M508.21,193h16.31V950.45H508.21Z"/><path id="point-0-20" class="cls-6" d="M530,193h16.31V950.45H530Z"/><path id="point-0-21" class="cls-6" d="M551.69,193H568V950.45H551.69Z"/><path id="point-0-22" class="cls-6" d="M573.43,193h16.31V950.45H573.43Z"/><path id="point-0-23" class="cls-6" d="M595.17,193h16.31V950.45H595.17Z"/><path id="point-0-24" class="cls-6" d="M616.91,193h16.31V950.45H616.91Z"/><path id="point-0-25" class="cls-6" d="M638.65,193H655V950.45H638.65Z"/><path id="point-0-26" class="cls-6" d="M660.39,193H676.7V950.45H660.39Z"/><path id="point-0-27" class="cls-6" d="M682.14,193h16.3V950.45h-16.3Z"/><path id="point-0-28" class="cls-6" d="M703.88,193h16.3V950.45h-16.3Z"/><path id="point-0-29" class="cls-6" d="M725.62,193h16.3V950.45h-16.3Z"/><path id="point-0-30" class="cls-6" d="M747.36,193h16.3V950.45h-16.3Z"/><path id="point-0-31" class="cls-6" d="M769.1,193h16.3V950.45H769.1Z"/><path id="point-0-32" class="cls-6" d="M790.84,193h16.3V950.45h-16.3Z"/><path id="point-0-33" class="cls-6" d="M812.58,193h16.3V950.45h-16.3Z"/><path id="point-0-34" class="cls-6" d="M834.32,193h16.3V950.45h-16.3Z"/><path id="point-0-35" class="cls-6" d="M856.06,193h16.3V950.45h-16.3Z"/><path id="point-0-36" class="cls-6" d="M877.8,193h16.3V950.45H877.8Z"/><path id="point-0-37" class="cls-6" d="M899.54,193h16.3V950.45h-16.3Z"/><path id="point-0-38" class="cls-6" d="M921.28,193h16.3V950.45h-16.3Z"/><path id="point-0-39" class="cls-6" d="M943,193h16.3V950.45H943Z"/><path id="point-0-40" class="cls-6" d="M964.76,193h16.3V950.45h-16.3Z"/><path id="point-0-41" class="cls-6" d="M986.5,193h16.3V950.45H986.5Z"/><path id="point-0-42" class="cls-6" d="M1008.24,193h16.3V950.45h-16.3Z"/><path id="point-0-43" class="cls-6" d="M1030,193h16.3V950.45H1030Z"/></g><g class="cls-7"><path class="cls-8" d="M1024.54,275.61V950.45h-16.3V275.61a7.89,7.89,0,0,1,8.15-7.59h0A7.89,7.89,0,0,1,1024.54,275.61Z"/><path class="cls-9" d="M1046.28,273.34V950.45H1030V273.34a7.89,7.89,0,0,1,8.15-7.59h0A7.89,7.89,0,0,1,1046.28,273.34Z"/><path class="cls-10" d="M959.32,283.18V950.45H943V283.18a7.88,7.88,0,0,1,8.15-7.58h0A7.88,7.88,0,0,1,959.32,283.18Z"/><path class="cls-11" d="M981.06,280.16V950.45h-16.3V280.16a7.89,7.89,0,0,1,8.15-7.59h0A7.89,7.89,0,0,1,981.06,280.16Z"/><path class="cls-12" d="M894.1,292.28V950.45H877.8V292.28a7.89,7.89,0,0,1,8.15-7.59h0A7.89,7.89,0,0,1,894.1,292.28Z"/><path class="cls-13" d="M937.58,286.22V950.45h-16.3V286.22a7.89,7.89,0,0,1,8.15-7.59h0A7.89,7.89,0,0,1,937.58,286.22Z"/><path class="cls-14" d="M915.84,289.24V950.45h-16.3V289.24a7.88,7.88,0,0,1,8.15-7.58h0A7.88,7.88,0,0,1,915.84,289.24Z"/><path class="cls-15" d="M1002.8,277.12V950.45H986.5V277.12c0-4.18,3.65-7.58,8.15-7.58h0C999.15,269.54,1002.8,272.94,1002.8,277.12Z"/><path class="cls-16" d="M763.66,309.69V950.45h-16.3V309.69a7.88,7.88,0,0,1,8.15-7.58h0A7.88,7.88,0,0,1,763.66,309.69Z"/><path class="cls-17" d="M785.4,307.42v643H769.1v-643a7.89,7.89,0,0,1,8.15-7.59h0A7.89,7.89,0,0,1,785.4,307.42Z"/><path class="cls-18" d="M720.18,317.27V950.45H703.87V317.27a7.89,7.89,0,0,1,8.15-7.59h0A7.89,7.89,0,0,1,720.18,317.27Z"/><path class="cls-19" d="M741.92,309.69V950.45H725.61V309.69a7.88,7.88,0,0,1,8.15-7.58h0A7.88,7.88,0,0,1,741.92,309.69Z"/><path class="cls-20" d="M807.14,303.63V950.45h-16.3V303.63a7.88,7.88,0,0,1,8.15-7.58h0A7.88,7.88,0,0,1,807.14,303.63Z"/><path class="cls-21" d="M850.62,297.57V950.45h-16.3V297.57a7.88,7.88,0,0,1,8.15-7.58h0A7.88,7.88,0,0,1,850.62,297.57Z"/><path class="cls-22" d="M872.36,296.06V950.45h-16.3V296.06c0-4.18,3.65-7.58,8.15-7.58h0C868.71,288.48,872.36,291.88,872.36,296.06Z"/><path class="cls-23" d="M828.88,299.09V950.45h-16.3V299.09a7.89,7.89,0,0,1,8.15-7.59h0A7.89,7.89,0,0,1,828.88,299.09Z"/><path class="cls-24" d="M655,326.36V950.45H638.65V326.36a7.89,7.89,0,0,1,8.16-7.59h0A7.89,7.89,0,0,1,655,326.36Z"/><path class="cls-25" d="M698.44,321.06V950.45H682.13V321.06a7.89,7.89,0,0,1,8.16-7.59h0A7.89,7.89,0,0,1,698.44,321.06Z"/><path class="cls-26" d="M676.7,325.6V950.45H660.39V325.6a7.89,7.89,0,0,1,8.16-7.59h0A7.89,7.89,0,0,1,676.7,325.6Z"/><path class="cls-27" d="M633.22,330.15v620.3H616.91V330.15a7.89,7.89,0,0,1,8.16-7.59h0A7.89,7.89,0,0,1,633.22,330.15Z"/><path class="cls-28" d="M611.48,333.94V950.45H595.17V333.94a7.89,7.89,0,0,1,8.16-7.59h0A7.89,7.89,0,0,1,611.48,333.94Z"/><path class="cls-29" d="M524.52,352.87V950.45H508.21V352.87a7.89,7.89,0,0,1,8.16-7.59h0A7.89,7.89,0,0,1,524.52,352.87Z"/><path class="cls-30" d="M568,346.81V950.45H551.69V346.81a7.89,7.89,0,0,1,8.16-7.59h0A7.89,7.89,0,0,1,568,346.81Z"/><path class="cls-31" d="M546.26,349.84V950.45H530V349.84a7.89,7.89,0,0,1,8.16-7.59h0A7.89,7.89,0,0,1,546.26,349.84Z"/><path class="cls-32" d="M589.74,337.72V950.45H573.43V337.72a7.89,7.89,0,0,1,8.16-7.59h0A7.89,7.89,0,0,1,589.74,337.72Z"/><path class="cls-33" d="M502.78,355.14V950.45H486.47V355.14a7.89,7.89,0,0,1,8.16-7.59h0A7.89,7.89,0,0,1,502.78,355.14Z"/><path class="cls-34" d="M481,356.66V950.45H464.73V356.66a7.89,7.89,0,0,1,8.16-7.59h0A7.89,7.89,0,0,1,481,356.66Z"/><path class="cls-35" d="M372.34,370.29V950.45H356V370.29a7.89,7.89,0,0,1,8.16-7.59h0A7.89,7.89,0,0,1,372.34,370.29Z"/><path class="cls-36" d="M394.08,367.26V950.45H377.77V367.26a7.89,7.89,0,0,1,8.16-7.59h0A7.89,7.89,0,0,1,394.08,367.26Z"/><path class="cls-37" d="M459.3,358.93V950.45H443V358.93a7.89,7.89,0,0,1,8.16-7.59h0A7.89,7.89,0,0,1,459.3,358.93Z"/><path class="cls-38" d="M437.56,360.45v590H421.25v-590a7.89,7.89,0,0,1,8.16-7.59h0A7.89,7.89,0,0,1,437.56,360.45Z"/><path class="cls-39" d="M415.82,364.24V950.45H399.51V364.24a7.88,7.88,0,0,1,8.16-7.59h0A7.88,7.88,0,0,1,415.82,364.24Z"/><path class="cls-40" d="M350.6,376.35v574.1H334.29V376.35a7.89,7.89,0,0,1,8.16-7.59h0A7.89,7.89,0,0,1,350.6,376.35Z"/><path class="cls-41" d="M328.86,380.9V950.45H312.55V380.9a7.88,7.88,0,0,1,8.16-7.59h0A7.88,7.88,0,0,1,328.86,380.9Z"/><path class="cls-42" d="M307.12,385.44v565H290.81v-565a7.89,7.89,0,0,1,8.16-7.59h0A7.89,7.89,0,0,1,307.12,385.44Z"/><path class="cls-43" d="M285.38,390.74V950.45H269.07V390.74a7.89,7.89,0,0,1,8.16-7.59h0A7.89,7.89,0,0,1,285.38,390.74Z"/><path class="cls-44" d="M111.46,427.85v522.6H95.15V427.85a7.89,7.89,0,0,1,8.16-7.59h0A7.89,7.89,0,0,1,111.46,427.85Z"/><path class="cls-45" d="M133.2,427.1V950.45H116.89V427.1a7.89,7.89,0,0,1,8.16-7.59h0A7.89,7.89,0,0,1,133.2,427.1Z"/><path class="cls-46" d="M154.94,424.83V950.45H138.63V424.83a7.88,7.88,0,0,1,8.16-7.59h0A7.88,7.88,0,0,1,154.94,424.83Z"/><path class="cls-47" d="M176.68,418.77V950.45H160.37V418.77a7.89,7.89,0,0,1,8.16-7.59h0A7.89,7.89,0,0,1,176.68,418.77Z"/><path class="cls-48" d="M198.42,412.71V950.45H182.11V412.71a7.89,7.89,0,0,1,8.16-7.59h0A7.89,7.89,0,0,1,198.42,412.71Z"/><path class="cls-49" d="M220.16,406.65v543.8H203.85V406.65a7.89,7.89,0,0,1,8.16-7.59h0A7.89,7.89,0,0,1,220.16,406.65Z"/><path class="cls-50" d="M263.64,394.53V950.45H247.33V394.53a7.89,7.89,0,0,1,8.16-7.59h0A7.89,7.89,0,0,1,263.64,394.53Z"/><path class="cls-51" d="M241.9,401.34V950.45H225.59V401.34a7.89,7.89,0,0,1,8.16-7.59h0A7.89,7.89,0,0,1,241.9,401.34Z"/></g><text class="cls-52" transform="translate(920.55 256.32) scale(1.07 1)"><tspan class="cls-53">+2</tspan><tspan x="61.59" y="0">0</tspan></text><text class="cls-54" transform="translate(1024.13 235.01) scale(0.63 0.58)">%</text><line class="cls-55" x1="92.43" y1="950.45" x2="1046" y2="950.45"/></g><g id="axes"><g class="cls-2"><text class="cls-56" transform="translate(53.02 957.35) scale(1.07 1)">0</text><text class="cls-57" transform="translate(65.92 949.6) scale(0.63 0.58)">%</text></g><g class="cls-2"><text class="cls-56" transform="translate(33.12 199.94) scale(1.07 1)">100</text><text class="cls-58" transform="translate(65.92 193.19) scale(0.63 0.58)">%</text></g><g class="cls-2"><text class="cls-56" transform="translate(42.82 389.59) scale(1.07 1)">75</text><text class="cls-57" transform="translate(65.92 382.84) scale(0.63 0.58)">%</text></g><g class="cls-2"><text class="cls-56" transform="translate(40.8 578.64) scale(1.07 1)">50</text><text class="cls-58" transform="translate(65.92 571.89) scale(0.63 0.58)">%</text></g><g class="cls-2"><text class="cls-56" transform="translate(42.6 770.03) scale(1.07 1)">25</text><text class="cls-58" transform="translate(65.92 763.28) scale(0.63 0.58)">%</text></g><text class="cls-59" transform="translate(95.15 981.81) scale(1.07 1)">1975</text><text class="cls-59" transform="translate(997.92 981.81) scale(1.07 1)">2018</text><line class="cls-60" x1="86.43" y1="761.1" x2="1046" y2="761.1"/><line class="cls-60" x1="86.43" y1="571.75" x2="1046" y2="571.75"/><line class="cls-60" x1="86.43" y1="382.39" x2="1046" y2="382.39"/><line class="cls-60" x1="86.43" y1="193.04" x2="1046.28" y2="193.04"/></g><g id="title"><text class="cls-61" transform="translate(96.88 80)">Female Youth Literacy is Up, Up, Up</text><text class="cls-62" transform="translate(359.41 128)">Global rate, age 15-24</text></g></svg>