<svg xmlns="http://www.w3.org/2000/svg" xmlns:xlink="http://www.w3.org/1999/xlink" viewBox="0 0 1080 1080" xmlns:v="https://vecta.io/nano"><defs><linearGradient id="A" x1="11.716" y1="11.716" x2="1068.284" y2="1068.284" gradientUnits="userSpaceOnUse"><stop offset="0" stop-color="#ff4b1f"/><stop offset=".074" stop-color="#e95935"/><stop offset=".328" stop-color="#a2887c"/><stop offset=".557" stop-color="#6aacb4"/><stop offset=".753" stop-color="#41c7dd"/><stop offset=".907" stop-color="#28d7f6"/><stop offset="1" stop-color="#1fddff"/></linearGradient><linearGradient id="B" x1="540.021" y1="975.477" x2="540.021" y2="237.469" gradientUnits="userSpaceOnUse"><stop offset="0" stop-color="#8e9eab" stop-opacity="0"/><stop offset=".123" stop-color="#9eabb6" stop-opacity=".162"/><stop offset=".364" stop-color="#bac4cb" stop-opacity=".456"/><stop offset=".581" stop-color="#d1d7db" stop-opacity=".7"/><stop offset=".766" stop-color="#e1e5e7" stop-opacity=".86"/><stop offset=".912" stop-color="#ebeeee" stop-opacity=".962"/><stop offset="1" stop-color="#eff1f1"/></linearGradient><linearGradient id="C" x1="-23.376" y1="258.35" x2="214.088" y2="495.813" gradientUnits="userSpaceOnUse"><stop offset="0" stop-color="#b80016"/><stop offset=".174" stop-color="#c81621"/><stop offset=".537" stop-color="#e63e35"/><stop offset=".825" stop-color="#f85741"/><stop offset="1" stop-color="#ff6046"/></linearGradient><linearGradient id="D" x1="196.269" y1="471.681" x2="873.022" y2="1148.434" xlink:href="#C" /><path id="E" d="M104.745 1045.465a1.36 1.36 0 0 1-1.4-1.101 7.763 7.763 0 0 1-4.804 1.668 7.666 7.666 0 0 1-7.604-7.605v-9.24a1.434 1.434 0 0 1 2.868-.033v9.272a4.753 4.753 0 1 0 9.507 0v-9.24a1.33 1.33 0 0 1 1.4-1.468 1.364 1.364 0 0 1 1.435 1.435v14.9a1.328 1.328 0 0 1-1.401 1.4z"/><path id="F" d="M799.046 1046.32c-3.22 0-5.02-2.64-5.02-5.662 0-3 1.8-5.64 5.02-5.64s5.02 2.64 5.02 5.64c0 3.02-1.8 5.662-5.02 5.662zm0-10.162c-2.36 0-3.88 1.9-3.88 4.5s1.52 4.52 3.88 4.52c2.38 0 3.88-1.92 3.88-4.52s-1.5-4.5-3.88-4.5z"/><path id="G" d="M822.785 1036.34a3.418 3.418 0 0 0-3.421 3.42v5.662a.57.57 0 0 1-1.141 0v-9.502a.57.57 0 0 1 1.141 0v.82a4.566 4.566 0 0 1 3.421-1.541.57.57 0 1 1 0 1.141z"/><path id="H" d="M832.966 1044.8a4.646 4.646 0 0 1-3.58 1.521c-3.22 0-5.02-2.64-5.02-5.662 0-3 1.8-5.64 5.02-5.64a4.651 4.651 0 0 1 3.58 1.52.534.534 0 0 1 .16.381.626.626 0 0 1-.58.6.586.586 0 0 1-.42-.199 3.526 3.526 0 0 0-2.74-1.16c-2.36 0-3.88 1.9-3.88 4.5s1.52 4.52 3.88 4.52a3.592 3.592 0 0 0 2.74-1.16.586.586 0 0 1 .42-.199.594.594 0 0 1 .58.58.569.569 0 0 1-.16.398z"/><path id="I" d="M844.546 1041.24h-8.302c.18 2.28 1.66 3.94 3.84 3.94a3.615 3.615 0 0 0 2.94-1.381.526.526 0 0 1 .479-.279.611.611 0 0 1 .62.541c0 .18 0 .22-.38.658a4.718 4.718 0 0 1-3.66 1.602c-3.22 0-5.02-2.64-5.02-5.662 0-3 1.8-5.64 5.02-5.64s5.02 2.66 5.02 5.64a.605.605 0 0 1-.56.58zm-4.46-5.08c-2.4 0-3.66 1.84-3.84 3.94h7.7c-.18-2.28-1.66-3.94-3.86-3.94z"/><path id="J" d="M882.283 1033.438a1.141 1.141 0 1 1 1.141-1.141 1.127 1.127 0 0 1-1.141 1.141zm0 12.543a.55.55 0 0 1-.58-.561v-9.502a.552.552 0 0 1 .58-.561.545.545 0 0 1 .561.561v9.502a.536.536 0 0 1-.561.561z"/><path id="K" d="M892.375 340h-11.62c.252 3.192 2.324 5.516 5.376 5.516a5.062 5.062 0 0 0 4.116-1.932.735.735 0 0 1 .672-.392.857.857 0 0 1 .868.756c0 .252 0 .308-.532.924a6.61 6.61 0 0 1-5.124 2.24c-4.508 0-7.028-3.696-7.028-7.924 0-4.2 2.52-7.896 7.028-7.896s7.028 3.724 7.028 7.896a.848.848 0 0 1-.784.812zm-6.244-7.112c-3.36 0-5.124 2.576-5.376 5.516h10.78c-.252-3.192-2.324-5.516-5.404-5.516z"/><path id="L" d="M839.68 458.425a.787.787 0 0 1-.812-.784v-8.176a4.788 4.788 0 0 0-9.576 0v8.176a.798.798 0 0 1-1.596 0v-18.368a.798.798 0 0 1 1.596 0v5.964a6.219 6.219 0 0 1 4.788-2.156 6.436 6.436 0 0 1 6.384 6.384v8.176a.781.781 0 0 1-.784.784z"/><path id="M" d="M856.815 451.79h-11.62c.252 3.192 2.323 5.516 5.376 5.516a5.058 5.058 0 0 0 4.115-1.932.735.735 0 0 1 .672-.392.856.856 0 0 1 .868.756c0 .252 0 .308-.53.924a6.61 6.61 0 0 1-5.124 2.24c-4.51 0-7.028-3.696-7.028-7.924 0-4.2 2.52-7.896 7.028-7.896s7.027 3.724 7.027 7.896a.847.847 0 0 1-.784.812zm-6.243-7.112c-3.36 0-5.124 2.576-5.376 5.516h10.78c-.252-3.192-2.324-5.516-5.403-5.516z"/><path id="N" d="M875.043 458.425h-.028a2.9 2.9 0 0 1-2.772-2.184 6.352 6.352 0 0 1-5.432 2.66c-4.563 0-7.028-3.752-7.028-7.924 0-4.228 2.52-7.896 7.028-7.896a6.4 6.4 0 0 1 5.432 2.632v-1.372a.789.789 0 0 1 .813-.784.765.765 0 0 1 .784.784v11.284c0 1.792 2.016.672 2.016 2.016a.77.77 0 0 1-.812.784zm-8.232-13.748c-3.304 0-5.432 2.66-5.432 6.3s2.128 6.328 5.432 6.328c3.332 0 5.432-2.688 5.432-6.328s-2.1-6.3-5.432-6.3z"/><path id="O" d="M889.658 458.425h-.868c-2.212 0-3.304-1.092-3.304-3.276v-9.996h-1.43a.798.798 0 0 1 0-1.596h1.43v-4.284a.787.787 0 0 1 .812-.784.764.764 0 0 1 .784.784v4.284h2.576a.798.798 0 0 1 0 1.596h-2.576v9.996c0 1.372.392 1.68 1.708 1.68h.868a.798.798 0 0 1 0 1.596z"/><path id="P" d="M895.65 402.53a.765.765 0 0 1-.784-.784v-9.408a3.57 3.57 0 0 0-7.14-.028v9.436a.764.764 0 0 1-.784.784.787.787 0 0 1-.812-.784v-9.408a3.556 3.556 0 0 0-7.112-.028v9.436a.798.798 0 0 1-1.596 0v-13.3a.798.798 0 0 1 1.596 0v.168a5.09 5.09 0 0 1 3.557-1.428 5.171 5.171 0 0 0 8.707 0 5.122 5.122 0 0 1 5.181 5.124v9.436a.787.787 0 0 1-.812.784z"/><path id="Q" d="M836.262 284.996h-10.36c.393 2.632 2.072 4.312 4.536 4.312a4.202 4.202 0 0 0 3.332-1.456 1.159 1.159 0 0 1 .868-.448 1.307 1.307 0 0 1 1.26 1.232c0 .336-.084.588-.672 1.176a6.824 6.824 0 0 1-4.788 1.876c-4.51 0-7.028-3.724-7.028-7.924 0-4.172 2.52-7.896 7.028-7.896 4.563 0 7 3.724 7 7.896a1.194 1.194 0 0 1-1.177 1.232zm-5.823-6.748c-2.632 0-4.173 1.932-4.536 4.34h9.072c-.393-2.688-2.072-4.34-4.536-4.34z"/><path id="R" d="M63.213 403.108a6.353 6.353 0 0 1-5.432-2.66v7.252a.798.798 0 1 1-1.597 0v-19.152a.798.798 0 0 1 1.597 0v1.372a6.401 6.401 0 0 1 5.432-2.632c4.508 0 7.028 3.696 7.028 7.896 0 4.23-2.52 7.924-7.028 7.924zm0-14.224c-3.332 0-5.432 2.66-5.432 6.3s2.1 6.328 5.432 6.328 5.432-2.688 5.432-6.328-2.1-6.3-5.432-6.3z"/><path id="S" d="M100.62 402.63a.787.787 0 0 1-.812-.784v-8.176a4.788 4.788 0 1 0-9.576 0v8.176a.798.798 0 0 1-1.596 0v-13.3a.798.798 0 0 1 1.596 0v.896a6.387 6.387 0 0 1 11.172 4.228v8.176a.781.781 0 0 1-.784.784z"/><path id="T" d="M50.11 431.108c-4.51 0-7.028-3.696-7.028-7.924 0-4.2 2.52-7.896 7.028-7.896s7.027 3.696 7.027 7.896c0 4.23-2.52 7.924-7.027 7.924zm0-14.224c-3.305 0-5.433 2.66-5.433 6.3s2.128 6.328 5.433 6.328c3.332 0 5.432-2.688 5.432-6.328s-2.1-6.3-5.432-6.3z"/><path id="U" d="M120.724 417.135a4.786 4.786 0 0 0-4.788 4.788v7.924a.798.798 0 0 1-1.596 0v-13.3a.798.798 0 0 1 1.596 0v1.148a6.394 6.394 0 0 1 4.788-2.156.798.798 0 1 1 0 1.596z"/><path id="V" d="M96.168 458.63a.787.787 0 0 1-.812-.784v-1.4a6.353 6.353 0 0 1-5.432 2.66c-4.51 0-7.028-3.696-7.028-7.924 0-4.2 2.52-7.896 7.028-7.896a6.401 6.401 0 0 1 5.432 2.632v-6.44a.798.798 0 0 1 1.596 0v18.368a.781.781 0 0 1-.784.784zm-6.243-13.748c-3.305 0-5.433 2.66-5.433 6.3s2.128 6.328 5.433 6.328c3.332 0 5.432-2.688 5.432-6.328s-2.1-6.3-5.432-6.3z"/><path id="W" d="M122.124 459.108c-4.508 0-7.028-3.696-7.028-7.924 0-4.2 2.52-7.896 7.028-7.896s7.028 3.696 7.028 7.896c0 4.23-2.52 7.924-7.028 7.924zm0-14.224c-3.304 0-5.432 2.66-5.432 6.3s2.128 6.328 5.432 6.328c3.332 0 5.432-2.688 5.432-6.328s-2.1-6.3-5.432-6.3z"/><path id="X" d="M66.657 473.135a4.785 4.785 0 0 0-4.788 4.788v7.924a.798.798 0 0 1-1.597 0v-13.3a.798.798 0 0 1 1.597 0v1.148a6.394 6.394 0 0 1 4.788-2.156.798.798 0 1 1 0 1.596z"/><path id="Y" d="M85.424 829.958h-11.62c.252 3.19 2.324 5.516 5.376 5.516a5.061 5.061 0 0 0 4.116-1.932.735.735 0 0 1 .672-.393.856.856 0 0 1 .868.756c0 .252 0 .308-.532.924a6.611 6.611 0 0 1-5.124 2.24c-4.508 0-7.028-3.696-7.028-7.924 0-4.2 2.52-7.896 7.028-7.896s7.028 3.724 7.028 7.896a.848.848 0 0 1-.784.813zm-6.244-7.112c-3.36 0-5.124 2.576-5.376 5.516h10.78c-.252-3.192-2.324-5.516-5.404-5.516z"/><path id="Z" d="M92.132 80.398c-9.66 0-15.06-7.92-15.06-16.98 0-9 5.4-16.92 15.06-16.92s15.06 7.92 15.06 16.92c0 9.06-5.4 16.98-15.06 16.98zm0-28.8c-6 0-9.9 4.68-9.9 11.82 0 7.2 3.9 11.88 9.9 11.88 6.06 0 9.9-4.68 9.9-11.88 0-7.14-3.84-11.82-9.9-11.82z"/><path id="a" d="M136.71 79.378a2.424 2.424 0 0 1-2.52-2.52v-16.68a8.55 8.55 0 1 0-17.099 0v16.62a2.55 2.55 0 0 1-2.64 2.64 2.472 2.472 0 0 1-2.52-2.58V50.04a2.387 2.387 0 0 1 2.52-2.52 2.509 2.509 0 0 1 2.58 1.98 13.703 13.703 0 0 1 22.259 10.68v16.62a2.454 2.454 0 0 1-2.58 2.58z"/><path id="b" d="M497.126 42.66a4.32 4.32 0 1 1 4.319-4.319 4.302 4.302 0 0 1-4.319 4.319zm0 36.72a2.52 2.52 0 0 1-2.64-2.52V50.1a2.533 2.533 0 0 1 2.64-2.58 2.472 2.472 0 0 1 2.52 2.58v26.76a2.421 2.421 0 0 1-2.52 2.52z"/><path id="c" d="M516.024 80.398c-3.3 0-8.82-1.02-11.64-4.5a2.655 2.655 0 0 1 2.16-4.26 2.463 2.463 0 0 1 1.859 1.02c1.86 2.04 4.92 2.64 7.62 2.64 5.4 0 7.14-1.86 7.14-4.56 0-7.68-18.3-2.94-18.3-15.3 0-6.54 6.12-8.94 11.82-8.94 3.24 0 10.86 1.62 10.86 4.98a2.694 2.694 0 0 1-2.521 2.7 3.612 3.612 0 0 1-1.979-.78c-1.62-1.38-3.96-1.8-6.36-1.8-4.98 0-6.72 1.86-6.72 3.84 0 7.14 18.36 2.52 18.36 15.3 0 7.08-5.94 9.66-12.3 9.66z"/><path id="d" d="M43.472 140.578h-6.9a2.55 2.55 0 0 1 0-5.1h.9v-32.52h-.9a2.55 2.55 0 0 1 0-5.1h6.9a2.551 2.551 0 1 1 0 5.1h-.9v32.52h.9a2.551 2.551 0 1 1 0 5.1z"/><path id="e" d="M118.1 140.578a5.839 5.839 0 0 1-5.34-3.42 13.747 13.747 0 0 1-10.56 4.44c-9.78 0-15.06-8.04-15.06-16.98s5.4-16.92 15.06-16.92a13.26 13.26 0 0 1 9.9 3.96v-.24a2.475 2.475 0 0 1 2.52-2.7 2.412 2.412 0 0 1 2.64 2.52v23.16a.971.971 0 0 0 .84 1.08 2.55 2.55 0 1 1 0 5.1zm-15.9-27.78c-6 0-9.9 4.68-9.9 11.82 0 7.2 3.9 11.88 9.9 11.88 6.06 0 9.9-4.68 9.9-11.88 0-7.14-3.84-11.82-9.9-11.82z"/><path id="f" d="M216.617 127.258h-22.2c.84 5.64 4.44 9.24 9.72 9.24a9.005 9.005 0 0 0 7.14-3.12 2.483 2.483 0 0 1 1.86-.96 2.8 2.8 0 0 1 2.7 2.64c0 .72-.18 1.26-1.44 2.52a14.622 14.622 0 0 1-10.26 4.02c-9.66 0-15.06-7.98-15.06-16.98 0-8.94 5.4-16.92 15.06-16.92 9.78 0 15 7.98 15 16.92a2.558 2.558 0 0 1-2.52 2.64zm-12.48-14.46c-5.64 0-8.94 4.14-9.72 9.3h19.44c-.84-5.76-4.44-9.3-9.72-9.3z"/><path id="g" d="M543.85 140.578a2.456 2.456 0 0 1-2.52-2.52v-18.9a6.33 6.33 0 0 0-12.66-.06v18.9a2.453 2.453 0 0 1-2.579 2.58 2.424 2.424 0 0 1-2.521-2.52v-18.9a6.36 6.36 0 0 0-12.72-.06v18.9a2.501 2.501 0 0 1-2.64 2.58 2.456 2.456 0 0 1-2.52-2.52v-26.82a2.632 2.632 0 0 1 4.8-1.44 11.557 11.557 0 0 1 6.659-2.1 11.36 11.36 0 0 1 8.94 4.26 11.238 11.238 0 0 1 8.879-4.26 11.459 11.459 0 0 1 11.52 11.4v18.9a2.501 2.501 0 0 1-2.64 2.58z"/></defs><rect width="1080" height="1080" rx="40" fill="url(#A)"/><g opacity=".5"><path d="M42.36 1046a7.892 7.892 0 0 1-5.503-2.002 1.364 1.364 0 0 1-1.468 1.401 1.346 1.346 0 0 1-1.401-1.401v-20.88a1.435 1.435 0 0 1 2.869-.033v6.238a7.4 7.4 0 0 1 5.503-2.169c5.37 0 8.373 4.403 8.373 9.406 0 5.037-3.002 9.44-8.373 9.44zm0-16c-3.335 0-5.503 2.602-5.503 6.57 0 4.003 2.168 6.604 5.503 6.604s5.504-2.602 5.504-6.604c0-3.97-2.168-6.57-5.504-6.57zm25.554 8.037h-12.34c.467 3.136 2.468 5.137 5.403 5.137a5.003 5.003 0 0 0 3.969-1.734 1.383 1.383 0 0 1 1.034-.533 1.556 1.556 0 0 1 1.501 1.468c0 .4-.1.7-.8 1.4a8.129 8.129 0 0 1-5.704 2.235c-5.37 0-8.372-4.437-8.372-9.44 0-4.97 3.002-9.406 8.372-9.406 5.437 0 8.34 4.437 8.34 9.406a1.422 1.422 0 0 1-1.401 1.468zm-6.937-8.038c-3.136 0-4.97 2.3-5.403 5.17H66.38c-.467-3.202-2.468-5.17-5.403-5.17zm27.053 15.443a3.247 3.247 0 0 1-2.969-1.901 7.642 7.642 0 0 1-5.87 2.469c-5.437 0-8.372-4.47-8.372-9.44s3.002-9.406 8.372-9.406a7.369 7.369 0 0 1 5.504 2.202v-.134a1.376 1.376 0 0 1 1.4-1.501 1.341 1.341 0 0 1 1.468 1.401v12.875a.54.54 0 0 0 .467.601 1.418 1.418 0 1 1 0 2.835zm-8.84-15.443c-3.336 0-5.504 2.602-5.504 6.57 0 4.003 2.168 6.604 5.504 6.604 3.37 0 5.504-2.602 5.504-6.604 0-3.97-2.135-6.57-5.504-6.57z"/><use xlink:href="#E" /><path d="M115.2 1045.432h-.567c-3.17 0-4.37-1.668-4.37-4.403v-10.474h-1a1.418 1.418 0 1 1-.033-2.835h1v-4.637a1.355 1.355 0 0 1 1.435-1.4 1.328 1.328 0 0 1 1.401 1.4v4.637h2.135a1.383 1.383 0 0 1 1.4 1.401 1.356 1.356 0 0 1-1.4 1.434h-2.135v10.774c0 .934.333 1.268 1.268 1.268h.833a1.376 1.376 0 0 1 1.435 1.4 1.357 1.357 0 0 1-1.4 1.435zm4.603-20.414a2.401 2.401 0 1 1 2.402-2.401 2.392 2.392 0 0 1-2.402 2.401zm0 20.414a1.4 1.4 0 0 1-1.467-1.401v-14.876a1.408 1.408 0 0 1 1.467-1.435 1.374 1.374 0 0 1 1.401 1.435v14.876a1.346 1.346 0 0 1-1.401 1.401zm10.377-14.877h-1.5v13.442a1.364 1.364 0 0 1-1.468 1.401 1.346 1.346 0 0 1-1.401-1.401v-13.442h-1.367a1.418 1.418 0 0 1 0-2.835h1.367v-2.27a3.801 3.801 0 0 1 3.836-3.769 1.418 1.418 0 1 1 0 2.835.934.934 0 0 0-.967.9v2.302h1.5a1.418 1.418 0 1 1 0 2.835z"/><use xlink:href="#E" x="42.068"/><path d="M154.756 1045.5a3.403 3.403 0 0 1-3.336-3.402v-18.98a1.435 1.435 0 0 1 2.869-.033v19.013a.527.527 0 0 0 .467.567 1.418 1.418 0 1 1 0 2.835zm15.37-.068v-1.264c1.886-.237 2.046-.437 2.046-3.157v-6.7c0-2.8-1.248-4.017-3.064-4.017a5.597 5.597 0 0 0-3.47 1.493v9.476c0 2.527.187 2.658 2.06 2.896v1.264h-8.968v-1.264c2.254-.33 2.5-.4 2.5-3v-8.2c0-2.446-.303-2.565-2.185-2.922v-1.184a34.102 34.102 0 0 0 6.653-1.533l-.052 2.95 2.6-1.745a5.659 5.659 0 0 1 3.159-1.086c3.194 0 5.2 2.338 5.2 6.3v7.5c0 2.54.237 2.657 2.277 2.92v1.264zm23.9-3.702c-2.458 3.427-5.488 4.178-7.014 4.178-5.142 0-8.124-3.936-8.124-8.594a10.333 10.333 0 0 1 2.832-7.062 8.602 8.602 0 0 1 6.082-2.814 6.386 6.386 0 0 1 6.37 6.347c-.014.715-.08 1.277-.612 1.4-.767.184-6.17.5-10.318.647.062 4.587 2.717 6.74 5.556 6.74a6.776 6.776 0 0 0 4.543-1.866zm-7.07-12.7c-1.667 0-3.167 1.807-3.516 4.963l5.486-.118c.6-.026.848-.146.848-.792.04-2.022-1.037-4.053-2.818-4.053zm34.285.144c-1.943.343-2.248.624-3.105 2.765-1.33 3.462-3.102 8.53-4.934 13.94H211.7l-4.65-11.46-4.55 11.46h-1.472l-4.685-14.192c-.687-1.985-.94-2.274-2.855-2.512v-1.25h9.397v1.25c-2.325.345-2.535.672-2.058 2.133l2.52 8.214c1.507-3.68 2.988-7.62 4.327-11.424h1.456c1.4 3.76 2.986 7.702 4.573 11.568.742-2.107 2.062-5.964 2.557-8.108.412-1.674-.008-2.078-2.753-2.383v-1.25h7.742zm9.4 3.746c-.92-2.606-2.155-3.984-4.2-3.984a2.166 2.166 0 0 0-2.225 2.266c0 1.497 1.046 2.264 3.16 3.216 3.278 1.496 5.3 2.787 5.3 5.736 0 3.85-3.6 5.764-6.945 5.764a12.073 12.073 0 0 1-4.92-1.161l-.662-4.892 1.252-.224c.8 2.5 2.33 4.75 4.976 4.75a2.231 2.231 0 0 0 2.438-2.281c0-1.423-.76-2.333-3.092-3.467-2.67-1.295-5.107-2.64-5.107-5.775 0-3.046 2.533-5.42 6.565-5.42a18.751 18.751 0 0 1 4.112.567l.62 4.577z"/></g><g opacity=".6"><path d="M788.325 1046.36c-1.2 0-3.22-.42-3.92-1.58a.478.478 0 0 1-.08-.299.546.546 0 0 1 1.021-.32 3.815 3.815 0 0 0 2.98 1.061c1.94 0 2.92-.64 2.92-1.94 0-3.02-6.562-1.42-6.562-5.422 0-2.02 2.02-2.8 3.84-2.8a5.415 5.415 0 0 1 3.44 1.16.556.556 0 0 1 .18.379.647.647 0 0 1-.62.6.527.527 0 0 1-.38-.16 4.001 4.001 0 0 0-2.62-.84c-1.76 0-2.7.682-2.7 1.66 0 2.8 6.562 1.32 6.562 5.422 0 2.28-2 3.08-4.06 3.08z"/><use xlink:href="#F" /><path d="M814.826 1045.98a.563.563 0 0 1-.58-.561v-.64a4.443 4.443 0 0 1-3.421 1.541 4.61 4.61 0 0 1-4.561-4.561v-5.842a.57.57 0 0 1 1.14 0v5.842a3.421 3.421 0 0 0 6.842 0v-5.842a.57.57 0 0 1 1.141 0v9.502a.559.559 0 0 1-.561.561z"/><use xlink:href="#G" /><use xlink:href="#H" /><use xlink:href="#I" /><path d="M848.524 1039.42a1.14 1.14 0 1 1 0-2.279 1.14 1.14 0 0 1 0 2.279zm0 6.563a1.141 1.141 0 1 1 0-2.281 1.141 1.141 0 0 1 0 2.281zm13.64.357a5.012 5.012 0 0 1-5.021-5.021v-9.02a.58.58 0 0 1 1.16 0v9.02a3.871 3.871 0 1 0 7.742 0v-9.02a.57.57 0 0 1 1.14 0v9.02a5.01 5.01 0 0 1-5.021 5.021zm16.32-.36a.563.563 0 0 1-.58-.561v-5.842a3.421 3.421 0 0 0-6.841 0v5.842a.57.57 0 0 1-1.141 0v-9.502a.57.57 0 0 1 1.141 0v.64a4.563 4.563 0 0 1 7.981 3.02v5.842a.558.558 0 0 1-.561.561z"/><use xlink:href="#J" /><path d="M893.845 1036.14l-3.94 9.38c-.12.26-.3.46-.56.46a.682.682 0 0 1-.58-.461l-3.94-9.36a.633.633 0 0 1-.04-.26.56.56 0 0 1 .58-.541.513.513 0 0 1 .5.34l3.48 8.223 3.46-8.223a.57.57 0 0 1 1.1.18.489.489 0 0 1-.06.262z"/><use xlink:href="#I" x="60.319"/><use xlink:href="#G" x="89.579"/><path d="M917.743 1046.36c-1.2 0-3.22-.42-3.92-1.58a.478.478 0 0 1-.08-.299.546.546 0 0 1 1.02-.32 3.815 3.815 0 0 0 2.98 1.061c1.94 0 2.92-.64 2.92-1.94 0-3.02-6.562-1.42-6.562-5.422 0-2.02 2.02-2.8 3.84-2.8a5.415 5.415 0 0 1 3.44 1.16.556.556 0 0 1 .18.379.647.647 0 0 1-.62.6.527.527 0 0 1-.38-.16 4.001 4.001 0 0 0-2.62-.84c-1.76 0-2.7.682-2.7 1.66 0 2.8 6.562 1.32 6.562 5.422 0 2.28-2 3.08-4.06 3.08z"/><use xlink:href="#J" x="42.2"/><path d="M931.543 1045.98h-.62a2.075 2.075 0 0 1-2.36-2.342v-7.14h-1.02a.571.571 0 0 1 0-1.141h1.02v-3.06a.563.563 0 0 1 .58-.561.547.547 0 0 1 .56.561v3.06h1.84a.571.571 0 0 1 0 1.141h-1.84v7.14c0 .98.28 1.2 1.22 1.2h.62a.571.571 0 0 1 0 1.141zm11-9.82l-5.42 12.822a2.072 2.072 0 0 1-2.141 1.201h-.88a.563.563 0 0 1-.56-.58.557.557 0 0 1 .56-.561h.88c.44 0 .9-.02 1.08-.48l1.14-2.72-4.142-9.682a.633.633 0 0 1-.04-.26.56.56 0 0 1 .58-.541.513.513 0 0 1 .5.34l3.722 8.682 3.68-8.682a.521.521 0 0 1 .52-.34.543.543 0 0 1 .561.541.633.633 0 0 1-.04.26z"/><use xlink:href="#F" x="154.958"/><path d="M965.063 1032.858h-.62a.885.885 0 0 0-.881.859v1.64h1.5a.545.545 0 0 1 .56.561.563.563 0 0 1-.56.58h-1.5v8.922a.546.546 0 0 1-.56.561.534.534 0 0 1-.561-.561v-8.922h-1.38a.571.571 0 0 1 0-1.141h1.38v-1.64a1.986 1.986 0 0 1 1.98-1.98h.64a.569.569 0 0 1 .58.58.536.536 0 0 1-.58.541zm17.34 11.282a5.123 5.123 0 0 1-4.461 2.182c-4.3 0-5.82-3.56-5.82-7.46 0-3.922 1.52-7.482 5.82-7.482a5.067 5.067 0 0 1 4.44 2.18.407.407 0 0 1 .12.32.6.6 0 0 1-.62.561.528.528 0 0 1-.439-.221 3.939 3.939 0 0 0-3.501-1.699c-3.32 0-4.682 2.6-4.682 6.342 0 3.72 1.36 6.32 4.682 6.32a3.988 3.988 0 0 0 3.541-1.701.465.465 0 0 1 .439-.26.612.612 0 0 1 .601.58.63.63 0 0 1-.12.34zm10.84 1.84a.563.563 0 0 1-.58-.561v-5.842a3.421 3.421 0 0 0-6.841 0v5.842a.57.57 0 0 1-1.141 0v-13.123a.57.57 0 0 1 1.141 0v4.262a4.443 4.443 0 0 1 3.421-1.541 4.598 4.598 0 0 1 4.561 4.561v5.842a.558.558 0 0 1-.561.561z"/><use xlink:href="#J" x="114.757"/><use xlink:href="#H" x="175.617"/><path d="M1021.583 1045.98h-.02a2.073 2.073 0 0 1-1.98-1.561 4.538 4.538 0 0 1-3.88 1.9c-3.26 0-5.02-2.682-5.02-5.662 0-3.02 1.8-5.64 5.02-5.64a4.572 4.572 0 0 1 3.88 1.881v-.98a.565.565 0 0 1 .581-.561.547.547 0 0 1 .56.561v8.063c0 1.28 1.44.48 1.44 1.44a.55.55 0 0 1-.58.561zm-5.88-9.822c-2.36 0-3.88 1.9-3.88 4.5s1.52 4.52 3.88 4.52c2.38 0 3.88-1.92 3.88-4.52s-1.5-4.5-3.88-4.5zm12.84 14.384c-1.7 0-4.102-.64-4.102-1.36a.636.636 0 0 1 .58-.641 7.129 7.129 0 0 1 1.061.48 7.513 7.513 0 0 0 2.461.379c2.56 0 3.88-1.26 3.88-3.72v-1.4a4.773 4.773 0 0 1-3.88 1.701c-3.16 0-5.02-2.24-5.02-5.322 0-3 1.8-5.64 5.02-5.64a4.572 4.572 0 0 1 3.88 1.881v-.96a.571.571 0 0 1 1.141 0v9.742c0 3.182-1.9 4.86-5.02 4.86zm0-14.383c-2.36 0-3.88 1.9-3.88 4.5 0 2.582 1.42 4.182 3.88 4.182s3.88-1.6 3.88-4.182c0-2.6-1.5-4.5-3.88-4.5z"/><use xlink:href="#F" x="241.916"/></g><path d="M167.402 237.472l-133.358-.003L34 975.477h1012.044V673.53c0-207.905-878.64-171.752-878.64-436.057z" opacity=".5" fill="url(#B)"/><path d="M167.403 542.5H34V200.975h96.906a36.497 36.497 0 0 1 36.497 36.497z" fill="url(#C)"/><path d="M167.403 975.475H34V633.95h99.94c20.157 0 33.463 16.34 33.463 36.497zm139.355 0H173.354V633.95h99.94c20.157 0 33.463 16.34 33.463 36.497zm139.355 0H312.71V633.95h99.94c20.157 0 33.463 16.34 33.463 36.497zm139.355 0H452.064V633.95h99.94c20.157 0 33.463 16.34 33.463 36.497zm139.355 0H591.42V633.95h99.94c20.157 0 33.463 16.34 33.463 36.497zm139.355 0H730.774V633.95h96.906a36.497 36.497 0 0 1 36.497 36.497zm139.355 0H870.13V633.95h96.906a36.497 36.497 0 0 1 36.497 36.497zm42.45 0h-36.497V633.95a36.497 36.497 0 0 1 36.497 36.497z" fill="url(#D)"/><path d="M100.7 505.08v95.9" fill="none" stroke="#fff" stroke-miterlimit="10" stroke-width="2"/><path d="M90.728 598.06l9.973 17.27 9.973-17.27H90.728z" fill="#fff"/><g opacity=".6"><path d="M839.1 344.984a6.502 6.502 0 0 1-5.012 2.128c-4.508 0-7.028-3.696-7.028-7.924 0-4.2 2.52-7.896 7.028-7.896a6.502 6.502 0 0 1 5.012 2.128.742.742 0 0 1 .225.532.878.878 0 0 1-.812.84.827.827 0 0 1-.588-.28 4.935 4.935 0 0 0-3.836-1.624c-3.304 0-5.432 2.66-5.432 6.3s2.128 6.328 5.432 6.328a5.032 5.032 0 0 0 3.836-1.624.795.795 0 0 1 1.4.532.802.802 0 0 1-.225.56zm9.97-11.844a4.785 4.785 0 0 0-4.788 4.788v7.924a.798.798 0 0 1-1.597 0v-13.3a.798.798 0 0 1 1.597 0v1.148a6.393 6.393 0 0 1 4.788-2.156.798.798 0 1 1 0 1.596zm3.667-4.06a1.596 1.596 0 1 1 1.597-1.596 1.578 1.578 0 0 1-1.597 1.596zm0 17.556a.77.77 0 0 1-.812-.784v-13.3a.771.771 0 0 1 .812-.784.763.763 0 0 1 .784.784v13.3a.749.749 0 0 1-.784.784zm22.988 0a.764.764 0 0 1-.784-.784v-9.408a3.57 3.57 0 0 0-7.14-.028v9.436a.765.765 0 0 1-.784.784.787.787 0 0 1-.812-.784v-9.408a3.556 3.556 0 0 0-7.111-.028v9.436a.798.798 0 0 1-1.597 0v-13.3a.798.798 0 0 1 1.597 0v.168a5.088 5.088 0 0 1 3.556-1.428 5.193 5.193 0 0 1 4.368 2.38 5.168 5.168 0 0 1 9.52 2.744v9.436a.787.787 0 0 1-.812.784z"/><use xlink:href="#K" /></g><path d="M785.365 338.82a5.743 5.743 0 0 0-5.837 5.641h0a5.743 5.743 0 0 0 5.837 5.643h0a5.646 5.646 0 1 0 0-11.285zm5.857-21.87a21.432 21.432 0 1 0 21.433 21.432 21.432 21.432 0 0 0-21.433-21.432zm5.16 13.44v-.87a1.752 1.752 0 0 1 .812-1.478 5.821 5.821 0 0 0-.483-.778 2.005 2.005 0 0 1-.912.228 2.052 2.052 0 0 1-2.043-2.043 1.997 1.997 0 0 1 .027-.28 5.781 5.781 0 0 0-1.024-.226 2.019 2.019 0 0 1-3.498.618 5.829 5.829 0 0 0-1.122.778 2.025 2.025 0 0 1 .363 1.154 2.052 2.052 0 0 1-2.043 2.043c-.058 0-.112-.02-.17-.02a5.832 5.832 0 0 0-.1 1.587 1.755 1.755 0 0 1 .853 1.53v.846l-3.502-.01v-.87a1.756 1.756 0 0 1 .878-1.528h.002v.012a1.734 1.734 0 0 1 .586-.194 6.992 6.992 0 0 1 .192-1.804 2.032 2.032 0 0 1 1.261-3.635 2.005 2.005 0 0 1 .764.151 6.978 6.978 0 0 1 1.592-1.124c-.006-.065-.02-.127-.02-.194a2.052 2.052 0 0 1 2.043-2.043v-.003a2.048 2.048 0 0 1 1.963 1.51 7.013 7.013 0 0 1 1.494.335 2.03 2.03 0 0 1 1.505-.677 2.052 2.052 0 0 1 2.043 2.043 2.005 2.005 0 0 1-.278 1.003 7.002 7.002 0 0 1 .809 1.35 1.713 1.713 0 0 1 1.512 1.749v.846zm-11.006 22.536a8.745 8.745 0 0 1-8.309-5.757 8.301 8.301 0 0 1 3.003-9.447l.45-2.513a1.168 1.168 0 0 1 1.149-.962h7.383a1.167 1.167 0 0 1 1.151.967l.438 2.495a8.302 8.302 0 0 1 3.026 9.44 8.729 8.729 0 0 1-8.293 5.778zm12.826-2.918a8.984 8.984 0 0 1-4.223-1.062 9.368 9.368 0 0 0 .654-1.462 9.067 9.067 0 0 0 .328-1.24 5.98 5.98 0 0 0 3.229.944h0a5.646 5.646 0 1 0 0-11.285 5.907 5.907 0 0 0-4.67 2.271 8.519 8.519 0 0 0-1.956-2.111 8.293 8.293 0 0 1 1.332-1.259l.45-2.513a1.167 1.167 0 0 1 1.149-.962h7.383a1.168 1.168 0 0 1 1.151.967l.438 2.495a8.302 8.302 0 0 1 3.026 9.44 8.729 8.729 0 0 1-8.293 5.778z" opacity=".6"/><g opacity=".6"><use xlink:href="#L" /><use xlink:href="#M" /><use xlink:href="#N" /><path d="M881.175 458.593a2.935 2.935 0 0 1-2.772-2.968v-16.352a.798.798 0 0 1 1.597 0v16.352c0 1.792 1.987.756 1.987 2.016a.903.903 0 0 1-.812.952z"/><use xlink:href="#O" /><use xlink:href="#L" x="65.294"/><path d="M920.878 456.773a6.505 6.505 0 0 1-5.012 2.128c-4.51 0-7.028-3.696-7.028-7.924 0-4.2 2.52-7.896 7.028-7.896a6.505 6.505 0 0 1 5.012 2.128.741.741 0 0 1 .224.532.877.877 0 0 1-.812.84.824.824 0 0 1-.588-.28 4.937 4.937 0 0 0-3.836-1.624c-3.305 0-5.433 2.66-5.433 6.3s2.128 6.328 5.433 6.328a5.033 5.033 0 0 0 3.836-1.624.794.794 0 0 1 1.399.532.801.801 0 0 1-.224.56z"/><use xlink:href="#N" x="64.035"/><path d="M948.82 444.93a4.786 4.786 0 0 0-4.788 4.788v7.924a.798.798 0 0 1-1.596 0v-13.3a.798.798 0 0 1 1.596 0v1.148a6.393 6.393 0 0 1 4.788-2.156.798.798 0 1 1 0 1.596z"/><use xlink:href="#K" x="71.281" y="111.79"/></g><path d="M791.222 428.783a21.433 21.433 0 1 0 21.433 21.433 21.433 21.433 0 0 0-21.433-21.433zm12.848 25.24a.445.445 0 0 1-.432.458h-.01-8.15v8.134a.445.445 0 0 1-.442.442h-7.152a.445.445 0 0 1-.442-.442v-8.134h-8.61a.445.445 0 0 1-.458-.432q0-.013 0-.026v-7.152a.445.445 0 0 1 .448-.442h8.62v-8.61a.445.445 0 0 1 .36-.442.44.44 0 0 1 .082 0h7.152a.445.445 0 0 1 .442.442v8.61h8.15a.445.445 0 0 1 .442.442z" opacity=".6"/><g opacity=".6"><path d="M839.427 402.53a.787.787 0 0 1-.812-.784v-.896a6.219 6.219 0 0 1-4.788 2.156 6.454 6.454 0 0 1-6.384-6.384v-8.176a.798.798 0 0 1 1.596 0v8.176a4.788 4.788 0 1 0 9.576 0v-8.176a.798.798 0 0 1 1.596 0v13.3a.781.781 0 0 1-.784.784zm16.743 0a.788.788 0 0 1-.812-.784v-8.176a4.788 4.788 0 1 0-9.575 0v8.176a.798.798 0 0 1-1.597 0v-13.3a.798.798 0 0 1 1.597 0v.896a6.387 6.387 0 0 1 11.172 4.228v8.176a.781.781 0 0 1-.784.784z"/><use xlink:href="#M" x="16.492" y="-55.895"/><use xlink:href="#P" /><path d="M907.215 403.007a6.353 6.353 0 0 1-5.433-2.66v7.252a.798.798 0 1 1-1.596 0v-19.152a.798.798 0 0 1 1.596 0v1.372a6.402 6.402 0 0 1 5.433-2.632c4.508 0 7.027 3.696 7.027 7.896 0 4.228-2.52 7.924-7.027 7.924zm0-14.224c-3.332 0-5.433 2.66-5.433 6.3s2.1 6.328 5.433 6.328 5.432-2.688 5.432-6.328-2.1-6.3-5.432-6.3zm13.132 13.917a2.935 2.935 0 0 1-2.772-2.968V383.38a.798.798 0 0 1 1.597 0v16.352c0 1.792 1.987.756 1.987 2.016a.903.903 0 0 1-.812.952zm9.753.307c-4.508 0-7.028-3.696-7.028-7.924 0-4.2 2.52-7.896 7.028-7.896s7.028 3.696 7.028 7.896c0 4.228-2.52 7.924-7.028 7.924zm0-14.224c-3.304 0-5.432 2.66-5.432 6.3s2.128 6.328 5.432 6.328c3.332 0 5.432-2.688 5.432-6.328s-2.1-6.3-5.432-6.3zm21.97 0l-7.588 17.948a2.896 2.896 0 0 1-2.995 1.68h-1.232a.798.798 0 0 1 0-1.596h1.232c.615 0 1.26-.028 1.512-.672l1.596-3.808-5.796-13.552a.896.896 0 0 1-.056-.364.783.783 0 0 1 .812-.756.72.72 0 0 1 .7.476l5.208 12.152 5.152-12.152a.73.73 0 0 1 .728-.476.759.759 0 0 1 .784.756.881.881 0 0 1-.057.364z"/><use xlink:href="#P" x="77.14"/><use xlink:href="#M" x="133.138" y="-55.895"/><path d="M1005.605 402.53a.787.787 0 0 1-.812-.784v-8.176a4.788 4.788 0 0 0-9.576 0v8.176a.798.798 0 0 1-1.596 0v-13.3a.798.798 0 0 1 1.596 0v.896a6.387 6.387 0 0 1 11.172 4.228v8.176a.781.781 0 0 1-.784.784z"/><use xlink:href="#O" x="125.579" y="-55.895"/></g><path d="M791.222 372.9a21.433 21.433 0 1 0 21.433 21.433 21.433 21.433 0 0 0-21.433-21.433zm13.703 29.9a.857.857 0 0 1-.855.855h-25.693a.856.856 0 0 1-.858-.855v-11.192c2.506 2.677 5.85 4.026 10.008 4.54v1.3a.86.86 0 0 0 .005.085.88.88 0 0 0 .01.075.75.75 0 0 0 .012.05l.007.025c.007.024.015.047.023.07l.002.003a.91.91 0 0 0 .035.079.85.85 0 0 0 .032.057l.017.027.007.012a.61.61 0 0 0 .037.048.84.84 0 0 0 .057.065c.02.02.04.04.062.06a.882.882 0 0 0 .555.204h5.677a.864.864 0 0 0 .836-.689c.005-.028.01-.057.012-.085a.86.86 0 0 0 .007-.085v-1.318c4.513-.583 7.28-1.818 10.008-4.524zm-15.684-6.197v-2.223h3.962v2.223zm15.684-7.488c-2.923 3.45-5.194 4.655-10.008 5.3v-.878a.856.856 0 0 0-.855-.858h-5.684a.856.856 0 0 0-.853.86v.88c-4.582-.588-7.74-2.103-10.008-5.548v-2.02a.856.856 0 0 1 .771-.853.841.841 0 0 1 .089 0h6.537v-3.3a.856.856 0 0 1 .773-.853.809.809 0 0 1 .087 0h10.9a.856.856 0 0 1 .855.853v3.3h6.542a.856.856 0 0 1 .855.853zm-18.295-5.58h9.185v2.44h-9.185z" opacity=".6"/><g opacity=".6"><path d="M779.48 263.212h-8.512a1.215 1.215 0 0 1-1.232-1.176V244.48a1.204 1.204 0 0 1 2.408-.028v16.38h7.336a1.19 1.19 0 0 1 0 2.38zm13.635-6.216h-10.36c.392 2.632 2.07 4.312 4.536 4.312a4.204 4.204 0 0 0 3.332-1.456 1.157 1.157 0 0 1 .867-.448 1.307 1.307 0 0 1 1.261 1.232c0 .336-.084.588-.673 1.176a6.821 6.821 0 0 1-4.787 1.876c-4.508 0-7.028-3.724-7.028-7.924 0-4.172 2.52-7.896 7.028-7.896 4.564 0 7 3.724 7 7.896a1.194 1.194 0 0 1-1.176 1.232zm-5.824-6.748c-2.633 0-4.172 1.932-4.536 4.34h9.07c-.4-2.688-2.07-4.34-4.535-4.34zm14.14 13.44c-1.54 0-4.116-.476-5.433-2.1a1.239 1.239 0 0 1 1.008-1.988 1.154 1.154 0 0 1 .869.476 4.782 4.782 0 0 0 3.556 1.232c2.52 0 3.332-.868 3.332-2.128 0-3.584-8.54-1.372-8.54-7.14 0-3.052 2.855-4.172 5.516-4.172 1.512 0 5.068.756 5.068 2.324a1.257 1.257 0 0 1-1.176 1.26 1.682 1.682 0 0 1-.924-.364 4.541 4.541 0 0 0-2.969-.84c-2.324 0-3.136.868-3.136 1.792 0 3.332 8.567 1.176 8.567 7.14 0 3.304-2.77 4.508-5.74 4.508zm12.74 0c-1.54 0-4.116-.476-5.433-2.1a1.239 1.239 0 0 1 1.008-1.988 1.154 1.154 0 0 1 .869.476 4.782 4.782 0 0 0 3.556 1.232c2.52 0 3.332-.868 3.332-2.128 0-3.584-8.54-1.372-8.54-7.14 0-3.052 2.855-4.172 5.516-4.172 1.512 0 5.068.756 5.068 2.324a1.257 1.257 0 0 1-1.176 1.26 1.682 1.682 0 0 1-.924-.364 4.541 4.541 0 0 0-2.969-.84c-2.324 0-3.136.868-3.136 1.792 0 3.332 8.567 1.176 8.567 7.14 0 3.304-2.772 4.508-5.74 4.508zm19.096-.476h-.475c-2.66 0-3.668-1.4-3.668-3.696v-8.792h-.84a1.19 1.19 0 0 1-.028-2.38h.84v-3.892a1.137 1.137 0 0 1 1.205-1.176 1.115 1.115 0 0 1 1.176 1.176v3.892h1.8a1.161 1.161 0 0 1 1.177 1.176 1.139 1.139 0 0 1-1.177 1.204h-1.8v9.044c0 .784.28 1.063 1.063 1.063h.7a1.155 1.155 0 0 1 1.204 1.176 1.139 1.139 0 0 1-1.177 1.204zm16.94 0a2.725 2.725 0 0 1-2.492-1.596 6.416 6.416 0 0 1-4.928 2.072c-4.563 0-7.028-3.752-7.028-7.924s2.52-7.896 7.028-7.896a6.188 6.188 0 0 1 4.62 1.848v-.112a1.155 1.155 0 0 1 1.176-1.26 1.126 1.126 0 0 1 1.232 1.176v10.808a.453.453 0 0 0 .392.504 1.19 1.19 0 1 1 0 2.38zm-7.42-12.964c-2.8 0-4.62 2.184-4.62 5.516 0 3.36 1.82 5.544 4.62 5.544 2.827 0 4.62-2.184 4.62-5.544 0-3.332-1.793-5.516-4.62-5.516zm21.25 12.992a1.049 1.049 0 0 1-.896-.448l-4.563-5.572-4.564 5.572a1.273 1.273 0 0 1-.896.42 1.259 1.259 0 0 1-1.26-1.176 1.279 1.279 0 0 1 .336-.812l4.816-5.908-4.116-5.012a1.168 1.168 0 0 1-.308-.784 1.261 1.261 0 0 1 1.26-1.204 1.083 1.083 0 0 1 .896.448l3.836 4.704 3.863-4.704a1.065 1.065 0 0 1 .84-.448 1.288 1.288 0 0 1 1.289 1.204 1.257 1.257 0 0 1-.309.756l-4.145 5.04 4.873 5.908a1.237 1.237 0 0 1 .308.812 1.282 1.282 0 0 1-1.261 1.204zm10.11.448a6.129 6.129 0 0 1-4.62-1.848v6.076a1.167 1.167 0 0 1-1.232 1.204 1.153 1.153 0 0 1-1.176-1.204v-18.368a1.153 1.153 0 0 1 1.176-1.204 1.167 1.167 0 0 1 1.232 1.204 6.722 6.722 0 0 1 4.62-1.708c4.508 0 7.028 3.696 7.028 7.896 0 4.256-2.52 7.952-7.028 7.952zm0-13.468c-2.772 0-4.62 2.212-4.62 5.516 0 3.36 1.82 5.572 4.62 5.572s4.62-2.184 4.62-5.544c0-3.332-1.82-5.544-4.62-5.544zm23.604 12.992a2.724 2.724 0 0 1-2.492-1.596 6.418 6.418 0 0 1-4.928 2.072c-4.564 0-7.03-3.752-7.03-7.924s2.52-7.896 7.03-7.896a6.187 6.187 0 0 1 4.619 1.848v-.112a1.156 1.156 0 0 1 1.176-1.26 1.126 1.126 0 0 1 1.232 1.176v10.808a.453.453 0 0 0 .393.504 1.19 1.19 0 1 1 0 2.38zm-7.42-12.964c-2.8 0-4.62 2.184-4.62 5.516 0 3.36 1.82 5.544 4.62 5.544 2.827 0 4.62-2.184 4.62-5.544 0-3.332-1.792-5.516-4.62-5.516zm22.8-.224l-7.56 17.192a3.207 3.207 0 0 1-3.08 1.876h-.895a1.13 1.13 0 0 1-1.177-1.232 1.114 1.114 0 0 1 1.177-1.176h.867c.364 0 .756-.056.924-.448l1.848-4.144-5.46-12.068a1.01 1.01 0 0 1-.141-.532 1.262 1.262 0 0 1 1.288-1.176 1.079 1.079 0 0 1 1.009.728l4.563 10.136 4.452-10.136a1.107 1.107 0 0 1 1.035-.7 1.242 1.242 0 0 1 1.289 1.148.957.957 0 0 1-.141.532zm13.607 6.972h-10.36c.392 2.632 2.07 4.312 4.535 4.312a4.202 4.202 0 0 0 3.332-1.456 1.159 1.159 0 0 1 .868-.448 1.307 1.307 0 0 1 1.261 1.232c0 .336-.084.588-.673 1.176a6.822 6.822 0 0 1-4.788 1.876c-4.508 0-7.027-3.724-7.027-7.924 0-4.172 2.52-7.896 7.027-7.896 4.564 0 7 3.724 7 7.896a1.193 1.193 0 0 1-1.176 1.232zm-5.824-6.748c-2.632 0-4.172 1.932-4.535 4.34h9.07c-.392-2.688-2.07-4.34-4.536-4.34zm15.847 0a4.033 4.033 0 0 0-3.976 4.004v7.756a1.167 1.167 0 0 1-1.232 1.204 1.146 1.146 0 0 1-1.176-1.176v-12.488a1.186 1.186 0 0 1 1.176-1.204 1.148 1.148 0 0 1 1.203.952 6.478 6.478 0 0 1 4.005-1.428 1.191 1.191 0 1 1 0 2.38zm-149.207 40.964a1.146 1.146 0 0 1-1.176-1.176v-8.82a2.954 2.954 0 0 0-5.908-.028v8.82a1.145 1.145 0 0 1-1.204 1.204 1.131 1.131 0 0 1-1.176-1.176v-8.82a2.969 2.969 0 0 0-5.937-.028v8.82a1.167 1.167 0 0 1-1.231 1.204 1.147 1.147 0 0 1-1.177-1.176V277.52a1.229 1.229 0 0 1 2.24-.672 5.399 5.399 0 0 1 3.108-.98 5.3 5.3 0 0 1 4.172 1.988 5.245 5.245 0 0 1 4.144-1.988 5.348 5.348 0 0 1 5.377 5.32v8.82a1.167 1.167 0 0 1-1.232 1.204zm10.78.476c-4.5 0-7.028-3.696-7.028-7.924 0-4.2 2.52-7.896 7.028-7.896s7.028 3.696 7.028 7.896c0 4.228-2.52 7.924-7.028 7.924zm0-13.44c-2.8 0-4.62 2.184-4.62 5.516 0 3.36 1.82 5.544 4.62 5.544 2.827 0 4.62-2.184 4.62-5.544 0-3.332-1.793-5.516-4.62-5.516zm21.364 12.964a1.131 1.131 0 0 1-1.176-1.176v-7.784a3.99 3.99 0 1 0-7.979 0v7.756a1.19 1.19 0 0 1-1.232 1.232 1.153 1.153 0 0 1-1.176-1.204V277.52a1.114 1.114 0 0 1 1.176-1.176 1.168 1.168 0 0 1 1.203.924 6.395 6.395 0 0 1 10.389 4.984v7.756a1.145 1.145 0 0 1-1.204 1.204z"/><use xlink:href="#Q" /><path d="M852.025 278.024l-7.56 17.192a3.208 3.208 0 0 1-3.079 1.876h-.896a1.129 1.129 0 0 1-1.176-1.232 1.114 1.114 0 0 1 1.176-1.176h.867c.365 0 .756-.056.924-.448l1.85-4.144-5.46-12.068a1.019 1.019 0 0 1-.141-.532 1.263 1.263 0 0 1 1.289-1.176 1.078 1.078 0 0 1 1.008.728l4.564 10.136 4.45-10.136a1.11 1.11 0 0 1 1.036-.7 1.241 1.241 0 0 1 1.288 1.148.941.941 0 0 1-.141.532zm13.16 13.664c-1.54 0-4.115-.476-5.432-2.1a1.239 1.239 0 0 1 1.008-1.988 1.152 1.152 0 0 1 .868.476 4.784 4.784 0 0 0 3.556 1.232c2.52 0 3.332-.868 3.332-2.128 0-3.584-8.54-1.372-8.54-7.14 0-3.052 2.855-4.172 5.516-4.172 1.512 0 5.068.756 5.068 2.324a1.257 1.257 0 0 1-1.177 1.26 1.685 1.685 0 0 1-.924-.364 4.54 4.54 0 0 0-2.968-.84c-2.324 0-3.137.868-3.137 1.792 0 3.332 8.568 1.176 8.568 7.14 0 3.304-2.77 4.508-5.74 4.508zm15.09 0a6.127 6.127 0 0 1-4.619-1.848v6.076a1.167 1.167 0 0 1-1.232 1.204 1.153 1.153 0 0 1-1.176-1.204v-18.368a1.153 1.153 0 0 1 1.176-1.204 1.167 1.167 0 0 1 1.232 1.204 6.718 6.718 0 0 1 4.619-1.708c4.508 0 7.028 3.696 7.028 7.896 0 4.256-2.52 7.952-7.028 7.952zm0-13.468c-2.77 0-4.62 2.212-4.62 5.516 0 3.36 1.82 5.572 4.62 5.572s4.62-2.184 4.62-5.544c0-3.332-1.82-5.544-4.62-5.544z"/><use xlink:href="#Q" x="66.023"/><path d="M917.5 291.212a1.131 1.131 0 0 1-1.176-1.176v-7.784a3.99 3.99 0 1 0-7.98 0v7.756a1.19 1.19 0 0 1-1.232 1.232 1.153 1.153 0 0 1-1.176-1.204V277.52a1.114 1.114 0 0 1 1.176-1.176 1.169 1.169 0 0 1 1.203.924 6.395 6.395 0 0 1 10.389 4.984v7.756a1.145 1.145 0 0 1-1.204 1.204zm9.1 0h-.477c-2.66 0-3.668-1.4-3.668-3.696v-8.792h-.84a1.19 1.19 0 1 1-.027-2.38h.84v-3.892a1.137 1.137 0 0 1 1.203-1.176 1.114 1.114 0 0 1 1.176 1.176v3.892h1.793a1.161 1.161 0 0 1 1.176 1.176 1.139 1.139 0 0 1-1.176 1.204h-1.793v9.044c0 .784.28 1.063 1.064 1.063h.7a1.156 1.156 0 0 1 1.204 1.176 1.139 1.139 0 0 1-1.176 1.204zm15.808.476c-4.508 0-7.027-3.696-7.027-7.924 0-4.2 2.52-7.896 7.027-7.896s7.028 3.696 7.028 7.896c0 4.228-2.52 7.924-7.028 7.924zm0-13.44c-2.8 0-4.62 2.184-4.62 5.516 0 3.36 1.82 5.544 4.62 5.544 2.828 0 4.62-2.184 4.62-5.544 0-3.332-1.792-5.516-4.62-5.516zm21.364 12.964a1.131 1.131 0 0 1-1.176-1.176v-7.784a3.99 3.99 0 1 0-7.979 0v7.756a1.19 1.19 0 0 1-1.231 1.232 1.154 1.154 0 0 1-1.177-1.204V277.52a1.115 1.115 0 0 1 1.177-1.176 1.17 1.17 0 0 1 1.203.924 6.395 6.395 0 0 1 10.389 4.984v7.756a1.146 1.146 0 0 1-1.205 1.204z"/></g><g fill="#fff"><path d="M85.85 291.86l1.2-.9h6.9a.885.885 0 0 1 1 1v61.7q-.3 1 .8 1h12.7q1.1-.3.9.813v4.874c.065.744-.234 1.047-.9.914h-34.5c-.734.065-1.067-.238-1-.914v-4.874q-.2-1.1 1-.812h13.1q.998 0 .9-1v-52.1q0-1.1-.9-.2-4.6 4.3-13.4 7.8-.7.4-.9-.4v-5a.969.969 0 0 1 .7-.9 24.96 24.96 0 0 0 12.4-11h0zm-24.12-36.127H45.132c.36 4.56 3.32 7.88 7.68 7.88 2.16 0 4.72-.96 5.88-2.76a1.05 1.05 0 0 1 .96-.56 1.223 1.223 0 0 1 1.24 1.08c0 .36 0 .44-.76 1.32a9.443 9.443 0 0 1-7.319 3.2c-6.438 0-10.038-5.28-10.038-11.318 0-6 3.6-11.278 10.038-11.278s10.04 5.32 10.04 11.278a1.211 1.211 0 0 1-1.12 1.16zm-8.92-10.158c-4.8 0-7.318 3.68-7.68 7.878h15.4c-.36-4.56-3.32-7.878-7.72-7.878zm29.52-.04l-7.88 18.757a1.313 1.313 0 0 1-1.12.92 1.361 1.361 0 0 1-1.159-.92l-7.88-18.717a1.269 1.269 0 0 1-.08-.52 1.119 1.119 0 0 1 1.16-1.08 1.028 1.028 0 0 1 1 .68l6.958 16.437 6.92-16.437a1.141 1.141 0 0 1 2.2.36.957.957 0 0 1-.12.52zm19.638 10.2H85.37c.36 4.56 3.32 7.88 7.68 7.88 2.16 0 4.72-.96 5.88-2.76a1.049 1.049 0 0 1 .96-.56 1.223 1.223 0 0 1 1.239 1.08c0 .36 0 .44-.76 1.32a9.441 9.441 0 0 1-7.318 3.2c-6.44 0-10.038-5.28-10.038-11.318 0-6 3.6-11.278 10.038-11.278s10.038 5.32 10.038 11.278a1.21 1.21 0 0 1-1.12 1.16zm-8.918-10.158c-4.8 0-7.32 3.68-7.68 7.878h15.397c-.36-4.56-3.32-7.878-7.72-7.878zm21.96.36a6.836 6.836 0 0 0-6.839 6.839v11.318a1.14 1.14 0 0 1-2.279 0v-18.997a1.14 1.14 0 0 1 2.279 0v1.64a9.132 9.132 0 0 1 6.839-3.079 1.14 1.14 0 1 1 0 2.279zm20.918-.36L125.1 271.2c-.8 1.88-2.44 2.4-4.28 2.4h-1.76a1.14 1.14 0 0 1 0-2.28h1.76c.88 0 1.8-.04 2.16-.96l2.28-5.44-8.278-19.357a1.269 1.269 0 0 1-.08-.52 1.119 1.119 0 0 1 1.16-1.08 1.028 1.028 0 0 1 1 .68L126.5 262l7.358-17.357a1.043 1.043 0 0 1 1.04-.68 1.085 1.085 0 0 1 1.12 1.08 1.269 1.269 0 0 1-.08.52zM48.4 403.164c-1.68 0-4.5-.588-5.488-2.212a.676.676 0 0 1-.112-.42.764.764 0 0 1 1.428-.448c1 1.232 2.8 1.484 4.173 1.484 2.716 0 4.088-.896 4.088-2.716 0-4.228-9.185-1.988-9.185-7.588 0-2.828 2.828-3.92 5.376-3.92a7.587 7.587 0 0 1 4.816 1.624.784.784 0 0 1 .252.532.908.908 0 0 1-.868.84.742.742 0 0 1-.532-.224 5.596 5.596 0 0 0-3.668-1.176c-2.464 0-3.78.952-3.78 2.324 0 3.92 9.184 1.848 9.184 7.588 0 3.192-2.8 4.313-5.684 4.313z"/><use xlink:href="#R" /><path d="M85.36 395.996H73.74c.252 3.19 2.323 5.516 5.376 5.516a5.059 5.059 0 0 0 4.115-1.932.735.735 0 0 1 .672-.393.856.856 0 0 1 .868.756c0 .252 0 .308-.53.924a6.611 6.611 0 0 1-5.124 2.24c-4.51 0-7.028-3.696-7.028-7.924 0-4.2 2.52-7.896 7.028-7.896s7.027 3.724 7.027 7.896a.848.848 0 0 1-.784.813zm-6.243-7.112c-3.36 0-5.124 2.576-5.376 5.516h10.78c-.252-3.192-2.324-5.516-5.403-5.516z"/><use xlink:href="#S" /><path d="M109.412 402.63h-.867c-2.213 0-3.305-1.092-3.305-3.276v-9.996h-1.428a.798.798 0 0 1 0-1.596h1.428v-4.284a.787.787 0 0 1 .813-.784.765.765 0 0 1 .784.784v4.284h2.575a.798.798 0 0 1 0 1.596h-2.575v9.996c0 1.372.392 1.68 1.708 1.68h.867a.798.798 0 0 1 0 1.596z"/><use xlink:href="#T" /><use xlink:href="#S" x="-29.008" y="28"/><path d="M93.928 423.996H82.31c.252 3.19 2.323 5.516 5.376 5.516a5.059 5.059 0 0 0 4.115-1.932.735.735 0 0 1 .672-.393.856.856 0 0 1 .868.756c0 .252 0 .308-.53.924a6.611 6.611 0 0 1-5.124 2.24c-4.51 0-7.028-3.696-7.028-7.924 0-4.2 2.52-7.896 7.028-7.896s7.027 3.724 7.027 7.896a.848.848 0 0 1-.784.813zm-6.243-7.112c-3.36 0-5.124 2.576-5.376 5.516h10.78c-.252-3.192-2.324-5.516-5.403-5.516z"/><use xlink:href="#N" x="-763.223" y="-27.795"/><use xlink:href="#U" /><path d="M125.512 430.8a2.935 2.935 0 0 1-2.772-2.968V411.48a.798.798 0 0 1 1.597 0v16.352c0 1.792 1.987.756 1.987 2.016a.903.903 0 0 1-.812.952zm14.588-13.917l-7.588 17.948a2.897 2.897 0 0 1-2.996 1.68h-1.23a.798.798 0 0 1 0-1.596h1.23c.616 0 1.26-.028 1.513-.672l1.596-3.8-5.796-13.552a.893.893 0 0 1-.056-.364.783.783 0 0 1 .812-.756.719.719 0 0 1 .7.477l5.208 12.15 5.152-12.15a.729.729 0 0 1 .728-.477.759.759 0 0 1 .784.756.879.879 0 0 1-.057.364zM55.12 456.98a6.505 6.505 0 0 1-5.012 2.128c-4.5 0-7.028-3.696-7.028-7.924 0-4.2 2.52-7.896 7.028-7.896a6.504 6.504 0 0 1 5.012 2.128.741.741 0 0 1 .224.532.877.877 0 0 1-.812.84.823.823 0 0 1-.588-.28 4.937 4.937 0 0 0-3.836-1.624c-3.305 0-5.433 2.66-5.433 6.3s2.128 6.328 5.433 6.328a5.033 5.033 0 0 0 3.836-1.624.794.794 0 0 1 1.399.532.8.8 0 0 1-.224.56zm14.73 1.65a.787.787 0 0 1-.812-.784v-8.176a4.788 4.788 0 1 0-9.576 0v8.176a.798.798 0 0 1-1.596 0V439.48a.798.798 0 0 1 1.596 0v5.964a6.218 6.218 0 0 1 4.788-2.156 6.435 6.435 0 0 1 6.384 6.384v8.176a.781.781 0 0 1-.784.784zm4.48-17.554a1.596 1.596 0 1 1 1.596-1.596 1.577 1.577 0 0 1-1.596 1.596zm0 17.556a.77.77 0 0 1-.812-.784v-13.3a.772.772 0 0 1 .813-.784.763.763 0 0 1 .784.784v13.3a.749.749 0 0 1-.784.784zm6.7.168a2.934 2.934 0 0 1-2.771-2.968V439.48a.798.798 0 0 1 1.596 0v16.352c0 1.792 1.988.756 1.988 2.016a.903.903 0 0 1-.812.952z"/><use xlink:href="#V" /><path d="M112.072 458.63a.788.788 0 0 1-.812-.784v-8.176a4.788 4.788 0 1 0-9.575 0v8.176a.798.798 0 0 1-1.597 0V439.48a.798.798 0 0 1 1.597 0v5.964a6.218 6.218 0 0 1 4.788-2.156 6.435 6.435 0 0 1 6.384 6.384v8.176a.781.781 0 0 1-.784.784z"/><use xlink:href="#W" /><use xlink:href="#T" x="87.918" y="28"/><use xlink:href="#V" x="64.007"/><use xlink:href="#R" x="-12.46" y="84"/><use xlink:href="#X" /><use xlink:href="#W" x="-47.067" y="28"/><path d="M90.96 493.015c-2.38 0-5.74-.896-5.74-1.904a.889.889 0 0 1 .812-.896 10.112 10.112 0 0 1 1.484.672 10.491 10.491 0 0 0 3.444.532c3.584 0 5.432-1.764 5.432-5.208v-1.96a6.686 6.686 0 0 1-5.432 2.38c-4.425 0-7.028-3.136-7.028-7.448 0-4.2 2.52-7.896 7.028-7.896a6.401 6.401 0 0 1 5.432 2.632v-1.344a.798.798 0 0 1 1.596 0v13.636c0 4.452-2.66 6.804-7.027 6.804zm0-20.132c-3.305 0-5.433 2.66-5.433 6.3 0 3.612 1.988 5.853 5.433 5.853s5.432-2.24 5.432-5.853c0-3.64-2.1-6.3-5.432-6.3z"/><use xlink:href="#X" x="40.853"/><path d="M123.5 486.63h-.028a2.899 2.899 0 0 1-2.771-2.184 6.353 6.353 0 0 1-5.432 2.66c-4.564 0-7.028-3.752-7.028-7.924 0-4.228 2.52-7.896 7.028-7.896a6.401 6.401 0 0 1 5.432 2.632v-1.372a.789.789 0 0 1 .812-.784.764.764 0 0 1 .784.784v11.284c0 1.792 2.017.672 2.017 2.016a.77.77 0 0 1-.813.784zm-8.23-13.748c-3.305 0-5.433 2.66-5.433 6.3s2.128 6.328 5.433 6.328c3.332 0 5.432-2.688 5.432-6.328s-2.1-6.3-5.432-6.3zm28.968 13.748a.765.765 0 0 1-.784-.784v-9.408a3.57 3.57 0 0 0-7.14-.028v9.436a.764.764 0 0 1-.784.784.787.787 0 0 1-.812-.784v-9.408a3.556 3.556 0 0 0-7.112-.028v9.436a.798.798 0 0 1-1.596 0v-13.3a.798.798 0 0 1 1.596 0v.168a5.09 5.09 0 0 1 3.557-1.428 5.19 5.19 0 0 1 4.367 2.38 5.169 5.169 0 0 1 9.521 2.744v9.436a.787.787 0 0 1-.813.784zm8.362.534c-1.68 0-4.508-.588-5.488-2.212a.681.681 0 0 1-.111-.42.764.764 0 0 1 1.428-.448c1.008 1.232 2.8 1.484 4.172 1.484 2.716 0 4.088-.896 4.088-2.716 0-4.228-9.184-1.988-9.184-7.588 0-2.828 2.828-3.92 5.376-3.92a7.585 7.585 0 0 1 4.815 1.624.784.784 0 0 1 .252.532.907.907 0 0 1-.867.84.742.742 0 0 1-.532-.224 5.598 5.598 0 0 0-3.668-1.176c-2.464 0-3.78.952-3.78 2.324 0 3.92 9.184 1.848 9.184 7.588 0 3.192-2.8 4.313-5.684 4.313zM51.93 676.9a6.836 6.836 0 0 0-6.839 6.839v11.318a1.14 1.14 0 0 1-2.279 0V676.05a1.14 1.14 0 0 1 2.279 0v1.64a9.131 9.131 0 0 1 6.839-3.08 1.14 1.14 0 1 1 0 2.28zm19.592 9.797H54.924c.36 4.56 3.32 7.88 7.68 7.88 2.16 0 4.72-.96 5.88-2.76a1.05 1.05 0 0 1 .96-.56 1.222 1.222 0 0 1 1.24 1.08c0 .36 0 .44-.76 1.32a9.443 9.443 0 0 1-7.319 3.199c-6.438 0-10.038-5.28-10.038-11.318 0-6 3.6-11.278 10.038-11.278s10.04 5.32 10.04 11.278a1.211 1.211 0 0 1-1.12 1.16zm-8.92-10.158c-4.8 0-7.318 3.68-7.68 7.88H70.32c-.36-4.56-3.32-7.88-7.72-7.88zm20.52 19.637h-1.24c-3.16 0-4.72-1.56-4.72-4.68V677.2h-2.04a1.14 1.14 0 0 1 0-2.279h2.04v-6.12a1.124 1.124 0 0 1 1.16-1.12 1.091 1.091 0 0 1 1.119 1.12v6.12h3.68a1.14 1.14 0 0 1 0 2.279h-3.68v14.278c0 1.96.56 2.4 2.44 2.4h1.24a1.14 1.14 0 0 1 0 2.279zm19.917 0a1.124 1.124 0 0 1-1.16-1.12v-1.28a8.884 8.884 0 0 1-6.839 3.079 9.218 9.218 0 0 1-9.118-9.118V676.05a1.14 1.14 0 0 1 2.279 0v11.678a6.839 6.839 0 0 0 13.678 0V676.05a1.14 1.14 0 0 1 2.28 0v18.997a1.115 1.115 0 0 1-1.12 1.12zm14.322-19.276a6.836 6.836 0 0 0-6.839 6.839v11.318a1.14 1.14 0 0 1-2.28 0V676.05a1.14 1.14 0 0 1 2.28 0v1.64a9.131 9.131 0 0 1 6.839-3.08 1.14 1.14 0 1 1 0 2.28zm19.598 19.276a1.125 1.125 0 0 1-1.16-1.12v-11.678a6.839 6.839 0 1 0-13.678 0v11.678a1.14 1.14 0 0 1-2.279 0V676.05a1.14 1.14 0 0 1 2.279 0v1.28a9.124 9.124 0 0 1 15.958 6.039v11.678a1.115 1.115 0 0 1-1.12 1.12zm11.523.76c-2.4 0-6.44-.84-7.84-3.16a.966.966 0 0 1-.16-.6 1.091 1.091 0 0 1 2.04-.64c1.44 1.76 4 2.12 5.96 2.12 3.88 0 5.84-1.28 5.84-3.88 0-6.04-13.118-2.84-13.118-10.838 0-4.04 4.04-5.6 7.68-5.6 2.08 0 5.28.72 6.88 2.32a1.117 1.117 0 0 1 .36.76 1.297 1.297 0 0 1-1.24 1.2 1.058 1.058 0 0 1-.76-.32 7.995 7.995 0 0 0-5.239-1.68c-3.52 0-5.398 1.36-5.398 3.32 0 5.6 13.117 2.64 13.117 10.838 0 4.56-4 6.16-8.118 6.16z"/><use xlink:href="#W" x="-72.23" y="377.962"/><path d="M70.837 822.818L65.32 835.95a.92.92 0 0 1-.784.644.955.955 0 0 1-.812-.644L58.2 822.845a.886.886 0 0 1-.056-.364.783.783 0 0 1 .812-.756.719.719 0 0 1 .7.477l4.872 11.508 4.844-11.508a.799.799 0 0 1 1.54.252.67.67 0 0 1-.084.364z"/><use xlink:href="#Y" /><use xlink:href="#U" x="-25.639" y="405.962"/><path d="M108.244 836.593h-.868c-2.212 0-3.304-1.092-3.304-3.276v-9.996h-1.428a.798.798 0 0 1 0-1.596h1.428v-4.284a.787.787 0 0 1 .812-.784.764.764 0 0 1 .784.784v4.284h2.576a.798.798 0 0 1 0 1.596h-2.576v9.996c0 1.372.392 1.68 1.708 1.68h.868a.798.798 0 0 1 0 1.596zm14.476 0a.787.787 0 0 1-.812-.784v-8.176a4.788 4.788 0 1 0-9.576 0v8.176a.798.798 0 0 1-1.596 0V817.44a.798.798 0 0 1 1.596 0v5.964a6.218 6.218 0 0 1 4.788-2.156 6.435 6.435 0 0 1 6.384 6.384v8.176a.781.781 0 0 1-.784.784z"/><use xlink:href="#Y" x="53.592"/><path d="M45.61 864.76a2.934 2.934 0 0 1-2.772-2.968v-16.352a.798.798 0 0 1 1.596 0v16.352c0 1.792 1.988.756 1.988 2.016a.903.903 0 0 1-.812.952z"/><use xlink:href="#W" x="-67.611" y="405.962"/><use xlink:href="#S" x="-24.603" y="461.963"/><path d="M86.07 870.977c-2.38 0-5.74-.895-5.74-1.904a.889.889 0 0 1 .812-.896 10.109 10.109 0 0 1 1.484.672 10.494 10.494 0 0 0 3.444.532c3.584 0 5.432-1.764 5.432-5.208v-1.96a6.684 6.684 0 0 1-5.432 2.38c-4.424 0-7.028-3.136-7.028-7.448 0-4.2 2.52-7.896 7.028-7.896a6.4 6.4 0 0 1 5.432 2.632v-1.344a.798.798 0 0 1 1.596 0v13.636c0 4.452-2.66 6.804-7.028 6.804zm0-20.132c-3.304 0-5.432 2.66-5.432 6.3 0 3.612 1.988 5.853 5.432 5.853s5.432-2.24 5.432-5.853c0-3.64-2.1-6.3-5.432-6.3zm21.306 13.748h-.868c-2.212 0-3.304-1.092-3.304-3.276v-9.996h-1.428a.798.798 0 0 1 0-1.596h1.428v-4.284a.787.787 0 0 1 .812-.784.764.764 0 0 1 .784.784v4.284h2.576a.798.798 0 0 1 0 1.596H104.8v9.996c0 1.372.392 1.68 1.708 1.68h.868a.798.798 0 0 1 0 1.596z"/><use xlink:href="#Y" x="37.072" y="28"/><use xlink:href="#U" x="11.432" y="433.962"/><path d="M152.4 864.593a.765.765 0 0 1-.784-.784V854.4a3.57 3.57 0 0 0-7.14-.028v9.436a.765.765 0 0 1-.784.784.787.787 0 0 1-.812-.784V854.4a3.556 3.556 0 0 0-7.112-.028v9.436a.798.798 0 0 1-1.596 0v-13.3a.798.798 0 0 1 1.596 0v.168a5.088 5.088 0 0 1 3.556-1.428 5.191 5.191 0 0 1 4.368 2.38 5.169 5.169 0 0 1 9.52 2.744v9.436a.787.787 0 0 1-.812.784zM52.103 340.495c0-.403-.182-.605-.545-.605a11.258 11.258 0 0 1-6.601-4.118 14.858 14.858 0 0 1-1.604-3.209 10.475 10.475 0 0 1-.575-3.512c-.12-.606.1-.848.666-.727h2.543q1.1-.182 1.2.666a8.951 8.951 0 0 0 1.878 5.026 6.37 6.37 0 0 0 5.207 2.12q7.085-.182 7.207-7.085a6.492 6.492 0 0 0-2.604-5.632 23.723 23.723 0 0 0-2.846-1.726q-1.576-.817-3.513-1.665a18.797 18.797 0 0 1-3.33-1.847 17.954 17.954 0 0 1-2.726-2.331 10.133 10.133 0 0 1-1.907-3.058 9.796 9.796 0 0 1-.636-3.967 10.975 10.975 0 0 1 2.264-6.812 12.227 12.227 0 0 1 6.13-3.845c.32 0 .483-.22.483-.666v-5.935q-.122-.604.543-.545h3.08q.604 0 .604.545v5.813c-.08.445.06.666.423.666a9.652 9.652 0 0 1 6.341 3.815 11.09 11.09 0 0 1 2.053 6.661q.182.908-.597.727h-2.567q-.957.182-1.074-.666-.123-6.48-6.722-6.66a6.11 6.11 0 0 0-4.905 1.938 7.149 7.149 0 0 0-1.695 4.784 6.133 6.133 0 0 0 2.232 5.026 15.686 15.686 0 0 0 2.444 1.665 30.007 30.007 0 0 0 2.927 1.423 28.187 28.187 0 0 1 4.284 2.301 18.251 18.251 0 0 1 3.078 2.543 10.157 10.157 0 0 1 2.534 7.267 10.841 10.841 0 0 1-2.527 7.569 10.089 10.089 0 0 1-6.499 3.573c-.36 0-.54.202-.54.605v5.813q.06.666-.545.545h-3.1q-.606.12-.484-.484zm53.277 392.858a123.21 123.21 0 0 0-13 29.4 125.509 125.509 0 0 0-4.899 30.6q.098 1.2-1 1.1h-5.6q-1.102-.2-.8-1.1a109.78 109.78 0 0 1 1.7-15.4 154.419 154.419 0 0 1 3.7-15.6 137.442 137.442 0 0 1 5.699-15.4 123.606 123.606 0 0 1 7.7-14.7c.6-.933.565-1.4-.1-1.4h-30.1q-1.102.202-.8-1v-5.1q-.3-1.1.8-.9h36.3q1.1-.2.8.9v7.2l-.4 1.4zm8.097 56.2q-.3 5.602-5.9 6.1-5.502-.4-5.9-6.1.5-5.6 5.9-5.9 5.6.3 5.9 5.9h0zm22.9-.5a11.778 11.778 0 0 0 8.9-4 13.876 13.876 0 0 0 3.3-9.6q0-7.2-3.9-11.1a13.797 13.797 0 0 0-10.2-3.9h-1.1q-1.102.2-.9-1.016v-4.772q-.202-1.1.9-.812h.6a13.696 13.696 0 0 0 5.3-.995 12.895 12.895 0 0 0 4.2-2.789 14.581 14.581 0 0 0 2.85-4.333 12.158 12.158 0 0 0 .851-5.626q-.3-10.556-10.1-10.856a9.079 9.079 0 0 0-7 2.6 12.484 12.484 0 0 0-3.6 7.7q0 1.402-.9 1.2h-5.3q-1.2.1-.9-1a19.874 19.874 0 0 1 5.601-12.4 16.645 16.645 0 0 1 12.2-5.1 16.879 16.879 0 0 1 12.399 5.1 18.599 18.599 0 0 1 3.75 5.7 19.535 19.535 0 0 1 .45 13 15.312 15.312 0 0 1-2.5 4.6 18.778 18.778 0 0 1-6.8 5.7q-.8.502.1 1.1a22.233 22.233 0 0 1 7.5 5.7q3.9 4.4 3.9 12.3a21.081 21.081 0 0 1-1.45 7.85 20.212 20.212 0 0 1-10.45 11.05 19.699 19.699 0 0 1-7.8 1.7 18.836 18.836 0 0 1-13.1-5.1q-5.502-5.198-5.9-14.2-.3-.5.8-.8h5.3q1-.098 1.1 1.2.798 11.4 11.9 11.9h0zM52.065 771.5c0-.403-.182-.605-.545-.605a11.26 11.26 0 0 1-6.601-4.118 14.862 14.862 0 0 1-1.604-3.21 10.474 10.474 0 0 1-.575-3.512c-.12-.605.1-.848.666-.727h2.543q1.1-.182 1.2.666a8.953 8.953 0 0 0 1.878 5.026 6.37 6.37 0 0 0 5.207 2.12q7.085-.182 7.207-7.085a6.491 6.491 0 0 0-2.604-5.631 23.598 23.598 0 0 0-2.846-1.726q-1.576-.817-3.513-1.666a18.764 18.764 0 0 1-3.33-1.847 17.957 17.957 0 0 1-2.726-2.332 10.121 10.121 0 0 1-1.907-3.058 9.792 9.792 0 0 1-.636-3.966 10.973 10.973 0 0 1 2.264-6.812 12.221 12.221 0 0 1 6.13-3.845c.32 0 .483-.222.483-.666v-5.935q-.122-.605.543-.545h3.08q.604 0 .604.545v5.813q-.122.667.423.667a9.652 9.652 0 0 1 6.341 3.815 11.089 11.089 0 0 1 2.053 6.661q.182.908-.597.727h-2.567q-.957.182-1.074-.666-.123-6.48-6.722-6.66a6.11 6.11 0 0 0-4.905 1.938 7.149 7.149 0 0 0-1.695 4.784 6.131 6.131 0 0 0 2.232 5.026 15.687 15.687 0 0 0 2.444 1.666 30.007 30.007 0 0 0 2.927 1.423 28.186 28.186 0 0 1 4.284 2.301 18.252 18.252 0 0 1 3.078 2.543 10.156 10.156 0 0 1 2.534 7.267 10.842 10.842 0 0 1-2.527 7.57 10.091 10.091 0 0 1-6.499 3.573c-.36 0-.54.202-.54.605v5.813q.06.666-.545.545h-3.1q-.606.12-.484-.484z"/></g><g fill="#333"><path d="M69.69 79.438a2.472 2.472 0 0 1-2.52-2.58v-27.6l-11.64 21.72a2.626 2.626 0 0 1-2.4 1.62 2.857 2.857 0 0 1-2.4-1.62l-11.58-21.6v27.48a2.501 2.501 0 0 1-2.64 2.58 2.472 2.472 0 0 1-2.52-2.58v-37.5a2.526 2.526 0 0 1 2.76-2.7 2.3 2.3 0 0 1 2.16 1.5l14.22 26.46 14.28-26.46a2.303 2.303 0 0 1 2.34-1.5 2.485 2.485 0 0 1 2.58 2.7v37.5a2.501 2.501 0 0 1-2.64 2.58z"/><use xlink:href="#Z" /><use xlink:href="#a" /><path d="M171.03 66.058h-22.2c.84 5.64 4.44 9.24 9.72 9.24a9.005 9.005 0 0 0 7.14-3.12 2.483 2.483 0 0 1 1.86-.96 2.8 2.8 0 0 1 2.7 2.64c0 .72-.18 1.26-1.44 2.52a14.622 14.622 0 0 1-10.26 4.02c-9.66 0-15.06-7.98-15.06-16.98 0-8.94 5.4-16.92 15.06-16.92 9.78 0 15 7.98 15 16.92a2.558 2.558 0 0 1-2.52 2.64zM158.55 51.6c-5.64 0-8.94 4.14-9.72 9.3h19.44c-.84-5.76-4.44-9.3-9.72-9.3zm45.05-.48l-16.2 36.838a6.876 6.876 0 0 1-6.6 4.02h-1.92a2.42 2.42 0 0 1-2.52-2.64 2.387 2.387 0 0 1 2.52-2.52h1.86a1.894 1.894 0 0 0 1.98-.96l3.96-8.88-11.7-25.86a2.168 2.168 0 0 1-.3-1.14 2.705 2.705 0 0 1 2.76-2.52 2.309 2.309 0 0 1 2.16 1.56l9.78 21.72 9.54-21.72a2.375 2.375 0 0 1 2.22-1.5 2.659 2.659 0 0 1 2.76 2.46 2.035 2.035 0 0 1-.3 1.14zm27.97 29.278c-4.38 0-10.5-1.8-13.92-4.98a2.4 2.4 0 0 1-.84-1.86 2.599 2.599 0 0 1 2.58-2.58c.9 0 1.2.3 2.28 1.14a16.241 16.241 0 0 0 9.899 3.18c7.14 0 10.26-2.58 10.26-7.02 0-12.48-23.94-5.4-23.94-21.72 0-7.32 6.18-10.98 14.1-10.98 4.14 0 10.08 1.62 13.02 5.1a2.365 2.365 0 0 1 .66 1.62 2.795 2.795 0 0 1-2.58 2.7c-.9 0-1.38-.42-2.4-1.32a13.181 13.181 0 0 0-8.7-2.94c-6.48 0-8.94 2.58-8.94 5.82 0 11.22 23.94 4.56 23.94 21.72 0 8.94-7.5 12.12-15.42 12.12zm34.02 0a13.13 13.13 0 0 1-9.899-3.96v13.02a2.501 2.501 0 0 1-2.64 2.58 2.472 2.472 0 0 1-2.52-2.58V50.1a2.472 2.472 0 0 1 2.52-2.58 2.501 2.501 0 0 1 2.64 2.58 14.401 14.401 0 0 1 9.899-3.66c9.66 0 15.06 7.92 15.06 16.92 0 9.12-5.4 17.04-15.06 17.04zm0-28.86c-5.94 0-9.9 4.74-9.9 11.82 0 7.2 3.9 11.94 9.9 11.94s9.9-4.68 9.9-11.88c0-7.14-3.9-11.88-9.9-11.88zm45.96 14.52h-22.2c.84 5.64 4.44 9.24 9.72 9.24a9.005 9.005 0 0 0 7.14-3.12 2.483 2.483 0 0 1 1.86-.96 2.8 2.8 0 0 1 2.7 2.64c0 .72-.18 1.26-1.44 2.52a14.622 14.622 0 0 1-10.26 4.02c-9.66 0-15.06-7.98-15.06-16.98 0-8.94 5.4-16.92 15.06-16.92 9.78 0 15 7.98 15 16.92a2.558 2.558 0 0 1-2.52 2.64zM299.07 51.6c-5.64 0-8.94 4.14-9.72 9.3h19.44c-.84-5.76-4.44-9.3-9.72-9.3z"/><use xlink:href="#a" x="206.218"/><path d="M361.23 79.378h-1.02c-5.7 0-7.86-3-7.86-7.92V52.62h-1.8a2.55 2.55 0 0 1-.06-5.1h1.8v-8.34a2.436 2.436 0 0 1 2.58-2.52 2.39 2.39 0 0 1 2.52 2.52v8.34h3.84a2.487 2.487 0 0 1 2.52 2.52 2.441 2.441 0 0 1-2.52 2.58h-3.84v19.38c0 1.68.6 2.28 2.28 2.28h1.5a2.475 2.475 0 0 1 2.58 2.52 2.441 2.441 0 0 1-2.52 2.58z"/><use xlink:href="#Z" x="300.595"/><use xlink:href="#a" x="300.596"/><path d="M472.825 79.378h-12.42a2.73 2.73 0 0 1-2.64-2.52V39.24a2.693 2.693 0 0 1 2.64-2.58h12.42c12.36 0 16.44 10.2 16.44 21.3 0 11.16-4.08 21.42-16.44 21.42zm0-37.62h-9.9v32.52h9.9c7.74 0 11.28-5.7 11.28-16.32 0-10.44-3.54-16.2-11.28-16.2z"/><use xlink:href="#b" /><use xlink:href="#c" /><path d="M561.683 79.378a5.837 5.837 0 0 1-5.339-3.42 13.748 13.748 0 0 1-10.56 4.44c-9.78 0-15.06-8.04-15.06-16.98s5.4-16.92 15.06-16.92a13.259 13.259 0 0 1 9.899 3.96v-.24a2.475 2.475 0 0 1 2.52-2.7 2.412 2.412 0 0 1 2.64 2.52v23.16a.971.971 0 0 0 .84 1.08 2.55 2.55 0 1 1 0 5.1zM545.785 51.6c-6 0-9.9 4.68-9.9 11.82 0 7.2 3.9 11.88 9.9 11.88 6.06 0 9.9-4.68 9.9-11.88 0-7.14-3.84-11.82-9.9-11.82zm47.818 27.718a2.436 2.436 0 0 1-2.58-2.52 14.518 14.518 0 0 1-9.899 3.6c-9.66 0-15.06-7.92-15.06-16.98 0-9 5.4-16.92 15.06-16.92a13.224 13.224 0 0 1 9.899 3.9V39.24a2.58 2.58 0 0 1 5.159-.06v37.618a2.436 2.436 0 0 1-2.579 2.52zm-12.48-27.72c-6 0-9.9 4.68-9.9 11.82 0 7.2 3.9 11.88 9.9 11.88 6.06 0 9.9-4.68 9.9-11.88 0-7.14-3.84-11.82-9.9-11.82zm45.66-.538l-10.92 26.28a2.737 2.737 0 0 1-2.58 2.04 2.904 2.904 0 0 1-2.58-2.04l-10.92-26.28a3.721 3.721 0 0 1-.18-1.08 2.588 2.588 0 0 1 2.64-2.46 2.456 2.456 0 0 1 2.28 1.56l8.76 21 8.76-21a2.584 2.584 0 0 1 4.979.84 2.975 2.975 0 0 1-.24 1.14zm33.18 28.318a5.836 5.836 0 0 1-5.34-3.42 13.748 13.748 0 0 1-10.56 4.44c-9.78 0-15.06-8.04-15.06-16.98s5.4-16.92 15.06-16.92a13.259 13.259 0 0 1 9.899 3.96v-.24a2.476 2.476 0 0 1 2.52-2.7 2.412 2.412 0 0 1 2.64 2.52v23.16a.971.971 0 0 0 .841 1.08 2.55 2.55 0 1 1 0 5.1zm-15.9-27.78c-6 0-9.9 4.68-9.9 11.82 0 7.2 3.9 11.88 9.9 11.88 6.06 0 9.9-4.68 9.9-11.88 0-7.14-3.84-11.82-9.9-11.82zm46.44 27.78a2.423 2.423 0 0 1-2.52-2.52v-16.68a8.55 8.55 0 1 0-17.1 0v16.62a2.55 2.55 0 0 1-2.64 2.64 2.472 2.472 0 0 1-2.52-2.58V50.04a2.387 2.387 0 0 1 2.52-2.52 2.509 2.509 0 0 1 2.58 1.98 13.703 13.703 0 0 1 22.259 10.68V76.8a2.454 2.454 0 0 1-2.58 2.58zm18.3 0h-1.02c-5.7 0-7.86-3-7.86-7.92V52.62h-1.8a2.55 2.55 0 0 1-.061-5.1h1.8v-8.34a2.436 2.436 0 0 1 2.579-2.52 2.39 2.39 0 0 1 2.521 2.52v8.34h3.84a2.487 2.487 0 0 1 2.52 2.52 2.441 2.441 0 0 1-2.52 2.58h-3.84V72c0 1.68.6 2.28 2.28 2.28h1.5a2.475 2.475 0 0 1 2.58 2.52 2.441 2.441 0 0 1-2.52 2.58zm35.097 0a5.837 5.837 0 0 1-5.339-3.42 13.748 13.748 0 0 1-10.56 4.44c-9.78 0-15.06-8.04-15.06-16.98s5.4-16.92 15.06-16.92a13.259 13.259 0 0 1 9.899 3.96v-.24a2.475 2.475 0 0 1 2.52-2.7 2.412 2.412 0 0 1 2.64 2.52v23.16a.971.971 0 0 0 .84 1.08 2.55 2.55 0 1 1 0 5.1zM728.002 51.6c-6 0-9.9 4.68-9.9 11.82 0 7.2 3.9 11.88 9.9 11.88 6.06 0 9.9-4.68 9.9-11.88 0-7.14-3.84-11.82-9.9-11.82zm35.34 41.457c-3.66 0-12.72-1.32-12.72-4.92a2.794 2.794 0 0 1 2.58-2.7c1.38 0 .18.18 3.36 1.38a18.749 18.749 0 0 0 6.78 1.14c6.66 0 9.9-3.18 9.9-9.48v-2.7a14.038 14.038 0 0 1-9.899 3.6c-9.48 0-15.06-6.72-15.06-15.96 0-9 5.4-16.92 15.06-16.92 4.2 0 7.44 1.26 9.9 3.84v-.24a2.553 2.553 0 0 1 2.58-2.58 2.518 2.518 0 0 1 2.579 2.58v28.38c0 9.54-5.7 14.58-15.06 14.58zm0-41.458c-6 0-9.9 4.68-9.9 11.82 0 6.84 3.6 10.86 9.9 10.86s9.9-4.02 9.9-10.86c0-7.14-3.84-11.82-9.9-11.82zm47.338 14.46h-22.2c.84 5.64 4.44 9.24 9.72 9.24a9.007 9.007 0 0 0 7.14-3.12 2.483 2.483 0 0 1 1.859-.96 2.8 2.8 0 0 1 2.7 2.64c0 .72-.18 1.26-1.44 2.52a14.618 14.618 0 0 1-10.259 4.02c-9.66 0-15.06-7.98-15.06-16.98 0-8.94 5.4-16.92 15.06-16.92 9.78 0 15 7.98 15 16.92a2.558 2.558 0 0 1-2.52 2.64zM798.2 51.6c-5.64 0-8.94 4.14-9.72 9.3h19.438c-.84-5.76-4.44-9.3-9.72-9.3zm45.24 27.718a2.436 2.436 0 0 1-2.58-2.52 14.518 14.518 0 0 1-9.899 3.6c-9.66 0-15.06-7.92-15.06-16.98 0-9 5.4-16.92 15.06-16.92a13.224 13.224 0 0 1 9.899 3.9V39.24a2.58 2.58 0 0 1 5.159-.06v37.618a2.436 2.436 0 0 1-2.579 2.52zM830.96 51.6c-6 0-9.9 4.68-9.9 11.82 0 7.2 3.9 11.88 9.9 11.88 6.06 0 9.9-4.68 9.9-11.88 0-7.14-3.84-11.82-9.9-11.82zm57.54 27.778a2.387 2.387 0 0 1-2.159-1.44l-9.84-20.34-6.9 8.64v10.62a2.58 2.58 0 0 1-5.159 0V39.18a2.58 2.58 0 0 1 5.159 0v18.84l16.38-20.34a2.292 2.292 0 0 1 1.859-1.02 2.72 2.72 0 0 1 2.761 2.58 2.476 2.476 0 0 1-.66 1.62l-9.84 12.3 10.8 22.5a2.372 2.372 0 0 1 .3 1.2 2.651 2.651 0 0 1-2.7 2.52z"/><use xlink:href="#b" x="400.254"/><path d="M932.418 79.318a2.436 2.436 0 0 1-2.58-2.52 14.518 14.518 0 0 1-9.899 3.6c-9.66 0-15.06-7.92-15.06-16.98 0-9 5.4-16.92 15.06-16.92a13.224 13.224 0 0 1 9.899 3.9V39.24a2.58 2.58 0 0 1 5.159-.06v37.618a2.436 2.436 0 0 1-2.579 2.52zM919.94 51.6c-6 0-9.9 4.68-9.9 11.82 0 7.2 3.9 11.88 9.9 11.88 6.06 0 9.9-4.68 9.9-11.88 0-7.14-3.84-11.82-9.9-11.82z"/><use xlink:href="#c" x="435.114"/><use xlink:href="#d" /><path d="M60.152 141.598c-3.3 0-8.82-1.02-11.64-4.5a2.655 2.655 0 0 1 2.16-4.26 2.464 2.464 0 0 1 1.86 1.02c1.86 2.04 4.92 2.64 7.62 2.64 5.4 0 7.14-1.86 7.14-4.56 0-7.68-18.3-2.94-18.3-15.3 0-6.54 6.12-8.94 11.82-8.94 3.24 0 10.86 1.62 10.86 4.98a2.694 2.694 0 0 1-2.52 2.7 3.612 3.612 0 0 1-1.98-.78c-1.62-1.38-3.96-1.8-6.36-1.8-4.98 0-6.72 1.86-6.72 3.84 0 7.14 18.36 2.52 18.36 15.3 0 7.08-5.94 9.66-12.3 9.66z"/><use xlink:href="#e" /><path d="M152.6 141.598c-13.2 0-17.46-11.1-17.46-22.38 0-11.58 4.56-22.44 17.46-22.44 5.46 0 10.02 1.92 13.32 6.54a2.558 2.558 0 0 1 .54 1.5 2.873 2.873 0 0 1-2.88 2.58c-1.08 0-1.2-.48-2.16-1.56-1.92-2.34-4.5-3.9-8.82-3.9-9.24 0-12.3 7.86-12.3 17.28 0 8.22 2.22 17.28 12.3 17.28 7.32 0 11.7-5.22 12.12-13.86h-5.4a2.501 2.501 0 0 1-2.64-2.58 2.471 2.471 0 0 1 2.52-2.58h8.22a2.52 2.52 0 0 1 2.64 2.64c-.24 11.22-4.74 21.48-17.46 21.48zm35.52-28.798a8.644 8.644 0 0 0-8.52 8.58V138a2.501 2.501 0 0 1-2.64 2.58 2.456 2.456 0 0 1-2.52-2.52V111.3a2.541 2.541 0 0 1 2.52-2.58 2.463 2.463 0 0 1 2.58 2.04 13.874 13.874 0 0 1 8.58-3.06 2.552 2.552 0 1 1 0 5.1z"/><use xlink:href="#f" /><use xlink:href="#e" x="134.696"/><path d="M268.696 140.578h-1.02c-5.7 0-7.86-3-7.86-7.92v-18.84h-1.8a2.55 2.55 0 1 1-.06-5.1h1.8v-8.34a2.436 2.436 0 0 1 2.58-2.52 2.389 2.389 0 0 1 2.52 2.52v8.34h3.84a2.488 2.488 0 0 1 2.52 2.52 2.441 2.441 0 0 1-2.52 2.58h-3.84v19.38c0 1.68.6 2.28 2.28 2.28h1.5a2.475 2.475 0 0 1 2.58 2.52 2.441 2.441 0 0 1-2.52 2.58zm38.7 0h-18.24a2.601 2.601 0 0 1-2.64-2.52V100.44a2.58 2.58 0 0 1 5.16-.06v35.1h15.72a2.55 2.55 0 0 1 0 5.1z"/><use xlink:href="#Z" x="234.522" y="61.2"/><path d="M371.233 140.578a2.424 2.424 0 0 1-2.52-2.52v-16.68a8.55 8.55 0 1 0-17.099 0v16.62a2.55 2.55 0 0 1-2.64 2.64 2.472 2.472 0 0 1-2.52-2.58v-26.82a2.387 2.387 0 0 1 2.52-2.52 2.509 2.509 0 0 1 2.58 1.98 13.703 13.703 0 0 1 22.259 10.68v16.62a2.454 2.454 0 0 1-2.58 2.58zm21.84 13.68c-3.66 0-12.72-1.32-12.72-4.92a2.794 2.794 0 0 1 2.58-2.7c1.38 0 .18.18 3.36 1.38a18.748 18.748 0 0 0 6.78 1.14c6.66 0 9.9-3.18 9.9-9.48v-2.7a14.039 14.039 0 0 1-9.9 3.6c-9.48 0-15.06-6.72-15.06-15.96 0-9 5.4-16.92 15.06-16.92 4.2 0 7.44 1.26 9.9 3.84v-.24a2.553 2.553 0 0 1 2.58-2.58 2.519 2.519 0 0 1 2.58 2.58v28.38c0 9.54-5.7 14.58-15.06 14.58zm0-41.458c-6 0-9.9 4.68-9.9 11.82 0 6.84 3.6 10.86 9.9 10.86s9.9-4.02 9.9-10.86c0-7.14-3.84-11.82-9.9-11.82zm39.54 10.8h-17.16a2.55 2.55 0 1 1 0-5.1h17.16a2.55 2.55 0 0 1 0 5.1zm17.4 16.98h-1.02c-5.7 0-7.86-3-7.86-7.92v-18.84h-1.8a2.55 2.55 0 0 1-.06-5.1h1.8v-8.34a2.436 2.436 0 0 1 2.58-2.52 2.389 2.389 0 0 1 2.52 2.52v8.34h3.84a2.488 2.488 0 0 1 2.52 2.52 2.441 2.441 0 0 1-2.52 2.58h-3.84v19.38c0 1.68.6 2.28 2.28 2.28h1.5a2.475 2.475 0 0 1 2.58 2.52 2.441 2.441 0 0 1-2.52 2.58z"/><use xlink:href="#f" x="265.073"/><path d="M501.97 112.8a8.644 8.644 0 0 0-8.52 8.58v16.62a2.501 2.501 0 0 1-2.64 2.58 2.456 2.456 0 0 1-2.52-2.52V111.3a2.541 2.541 0 0 1 2.52-2.58 2.464 2.464 0 0 1 2.581 2.04 13.874 13.874 0 0 1 8.579-3.06 2.552 2.552 0 1 1 0 5.1z"/><use xlink:href="#g" /><use xlink:href="#d" x="528.278"/><path d="M603.2 140.578a2.423 2.423 0 0 1-2.52-2.52v-16.68a8.55 8.55 0 1 0-17.1 0v16.62a2.55 2.55 0 0 1-2.64 2.64 2.472 2.472 0 0 1-2.52-2.58v-26.82a2.387 2.387 0 0 1 2.52-2.52 2.509 2.509 0 0 1 2.58 1.98 13.702 13.702 0 0 1 22.259 10.68v16.62a2.454 2.454 0 0 1-2.58 2.58zm32.64-28.318l-10.92 26.28a2.737 2.737 0 0 1-2.58 2.04 2.904 2.904 0 0 1-2.58-2.04l-10.92-26.28a3.721 3.721 0 0 1-.18-1.08 2.588 2.588 0 0 1 2.64-2.46 2.457 2.457 0 0 1 2.28 1.56l8.76 21 8.76-21a2.584 2.584 0 0 1 4.98.84 2.975 2.975 0 0 1-.24 1.14zm29.76 14.998h-22.2c.84 5.64 4.44 9.24 9.72 9.24a9.007 9.007 0 0 0 7.14-3.12 2.483 2.483 0 0 1 1.859-.96 2.8 2.8 0 0 1 2.7 2.64c0 .72-.18 1.26-1.44 2.52a14.618 14.618 0 0 1-10.259 4.02c-9.66 0-15.06-7.98-15.06-16.98 0-8.94 5.4-16.92 15.06-16.92 9.78 0 15 7.98 15 16.92a2.558 2.558 0 0 1-2.52 2.64zM653.1 112.8c-5.64 0-8.94 4.14-9.72 9.3h19.438c-.84-5.76-4.44-9.3-9.72-9.3zm29.1 28.798c-3.3 0-8.82-1.02-11.64-4.5a2.655 2.655 0 0 1 2.16-4.26 2.463 2.463 0 0 1 1.859 1.02c1.86 2.04 4.92 2.64 7.62 2.64 5.4 0 7.14-1.86 7.14-4.56 0-7.68-18.3-2.94-18.3-15.3 0-6.54 6.12-8.94 11.82-8.94 3.24 0 10.86 1.62 10.86 4.98a2.694 2.694 0 0 1-2.52 2.7 3.612 3.612 0 0 1-1.98-.78c-1.62-1.38-3.96-1.8-6.36-1.8-4.98 0-6.72 1.86-6.72 3.84 0 7.14 18.36 2.52 18.36 15.3 0 7.08-5.94 9.66-12.3 9.66zm26.22-1.02h-1.02c-5.7 0-7.86-3-7.86-7.92v-18.84h-1.8a2.55 2.55 0 0 1-.061-5.1h1.8v-8.34a2.436 2.436 0 0 1 2.579-2.52 2.39 2.39 0 0 1 2.521 2.52v8.34h3.84a2.487 2.487 0 0 1 2.52 2.52 2.441 2.441 0 0 1-2.52 2.58h-3.84v19.38c0 1.68.6 2.28 2.28 2.28h1.5a2.475 2.475 0 0 1 2.58 2.52 2.441 2.441 0 0 1-2.52 2.58z"/><use xlink:href="#g" x="208.258"/><path d="M786.488 127.258h-22.2c.84 5.64 4.44 9.24 9.72 9.24a9.007 9.007 0 0 0 7.14-3.12 2.483 2.483 0 0 1 1.859-.96 2.8 2.8 0 0 1 2.7 2.64c0 .72-.18 1.26-1.44 2.52a14.618 14.618 0 0 1-10.259 4.02c-9.66 0-15.06-7.98-15.06-16.98 0-8.94 5.4-16.92 15.06-16.92 9.78 0 15 7.98 15 16.92a2.558 2.558 0 0 1-2.52 2.64zm-12.48-14.46c-5.64 0-8.94 4.14-9.72 9.3h19.438c-.84-5.76-4.44-9.3-9.72-9.3zm43.86 27.78a2.424 2.424 0 0 1-2.521-2.52v-16.68a8.55 8.55 0 1 0-17.1 0v16.62a2.55 2.55 0 0 1-2.64 2.64 2.472 2.472 0 0 1-2.52-2.58v-26.82a2.387 2.387 0 0 1 2.52-2.52 2.509 2.509 0 0 1 2.58 1.98 13.702 13.702 0 0 1 22.259 10.68v16.62a2.453 2.453 0 0 1-2.579 2.58zm18.3 0h-1.02c-5.7 0-7.86-3-7.86-7.92v-18.84h-1.8a2.55 2.55 0 0 1-.061-5.1h1.8v-8.34a2.436 2.436 0 0 1 2.579-2.52 2.39 2.39 0 0 1 2.52 2.52v8.34h3.84a2.487 2.487 0 0 1 2.52 2.52 2.441 2.441 0 0 1-2.52 2.58h-3.84v19.38c0 1.68.6 2.28 2.28 2.28h1.5a2.475 2.475 0 0 1 2.58 2.52 2.441 2.441 0 0 1-2.52 2.58z"/></g></svg>