<?xml version="1.0" encoding="utf-8"?>
<!-- Generator: Adobe Illustrator 24.3.0, SVG Export Plug-In . SVG Version: 6.00 Build 0)  -->
<svg version="1.1" id="Layer_1" xmlns:v="https://vecta.io/nano"
	 xmlns="http://www.w3.org/2000/svg" xmlns:xlink="http://www.w3.org/1999/xlink" x="0px" y="0px" viewBox="0 0 1080 1080"
	 style="enable-background:new 0 0 1080 1080;" xml:space="preserve">
<style type="text/css">
	.st0{fill:url(#SVGID_1_);}
	.st1{fill:#FFF194;}
	.st2{fill:url(#SVGID_2_);}
	.st3{fill:none;stroke:#FFF194;stroke-width:2;stroke-miterlimit:10;stroke-dasharray:2,6;}
	.st4{fill:#FF5757;}
	.st5{fill:none;stroke:#FFF194;stroke-width:2;stroke-miterlimit:10;}
	.st6{fill:url(#SVGID_3_);}
	.st7{fill:#FFFFFF;}
	.st8{opacity:0.5;fill:#FFFFFF;enable-background:new    ;}
	.st9{fill:none;stroke:#FFF194;stroke-width:1.8835;stroke-miterlimit:10;}
	.st10{fill:none;stroke:#FFF194;stroke-width:1.8835;}
	.st11{fill:none;stroke:#FF5757;stroke-width:1.8835;stroke-miterlimit:10;}
	.st12{fill:none;stroke:#FFF194;stroke-width:1.8835;stroke-miterlimit:4;}
	.st13{opacity:0.5;}
	.st14{opacity:0.8;}
	.st15{opacity:0.7;}
</style>
<linearGradient id="SVGID_1_" gradientUnits="userSpaceOnUse" x1="11.7157" y1="11.7157" x2="1068.2843" y2="1068.2843" gradientTransform="matrix(1 0 0 -1 0 1080)">
	<stop  offset="0" style="stop-color:#0F2027"/>
	<stop  offset="0.5" style="stop-color:#203A43"/>
	<stop  offset="0.807" style="stop-color:#294C5B"/>
	<stop  offset="1" style="stop-color:#2C5364"/>
</linearGradient>
<path class="st0" d="M40,0h1000c22.1,0,40,17.9,40,40v1000c0,22.1-17.9,40-40,40H40c-22.1,0-40-17.9-40-40V40C0,17.9,17.9,0,40,0z"
	/>
<path class="st1" d="M1040.7,745.8h-46.6c-2.9,0-5.3,2.4-5.3,5.3l0,0v18.3c0,0.4,0.3,0.7,0.7,0.7h0h4.9c0-3.5,2.9-6.4,6.4-6.4
	s6.4,2.9,6.4,6.4h19c0.1-3.5,3.1-6.3,6.6-6.2c3.4,0.1,6.1,2.8,6.2,6.2h6.3c0.4,0,0.7-0.3,0.7-0.7v-18.3
	C1046,748.2,1043.6,745.8,1040.7,745.8L1040.7,745.8z M1006.4,759.6h-12.8v-9.4h12.8V759.6z M1024.2,759.6h-12.8v-9.4h12.8V759.6z
	 M1041.2,759.6h-12.8v-9.4h12.8V759.6z M1000.8,766.1c-2.2,0-4.1,1.8-4.1,4c0,2.2,1.8,4.1,4,4.1c2.2,0,4.1-1.8,4.1-4c0,0,0,0,0,0
	c0,0,0,0,0,0C1004.8,767.9,1003,766.1,1000.8,766.1L1000.8,766.1z M1032.6,766.1c-2.2,0-4.1,1.8-4.1,4.1s1.8,4.1,4.1,4.1
	c2.2,0,4.1-1.8,4.1-4.1c0,0,0,0,0,0v0C1036.6,767.9,1034.8,766.1,1032.6,766.1L1032.6,766.1z"/>
<linearGradient id="SVGID_2_" gradientUnits="userSpaceOnUse" x1="727.85" y1="263.276" x2="727.85" y2="102.93" gradientTransform="matrix(1 0 0 -1 0 1080)">
	<stop  offset="0" style="stop-color:#FF3333"/>
	<stop  offset="0.292" style="stop-color:#FF4747"/>
	<stop  offset="0.732" style="stop-color:#FF6060"/>
	<stop  offset="1" style="stop-color:#FF6969"/>
</linearGradient>
<path class="st2" d="M833.9,816.7v114l-212.1-114v114l-212.1-114v160.3H1046v-46.4L833.9,816.7L833.9,816.7z"/>
<path class="st3" d="M410.7,760v217.1 M834.9,760v217.1"/>
<path class="st4" d="M345.3,869.3c-0.8,0-1.1-0.5-0.6-1.2l14.9-20.1c0.5-0.6,0.8-0.5,0.6,0.3l-2.2,12.9c-0.1,0.6,0.3,1.3,0.9,1.4
	c0.1,0,0.2,0,0.3,0l8.4,0c0.8,0,1.1,0.5,0.6,1.2l-15.7,20.7c-0.5,0.6-0.7,0.5-0.5-0.2l3.5-13.5c0.2-0.6-0.1-1.2-0.7-1.3
	c-0.1,0-0.3-0.1-0.4-0.1L345.3,869.3z"/>
<path class="st3" d="M622.8,760v217.1"/>
<g>
	<ellipse class="st1" cx="622.8" cy="760" rx="4.8" ry="4.6"/>
	<ellipse class="st1" cx="834.9" cy="760" rx="4.8" ry="4.6"/>
</g>
<path class="st5" d="M409.7,760h559.1"/>
<path class="st1" d="M966.7,767l12.1-7l-12.1-7V767z"/>
<path class="st5" d="M356.5,832.3v-67"/>
<path class="st1" d="M363.5,767.4l-7-12.1l-7,12.1H363.5L363.5,767.4z"/>
<path class="st5" d="M356.5,977.1v-77"/>
<ellipse class="st1" cx="410.7" cy="760" rx="4.8" ry="4.6"/>
<linearGradient id="SVGID_3_" gradientUnits="userSpaceOnUse" x1="183.1035" y1="298.4675" x2="272.9485" y2="208.6225" gradientTransform="matrix(1 0 0 -1 0 1080)">
	<stop  offset="0" style="stop-color:#FF3333"/>
	<stop  offset="0.292" style="stop-color:#FF4747"/>
	<stop  offset="0.732" style="stop-color:#FF6060"/>
	<stop  offset="1" style="stop-color:#FF6969"/>
</linearGradient>
<path class="st6" d="M158.1,806.5H298v39.8H158.1V806.5z"/>
<g>
	<path class="st1" d="M55.5,794c-0.4,0-0.8-0.3-1-0.6l-2.4-5.8H38.4l-2.4,5.8c-0.2,0.5-0.9,0.8-1.4,0.6c-0.4-0.2-0.6-0.5-0.6-0.9
		c0-0.2,0-0.3,0.1-0.5l10.3-24.9c0.2-0.4,0.6-0.7,1.1-0.7c0.4,0,0.8,0.3,0.9,0.7l10.3,24.9c0.1,0.2,0.1,0.3,0.1,0.5
		C56.6,793.5,56.1,794,55.5,794C55.5,794,55.5,794,55.5,794z M45.3,770.8l-6,14.5h12L45.3,770.8z M64.3,794h-1.2
		c-3,0-4.5-1.5-4.5-4.4V776h-1.9c-0.6,0-1.1-0.5-1-1.1c0-0.6,0.5-1,1-1h1.9V768c0-0.6,0.5-1.1,1.1-1.1c0,0,0,0,0,0
		c0.6,0,1,0.4,1.1,1c0,0,0,0,0,0.1v5.8h3.5c0.6,0,1.1,0.5,1,1.1c0,0.6-0.5,1-1,1h-3.5v13.6c0,1.9,0.5,2.3,2.3,2.3h1.2
		c0.6,0,1.1,0.5,1.1,1.1S64.9,794,64.3,794L64.3,794z M92.2,785H76.5c0.3,4.3,3.2,7.5,7.3,7.5c2.2,0.1,4.2-0.9,5.6-2.6
		c0.2-0.3,0.5-0.5,0.9-0.5c0.6,0,1.1,0.4,1.2,1c0,0.3,0,0.4-0.7,1.3c-1.8,2-4.3,3.1-7,3c-6.1,0-9.5-5-9.5-10.8
		c0-5.7,3.4-10.7,9.5-10.7s9.5,5.1,9.5,10.7C93.3,784.5,92.8,784.9,92.2,785L92.2,785z M83.8,775.3c-4.6,0-7,3.5-7.3,7.5h14.6
		C90.8,778.5,88,775.3,83.8,775.3z"/>
	<g>
		<path id="D" class="st1" d="M116.1,794L116.1,794c-1.8,0-3.4-1.2-3.8-3c-1.7,2.4-4.5,3.7-7.4,3.6c-6.2,0-9.5-5.1-9.5-10.8
			c0-5.7,3.4-10.7,9.5-10.7c2.9-0.1,5.7,1.2,7.4,3.6v-1.9c0-0.6,0.5-1.1,1.1-1.1c0,0,0,0,0,0c0.6,0,1,0.4,1.1,1c0,0,0,0,0,0.1v15.3
			c0,2.4,2.7,0.9,2.7,2.7C117.3,793.5,116.8,794,116.1,794C116.2,794,116.2,794,116.1,794L116.1,794z M105,775.3
			c-4.5,0-7.4,3.6-7.4,8.5s2.9,8.6,7.4,8.6c4.5,0,7.4-3.6,7.4-8.6S109.5,775.3,105,775.3z"/>
	</g>
	<g>
		<path id="E" class="st1" d="M134.7,791.7c-1.7,1.9-4.2,3-6.8,2.9c-6.1,0-9.5-5-9.5-10.8c0-5.7,3.4-10.7,9.5-10.7
			c2.6-0.1,5.1,1,6.8,2.9c0.2,0.2,0.3,0.5,0.3,0.7c0,0.6-0.5,1.1-1.1,1.1c-0.3,0-0.6-0.1-0.8-0.4c-1.3-1.5-3.2-2.3-5.2-2.2
			c-4.5,0-7.4,3.6-7.4,8.5s2.9,8.6,7.4,8.6c2,0.1,3.9-0.8,5.2-2.2c0.4-0.5,1.1-0.5,1.5-0.1c0.2,0.2,0.4,0.5,0.4,0.8
			C135,791.3,134.9,791.5,134.7,791.7L134.7,791.7z"/>
	</g>
	<g>
		<path id="F" class="st1" d="M154.3,794c-0.6,0-1.1-0.4-1.1-1c0,0,0,0,0,0v-11.1c0-3.6-2.9-6.5-6.5-6.5c-3.6,0-6.5,2.9-6.5,6.5
			v11.1c0,0.6-0.5,1.1-1.1,1.1c-0.6,0-1.1-0.5-1.1-1.1V768c0-0.6,0.5-1.1,1.1-1.1c0.6,0,1.1,0.5,1.1,1.1v8.1c1.6-1.9,4-3,6.5-2.9
			c4.8,0,8.6,3.9,8.7,8.7v11.1C155.3,793.5,154.9,794,154.3,794C154.3,794,154.3,794,154.3,794L154.3,794z"/>
	</g>
	<path class="st1" d="M173,794.7c-2.3,0-6.1-0.8-7.4-3c-0.1-0.2-0.2-0.4-0.2-0.6c-0.1-0.6,0.4-1.1,0.9-1.1c0.4,0,0.8,0.2,1,0.5
		c1.4,1.7,3.8,2,5.7,2c3.7,0,5.5-1.2,5.5-3.7c0-5.7-12.5-2.7-12.5-10.3c0-3.8,3.8-5.3,7.3-5.3c2,0,5,0.7,6.5,2.2
		c0.2,0.2,0.3,0.4,0.3,0.7c0,0.6-0.6,1.1-1.2,1.1c-0.3,0-0.5-0.1-0.7-0.3c-1.4-1.1-3.2-1.7-5-1.6c-3.3,0-5.1,1.3-5.1,3.2
		c0,5.3,12.5,2.5,12.5,10.3C180.7,793.2,176.9,794.7,173,794.7L173,794.7z"/>
	<g>
		<path id="G" class="st1" d="M190.1,794H189c-3,0-4.5-1.5-4.5-4.4V776h-1.9c-0.6,0-1.1-0.5-1-1.1c0-0.6,0.5-1,1-1h1.9V768
			c0-0.6,0.5-1.1,1.1-1.1c0,0,0,0,0,0c0.6,0,1,0.4,1.1,1c0,0,0,0,0,0.1v5.8h3.5c0.6,0,1.1,0.5,1,1.1c0,0.6-0.5,1-1,1h-3.5v13.6
			c0,1.9,0.5,2.3,2.3,2.3h1.2c0.6,0,1.1,0.5,1.1,1.1S190.7,794,190.1,794L190.1,794z"/>
	</g>
	<g>
		<path id="H" class="st1" d="M201.8,794.6c-6.1,0-9.5-5-9.5-10.8c0-5.7,3.4-10.7,9.5-10.7s9.5,5,9.5,10.7
			C211.3,789.6,207.9,794.6,201.8,794.6z M201.8,775.3c-4.5,0-7.4,3.6-7.4,8.5s2.9,8.6,7.4,8.6c4.5,0,7.4-3.6,7.4-8.6
			S206.3,775.3,201.8,775.3z"/>
	</g>
	<path class="st1" d="M223.9,794.6c-2.9,0.1-5.7-1.2-7.4-3.6v9.8c0,0.6-0.5,1.1-1.1,1.1c-0.6,0-1.1-0.5-1.1-1.1v-26
		c0-0.6,0.5-1.1,1.1-1.1c0.6,0,1.1,0.5,1.1,1.1l0,0v1.9c1.7-2.3,4.5-3.7,7.4-3.6c6.1,0,9.5,5,9.5,10.7
		C233.4,789.6,230,794.6,223.9,794.6z M223.9,775.3c-4.5,0-7.4,3.6-7.4,8.5s2.9,8.6,7.4,8.6s7.4-3.6,7.4-8.6
		S228.4,775.3,223.9,775.3z M237.9,797.4c-0.2,0.1-0.4,0.2-0.6,0.2c-0.6,0-1-0.5-1-1.1c0,0,0,0,0,0c0-1.1,1.6-1.2,1.9-2.4
		c-1.2-0.1-2.1-1.1-2-2.3c0.1-1.1,1-2,2.2-2c1.9,0,2.3,1.9,2.3,3.1C240.7,794.6,239.6,796.4,237.9,797.4L237.9,797.4z"/>
	<g>
		<path id="I" class="st1" d="M42.9,836h-1.2c-3,0-4.5-1.5-4.5-4.4V818h-1.9c-0.6,0-1.1-0.5-1-1.1c0-0.6,0.5-1,1-1h1.9V810
			c0-0.6,0.5-1.1,1.1-1.1c0,0,0,0,0,0c0.6,0,1,0.4,1.1,1c0,0,0,0,0,0.1v5.8h3.5c0.6,0,1.1,0.5,1,1.1c0,0.6-0.5,1-1,1h-3.5v13.6
			c0,1.9,0.5,2.3,2.3,2.3h1.2c0.6,0,1.1,0.5,1.1,1.1S43.5,836,42.9,836L42.9,836z"/>
	</g>
	<path class="st1" d="M62.2,836c-0.6,0-1.1-0.4-1.1-1c0,0,0,0,0,0v-11.1c0-3.6-2.9-6.5-6.5-6.5c-3.6,0-6.5,2.9-6.5,6.5v11.1
		c0,0.6-0.5,1.1-1.1,1c-0.6,0-1-0.5-1-1V810c0-0.6,0.5-1.1,1.1-1c0.6,0,1,0.5,1,1v8.1c1.6-1.9,4-3,6.5-2.9c4.8,0,8.6,3.9,8.7,8.7
		v11.1C63.3,835.5,62.8,836,62.2,836C62.2,836,62.2,836,62.2,836z M83.9,827H68.2c0.3,4.3,3.2,7.5,7.3,7.5c2.2,0.1,4.2-0.9,5.6-2.6
		c0.2-0.3,0.5-0.5,0.9-0.5c0.6,0,1.1,0.4,1.2,1c0,0.3,0,0.4-0.7,1.3c-1.8,2-4.3,3.1-7,3c-6.1,0-9.5-5-9.5-10.8
		c0-5.7,3.4-10.7,9.5-10.7s9.5,5.1,9.5,10.7C85,826.5,84.5,826.9,83.9,827L83.9,827z M75.5,817.3c-4.6,0-7,3.5-7.3,7.5h14.6
		C82.5,820.5,79.6,817.3,75.5,817.3L75.5,817.3z M105.3,836.6c-2.9,0.1-5.7-1.2-7.4-3.6v1.9c0,0.6-0.5,1.1-1.1,1c-0.6,0-1-0.5-1-1
		V810c0-0.6,0.5-1.1,1.1-1c0.6,0,1,0.5,1,1v8.7c1.7-2.3,4.5-3.7,7.4-3.6c6.1,0,9.5,5,9.5,10.7C114.9,831.6,111.4,836.6,105.3,836.6
		L105.3,836.6z M105.3,817.3c-4.5,0-7.4,3.6-7.4,8.5s2.8,8.6,7.4,8.6s7.4-3.6,7.4-8.6S109.8,817.3,105.3,817.3z"/>
	<g>
		<path id="J" class="st1" d="M133.8,836c-0.6,0-1.1-0.4-1.1-1c0,0,0,0,0,0v-1.2c-1.6,1.9-4,3-6.5,2.9c-4.8-0.1-8.6-3.9-8.7-8.7
			v-11.1c0-0.6,0.5-1.1,1.1-1c0.6,0,1,0.5,1,1V828c0,3.6,2.9,6.5,6.5,6.5c3.6,0,6.5-2.9,6.5-6.5l0,0v-11.1c0-0.6,0.5-1.1,1.1-1.1
			c0.6,0,1.1,0.5,1.1,1.1l0,0v18C134.9,835.5,134.4,836,133.8,836C133.8,836,133.8,836,133.8,836z"/>
	</g>
	<g>
		<path id="K" class="st1" d="M145.1,836.7c-2.3,0-6.1-0.8-7.4-3c-0.1-0.2-0.2-0.4-0.2-0.6c-0.1-0.6,0.4-1.1,0.9-1.1
			c0.4,0,0.8,0.2,1,0.5c1.4,1.7,3.8,2,5.7,2c3.7,0,5.5-1.2,5.5-3.7c0-5.7-12.5-2.7-12.5-10.3c0-3.8,3.8-5.3,7.3-5.3
			c2,0,5,0.7,6.5,2.2c0.2,0.2,0.3,0.4,0.3,0.7c0,0.6-0.6,1.1-1.2,1.1c-0.3,0-0.5-0.1-0.7-0.3c-1.4-1.1-3.2-1.7-5-1.6
			c-3.3,0-5.1,1.3-5.1,3.2c0,5.3,12.5,2.5,12.5,10.3C152.8,835.2,149,836.7,145.1,836.7L145.1,836.7z"/>
	</g>
</g>
<g>
	<g>
		<path id="E_1_" class="st7" d="M178.5,833.7c-1.7,1.9-4.2,3-6.8,2.9c-6.1,0-9.5-5-9.5-10.8c0-5.7,3.4-10.7,9.5-10.7
			c2.6-0.1,5.1,1,6.8,2.9c0.2,0.2,0.3,0.5,0.3,0.7c0,0.6-0.5,1.1-1.1,1.1c-0.3,0-0.6-0.1-0.8-0.4c-1.3-1.5-3.2-2.3-5.2-2.2
			c-4.5,0-7.4,3.6-7.4,8.5s2.9,8.6,7.4,8.6c2,0.1,3.9-0.8,5.2-2.2c0.4-0.5,1.1-0.5,1.5-0.1c0.2,0.2,0.4,0.5,0.4,0.8
			C178.8,833.3,178.7,833.5,178.5,833.7L178.5,833.7z"/>
	</g>
	<path class="st7" d="M198.1,836c-0.6,0-1.1-0.4-1.1-1c0,0,0,0,0,0v-11.1c0-3.6-2.9-6.5-6.5-6.5c-3.6,0-6.5,2.9-6.5,6.5v11.1
		c0,0.6-0.5,1.1-1.1,1c-0.6,0-1-0.5-1-1V810c0-0.6,0.5-1.1,1.1-1c0.6,0,1,0.5,1,1v8.1c1.6-1.9,4-3,6.5-2.9c4.8,0,8.6,3.9,8.7,8.7
		v11.1C199.2,835.5,198.7,836,198.1,836C198.1,836,198.1,836,198.1,836L198.1,836z"/>
	<g>
		<path id="D_1_" class="st7" d="M222.6,836L222.6,836c-1.8,0-3.4-1.2-3.8-3c-1.7,2.4-4.5,3.7-7.4,3.6c-6.2,0-9.5-5.1-9.5-10.8
			c0-5.7,3.4-10.7,9.5-10.7c2.9-0.1,5.7,1.2,7.4,3.6v-1.9c0-0.6,0.5-1.1,1.1-1.1c0,0,0,0,0,0c0.6,0,1,0.4,1.1,1c0,0,0,0,0,0.1v15.3
			c0,2.4,2.7,0.9,2.7,2.7C223.7,835.5,223.2,836,222.6,836C222.6,836,222.6,836,222.6,836L222.6,836z M211.4,817.3
			c-4.5,0-7.4,3.6-7.4,8.5s2.9,8.6,7.4,8.6c4.5,0,7.4-3.6,7.4-8.6S215.9,817.3,211.4,817.3z"/>
	</g>
	<path class="st7" d="M234.3,817.7c-3.6,0-6.5,2.9-6.5,6.5c0,0,0,0,0,0v10.8c0,0.6-0.5,1.1-1.1,1.1c-0.6,0-1.1-0.5-1.1-1.1v-18
		c0-0.6,0.5-1.1,1.1-1.1c0.6,0,1.1,0.5,1.1,1.1l0,0v1.6c1.6-1.9,4-2.9,6.5-2.9c0.6,0,1.1,0.5,1.1,1
		C235.4,817.1,234.9,817.6,234.3,817.7C234.3,817.7,234.3,817.7,234.3,817.7L234.3,817.7z M245.3,844.6c-3.2,0-7.8-1.2-7.8-2.6
		c0-0.6,0.5-1.2,1.1-1.2c0.7,0.2,1.4,0.6,2,0.9c1.5,0.5,3.1,0.7,4.7,0.7c4.9,0,7.4-2.4,7.4-7.1v-2.7c-1.8,2.2-4.5,3.4-7.4,3.2
		c-6,0-9.5-4.3-9.5-10.1c0-5.7,3.4-10.7,9.5-10.7c2.9-0.1,5.7,1.2,7.4,3.6v-1.8c0-0.6,0.5-1.1,1.1-1c0.6,0,1,0.5,1,1v18.5
		C254.8,841.4,251.2,844.6,245.3,844.6L245.3,844.6z M245.3,817.3c-4.5,0-7.4,3.6-7.4,8.5c0,4.9,2.7,7.9,7.4,7.9s7.4-3,7.4-7.9
		C252.6,820.9,249.8,817.3,245.3,817.3z M275.8,827h-15.8c0.3,4.3,3.2,7.5,7.3,7.5c2.2,0.1,4.2-0.9,5.6-2.6c0.2-0.3,0.5-0.5,0.9-0.5
		c0.6,0,1.1,0.4,1.2,1c0,0.3,0,0.4-0.7,1.3c-1.8,2-4.3,3.1-7,3c-6.1,0-9.5-5-9.5-10.8c0-5.7,3.4-10.7,9.5-10.7s9.5,5.1,9.5,10.7
		C276.9,826.5,276.4,826.9,275.8,827L275.8,827z M267.4,817.3c-4.6,0-7,3.5-7.3,7.5h14.6C274.3,820.5,271.5,817.3,267.4,817.3
		L267.4,817.3z"/>
	<g>
		<path id="K_1_" class="st7" d="M286.2,836.7c-2.3,0-6.1-0.8-7.4-3c-0.1-0.2-0.2-0.4-0.2-0.6c-0.1-0.6,0.4-1.1,0.9-1.1
			c0.4,0,0.8,0.2,1,0.5c1.4,1.7,3.8,2,5.7,2c3.7,0,5.5-1.2,5.5-3.7c0-5.7-12.5-2.7-12.5-10.3c0-3.8,3.8-5.3,7.3-5.3
			c2,0,5,0.7,6.5,2.2c0.2,0.2,0.3,0.4,0.3,0.7c0,0.6-0.6,1.1-1.2,1.1c-0.3,0-0.5-0.1-0.7-0.3c-1.4-1.1-3.2-1.7-5-1.6
			c-3.3,0-5.1,1.3-5.1,3.2c0,5.3,12.5,2.5,12.5,10.3C294,835.2,290.2,836.7,286.2,836.7L286.2,836.7z"/>
	</g>
</g>
<g>
	<g>
		<path id="L" class="st1" d="M36.3,854.2c-1.2,0-2.2-1-2.2-2.2c0-1.2,1-2.2,2.2-2.2c1.2,0,2.2,1,2.2,2.2
			C38.5,853.2,37.6,854.1,36.3,854.2C36.4,854.2,36.3,854.2,36.3,854.2z M36.3,878c-0.6,0-1.1-0.4-1.1-1c0,0,0-0.1,0-0.1v-18
			c0-0.6,0.4-1.1,1-1.1c0,0,0,0,0.1,0c0.6,0,1,0.4,1.1,1c0,0,0,0,0,0.1v18C37.4,877.5,37,877.9,36.3,878C36.4,878,36.4,878,36.3,878
			z"/>
	</g>
	<g>
		<path id="M" class="st1" d="M48.2,878H47c-3,0-4.5-1.5-4.5-4.4V860h-1.9c-0.6,0-1.1-0.5-1-1.1c0-0.6,0.5-1,1-1h1.9V852
			c0-0.6,0.5-1.1,1.1-1.1c0,0,0,0,0,0c0.6,0,1,0.4,1.1,1c0,0,0,0,0,0.1v5.8h3.5c0.6,0,1.1,0.5,1,1.1c0,0.6-0.5,1-1,1h-3.5v13.6
			c0,1.9,0.5,2.3,2.3,2.3h1.2c0.6,0,1.1,0.5,1.1,1.1S48.8,878,48.2,878L48.2,878z"/>
	</g>
	<g>
		<path id="K_2_" class="st1" d="M57.6,878.7c-2.3,0-6.1-0.8-7.4-3c-0.1-0.2-0.2-0.4-0.2-0.6c-0.1-0.6,0.4-1.1,0.9-1.1
			c0.4,0,0.8,0.2,1,0.5c1.4,1.7,3.8,2,5.7,2c3.7,0,5.5-1.2,5.5-3.7c0-5.7-12.5-2.7-12.5-10.3c0-3.8,3.8-5.3,7.3-5.3
			c2,0,5,0.7,6.5,2.2c0.2,0.2,0.3,0.4,0.3,0.7c0,0.6-0.6,1.1-1.2,1.1c-0.3,0-0.5-0.1-0.7-0.3c-1.4-1.1-3.2-1.7-5-1.6
			c-3.3,0-5.1,1.3-5.1,3.2c0,5.3,12.5,2.5,12.5,10.3C65.3,877.2,61.5,878.7,57.6,878.7L57.6,878.7z"/>
	</g>
	<path class="st1" d="M91,875.7c-1.7,1.9-4.2,3-6.8,2.9c-6.1,0-9.5-5-9.5-10.8c0-5.7,3.4-10.7,9.5-10.7c2.6-0.1,5.1,1,6.8,2.9
		c0.2,0.2,0.3,0.5,0.3,0.7c0,0.6-0.5,1.1-1.1,1.1c-0.3,0-0.6-0.1-0.8-0.4c-1.3-1.5-3.2-2.3-5.2-2.2c-4.5,0-7.4,3.6-7.4,8.5
		s2.9,8.6,7.4,8.6c2,0.1,3.9-0.8,5.2-2.2c0.4-0.5,1.1-0.5,1.5-0.1c0.2,0.2,0.4,0.5,0.4,0.8C91.3,875.3,91.2,875.5,91,875.7L91,875.7
		z M114.2,878L114.2,878c-1.8,0-3.4-1.2-3.8-3c-1.7,2.4-4.5,3.7-7.4,3.6c-6.2,0-9.5-5.1-9.5-10.8c0-5.7,3.4-10.7,9.5-10.7
		c2.9-0.1,5.7,1.2,7.4,3.6v-1.9c0-0.6,0.5-1.1,1.1-1.1c0,0,0,0,0,0c0.6,0,1,0.4,1.1,1c0,0,0,0,0,0.1v15.3c0,2.4,2.7,0.9,2.7,2.7
		C115.3,877.5,114.8,878,114.2,878C114.2,878,114.2,878,114.2,878L114.2,878z M103,859.3c-4.5,0-7.4,3.6-7.4,8.5s2.9,8.6,7.4,8.6
		c4.5,0,7.4-3.6,7.4-8.6S107.5,859.3,103,859.3z"/>
	<g>
		<path id="N" class="st1" d="M126.8,878.6c-2.9,0.1-5.7-1.2-7.4-3.6v9.8c0,0.6-0.5,1.1-1,1.1c-0.6,0-1.1-0.5-1.1-1c0,0,0,0,0-0.1
			v-26c0-0.6,0.5-1.1,1.1-1c0.6,0,1,0.5,1,1v1.9c1.7-2.3,4.5-3.7,7.4-3.6c6.1,0,9.5,5,9.5,10.7C136.3,873.6,132.9,878.6,126.8,878.6
			z M126.8,859.3c-4.5,0-7.4,3.6-7.4,8.5s2.8,8.6,7.4,8.6s7.4-3.6,7.4-8.6S131.3,859.3,126.8,859.3z"/>
	</g>
	<g>
		<path id="D_2_" class="st1" d="M159.1,878L159.1,878c-1.8,0-3.4-1.2-3.8-3c-1.7,2.4-4.5,3.7-7.4,3.6c-6.2,0-9.5-5.1-9.5-10.8
			c0-5.7,3.4-10.7,9.5-10.7c2.9-0.1,5.7,1.2,7.4,3.6v-1.9c0-0.6,0.5-1.1,1.1-1.1c0,0,0,0,0,0c0.6,0,1,0.4,1.1,1c0,0,0,0,0,0.1v15.3
			c0,2.4,2.7,0.9,2.7,2.7C160.2,877.5,159.8,878,159.1,878C159.2,878,159.2,878,159.1,878L159.1,878z M148,859.3
			c-4.5,0-7.4,3.6-7.4,8.5s2.9,8.6,7.4,8.6c4.5,0,7.4-3.6,7.4-8.6S152.5,859.3,148,859.3z"/>
	</g>
	<g>
		<path id="E_2_" class="st1" d="M177.6,875.7c-1.7,1.9-4.2,3-6.8,2.9c-6.1,0-9.5-5-9.5-10.8c0-5.7,3.4-10.7,9.5-10.7
			c2.6-0.1,5.1,1,6.8,2.9c0.2,0.2,0.3,0.5,0.3,0.7c0,0.6-0.5,1.1-1.1,1.1c-0.3,0-0.6-0.1-0.8-0.4c-1.3-1.5-3.2-2.3-5.2-2.2
			c-4.5,0-7.4,3.6-7.4,8.5s2.9,8.6,7.4,8.6c2,0.1,3.9-0.8,5.2-2.2c0.4-0.5,1.1-0.5,1.5-0.1c0.2,0.2,0.4,0.5,0.4,0.8
			C177.9,875.3,177.8,875.5,177.6,875.7L177.6,875.7z"/>
	</g>
	<path class="st1" d="M182.1,854.2c-1.2,0-2.2-1-2.2-2.2c0-1.2,1-2.2,2.2-2.2c1.2,0,2.2,1,2.2,2.2c0,0,0,0,0,0
		C184.3,853.2,183.3,854.1,182.1,854.2C182.1,854.2,182.1,854.2,182.1,854.2z M182.1,878c-0.6,0-1.1-0.4-1.1-1c0,0,0-0.1,0-0.1v-18
		c0-0.6,0.5-1.1,1-1.1c0,0,0,0,0.1,0c0.6,0,1,0.4,1.1,1c0,0,0,0,0,0.1v18C183.2,877.5,182.7,877.9,182.1,878
		C182.1,878,182.1,878,182.1,878L182.1,878z M194,878h-1.2c-3,0-4.5-1.5-4.5-4.4V860h-1.9c-0.6,0-1.1-0.5-1-1.1c0-0.6,0.5-1,1-1h1.9
		V852c0-0.6,0.5-1.1,1.1-1.1c0,0,0,0,0,0c0.6,0,1,0.4,1.1,1c0,0,0,0,0,0.1v5.8h3.5c0.6,0,1.1,0.5,1,1.1c0,0.6-0.5,1-1,1h-3.5v13.6
		c0,1.9,0.5,2.3,2.3,2.3h1.2c0.6,0,1.1,0.5,1.1,1.1S194.6,878,194,878L194,878z"/>
	<g>
		<path id="D_3_" class="st1" d="M216.8,878L216.8,878c-1.8,0-3.4-1.2-3.8-3c-1.7,2.4-4.5,3.7-7.4,3.6c-6.2,0-9.5-5.1-9.5-10.8
			c0-5.7,3.4-10.7,9.5-10.7c2.9-0.1,5.7,1.2,7.4,3.6v-1.9c0-0.6,0.5-1.1,1.1-1.1c0,0,0,0,0,0c0.6,0,1,0.4,1.1,1c0,0,0,0,0,0.1v15.3
			c0,2.4,2.7,0.9,2.7,2.7C217.9,877.5,217.5,878,216.8,878C216.9,878,216.8,878,216.8,878L216.8,878z M205.6,859.3
			c-4.5,0-7.4,3.6-7.4,8.5s2.9,8.6,7.4,8.6c4.5,0,7.4-3.6,7.4-8.6S210.2,859.3,205.6,859.3z"/>
	</g>
	<path class="st1" d="M226.8,878h-1.2c-3,0-4.5-1.5-4.5-4.4V860h-1.9c-0.6,0-1.1-0.5-1-1.1c0-0.6,0.5-1,1-1h1.9V852
		c0-0.6,0.5-1.1,1.1-1.1c0,0,0,0,0,0c0.6,0,1,0.4,1.1,1c0,0,0,0,0,0.1v5.8h3.5c0.6,0,1.1,0.5,1,1.1c0,0.6-0.5,1-1,1h-3.5v13.6
		c0,1.9,0.5,2.3,2.3,2.3h1.2c0.6,0,1.1,0.5,1.1,1.1S227.4,878,226.8,878L226.8,878z"/>
	<g>
		<path id="O" class="st1" d="M238.5,878.6c-6.1,0-9.5-5-9.5-10.8c0-5.7,3.4-10.7,9.5-10.7s9.5,5,9.5,10.7
			C248,873.6,244.6,878.6,238.5,878.6z M238.5,859.3c-4.5,0-7.4,3.6-7.4,8.5s2.9,8.6,7.4,8.6c4.5,0,7.4-3.6,7.4-8.6
			S243,859.3,238.5,859.3z"/>
	</g>
	<g>
		<path id="P" class="st1" d="M259.7,859.7c-3.6,0-6.5,2.9-6.5,6.5c0,0,0,0,0,0v10.8c0,0.6-0.5,1.1-1.1,1c-0.6,0-1-0.5-1-1v-18
			c0-0.6,0.5-1.1,1.1-1c0.6,0,1,0.5,1,1v1.6c1.6-1.9,4-2.9,6.5-2.9c0.6,0,1.1,0.5,1.1,1C260.8,859.1,260.3,859.6,259.7,859.7
			C259.7,859.7,259.7,859.7,259.7,859.7L259.7,859.7z"/>
	</g>
	<g>
		<path id="K_3_" class="st1" d="M268.4,878.7c-2.3,0-6.1-0.8-7.4-3c-0.1-0.2-0.2-0.4-0.2-0.6c-0.1-0.6,0.4-1.1,0.9-1.1
			c0.4,0,0.8,0.2,1,0.5c1.4,1.7,3.8,2,5.7,2c3.7,0,5.5-1.2,5.5-3.7c0-5.7-12.5-2.7-12.5-10.3c0-3.8,3.8-5.3,7.3-5.3
			c2,0,5,0.7,6.5,2.2c0.2,0.2,0.3,0.4,0.3,0.7c0,0.6-0.6,1.1-1.2,1.1c-0.3,0-0.5-0.1-0.7-0.3c-1.4-1.1-3.2-1.7-5-1.6
			c-3.3,0-5.1,1.3-5.1,3.2c0,5.3,12.5,2.5,12.5,10.3C276.1,877.2,272.3,878.7,268.4,878.7L268.4,878.7z"/>
	</g>
	<path class="st1" d="M52.3,911H36.6c0.3,4.3,3.2,7.5,7.3,7.5c2.2,0.1,4.2-0.9,5.6-2.6c0.2-0.3,0.5-0.5,0.9-0.5c0.6,0,1.1,0.4,1.2,1
		c0,0.3,0,0.4-0.7,1.3c-1.8,2-4.3,3.1-7,3c-6.1,0-9.5-5-9.5-10.8c0-5.7,3.4-10.7,9.5-10.7s9.5,5.1,9.5,10.7
		C53.4,910.5,52.9,910.9,52.3,911L52.3,911z M43.9,901.3c-4.6,0-7,3.5-7.3,7.5h14.6C50.9,904.5,48,901.3,43.9,901.3L43.9,901.3z
		 M72.7,920c-0.6,0-1.1-0.4-1.1-1c0,0,0,0,0,0v-11.1c0-3.6-2.9-6.5-6.5-6.5c-3.6,0-6.5,2.9-6.5,6.5c0,0,0,0,0,0v11.1
		c0,0.6-0.5,1.1-1.1,1.1s-1.1-0.5-1.1-1.1v-18c0-0.6,0.5-1.1,1.1-1.1s1.1,0.5,1.1,1.1l0,0v1.2c3.2-3.6,8.6-3.9,12.2-0.8
		c1.9,1.6,2.9,4,2.9,6.5v11.1C73.7,919.5,73.3,920,72.7,920C72.7,920,72.7,920,72.7,920z"/>
	<g>
		<path id="O_1_" class="st1" d="M85.9,920.6c-6.1,0-9.5-5-9.5-10.8c0-5.7,3.4-10.7,9.5-10.7s9.5,5,9.5,10.7
			C95.5,915.6,92.1,920.6,85.9,920.6z M85.9,901.3c-4.5,0-7.4,3.6-7.4,8.5s2.9,8.6,7.4,8.6c4.5,0,7.4-3.6,7.4-8.6
			S90.5,901.3,85.9,901.3z"/>
	</g>
	<g>
		<path id="J_1_" class="st1" d="M114.4,920c-0.6,0-1.1-0.4-1.1-1c0,0,0,0,0,0v-1.2c-1.6,1.9-4,3-6.5,2.9c-4.8-0.1-8.6-3.9-8.7-8.7
			v-11.1c0-0.6,0.5-1.1,1.1-1c0.6,0,1,0.5,1,1V912c0,3.6,2.9,6.5,6.5,6.5c3.6,0,6.5-2.9,6.5-6.5l0,0v-11.1c0-0.6,0.5-1.1,1.1-1.1
			c0.6,0,1.1,0.5,1.1,1.1l0,0v18C115.5,919.5,115,920,114.4,920C114.4,920,114.4,920,114.4,920z"/>
	</g>
	<path class="st1" d="M128,928.6c-3.2,0-7.8-1.2-7.8-2.6c0-0.6,0.5-1.2,1.1-1.2c0.7,0.2,1.4,0.6,2,0.9c1.5,0.5,3.1,0.7,4.7,0.7
		c4.9,0,7.4-2.4,7.4-7.1v-2.7c-1.8,2.2-4.5,3.4-7.4,3.2c-6,0-9.5-4.3-9.5-10.1c0-5.7,3.4-10.7,9.5-10.7c2.9-0.1,5.7,1.2,7.4,3.6
		v-1.8c0-0.6,0.5-1.1,1.1-1.1c0.6,0,1.1,0.5,1.1,1.1l0,0v18.5C137.5,925.4,133.9,928.6,128,928.6L128,928.6z M128,901.3
		c-4.5,0-7.4,3.6-7.4,8.5c0,4.9,2.7,7.9,7.4,7.9s7.4-3,7.4-7.9C135.4,904.9,132.5,901.3,128,901.3z"/>
	<g>
		<path id="F_1_" class="st1" d="M157.7,920c-0.6,0-1.1-0.4-1.1-1c0,0,0,0,0,0v-11.1c0-3.6-2.9-6.5-6.5-6.5c-3.6,0-6.5,2.9-6.5,6.5
			v11.1c0,0.6-0.5,1.1-1.1,1.1c-0.6,0-1.1-0.5-1.1-1.1V894c0-0.6,0.5-1.1,1.1-1.1c0.6,0,1.1,0.5,1.1,1.1v8.1c1.6-1.9,4-3,6.5-2.9
			c4.8,0,8.6,3.9,8.7,8.7v11.1C158.8,919.5,158.3,920,157.7,920C157.7,920,157.7,920,157.7,920L157.7,920z"/>
	</g>
	<g>
		<path id="G_1_" class="st1" d="M177,920h-1.2c-3,0-4.5-1.5-4.5-4.4V902h-1.9c-0.6,0-1.1-0.5-1-1.1c0-0.6,0.5-1,1-1h1.9V894
			c0-0.6,0.5-1.1,1.1-1.1c0,0,0,0,0,0c0.6,0,1,0.4,1.1,1c0,0,0,0,0,0.1v5.8h3.5c0.6,0,1.1,0.5,1,1.1c0,0.6-0.5,1-1,1h-3.5v13.6
			c0,1.9,0.5,2.3,2.3,2.3h1.2c0.6,0,1.1,0.5,1.1,1.1S177.6,920,177,920L177,920z"/>
	</g>
	<g>
		<path id="H_1_" class="st1" d="M188.7,920.6c-6.1,0-9.5-5-9.5-10.8c0-5.7,3.4-10.7,9.5-10.7s9.5,5,9.5,10.7
			C198.2,915.6,194.8,920.6,188.7,920.6z M188.7,901.3c-4.5,0-7.4,3.6-7.4,8.5s2.9,8.6,7.4,8.6c4.5,0,7.4-3.6,7.4-8.6
			S193.2,901.3,188.7,901.3z"/>
	</g>
	<path class="st1" d="M226.2,920c-0.6,0-1.1-0.4-1.1-1c0,0,0,0,0,0V917c-1.7,2.4-4.5,3.7-7.4,3.6c-6.1,0-9.5-5-9.5-10.8
		c0-5.7,3.4-10.7,9.5-10.7c2.9-0.1,5.7,1.2,7.4,3.6V894c0-0.6,0.5-1.1,1.1-1.1c0.6,0,1.1,0.5,1.1,1.1l0,0v24.9
		C227.2,919.5,226.8,920,226.2,920C226.2,920,226.2,920,226.2,920L226.2,920z M217.7,901.3c-4.5,0-7.4,3.6-7.4,8.5s2.9,8.6,7.4,8.6
		c4.5,0,7.4-3.6,7.4-8.6S222.2,901.3,217.7,901.3z"/>
	<g>
		<path id="P_1_" class="st1" d="M239.8,901.7c-3.6,0-6.5,2.9-6.5,6.5c0,0,0,0,0,0v10.8c0,0.6-0.5,1.1-1.1,1c-0.6,0-1-0.5-1-1v-18
			c0-0.6,0.5-1.1,1.1-1c0.6,0,1,0.5,1,1v1.6c1.6-1.9,4-2.9,6.5-2.9c0.6,0,1.1,0.5,1.1,1C240.9,901.1,240.4,901.6,239.8,901.7
			C239.8,901.7,239.8,901.7,239.8,901.7L239.8,901.7z"/>
	</g>
	<g>
		<path id="L_1_" class="st1" d="M243.2,896.2c-1.2,0-2.2-1-2.2-2.2c0-1.2,1-2.2,2.2-2.2c1.2,0,2.2,1,2.2,2.2
			C245.4,895.2,244.5,896.1,243.2,896.2C243.3,896.2,243.2,896.2,243.2,896.2z M243.2,920c-0.6,0-1.1-0.4-1.1-1c0,0,0-0.1,0-0.1v-18
			c0-0.6,0.4-1.1,1-1.1c0,0,0,0,0.1,0c0.6,0,1,0.4,1.1,1c0,0,0,0,0,0.1v18C244.3,919.5,243.9,919.9,243.2,920
			C243.3,920,243.3,920,243.2,920z"/>
	</g>
	<path class="st1" d="M263.7,901.3l-7.5,17.8c-0.1,0.5-0.6,0.8-1.1,0.9c-0.5,0-0.9-0.4-1.1-0.9l-7.5-17.8c-0.1-0.2-0.1-0.3-0.1-0.5
		c0-0.6,0.5-1,1.1-1c0,0,0,0,0,0c0.4,0,0.8,0.2,0.9,0.6l6.6,15.6l6.6-15.6c0.2-0.6,0.9-0.8,1.4-0.6c0.4,0.2,0.7,0.5,0.7,0.9
		C263.8,901,263.8,901.1,263.7,901.3L263.7,901.3z"/>
	<g>
		<path id="Q" class="st1" d="M283.1,911h-15.8c0.3,4.3,3.2,7.5,7.3,7.5c2.2,0.1,4.2-0.9,5.6-2.6c0.2-0.3,0.5-0.5,0.9-0.5
			c0.6,0,1.1,0.4,1.2,1c0,0.3,0,0.4-0.7,1.3c-1.8,2-4.3,3.1-7,3c-6.1,0-9.5-5-9.5-10.8c0-5.7,3.4-10.7,9.5-10.7s9.5,5.1,9.5,10.7
			C284.1,910.5,283.7,910.9,283.1,911L283.1,911z M274.6,901.3c-4.6,0-7,3.5-7.3,7.5h14.6C281.6,904.5,278.8,901.3,274.6,901.3
			L274.6,901.3z"/>
	</g>
	<g>
		<path id="I_1_" class="st1" d="M42.9,962h-1.2c-3,0-4.5-1.5-4.5-4.4V944h-1.9c-0.6,0-1.1-0.5-1-1.1c0-0.6,0.5-1,1-1h1.9V936
			c0-0.6,0.5-1.1,1.1-1.1c0,0,0,0,0,0c0.6,0,1,0.4,1.1,1c0,0,0,0,0,0.1v5.8h3.5c0.6,0,1.1,0.5,1,1.1c0,0.6-0.5,1-1,1h-3.5v13.6
			c0,1.9,0.5,2.3,2.3,2.3h1.2c0.6,0,1.1,0.5,1.1,1.1S43.5,962,42.9,962L42.9,962z"/>
	</g>
	<g>
		<path id="O_2_" class="st1" d="M54.6,962.6c-6.1,0-9.5-5-9.5-10.8c0-5.7,3.4-10.7,9.5-10.7s9.5,5,9.5,10.7
			C64.1,957.6,60.7,962.6,54.6,962.6z M54.6,943.3c-4.5,0-7.4,3.6-7.4,8.5s2.9,8.6,7.4,8.6c4.5,0,7.4-3.6,7.4-8.6
			S59.1,943.3,54.6,943.3z"/>
	</g>
	<path class="st1" d="M81.9,962h-1.2c-3,0-4.5-1.5-4.5-4.4V944h-1.9c-0.6,0-1.1-0.5-1-1.1c0-0.6,0.5-1,1-1h1.9V936
		c0-0.6,0.5-1.1,1.1-1.1c0,0,0,0,0,0c0.6,0,1,0.4,1.1,1c0,0,0,0,0,0.1v5.8h3.5c0.6,0,1.1,0.5,1,1.1c0,0.6-0.5,1-1,1h-3.5v13.6
		c0,1.9,0.5,2.3,2.3,2.3h1.2c0.6,0,1.1,0.5,1.1,1.1S82.5,962,81.9,962L81.9,962z M101.1,962c-0.6,0-1.1-0.4-1.1-1c0,0,0,0,0,0v-11.1
		c0-3.6-2.9-6.5-6.5-6.5s-6.5,2.9-6.5,6.5v11.1c0,0.6-0.5,1.1-1.1,1.1s-1.1-0.5-1.1-1.1V936c0-0.6,0.5-1.1,1.1-1.1s1.1,0.5,1.1,1.1
		l0,0v8.1c1.6-1.9,4-3,6.5-2.9c4.8,0,8.6,3.9,8.7,8.7v11.1C102.2,961.5,101.7,962,101.1,962C101.1,962,101.1,962,101.1,962z
		 M122.9,953h-15.8c0.3,4.3,3.2,7.5,7.3,7.5c2.2,0.1,4.2-0.9,5.6-2.6c0.2-0.3,0.5-0.5,0.9-0.5c0.6,0,1.1,0.4,1.2,1
		c0,0.3,0,0.4-0.7,1.3c-1.8,2-4.3,3.1-7,3c-6.1,0-9.5-5-9.5-10.8c0-5.7,3.4-10.7,9.5-10.7s9.5,5.1,9.5,10.7
		C123.9,952.5,123.5,952.9,122.9,953L122.9,953z M114.4,943.3c-4.6,0-7,3.5-7.3,7.5h14.6C121.4,946.5,118.6,943.3,114.4,943.3z
		 M151,962c-0.6,0-1.1-0.4-1.1-1c0,0,0,0,0,0v-11.1c0-3.6-2.9-6.5-6.5-6.5c-3.6,0-6.5,2.9-6.5,6.5v11.1c0,0.6-0.5,1.1-1.1,1
		c-0.6,0-1-0.5-1-1v-18c0-0.6,0.5-1.1,1.1-1c0.6,0,1,0.5,1,1v1.2c3.2-3.6,8.7-3.9,12.2-0.7c1.9,1.6,2.9,4,2.9,6.5v11.1
		C152.1,961.5,151.6,962,151,962C151,962,151,962,151,962z"/>
	<g>
		<path id="Q_1_" class="st1" d="M172.7,953H157c0.3,4.3,3.2,7.5,7.3,7.5c2.2,0.1,4.2-0.9,5.6-2.6c0.2-0.3,0.5-0.5,0.9-0.5
			c0.6,0,1.1,0.4,1.2,1c0,0.3,0,0.4-0.7,1.3c-1.8,2-4.3,3.1-7,3c-6.1,0-9.5-5-9.5-10.8c0-5.7,3.4-10.7,9.5-10.7s9.5,5.1,9.5,10.7
			C173.8,952.5,173.3,952.9,172.7,953L172.7,953z M164.3,943.3c-4.6,0-7,3.5-7.3,7.5h14.6C171.3,946.5,168.4,943.3,164.3,943.3
			L164.3,943.3z"/>
	</g>
	<path class="st1" d="M191.3,962c-0.3,0-0.6-0.2-0.8-0.4l-6.7-8.5l-6.7,8.5c-0.2,0.3-0.5,0.4-0.8,0.4c-0.6,0-1.1-0.5-1.1-1.1
		c0-0.3,0.1-0.5,0.2-0.8l7-8.9l-6.2-7.8c-0.2-0.2-0.3-0.5-0.3-0.8c0-0.6,0.6-1.1,1.2-1.1c0.3,0,0.6,0.2,0.8,0.4l5.9,7.4l5.9-7.4
		c0.2-0.3,0.4-0.4,0.8-0.4c0.6,0,1.1,0.4,1.2,1.1c0,0.3-0.1,0.5-0.3,0.7l-6.2,7.8l7.1,8.9c0.2,0.2,0.3,0.5,0.3,0.8
		C192.4,961.6,191.9,962,191.3,962L191.3,962z"/>
	<g>
		<path id="M_1_" class="st1" d="M201.5,962h-1.2c-3,0-4.5-1.5-4.5-4.4V944h-1.9c-0.6,0-1.1-0.5-1-1.1c0-0.6,0.5-1,1-1h1.9V936
			c0-0.6,0.5-1.1,1.1-1.1c0,0,0,0,0,0c0.6,0,1,0.4,1.1,1c0,0,0,0,0,0.1v5.8h3.5c0.6,0,1.1,0.5,1,1.1c0,0.6-0.5,1-1,1H198v13.6
			c0,1.9,0.5,2.3,2.3,2.3h1.2c0.6,0,1.1,0.5,1.1,1.1S202.1,962,201.5,962L201.5,962z"/>
	</g>
	<g>
		<path id="K_4_" class="st1" d="M218.7,962.7c-2.3,0-6.1-0.8-7.4-3c-0.1-0.2-0.2-0.4-0.2-0.6c-0.1-0.6,0.4-1.1,0.9-1.1
			c0.4,0,0.8,0.2,1,0.5c1.4,1.7,3.8,2,5.7,2c3.7,0,5.5-1.2,5.5-3.7c0-5.7-12.5-2.7-12.5-10.3c0-3.8,3.8-5.3,7.3-5.3
			c2,0,5,0.7,6.5,2.2c0.2,0.2,0.3,0.4,0.3,0.7c0,0.6-0.6,1.1-1.2,1.1c-0.3,0-0.5-0.1-0.7-0.3c-1.4-1.1-3.2-1.7-5-1.6
			c-3.3,0-5.1,1.3-5.1,3.2c0,5.3,12.5,2.5,12.5,10.3C226.4,961.2,222.6,962.7,218.7,962.7L218.7,962.7z"/>
	</g>
	<g>
		<path id="M_2_" class="st1" d="M235.8,962h-1.2c-3,0-4.5-1.5-4.5-4.4V944h-1.9c-0.6,0-1.1-0.5-1-1.1c0-0.6,0.5-1,1-1h1.9V936
			c0-0.6,0.5-1.1,1.1-1.1c0,0,0,0,0,0c0.6,0,1,0.4,1.1,1c0,0,0,0,0,0.1v5.8h3.5c0.6,0,1.1,0.5,1,1.1c0,0.6-0.5,1-1,1h-3.5v13.6
			c0,1.9,0.5,2.3,2.3,2.3h1.2c0.6,0,1.1,0.5,1.1,1.1S236.4,962,235.8,962L235.8,962z"/>
	</g>
	<g>
		<path id="O_3_" class="st1" d="M247.5,962.6c-6.1,0-9.5-5-9.5-10.8c0-5.7,3.4-10.7,9.5-10.7s9.5,5,9.5,10.7
			C257,957.6,253.6,962.6,247.5,962.6z M247.5,943.3c-4.5,0-7.4,3.6-7.4,8.5s2.9,8.6,7.4,8.6c4.5,0,7.4-3.6,7.4-8.6
			S252,943.3,247.5,943.3z"/>
	</g>
	<g>
		<path id="N_1_" class="st1" d="M269.6,962.6c-2.9,0.1-5.7-1.2-7.4-3.6v9.8c0,0.6-0.5,1.1-1,1.1c-0.6,0-1.1-0.5-1.1-1
			c0,0,0,0,0-0.1v-26c0-0.6,0.5-1.1,1.1-1c0.6,0,1,0.5,1,1v1.9c1.7-2.3,4.5-3.7,7.4-3.6c6.1,0,9.5,5,9.5,10.7
			C279.1,957.6,275.7,962.6,269.6,962.6z M269.6,943.3c-4.5,0-7.4,3.6-7.4,8.5s2.8,8.6,7.4,8.6s7.4-3.6,7.4-8.6
			S274.1,943.3,269.6,943.3z"/>
	</g>
	<path class="st1" d="M284.3,962c-1.2,0-2.2-1-2.2-2.2c0-1.2,1-2.2,2.2-2.2c1.2,0,2.2,1,2.2,2.2C286.4,961,285.5,962,284.3,962
		C284.3,962,284.3,962,284.3,962z M417.6,727.8h-4.9v15.7c0,0.4-0.3,0.7-0.7,0.7c0,0,0,0,0,0c-0.4,0-0.7-0.3-0.7-0.7c0,0,0,0,0,0
		v-15.7h-4.9c-0.4,0-0.7-0.3-0.7-0.7c0-0.4,0.3-0.7,0.7-0.7c0,0,0,0,0.1,0h11.1c0.4,0,0.7,0.3,0.7,0.7S418,727.8,417.6,727.8
		L417.6,727.8z M432.1,744.2c-0.2,0-0.4-0.1-0.5-0.3l-5.4-7.4h-4.5v7c0,0.4-0.3,0.7-0.7,0.7c-0.4,0-0.7-0.3-0.7-0.7v-16.4
		c0-0.4,0.3-0.7,0.7-0.7h6.8c2.8,0,5.1,2.2,5.1,5c0,0,0,0,0,0c0,2.7-2.2,5-4.9,5.1l4.7,6.5c0.1,0.1,0.2,0.3,0.2,0.4
		C432.8,743.9,432.5,744.2,432.1,744.2L432.1,744.2z M427.8,727.8h-6.1v7.3h6c2,0,3.6-1.6,3.6-3.6
		C431.4,729.4,429.8,727.8,427.8,727.8z M449.1,744.2c-0.3,0-0.5-0.2-0.6-0.4l-1.6-3.8h-9l-1.6,3.8c-0.2,0.4-0.6,0.5-0.9,0.4
		c-0.2-0.1-0.4-0.3-0.4-0.6c0-0.1,0-0.2,0-0.3l6.7-16.4c0.1-0.3,0.4-0.5,0.7-0.5c0.3,0,0.5,0.2,0.6,0.5l6.8,16.4
		c0,0.1,0.1,0.2,0,0.3C449.8,743.9,449.5,744.2,449.1,744.2C449.1,744.2,449.1,744.2,449.1,744.2L449.1,744.2z M442.4,729l-3.9,9.5
		h7.9L442.4,729z M462,727.3l-5.5,16.4c-0.1,0.3-0.4,0.5-0.6,0.5c-0.3,0-0.6-0.2-0.7-0.5l-5.5-16.4c0-0.1,0-0.2,0-0.3
		c0-0.4,0.3-0.7,0.7-0.7c0.3,0,0.6,0.2,0.6,0.5l4.9,14.4l4.9-14.4c0.1-0.4,0.6-0.6,0.9-0.4c0.3,0.1,0.4,0.3,0.5,0.6
		C462,727.1,462,727.2,462,727.3L462,727.3z M476.2,744.2h-11.1c-0.4,0-0.7-0.3-0.7-0.7v-16.4c0-0.4,0.3-0.7,0.7-0.7h11.1
		c0.4,0,0.7,0.3,0.7,0.7c0,0.4-0.3,0.7-0.7,0.7c0,0,0,0-0.1,0h-10.4v6.1h7.6c0.4,0,0.7,0.3,0.7,0.6c0,0,0,0,0,0
		c0,0.4-0.3,0.7-0.7,0.7c0,0,0,0,0,0h-7.6v7.4h10.4c0.4,0,0.7,0.3,0.7,0.7c0,0,0,0,0,0C477,743.9,476.7,744.2,476.2,744.2
		C476.3,744.2,476.3,744.2,476.2,744.2L476.2,744.2z M489,744.2h-8.3c-0.4,0-0.7-0.3-0.7-0.7v-16.4c0-0.4,0.3-0.7,0.7-0.7
		c0,0,0,0,0,0c0.4,0,0.7,0.3,0.7,0.7c0,0,0,0,0,0v15.7h7.6c0.4,0,0.7,0.3,0.7,0.7C489.7,743.9,489.4,744.2,489,744.2L489,744.2z
		 M504.4,744.2h-5.5c-0.4,0-0.7-0.3-0.7-0.7v-16.4c0-0.4,0.3-0.7,0.7-0.7h5.5c5.1,0,6.9,4.3,6.9,8.9
		C511.2,739.9,509.5,744.2,504.4,744.2L504.4,744.2z M504.4,727.8h-4.8v15h4.8c4.3,0,5.4-3.7,5.4-7.5
		C509.8,730.8,508.2,727.8,504.4,727.8L504.4,727.8z M517.3,744.2h-2.8c-0.4,0-0.7-0.3-0.7-0.7c0-0.4,0.3-0.7,0.7-0.7c0,0,0,0,0.1,0
		h0.7v-15h-0.7c-0.4,0-0.7-0.3-0.7-0.7c0-0.4,0.3-0.7,0.7-0.7c0,0,0,0,0.1,0h2.8c0.4,0,0.7,0.3,0.7,0.7s-0.3,0.7-0.7,0.7h-0.7v15
		h0.7c0.4,0,0.7,0.3,0.7,0.7C518,743.9,517.7,744.2,517.3,744.2z M526.2,744.6c-2.2,0-4.3-0.8-6-2.2c-0.1-0.1-0.2-0.3-0.2-0.5
		c0-0.4,0.3-0.7,0.7-0.7c0.3,0,0.3,0.1,0.8,0.5c1.4,1,3,1.5,4.7,1.5c3.2,0,5-1.2,5-3.4c0-5.9-10.6-2.6-10.6-9.4c0-3,2.6-4.4,5.8-4.4
		c1.8,0,4.3,0.8,5.5,2.3c0.1,0.1,0.1,0.3,0.1,0.4c0,0.4-0.3,0.7-0.8,0.7c-0.3,0-0.3-0.1-0.8-0.5c-1.1-1-2.6-1.6-4.1-1.5
		c-3,0-4.4,1.2-4.4,3c0,5.4,10.6,2.2,10.6,9.4C532.6,743.2,529.6,744.6,526.2,744.6L526.2,744.6z M545.4,727.8h-4.8v15.7
		c0,0.4-0.3,0.7-0.7,0.7c0,0,0,0-0.1,0c-0.4,0-0.7-0.3-0.7-0.7c0,0,0,0,0,0v-15.7h-4.8c-0.4,0-0.7-0.3-0.7-0.7
		c0-0.4,0.3-0.7,0.7-0.7c0,0,0,0,0.1,0h11.1c0.4,0,0.7,0.3,0.7,0.7S545.8,727.8,545.4,727.8L545.4,727.8z M558.7,744.2
		c-0.3,0-0.5-0.2-0.6-0.4l-1.6-3.8h-9l-1.6,3.8c-0.2,0.4-0.6,0.5-0.9,0.4c-0.2-0.1-0.4-0.3-0.4-0.6c0-0.1,0-0.2,0-0.3l6.7-16.4
		c0.1-0.3,0.4-0.5,0.7-0.5c0.3,0,0.5,0.2,0.6,0.5l6.7,16.4c0,0.1,0.1,0.2,0,0.3C559.4,743.9,559.1,744.2,558.7,744.2
		C558.7,744.2,558.7,744.2,558.7,744.2L558.7,744.2z M551.9,729l-3.9,9.5h7.9L551.9,729z M573.4,744.2c-0.3,0-0.5-0.2-0.6-0.4
		l-9.8-14.4v14.1c0,0.4-0.3,0.7-0.7,0.7c-0.4,0-0.7-0.3-0.7-0.7v-16.4c0-0.4,0.3-0.7,0.7-0.8c0.3,0,0.6,0.1,0.7,0.4l9.8,14.4v-14.1
		c0-0.4,0.3-0.7,0.7-0.7c0.4,0,0.7,0.3,0.7,0.7v16.4C574.1,743.9,573.8,744.2,573.4,744.2L573.4,744.2z M590.1,741.9
		c-1.3,1.8-3.4,2.8-5.6,2.7c-5.4,0-7.3-4.5-7.3-9.3c0-4.9,1.9-9.3,7.3-9.3c2.2-0.1,4.3,0.9,5.5,2.7c0.1,0.1,0.2,0.3,0.2,0.4
		c0,0.4-0.4,0.7-0.8,0.7c-0.2,0-0.4-0.1-0.5-0.3c-1-1.4-2.6-2.2-4.4-2.1c-4.1,0-5.8,3.2-5.8,7.9c0,4.6,1.7,7.9,5.8,7.9
		c1.7,0.1,3.4-0.7,4.4-2.1c0.1-0.2,0.3-0.3,0.5-0.3c0.4,0,0.7,0.3,0.7,0.7C590.3,741.6,590.2,741.8,590.1,741.9L590.1,741.9z
		 M604.8,744.2h-11.1c-0.4,0-0.7-0.3-0.7-0.7v-16.4c0-0.4,0.3-0.7,0.7-0.7h11.1c0.4,0,0.7,0.3,0.7,0.7c0,0.4-0.3,0.7-0.7,0.7
		c0,0,0,0-0.1,0h-10.4v6.1h7.6c0.4,0,0.7,0.3,0.7,0.6c0,0,0,0,0,0c0,0.4-0.3,0.7-0.7,0.7c0,0,0,0,0,0h-7.6v7.4h10.4
		c0.4,0,0.7,0.3,0.7,0.7c0,0,0,0,0,0C605.5,743.9,605.2,744.2,604.8,744.2C604.8,744.2,604.8,744.2,604.8,744.2L604.8,744.2z"/>
</g>
<path class="st8" d="M495,787.3h-1.6v2.5c0,0.4-0.3,0.7-0.7,0.7c-0.4,0-0.7-0.3-0.7-0.7v-2.5h-6.5c-0.5,0-0.7-0.3-0.7-0.6
	c0-0.2,0-0.3,0.1-0.4l6.8-12.9c0.1-0.2,0.4-0.4,0.6-0.4c0.4,0,0.7,0.3,0.7,0.7c0,0.1,0,0.2-0.1,0.4l-6.2,11.9h5.3v-3.1
	c0-0.4,0.3-0.7,0.6-0.7c0.4,0,0.7,0.3,0.7,0.6c0,0,0,0,0,0.1v3.1h1.6c0.4,0,0.7,0.3,0.7,0.6c0,0,0,0,0,0
	C495.7,786.9,495.4,787.3,495,787.3C495.1,787.3,495,787.3,495,787.3L495,787.3z M498.4,790.5c-0.8,0-1.4-0.6-1.4-1.4
	c0-0.8,0.6-1.4,1.4-1.4s1.4,0.6,1.4,1.4l0,0C499.8,789.8,499.2,790.4,498.4,790.5C498.5,790.5,498.5,790.5,498.4,790.5z
	 M506.7,790.9c-2.8,0-5.1-2.3-5.1-5.1c0-1.9,1-3.6,2.6-4.5c-1.3-0.8-2-2.3-2-3.8c0-2.5,2-4.5,4.5-4.5c2.5,0,4.5,2,4.5,4.5
	c0,0,0,0,0,0c0,1.5-0.8,3-2,3.8c1.6,0.9,2.7,2.6,2.6,4.5C511.8,788.6,509.6,790.9,506.7,790.9C506.7,790.9,506.7,790.9,506.7,790.9z
	 M506.7,782c-2.1,0-3.8,1.7-3.8,3.7c0,2.1,1.7,3.8,3.7,3.8c2.1,0,3.8-1.7,3.8-3.7C510.5,783.7,508.8,782,506.7,782z M506.7,774.3
	c-1.7,0-3.2,1.4-3.2,3.1c0,1.7,1.4,3.2,3.1,3.2c1.7,0,3.2-1.4,3.2-3.1c0,0,0,0,0,0C509.9,775.7,508.5,774.3,506.7,774.3
	C506.7,774.3,506.7,774.3,506.7,774.3z M527.5,778.9l-4.1,4.1l4.1,6.4c0.1,0.1,0.1,0.2,0.1,0.4c0,0.4-0.4,0.6-0.7,0.6
	c-0.2,0-0.5-0.1-0.6-0.3l-3.9-6.1l-2.5,2.5v3.3c0,0.4-0.3,0.7-0.7,0.7c-0.4,0-0.7-0.3-0.7-0.7V774c0-0.4,0.3-0.7,0.7-0.7
	c0.4,0,0.7,0.3,0.7,0.7v10.5l6.6-6.6c0.1-0.1,0.3-0.2,0.5-0.2c0.4,0,0.7,0.3,0.7,0.7C527.7,778.6,527.6,778.8,527.5,778.9
	L527.5,778.9z M544.7,790.5c-0.4,0-0.7-0.3-0.7-0.6c0,0,0,0,0,0v-8.1c0-1.7-1.4-3-3.1-3c-1.6,0-3,1.3-3,3v8.1c0,0.4-0.3,0.7-0.6,0.7
	c0,0,0,0,0,0c-0.4,0-0.7-0.3-0.7-0.7c0,0,0,0,0,0v-8.1c0-1.7-1.4-3-3.1-3c-1.6,0-3,1.3-3,3v8.1c0,0.4-0.3,0.7-0.7,0.7
	c-0.4,0-0.7-0.3-0.7-0.7v-11.4c0-0.4,0.3-0.7,0.7-0.7c0.4,0,0.7,0.3,0.7,0.7v0.1c0.8-0.8,1.9-1.2,3-1.2c1.5,0,2.9,0.8,3.7,2
	c1.3-2.1,4.1-2.7,6.1-1.3c1.3,0.8,2,2.2,2,3.7v8.1C545.4,790.2,545.1,790.5,544.7,790.5C544.7,790.5,544.7,790.5,544.7,790.5
	L544.7,790.5z"/>
<g>
	<g>
		<path class="st9" d="M462.1,269.5l-202.7-19.3 M147.4,338v-28.6 M192.6,342.5v-30.2 M259.7,250.2v37.6"/>
		<path class="st9" d="M315.5,254.9v37.6 M438.4,583.4c0-17.9-9.3-35.8-21.2-41.3c-15.9-7.3-38.1,8.5-38.1,40.3"/>
		<path class="st9" d="M438.4,638.4v-56 M379,582.4v40.8 M564.2,546.2c0-19.5-31.5-19.4-31.5-19.4l-383.3-27.2v-11.4
			c0-2.8-13-10.7-30.4-14.9 M119,404.6l445.2-96.4"/>
		<path class="st9" d="M504.9,282c49.3-12.4,73.6-1.1,73.6,26.2v236.9c0,34.5,53.4,32.3,130,28.1 M438.4,638.4l90.7,23.1
			c30.4,7.7,61.6,10.4,92.7,8.1l290.4-21.3c5.2,0,7.8-2.8,7.8-2.8v-87.4 M199.9,577.6l179.2,45.6 M912.2,340.8
			c0-36.6-56.4-45.9-101-50.6c-44.6-4.7-149.6-17.3-269.4-13.5"/>
		<path class="st9" d="M708.5,573.2l165.2-9.2 M873.7,564c16-0.9,30.1-1.7,38.4-2.9 M912.1,561.9v-221 M912.1,551.5
			c7.3,1.9,7.8,3.9,7.8,6.6"/>
		<path class="st9" d="M708.5,573.2l165.2-9.2 M880.2,618.8c23.7-2.8,32.8-3.8,39.8-3.8"/>
		<path class="st9" d="M702.1,626.8c0-6.4-20.8-32.9-39.8-32.4c-19.1,0.5-77.9-0.5-77.9-0.5c2.9,20.6,17.9,32.9,58.9,32.9
			L702.1,626.8 M880.2,618.8c0-16,18-35.5,39.8-35.5 M373.3,515.5v-166 M462,521.8V330.3 M296.4,510.1V366.2 M229.8,507.2V380.6
			 M172.1,501.3V393.1 M564.2,308.2v233.9"/>
	</g>
	<ellipse class="st10" cx="420.8" cy="606.4" rx="17.6" ry="30.9"/>
	<g>
		<path class="st9" d="M430.7,555.4c-2.4-1.2-5-1.8-7.6-1.8c-16.1,0-29.1,23.7-29.1,52.9s13,52.9,29.1,52.9c9,0,17.1-7.5,22.4-19.2"
			/>
		<path class="st9" d="M425,659.2l36.7-2 M461.8,657.2h0.2c5.9,0,11.4-3.2,16-8.8 M379,623.3l16.3-0.9 M189.2,532.4
			c-1.2-0.8-2.6-1.3-4-1.3c-6.6,0-11.9,9.8-11.9,22s5.3,22,11.9,22c1.5,0,3-0.5,4.3-1.4 M181,517.2c-8.1,4.7-13.9,19-13.9,36
			c0,20.8,8.8,37.6,19.7,37.6c5.7,0,10.8-4.6,14.4-12"/>
		<path class="st9" d="M187.4,590.6l19.6-1.1 M207,589.5h0.1c4.2,0,8.1-2.3,11.4-6.2 M188.8,535.8c0-1-0.1-2.1-0.2-3.1
			c-0.9-7.2-4.8-13.8-9.7-16.1c-7.4-3.4-17.7,4-17.7,18.7 M188.8,575.6v-40.2 M161.3,535.4v33.2 M161.3,568.6l5.8-0.3 M912.1,359.8
			l13.3-3.6 M912,337.7l12.4-2.6"/>
		<path class="st9" d="M924.4,335.1c60.1-14.3,64.4,13.9,64.4,41.5v28.7c0,10.6-5.4,20.8-13.6,20.8c-14,0-13.9-14.2-13.9-15.3v-44.5
			c0-5.3-10.9-12-17.4-12s-10,0.4-19.9,2.3 M564.2,325.5c-12.3,0-45.7,1.8-45.7,17.5v75.5c0,6.9,7.9,11.2,14.3,11.2s17-2.9,17-11.2
			V349"/>
		<path class="st9" d="M518.5,347.9c3,0,25.7-1.1,45.7-0.4"/>
		<g>
			<path class="st11" d="M442.8,194.5l-15.9,17.9L134.2,344.9h-17.4 M340.7,282.5l-161.2,64.3h-17.4"/>
			<path class="st11" d="M340.7,282.5l-161.2,64.3 M514.6,201.6l-15.9,17.9l-125.4,50"/>
		</g>
		<g>
			<path class="st9" d="M405.4,174.6v47.5 M467.4,183.1v48.9"/>
			<path class="st9" d="M259.4,250.2c-31.8-3-59.5,18.1-59.5,45.2v327.4 M609.7,201.7l-202-26.5c-42.6-5.6-81,22.4-81,59v443.1"/>
		</g>
		<g>
			<path class="st11" d="M373.3,318.4v-54.8c0-1.3-4.1-3-4.1-3l-18-1.7c-7.7,0-10.5,3.2-10.5,5.7v61.5 M351.2,322.8v-62.4
				 M351.2,263.6l22.1,2.1 M351.2,267.8l22.1,1.9 M351.2,271.9l22.1,1.6 M351.2,276.1l22.1,1.4 M351.2,280.3l22.1,1.2 M351.2,284.5
				l22.1,1"/>
			<path class="st11" d="M351.2,288.6l22.1,0.7 M351.2,292.8l22.1,0.5 M351.2,297l22.1,0.3 M351.2,301.1l22.1,0 M351.2,305.3
				l22.1-0.2 M351.2,309.5l22.1-0.4 M351.2,313.6l22.1-0.6 M351.2,317.8l22.1-0.9 M351.2,263.6l-10.5,3.4 M351.2,267.8l-10.5,3.4
				 M351.2,271.9l-10.5,3.4 M351.2,276.1l-10.5,3.4 M351.2,280.3l-10.5,3.5 M351.2,284.5l-10.5,3.5 M351.2,288.6l-10.5,3.5
				 M351.2,292.8l-10.5,3.5 M351.2,297l-10.5,3.6 M351.2,301.1l-10.5,3.6 M351.2,305.3l-10.5,3.6 M351.2,309.5l-10.5,3.7
				 M351.2,313.7l-10.5,3.7 M351.2,317.8l-10.5,3.7"/>
		</g>
		<path class="st9" d="M308.4,320.4l-160.2-11.1c-25.2-1.8-46.7,15.1-46.7,36.6v234.6"/>
	</g>
	
		<ellipse transform="matrix(0.9992 -3.968273e-02 3.968273e-02 0.9992 -26.6208 13.4958)" class="st12" cx="326.6" cy="677.3" rx="20.2" ry="6.2"/>
	
		<ellipse transform="matrix(0.9992 -3.968270e-02 3.968270e-02 0.9992 -24.5559 8.4228)" class="st12" cx="199.9" cy="622.8" rx="14.8" ry="4.6"/>
	
		<ellipse transform="matrix(0.9992 -3.967712e-02 3.967712e-02 0.9992 -22.9494 4.4834)" class="st12" cx="101.5" cy="580.4" rx="9.8" ry="3"/>
	<path class="st9" d="M504.9,282L119,385.7v164.9l22.3,12.8l20,5.1 M578.4,305.7l321.4,9.9 M622.4,456.9l154.7-96.2 M676.7,448.5
		l154.7-96.2 M676.7,539.7l154.7-96.2 M799.7,485.3l91.5-56.9"/>
</g>
<g class="st13">
	<path class="st7" d="M42.3,1046c-2,0.1-4-0.7-5.5-2c0,0.8-0.6,1.4-1.3,1.4c0,0-0.1,0-0.1,0c-0.7,0-1.4-0.5-1.4-1.3c0,0,0-0.1,0-0.1
		v-20.9c0-0.8,0.7-1.4,1.5-1.4c0.8,0,1.4,0.6,1.4,1.4v6.2c1.5-1.5,3.4-2.2,5.5-2.2c5.4,0,8.4,4.4,8.4,9.4
		C50.7,1041.6,47.7,1046,42.3,1046z M42.3,1030c-3.3,0-5.5,2.6-5.5,6.6c0,4,2.2,6.6,5.5,6.6s5.5-2.6,5.5-6.6
		C47.8,1032.6,45.7,1030,42.3,1030z M67.9,1038.1H55.5c0.5,3.1,2.5,5.1,5.4,5.1c1.5,0.1,3-0.6,4-1.7c0.2-0.3,0.6-0.5,1-0.5
		c0.8,0,1.5,0.7,1.5,1.5c0,0.4-0.1,0.7-0.8,1.4c-1.5,1.5-3.6,2.3-5.7,2.2c-5.4,0-8.4-4.4-8.4-9.4c0-5,3-9.4,8.4-9.4
		c5.4,0,8.3,4.4,8.3,9.4C69.3,1037.4,68.7,1038.1,67.9,1038.1C67.9,1038.1,67.9,1038.1,67.9,1038.1L67.9,1038.1z M60.9,1030
		c-3.1,0-5,2.3-5.4,5.2h10.8C65.9,1032,63.9,1030,60.9,1030L60.9,1030z M88,1045.5c-1.3,0-2.4-0.7-3-1.9c-1.5,1.6-3.6,2.5-5.9,2.5
		c-5.4,0-8.4-4.5-8.4-9.4s3-9.4,8.4-9.4c2.1-0.1,4.1,0.7,5.5,2.2v-0.1c-0.1-0.8,0.5-1.4,1.2-1.5c0.1,0,0.1,0,0.2,0
		c0.7-0.1,1.4,0.5,1.5,1.2c0,0.1,0,0.1,0,0.2v12.9c0,0.3,0.2,0.6,0.5,0.6c0.8,0,1.4,0.6,1.5,1.4C89.5,1044.8,88.9,1045.5,88,1045.5
		C88.1,1045.5,88,1045.5,88,1045.5L88,1045.5z M79.2,1030c-3.3,0-5.5,2.6-5.5,6.6c0,4,2.2,6.6,5.5,6.6c3.4,0,5.5-2.6,5.5-6.6
		C84.7,1032.6,82.5,1030,79.2,1030z"/>
	<g>
		<path id="R" class="st7" d="M104.7,1045.5c-0.7,0-1.3-0.4-1.4-1.1c-1.4,1.1-3.1,1.7-4.8,1.7c-4.2,0-7.6-3.4-7.6-7.6v-9.2
			c0-0.8,0.6-1.4,1.4-1.5c0.8,0,1.4,0.6,1.5,1.4l0,0v9.3c0,2.6,2.1,4.8,4.8,4.8s4.8-2.1,4.8-4.8l0,0v-9.2c-0.1-0.7,0.5-1.4,1.2-1.5
			c0.1,0,0.1,0,0.2,0c0.8,0,1.4,0.5,1.4,1.3c0,0,0,0.1,0,0.1v14.9c0,0.7-0.5,1.4-1.3,1.4C104.8,1045.5,104.8,1045.5,104.7,1045.5
			L104.7,1045.5z"/>
	</g>
	<path class="st7" d="M115.2,1045.5h-0.6c-3.2,0-4.4-1.7-4.4-4.4v-10.5h-1c-0.8,0-1.4-0.6-1.5-1.4s0.6-1.4,1.4-1.5c0,0,0,0,0.1,0h1
		v-4.6c0-0.7,0.6-1.4,1.3-1.4c0,0,0.1,0,0.1,0c0.7,0,1.4,0.5,1.4,1.3c0,0,0,0.1,0,0.1v4.6h2.1c0.8,0,1.4,0.6,1.4,1.4c0,0,0,0,0,0
		c0,0.7-0.5,1.4-1.3,1.4c0,0-0.1,0-0.1,0H113v10.8c0,0.9,0.3,1.3,1.3,1.3h0.8c0.8,0,1.4,0.6,1.4,1.3c0,0,0,0.1,0,0.1
		c0,0.7-0.5,1.4-1.3,1.4C115.2,1045.5,115.2,1045.5,115.2,1045.5L115.2,1045.5z M119.8,1025.1c-1.3,0-2.4-1.1-2.4-2.4
		c0-1.3,1.1-2.4,2.4-2.4c1.3,0,2.4,1.1,2.4,2.4C122.2,1024,121.1,1025.1,119.8,1025.1C119.8,1025.1,119.8,1025.1,119.8,1025.1z
		 M119.8,1045.5c-0.8,0-1.4-0.6-1.5-1.3c0,0,0,0,0-0.1v-14.9c0-0.8,0.6-1.4,1.4-1.4c0,0,0.1,0,0.1,0c0.8,0,1.4,0.6,1.4,1.3
		c0,0,0,0.1,0,0.1v14.9c0,0.7-0.5,1.4-1.3,1.4C119.8,1045.5,119.8,1045.5,119.8,1045.5z M130.1,1030.6h-1.5v13.4
		c0,0.8-0.6,1.4-1.3,1.4c0,0-0.1,0-0.1,0c-0.7,0-1.4-0.5-1.4-1.3c0,0,0-0.1,0-0.1v-13.4h-1.4c-0.8,0-1.4-0.7-1.4-1.5
		c0-0.8,0.6-1.4,1.4-1.4h1.4v-2.3c0-2.1,1.7-3.8,3.8-3.8c0,0,0,0,0,0c0.8,0,1.4,0.6,1.5,1.4c0,0.8-0.6,1.4-1.4,1.5c0,0,0,0-0.1,0
		c-0.5,0-0.9,0.4-1,0.9c0,0,0,0,0,0v2.3h1.5c0.8,0,1.4,0.6,1.5,1.4C131.6,1029.9,131,1030.6,130.1,1030.6
		C130.2,1030.6,130.2,1030.6,130.1,1030.6L130.1,1030.6z"/>
	<g>
		<path id="R_1_" class="st7" d="M146.8,1045.5c-0.7,0-1.3-0.4-1.4-1.1c-1.4,1.1-3.1,1.7-4.8,1.7c-4.2,0-7.6-3.4-7.6-7.6v-9.2
			c0-0.8,0.6-1.4,1.4-1.5c0.8,0,1.4,0.6,1.5,1.4l0,0v9.3c0,2.6,2.1,4.8,4.8,4.8s4.8-2.1,4.8-4.8l0,0v-9.2c-0.1-0.7,0.5-1.4,1.2-1.5
			c0.1,0,0.1,0,0.2,0c0.8,0,1.4,0.5,1.4,1.3c0,0,0,0.1,0,0.1v14.9c0,0.7-0.5,1.4-1.3,1.4C146.9,1045.5,146.8,1045.5,146.8,1045.5
			L146.8,1045.5z"/>
	</g>
	<path class="st7" d="M154.7,1045.5c-1.9,0-3.3-1.5-3.3-3.4v-19c0-0.8,0.7-1.4,1.5-1.4c0.8,0,1.4,0.6,1.4,1.4v19
		c0,0.3,0.2,0.5,0.5,0.6c0.8,0,1.4,0.6,1.5,1.4C156.2,1044.9,155.6,1045.5,154.7,1045.5C154.8,1045.5,154.8,1045.5,154.7,1045.5z
		 M170.1,1045.5v-1.3c1.9-0.2,2-0.4,2-3.2v-6.7c0-2.8-1.2-4-3.1-4c-1.3,0.1-2.5,0.6-3.5,1.5v9.5c0,2.5,0.2,2.7,2.1,2.9v1.3h-9v-1.3
		c2.3-0.3,2.5-0.4,2.5-3v-8.2c0-2.4-0.3-2.6-2.2-2.9v-1.2c2.3-0.3,4.5-0.8,6.7-1.5l-0.1,2.9l2.6-1.7c0.9-0.7,2-1.1,3.2-1.1
		c3.2,0,5.2,2.3,5.2,6.3v7.5c0,2.5,0.2,2.7,2.3,2.9v1.3L170.1,1045.5z M194,1041.8c-2.5,3.4-5.5,4.2-7,4.2c-5.1,0-8.1-3.9-8.1-8.6
		c0-2.6,1-5.2,2.8-7.1c1.6-1.7,3.8-2.7,6.1-2.8c3.5,0,6.3,2.8,6.4,6.3c0,0.7-0.1,1.3-0.6,1.4c-0.8,0.2-6.2,0.5-10.3,0.6
		c0.1,4.6,2.7,6.7,5.6,6.7c1.7,0,3.3-0.7,4.5-1.9L194,1041.8z M186.9,1029.1c-1.7,0-3.2,1.8-3.5,5l5.5-0.1c0.6,0,0.8-0.1,0.8-0.8
		C189.8,1031.1,188.7,1029.1,186.9,1029.1L186.9,1029.1z M221.2,1029.2c-1.9,0.3-2.2,0.6-3.1,2.8c-1.3,3.5-3.1,8.5-4.9,13.9h-1.5
		l-4.6-11.5l-4.6,11.5H201l-4.7-14.2c-0.7-2-0.9-2.3-2.9-2.5v-1.2h9.4v1.2c-2.3,0.3-2.5,0.7-2.1,2.1l2.5,8.2c1.5-3.7,3-7.6,4.3-11.4
		h1.5c1.4,3.8,3,7.7,4.6,11.6c0.7-2.1,2.1-6,2.6-8.1c0.4-1.7,0-2.1-2.8-2.4v-1.2h7.7L221.2,1029.2z M230.6,1033
		c-0.9-2.6-2.2-4-4.2-4c-1.2,0-2.2,0.9-2.2,2.1c0,0.1,0,0.1,0,0.2c0,1.5,1,2.3,3.2,3.2c3.3,1.5,5.3,2.8,5.3,5.7
		c0,3.8-3.6,5.8-6.9,5.8c-1.7,0-3.4-0.4-4.9-1.2l-0.7-4.9l1.3-0.2c0.8,2.5,2.3,4.8,5,4.8c1.2,0.1,2.3-0.8,2.4-2c0-0.1,0-0.2,0-0.3
		c0-1.4-0.8-2.3-3.1-3.5c-2.7-1.3-5.1-2.6-5.1-5.8c0-3,2.5-5.4,6.6-5.4c1.4,0,2.8,0.2,4.1,0.6l0.6,4.6L230.6,1033z"/>
</g>
<g class="st14">
	<path class="st7" d="M821.6,1046.4c-1.2,0-3.2-0.4-3.9-1.6c-0.1-0.1-0.1-0.2-0.1-0.3c0-0.3,0.2-0.6,0.5-0.6c0.2,0,0.4,0.1,0.5,0.3
		c0.8,0.8,1.9,1.2,3,1.1c1.9,0,2.9-0.6,2.9-1.9c0-3-6.6-1.4-6.6-5.4c0-2,2-2.8,3.8-2.8c1.2,0,2.5,0.4,3.4,1.2
		c0.1,0.1,0.2,0.2,0.2,0.4c0,0.3-0.3,0.6-0.6,0.6c-0.1,0-0.3-0.1-0.4-0.2c-0.7-0.6-1.7-0.9-2.6-0.8c-1.8,0-2.7,0.7-2.7,1.7
		c0,2.8,6.6,1.3,6.6,5.4C825.6,1045.6,823.6,1046.4,821.6,1046.4L821.6,1046.4z M832.3,1046.3c-3.2,0-5-2.6-5-5.7c0-3,1.8-5.6,5-5.6
		s5,2.6,5,5.6C837.3,1043.7,835.5,1046.3,832.3,1046.3z M832.3,1036.2c-2.4,0-3.9,1.9-3.9,4.5s1.5,4.5,3.9,4.5
		c2.4,0,3.9-1.9,3.9-4.5S834.7,1036.2,832.3,1036.2z M848.1,1046c-0.3,0-0.6-0.2-0.6-0.5c0,0,0,0,0,0v-0.6c-0.9,1-2.1,1.6-3.4,1.5
		c-2.5,0-4.5-2.1-4.6-4.6v-5.8c0-0.3,0.3-0.6,0.6-0.6s0.6,0.3,0.6,0.6l0,0v5.8c0,1.9,1.5,3.4,3.4,3.4c1.9,0,3.4-1.5,3.4-3.4
		c0,0,0,0,0,0v-5.8c0-0.3,0.3-0.6,0.6-0.6s0.6,0.3,0.6,0.6v9.5C848.6,1045.7,848.4,1046,848.1,1046
		C848.1,1046,848.1,1046,848.1,1046L848.1,1046z"/>
	<g>
		<path id="S" class="st7" d="M856,1036.3c-1.9,0-3.4,1.5-3.4,3.4c0,0,0,0,0,0v5.7c0,0.3-0.3,0.6-0.6,0.6s-0.6-0.3-0.6-0.6v-9.5
			c0-0.3,0.3-0.6,0.6-0.6s0.6,0.3,0.6,0.6v0.8c0.9-1,2.1-1.5,3.4-1.5c0.3,0,0.6,0.3,0.6,0.6C856.6,1036.1,856.3,1036.3,856,1036.3
			L856,1036.3z"/>
	</g>
	<g>
		<path id="T" class="st7" d="M866.2,1044.8c-0.9,1-2.2,1.6-3.6,1.5c-3.2,0-5-2.6-5-5.7c0-3,1.8-5.6,5-5.6c1.4,0,2.7,0.5,3.6,1.5
			c0.1,0.1,0.2,0.2,0.2,0.4c0,0.3-0.3,0.6-0.6,0.6c-0.2,0-0.3-0.1-0.4-0.2c-0.7-0.8-1.7-1.2-2.7-1.2c-2.4,0-3.9,1.9-3.9,4.5
			s1.5,4.5,3.9,4.5c1,0,2-0.4,2.7-1.2c0.1-0.1,0.3-0.2,0.4-0.2c0.3,0,0.6,0.3,0.6,0.6C866.4,1044.5,866.3,1044.7,866.2,1044.8
			L866.2,1044.8z"/>
	</g>
	<g>
		<path id="U" class="st7" d="M877.8,1041.2h-8.3c0.2,2.3,1.7,3.9,3.8,3.9c1.1,0,2.2-0.5,2.9-1.4c0.1-0.2,0.3-0.3,0.5-0.3
			c0.3,0,0.6,0.2,0.6,0.5c0,0.2,0,0.2-0.4,0.7c-0.9,1-2.3,1.6-3.7,1.6c-3.2,0-5-2.6-5-5.7c0-3,1.8-5.6,5-5.6s5,2.7,5,5.6
			C878.3,1041,878.1,1041.2,877.8,1041.2L877.8,1041.2z M873.3,1036.2c-2.4,0-3.7,1.8-3.8,3.9h7.7
			C877,1037.8,875.5,1036.2,873.3,1036.2z"/>
	</g>
	<path class="st7" d="M881.8,1039.4c-0.6,0-1.1-0.5-1.1-1.1s0.5-1.1,1.1-1.1s1.1,0.5,1.1,1.1S882.4,1039.4,881.8,1039.4z
		 M881.8,1046c-0.6,0-1.1-0.5-1.1-1.1s0.5-1.1,1.1-1.1s1.1,0.5,1.1,1.1S882.4,1046,881.8,1046z M899.9,1046c-0.2,0-0.3-0.1-0.4-0.2
		l-4.3-5.9h-3.6v5.6c0,0.3-0.3,0.6-0.6,0.6s-0.6-0.3-0.6-0.6v-13.1c0-0.3,0.3-0.6,0.6-0.6h5.4c2.2,0,4,1.8,4.1,4c0,0,0,0,0,0
		c0,2.2-1.7,4-3.9,4.1l3.8,5.2c0.1,0.1,0.1,0.2,0.1,0.4C900.5,1045.7,900.3,1046,899.9,1046L899.9,1046z M896.5,1032.9h-4.9v5.8h4.8
		c1.6,0,2.9-1.2,3-2.8c0-1.6-1.2-2.9-2.8-3C896.6,1032.9,896.5,1032.9,896.5,1032.9L896.5,1032.9z"/>
	<g>
		<path id="U_1_" class="st7" d="M912.3,1041.2H904c0.2,2.3,1.7,3.9,3.8,3.9c1.1,0,2.2-0.5,2.9-1.4c0.1-0.2,0.3-0.3,0.5-0.3
			c0.3,0,0.6,0.2,0.6,0.5c0,0.2,0,0.2-0.4,0.7c-0.9,1-2.3,1.6-3.7,1.6c-3.2,0-5-2.6-5-5.7c0-3,1.8-5.6,5-5.6s5,2.7,5,5.6
			C912.8,1041,912.6,1041.2,912.3,1041.2L912.3,1041.2z M907.8,1036.2c-2.4,0-3.7,1.8-3.8,3.9h7.7
			C911.5,1037.8,910,1036.2,907.8,1036.2z"/>
	</g>
	<path class="st7" d="M918.6,1046.4c-1.2,0-3.2-0.4-3.9-1.6c-0.1-0.1-0.1-0.2-0.1-0.3c0-0.3,0.2-0.6,0.5-0.6c0.2,0,0.4,0.1,0.5,0.3
		c0.8,0.8,1.9,1.2,3,1.1c1.9,0,2.9-0.6,2.9-1.9c0-3-6.6-1.4-6.6-5.4c0-2,2-2.8,3.8-2.8c1.2,0,2.5,0.4,3.4,1.2
		c0.1,0.1,0.2,0.2,0.2,0.4c0,0.3-0.3,0.6-0.6,0.6c-0.1,0-0.3-0.1-0.4-0.2c-0.7-0.6-1.7-0.9-2.6-0.8c-1.8,0-2.7,0.7-2.7,1.7
		c0,2.8,6.6,1.3,6.6,5.4C922.6,1045.6,920.6,1046.4,918.6,1046.4L918.6,1046.4z"/>
	<g>
		<path id="U_2_" class="st7" d="M933.7,1041.2h-8.3c0.2,2.3,1.7,3.9,3.8,3.9c1.1,0,2.2-0.5,2.9-1.4c0.1-0.2,0.3-0.3,0.5-0.3
			c0.3,0,0.6,0.2,0.6,0.5c0,0.2,0,0.2-0.4,0.7c-0.9,1-2.3,1.6-3.7,1.6c-3.2,0-5-2.6-5-5.7c0-3,1.8-5.6,5-5.6s5,2.7,5,5.6
			C934.3,1041,934,1041.2,933.7,1041.2L933.7,1041.2z M929.3,1036.2c-2.4,0-3.7,1.8-3.8,3.9h7.7
			C933,1037.8,931.5,1036.2,929.3,1036.2z"/>
	</g>
	<g>
		<path id="V" class="st7" d="M947.1,1046L947.1,1046c-1,0-1.8-0.7-2-1.6c-0.9,1.2-2.3,2-3.9,1.9c-3.3,0-5-2.7-5-5.7
			c0-3,1.8-5.6,5-5.6c1.5-0.1,3,0.6,3.9,1.9v-1c0-0.3,0.3-0.6,0.6-0.6c0,0,0,0,0,0c0.3,0,0.6,0.2,0.6,0.5c0,0,0,0,0,0v8.1
			c0,1.3,1.4,0.5,1.4,1.4C947.7,1045.7,947.5,1046,947.1,1046C947.1,1046,947.1,1046,947.1,1046L947.1,1046z M941.2,1036.2
			c-2.4,0-3.9,1.9-3.9,4.5s1.5,4.5,3.9,4.5c2.4,0,3.9-1.9,3.9-4.5S943.6,1036.2,941.2,1036.2z"/>
	</g>
	<g>
		<path id="S_1_" class="st7" d="M954.1,1036.3c-1.9,0-3.4,1.5-3.4,3.4c0,0,0,0,0,0v5.7c0,0.3-0.3,0.6-0.6,0.6s-0.6-0.3-0.6-0.6
			v-9.5c0-0.3,0.3-0.6,0.6-0.6s0.6,0.3,0.6,0.6v0.8c0.9-1,2.1-1.5,3.4-1.5c0.3,0,0.6,0.3,0.6,0.6
			C954.7,1036.1,954.4,1036.3,954.1,1036.3L954.1,1036.3z"/>
	</g>
	<g>
		<path id="T_1_" class="st7" d="M964.3,1044.8c-0.9,1-2.2,1.6-3.6,1.5c-3.2,0-5-2.6-5-5.7c0-3,1.8-5.6,5-5.6c1.4,0,2.7,0.5,3.6,1.5
			c0.1,0.1,0.2,0.2,0.2,0.4c0,0.3-0.3,0.6-0.6,0.6c-0.2,0-0.3-0.1-0.4-0.2c-0.7-0.8-1.7-1.2-2.7-1.2c-2.4,0-3.9,1.9-3.9,4.5
			s1.5,4.5,3.9,4.5c1,0,2-0.4,2.7-1.2c0.1-0.1,0.3-0.2,0.4-0.2c0.3,0,0.6,0.3,0.6,0.6C964.4,1044.5,964.4,1044.7,964.3,1044.8
			L964.3,1044.8z"/>
	</g>
	<g>
		<path id="W" class="st7" d="M975.4,1046c-0.3,0-0.6-0.2-0.6-0.5c0,0,0,0,0,0v-5.8c0-1.9-1.5-3.4-3.4-3.4c-1.9,0-3.4,1.5-3.4,3.4
			l0,0v5.8c0,0.3-0.3,0.6-0.6,0.6s-0.6-0.3-0.6-0.6v-13.1c0-0.3,0.3-0.6,0.6-0.6s0.6,0.3,0.6,0.6v4.3c0.9-1,2.1-1.6,3.4-1.5
			c2.5,0,4.5,2.1,4.6,4.6v5.8C975.9,1045.7,975.7,1046,975.4,1046C975.4,1046,975.4,1046,975.4,1046L975.4,1046z"/>
	</g>
	<g>
		<path id="X" class="st7" d="M979.2,1033.4c-0.6,0-1.1-0.5-1.1-1.1c0-0.6,0.5-1.1,1.1-1.1c0.6,0,1.1,0.5,1.1,1.1
			C980.3,1032.9,979.8,1033.4,979.2,1033.4C979.2,1033.4,979.2,1033.4,979.2,1033.4z M979.2,1046c-0.3,0-0.6-0.2-0.6-0.5
			c0,0,0,0,0,0v-9.5c0-0.3,0.2-0.6,0.5-0.6c0,0,0,0,0,0c0.3,0,0.6,0.2,0.6,0.5c0,0,0,0,0,0v9.5C979.8,1045.7,979.5,1046,979.2,1046
			C979.2,1046,979.2,1046,979.2,1046z"/>
	</g>
	<g>
		<path id="Y" class="st7" d="M991.1,1046c-0.3,0-0.6-0.2-0.6-0.5c0,0,0,0,0,0v-5.8c0-1.9-1.5-3.4-3.4-3.4c-1.9,0-3.4,1.5-3.4,3.4
			l0,0v5.8c0,0.3-0.3,0.6-0.6,0.6s-0.6-0.3-0.6-0.6v-9.5c0-0.3,0.3-0.6,0.6-0.6s0.6,0.3,0.6,0.6v0.6c1.7-1.9,4.6-2.1,6.4-0.4
			c1,0.9,1.5,2.1,1.5,3.4v5.8C991.7,1045.7,991.5,1046,991.1,1046C991.1,1046,991.1,1046,991.1,1046L991.1,1046z"/>
	</g>
	<path class="st7" d="M1004.3,1044.1c-1,1.4-2.7,2.3-4.5,2.2c-4.3,0-5.8-3.6-5.8-7.5c0-3.9,1.5-7.5,5.8-7.5c1.8-0.1,3.4,0.7,4.4,2.2
		c0.1,0.1,0.1,0.2,0.1,0.3c0,0.3-0.3,0.6-0.6,0.6c-0.2,0-0.3-0.1-0.4-0.2c-0.8-1.1-2.1-1.8-3.5-1.7c-3.3,0-4.7,2.6-4.7,6.3
		c0,3.7,1.4,6.3,4.7,6.3c1.4,0.1,2.7-0.6,3.5-1.7c0.1-0.2,0.3-0.3,0.4-0.3c0.3,0,0.6,0.3,0.6,0.6
		C1004.4,1043.9,1004.4,1044,1004.3,1044.1L1004.3,1044.1z"/>
	<g>
		<path id="W_1_" class="st7" d="M1015.1,1046c-0.3,0-0.6-0.2-0.6-0.5c0,0,0,0,0,0v-5.8c0-1.9-1.5-3.4-3.4-3.4
			c-1.9,0-3.4,1.5-3.4,3.4l0,0v5.8c0,0.3-0.3,0.6-0.6,0.6s-0.6-0.3-0.6-0.6v-13.1c0-0.3,0.3-0.6,0.6-0.6s0.6,0.3,0.6,0.6v4.3
			c0.9-1,2.1-1.6,3.4-1.5c2.5,0,4.5,2.1,4.6,4.6v5.8C1015.7,1045.7,1015.5,1046,1015.1,1046C1015.1,1046,1015.1,1046,1015.1,1046
			L1015.1,1046z"/>
	</g>
	<g>
		<path id="X_1_" class="st7" d="M1018.9,1033.4c-0.6,0-1.1-0.5-1.1-1.1c0-0.6,0.5-1.1,1.1-1.1c0.6,0,1.1,0.5,1.1,1.1
			C1020.1,1032.9,1019.6,1033.4,1018.9,1033.4C1019,1033.4,1018.9,1033.4,1018.9,1033.4z M1018.9,1046c-0.3,0-0.6-0.2-0.6-0.5
			c0,0,0,0,0,0v-9.5c0-0.3,0.2-0.6,0.5-0.6c0,0,0,0,0,0c0.3,0,0.6,0.2,0.6,0.5c0,0,0,0,0,0v9.5
			C1019.5,1045.7,1019.3,1046,1018.9,1046C1019,1046,1019,1046,1018.9,1046z"/>
	</g>
	<g>
		<path id="Y_1_" class="st7" d="M1030.9,1046c-0.3,0-0.6-0.2-0.6-0.5c0,0,0,0,0,0v-5.8c0-1.9-1.5-3.4-3.4-3.4
			c-1.9,0-3.4,1.5-3.4,3.4l0,0v5.8c0,0.3-0.3,0.6-0.6,0.6s-0.6-0.3-0.6-0.6v-9.5c0-0.3,0.3-0.6,0.6-0.6s0.6,0.3,0.6,0.6v0.6
			c1.7-1.9,4.6-2.1,6.4-0.4c1,0.9,1.5,2.1,1.5,3.4v5.8C1031.5,1045.7,1031.2,1046,1030.9,1046C1030.9,1046,1030.9,1046,1030.9,1046
			L1030.9,1046z"/>
	</g>
	<g>
		<path id="V_1_" class="st7" d="M1044.6,1046L1044.6,1046c-1,0-1.8-0.7-2-1.6c-0.9,1.2-2.3,2-3.9,1.9c-3.3,0-5-2.7-5-5.7
			c0-3,1.8-5.6,5-5.6c1.5-0.1,3,0.6,3.9,1.9v-1c0-0.3,0.3-0.6,0.6-0.6c0,0,0,0,0,0c0.3,0,0.6,0.2,0.6,0.5c0,0,0,0,0,0v8.1
			c0,1.3,1.4,0.5,1.4,1.4C1045.1,1045.7,1044.9,1046,1044.6,1046C1044.6,1046,1044.6,1046,1044.6,1046L1044.6,1046z M1038.7,1036.2
			c-2.4,0-3.9,1.9-3.9,4.5s1.5,4.5,3.9,4.5c2.4,0,3.9-1.9,3.9-4.5S1041.1,1036.2,1038.7,1036.2z"/>
	</g>
</g>
<g>
	<path class="st7" d="M49.2,80.5c-4.4,0-10.5-1.8-13.9-5c-0.5-0.5-0.9-1.1-0.8-1.9c0-1.4,1.2-2.6,2.6-2.6c0.9,0,1.2,0.3,2.3,1.1
		c2.9,2.1,6.3,3.2,9.9,3.2c7.1,0,10.3-2.6,10.3-7c0-12.5-23.9-5.4-23.9-21.7c0-7.3,6.2-11,14.1-11c4.1,0,10.1,1.6,13,5.1
		c0.4,0.4,0.7,1,0.7,1.6c0,1.4-1.2,2.6-2.6,2.7c-0.9,0-1.4-0.4-2.4-1.3c-2.5-2-5.5-3-8.7-2.9c-6.5,0-8.9,2.6-8.9,5.8
		c0,11.2,23.9,4.6,23.9,21.7C64.7,77.3,57.2,80.5,49.2,80.5L49.2,80.5z M92.5,79.6c-1.2,0.1-2.3-0.8-2.5-2c-2.5,1.9-5.5,3-8.6,3
		c-7.5-0.1-13.6-6.2-13.7-13.7V50.3c0-1.4,1.1-2.6,2.5-2.6c1.4,0,2.6,1.1,2.6,2.5v16.7c-0.1,4.7,3.7,8.6,8.5,8.6s8.6-3.7,8.6-8.5
		c0-0.1,0-0.1,0-0.2V50.3c-0.1-1.3,0.8-2.5,2.1-2.6c0.1,0,0.3,0,0.4,0c1.4-0.1,2.5,1,2.6,2.3c0,0.1,0,0.2,0,0.3V77
		c0.1,1.3-0.9,2.4-2.3,2.5C92.7,79.6,92.6,79.6,92.5,79.6L92.5,79.6z M116.2,80.5c-3.7,0.1-7.3-1.3-9.9-4v13c0,1.4-1,2.5-2.4,2.6
		c-0.1,0-0.1,0-0.2,0c-1.4,0-2.5-1.1-2.5-2.4c0-0.1,0-0.1,0-0.2V50.2c-0.1-1.4,1-2.5,2.4-2.6c0.1,0,0.1,0,0.2,0
		c1.4-0.1,2.6,1,2.6,2.4c0,0.1,0,0.1,0,0.2c2.7-2.4,6.3-3.7,9.9-3.7c9.7,0,15.1,7.9,15.1,16.9C131.3,72.6,125.9,80.5,116.2,80.5
		L116.2,80.5z M116.2,51.7c-5.9,0-9.9,4.7-9.9,11.8c0,7.2,3.9,11.9,9.9,11.9s9.9-4.7,9.9-11.9C126.1,56.4,122.2,51.7,116.2,51.7z
		 M162.2,66.2H140c0.8,5.6,4.4,9.2,9.7,9.2c2.7,0.1,5.4-1.1,7.1-3.1c0.4-0.6,1.1-0.9,1.9-1c1.4,0,2.6,1.2,2.7,2.6
		c0,0.7-0.2,1.3-1.4,2.5c-2.8,2.6-6.4,4.1-10.3,4c-9.7,0-15.1-8-15.1-17c0-8.9,5.4-16.9,15.1-16.9c9.8,0,15,8,15,16.9
		C164.7,65,163.6,66.1,162.2,66.2C162.2,66.2,162.2,66.2,162.2,66.2L162.2,66.2z M149.7,51.7c-5.6,0-8.9,4.1-9.7,9.3h19.4
		C158.6,55.3,155,51.7,149.7,51.7z"/>
	<g>
		<path id="Z" class="st7" d="M182.4,51.7c-4.7,0.1-8.5,3.9-8.5,8.6v16.6c0,1.4-1,2.5-2.4,2.6c-0.1,0-0.1,0-0.2,0
			c-1.4,0-2.5-1-2.5-2.4c0,0,0-0.1,0-0.1V50.2c0-1.4,1.1-2.6,2.5-2.6c0,0,0,0,0,0c1.3-0.1,2.4,0.8,2.6,2c2.4-2,5.5-3,8.6-3.1
			c1.4,0,2.6,1.1,2.6,2.5c0,1.4-1.1,2.6-2.5,2.6C182.6,51.7,182.5,51.7,182.4,51.7z"/>
	</g>
	<g>
		<path id="a" class="st7" d="M210.6,76c-2.7,3-6.7,4.7-10.7,4.6c-9.7,0-15.1-7.9-15.1-17c0-9,5.4-16.9,15.1-16.9
			c4.1-0.1,8,1.5,10.7,4.6c0.4,0.5,0.7,1.1,0.7,1.7c-0.1,1.4-1.3,2.5-2.7,2.6c-0.7,0-1.4-0.3-1.9-0.8c-1.7-2-4.3-3-6.9-2.9
			c-6,0-9.9,4.7-9.9,11.8c0,7.2,3.9,11.9,9.9,11.9c2.6,0.1,5.1-1,6.9-2.9c0.5-0.6,1.1-0.9,1.9-0.9c1.4-0.1,2.6,1,2.7,2.5
			C211.3,74.8,211.1,75.4,210.6,76L210.6,76z"/>
	</g>
	<g>
		<path id="b" class="st7" d="M245,79.5c-2.3,0-4.4-1.3-5.3-3.4c-2.7,2.9-6.6,4.6-10.6,4.4c-9.8,0-15.1-8-15.1-17
			s5.4-16.9,15.1-16.9c3.7-0.1,7.3,1.3,9.9,4v-0.2c-0.1-1.4,0.9-2.6,2.2-2.7c0.1,0,0.2,0,0.3,0c1.3-0.1,2.5,0.8,2.6,2.2
			c0,0.1,0,0.2,0,0.4v23.2c-0.1,0.5,0.3,1,0.8,1.1c1.4,0,2.6,1.1,2.6,2.5C247.5,78.4,246.4,79.5,245,79.5
			C245,79.5,245,79.5,245,79.5L245,79.5z M229.1,51.7c-6,0-9.9,4.7-9.9,11.8c0,7.2,3.9,11.9,9.9,11.9c6.1,0,9.9-4.7,9.9-11.9
			C239,56.4,235.1,51.7,229.1,51.7z"/>
	</g>
	<path class="st7" d="M265.8,80.5c-3.7,0.1-7.3-1.3-9.9-4v13c0,1.4-1,2.5-2.4,2.6c-0.1,0-0.1,0-0.2,0c-1.4,0-2.5-1.1-2.5-2.4
		c0-0.1,0-0.1,0-0.2V50.2c-0.1-1.4,1-2.5,2.4-2.6c0.1,0,0.1,0,0.2,0c1.4-0.1,2.6,1,2.6,2.4c0,0.1,0,0.1,0,0.2
		c2.7-2.4,6.3-3.7,9.9-3.7c9.7,0,15.1,7.9,15.1,16.9C280.8,72.6,275.4,80.5,265.8,80.5L265.8,80.5z M265.8,51.7
		c-5.9,0-9.9,4.7-9.9,11.8c0,7.2,3.9,11.9,9.9,11.9s9.9-4.7,9.9-11.9C275.7,56.4,271.8,51.7,265.8,51.7z"/>
	<g>
		<path id="b_1_" class="st7" d="M315.2,79.5c-2.3,0-4.4-1.3-5.3-3.4c-2.7,2.9-6.6,4.6-10.6,4.4c-9.8,0-15.1-8-15.1-17
			s5.4-16.9,15.1-16.9c3.7-0.1,7.3,1.3,9.9,4v-0.2c-0.1-1.4,0.9-2.6,2.2-2.7c0.1,0,0.2,0,0.3,0c1.3-0.1,2.5,0.8,2.6,2.2
			c0,0.1,0,0.2,0,0.4v23.2c-0.1,0.5,0.3,1,0.8,1.1c1.4,0,2.6,1.1,2.6,2.5C317.7,78.4,316.6,79.5,315.2,79.5
			C315.2,79.5,315.2,79.5,315.2,79.5L315.2,79.5z M299.3,51.7c-6,0-9.9,4.7-9.9,11.8c0,7.2,3.9,11.9,9.9,11.9
			c6.1,0,9.9-4.7,9.9-11.9C309.2,56.4,305.3,51.7,299.3,51.7z"/>
	</g>
	<g>
		<path id="a_1_" class="st7" d="M345.3,76c-2.7,3-6.7,4.7-10.7,4.6c-9.7,0-15.1-7.9-15.1-17c0-9,5.4-16.9,15.1-16.9
			c4.1-0.1,8,1.5,10.7,4.6c0.4,0.5,0.7,1.1,0.7,1.7c-0.1,1.4-1.3,2.5-2.7,2.6c-0.7,0-1.4-0.3-1.9-0.8c-1.7-2-4.3-3-6.9-2.9
			c-6,0-9.9,4.7-9.9,11.8c0,7.2,3.9,11.9,9.9,11.9c2.6,0.1,5.1-1,6.9-2.9c0.5-0.6,1.1-0.9,1.9-0.9c1.4-0.1,2.6,1,2.7,2.5
			C346.1,74.8,345.8,75.4,345.3,76L345.3,76z"/>
	</g>
	<path class="st7" d="M352.9,42.8c-2.4,0-4.3-1.9-4.3-4.3c0-2.4,1.9-4.3,4.3-4.3c2.4,0,4.3,1.9,4.3,4.3c0,0,0,0,0,0
		C357.2,40.8,355.3,42.8,352.9,42.8C352.9,42.8,352.9,42.8,352.9,42.8z M352.9,79.5c-1.4,0.1-2.6-1-2.6-2.4c0,0,0-0.1,0-0.1V50.2
		c0-1.4,1.1-2.6,2.5-2.6c0.1,0,0.1,0,0.2,0c1.4,0,2.5,1.1,2.5,2.4c0,0.1,0,0.1,0,0.2V77c0.1,1.3-1,2.5-2.3,2.5
		C353,79.5,353,79.5,352.9,79.5z M371.9,79.5h-1c-5.7,0-7.9-3-7.9-7.9V52.7h-1.8c-1.4,0-2.6-1.1-2.6-2.5s1.1-2.6,2.5-2.6h1.8v-8.3
		c0-1.3,1-2.5,2.3-2.5c0.1,0,0.2,0,0.2,0c1.3-0.1,2.4,0.9,2.5,2.3c0,0.1,0,0.2,0,0.3v8.3h3.8c1.4,0,2.5,1.1,2.5,2.5c0,0,0,0,0,0.1
		c0.1,1.3-1,2.5-2.3,2.6c-0.1,0-0.1,0-0.2,0h-3.8v19.4c0,1.7,0.6,2.3,2.3,2.3h1.5c1.4-0.1,2.5,1,2.6,2.4c0,0.1,0,0.1,0,0.2
		c0.1,1.3-1,2.5-2.3,2.6C372.1,79.5,372,79.5,371.9,79.5L371.9,79.5z"/>
	<g>
		<path id="c" class="st7" d="M391.1,80.5c-9.7,0-15.1-7.9-15.1-17c0-9,5.4-16.9,15.1-16.9s15.1,7.9,15.1,16.9
			C406.2,72.6,400.8,80.5,391.1,80.5z M391.1,51.7c-6,0-9.9,4.7-9.9,11.8c0,7.2,3.9,11.9,9.9,11.9c6.1,0,9.9-4.7,9.9-11.9
			C401,56.4,397.2,51.7,391.1,51.7z"/>
	</g>
	<g>
		<path id="Z_1_" class="st7" d="M424.6,51.7c-4.7,0.1-8.5,3.9-8.5,8.6v16.6c0,1.4-1,2.5-2.4,2.6c-0.1,0-0.1,0-0.2,0
			c-1.4,0-2.5-1-2.5-2.4c0,0,0-0.1,0-0.1V50.2c0-1.4,1.1-2.6,2.5-2.6c0,0,0,0,0,0c1.3-0.1,2.4,0.8,2.6,2c2.4-2,5.5-3,8.6-3.1
			c1.4,0,2.6,1.1,2.6,2.5c0,1.4-1.1,2.6-2.5,2.6C424.7,51.7,424.6,51.7,424.6,51.7z"/>
	</g>
	<path class="st7" d="M459.4,79.5h-16.1c-1.4,0-2.5-1.1-2.6-2.5V39.4c0-1.4,1.1-2.5,2.4-2.6c0,0,0.1,0,0.1,0H458
		c6.1,0,11.1,5,11.2,11.1c0,3-1.2,5.9-3.4,8c3.9,2.2,6.3,6.4,6.3,10.9C472.1,73.8,466.4,79.5,459.4,79.5L459.4,79.5z M458,41.9
		h-12.2V54H458c3.3,0,6.1-2.6,6.1-6s-2.6-6.1-6-6.1C458.1,41.9,458.1,41.9,458,41.9L458,41.9z M459.4,59.1h-13.6v15.3h13.6
		c4.2,0,7.6-3.4,7.6-7.7C467,62.5,463.6,59.1,459.4,59.1z M500.1,79.6c-1.2,0.1-2.3-0.8-2.5-2c-2.5,1.9-5.5,3-8.6,3
		c-7.5-0.1-13.6-6.2-13.7-13.7V50.3c0-1.4,1.1-2.6,2.5-2.6c1.4,0,2.6,1.1,2.6,2.5l0,0v16.7c-0.1,4.7,3.7,8.6,8.5,8.6
		c4.7,0.1,8.6-3.7,8.6-8.5c0-0.1,0-0.1,0-0.2V50.3c-0.1-1.3,0.8-2.5,2.1-2.6c0.1,0,0.3,0,0.4,0c1.4-0.1,2.5,1,2.6,2.3
		c0,0.1,0,0.2,0,0.3V77c0.1,1.3-0.9,2.4-2.3,2.5C500.3,79.6,500.2,79.6,500.1,79.6L500.1,79.6z"/>
	<g>
		<path id="d" class="st7" d="M518.8,80.5c-3.3,0-8.8-1-11.6-4.5c-0.9-1.2-0.7-2.8,0.5-3.7c0.5-0.4,1.1-0.6,1.7-0.5
			c0.7,0,1.4,0.4,1.9,1c1.9,2,4.9,2.6,7.6,2.6c5.4,0,7.1-1.9,7.1-4.6c0-7.7-18.3-2.9-18.3-15.3c0-6.5,6.1-8.9,11.8-8.9
			c3.2,0,10.9,1.6,10.9,5c0,1.4-1.1,2.6-2.5,2.7c-0.7-0.1-1.4-0.3-2-0.8c-1.6-1.4-4-1.8-6.4-1.8c-5,0-6.7,1.9-6.7,3.8
			c0,7.1,18.4,2.5,18.4,15.3C531.1,77.9,525.2,80.5,518.8,80.5L518.8,80.5z"/>
	</g>
	<g>
		<path id="e" class="st7" d="M561,66.2h-22.2c0.8,5.6,4.4,9.2,9.7,9.2c2.7,0.1,5.4-1.1,7.1-3.1c0.4-0.6,1.1-0.9,1.9-1
			c1.4,0,2.6,1.2,2.7,2.6c0,0.7-0.2,1.3-1.4,2.5c-2.8,2.6-6.4,4.1-10.3,4c-9.7,0-15.1-8-15.1-17c0-8.9,5.4-16.9,15.1-16.9
			c9.8,0,15,8,15,16.9C563.6,65,562.5,66.1,561,66.2C561.1,66.2,561,66.2,561,66.2L561,66.2z M548.6,51.7c-5.6,0-8.9,4.1-9.7,9.3
			h19.4C557.4,55.3,553.8,51.7,548.6,51.7L548.6,51.7z"/>
	</g>
	<g>
		<path id="d_1_" class="st7" d="M577.6,80.5c-3.3,0-8.8-1-11.6-4.5c-0.9-1.2-0.7-2.8,0.5-3.7c0.5-0.4,1.1-0.6,1.7-0.5
			c0.7,0,1.4,0.4,1.9,1c1.9,2,4.9,2.6,7.6,2.6c5.4,0,7.1-1.9,7.1-4.6c0-7.7-18.3-2.9-18.3-15.3c0-6.5,6.1-8.9,11.8-8.9
			c3.2,0,10.9,1.6,10.9,5c0,1.4-1.1,2.6-2.5,2.7c-0.7-0.1-1.4-0.3-2-0.8c-1.6-1.4-4-1.8-6.4-1.8c-5,0-6.7,1.9-6.7,3.8
			c0,7.1,18.4,2.5,18.4,15.3C589.9,77.9,584,80.5,577.6,80.5L577.6,80.5z"/>
	</g>
	<path class="st7" d="M636.2,79.5c-1,0-1.9-0.6-2.3-1.6l-3.2-7.8h-20l-3.2,7.8c-0.4,0.9-1.2,1.5-2.2,1.6c-1.4,0-2.6-1.1-2.7-2.5
		c0-0.4,0.1-0.7,0.2-1l15.4-37.5c0.3-1.1,1.3-1.8,2.5-1.9c1.1,0.1,2.1,0.8,2.5,1.9L638.7,76c0.1,0.3,0.2,0.7,0.2,1
		C638.8,78.4,637.7,79.5,636.2,79.5C636.2,79.5,636.2,79.5,636.2,79.5z M620.7,45.9L612.9,65h15.7L620.7,45.9z M655.2,51.7
		c-4.7,0.1-8.5,3.9-8.5,8.6v16.6c0,1.4-1,2.5-2.4,2.6c-0.1,0-0.2,0-0.2,0c-1.4,0-2.5-1-2.5-2.4c0,0,0-0.1,0-0.1V50.2
		c0-1.4,1.1-2.6,2.5-2.6c0,0,0,0,0,0c1.3-0.1,2.4,0.8,2.6,2c2.4-2,5.5-3,8.6-3.1c1.4,0,2.6,1.1,2.6,2.5c0,1.4-1.1,2.6-2.5,2.6
		C655.3,51.7,655.2,51.7,655.2,51.7z"/>
	<g>
		<path id="e_1_" class="st7" d="M683.7,66.2h-22.2c0.8,5.6,4.4,9.2,9.7,9.2c2.7,0.1,5.4-1.1,7.1-3.1c0.4-0.6,1.1-0.9,1.9-1
			c1.4,0,2.6,1.2,2.7,2.6c0,0.7-0.2,1.3-1.4,2.5c-2.8,2.6-6.4,4.1-10.3,4c-9.7,0-15.1-8-15.1-17c0-8.9,5.4-16.9,15.1-16.9
			c9.8,0,15,8,15,16.9C686.2,65,685.1,66.1,683.7,66.2C683.7,66.2,683.7,66.2,683.7,66.2L683.7,66.2z M671.2,51.7
			c-5.6,0-8.9,4.1-9.7,9.3h19.4C680.1,55.3,676.5,51.7,671.2,51.7L671.2,51.7z"/>
	</g>
	<path class="st7" d="M732.1,79.5c-2.3,0-4.4-1.3-5.3-3.4c-2.7,2.9-6.6,4.6-10.6,4.4c-9.8,0-15.1-8-15.1-17s5.4-16.9,15.1-16.9
		c3.7-0.1,7.3,1.3,9.9,4v-0.2c-0.1-1.4,0.9-2.6,2.2-2.7c0.1,0,0.2,0,0.3,0c1.3-0.1,2.5,0.8,2.6,2.2c0,0.1,0,0.2,0,0.4v23.2
		c-0.1,0.5,0.3,1,0.8,1.1c1.4,0,2.6,1.1,2.6,2.5S733.5,79.5,732.1,79.5C732.1,79.5,732.1,79.5,732.1,79.5L732.1,79.5z M716.2,51.7
		c-6,0-9.9,4.7-9.9,11.8c0,7.2,3.9,11.9,9.9,11.9c6.1,0,9.9-4.7,9.9-11.9C726.1,56.4,722.3,51.7,716.2,51.7z M774,41.9h-10V77
		c0.1,1.3-1,2.5-2.3,2.5c-0.1,0-0.1,0-0.2,0c-1.4,0-2.5-1-2.6-2.4c0,0,0-0.1,0-0.1V41.9h-9.8c-1.4,0.1-2.6-1-2.6-2.4
		c0-0.1,0-0.1,0-0.2c0-1.4,1.1-2.5,2.5-2.5c0,0,0.1,0,0.1,0h25c1.4,0,2.6,1.1,2.6,2.5C776.5,40.7,775.4,41.9,774,41.9
		C774,41.9,774,41.9,774,41.9L774,41.9z M804.9,79.5c-1.3,0.1-2.5-1-2.5-2.3c0-0.1,0-0.1,0-0.2V60.3c0-4.7-3.8-8.6-8.5-8.6
		c-4.7,0-8.6,3.8-8.6,8.5c0,0,0,0,0,0v16.6c0.1,1.4-1,2.6-2.5,2.6c-0.1,0-0.1,0-0.2,0c-1.4,0-2.5-1.1-2.5-2.4c0-0.1,0-0.1,0-0.2
		V39.4c0-1.4,1.2-2.6,2.6-2.6c1.4,0,2.5,1.1,2.6,2.5v10.4c2.3-2.1,5.4-3.2,8.5-3.1c7.5,0.1,13.6,6.2,13.7,13.7v16.6
		c0.1,1.4-1,2.5-2.3,2.6C805.1,79.5,805,79.5,804.9,79.5L804.9,79.5z M814.6,42.8c-2.4,0-4.3-1.9-4.3-4.3c0-2.4,1.9-4.3,4.3-4.3
		s4.3,1.9,4.3,4.3c0,0,0,0,0,0C819,40.8,817,42.8,814.6,42.8C814.7,42.8,814.6,42.8,814.6,42.8z M814.6,79.5c-1.4,0.1-2.6-1-2.6-2.4
		c0,0,0-0.1,0-0.1V50.2c0-1.4,1.1-2.6,2.5-2.6c0.1,0,0.1,0,0.2,0c1.4,0,2.5,1.1,2.5,2.4c0,0.1,0,0.1,0,0.2V77c0.1,1.3-1,2.5-2.3,2.5
		C814.8,79.5,814.7,79.5,814.6,79.5L814.6,79.5z M848.3,79.5c-1.3,0.1-2.5-1-2.5-2.3c0-0.1,0-0.1,0-0.2V60.3c0-4.7-3.8-8.6-8.5-8.6
		c-4.7,0-8.6,3.8-8.6,8.5c0,0,0,0,0,0v16.6c0.1,1.4-1,2.6-2.5,2.6c-0.1,0-0.1,0-0.2,0c-1.4,0-2.5-1.1-2.5-2.4c0-0.1,0-0.1,0-0.2
		V50.2c-0.1-1.3,0.9-2.4,2.2-2.5c0.1,0,0.2,0,0.3,0c1.2-0.1,2.3,0.8,2.6,2c5.9-4.7,14.5-3.8,19.3,2.1c1.9,2.4,3,5.4,3,8.5v16.6
		c0.1,1.4-1,2.5-2.3,2.6C848.5,79.5,848.4,79.5,848.3,79.5L848.3,79.5z M870.1,93.2c-3.7,0-12.7-1.3-12.7-4.9c0-1.4,1.2-2.6,2.6-2.7
		c1.4,0,0.2,0.2,3.4,1.4c2.2,0.8,4.5,1.2,6.8,1.1c6.7,0,9.9-3.2,9.9-9.5v-2.7c-2.7,2.4-6.3,3.7-9.9,3.6c-9.5,0-15.1-6.7-15.1-16
		c0-9,5.4-16.9,15.1-16.9c4.2,0,7.4,1.3,9.9,3.8v-0.2c0-1.4,1.1-2.6,2.5-2.6c0,0,0,0,0.1,0c1.4,0,2.5,1.1,2.6,2.5c0,0,0,0.1,0,0.1
		v28.4C885.2,88.1,879.5,93.2,870.1,93.2L870.1,93.2z M870.1,51.7c-6,0-9.9,4.7-9.9,11.8c0,6.8,3.6,10.9,9.9,10.9s9.9-4,9.9-10.9
		C880,56.4,876.2,51.7,870.1,51.7z M931.1,79.5c-0.9,0-1.7-0.5-2.2-1.3l-20.2-30.3v29c0,1.4-1,2.5-2.4,2.6c-0.1,0-0.2,0-0.2,0
		c-1.4,0-2.5-1-2.5-2.4c0,0,0-0.1,0-0.1V39.4c0-1.4,1.1-2.6,2.5-2.6c0.1,0,0.1,0,0.2,0c0.9,0,1.7,0.5,2.2,1.3l20.2,30.3v-29
		c0-1.4,1.2-2.6,2.6-2.6c1.4,0,2.5,1.1,2.6,2.5v37.6C933.7,78.3,932.6,79.5,931.1,79.5C931.2,79.5,931.1,79.5,931.1,79.5L931.1,79.5
		z"/>
	<g>
		<path id="c_1_" class="st7" d="M953.5,80.5c-9.7,0-15.1-7.9-15.1-17c0-9,5.4-16.9,15.1-16.9s15.1,7.9,15.1,16.9
			C968.6,72.6,963.2,80.5,953.5,80.5z M953.5,51.7c-6,0-9.9,4.7-9.9,11.8c0,7.2,3.9,11.9,9.9,11.9c6.1,0,9.9-4.7,9.9-11.9
			C963.4,56.4,959.6,51.7,953.5,51.7z"/>
	</g>
	<path class="st7" d="M1013.2,51.1l-9.3,26.3c-0.3,1.2-1.4,2.1-2.6,2.1c-1.3,0-2-0.5-2.5-2.1l-7-19.8l-7.1,19.8
		c-0.3,1.4-1.6,2.3-3,2.1c-1-0.2-1.9-1-2.1-2.1l-9.2-26.3c-0.1-0.3-0.1-0.6-0.1-1c0.1-1.4,1.2-2.5,2.6-2.5c1.1,0,2,0.7,2.3,1.7l7,20
		l7.1-19.6c0.5-1.4,1.1-2.1,2.5-2.1c1.3,0,2,0.7,2.5,2.1l7,19.6l7-20c0.3-1,1.2-1.7,2.3-1.7c1.5-0.1,2.7,1.1,2.8,2.5
		C1013.4,50.5,1013.3,50.8,1013.2,51.1L1013.2,51.1z"/>
</g>
<g class="st15">
	<path class="st7" d="M43,128.1c-2.9,0-6.9-1.2-9.1-3.3c-0.2-0.2-0.3-0.5-0.3-0.8c0-0.6,0.5-1.1,1.1-1.1c0.5,0,0.4,0.1,1.2,0.7
		c2.1,1.5,4.6,2.3,7.1,2.3c4.8,0,7.6-1.8,7.6-5.2c0-9-16.1-4-16.1-14.4c0-4.6,4-6.7,8.9-6.7c2.7,0,6.6,1.2,8.3,3.6
		c0.1,0.2,0.2,0.4,0.2,0.6c0,0.6-0.5,1.1-1.1,1.1c-0.5,0-0.5-0.2-1.2-0.8c-1.7-1.5-3.9-2.4-6.2-2.3c-4.5,0-6.7,1.7-6.7,4.5
		c0,8.2,16.1,3.4,16.1,14.4C52.8,126.1,48.1,128.1,43,128.1L43,128.1z"/>
	<g>
		<path id="f" class="st7" d="M71.3,127.5c-0.6,0-1.1-0.4-1.1-1c0,0,0,0,0,0v-11.1c0-3.6-2.9-6.5-6.5-6.5s-6.5,2.9-6.5,6.5
			c0,0,0,0,0,0v11.1c0,0.6-0.5,1.1-1.1,1.1s-1.1-0.5-1.1-1.1v-24.9c0-0.6,0.5-1.1,1.1-1.1s1.1,0.5,1.1,1.1l0,0v8.1
			c1.6-1.9,4-3,6.5-2.9c4.8,0,8.6,3.9,8.7,8.7v11.1C72.4,127,71.9,127.5,71.3,127.5C71.3,127.5,71.3,127.5,71.3,127.5z"/>
	</g>
	<g>
		<path id="g" class="st7" d="M95.7,127.5L95.7,127.5c-1.8,0-3.4-1.2-3.8-3c-1.7,2.4-4.5,3.7-7.4,3.6c-6.2,0-9.5-5.1-9.5-10.8
			c0-5.7,3.4-10.7,9.5-10.7c2.9-0.1,5.7,1.2,7.4,3.6v-1.9c0-0.6,0.5-1.1,1.1-1.1c0,0,0,0,0,0c0.6,0,1,0.4,1.1,1c0,0,0,0,0,0.1v15.3
			c0,2.4,2.7,0.9,2.7,2.7C96.9,127,96.4,127.5,95.7,127.5C95.8,127.5,95.8,127.5,95.7,127.5L95.7,127.5z M84.6,108.8
			c-4.5,0-7.4,3.6-7.4,8.6s2.9,8.6,7.4,8.6c4.5,0,7.4-3.6,7.4-8.6S89.1,108.8,84.6,108.8z"/>
	</g>
	<g>
		<path id="h" class="st7" d="M115.1,127.5c-0.6,0-1.1-0.4-1.1-1c0,0,0,0,0,0v-11.1c0-3.6-2.9-6.5-6.5-6.5s-6.5,2.9-6.5,6.5v11.1
			c0,0.6-0.5,1.1-1.1,1.1s-1.1-0.5-1.1-1.1v-18c0-0.6,0.5-1.1,1.1-1.1s1.1,0.5,1.1,1.1v1.2c3.2-3.6,8.6-3.9,12.2-0.8
			c1.9,1.6,2.9,4,2.9,6.5v11.1C116.1,127,115.6,127.5,115.1,127.5C115.1,127.5,115.1,127.5,115.1,127.5z"/>
	</g>
	<g>
		<path id="i" class="st7" d="M128.3,136.2c-3.2,0-7.8-1.2-7.8-2.6c0-0.6,0.5-1.2,1.1-1.2c0.7,0.2,1.4,0.6,2,0.9
			c1.5,0.5,3.1,0.7,4.7,0.7c4.9,0,7.4-2.4,7.4-7.1v-2.7c-1.8,2.2-4.5,3.4-7.4,3.2c-6,0-9.5-4.3-9.5-10.1c0-5.7,3.4-10.7,9.5-10.7
			c2.9-0.1,5.7,1.2,7.4,3.6v-1.8c0-0.6,0.5-1.1,1.1-1.1c0.6,0,1.1,0.5,1.1,1.1v18.5C137.8,133,134.2,136.2,128.3,136.2L128.3,136.2z
			 M128.3,108.8c-4.5,0-7.4,3.6-7.4,8.6c0,4.9,2.7,7.9,7.4,7.9c4.7,0,7.4-3,7.4-7.9C135.7,112.5,132.8,108.8,128.3,108.8z"/>
	</g>
	<g>
		<path id="j" class="st7" d="M158,127.5c-0.6,0-1.1-0.4-1.1-1c0,0,0,0,0,0v-11.1c0-3.6-2.9-6.5-6.5-6.5c-3.6,0-6.5,2.9-6.5,6.5
			v11.1c0,0.6-0.5,1.1-1.1,1.1c-0.6,0-1.1-0.5-1.1-1.1v-24.9c0-0.6,0.5-1.1,1.1-1.1c0.6,0,1.1,0.5,1.1,1.1l0,0v8.1
			c1.6-1.9,4-3,6.5-2.9c4.8,0,8.6,3.9,8.7,8.7v11.1C159.1,127,158.6,127.5,158,127.5C158,127.5,158,127.5,158,127.5L158,127.5z"/>
	</g>
	<g>
		<path id="g_1_" class="st7" d="M182.4,127.5L182.4,127.5c-1.8,0-3.4-1.2-3.8-3c-1.7,2.4-4.5,3.7-7.4,3.6c-6.2,0-9.5-5.1-9.5-10.8
			c0-5.7,3.4-10.7,9.5-10.7c2.9-0.1,5.7,1.2,7.4,3.6v-1.9c0-0.6,0.5-1.1,1.1-1.1c0,0,0,0,0,0c0.6,0,1,0.4,1.1,1c0,0,0,0,0,0.1v15.3
			c0,2.4,2.7,0.9,2.7,2.7C183.5,127,183.1,127.5,182.4,127.5C182.5,127.5,182.4,127.5,182.4,127.5L182.4,127.5z M171.3,108.8
			c-4.5,0-7.4,3.6-7.4,8.6s2.9,8.6,7.4,8.6c4.5,0,7.4-3.6,7.4-8.6S175.8,108.8,171.3,108.8z"/>
	</g>
	<g>
		<path id="k" class="st7" d="M186.6,103.7c-1.2,0-2.2-1-2.2-2.2c0-1.2,1-2.2,2.2-2.2s2.2,1,2.2,2.2c0,0,0,0,0,0
			C188.7,102.7,187.8,103.7,186.6,103.7C186.6,103.7,186.6,103.7,186.6,103.7z M186.6,127.5c-0.6,0-1.1-0.4-1.1-1c0,0,0-0.1,0-0.1
			v-18c0-0.6,0.5-1.1,1-1.1c0,0,0,0,0.1,0c0.6,0,1,0.4,1.1,1c0,0,0,0,0,0.1v18C187.7,127,187.2,127.5,186.6,127.5
			C186.6,127.5,186.6,127.5,186.6,127.5z"/>
	</g>
	<g>
		<path id="f_1_" class="st7" d="M215.6,127.5c-0.6,0-1.1-0.4-1.1-1c0,0,0,0,0,0v-11.1c0-3.6-2.9-6.5-6.5-6.5
			c-3.6,0-6.5,2.9-6.5,6.5c0,0,0,0,0,0v11.1c0,0.6-0.5,1.1-1.1,1.1s-1.1-0.5-1.1-1.1v-24.9c0-0.6,0.5-1.1,1.1-1.1s1.1,0.5,1.1,1.1
			l0,0v8.1c1.6-1.9,4-3,6.5-2.9c4.8,0,8.6,3.9,8.7,8.7v11.1C216.6,127,216.2,127.5,215.6,127.5C215.6,127.5,215.6,127.5,215.6,127.5
			z"/>
	</g>
	<g>
		<path id="g_2_" class="st7" d="M240,127.5L240,127.5c-1.8,0-3.4-1.2-3.8-3c-1.7,2.4-4.5,3.7-7.4,3.6c-6.2,0-9.5-5.1-9.5-10.8
			c0-5.7,3.4-10.7,9.5-10.7c2.9-0.1,5.7,1.2,7.4,3.6v-1.9c0-0.6,0.5-1.1,1.1-1.1c0,0,0,0,0,0c0.6,0,1,0.4,1.1,1c0,0,0,0,0,0.1v15.3
			c0,2.4,2.7,0.9,2.7,2.7C241.1,127,240.6,127.5,240,127.5C240,127.5,240,127.5,240,127.5L240,127.5z M228.8,108.8
			c-4.5,0-7.4,3.6-7.4,8.6s2.9,8.6,7.4,8.6c4.5,0,7.4-3.6,7.4-8.6S233.3,108.8,228.8,108.8z"/>
	</g>
	<g>
		<path id="l" class="st7" d="M249.4,128.2c-2.3,0-6.1-0.8-7.4-3c-0.1-0.2-0.2-0.4-0.2-0.6c-0.1-0.6,0.4-1.1,0.9-1.1
			c0.4,0,0.8,0.2,1,0.5c1.4,1.7,3.8,2,5.7,2c3.7,0,5.5-1.2,5.5-3.7c0-5.7-12.5-2.7-12.5-10.3c0-3.8,3.8-5.3,7.3-5.3
			c2,0,5,0.7,6.5,2.2c0.2,0.2,0.3,0.4,0.3,0.7c0,0.6-0.6,1.1-1.2,1.1c-0.3,0-0.5-0.1-0.7-0.3c-1.4-1.1-3.2-1.7-5-1.6
			c-3.3,0-5.1,1.3-5.1,3.2c0,5.3,12.5,2.5,12.5,10.3C257.1,126.7,253.3,128.2,249.4,128.2L249.4,128.2z"/>
	</g>
	<g>
		<path id="g_3_" class="st7" d="M287.2,127.5L287.2,127.5c-1.8,0-3.4-1.2-3.8-3c-1.7,2.4-4.5,3.7-7.4,3.6c-6.2,0-9.5-5.1-9.5-10.8
			c0-5.7,3.4-10.7,9.5-10.7c2.9-0.1,5.7,1.2,7.4,3.6v-1.9c0-0.6,0.5-1.1,1.1-1.1c0,0,0,0,0,0c0.6,0,1,0.4,1.1,1c0,0,0,0,0,0.1v15.3
			c0,2.4,2.7,0.9,2.7,2.7C288.3,127,287.8,127.5,287.2,127.5C287.2,127.5,287.2,127.5,287.2,127.5L287.2,127.5z M276,108.8
			c-4.5,0-7.4,3.6-7.4,8.6s2.9,8.6,7.4,8.6c4.5,0,7.4-3.6,7.4-8.6S280.5,108.8,276,108.8z"/>
	</g>
	<g>
		<path id="h_1_" class="st7" d="M314.3,127.5c-0.6,0-1.1-0.4-1.1-1c0,0,0,0,0,0v-11.1c0-3.6-2.9-6.5-6.5-6.5s-6.5,2.9-6.5,6.5v11.1
			c0,0.6-0.5,1.1-1.1,1.1s-1.1-0.5-1.1-1.1v-18c0-0.6,0.5-1.1,1.1-1.1s1.1,0.5,1.1,1.1v1.2c3.2-3.6,8.6-3.9,12.2-0.8
			c1.9,1.6,2.9,4,2.9,6.5v11.1C315.3,127,314.9,127.5,314.3,127.5C314.3,127.5,314.3,127.5,314.3,127.5z"/>
	</g>
	<path class="st7" d="M336,118.5h-15.8c0.3,4.3,3.2,7.5,7.3,7.5c2.2,0.1,4.2-0.9,5.6-2.6c0.2-0.3,0.5-0.5,0.9-0.5
		c0.6,0,1.1,0.4,1.2,1c0,0.3,0,0.4-0.7,1.3c-1.8,2-4.3,3.1-7,3c-6.1,0-9.5-5-9.5-10.8c0-5.7,3.4-10.7,9.5-10.7s9.5,5.1,9.5,10.7
		C337.1,118,336.6,118.5,336,118.5L336,118.5z M327.5,108.8c-4.6,0-7,3.5-7.3,7.5h14.6C334.5,112,331.7,108.8,327.5,108.8
		L327.5,108.8z"/>
	<g>
		<path id="m" class="st7" d="M347,127.5h-1.2c-3,0-4.5-1.5-4.5-4.4v-13.6h-1.9c-0.6,0-1.1-0.5-1-1.1c0-0.6,0.5-1,1-1h1.9v-5.8
			c0-0.6,0.5-1.1,1.1-1.1c0,0,0,0,0,0c0.6,0,1,0.4,1.1,1c0,0,0,0,0,0.1v5.8h3.5c0.6,0,1.1,0.5,1,1.1c0,0.6-0.5,1-1,1h-3.5v13.6
			c0,1.9,0.5,2.3,2.3,2.3h1.2c0.6,0,1.1,0.5,1.1,1.1S347.6,127.5,347,127.5L347,127.5z"/>
	</g>
	<path class="st7" d="M375,108.7l-6.2,17.9c-0.3,0.7-0.6,0.9-1.1,0.9c-0.6,0-0.8-0.2-1.1-0.9l-5-14.8l-5,14.8
		c-0.3,0.7-0.6,0.9-1.1,0.9c-0.5,0-1-0.4-1.1-0.9l-6.2-17.9c0-0.1-0.1-0.3-0.1-0.4c0-0.6,0.5-1,1.1-1c0.5,0,0.9,0.3,1,0.7l5.2,15
		l5-14.9c0.2-0.7,0.5-0.9,1.1-0.9c0.5,0,0.8,0.2,1.1,0.9l5.1,14.9l5.1-15c0.1-0.4,0.5-0.7,1-0.7c0.6-0.1,1.1,0.3,1.2,0.9
		C375.1,108.4,375.1,108.6,375,108.7L375,108.7z"/>
	<g>
		<path id="n" class="st7" d="M385.9,128.1c-6.1,0-9.5-5-9.5-10.8c0-5.7,3.4-10.7,9.5-10.7s9.5,5,9.5,10.7
			C395.4,123.1,392,128.1,385.9,128.1z M385.9,108.8c-4.5,0-7.4,3.6-7.4,8.6s2.9,8.6,7.4,8.6c4.5,0,7.4-3.6,7.4-8.6
			S390.4,108.8,385.9,108.8z"/>
	</g>
	<g>
		<path id="o" class="st7" d="M407.1,109.2c-3.6,0-6.5,2.9-6.5,6.5c0,0,0,0,0,0v10.8c0,0.6-0.5,1.1-1.1,1.1c-0.6,0-1.1-0.5-1.1-1.1
			v-18c0-0.6,0.5-1.1,1.1-1.1c0.6,0,1.1,0.5,1.1,1.1v1.6c1.6-1.9,4-2.9,6.5-2.9c0.6,0,1.1,0.5,1.1,1S407.8,109.2,407.1,109.2
			C407.2,109.2,407.1,109.2,407.1,109.2z"/>
	</g>
	<path class="st7" d="M423.7,109.2l-6.5,6.5l6.5,10.1c0.1,0.2,0.2,0.4,0.2,0.6c-0.1,0.6-0.6,1-1.1,1c-0.4,0-0.7-0.2-0.9-0.5
		l-6.2-9.7l-3.9,3.9v5.2c0,0.6-0.5,1.1-1.1,1.1c-0.6,0-1.1-0.5-1.1-1.1v-24.9c0-0.6,0.5-1.1,1.1-1.1c0.6,0,1.1,0.5,1.1,1.1v16.6
		l10.5-10.5c0.2-0.2,0.5-0.3,0.8-0.3c0.6,0,1.1,0.5,1.1,1.1C424,108.7,423.9,109,423.7,109.2L423.7,109.2z"/>
	<g>
		<path id="n_1_" class="st7" d="M442.6,128.1c-6.1,0-9.5-5-9.5-10.8c0-5.7,3.4-10.7,9.5-10.7s9.5,5,9.5,10.7
			C452.2,123.1,448.8,128.1,442.6,128.1z M442.6,108.8c-4.5,0-7.4,3.6-7.4,8.6s2.9,8.6,7.4,8.6c4.5,0,7.4-3.6,7.4-8.6
			S447.2,108.8,442.6,108.8z"/>
	</g>
	<g>
		<path id="p" class="st7" d="M462.1,102.6H461c-0.9,0-1.6,0.7-1.7,1.6v3.1h2.9c0.6,0,1,0.4,1.1,1c0,0,0,0,0,0.1
			c0,0.6-0.4,1.1-1,1.1c0,0,0,0,0,0h-2.9v16.9c0,0.6-0.4,1-1,1.1c0,0,0,0-0.1,0c-0.6,0-1-0.4-1.1-1c0,0,0-0.1,0-0.1v-16.9h-2.6
			c-0.6,0-1.1-0.5-1-1.1c0-0.6,0.5-1,1-1h2.6v-3.1c0-2.1,1.7-3.8,3.8-3.8h1.2c0.6,0,1.1,0.5,1.1,1.1c0,0,0,0,0,0
			C463.2,102.1,462.8,102.6,462.1,102.6C462.2,102.6,462.2,102.6,462.1,102.6L462.1,102.6z"/>
	</g>
	<g>
		<path id="q" class="st7" d="M490.3,118.5h-15.8c0.3,4.3,3.2,7.5,7.3,7.5c2.2,0.1,4.2-0.9,5.6-2.6c0.2-0.3,0.5-0.5,0.9-0.5
			c0.6,0,1.1,0.4,1.2,1c0,0.3,0,0.4-0.7,1.3c-1.8,2-4.3,3.1-7,3c-6.1,0-9.5-5-9.5-10.8c0-5.7,3.4-10.7,9.5-10.7s9.5,5.1,9.5,10.7
			C491.3,118,490.9,118.5,490.3,118.5z M481.8,108.8c-4.6,0-7,3.5-7.3,7.5h14.6C488.8,112,486,108.8,481.8,108.8L481.8,108.8z"/>
	</g>
	<g>
		<path id="p_1_" class="st7" d="M501.3,102.6h-1.2c-0.9,0-1.6,0.7-1.7,1.6v3.1h2.9c0.6,0,1,0.4,1.1,1c0,0,0,0,0,0.1
			c0,0.6-0.4,1.1-1,1.1c0,0,0,0,0,0h-2.9v16.9c0,0.6-0.4,1-1,1.1c0,0,0,0-0.1,0c-0.6,0-1-0.4-1.1-1c0,0,0-0.1,0-0.1v-16.9h-2.6
			c-0.6,0-1.1-0.5-1-1.1c0-0.6,0.5-1,1-1h2.6v-3.1c0-2.1,1.7-3.8,3.8-3.8h1.2c0.6,0,1.1,0.5,1.1,1.1c0,0,0,0,0,0
			C502.4,102.1,502,102.6,501.3,102.6C501.4,102.6,501.3,102.6,501.3,102.6L501.3,102.6z"/>
	</g>
	<path class="st7" d="M511.5,102.6h-1.2c-0.9,0-1.6,0.7-1.7,1.6v3.1h2.9c0.6,0,1,0.4,1.1,1c0,0,0,0,0,0.1c0,0.6-0.4,1.1-1,1.1
		c0,0,0,0,0,0h-2.9v16.9c0,0.6-0.4,1-1,1.1c0,0,0,0-0.1,0c-0.6,0-1-0.4-1.1-1c0,0,0-0.1,0-0.1v-16.9h-2.6c-0.6,0-1.1-0.5-1-1.1
		c0-0.6,0.5-1,1-1h2.6v-3.1c0-2.1,1.7-3.8,3.8-3.8h1.2c0.6,0,1.1,0.5,1.1,1.1c0,0,0,0,0,0C512.6,102.1,512.2,102.6,511.5,102.6
		C511.6,102.6,511.5,102.6,511.5,102.6L511.5,102.6z"/>
	<g>
		<path id="k_1_" class="st7" d="M515.8,103.7c-1.2,0-2.2-1-2.2-2.2s1-2.2,2.2-2.2c1.2,0,2.2,1,2.2,2.2c0,0,0,0,0,0
			C518,102.7,517.1,103.7,515.8,103.7C515.9,103.7,515.8,103.7,515.8,103.7z M515.8,127.5c-0.6,0-1.1-0.4-1.1-1c0,0,0-0.1,0-0.1v-18
			c0-0.6,0.5-1.1,1-1.1c0,0,0,0,0.1,0c0.6,0,1,0.4,1.1,1c0,0,0,0,0,0.1v18C516.9,127,516.5,127.5,515.8,127.5
			C515.9,127.5,515.9,127.5,515.8,127.5z"/>
	</g>
	<g>
		<path id="r" class="st7" d="M536.2,125.3c-1.7,1.9-4.2,3-6.8,2.9c-6.1,0-9.5-5-9.5-10.8c0-5.7,3.4-10.7,9.5-10.7
			c2.6-0.1,5.1,1,6.8,2.9c0.2,0.2,0.3,0.4,0.3,0.7c0,0.6-0.5,1.1-1.1,1.1c-0.3,0-0.6-0.1-0.8-0.4c-1.3-1.5-3.2-2.3-5.2-2.2
			c-4.5,0-7.4,3.6-7.4,8.6s2.9,8.6,7.4,8.6c2,0.1,3.9-0.8,5.2-2.2c0.4-0.5,1.1-0.5,1.5-0.1c0.2,0.2,0.4,0.5,0.4,0.8
			C536.5,124.8,536.4,125.1,536.2,125.3L536.2,125.3z"/>
	</g>
	<g>
		<path id="k_2_" class="st7" d="M540.7,103.7c-1.2,0-2.2-1-2.2-2.2c0-1.2,1-2.2,2.2-2.2c1.2,0,2.2,1,2.2,2.2c0,0,0,0,0,0
			C542.9,102.7,541.9,103.7,540.7,103.7C540.7,103.7,540.7,103.7,540.7,103.7z M540.7,127.5c-0.6,0-1.1-0.4-1.1-1c0,0,0-0.1,0-0.1
			v-18c0-0.6,0.5-1.1,1-1.1c0,0,0,0,0.1,0c0.6,0,1,0.4,1.1,1c0,0,0,0,0,0.1v18C541.8,127,541.3,127.5,540.7,127.5
			C540.7,127.5,540.7,127.5,540.7,127.5z"/>
	</g>
	<path class="st7" d="M562.8,118.5H547c0.3,4.3,3.2,7.5,7.3,7.5c2.2,0.1,4.2-0.9,5.6-2.6c0.2-0.3,0.5-0.5,0.9-0.5
		c0.6,0,1.1,0.4,1.2,1c0,0.3,0,0.4-0.7,1.3c-1.8,2-4.3,3.1-7,3c-6.1,0-9.5-5-9.5-10.8c0-5.7,3.4-10.7,9.5-10.7s9.5,5.1,9.5,10.7
		C563.8,118,563.3,118.5,562.8,118.5L562.8,118.5z M554.3,108.8c-4.6,0-7,3.5-7.3,7.5h14.6C561.3,112,558.5,108.8,554.3,108.8z"/>
	<g>
		<path id="h_2_" class="st7" d="M583.1,127.5c-0.6,0-1.1-0.4-1.1-1c0,0,0,0,0,0v-11.1c0-3.6-2.9-6.5-6.5-6.5s-6.5,2.9-6.5,6.5v11.1
			c0,0.6-0.5,1.1-1.1,1.1s-1.1-0.5-1.1-1.1v-18c0-0.6,0.5-1.1,1.1-1.1s1.1,0.5,1.1,1.1v1.2c3.2-3.6,8.6-3.9,12.2-0.8
			c1.9,1.6,2.9,4,2.9,6.5v11.1C584.2,127,583.7,127.5,583.1,127.5C583.1,127.5,583.1,127.5,583.1,127.5z"/>
	</g>
	<g>
		<path id="m_1_" class="st7" d="M594.6,127.5h-1.2c-3,0-4.5-1.5-4.5-4.4v-13.6H587c-0.6,0-1.1-0.5-1-1.1c0-0.6,0.5-1,1-1h1.9v-5.8
			c0-0.6,0.5-1.1,1.1-1.1c0,0,0,0,0,0c0.6,0,1,0.4,1.1,1c0,0,0,0,0,0.1v5.8h3.5c0.6,0,1.1,0.5,1,1.1c0,0.6-0.5,1-1,1h-3.5v13.6
			c0,1.9,0.5,2.3,2.3,2.3h1.2c0.6,0,1.1,0.5,1.1,1.1S595.2,127.5,594.6,127.5L594.6,127.5z"/>
	</g>
	<g>
		<path id="o_1_" class="st7" d="M614.1,109.2c-3.6,0-6.5,2.9-6.5,6.5c0,0,0,0,0,0v10.8c0,0.6-0.5,1.1-1.1,1.1
			c-0.6,0-1.1-0.5-1.1-1.1v-18c0-0.6,0.5-1.1,1.1-1.1c0.6,0,1.1,0.5,1.1,1.1v1.6c1.6-1.9,4-2.9,6.5-2.9c0.6,0,1.1,0.5,1.1,1
			C615.2,108.7,614.8,109.2,614.1,109.2C614.1,109.2,614.1,109.2,614.1,109.2z"/>
	</g>
	<path class="st7" d="M632.7,118.5h-15.8c0.3,4.3,3.2,7.5,7.3,7.5c2.2,0.1,4.2-0.9,5.6-2.6c0.2-0.3,0.5-0.5,0.9-0.5
		c0.6,0,1.1,0.4,1.2,1c0,0.3,0,0.4-0.7,1.3c-1.8,2-4.3,3.1-7,3c-6.1,0-9.5-5-9.5-10.8c0-5.7,3.4-10.7,9.5-10.7s9.5,5.1,9.5,10.7
		C633.7,118,633.3,118.5,632.7,118.5L632.7,118.5z M624.2,108.8c-4.6,0-7,3.5-7.3,7.5h14.6C631.2,112,628.4,108.8,624.2,108.8z"/>
	<g>
		<path id="r_1_" class="st7" d="M652.2,125.3c-1.7,1.9-4.2,3-6.8,2.9c-6.1,0-9.5-5-9.5-10.8c0-5.7,3.4-10.7,9.5-10.7
			c2.6-0.1,5.1,1,6.8,2.9c0.2,0.2,0.3,0.4,0.3,0.7c0,0.6-0.5,1.1-1.1,1.1c-0.3,0-0.6-0.1-0.8-0.4c-1.3-1.5-3.2-2.3-5.2-2.2
			c-4.5,0-7.4,3.6-7.4,8.6s2.9,8.6,7.4,8.6c2,0.1,3.9-0.8,5.2-2.2c0.4-0.5,1.1-0.5,1.5-0.1c0.2,0.2,0.4,0.5,0.4,0.8
			C652.5,124.8,652.4,125.1,652.2,125.3L652.2,125.3z"/>
	</g>
	<g>
		<path id="j_1_" class="st7" d="M671.8,127.5c-0.6,0-1.1-0.4-1.1-1c0,0,0,0,0,0v-11.1c0-3.6-2.9-6.5-6.5-6.5s-6.5,2.9-6.5,6.5v11.1
			c0,0.6-0.5,1.1-1.1,1.1s-1.1-0.5-1.1-1.1v-24.9c0-0.6,0.5-1.1,1.1-1.1s1.1,0.5,1.1,1.1l0,0v8.1c1.6-1.9,4-3,6.5-2.9
			c4.8,0,8.6,3.9,8.7,8.7v11.1C672.9,127,672.4,127.5,671.8,127.5C671.9,127.5,671.8,127.5,671.8,127.5L671.8,127.5z"/>
	</g>
	<path class="st7" d="M696.3,127.5L696.3,127.5c-1.8,0-3.4-1.2-3.8-3c-1.7,2.4-4.5,3.7-7.4,3.6c-6.2,0-9.5-5.1-9.5-10.8
		c0-5.7,3.4-10.7,9.5-10.7c2.9-0.1,5.7,1.2,7.4,3.6v-1.9c0-0.6,0.5-1.1,1.1-1.1c0,0,0,0,0,0c0.6,0,1,0.4,1.1,1c0,0,0,0,0,0.1v15.3
		c0,2.4,2.7,0.9,2.7,2.7C697.4,127,696.9,127.5,696.3,127.5C696.3,127.5,696.3,127.5,696.3,127.5L696.3,127.5z M685.1,108.8
		c-4.5,0-7.4,3.6-7.4,8.6s2.9,8.6,7.4,8.6c4.5,0,7.4-3.6,7.4-8.6S689.6,108.8,685.1,108.8z"/>
	<g>
		<path id="o_2_" class="st7" d="M708,109.2c-3.6,0-6.5,2.9-6.5,6.5c0,0,0,0,0,0v10.8c0,0.6-0.5,1.1-1.1,1.1c-0.6,0-1.1-0.5-1.1-1.1
			v-18c0-0.6,0.5-1.1,1.1-1.1c0.6,0,1.1,0.5,1.1,1.1v1.6c1.6-1.9,4-2.9,6.5-2.9c0.6,0,1.1,0.5,1.1,1S708.6,109.2,708,109.2
			C708,109.2,708,109.2,708,109.2z"/>
	</g>
	<g>
		<path id="i_1_" class="st7" d="M719,136.2c-3.2,0-7.8-1.2-7.8-2.6c0-0.6,0.5-1.2,1.1-1.2c0.7,0.2,1.4,0.6,2,0.9
			c1.5,0.5,3.1,0.7,4.7,0.7c4.9,0,7.4-2.4,7.4-7.1v-2.7c-1.8,2.2-4.5,3.4-7.4,3.2c-6,0-9.5-4.3-9.5-10.1c0-5.7,3.4-10.7,9.5-10.7
			c2.9-0.1,5.7,1.2,7.4,3.6v-1.8c0-0.6,0.5-1.1,1.1-1.1c0.6,0,1.1,0.5,1.1,1.1v18.5C728.5,133,724.9,136.2,719,136.2L719,136.2z
			 M719,108.8c-4.5,0-7.4,3.6-7.4,8.6c0,4.9,2.7,7.9,7.4,7.9s7.4-3,7.4-7.9C726.4,112.5,723.5,108.8,719,108.8z"/>
	</g>
	<path class="st7" d="M749.6,118.5h-15.8c0.3,4.3,3.2,7.5,7.3,7.5c2.2,0.1,4.2-0.9,5.6-2.6c0.2-0.3,0.5-0.5,0.9-0.5
		c0.6,0,1.1,0.4,1.2,1c0,0.3,0,0.4-0.7,1.3c-1.8,2-4.3,3.1-7,3c-6.1,0-9.5-5-9.5-10.8c0-5.7,3.4-10.7,9.5-10.7s9.5,5.1,9.5,10.7
		C750.6,118,750.1,118.5,749.6,118.5L749.6,118.5z M741.1,108.8c-4.6,0-7,3.5-7.3,7.5h14.6C748.1,112,745.3,108.8,741.1,108.8z"/>
	<g>
		<path id="g_4_" class="st7" d="M773.5,127.5L773.5,127.5c-1.8,0-3.4-1.2-3.8-3c-1.7,2.4-4.5,3.7-7.4,3.6c-6.2,0-9.5-5.1-9.5-10.8
			c0-5.7,3.4-10.7,9.5-10.7c2.9-0.1,5.7,1.2,7.4,3.6v-1.9c0-0.6,0.5-1.1,1.1-1.1c0,0,0,0,0,0c0.6,0,1,0.4,1.1,1c0,0,0,0,0,0.1v15.3
			c0,2.4,2.7,0.9,2.7,2.7C774.6,127,774.1,127.5,773.5,127.5C773.5,127.5,773.5,127.5,773.5,127.5L773.5,127.5z M762.3,108.8
			c-4.5,0-7.4,3.6-7.4,8.6s2.9,8.6,7.4,8.6c4.5,0,7.4-3.6,7.4-8.6S766.8,108.8,762.3,108.8z"/>
	</g>
	<g>
		<path id="s" class="st7" d="M786,128.1c-2.9,0.1-5.7-1.2-7.4-3.6v1.9c0,0.6-0.5,1.1-1.1,1.1s-1.1-0.5-1.1-1.1l0,0v-24.9
			c0-0.6,0.5-1.1,1.1-1.1s1.1,0.5,1.1,1.1l0,0v8.7c1.7-2.3,4.5-3.7,7.4-3.6c6.1,0,9.5,5,9.5,10.7C795.6,123.1,792.2,128.2,786,128.1
			L786,128.1z M786,108.8c-4.5,0-7.4,3.6-7.4,8.6s2.8,8.6,7.4,8.6s7.4-3.6,7.4-8.6S790.6,108.8,786,108.8z"/>
	</g>
	<path class="st7" d="M802.3,127.7c-2.1-0.1-3.8-1.9-3.8-4v-22.2c0-0.6,0.5-1.1,1.1-1.1s1.1,0.5,1.1,1.1v22.2c0,2.4,2.7,1,2.7,2.7
		C803.5,127.1,803,127.7,802.3,127.7L802.3,127.7z"/>
	<g>
		<path id="q_1_" class="st7" d="M822.5,118.5h-15.8c0.3,4.3,3.2,7.5,7.3,7.5c2.2,0.1,4.2-0.9,5.6-2.6c0.2-0.3,0.5-0.5,0.9-0.5
			c0.6,0,1.1,0.4,1.2,1c0,0.3,0,0.4-0.7,1.3c-1.8,2-4.3,3.1-7,3c-6.1,0-9.5-5-9.5-10.8c0-5.7,3.4-10.7,9.5-10.7s9.5,5.1,9.5,10.7
			C823.6,118,823.1,118.5,822.5,118.5z M814,108.8c-4.6,0-7,3.5-7.3,7.5h14.6C821,112,818.2,108.8,814,108.8L814,108.8z"/>
	</g>
	<g>
		<path id="s_1_" class="st7" d="M843.9,128.1c-2.9,0.1-5.7-1.2-7.4-3.6v1.9c0,0.6-0.5,1.1-1.1,1.1s-1.1-0.5-1.1-1.1l0,0v-24.9
			c0-0.6,0.5-1.1,1.1-1.1s1.1,0.5,1.1,1.1l0,0v8.7c1.7-2.3,4.5-3.7,7.4-3.6c6.1,0,9.5,5,9.5,10.7C853.4,123.1,850,128.2,843.9,128.1
			L843.9,128.1z M843.9,108.8c-4.5,0-7.4,3.6-7.4,8.6s2.8,8.6,7.4,8.6s7.4-3.6,7.4-8.6S848.4,108.8,843.9,108.8z"/>
	</g>
	<path class="st7" d="M872.4,127.5c-0.6,0-1.1-0.4-1.1-1c0,0,0,0,0,0v-1.2c-1.6,1.9-4,3-6.5,2.9c-4.8-0.1-8.6-3.9-8.7-8.7v-11.1
		c0-0.6,0.5-1.1,1.1-1.1s1.1,0.5,1.1,1.1v11.1c0,3.6,2.9,6.5,6.5,6.5s6.5-2.9,6.5-6.5v-11.1c0-0.6,0.5-1.1,1.1-1.1s1.1,0.5,1.1,1.1
		v18C873.4,127,873,127.5,872.4,127.5C872.4,127.5,872.4,127.5,872.4,127.5z"/>
	<g>
		<path id="l_1_" class="st7" d="M883.7,128.2c-2.3,0-6.1-0.8-7.4-3c-0.1-0.2-0.2-0.4-0.2-0.6c-0.1-0.6,0.4-1.1,0.9-1.1
			c0.4,0,0.8,0.2,1,0.5c1.4,1.7,3.8,2,5.7,2c3.7,0,5.5-1.2,5.5-3.7c0-5.7-12.5-2.7-12.5-10.3c0-3.8,3.8-5.3,7.3-5.3
			c2,0,5,0.7,6.5,2.2c0.2,0.2,0.3,0.4,0.3,0.7c0,0.6-0.6,1.1-1.2,1.1c-0.3,0-0.5-0.1-0.7-0.3c-1.4-1.1-3.2-1.7-5-1.6
			c-3.3,0-5.1,1.3-5.1,3.2c0,5.3,12.5,2.5,12.5,10.3C891.4,126.7,887.6,128.2,883.7,128.2L883.7,128.2z"/>
	</g>
	<path class="st7" d="M911,118.5h-15.8c0.3,4.3,3.2,7.5,7.3,7.5c2.2,0.1,4.2-0.9,5.6-2.6c0.2-0.3,0.5-0.5,0.9-0.5
		c0.6,0,1.1,0.4,1.2,1c0,0.3,0,0.4-0.7,1.3c-1.8,2-4.3,3.1-7,3c-6.1,0-9.5-5-9.5-10.8c0-5.7,3.4-10.7,9.5-10.7s9.5,5.1,9.5,10.7
		C912,118,911.6,118.5,911,118.5L911,118.5z M902.5,108.8c-4.6,0-7,3.5-7.3,7.5h14.6C909.5,112,906.7,108.8,902.5,108.8z
		 M921.4,128.2c-2.3,0-6.1-0.8-7.4-3c-0.1-0.2-0.2-0.4-0.2-0.6c-0.1-0.6,0.4-1.1,0.9-1.1c0.4,0,0.8,0.2,1,0.5c1.4,1.7,3.8,2,5.7,2
		c3.7,0,5.5-1.2,5.5-3.7c0-5.7-12.5-2.7-12.5-10.3c0-3.8,3.8-5.3,7.3-5.3c2,0,5,0.7,6.5,2.2c0.2,0.2,0.3,0.4,0.3,0.7
		c0,0.6-0.6,1.1-1.2,1.1c-0.3,0-0.5-0.1-0.7-0.3c-1.4-1.1-3.2-1.7-5-1.6c-3.3,0-5.1,1.3-5.1,3.2c0,5.3,12.5,2.5,12.5,10.3
		C929.1,126.7,925.3,128.2,921.4,128.2L921.4,128.2z"/>
</g>
</svg>
