<svg xmlns="http://www.w3.org/2000/svg" xmlns:xlink="http://www.w3.org/1999/xlink" viewBox="0 0 1080 1080" xmlns:v="https://vecta.io/nano"><defs><linearGradient id="A" x1="11.716" y1="11.716" x2="1068.284" y2="1068.284" gradientUnits="userSpaceOnUse"><stop offset="0" stop-color="#681f8b"/><stop offset=".134" stop-color="#931a65"/><stop offset=".384" stop-color="#e01122"/><stop offset=".5" stop-color="#fe0e08"/><stop offset=".552" stop-color="#fe230c"/><stop offset=".704" stop-color="#fe5a17"/><stop offset=".835" stop-color="#fe831e"/><stop offset=".937" stop-color="#fe9c23"/><stop offset="1" stop-color="#fea525"/></linearGradient><path id="B" d="M104.714 1045.51a1.36 1.36 0 0 1-1.4-1.101 7.763 7.763 0 0 1-4.804 1.668 7.666 7.666 0 0 1-7.604-7.605v-9.24a1.434 1.434 0 0 1 2.868-.033v9.272a4.753 4.753 0 1 0 9.507 0v-9.24a1.33 1.33 0 0 1 1.4-1.468 1.364 1.364 0 0 1 1.435 1.435v14.9a1.328 1.328 0 0 1-1.401 1.4z"/><path id="C" d="M734.528 1046.32c-3.22 0-5.02-2.64-5.02-5.662 0-3 1.8-5.64 5.02-5.64s5.02 2.64 5.02 5.64c0 3.02-1.8 5.662-5.02 5.662zm0-10.162c-2.36 0-3.88 1.9-3.88 4.5s1.52 4.52 3.88 4.52c2.38 0 3.88-1.92 3.88-4.52s-1.5-4.5-3.88-4.5z"/><path id="D" d="M758.267 1036.34a3.418 3.418 0 0 0-3.42 3.42v5.662a.57.57 0 0 1-1.141 0v-9.502a.57.57 0 0 1 1.141 0v.82a4.564 4.564 0 0 1 3.42-1.541.57.57 0 1 1 0 1.141z"/><path id="E" d="M104.575 43.282a4.32 4.32 0 1 1 4.32-4.32 4.302 4.302 0 0 1-4.32 4.32zm0 36.72a2.521 2.521 0 0 1-2.64-2.521V50.72a2.534 2.534 0 0 1 2.64-2.58 2.473 2.473 0 0 1 2.521 2.58v26.76a2.421 2.421 0 0 1-2.521 2.521z"/><path id="F" d="M526.044 81.02c-9.66 0-15.06-7.92-15.06-16.98 0-9 5.398-16.92 15.06-16.92s15.06 7.92 15.06 16.92c0 9.06-5.398 16.98-15.06 16.98zm0-28.8c-6 0-9.9 4.68-9.9 11.82 0 7.2 3.9 11.88 9.9 11.88 6.06 0 9.9-4.68 9.9-11.88 0-7.14-3.84-11.82-9.9-11.82z"/><path id="G" d="M559.524 81.02c-9.66 0-15.06-7.92-15.06-16.98 0-9 5.4-16.92 15.06-16.92s15.06 7.92 15.06 16.92c0 9.06-5.4 16.98-15.06 16.98zm0-28.8c-6 0-9.9 4.68-9.9 11.82 0 7.2 3.9 11.88 9.9 11.88 6.06 0 9.898-4.68 9.898-11.88 0-7.14-3.84-11.82-9.898-11.82z"/><path id="H" d="M768.427 80a5.836 5.836 0 0 1-5.34-3.42 13.747 13.747 0 0 1-10.559 4.439c-9.78 0-15.06-8.04-15.06-16.98s5.4-16.92 15.06-16.92a13.259 13.259 0 0 1 9.898 3.959v-.24a2.476 2.476 0 0 1 2.52-2.7 2.412 2.412 0 0 1 2.641 2.52v23.16a.971.971 0 0 0 .84 1.08 2.55 2.55 0 1 1 0 5.1zm-15.898-27.78c-6 0-9.9 4.68-9.9 11.82 0 7.2 3.9 11.88 9.9 11.88 6.06 0 9.898-4.68 9.898-11.88 0-7.14-3.84-11.82-9.898-11.82z"/><path id="I" d="M241.128 142.22c-9.66 0-15.06-7.92-15.06-16.98 0-9 5.398-16.92 15.06-16.92s15.06 7.92 15.06 16.92c0 9.06-5.4 16.98-15.06 16.98zm0-28.8c-6 0-9.9 4.68-9.9 11.82 0 7.2 3.9 11.88 9.9 11.88 6.06 0 9.9-4.68 9.9-11.88 0-7.14-3.84-11.82-9.9-11.82z"/><path id="J" d="M590.68 113.422a8.644 8.644 0 0 0-8.521 8.579v16.62a2.5 2.5 0 0 1-2.639 2.58 2.456 2.456 0 0 1-2.52-2.52v-26.76a2.54 2.54 0 0 1 2.52-2.58 2.464 2.464 0 0 1 2.58 2.04 13.875 13.875 0 0 1 8.58-3.061 2.552 2.552 0 1 1 0 5.101z"/><path id="K" d="M619.18 141.2a2.423 2.423 0 0 1-2.52-2.52V122a8.55 8.55 0 1 0-17.1 0v16.62a2.551 2.551 0 0 1-2.641 2.641 2.472 2.472 0 0 1-2.52-2.58v-26.818a2.387 2.387 0 0 1 2.52-2.521 2.507 2.507 0 0 1 2.58 1.979 13.703 13.703 0 0 1 22.26 10.68v16.62a2.453 2.453 0 0 1-2.58 2.58z"/><path id="L" d="M113.2 222.02a5.983 5.983 0 0 0-5.986 5.985v9.906a.998.998 0 0 1-1.995 0v-16.627a.998.998 0 0 1 1.995 0v1.435a7.995 7.995 0 0 1 5.986-2.695.998.998 0 1 1 0 1.996z"/><path id="M" d="M158.64 238.89h-.035a3.625 3.625 0 0 1-3.466-2.73 7.941 7.941 0 0 1-6.79 3.326c-5.706 0-8.786-4.69-8.786-9.906 0-5.286 3.15-9.87 8.786-9.87a8.001 8.001 0 0 1 6.79 3.29v-1.715a.987.987 0 0 1 1.016-.98.956.956 0 0 1 .98.98v14.106c0 2.24 2.52.84 2.52 2.52a.962.962 0 0 1-1.015.98zm-10.29-17.187c-4.13 0-6.79 3.325-6.79 7.876s2.66 7.9 6.79 7.9c4.165 0 6.8-3.36 6.8-7.9s-2.625-7.876-6.8-7.876z"/><path id="N" d="M43.245 278.487a7.941 7.941 0 0 1-6.79-3.326v9.066a.998.998 0 1 1-1.995 0v-23.942a.998.998 0 0 1 1.995 0V262a8.001 8.001 0 0 1 6.79-3.29c5.637 0 8.786 4.62 8.786 9.87 0 5.285-3.15 9.906-8.786 9.906zm0-17.782c-4.165 0-6.8 3.325-6.8 7.876s2.625 7.9 6.8 7.9 6.79-3.36 6.79-7.9-2.625-7.876-6.79-7.876z"/><path id="O" d="M115.6 261.02a5.982 5.982 0 0 0-5.985 5.985v9.906a.998.998 0 0 1-1.996 0v-16.627a.998.998 0 0 1 1.996 0v1.435a7.991 7.991 0 0 1 5.985-2.695.998.998 0 1 1 0 1.996z"/><path id="P" d="M584.214 333.237a2.724 2.724 0 0 1-2.492-1.596 6.419 6.419 0 0 1-4.929 2.072c-4.563 0-7.027-3.752-7.027-7.925s2.52-7.896 7.027-7.896a6.189 6.189 0 0 1 4.62 1.848v-.11a1.156 1.156 0 0 1 1.176-1.261 1.126 1.126 0 0 1 1.232 1.177v10.808a.453.453 0 0 0 .393.504 1.19 1.19 0 1 1 0 2.38zm-7.42-12.964c-2.8 0-4.62 2.185-4.62 5.516 0 3.36 1.82 5.544 4.62 5.544 2.828 0 4.62-2.184 4.62-5.544 0-3.33-1.792-5.516-4.62-5.516z"/><path id="Q" d="M893.382 333.294a2.858 2.858 0 0 1-2.8-2.856v-15.932a1.204 1.204 0 0 1 2.408-.028v15.96a.442.442 0 0 0 .392.476 1.191 1.191 0 1 1 0 2.381z"/><path id="R" d="M53.9 434.863a.787.787 0 0 1-.812-.784v-8.176a4.788 4.788 0 0 0-9.576 0v8.176a.798.798 0 0 1-1.596 0v-13.3a.798.798 0 0 1 1.596 0v.896a6.387 6.387 0 0 1 11.172 4.228v8.176a.781.781 0 0 1-.783.784z"/><path id="S" d="M69.243 433.212a6.506 6.506 0 0 1-5.012 2.128c-4.508 0-7.028-3.696-7.028-7.925 0-4.2 2.52-7.896 7.028-7.896a6.503 6.503 0 0 1 5.012 2.128.743.743 0 0 1 .225.532.878.878 0 0 1-.812.84.823.823 0 0 1-.588-.28 4.939 4.939 0 0 0-3.836-1.624c-3.305 0-5.432 2.66-5.432 6.3s2.127 6.328 5.432 6.328a5.029 5.029 0 0 0 3.836-1.624.795.795 0 0 1 1.4.532.804.804 0 0 1-.225.56z"/><path id="T" d="M78.65 421.367a4.786 4.786 0 0 0-4.788 4.788v7.924a.798.798 0 0 1-1.596 0v-13.3a.798.798 0 0 1 1.596 0v1.148a6.393 6.393 0 0 1 4.788-2.156.798.798 0 1 1 0 1.596z"/><path id="U" d="M92.926 428.227h-11.62c.252 3.192 2.324 5.516 5.376 5.516a5.063 5.063 0 0 0 4.116-1.932.734.734 0 0 1 .672-.392.855.855 0 0 1 .867.756c0 .252 0 .308-.53.924a6.612 6.612 0 0 1-5.124 2.24c-4.508 0-7.028-3.696-7.028-7.925 0-4.2 2.52-7.896 7.028-7.896s7.028 3.724 7.028 7.896a.848.848 0 0 1-.784.813zm-6.244-7.112c-3.36 0-5.124 2.576-5.376 5.517h10.78c-.252-3.192-2.323-5.517-5.403-5.517z"/><path id="V" d="M118.573 435.395c-1.68 0-4.508-.588-5.488-2.212a.674.674 0 0 1-.112-.42.764.764 0 0 1 1.429-.448c1.008 1.232 2.8 1.484 4.172 1.484 2.716 0 4.088-.896 4.088-2.717 0-4.228-9.185-1.987-9.185-7.588 0-2.827 2.828-3.92 5.376-3.92a7.587 7.587 0 0 1 4.816 1.624.784.784 0 0 1 .252.532.908.908 0 0 1-.868.84.742.742 0 0 1-.532-.224 5.596 5.596 0 0 0-3.668-1.176c-2.464 0-3.78.952-3.78 2.323 0 3.92 9.184 1.85 9.184 7.588 0 3.192-2.8 4.313-5.684 4.313z"/><path id="W" d="M182.747 421.367a4.786 4.786 0 0 0-4.787 4.788v7.924a.798.798 0 0 1-1.596 0v-13.3a.798.798 0 0 1 1.596 0v1.148a6.393 6.393 0 0 1 4.787-2.156.798.798 0 1 1 0 1.596z"/><path id="X" d="M199 434.863h-.027a2.899 2.899 0 0 1-2.772-2.184 6.354 6.354 0 0 1-5.432 2.66c-4.564 0-7.028-3.752-7.028-7.925 0-4.228 2.52-7.896 7.028-7.896a6.401 6.401 0 0 1 5.432 2.632v-1.372a.789.789 0 0 1 .813-.784.764.764 0 0 1 .783.784v11.284c0 1.792 2.017.672 2.017 2.016a.77.77 0 0 1-.813.784zm-8.23-13.748c-3.305 0-5.432 2.66-5.432 6.3s2.127 6.328 5.432 6.328c3.332 0 5.432-2.687 5.432-6.328s-2.1-6.3-5.432-6.3z"/><path id="Y" d="M206.934 434.863h-.868c-2.21 0-3.304-1.092-3.304-3.275v-9.996h-1.428a.798.798 0 0 1 0-1.597h1.428v-4.283a.787.787 0 0 1 .813-.784.765.765 0 0 1 .784.784v4.283h2.575a.798.798 0 0 1 0 1.597h-2.575v9.996c0 1.372.392 1.68 1.707 1.68h.868a.798.798 0 0 1 0 1.596z"/><path id="Z" d="M274.72 434.863a.787.787 0 0 1-.812-.784v-8.176a4.788 4.788 0 0 0-9.576 0v8.176a.798.798 0 0 1-1.596 0v-18.367a.798.798 0 0 1 1.596 0v5.964a6.22 6.22 0 0 1 4.788-2.156 6.435 6.435 0 0 1 6.384 6.384v8.176a.781.781 0 0 1-.784.784z"/><path id="a" d="M327.415 435.395c-1.68 0-4.508-.588-5.487-2.212a.674.674 0 0 1-.112-.42.764.764 0 0 1 1.428-.448c1.008 1.232 2.8 1.484 4.172 1.484 2.717 0 4.088-.896 4.088-2.717 0-4.228-9.184-1.987-9.184-7.588 0-2.827 2.828-3.92 5.376-3.92a7.583 7.583 0 0 1 4.815 1.624.781.781 0 0 1 .253.532.908.908 0 0 1-.868.84.742.742 0 0 1-.532-.224 5.6 5.6 0 0 0-3.668-1.176c-2.464 0-3.78.952-3.78 2.323 0 3.92 9.185 1.85 9.185 7.588 0 3.192-2.8 4.313-5.685 4.313z"/><path id="b" d="M372.216 435.34c-4.508 0-7.028-3.696-7.028-7.925 0-4.2 2.52-7.896 7.028-7.896s7.027 3.696 7.027 7.896c0 4.23-2.52 7.925-7.027 7.925zm0-14.225c-3.305 0-5.433 2.66-5.433 6.3s2.128 6.328 5.433 6.328c3.332 0 5.432-2.687 5.432-6.328s-2.1-6.3-5.432-6.3z"/><path id="c" d="M400.97 435.03a2.934 2.934 0 0 1-2.772-2.968v-16.352a.798.798 0 0 1 1.596 0v16.352c0 1.792 1.988.756 1.988 2.016a.903.903 0 0 1-.812.952z"/><path id="d" d="M124.62 464.863h-.028a2.899 2.899 0 0 1-2.771-2.184 6.354 6.354 0 0 1-5.432 2.66c-4.564 0-7.028-3.752-7.028-7.925 0-4.228 2.52-7.896 7.028-7.896a6.401 6.401 0 0 1 5.432 2.632v-1.372a.789.789 0 0 1 .813-.784.764.764 0 0 1 .783.784v11.284c0 1.792 2.016.672 2.016 2.016a.77.77 0 0 1-.812.784zm-8.23-13.748c-3.305 0-5.433 2.66-5.433 6.3s2.128 6.328 5.433 6.328c3.332 0 5.432-2.687 5.432-6.328s-2.1-6.3-5.432-6.3z"/><path id="e" d="M136.13 447.307a1.596 1.596 0 1 1 1.596-1.596 1.579 1.579 0 0 1-1.596 1.596zm0 17.556a.77.77 0 0 1-.812-.784v-13.3a.771.771 0 0 1 .812-.784.763.763 0 0 1 .784.784v13.3a.749.749 0 0 1-.784.784z"/><path id="f" d="M168.496 464.863a.787.787 0 0 1-.812-.784v-8.176a4.788 4.788 0 0 0-9.576 0v8.176a.798.798 0 0 1-1.596 0v-13.3a.798.798 0 0 1 1.596 0v.896a6.387 6.387 0 0 1 11.172 4.228v8.176a.781.781 0 0 1-.784.784z"/><path id="g" d="M672.544 434.86a.786.786 0 0 1-.812-.783V425.9a4.788 4.788 0 0 0-9.576 0v8.177a.798.798 0 0 1-1.596 0v-13.3a.798.798 0 0 1 1.596 0v.896a6.387 6.387 0 0 1 11.172 4.228v8.177a.78.78 0 0 1-.784.783z"/><path id="h" d="M756.57 428.224h-11.62c.252 3.192 2.324 5.516 5.376 5.516a5.063 5.063 0 0 0 4.116-1.932.734.734 0 0 1 .672-.392.855.855 0 0 1 .867.756c0 .252 0 .308-.53.924a6.612 6.612 0 0 1-5.124 2.24c-4.508 0-7.028-3.696-7.028-7.924 0-4.2 2.52-7.896 7.028-7.896s7.028 3.724 7.028 7.896a.848.848 0 0 1-.784.812zm-6.244-7.112c-3.36 0-5.124 2.576-5.376 5.517h10.78c-.252-3.192-2.323-5.517-5.403-5.517z"/><path id="i" d="M783.925 421.364a4.786 4.786 0 0 0-4.787 4.788v7.925a.798.798 0 0 1-1.596 0v-13.3a.798.798 0 0 1 1.596 0v1.148a6.393 6.393 0 0 1 4.787-2.156.798.798 0 1 1 0 1.596z"/><path id="j" d="M886.852 435.337c-4.508 0-7.028-3.696-7.028-7.924 0-4.2 2.52-7.896 7.028-7.896s7.028 3.696 7.028 7.896c0 4.228-2.52 7.924-7.028 7.924zm0-14.225c-3.304 0-5.432 2.66-5.432 6.3s2.128 6.327 5.432 6.327c3.332 0 5.433-2.687 5.433-6.327s-2.1-6.3-5.433-6.3z"/><path id="k" d="M502.68 927.892a4.786 4.786 0 0 0-4.788 4.788v7.924a.798.798 0 0 1-1.596 0v-13.3a.798.798 0 0 1 1.596 0v1.148a6.395 6.395 0 0 1 4.788-2.156.798.798 0 1 1 0 1.596z"/><path id="l" d="M516.955 934.753h-11.62c.252 3.192 2.324 5.516 5.376 5.516a5.061 5.061 0 0 0 4.116-1.932.735.735 0 0 1 .672-.392.856.856 0 0 1 .868.756c0 .252 0 .308-.532.924a6.61 6.61 0 0 1-5.124 2.24c-4.508 0-7.027-3.696-7.027-7.925 0-4.2 2.52-7.896 7.027-7.896s7.028 3.724 7.028 7.896a.848.848 0 0 1-.784.813zm-6.244-7.112c-3.36 0-5.124 2.576-5.376 5.517h10.78c-.252-3.192-2.324-5.517-5.404-5.517z"/><path id="m" d="M564.297 934.753h-11.62c.252 3.192 2.324 5.516 5.376 5.516a5.063 5.063 0 0 0 4.116-1.932.734.734 0 0 1 .672-.392.856.856 0 0 1 .868.756c0 .252 0 .308-.532.924a6.612 6.612 0 0 1-5.124 2.24c-4.508 0-7.028-3.696-7.028-7.925 0-4.2 2.52-7.896 7.028-7.896s7.028 3.724 7.028 7.896a.848.848 0 0 1-.784.813zm-6.244-7.112c-3.36 0-5.124 2.576-5.376 5.517h10.78c-.252-3.192-2.324-5.517-5.404-5.517z"/><path id="n" d="M582.468 941.388h-.027a2.898 2.898 0 0 1-2.771-2.184 6.356 6.356 0 0 1-5.433 2.66c-4.563 0-7.028-3.752-7.028-7.925 0-4.228 2.52-7.896 7.028-7.896a6.403 6.403 0 0 1 5.433 2.632v-1.372a.789.789 0 0 1 .812-.784.765.765 0 0 1 .784.784v11.284c0 1.792 2.016.672 2.016 2.016a.77.77 0 0 1-.812.784zm-8.23-13.748c-3.304 0-5.432 2.66-5.432 6.3s2.128 6.328 5.432 6.328c3.332 0 5.433-2.687 5.433-6.328s-2.1-6.3-5.433-6.3z"/><path id="o" d="M627.212 941.388h-.868c-2.212 0-3.304-1.092-3.304-3.275v-9.996h-1.43a.798.798 0 0 1 0-1.597h1.43v-4.283a.787.787 0 0 1 .812-.784.765.765 0 0 1 .784.784v4.283h2.576a.798.798 0 0 1 0 1.597h-2.576v9.996c0 1.372.392 1.68 1.708 1.68h.868a.798.798 0 0 1 0 1.596z"/><path id="p" d="M650.73 941.865c-4.508 0-7.027-3.696-7.027-7.925 0-4.2 2.52-7.896 7.027-7.896s7.028 3.696 7.028 7.896c0 4.228-2.52 7.925-7.028 7.925zm0-14.225c-3.304 0-5.432 2.66-5.432 6.3s2.128 6.328 5.432 6.328c3.332 0 5.433-2.687 5.433-6.328s-2.1-6.3-5.433-6.3z"/><path id="q" d="M767.74 943.88a.731.731 0 0 1-.42.112.784.784 0 0 1-.757-.812c0-.783 1.204-.896 1.4-1.792a1.611 1.611 0 0 1 .112-3.22c1.37 0 1.68 1.4 1.68 2.268a3.998 3.998 0 0 1-2.016 3.444z"/><path id="r" d="M912.246 941.388a.787.787 0 0 1-.812-.784v-1.4a6.356 6.356 0 0 1-5.433 2.66c-4.508 0-7.028-3.696-7.028-7.925 0-4.2 2.52-7.896 7.028-7.896a6.403 6.403 0 0 1 5.433 2.632v-6.44a.798.798 0 0 1 1.596 0v18.367a.781.781 0 0 1-.784.784zm-6.244-13.748c-3.304 0-5.432 2.66-5.432 6.3s2.128 6.328 5.432 6.328c3.332 0 5.433-2.687 5.433-6.328s-2.1-6.3-5.433-6.3z"/><path id="s" d="M941.03 923.833a1.596 1.596 0 1 1 1.597-1.596 1.578 1.578 0 0 1-1.597 1.596zm0 17.556a.77.77 0 0 1-.812-.784v-13.3a.771.771 0 0 1 .812-.784.763.763 0 0 1 .784.784v13.3a.749.749 0 0 1-.784.784z"/><path id="t" d="M964.997 941.865a6.354 6.354 0 0 1-5.432-2.66v7.252a.798.798 0 1 1-1.596 0v-19.152a.798.798 0 0 1 1.596 0v1.372a6.401 6.401 0 0 1 5.432-2.632c4.508 0 7.028 3.696 7.028 7.896 0 4.23-2.52 7.925-7.028 7.925zm0-14.225c-3.332 0-5.432 2.66-5.432 6.3s2.1 6.328 5.432 6.328 5.432-2.687 5.432-6.328-2.1-6.3-5.432-6.3z"/></defs><rect width="1080" height="1080" rx="40" fill="url(#A)"/><g opacity=".5" fill="#fff"><path d="M42.328 1046.045a7.892 7.892 0 0 1-5.503-2.002 1.364 1.364 0 0 1-1.468 1.401 1.346 1.346 0 0 1-1.401-1.401v-20.88a1.435 1.435 0 0 1 2.869-.033v6.238a7.4 7.4 0 0 1 5.503-2.169c5.37 0 8.373 4.403 8.373 9.406 0 5.037-3.002 9.44-8.373 9.44zm0-16c-3.335 0-5.503 2.602-5.503 6.57 0 4.003 2.168 6.604 5.503 6.604s5.504-2.602 5.504-6.604c0-3.97-2.168-6.57-5.504-6.57zm25.555 8.037h-12.34c.467 3.136 2.468 5.137 5.403 5.137a5.003 5.003 0 0 0 3.969-1.734 1.383 1.383 0 0 1 1.034-.533 1.556 1.556 0 0 1 1.501 1.468c0 .4-.1.7-.8 1.4a8.129 8.129 0 0 1-5.704 2.235c-5.37 0-8.372-4.437-8.372-9.44 0-4.97 3.002-9.406 8.372-9.406 5.437 0 8.34 4.437 8.34 9.406a1.422 1.422 0 0 1-1.401 1.468zm-6.937-8.038c-3.136 0-4.97 2.3-5.403 5.17H66.35c-.467-3.202-2.468-5.17-5.403-5.17zM88 1045.478a3.247 3.247 0 0 1-2.969-1.901 7.642 7.642 0 0 1-5.87 2.469c-5.437 0-8.372-4.47-8.372-9.44s3.002-9.406 8.372-9.406a7.369 7.369 0 0 1 5.504 2.202v-.134a1.376 1.376 0 0 1 1.4-1.501 1.341 1.341 0 0 1 1.468 1.401v12.875a.54.54 0 0 0 .467.601 1.418 1.418 0 1 1 0 2.835zm-8.84-15.443c-3.336 0-5.504 2.602-5.504 6.57 0 4.003 2.168 6.604 5.504 6.604 3.37 0 5.504-2.602 5.504-6.604 0-3.97-2.135-6.57-5.504-6.57z"/><use xlink:href="#B"/><path d="M115.158 1045.478h-.567c-3.17 0-4.37-1.668-4.37-4.403V1030.6h-1a1.418 1.418 0 1 1-.033-2.835h1v-4.637a1.355 1.355 0 0 1 1.435-1.4 1.328 1.328 0 0 1 1.401 1.4v4.637h2.135a1.383 1.383 0 0 1 1.4 1.401 1.356 1.356 0 0 1-1.4 1.434h-2.135v10.774c0 .934.333 1.268 1.268 1.268h.833a1.376 1.376 0 0 1 1.435 1.4 1.357 1.357 0 0 1-1.4 1.435zm4.604-20.415a2.401 2.401 0 1 1 2.402-2.401 2.392 2.392 0 0 1-2.402 2.401zm0 20.414a1.4 1.4 0 0 1-1.467-1.401V1029.2a1.408 1.408 0 0 1 1.467-1.435 1.374 1.374 0 0 1 1.401 1.435v14.876a1.346 1.346 0 0 1-1.401 1.401zm10.376-14.877h-1.5v13.442a1.364 1.364 0 0 1-1.468 1.401 1.346 1.346 0 0 1-1.401-1.401V1030.6h-1.37a1.418 1.418 0 0 1 0-2.835h1.367v-2.27a3.801 3.801 0 0 1 3.836-3.769 1.418 1.418 0 1 1 0 2.835.934.934 0 0 0-.967.9v2.302h1.5a1.418 1.418 0 1 1 0 2.835z"/><use xlink:href="#B" x="42.068"/><path d="M154.725 1045.544a3.403 3.403 0 0 1-3.336-3.402v-18.98a1.435 1.435 0 0 1 2.869-.033v19.013a.527.527 0 0 0 .467.567 1.418 1.418 0 1 1 0 2.835zm15.37-.066v-1.264c1.886-.237 2.046-.437 2.046-3.157v-6.7c0-2.8-1.248-4.017-3.064-4.017a5.597 5.597 0 0 0-3.47 1.493v9.476c0 2.527.187 2.658 2.06 2.896v1.264h-8.968v-1.264c2.254-.33 2.5-.4 2.5-3v-8.2c0-2.446-.303-2.565-2.185-2.922v-1.184a34.101 34.101 0 0 0 6.653-1.533l-.052 2.95 2.6-1.745a5.659 5.659 0 0 1 3.159-1.086c3.194 0 5.2 2.338 5.2 6.3v7.5c0 2.54.237 2.657 2.277 2.92v1.264zm23.9-3.703c-2.458 3.427-5.488 4.178-7.014 4.178-5.142 0-8.124-3.936-8.124-8.594a10.333 10.333 0 0 1 2.832-7.062 8.602 8.602 0 0 1 6.082-2.814 6.386 6.386 0 0 1 6.37 6.347c-.014.715-.08 1.277-.612 1.4-.767.184-6.17.5-10.318.647.062 4.587 2.717 6.74 5.556 6.74a6.776 6.776 0 0 0 4.543-1.866zm-7.07-12.7c-1.667 0-3.167 1.807-3.516 4.963l5.486-.118c.6-.026.848-.146.848-.792.04-2.022-1.037-4.053-2.818-4.053zm34.284.145c-1.943.343-2.248.624-3.105 2.765-1.33 3.462-3.102 8.53-4.934 13.94h-1.512l-4.65-11.46-4.55 11.46h-1.472l-4.685-14.192c-.687-1.985-.94-2.274-2.855-2.512v-1.25h9.397v1.25c-2.325.345-2.535.672-2.058 2.133l2.52 8.214c1.507-3.68 2.988-7.62 4.327-11.424h1.456c1.4 3.76 2.986 7.702 4.573 11.568.742-2.107 2.062-5.964 2.557-8.108.412-1.674-.008-2.078-2.753-2.383v-1.25h7.742zm9.4 3.746c-.92-2.606-2.155-3.984-4.2-3.984a2.166 2.166 0 0 0-2.225 2.266c0 1.497 1.046 2.264 3.16 3.216 3.278 1.496 5.3 2.787 5.3 5.736 0 3.85-3.6 5.764-6.945 5.764a12.073 12.073 0 0 1-4.92-1.161l-.662-4.892 1.252-.224c.8 2.5 2.33 4.75 4.976 4.75a2.231 2.231 0 0 0 2.438-2.281c0-1.423-.76-2.333-3.092-3.467-2.67-1.295-5.107-2.64-5.107-5.775 0-3.046 2.533-5.42 6.565-5.42a18.751 18.751 0 0 1 4.112.567l.62 4.577z"/></g><g opacity=".5" fill="#fff"><path d="M723.808 1046.36c-1.2 0-3.22-.42-3.922-1.58a.478.478 0 0 1-.08-.299.614.614 0 0 1 .58-.602.62.62 0 0 1 .441.281 3.814 3.814 0 0 0 2.98 1.061c1.94 0 2.92-.64 2.92-1.94 0-3.02-6.56-1.42-6.56-5.422 0-2.02 2.02-2.8 3.84-2.8a5.418 5.418 0 0 1 3.441 1.16.561.561 0 0 1 .18.379.648.648 0 0 1-.621.6.523.523 0 0 1-.379-.16 4.004 4.004 0 0 0-2.621-.84c-1.76 0-2.7.682-2.7 1.66 0 2.8 6.563 1.32 6.563 5.422 0 2.28-2 3.08-4.06 3.08z"/><use xlink:href="#C"/><path d="M750.308 1045.98a.563.563 0 0 1-.58-.561v-.64a4.442 4.442 0 0 1-3.42 1.541 4.61 4.61 0 0 1-4.561-4.561v-5.842a.569.569 0 0 1 1.139 0v5.842a3.421 3.421 0 0 0 6.842 0v-5.842a.57.57 0 0 1 1.141 0v9.502a.559.559 0 0 1-.561.561z"/><use xlink:href="#D"/><path d="M768.448 1044.8a4.649 4.649 0 0 1-3.58 1.521c-3.22 0-5.02-2.64-5.02-5.662 0-3 1.8-5.64 5.02-5.64a4.654 4.654 0 0 1 3.58 1.52.538.538 0 0 1 .16.381.627.627 0 0 1-.58.6.582.582 0 0 1-.42-.199 3.526 3.526 0 0 0-2.74-1.16c-2.36 0-3.88 1.9-3.88 4.5s1.52 4.52 3.88 4.52a3.592 3.592 0 0 0 2.74-1.16.582.582 0 0 1 .42-.199.594.594 0 0 1 .58.58.574.574 0 0 1-.16.398zm11.58-3.56h-8.303c.18 2.28 1.66 3.94 3.842 3.94a3.613 3.613 0 0 0 2.939-1.381.528.528 0 0 1 .48-.279.61.61 0 0 1 .619.541c0 .18 0 .22-.38.658a4.719 4.719 0 0 1-3.66 1.602c-3.22 0-5.02-2.64-5.02-5.662 0-3 1.8-5.64 5.02-5.64s5.02 2.66 5.02 5.64a.604.604 0 0 1-.559.58zm-4.46-5.08c-2.402 0-3.662 1.84-3.842 3.94h7.7c-.18-2.28-1.66-3.94-3.86-3.94zm8.437 3.26a1.14 1.14 0 1 1 0-2.279 1.14 1.14 0 0 1 0 2.279zm0 6.563a1.141 1.141 0 1 1 0-2.281 1.141 1.141 0 0 1 0 2.281zm12.242.277a3.597 3.597 0 0 1-3.621-3.58.58.58 0 0 1 1.16 0 2.432 2.432 0 0 0 2.42 2.439 2.458 2.458 0 0 0 2.48-2.439v-10.383a.548.548 0 0 1 .561-.561.563.563 0 0 1 .58.561v10.383a3.602 3.602 0 0 1-3.58 3.58z"/><use xlink:href="#C" x="72.7"/><path d="M823.007 1045.98a.562.562 0 0 1-.58-.561v-.64a4.443 4.443 0 0 1-3.422 1.541 4.61 4.61 0 0 1-4.561-4.561v-5.842a.57.57 0 0 1 1.141 0v5.842a3.421 3.421 0 0 0 6.842 0v-5.842a.57.57 0 0 1 1.141 0v9.502a.559.559 0 0 1-.561.561z"/><use xlink:href="#D" x="72.699"/><path d="M841.565 1045.98a.563.563 0 0 1-.58-.561v-5.842a3.42 3.42 0 0 0-6.84 0v5.842a.57.57 0 0 1-1.141 0v-9.502a.57.57 0 0 1 1.141 0v.64a4.562 4.562 0 0 1 7.98 3.02v5.842a.558.558 0 0 1-.561.561zm13.663 0h-.02a2.073 2.073 0 0 1-1.98-1.561 4.536 4.536 0 0 1-3.879 1.9c-3.262 0-5.02-2.682-5.02-5.662 0-3.02 1.8-5.64 5.02-5.64a4.57 4.57 0 0 1 3.879 1.881v-.98a.565.565 0 0 1 .582-.561.546.546 0 0 1 .559.561v8.063c0 1.28 1.44.48 1.44 1.44a.55.55 0 0 1-.58.561zm-5.88-9.822c-2.36 0-3.88 1.9-3.88 4.5s1.52 4.52 3.88 4.52c2.38 0 3.88-1.92 3.88-4.52s-1.5-4.5-3.88-4.5zm10.257 9.942a2.096 2.096 0 0 1-1.98-2.119v-11.684a.57.57 0 0 1 1.141 0v11.684c0 1.28 1.42.54 1.42 1.44a.645.645 0 0 1-.58.68z"/><use xlink:href="#C" x="136.938"/><path d="M882.524 1032.858h-.62a.885.885 0 0 0-.881.859v1.64h1.5a.545.545 0 0 1 .561.561.563.563 0 0 1-.561.58h-1.5v8.922a.546.546 0 0 1-.561.561.535.535 0 0 1-.561-.561v-8.922h-1.38a.571.571 0 0 1 0-1.141h1.38v-1.64a1.986 1.986 0 0 1 1.98-1.98h.64a.569.569 0 0 1 .58.58.536.536 0 0 1-.58.541zm14.64 13.122h-6.662a.607.607 0 0 1-.58-.561v-13.123a.552.552 0 0 1 .58-.561.545.545 0 0 1 .561.561v12.543h6.102a.571.571 0 0 1 0 1.141zm12.82 0h-.02a2.073 2.073 0 0 1-1.98-1.561 4.54 4.54 0 0 1-3.881 1.9c-3.26 0-5.02-2.682-5.02-5.662 0-3.02 1.8-5.64 5.02-5.64a4.574 4.574 0 0 1 3.881 1.881v-.98a.564.564 0 0 1 .58-.561.548.548 0 0 1 .561.561v8.063c0 1.28 1.44.48 1.44 1.44a.55.55 0 0 1-.58.561zm-5.88-9.822c-2.36 0-3.88 1.9-3.88 4.5s1.52 4.52 3.88 4.52c2.38 0 3.88-1.92 3.88-4.52s-1.5-4.5-3.88-4.5zm13.3 10.162a4.54 4.54 0 0 1-3.881-1.9v1a.57.57 0 0 1-1.141 0v-13.123a.57.57 0 0 1 1.141 0v4.602a4.574 4.574 0 0 1 3.881-1.881c3.22 0 5.02 2.64 5.02 5.64 0 3.02-1.8 5.662-5.02 5.662zm0-10.162c-2.38 0-3.88 1.9-3.88 4.5s1.5 4.52 3.88 4.52 3.88-1.92 3.88-4.52-1.502-4.5-3.88-4.5z"/><use xlink:href="#C" x="194.836"/><use xlink:href="#D" x="183.056"/><path d="M957.724 1045.98h-8.88a.606.606 0 0 1-.58-.561v-13.123a.59.59 0 0 1 .58-.561h8.88a.561.561 0 1 1 0 1.121h-8.32v4.92h6.1a.551.551 0 0 1 .58.561.561.561 0 0 1-.559.58h-6.12v5.922h8.32a.567.567 0 0 1 .58.58.55.55 0 0 1-.58.561zm10.54-1.18a4.648 4.648 0 0 1-3.58 1.521c-3.22 0-5.02-2.64-5.02-5.662 0-3 1.8-5.64 5.02-5.64a4.654 4.654 0 0 1 3.58 1.52.539.539 0 0 1 .16.381.627.627 0 0 1-.58.6.582.582 0 0 1-.42-.199 3.526 3.526 0 0 0-2.74-1.16c-2.36 0-3.88 1.9-3.88 4.5s1.52 4.52 3.88 4.52a3.592 3.592 0 0 0 2.74-1.16.582.582 0 0 1 .42-.199.594.594 0 0 1 .58.58.574.574 0 0 1-.16.398z"/><use xlink:href="#C" x="240.854"/><path d="M991.343 1045.98a.563.563 0 0 1-.58-.561v-5.842a3.421 3.421 0 0 0-6.842 0v5.842a.57.57 0 0 1-1.141 0v-9.502a.57.57 0 0 1 1.141 0v.64a4.563 4.563 0 0 1 7.982 3.02v5.842a.559.559 0 0 1-.561.561z"/><use xlink:href="#C" x="264.594"/><path d="M1019.542 1045.98a.546.546 0 0 1-.559-.561v-6.72a2.551 2.551 0 0 0-5.102-.021v6.742a.546.546 0 0 1-.561.561.563.563 0 0 1-.58-.561v-6.72a2.54 2.54 0 0 0-5.08-.021v6.742a.57.57 0 0 1-1.141 0v-9.502a.57.57 0 0 1 1.141 0v.12a3.637 3.637 0 0 1 2.539-1.02 3.696 3.696 0 0 0 6.223 0 3.658 3.658 0 0 1 3.699 3.66v6.742a.562.562 0 0 1-.58.561zm3.818-12.542a1.141 1.141 0 1 1 1.141-1.141 1.127 1.127 0 0 1-1.141 1.141zm0 12.543a.549.549 0 0 1-.58-.561v-9.502a.551.551 0 0 1 .58-.561.545.545 0 0 1 .561.561v9.502a.537.537 0 0 1-.561.561zm11.54-1.18a4.643 4.643 0 0 1-3.58 1.521c-3.22 0-5.02-2.64-5.02-5.662 0-3 1.8-5.64 5.02-5.64a4.648 4.648 0 0 1 3.58 1.52.53.53 0 0 1 .16.381.625.625 0 0 1-.58.6.589.589 0 0 1-.42-.199 3.526 3.526 0 0 0-2.74-1.16c-2.36 0-3.88 1.9-3.88 4.5s1.52 4.52 3.88 4.52a3.592 3.592 0 0 0 2.74-1.16.568.568 0 0 1 1 .381.565.565 0 0 1-.16.398zm5.9 1.56c-1.2 0-3.22-.42-3.92-1.58a.478.478 0 0 1-.08-.299.545.545 0 0 1 1.02-.32 3.817 3.817 0 0 0 2.98 1.061c1.94 0 2.922-.64 2.922-1.94 0-3.02-6.562-1.42-6.562-5.422 0-2.02 2.02-2.8 3.842-2.8a5.413 5.413 0 0 1 3.439 1.16.552.552 0 0 1 .18.379.646.646 0 0 1-.619.6.53.53 0 0 1-.381-.16 3.999 3.999 0 0 0-2.619-.84c-1.762 0-2.7.682-2.7 1.66 0 2.8 6.56 1.32 6.56 5.422 0 2.28-2 3.08-4.06 3.08z"/></g><g fill="#fff"><path d="M64.435 74.48c-2.94 4.08-7.14 6.54-13.38 6.54-12.9 0-17.46-10.68-17.46-22.38 0-11.76 4.56-22.44 17.46-22.44 6.06 0 10.5 2.4 13.32 6.54a2.311 2.311 0 0 1 .539 1.499 2.599 2.599 0 0 1-2.64 2.521 2.511 2.511 0 0 1-2.04-1.079c-1.86-2.7-4.62-4.32-9.18-4.32-8.52 0-12.3 6.3-12.3 17.28s3.78 17.28 12.3 17.28c4.56 0 7.32-1.74 9.18-4.38a2.424 2.424 0 0 1 2.04-1.14 2.524 2.524 0 0 1 2.159 4.08zM93.655 80a2.424 2.424 0 0 1-2.521-2.521V60.8a8.55 8.55 0 1 0-17.099 0v16.62a2.55 2.55 0 0 1-2.641 2.64 2.471 2.471 0 0 1-2.52-2.58V39.862a2.58 2.58 0 0 1 5.16-.061v10.38a12.092 12.092 0 0 1 8.52-3.06 13.79 13.79 0 0 1 13.68 13.68v16.62a2.455 2.455 0 0 1-2.58 2.58z"/><use xlink:href="#E"/><path d="M119.095 80.12a6.122 6.122 0 0 1-6-6.119V39.86a2.58 2.58 0 0 1 5.16-.061V74a.946.946 0 0 0 .84 1.02 2.55 2.55 0 1 1 0 5.1zm31.8-.18a2.436 2.436 0 0 1-2.58-2.52 14.52 14.52 0 0 1-9.9 3.6c-9.66 0-15.06-7.92-15.06-16.98 0-9 5.4-16.92 15.06-16.92a13.222 13.222 0 0 1 9.9 3.899V39.86a2.58 2.58 0 0 1 5.16-.061v37.62a2.436 2.436 0 0 1-2.58 2.52zm-12.48-27.72c-6 0-9.898 4.68-9.898 11.82 0 7.2 3.9 11.88 9.898 11.88 6.06 0 9.9-4.68 9.9-11.88 0-7.14-3.84-11.82-9.9-11.82zm34.86 0a8.644 8.644 0 0 0-8.52 8.58v16.62a2.502 2.502 0 0 1-2.64 2.58 2.457 2.457 0 0 1-2.52-2.521V50.72a2.541 2.541 0 0 1 2.52-2.58 2.464 2.464 0 0 1 2.58 2.04 13.873 13.873 0 0 1 8.579-3.06 2.551 2.551 0 1 1 0 5.1zm28.487 14.46h-22.2c.84 5.64 4.44 9.24 9.72 9.24a9.007 9.007 0 0 0 7.14-3.12 2.483 2.483 0 0 1 1.859-.96 2.801 2.801 0 0 1 2.701 2.641c0 .72-.18 1.26-1.44 2.52a14.623 14.623 0 0 1-10.26 4.02c-9.66 0-15.06-7.98-15.06-16.98 0-8.94 5.4-16.92 15.06-16.92 9.78 0 15 7.98 15 16.92a2.557 2.557 0 0 1-2.519 2.64zm-12.48-14.46c-5.64 0-8.94 4.14-9.72 9.3H199c-.84-5.76-4.44-9.3-9.72-9.3zM233.14 80a2.425 2.425 0 0 1-2.521-2.521V60.8a8.549 8.549 0 1 0-17.099 0v16.62a2.551 2.551 0 0 1-2.64 2.64 2.471 2.471 0 0 1-2.52-2.58V50.66a2.386 2.386 0 0 1 2.52-2.52 2.51 2.51 0 0 1 2.58 1.98 13.702 13.702 0 0 1 22.259 10.68v16.62a2.454 2.454 0 0 1-2.58 2.58z"/><use xlink:href="#E" x="151.785"/><path d="M290.02 80a2.424 2.424 0 0 1-2.52-2.521V60.8a8.55 8.55 0 1 0-17.1 0v16.62a2.55 2.55 0 0 1-2.64 2.64 2.471 2.471 0 0 1-2.52-2.58V50.66a2.386 2.386 0 0 1 2.52-2.52 2.509 2.509 0 0 1 2.58 1.98 13.702 13.702 0 0 1 22.259 10.68v16.62a2.454 2.454 0 0 1-2.58 2.58zm38.458-18.48h-12.84v15.9a2.58 2.58 0 0 1-5.159.06V39.862a2.49 2.49 0 0 1 2.52-2.58h15.54c5.28 0 12.06 4.14 12.06 12.06a12.098 12.098 0 0 1-12.12 12.179zm0-19.14h-12.84v14.04h12.78a7.02 7.02 0 0 0 .06-14.039zm29.88 9.84a8.644 8.644 0 0 0-8.52 8.58v16.62a2.501 2.501 0 0 1-2.641 2.58 2.457 2.457 0 0 1-2.52-2.521V50.72a2.542 2.542 0 0 1 2.52-2.58 2.463 2.463 0 0 1 2.58 2.04 13.874 13.874 0 0 1 8.58-3.06 2.551 2.551 0 1 1 0 5.1zm28.488 14.46h-22.2c.84 5.64 4.44 9.24 9.72 9.24a9.007 9.007 0 0 0 7.14-3.12 2.481 2.481 0 0 1 1.86-.96 2.799 2.799 0 0 1 2.699 2.641c0 .72-.18 1.26-1.44 2.52a14.623 14.623 0 0 1-10.26 4.02c-9.66 0-15.06-7.98-15.06-16.98 0-8.94 5.398-16.92 15.06-16.92 9.78 0 15 7.98 15 16.92a2.559 2.559 0 0 1-2.521 2.64zm-12.48-14.46c-5.64 0-8.94 4.14-9.72 9.3h19.44c-.84-5.76-4.44-9.3-9.72-9.3zm37.44 10.8h-17.16a2.55 2.55 0 1 1 0-5.1h17.16a2.55 2.55 0 0 1 0 5.1zm19.44 18c-4.38 0-10.5-1.8-13.92-4.98a2.402 2.402 0 0 1-.84-1.859 2.6 2.6 0 0 1 2.58-2.58c.9 0 1.2.3 2.28 1.14a16.247 16.247 0 0 0 9.899 3.18c7.14 0 10.26-2.58 10.26-7.02 0-12.48-23.94-5.4-23.94-21.72 0-7.32 6.18-10.98 14.1-10.98 4.14 0 10.08 1.62 13.02 5.1a2.365 2.365 0 0 1 .66 1.62 2.795 2.795 0 0 1-2.58 2.7c-.9 0-1.38-.42-2.4-1.32a13.181 13.181 0 0 0-8.699-2.939c-6.48 0-8.94 2.58-8.94 5.82 0 11.22 23.94 4.56 23.94 21.72 0 8.94-7.5 12.12-15.42 12.12zm43.38-4.56a13.932 13.932 0 0 1-10.739 4.561c-9.66 0-15.06-7.92-15.06-16.98 0-9 5.4-16.92 15.06-16.92a13.931 13.931 0 0 1 10.739 4.56 2.613 2.613 0 0 1 .721 1.739 2.794 2.794 0 0 1-2.7 2.58 2.842 2.842 0 0 1-1.86-.84 8.814 8.814 0 0 0-6.899-2.939c-6 0-9.9 4.68-9.9 11.82 0 7.2 3.9 11.88 9.9 11.88a8.924 8.924 0 0 0 6.899-2.939 2.397 2.397 0 0 1 1.86-.9 2.589 2.589 0 0 1 1.979 4.379zm29.58 3.54a2.423 2.423 0 0 1-2.52-2.521V60.8a8.55 8.55 0 1 0-17.1 0v16.62a2.55 2.55 0 0 1-2.641 2.64 2.471 2.471 0 0 1-2.52-2.58V39.862a2.58 2.58 0 0 1 5.16-.061v10.38a12.092 12.092 0 0 1 8.52-3.06 13.79 13.79 0 0 1 13.68 13.68v16.62a2.455 2.455 0 0 1-2.58 2.58z"/><use xlink:href="#F"/><use xlink:href="#G"/><path d="M584.962 80.12a6.122 6.122 0 0 1-6-6.119V39.86a2.58 2.58 0 0 1 5.16-.061V74a.948.948 0 0 0 .84 1.02 2.55 2.55 0 1 1 0 5.1zm35.938-18.6h-12.84v15.9a2.58 2.58 0 0 1-5.16.06V39.862a2.491 2.491 0 0 1 2.52-2.58h15.54c5.28 0 12.06 4.14 12.06 12.06a12.098 12.098 0 0 1-12.119 12.179zm0-19.14h-12.84v14.04h12.78a7.02 7.02 0 0 0 .061-14.039zm29.88 9.84a8.645 8.645 0 0 0-8.52 8.58v16.62a2.501 2.501 0 0 1-2.641 2.58 2.457 2.457 0 0 1-2.52-2.521V50.72a2.542 2.542 0 0 1 2.52-2.58 2.462 2.462 0 0 1 2.58 2.04 13.874 13.874 0 0 1 8.58-3.06 2.551 2.551 0 1 1 0 5.1z"/><use xlink:href="#G" x="108.656"/><path d="M701.66 93.68c-3.66 0-12.72-1.32-12.72-4.92a2.794 2.794 0 0 1 2.58-2.701c1.38 0 .18.18 3.36 1.38a18.767 18.767 0 0 0 6.779 1.14c6.66 0 9.9-3.18 9.9-9.48v-2.7a14.045 14.045 0 0 1-9.9 3.6c-9.48 0-15.06-6.72-15.06-15.96 0-9 5.398-16.92 15.06-16.92 4.2 0 7.44 1.26 9.9 3.84v-.24a2.553 2.553 0 0 1 2.58-2.58 2.518 2.518 0 0 1 2.578 2.58V79.1c0 9.54-5.7 14.58-15.06 14.58zm0-41.46c-6 0-9.9 4.68-9.9 11.82 0 6.84 3.602 10.86 9.9 10.86s9.9-4.02 9.9-10.86c0-7.14-3.84-11.82-9.9-11.82zm34.86 0a8.645 8.645 0 0 0-8.521 8.58v16.62A2.501 2.501 0 0 1 725.36 80a2.457 2.457 0 0 1-2.52-2.521V50.72a2.541 2.541 0 0 1 2.52-2.58 2.464 2.464 0 0 1 2.58 2.04 13.874 13.874 0 0 1 8.58-3.06 2.551 2.551 0 1 1 0 5.1z"/><use xlink:href="#H"/><path d="M812.345 80a2.457 2.457 0 0 1-2.52-2.521v-18.9a6.33 6.33 0 0 0-12.66-.06v18.9a2.453 2.453 0 0 1-2.578 2.58 2.425 2.425 0 0 1-2.521-2.521v-18.9a6.36 6.36 0 0 0-12.719-.06v18.9a2.501 2.501 0 0 1-2.641 2.58 2.457 2.457 0 0 1-2.52-2.521V50.66a2.632 2.632 0 0 1 4.801-1.439 11.552 11.552 0 0 1 6.658-2.1 11.36 11.36 0 0 1 8.941 4.26 11.236 11.236 0 0 1 8.879-4.26 11.459 11.459 0 0 1 11.52 11.399v18.9a2.501 2.501 0 0 1-2.641 2.58zm18.242 1.02c-3.3 0-8.82-1.02-11.64-4.5a2.656 2.656 0 0 1 2.16-4.26 2.46 2.46 0 0 1 1.859 1.02c1.86 2.04 4.92 2.64 7.62 2.64 5.398 0 7.14-1.86 7.14-4.56 0-7.68-18.3-2.94-18.3-15.3 0-6.54 6.12-8.94 11.82-8.94 3.238 0 10.86 1.62 10.86 4.98a2.695 2.695 0 0 1-2.521 2.7 3.614 3.614 0 0 1-1.979-.78c-1.62-1.38-3.96-1.8-6.36-1.8-4.98 0-6.72 1.86-6.72 3.84 0 7.14 18.36 2.52 18.36 15.3 0 7.08-5.94 9.66-12.3 9.66zm40.56 0c-4.38 0-10.5-1.8-13.92-4.98a2.398 2.398 0 0 1-.84-1.859 2.6 2.6 0 0 1 2.58-2.58c.9 0 1.2.3 2.28 1.14a16.252 16.252 0 0 0 9.9 3.18c7.14 0 10.26-2.58 10.26-7.02 0-12.48-23.94-5.4-23.94-21.72 0-7.32 6.18-10.98 14.1-10.98 4.14 0 10.08 1.62 13.02 5.1a2.365 2.365 0 0 1 .66 1.62 2.795 2.795 0 0 1-2.58 2.7c-.9 0-1.38-.42-2.4-1.32a13.179 13.179 0 0 0-8.699-2.939c-6.48 0-8.94 2.58-8.94 5.82 0 11.22 23.94 4.56 23.94 21.72 0 8.94-7.5 12.12-15.42 12.12zm29.1-1.02h-1.02c-5.7 0-7.86-3-7.86-7.92V53.24h-1.8a2.55 2.55 0 0 1-.061-5.1h1.8V39.8a2.436 2.436 0 0 1 2.58-2.52 2.389 2.389 0 0 1 2.52 2.52v8.34h3.84a2.488 2.488 0 0 1 2.52 2.52 2.44 2.44 0 0 1-2.52 2.58h-3.84v19.38c0 1.68.6 2.28 2.28 2.28h1.5a2.474 2.474 0 0 1 2.58 2.52 2.44 2.44 0 0 1-2.52 2.58z"/><use xlink:href="#H" x="166.918"/><path d="M967.083 51.74l-16.2 36.84a6.876 6.876 0 0 1-6.6 4.021h-1.92a2.42 2.42 0 0 1-2.52-2.641 2.386 2.386 0 0 1 2.52-2.52h1.86a1.892 1.892 0 0 0 1.979-.961l3.96-8.88-11.7-25.86a2.162 2.162 0 0 1-.301-1.14 2.705 2.705 0 0 1 2.76-2.521 2.31 2.31 0 0 1 2.16 1.561l9.78 21.72 9.54-21.72a2.376 2.376 0 0 1 2.221-1.5 2.66 2.66 0 0 1 2.76 2.46 2.034 2.034 0 0 1-.301 1.14zm18.54-8.458a4.32 4.32 0 1 1 4.32-4.32 4.302 4.302 0 0 1-4.32 4.32zm0 36.72a2.519 2.519 0 0 1-2.639-2.521V50.72a2.532 2.532 0 0 1 2.639-2.58 2.472 2.472 0 0 1 2.52 2.58v26.76a2.421 2.421 0 0 1-2.52 2.521zm33.658-.002a2.423 2.423 0 0 1-2.52-2.521V60.8a8.55 8.55 0 1 0-17.1 0v16.62a2.55 2.55 0 0 1-2.641 2.64 2.471 2.471 0 0 1-2.52-2.58V50.66a2.387 2.387 0 0 1 2.52-2.52 2.507 2.507 0 0 1 2.58 1.98 13.703 13.703 0 0 1 22.26 10.68v16.62a2.454 2.454 0 0 1-2.58 2.58zM62.216 141.2h-24.96a2.601 2.601 0 0 1-2.641-2.52v-37.618a2.612 2.612 0 0 1 2.641-2.58h24.96a2.425 2.425 0 0 1 2.52 2.521 2.505 2.505 0 0 1-2.52 2.579h-22.44v12.12h15.72a2.56 2.56 0 0 1 2.58 2.58 2.523 2.523 0 0 1-2.58 2.579h-15.72v15.24h22.44a2.471 2.471 0 0 1 2.52 2.58 2.425 2.425 0 0 1-2.52 2.52zm31.734-.06a2.437 2.437 0 0 1-2.58-2.521 14.513 14.513 0 0 1-9.898 3.601c-9.66 0-15.06-7.92-15.06-16.98 0-9 5.4-16.92 15.06-16.92a13.223 13.223 0 0 1 9.898 3.9v-11.16a2.58 2.58 0 0 1 5.16-.06v37.617a2.436 2.436 0 0 1-2.58 2.521zm-12.48-27.72c-6 0-9.9 4.68-9.9 11.82 0 7.2 3.9 11.88 9.9 11.88 6.06 0 9.898-4.68 9.898-11.88 0-7.14-3.84-11.82-9.898-11.82zm45.48 27.84a2.445 2.445 0 0 1-2.52-1.98 13.965 13.965 0 0 1-8.641 3 13.79 13.79 0 0 1-13.679-13.68v-16.62a2.58 2.58 0 0 1 5.159-.06v16.68a8.55 8.55 0 1 0 17.1 0v-16.62a2.393 2.393 0 0 1 2.52-2.64 2.453 2.453 0 0 1 2.58 2.58v26.82a2.389 2.389 0 0 1-2.52 2.52zm33.06-3.6a13.94 13.94 0 0 1-10.74 4.56c-9.66 0-15.06-7.92-15.06-16.98 0-9 5.398-16.92 15.06-16.92a13.94 13.94 0 0 1 10.74 4.561 2.617 2.617 0 0 1 .719 1.74 2.793 2.793 0 0 1-2.699 2.58 2.838 2.838 0 0 1-1.859-.84 8.815 8.815 0 0 0-6.9-2.94c-6 0-9.9 4.68-9.9 11.82 0 7.2 3.9 11.88 9.9 11.88a8.922 8.922 0 0 0 6.9-2.939 2.394 2.394 0 0 1 1.859-.9 2.591 2.591 0 0 1 1.98 4.381zm34.4 3.54a5.836 5.836 0 0 1-5.34-3.42 13.749 13.749 0 0 1-10.561 4.44c-9.78 0-15.06-8.04-15.06-16.98s5.4-16.92 15.06-16.92a13.256 13.256 0 0 1 9.9 3.961v-.24a2.476 2.476 0 0 1 2.52-2.7 2.413 2.413 0 0 1 2.641 2.521v23.158a.97.97 0 0 0 .84 1.08 2.55 2.55 0 1 1 0 5.1zm-15.9-27.778c-6 0-9.898 4.68-9.898 11.82 0 7.2 3.9 11.88 9.898 11.88 6.06 0 9.9-4.68 9.9-11.88 0-7.14-3.84-11.82-9.9-11.82zm31.8 27.778h-1.02c-5.7 0-7.86-3-7.86-7.92v-18.838h-1.8a2.551 2.551 0 0 1-.061-5.101h1.8V101a2.437 2.437 0 0 1 2.58-2.521 2.39 2.39 0 0 1 2.521 2.521v8.34h3.84a2.487 2.487 0 0 1 2.52 2.521 2.441 2.441 0 0 1-2.52 2.58h-3.84v19.38c0 1.68.6 2.28 2.28 2.28h1.5a2.476 2.476 0 0 1 2.58 2.52 2.441 2.441 0 0 1-2.52 2.58zm8.27-36.72a4.319 4.319 0 1 1 4.32-4.318 4.302 4.302 0 0 1-4.32 4.318zm0 36.72a2.52 2.52 0 0 1-2.641-2.52v-26.76a2.533 2.533 0 0 1 2.641-2.58 2.471 2.471 0 0 1 2.52 2.58v26.76a2.42 2.42 0 0 1-2.52 2.52z"/><use xlink:href="#I"/><path d="M285.706 141.2a2.423 2.423 0 0 1-2.52-2.52V122a8.55 8.55 0 1 0-17.1 0v16.62a2.55 2.55 0 0 1-2.64 2.641 2.472 2.472 0 0 1-2.52-2.58v-26.818a2.387 2.387 0 0 1 2.52-2.521 2.509 2.509 0 0 1 2.58 1.979 13.702 13.702 0 0 1 22.259 10.68v16.62a2.453 2.453 0 0 1-2.58 2.58zm41.34 0h-18.24a2.601 2.601 0 0 1-2.64-2.52v-37.618a2.58 2.58 0 0 1 5.16-.06V136.1h15.72a2.55 2.55 0 0 1 0 5.1z"/><use xlink:href="#I" x="105.178"/><path d="M390.885 141.2a2.424 2.424 0 0 1-2.521-2.52V122a8.549 8.549 0 1 0-17.099 0v16.62a2.551 2.551 0 0 1-2.64 2.641 2.472 2.472 0 0 1-2.52-2.58v-26.818a2.387 2.387 0 0 1 2.52-2.521 2.51 2.51 0 0 1 2.58 1.979 13.702 13.702 0 0 1 22.259 10.68v16.62a2.454 2.454 0 0 1-2.58 2.58zm21.84 13.68c-3.66 0-12.72-1.32-12.72-4.92a2.794 2.794 0 0 1 2.58-2.699c1.38 0 .18.18 3.36 1.38a18.73 18.73 0 0 0 6.78 1.141c6.66 0 9.9-3.18 9.9-9.48v-2.7a14.032 14.032 0 0 1-9.899 3.6c-9.48 0-15.06-6.72-15.06-15.96 0-9 5.4-16.92 15.06-16.92 4.2 0 7.44 1.26 9.9 3.84v-.24a2.554 2.554 0 0 1 2.58-2.58 2.519 2.519 0 0 1 2.58 2.58v28.38c0 9.54-5.7 14.58-15.06 14.58zm0-41.458c-6 0-9.9 4.68-9.9 11.82 0 6.84 3.6 10.86 9.9 10.86s9.9-4.02 9.9-10.86c0-7.14-3.84-11.82-9.9-11.82zm47.34 14.46h-22.2c.84 5.64 4.44 9.238 9.72 9.238a9.001 9.001 0 0 0 7.139-3.119 2.488 2.488 0 0 1 1.86-.96 2.8 2.8 0 0 1 2.7 2.64c0 .72-.18 1.26-1.44 2.52a14.622 14.622 0 0 1-10.26 4.021c-9.66 0-15.06-7.98-15.06-16.98 0-8.94 5.4-16.92 15.06-16.92 9.78 0 15 7.98 15 16.92a2.559 2.559 0 0 1-2.52 2.641zm-12.48-14.46c-5.64 0-8.94 4.14-9.72 9.3h19.44c-.84-5.76-4.44-9.3-9.72-9.3zm32.76 0a8.643 8.643 0 0 0-8.52 8.579v16.62a2.501 2.501 0 0 1-2.641 2.58 2.456 2.456 0 0 1-2.52-2.52v-26.76a2.541 2.541 0 0 1 2.52-2.58 2.463 2.463 0 0 1 2.58 2.04 13.875 13.875 0 0 1 8.58-3.061 2.552 2.552 0 1 1 0 5.101zm6.72 33.058a2.434 2.434 0 0 1-1.26.42 2.641 2.641 0 0 1-2.52-2.64c0-2.04 2.28-2.46 2.28-3.42v-.06s-2.398-.66-2.398-4.26a3.88 3.88 0 0 1 4.02-3.719c2.82 0 4.5 3.18 4.5 5.76a9.49 9.49 0 0 1-4.621 7.919zm49.738-5.28h-24.96a2.6 2.6 0 0 1-2.639-2.52v-37.618a2.611 2.611 0 0 1 2.639-2.58h24.96a2.425 2.425 0 0 1 2.52 2.521 2.503 2.503 0 0 1-2.52 2.579h-22.44v12.12h15.72a2.56 2.56 0 0 1 2.58 2.58 2.524 2.524 0 0 1-2.58 2.579h-15.72v15.24h22.44a2.47 2.47 0 0 1 2.52 2.58 2.424 2.424 0 0 1-2.519 2.52zm34.438 0a5.836 5.836 0 0 1-5.34-3.42 13.744 13.744 0 0 1-10.559 4.44c-9.78 0-15.06-8.04-15.06-16.98s5.4-16.92 15.06-16.92a13.253 13.253 0 0 1 9.898 3.961v-.24a2.476 2.476 0 0 1 2.52-2.7 2.413 2.413 0 0 1 2.641 2.521v23.158a.97.97 0 0 0 .84 1.08 2.55 2.55 0 1 1 0 5.1zm-15.898-27.778c-6 0-9.9 4.68-9.9 11.82 0 7.2 3.9 11.88 9.9 11.88 6.06 0 9.898-4.68 9.898-11.88 0-7.14-3.84-11.82-9.898-11.82z"/><use xlink:href="#J"/><use xlink:href="#K"/><path d="M667.237 141.2a2.518 2.518 0 0 1-2.639-2.52v-17.82h-19.8v17.82a2.58 2.58 0 0 1-5.158 0v-37.678a2.58 2.58 0 0 1 5.158 0v14.76h19.8v-14.7a2.579 2.579 0 1 1 5.158 0v37.558a2.54 2.54 0 0 1-2.52 2.58zm11.4-36.72a4.319 4.319 0 1 1 4.32-4.318 4.302 4.302 0 0 1-4.32 4.318zm0 36.72a2.518 2.518 0 0 1-2.639-2.52v-26.76a2.532 2.532 0 0 1 2.639-2.58 2.471 2.471 0 0 1 2.52 2.58v26.76a2.42 2.42 0 0 1-2.52 2.52zm22.56 13.68c-3.66 0-12.72-1.32-12.72-4.92a2.794 2.794 0 0 1 2.58-2.699c1.38 0 .18.18 3.36 1.38a18.732 18.732 0 0 0 6.781 1.141c6.658 0 9.898-3.18 9.898-9.48v-2.7a14.031 14.031 0 0 1-9.898 3.6c-9.48 0-15.06-6.72-15.06-15.96 0-9 5.4-16.92 15.06-16.92 4.2 0 7.44 1.26 9.898 3.84v-.24a2.554 2.554 0 0 1 2.58-2.58 2.519 2.519 0 0 1 2.58 2.58v28.38c0 9.54-5.7 14.58-15.06 14.58zm0-41.458c-6 0-9.9 4.68-9.9 11.82 0 6.84 3.6 10.86 9.9 10.86s9.898-4.02 9.898-10.86c0-7.14-3.84-11.82-9.898-11.82zm45.957 27.778a2.424 2.424 0 0 1-2.52-2.52V122a8.55 8.55 0 1 0-17.1 0v16.62a2.55 2.55 0 0 1-2.639 2.641 2.472 2.472 0 0 1-2.52-2.58v-37.618a2.579 2.579 0 0 1 5.158-.06v10.38a12.105 12.105 0 0 1 8.521-3.061 13.789 13.789 0 0 1 13.678 13.68v16.62a2.453 2.453 0 0 1-2.58 2.58zm34.32-13.318h-22.2c.84 5.64 4.44 9.238 9.72 9.238a9.003 9.003 0 0 0 7.139-3.119 2.487 2.487 0 0 1 1.859-.96 2.801 2.801 0 0 1 2.701 2.64c0 .72-.18 1.26-1.44 2.52a14.614 14.614 0 0 1-10.258 4.021c-9.66 0-15.06-7.98-15.06-16.98 0-8.94 5.4-16.92 15.06-16.92 9.78 0 14.998 7.98 14.998 16.92a2.558 2.558 0 0 1-2.52 2.641zm-12.48-14.46c-5.64 0-8.94 4.14-9.72 9.3h19.44c-.84-5.76-4.44-9.3-9.72-9.3z"/><use xlink:href="#J" x="211.077"/><path d="M825.155 141.2h-6.9a2.55 2.55 0 0 1 0-5.1h.9v-32.52h-.9a2.55 2.55 0 0 1 0-5.1h6.9a2.551 2.551 0 1 1 0 5.1h-.9v32.52h.9a2.551 2.551 0 1 1 0 5.1z"/><use xlink:href="#K" x="237.415"/><path d="M889.175 137.66a13.94 13.94 0 0 1-10.74 4.56c-9.66 0-15.06-7.92-15.06-16.98 0-9 5.398-16.92 15.06-16.92a13.94 13.94 0 0 1 10.74 4.561 2.622 2.622 0 0 1 .719 1.74 2.794 2.794 0 0 1-2.699 2.58 2.838 2.838 0 0 1-1.859-.84 8.813 8.813 0 0 0-6.9-2.94c-6 0-9.9 4.68-9.9 11.82 0 7.2 3.9 11.88 9.9 11.88a8.922 8.922 0 0 0 6.9-2.939 2.394 2.394 0 0 1 1.859-.9 2.591 2.591 0 0 1 1.98 4.381z"/><use xlink:href="#F" x="381.609" y="61.2"/><path d="M965.612 141.2a2.456 2.456 0 0 1-2.52-2.52v-18.898a6.33 6.33 0 0 0-12.66-.061v18.898a2.453 2.453 0 0 1-2.58 2.58 2.423 2.423 0 0 1-2.52-2.52V119.78a6.361 6.361 0 0 0-12.721-.061v18.898a2.5 2.5 0 0 1-2.639 2.58 2.456 2.456 0 0 1-2.52-2.52V111.86a2.632 2.632 0 0 1 4.799-1.44 11.562 11.562 0 0 1 6.66-2.101 11.36 11.36 0 0 1 8.939 4.261 11.24 11.24 0 0 1 8.879-4.261 11.459 11.459 0 0 1 11.52 11.4v18.898a2.5 2.5 0 0 1-2.639 2.58zm34.38-13.318h-22.2c.84 5.64 4.44 9.238 9.72 9.238a9.007 9.007 0 0 0 7.141-3.119 2.481 2.481 0 0 1 1.859-.96 2.799 2.799 0 0 1 2.699 2.64c0 .72-.18 1.26-1.44 2.52a14.618 14.618 0 0 1-10.26 4.021c-9.66 0-15.06-7.98-15.06-16.98 0-8.94 5.398-16.92 15.06-16.92 9.78 0 15 7.98 15 16.92a2.559 2.559 0 0 1-2.52 2.641zm-12.48-14.46c-5.64 0-8.94 4.14-9.72 9.3h19.438c-.84-5.76-4.44-9.3-9.72-9.3zm29.1 28.798c-3.3 0-8.818-1.02-11.64-4.5a2.654 2.654 0 0 1 2.16-4.26 2.465 2.465 0 0 1 1.859 1.021c1.86 2.04 4.92 2.64 7.62 2.64 5.4 0 7.14-1.86 7.14-4.56 0-7.68-18.3-2.94-18.3-15.3 0-6.54 6.12-8.94 11.82-8.94 3.24 0 10.86 1.62 10.86 4.98a2.693 2.693 0 0 1-2.52 2.699 3.61 3.61 0 0 1-1.98-.779c-1.62-1.38-3.96-1.8-6.36-1.8-4.98 0-6.72 1.86-6.72 3.84 0 7.14 18.36 2.52 18.36 15.3 0 7.08-5.94 9.66-12.3 9.66zM53.887 238.9a1.019 1.019 0 0 1-.91-.595l-2.24-5.4h-12.6l-2.24 5.4a.986.986 0 0 1-1.891-.351 1.032 1.032 0 0 1 .07-.455l9.45-22.927a1.103 1.103 0 0 1 1.016-.665.903.903 0 0 1 .84.665l9.45 22.927a1.045 1.045 0 0 1 .069.455.978.978 0 0 1-1.015.945zm-9.45-21.317L38.94 230.9h11.025zM80.032 238.9a.955.955 0 0 1-.98-.979v-11.76a4.463 4.463 0 0 0-8.926-.035v11.797a.955.955 0 0 1-.98.979.983.983 0 0 1-1.015-.979V226.15a4.446 4.446 0 0 0-8.892-.035v11.797a.997.997 0 0 1-1.994 0v-16.627a.997.997 0 0 1 1.994 0v.2a6.364 6.364 0 0 1 4.446-1.785 6.49 6.49 0 0 1 5.46 2.976 6.461 6.461 0 0 1 11.901 3.43v11.797a.983.983 0 0 1-1.015.979zm20.754-8.295H86.26c.315 4 2.905 6.895 6.72 6.895a6.328 6.328 0 0 0 5.146-2.415.918.918 0 0 1 .84-.489 1.07 1.07 0 0 1 1.085.944c0 .315 0 .386-.665 1.155a8.261 8.261 0 0 1-6.405 2.801c-5.636 0-8.786-4.62-8.786-9.906 0-5.25 3.15-9.87 8.786-9.87s8.786 4.655 8.786 9.87a1.059 1.059 0 0 1-.981 1.015zm-7.806-8.9c-4.2 0-6.405 3.22-6.72 6.896h13.477c-.315-4-2.905-6.896-6.756-6.896z"/><use xlink:href="#L"/><path d="M117.094 216.944a1.995 1.995 0 1 1 1.995-1.995 1.972 1.972 0 0 1-1.995 1.995zm0 21.947a.961.961 0 0 1-1.015-.979v-16.627a.964.964 0 0 1 1.015-.98.953.953 0 0 1 .98.98v16.627a.935.935 0 0 1-.98.979zm19.496-2.064a8.133 8.133 0 0 1-6.266 2.66c-5.637 0-8.787-4.62-8.787-9.906 0-5.25 3.15-9.87 8.787-9.87a8.133 8.133 0 0 1 6.266 2.66.93.93 0 0 1 .279.665 1.096 1.096 0 0 1-1.015 1.05 1.031 1.031 0 0 1-.735-.35 6.172 6.172 0 0 0-4.795-2.03c-4.13 0-6.8 3.325-6.8 7.876s2.66 7.9 6.8 7.9a6.291 6.291 0 0 0 4.795-2.029.993.993 0 0 1 1.75.665 1.008 1.008 0 0 1-.279.7z"/><use xlink:href="#M"/><path d="M162.068 221.215a1.156 1.156 0 0 1-.525.175 1.124 1.124 0 0 1-.979-1.189c0-.77 1.995-.945 1.995-3.186v-2.66a.996.996 0 0 1 .979-1.051 1.024 1.024 0 0 1 1.016 1.051v2.66a4.989 4.989 0 0 1-2.485 4.2zm12.602 18.34c-2.1 0-5.636-.735-6.86-2.765a.85.85 0 0 1-.14-.525.955.955 0 0 1 1.785-.561c1.26 1.54 3.5 1.855 5.216 1.855 3.395 0 5.1-1.12 5.1-3.396 0-5.285-11.48-2.485-11.48-9.485 0-3.535 3.535-4.9 6.72-4.9 1.82 0 4.62.63 6.02 2.03a.982.982 0 0 1 .315.666 1.135 1.135 0 0 1-1.085 1.05.928.928 0 0 1-.665-.28 7.003 7.003 0 0 0-4.586-1.47c-3.08 0-4.726 1.2-4.726 2.905 0 4.9 11.48 2.3 11.48 9.485 0 4-3.5 5.4-7.105 5.4zm21.488-24.326a2.854 2.854 0 0 0-1.54 2.45v2.66a.998.998 0 0 1-1.996 0v-2.66a5.132 5.132 0 0 1 2.521-4.2.79.79 0 0 1 .525-.176 1.073 1.073 0 0 1 .98 1.086.951.951 0 0 1-.489.84zm19.706 23.66a.953.953 0 0 1-.98-.979v-11.377h-13.58v11.377a.936.936 0 0 1-.98.979.962.962 0 0 1-1.015-.979v-22.96a.962.962 0 0 1 1.015-.979.936.936 0 0 1 .98.979v9.6h13.58v-9.6a.936.936 0 0 1 .98-.979.961.961 0 0 1 1.015.979v22.963a.963.963 0 0 1-1.015.979zm21.07-8.295h-14.526c.314 4 2.905 6.895 6.72 6.895a6.325 6.325 0 0 0 5.146-2.415.917.917 0 0 1 .84-.489 1.07 1.07 0 0 1 1.085.944c0 .315 0 .386-.665 1.155a8.263 8.263 0 0 1-6.405 2.801c-5.636 0-8.786-4.62-8.786-9.906 0-5.25 3.15-9.87 8.786-9.87s8.786 4.655 8.786 9.87a1.059 1.059 0 0 1-.981 1.015zm-7.806-8.9c-4.2 0-6.406 3.22-6.72 6.896h13.477c-.315-4-2.905-6.896-6.756-6.896z"/><use xlink:href="#M" x="101.008"/><path d="M278.933 238.9a.984.984 0 0 1-1.016-.979v-1.75a7.941 7.941 0 0 1-6.79 3.326c-5.636 0-8.786-4.62-8.786-9.906 0-5.25 3.15-9.87 8.786-9.87a8.001 8.001 0 0 1 6.79 3.29v-8.05a.998.998 0 0 1 1.996 0v22.963a.976.976 0 0 1-.98.98zm-7.806-17.187c-4.13 0-6.8 3.325-6.8 7.876s2.66 7.9 6.8 7.9c4.165 0 6.8-3.36 6.8-7.9s-2.625-7.876-6.8-7.876zm28.175 17.784c-2.695 0-6.37-1.086-8.366-3.08a.914.914 0 0 1-.315-.7 1.065 1.065 0 0 1 1.016-1.015c.42 0 .385.104 1.12.665a11.088 11.088 0 0 0 6.546 2.135c4.4 0 6.965-1.645 6.965-4.795 0-8.296-14.806-3.676-14.806-13.23 0-4.2 3.675-6.126 8.2-6.126 2.52 0 6.056 1.086 7.63 3.3a.974.974 0 0 1-.84 1.575c-.5 0-.5-.14-1.085-.735a8.1 8.1 0 0 0-5.706-2.136c-4.165 0-6.195 1.6-6.195 4.13 0 7.525 14.807 3.15 14.807 13.23 0 4.865-4.27 6.8-8.96 6.8zm18.164-.597h-1.085c-2.765 0-4.13-1.365-4.13-4.096V222.3h-1.785a.998.998 0 0 1 0-1.995h1.785v-5.355a.984.984 0 0 1 1.015-.979.955.955 0 0 1 .98.979v5.355h3.22a.998.998 0 0 1 0 1.995h-3.22v12.496c0 1.716.5 2.1 2.135 2.1h1.085a.998.998 0 0 1 0 1.995zm21.736 0h-.035a3.624 3.624 0 0 1-3.465-2.73 7.944 7.944 0 0 1-6.791 3.326c-5.705 0-8.785-4.7-8.785-9.906 0-5.286 3.15-9.87 8.785-9.87a8.004 8.004 0 0 1 6.791 3.29v-1.715a.986.986 0 0 1 1.015-.98.956.956 0 0 1 .98.98v14.106c0 2.24 2.52.84 2.52 2.52a.963.963 0 0 1-1.016.98zm-10.3-17.187c-4.13 0-6.8 3.325-6.8 7.876s2.66 7.9 6.8 7.9c4.166 0 6.8-3.36 6.8-7.9s-2.625-7.876-6.8-7.876zm21.768.317a5.983 5.983 0 0 0-5.985 5.985v9.906a.998.998 0 0 1-1.995 0v-16.627a.998.998 0 0 1 1.995 0v1.435a7.992 7.992 0 0 1 5.985-2.695.998.998 0 1 1 0 1.996zm9.276 16.87h-1.086c-2.766 0-4.13-1.365-4.13-4.096V222.3h-1.785a.998.998 0 0 1 0-1.995h1.785v-5.355a.983.983 0 0 1 1.015-.979.955.955 0 0 1 .98.979v5.355h3.22a.998.998 0 0 1 0 1.995h-3.22v12.496c0 1.716.5 2.1 2.135 2.1h1.086a.998.998 0 0 1 0 1.995zm3.394-17.675a1.153 1.153 0 0 1-.524.175 1.124 1.124 0 0 1-.98-1.189c0-.77 1.995-.945 1.995-3.186v-2.66a.996.996 0 0 1 .979-1.051 1.024 1.024 0 0 1 1.016 1.051v2.66a4.989 4.989 0 0 1-2.485 4.2z"/><use xlink:href="#N"/><path d="M63.476 261.02a5.983 5.983 0 0 0-5.986 5.985v9.906a.997.997 0 0 1-1.994 0v-16.627a.997.997 0 0 1 1.994 0v1.435a7.996 7.996 0 0 1 5.986-2.695.998.998 0 1 1 0 1.996zm10.85 17.467c-5.636 0-8.785-4.62-8.785-9.906 0-5.25 3.15-9.87 8.785-9.87s8.786 4.62 8.786 9.87c0 5.285-3.15 9.906-8.786 9.906zm0-17.782c-4.13 0-6.8 3.325-6.8 7.876s2.66 7.9 6.8 7.9c4.166 0 6.8-3.36 6.8-7.9s-2.625-7.876-6.8-7.876zm20.23 25.168c-2.976 0-7.176-1.12-7.176-2.38a1.111 1.111 0 0 1 1.016-1.12 12.737 12.737 0 0 1 1.854.84 13.105 13.105 0 0 0 4.306.666c4.48 0 6.8-2.206 6.8-6.5v-2.45a8.359 8.359 0 0 1-6.791 2.975c-5.53 0-8.786-3.92-8.786-9.3 0-5.25 3.15-9.87 8.786-9.87a8.002 8.002 0 0 1 6.791 3.29v-1.68a.998.998 0 0 1 1.995 0v17.047c0 5.565-3.325 8.506-8.786 8.506zm0-25.168c-4.13 0-6.8 3.325-6.8 7.876 0 4.516 2.484 7.315 6.8 7.315s6.8-2.8 6.8-7.315c0-4.55-2.626-7.876-6.8-7.876z"/><use xlink:href="#O"/><path d="M135.92 277.9h-.035a3.624 3.624 0 0 1-3.466-2.73 7.941 7.941 0 0 1-6.79 3.326c-5.706 0-8.786-4.7-8.786-9.906 0-5.286 3.15-9.87 8.786-9.87a8.001 8.001 0 0 1 6.79 3.29v-1.715a.987.987 0 0 1 1.016-.98.956.956 0 0 1 .979.98v14.106c0 2.24 2.52.84 2.52 2.52a.962.962 0 0 1-1.015.98zm-10.3-17.187c-4.13 0-6.8 3.325-6.8 7.876s2.66 7.9 6.8 7.9c4.165 0 6.8-3.36 6.8-7.9s-2.625-7.876-6.8-7.876zm36.574 17.187a.955.955 0 0 1-.98-.979v-11.76a4.463 4.463 0 0 0-8.926-.035v11.797a.955.955 0 0 1-.98.979.983.983 0 0 1-1.015-.979V265.15a4.446 4.446 0 0 0-8.892-.035v11.797a.997.997 0 0 1-1.994 0v-16.627a.997.997 0 0 1 1.994 0v.2a6.364 6.364 0 0 1 4.446-1.785 6.49 6.49 0 0 1 5.46 2.976 6.461 6.461 0 0 1 11.901 3.43v11.797a.983.983 0 0 1-1.015.979zm18.688.666c-2.1 0-5.636-.735-6.86-2.765a.85.85 0 0 1-.14-.525.955.955 0 0 1 1.785-.561c1.26 1.54 3.5 1.855 5.216 1.855 3.395 0 5.1-1.12 5.1-3.396 0-5.285-11.48-2.485-11.48-9.485 0-3.535 3.535-4.9 6.72-4.9 1.82 0 4.62.63 6.02 2.03a.985.985 0 0 1 .314.666 1.135 1.135 0 0 1-1.085 1.05.928.928 0 0 1-.665-.28 6.999 6.999 0 0 0-4.586-1.47c-3.08 0-4.725 1.2-4.725 2.905 0 4.9 11.48 2.3 11.48 9.485 0 4-3.5 5.4-7.105 5.4zm24.746-.666a.984.984 0 0 1-1.016-.979v-1.12a7.776 7.776 0 0 1-5.985 2.695 8.068 8.068 0 0 1-7.98-7.981v-10.22a.998.998 0 0 1 1.995 0v10.22a5.986 5.986 0 0 0 11.971 0v-10.22a.998.998 0 0 1 1.996 0v16.627a.976.976 0 0 1-.98.979zm14.034.597a7.941 7.941 0 0 1-6.79-3.326v9.066a.998.998 0 1 1-1.996 0v-23.942a.998.998 0 0 1 1.996 0V262a8.001 8.001 0 0 1 6.79-3.29c5.636 0 8.786 4.62 8.786 9.87 0 5.285-3.15 9.906-8.786 9.906zm0-17.782c-4.165 0-6.8 3.325-6.8 7.876s2.625 7.9 6.8 7.9 6.8-3.36 6.8-7.9-2.626-7.876-6.8-7.876z"/><use xlink:href="#N" x="197.461"/><path d="M260.937 278.487c-5.636 0-8.786-4.62-8.786-9.906 0-5.25 3.15-9.87 8.786-9.87s8.786 4.62 8.786 9.87c0 5.285-3.15 9.906-8.786 9.906zm0-17.782c-4.13 0-6.8 3.325-6.8 7.876s2.66 7.9 6.8 7.9c4.165 0 6.8-3.36 6.8-7.9s-2.626-7.876-6.8-7.876zm20.23.315a5.983 5.983 0 0 0-5.985 5.985v9.906a.998.998 0 0 1-1.996 0v-16.627a.998.998 0 0 1 1.996 0v1.435a7.992 7.992 0 0 1 5.985-2.695.998.998 0 1 1 0 1.996zm9.274 16.87h-1.085c-2.765 0-4.13-1.365-4.13-4.096V261.3h-1.785a.998.998 0 0 1 0-1.995h1.785v-5.355a.983.983 0 0 1 1.015-.979.954.954 0 0 1 .979.979v5.355h3.22a.998.998 0 0 1 0 1.995h-3.22v12.496c0 1.716.5 2.1 2.136 2.1h1.085a.998.998 0 0 1 0 1.995zm9.3.666c-2.1 0-5.637-.735-6.86-2.765a.85.85 0 0 1-.14-.525.955.955 0 0 1 1.785-.561c1.26 1.54 3.5 1.855 5.216 1.855 3.395 0 5.1-1.12 5.1-3.396 0-5.285-11.48-2.485-11.48-9.485 0-3.535 3.535-4.9 6.72-4.9 1.82 0 4.62.63 6.02 2.03a.982.982 0 0 1 .315.666 1.135 1.135 0 0 1-1.086 1.05.926.926 0 0 1-.664-.28 7.003 7.003 0 0 0-4.586-1.47c-3.08 0-4.726 1.2-4.726 2.905 0 4.9 11.48 2.3 11.48 9.485 0 4-3.5 5.4-7.105 5.4zm31.046-17.536l-6.02 6.02 5.95 9.3a.989.989 0 0 1 .21.561 1.063 1.063 0 0 1-1.05.944.988.988 0 0 1-.84-.455l-5.74-8.926-3.604 3.64v4.796a.998.998 0 0 1-1.996 0v-22.96a.998.998 0 0 1 1.996 0v15.332l9.66-9.66a.982.982 0 0 1 .735-.315 1.009 1.009 0 0 1 1.015.98.981.981 0 0 1-.314.735zm4.024-5.076a1.995 1.995 0 1 1 1.995-1.995 1.972 1.972 0 0 1-1.995 1.995zm0 21.947a.962.962 0 0 1-1.016-.979v-16.627a.965.965 0 0 1 1.016-.98.954.954 0 0 1 .98.98v16.627a.936.936 0 0 1-.98.979zm21.035-.001a.983.983 0 0 1-1.015-.979v-1.75a7.944 7.944 0 0 1-6.791 3.326c-5.636 0-8.786-4.62-8.786-9.906 0-5.25 3.15-9.87 8.786-9.87a8.004 8.004 0 0 1 6.791 3.29v-8.05a.998.998 0 0 1 1.995 0v22.963a.976.976 0 0 1-.98.98zm-7.806-17.187c-4.13 0-6.8 3.325-6.8 7.876s2.66 7.9 6.8 7.9c4.165 0 6.8-3.36 6.8-7.9s-2.626-7.876-6.8-7.876zm18.9 17.853c-2.1 0-5.636-.735-6.86-2.765a.845.845 0 0 1-.141-.525.955.955 0 0 1 1.785-.561c1.26 1.54 3.5 1.855 5.216 1.855 3.396 0 5.1-1.12 5.1-3.396 0-5.285-11.48-2.485-11.48-9.485 0-3.535 3.535-4.9 6.72-4.9 1.82 0 4.62.63 6.02 2.03a.981.981 0 0 1 .314.666 1.134 1.134 0 0 1-1.085 1.05.928.928 0 0 1-.665-.28 6.998 6.998 0 0 0-4.585-1.47c-3.08 0-4.726 1.2-4.726 2.905 0 4.9 11.48 2.3 11.48 9.485 0 4-3.5 5.4-7.106 5.4zM41.565 293.93H40.48a1.547 1.547 0 0 0-1.54 1.505v2.87h2.625a.954.954 0 0 1 .98.98.984.984 0 0 1-.98 1.015H38.94v15.612a.955.955 0 0 1-.98.979.935.935 0 0 1-.98-.979V300.3h-2.415a.998.998 0 0 1 0-1.995h2.415v-2.87a3.474 3.474 0 0 1 3.466-3.465h1.12a.993.993 0 0 1 1.016 1.015.939.939 0 0 1-1.016.945z"/><use xlink:href="#O" x="-62.38" y="39"/><path d="M64.07 317.487c-5.636 0-8.786-4.62-8.786-9.906 0-5.25 3.15-9.87 8.786-9.87s8.786 4.62 8.786 9.87c0 5.285-3.15 9.906-8.786 9.906zm0-17.782c-4.13 0-6.8 3.325-6.8 7.876s2.66 7.9 6.8 7.9c4.165 0 6.8-3.36 6.8-7.9s-2.625-7.876-6.8-7.876zM99.106 316.9a.955.955 0 0 1-.98-.979v-11.76a4.463 4.463 0 0 0-8.926-.035v11.797a.955.955 0 0 1-.98.979.983.983 0 0 1-1.015-.979V304.15a4.446 4.446 0 0 0-8.892-.035v11.797a.998.998 0 0 1-1.995 0v-16.627a.998.998 0 0 1 1.995 0v.2a6.362 6.362 0 0 1 4.445-1.785 6.491 6.491 0 0 1 5.461 2.976 6.461 6.461 0 0 1 11.901 3.43v11.797a.983.983 0 0 1-1.015.979zm21.628.597a7.941 7.941 0 0 1-6.791-3.326v1.75a.998.998 0 0 1-1.995 0v-22.96a.998.998 0 0 1 1.995 0V301a8.002 8.002 0 0 1 6.791-3.29c5.636 0 8.786 4.62 8.786 9.87 0 5.285-3.15 9.906-8.786 9.906zm0-17.782c-4.165 0-6.8 3.325-6.8 7.876s2.626 7.9 6.8 7.9 6.8-3.36 6.8-7.9-2.625-7.876-6.8-7.876zm13.264-4.76a1.995 1.995 0 1 1 1.995-1.995 1.972 1.972 0 0 1-1.995 1.995zm0 21.947a.961.961 0 0 1-1.015-.979v-16.627a.964.964 0 0 1 1.015-.98.953.953 0 0 1 .979.98v16.627a.935.935 0 0 1-.979.979z"/><use xlink:href="#L" x="34.03" y="78"/><path d="M156.504 316.9h-1.085c-2.766 0-4.13-1.365-4.13-4.096V300.3h-1.785a.998.998 0 0 1 0-1.995h1.785v-5.355a.984.984 0 0 1 1.016-.979.955.955 0 0 1 .979.979v5.355h3.22a.998.998 0 0 1 0 1.995h-3.22v12.496c0 1.716.5 2.1 2.136 2.1h1.085a.998.998 0 0 1 0 1.995zm18.446 0a.983.983 0 0 1-1.015-.979V305.7a5.986 5.986 0 0 0-11.972 0v10.222a.998.998 0 0 1-1.995 0V292.95a.998.998 0 0 1 1.995 0v7.456a7.776 7.776 0 0 1 5.985-2.695 8.045 8.045 0 0 1 7.98 7.98v10.222a.975.975 0 0 1-.98.979zm19.213 0h-1.086c-2.765 0-4.13-1.365-4.13-4.096V300.3h-1.785a.998.998 0 0 1 0-1.995h1.785v-5.355a.983.983 0 0 1 1.015-.979.955.955 0 0 1 .98.979v5.355h3.22a.998.998 0 0 1 0 1.995h-3.22v12.496c0 1.716.5 2.1 2.135 2.1h1.086a.998.998 0 0 1 0 1.995zm11.445.597c-5.637 0-8.787-4.62-8.787-9.906 0-5.25 3.15-9.87 8.787-9.87s8.785 4.62 8.785 9.87c0 5.285-3.15 9.906-8.785 9.906zm0-17.782c-4.13 0-6.8 3.325-6.8 7.876s2.66 7.9 6.8 7.9c4.165 0 6.8-3.36 6.8-7.9s-2.625-7.876-6.8-7.876zm38.395 17.185h-.035a3.622 3.622 0 0 1-3.465-2.73 7.944 7.944 0 0 1-6.791 3.326c-5.705 0-8.786-4.7-8.786-9.906 0-5.286 3.15-9.87 8.786-9.87a8.004 8.004 0 0 1 6.791 3.29v-1.715a.986.986 0 0 1 1.015-.98.956.956 0 0 1 .98.98v14.106c0 2.24 2.52.84 2.52 2.52a.963.963 0 0 1-1.016.98zm-10.3-17.187c-4.13 0-6.8 3.325-6.8 7.876s2.66 7.9 6.8 7.9c4.165 0 6.8-3.36 6.8-7.9s-2.626-7.876-6.8-7.876zm21.767 25.17c-2.975 0-7.176-1.12-7.176-2.38a1.111 1.111 0 0 1 1.016-1.12 12.786 12.786 0 0 1 1.855.84 13.093 13.093 0 0 0 4.305.666c4.48 0 6.8-2.206 6.8-6.5v-2.45a8.36 8.36 0 0 1-6.791 2.975c-5.53 0-8.785-3.92-8.785-9.3 0-5.25 3.15-9.87 8.785-9.87a8.004 8.004 0 0 1 6.791 3.29v-1.68a.998.998 0 0 1 1.995 0v17.047c0 5.565-3.325 8.506-8.786 8.506zm0-25.168c-4.13 0-6.8 3.325-6.8 7.876 0 4.516 2.486 7.315 6.8 7.315s6.8-2.8 6.8-7.315c0-4.55-2.625-7.876-6.8-7.876zm28.842 8.9h-14.526c.314 4 2.905 6.896 6.72 6.896a6.325 6.325 0 0 0 5.146-2.415.917.917 0 0 1 .84-.489 1.07 1.07 0 0 1 1.085.944c0 .315 0 .386-.665 1.155a8.263 8.263 0 0 1-6.405 2.801c-5.636 0-8.786-4.62-8.786-9.906 0-5.25 3.15-9.87 8.786-9.87s8.786 4.655 8.786 9.87a1.059 1.059 0 0 1-.981 1.015zm-7.806-8.9c-4.2 0-6.406 3.22-6.72 6.896h13.477c-.315-4-2.905-6.896-6.756-6.896zm26.32 17.537a7.741 7.741 0 0 1-6.301-3.325.952.952 0 0 1-.175-.561 1.071 1.071 0 0 1 1.05-1.016c.525 0 .56.28 1.086.84a5.508 5.508 0 0 0 4.34 2.065 6.376 6.376 0 0 0 0-12.707 5.658 5.658 0 0 0-4.62 2.485 1.003 1.003 0 0 1-.945.49.965.965 0 0 1-1.015-1.05V292.95a.956.956 0 0 1 .98-.979h11.7a.982.982 0 1 1 0 1.96H298.25v8.2a7.085 7.085 0 0 1 4.585-1.575 8.365 8.365 0 0 1 0 16.697zm19.8-22.298a1.995 1.995 0 1 1 1.995-1.995 1.972 1.972 0 0 1-1.995 1.995zm0 21.947a.962.962 0 0 1-1.016-.979v-16.627a.965.965 0 0 1 1.016-.98.953.953 0 0 1 .979.98v16.627a.936.936 0 0 1-.979.979zm20.23-.001a.984.984 0 0 1-1.016-.979V305.7a5.986 5.986 0 0 0-11.971 0v10.222a.998.998 0 0 1-1.996 0v-16.627a.998.998 0 0 1 1.996 0v1.12a7.984 7.984 0 0 1 13.966 5.285v10.222a.975.975 0 0 1-.979.979zm6.754-11.48a1.996 1.996 0 1 1 0-3.991 1.996 1.996 0 0 1 0 3.991zm0 11.48a1.995 1.995 0 1 1 0-3.99 1.995 1.995 0 0 1 0 3.99z"/></g><g fill="#fcd200"><path d="M563.228 205.394a46.27 46.27 0 1 0 46.27 46.27 46.27 46.27 0 0 0-46.27-46.27zm24.4 23.358c-3.838 2.593-3.038 6.373 0 8.718v40.87h-42.135a6.687 6.687 0 0 1-6.666-6.666v-36.792c0-6.895 2.262-9.896 9.966-9.896h38.835zm-40.33-.372c-6.136 0-5.992 9.505.1 9.505h36.346c-2.627-2.915-2.85-6.647-.073-9.52l-36.384.016zm-54.363 98.64h-10.36c.392 2.632 2.072 4.312 4.535 4.312a4.201 4.201 0 0 0 3.332-1.455 1.159 1.159 0 0 1 .868-.448 1.307 1.307 0 0 1 1.261 1.231c0 .336-.084.588-.672 1.176a6.825 6.825 0 0 1-4.789 1.877c-4.508 0-7.027-3.725-7.027-7.925 0-4.172 2.52-7.896 7.027-7.896 4.564 0 7 3.724 7 7.896a1.194 1.194 0 0 1-1.176 1.232zm-5.824-6.748c-2.63 0-4.172 1.932-4.535 4.34h9.072c-.393-2.687-2.072-4.34-4.537-4.34zm23.267 12.965a2.725 2.725 0 0 1-2.491-1.596 6.419 6.419 0 0 1-4.929 2.072c-4.563 0-7.027-3.752-7.027-7.925s2.52-7.896 7.027-7.896a6.192 6.192 0 0 1 4.621 1.848v-.1a1.155 1.155 0 0 1 1.176-1.261 1.126 1.126 0 0 1 1.231 1.177v10.808a.453.453 0 0 0 .392.504 1.19 1.19 0 1 1 0 2.38zm-7.42-12.964c-2.8 0-4.62 2.185-4.62 5.516 0 3.36 1.82 5.544 4.62 5.544 2.828 0 4.62-2.184 4.62-5.544 0-3.33-1.793-5.516-4.62-5.516zm17.052 0a4.034 4.034 0 0 0-3.977 4.004v7.756a1.167 1.167 0 0 1-1.232 1.204 1.146 1.146 0 0 1-1.176-1.176v-12.488a1.187 1.187 0 0 1 1.176-1.204 1.151 1.151 0 0 1 1.205.952 6.476 6.476 0 0 1 4.004-1.428 1.191 1.191 0 1 1 0 2.38zm4.93 13.02a2.859 2.859 0 0 1-2.801-2.856v-15.932a1.204 1.204 0 0 1 2.408-.028v15.96a.442.442 0 0 0 .393.476 1.191 1.191 0 1 1 0 2.381zm15.314-13.244l-7.56 17.2a3.209 3.209 0 0 1-3.08 1.876h-.896a1.129 1.129 0 0 1-1.176-1.231 1.114 1.114 0 0 1 1.176-1.176h.868a.885.885 0 0 0 .924-.448l1.85-4.145-5.46-12.067a1.018 1.018 0 0 1-.14-.532 1.262 1.262 0 0 1 1.288-1.176 1.077 1.077 0 0 1 1.008.728l4.564 10.136 4.452-10.136a1.108 1.108 0 0 1 1.036-.7 1.241 1.241 0 0 1 1.287 1.148.948.948 0 0 1-.14.532zm11.116 13.244a2.858 2.858 0 0 1-2.801-2.856v-15.932a1.204 1.204 0 0 1 2.408-.028v15.96a.442.442 0 0 0 .393.476 1.191 1.191 0 1 1 0 2.381zm15.4-6.274H556.4c.393 2.632 2.072 4.312 4.536 4.312a4.202 4.202 0 0 0 3.332-1.455 1.159 1.159 0 0 1 .868-.448 1.306 1.306 0 0 1 1.26 1.231c0 .336-.084.588-.672 1.176a6.822 6.822 0 0 1-4.788 1.877c-4.508 0-7.028-3.725-7.028-7.925 0-4.172 2.52-7.896 7.028-7.896 4.563 0 7 3.724 7 7.896a1.194 1.194 0 0 1-1.176 1.232zm-5.824-6.748c-2.632 0-4.172 1.932-4.536 4.34h9.072c-.393-2.687-2.072-4.34-4.536-4.34z"/><use xlink:href="#P"/><path d="M593.845 320.273a4.034 4.034 0 0 0-3.976 4.004v7.756a1.168 1.168 0 0 1-1.232 1.204 1.146 1.146 0 0 1-1.176-1.176v-12.488a1.186 1.186 0 0 1 1.176-1.204 1.15 1.15 0 0 1 1.204.952 6.478 6.478 0 0 1 4.004-1.428 1.191 1.191 0 1 1 0 2.38zm13.86 12.964a1.131 1.131 0 0 1-1.176-1.176v-7.784a3.99 3.99 0 1 0-7.979 0v7.756a1.19 1.19 0 0 1-1.232 1.232 1.153 1.153 0 0 1-1.176-1.204v-12.516a1.114 1.114 0 0 1 1.176-1.177 1.171 1.171 0 0 1 1.204.925 6.395 6.395 0 0 1 10.389 4.983v7.756a1.146 1.146 0 0 1-1.205 1.204zm5.656-17.137a2.016 2.016 0 1 1 2.017-2.017 2.008 2.008 0 0 1-2.017 2.017zm0 17.136a1.176 1.176 0 0 1-1.231-1.176v-12.488a1.183 1.183 0 0 1 1.231-1.204 1.154 1.154 0 0 1 1.176 1.204v12.488a1.129 1.129 0 0 1-1.176 1.176zm16.268.001a1.131 1.131 0 0 1-1.176-1.176v-7.784a3.99 3.99 0 1 0-7.979 0v7.756a1.191 1.191 0 0 1-1.232 1.232 1.153 1.153 0 0 1-1.176-1.204v-12.516a1.114 1.114 0 0 1 1.176-1.177 1.171 1.171 0 0 1 1.204.925 6.394 6.394 0 0 1 10.388 4.983v7.756a1.145 1.145 0 0 1-1.204 1.204zm10.752 6.383c-1.708 0-5.936-.616-5.936-2.296a1.304 1.304 0 0 1 1.204-1.26c.644 0 .084.084 1.567.645a8.757 8.757 0 0 0 3.164.531c3.108 0 4.62-1.483 4.62-4.424v-1.26a6.55 6.55 0 0 1-4.62 1.68c-4.424 0-7.027-3.136-7.027-7.448 0-4.2 2.52-7.896 7.027-7.896a6.032 6.032 0 0 1 4.62 1.792v-.112a1.193 1.193 0 0 1 1.204-1.204 1.176 1.176 0 0 1 1.204 1.204v13.244c0 4.452-2.66 6.804-7.028 6.804zm0-19.348c-2.8 0-4.62 2.185-4.62 5.516 0 3.192 1.68 5.068 4.62 5.068s4.62-1.876 4.62-5.068c0-3.33-1.792-5.516-4.62-5.516zm299.4-114.878a46.27 46.27 0 1 0 46.27 46.27 46.27 46.27 0 0 0-46.27-46.27zm27.22 52.32l-27.3 27.283-27.006-27.014a18.921 18.921 0 1 1 26.484-27.029.746.746 0 0 0 1.052 0l.004-.004a18.923 18.923 0 0 1 26.756 26.765zM842.312 320.75h-1.26v11.284a1.145 1.145 0 0 1-1.232 1.177 1.13 1.13 0 0 1-1.176-1.177V320.75h-1.148a1.19 1.19 0 0 1 0-2.38h1.148v-1.903a3.191 3.191 0 0 1 3.22-3.164 1.191 1.191 0 1 1 0 2.38.784.784 0 0 0-.812.756v1.932h1.26a1.191 1.191 0 1 1 0 2.38z"/><use xlink:href="#P" x="275.094"/><path d="M880.362 333.237a1.146 1.146 0 0 1-1.176-1.176v-8.82a2.954 2.954 0 0 0-5.908-.027v8.82a1.145 1.145 0 0 1-1.203 1.204 1.131 1.131 0 0 1-1.177-1.176v-8.82a2.968 2.968 0 0 0-5.936-.027v8.82a1.167 1.167 0 0 1-1.232 1.204 1.146 1.146 0 0 1-1.176-1.176v-12.516a1.228 1.228 0 0 1 2.24-.672 5.394 5.394 0 0 1 3.108-.98 5.301 5.301 0 0 1 4.172 1.988 5.243 5.243 0 0 1 4.144-1.988 5.348 5.348 0 0 1 5.376 5.32v8.82a1.167 1.167 0 0 1-1.232 1.204zm5.685-17.137a2.016 2.016 0 1 1 2.017-2.017 2.007 2.007 0 0 1-2.017 2.017zm0 17.136a1.175 1.175 0 0 1-1.231-1.176v-12.488a1.182 1.182 0 0 1 1.231-1.204 1.154 1.154 0 0 1 1.176 1.204v12.488a1.129 1.129 0 0 1-1.176 1.176z"/><use xlink:href="#Q"/><path d="M908.698 320.05l-7.56 17.2a3.207 3.207 0 0 1-3.08 1.876h-.896a1.129 1.129 0 0 1-1.176-1.231 1.114 1.114 0 0 1 1.176-1.176h.868a.885.885 0 0 0 .924-.448l1.848-4.145-5.46-12.067a1.018 1.018 0 0 1-.14-.532 1.262 1.262 0 0 1 1.288-1.176 1.077 1.077 0 0 1 1.008.728l4.563 10.136 4.453-10.136a1.108 1.108 0 0 1 1.035-.7 1.241 1.241 0 0 1 1.288 1.148.956.956 0 0 1-.14.532zm27.104-.084l-4.34 12.292a1.274 1.274 0 0 1-1.232.979c-.588 0-.924-.252-1.176-.98l-3.275-9.24-3.305 9.24a1.213 1.213 0 0 1-2.38 0l-4.312-12.292a1.221 1.221 0 0 1-.057-.448 1.207 1.207 0 0 1 1.232-1.148 1.111 1.111 0 0 1 1.092.784l3.248 9.353 3.304-9.156c.224-.645.504-.98 1.177-.98.615 0 .95.3 1.176.98l3.275 9.156 3.276-9.353a1.101 1.101 0 0 1 1.063-.784 1.245 1.245 0 0 1 1.288 1.177 1.167 1.167 0 0 1-.056.42zm14.195 7.054h-10.36c.393 2.632 2.072 4.312 4.536 4.312a4.203 4.203 0 0 0 3.332-1.455 1.159 1.159 0 0 1 .868-.448 1.307 1.307 0 0 1 1.26 1.231c0 .336-.084.588-.672 1.176a6.822 6.822 0 0 1-4.788 1.877c-4.508 0-7.028-3.725-7.028-7.925 0-4.172 2.52-7.896 7.028-7.896 4.563 0 7 3.724 7 7.896a1.194 1.194 0 0 1-1.177 1.232zm-5.823-6.748c-2.632 0-4.172 1.932-4.536 4.34h9.072c-.393-2.687-2.072-4.34-4.536-4.34zm12.096 13.022a2.857 2.857 0 0 1-2.8-2.856v-15.932a1.204 1.204 0 0 1 2.408-.028v15.96a.442.442 0 0 0 .392.476 1.191 1.191 0 1 1 0 2.381z"/><use xlink:href="#Q" x="68.711"/><path d="M973.853 325.313h-8.008a1.19 1.19 0 1 1 0-2.38h8.008a1.19 1.19 0 0 1 0 2.38zm10.975 8.4a6.628 6.628 0 0 1-4.62-1.681 1.145 1.145 0 0 1-1.231 1.177 1.13 1.13 0 0 1-1.176-1.177v-17.527a1.204 1.204 0 0 1 2.407-.028v5.236a6.214 6.214 0 0 1 4.62-1.82c4.5 0 7.028 3.696 7.028 7.896 0 4.23-2.52 7.925-7.028 7.925zm0-13.44c-2.8 0-4.62 2.185-4.62 5.516 0 3.36 1.82 5.544 4.62 5.544s4.62-2.184 4.62-5.544c0-3.33-1.82-5.516-4.62-5.516zm22.008 6.746h-10.36c.392 2.632 2.07 4.312 4.536 4.312a4.203 4.203 0 0 0 3.332-1.455 1.157 1.157 0 0 1 .867-.448 1.306 1.306 0 0 1 1.26 1.231c0 .336-.084.588-.672 1.176a6.822 6.822 0 0 1-4.787 1.877c-4.508 0-7.028-3.725-7.028-7.925 0-4.172 2.52-7.896 7.028-7.896 4.563 0 7 3.724 7 7.896a1.194 1.194 0 0 1-1.177 1.232zm-5.823-6.748c-2.633 0-4.172 1.932-4.536 4.34h9.07c-.392-2.687-2.07-4.34-4.535-4.34zm10.752-4.172a2.016 2.016 0 1 1 2.016-2.017 2.008 2.008 0 0 1-2.016 2.017zm0 17.136a1.176 1.176 0 0 1-1.232-1.176v-12.488a1.183 1.183 0 0 1 1.232-1.204 1.154 1.154 0 0 1 1.176 1.204v12.488a1.129 1.129 0 0 1-1.176 1.176zm16.267.001a1.131 1.131 0 0 1-1.177-1.176v-7.784a3.99 3.99 0 1 0-7.979 0v7.756a1.19 1.19 0 0 1-1.232 1.232 1.153 1.153 0 0 1-1.176-1.204v-12.516a1.114 1.114 0 0 1 1.176-1.177 1.171 1.171 0 0 1 1.204.925 6.394 6.394 0 0 1 10.388 4.983v7.756a1.145 1.145 0 0 1-1.203 1.204zm10.75 6.383c-1.708 0-5.936-.616-5.936-2.296a1.304 1.304 0 0 1 1.204-1.26c.644 0 .084.084 1.568.645a8.75 8.75 0 0 0 3.163.531c3.108 0 4.62-1.483 4.62-4.424v-1.26a6.55 6.55 0 0 1-4.62 1.68c-4.424 0-7.027-3.136-7.027-7.448 0-4.2 2.52-7.896 7.027-7.896a6.032 6.032 0 0 1 4.62 1.792v-.112a1.193 1.193 0 0 1 1.204-1.204 1.176 1.176 0 0 1 1.204 1.204v13.244c0 4.452-2.66 6.804-7.028 6.804zm0-19.348c-2.8 0-4.62 2.185-4.62 5.516 0 3.192 1.68 5.068 4.62 5.068s4.62-1.876 4.62-5.068c0-3.33-1.792-5.516-4.62-5.516zm-284.36-114.878a46.27 46.27 0 1 0 46.27 46.27 46.27 46.27 0 0 0-46.27-46.27zm30.098 55.68h-20.47v20.47h-19.257v-20.47h-20.47v-19.257h20.47v-20.47h19.257v20.47h20.47zm-56.052 72.163a1.131 1.131 0 0 1-1.176-1.177v-7.783a3.99 3.99 0 1 0-7.98 0v7.756a1.189 1.189 0 0 1-1.231 1.231 1.153 1.153 0 0 1-1.176-1.204v-17.556a1.204 1.204 0 0 1 2.407-.027v4.844a5.645 5.645 0 0 1 3.976-1.428 6.436 6.436 0 0 1 6.385 6.384v7.756a1.145 1.145 0 0 1-1.204 1.204zm16.574-6.217h-10.36c.393 2.633 2.072 4.313 4.536 4.313a4.204 4.204 0 0 0 3.332-1.456 1.159 1.159 0 0 1 .868-.448 1.308 1.308 0 0 1 1.26 1.232c0 .336-.084.588-.672 1.176a6.822 6.822 0 0 1-4.788 1.876c-4.508 0-7.028-3.724-7.028-7.924 0-4.172 2.52-7.896 7.028-7.896 4.563 0 7 3.724 7 7.896a1.193 1.193 0 0 1-1.177 1.231zm-5.823-6.748c-2.632 0-4.172 1.933-4.536 4.34h9.072c-.393-2.7-2.072-4.34-4.536-4.34zm23.267 12.965a2.727 2.727 0 0 1-2.492-1.597 6.413 6.413 0 0 1-4.928 2.072c-4.563 0-7.028-3.752-7.028-7.924s2.52-7.896 7.028-7.896a6.186 6.186 0 0 1 4.62 1.848v-.112a1.155 1.155 0 0 1 1.176-1.26 1.126 1.126 0 0 1 1.232 1.176v10.808a.453.453 0 0 0 .392.504 1.191 1.191 0 1 1 0 2.381zm-7.42-12.965c-2.8 0-4.62 2.185-4.62 5.517 0 3.36 1.82 5.544 4.62 5.544 2.828 0 4.62-2.184 4.62-5.544 0-3.332-1.792-5.517-4.62-5.517zm13.3 13.02a2.857 2.857 0 0 1-2.8-2.856v-15.932a1.204 1.204 0 0 1 2.408-.027v15.96a.443.443 0 0 0 .392.477 1.19 1.19 0 1 1 0 2.38zm7.924-.056h-.477c-2.66 0-3.668-1.4-3.668-3.696v-8.792h-.84a1.19 1.19 0 0 1-.027-2.38h.84v-3.892a1.137 1.137 0 0 1 1.204-1.177 1.115 1.115 0 0 1 1.176 1.177v3.892h1.792a1.16 1.16 0 0 1 1.176 1.176 1.139 1.139 0 0 1-1.176 1.204H774.5v9.044c0 .784.28 1.063 1.063 1.063h.7a1.155 1.155 0 0 1 1.204 1.177 1.139 1.139 0 0 1-1.176 1.204zm14.698 0a1.131 1.131 0 0 1-1.176-1.177v-7.783a3.99 3.99 0 1 0-7.979 0v7.756a1.19 1.19 0 0 1-1.232 1.231 1.153 1.153 0 0 1-1.176-1.204v-17.556a1.204 1.204 0 0 1 2.408-.027v4.844a5.643 5.643 0 0 1 3.976-1.428 6.435 6.435 0 0 1 6.384 6.384v7.756a1.145 1.145 0 0 1-1.204 1.204zM281.584 729.56q-.464 5.077 4.148 4.6h28.117q5.067-.918 4.148 4.148v22.586q.918 5.077-4.148 4.6h-28.117q-4.613-.918-4.148 4.148v66.375q.918 5.996-4.148 5.07h-23.508q-4.613.918-4.148-5.07v-66.375q.918-5.067-4.148-4.148h-106.94q-4.613.464-4.148-4.6v-29.04l1.844-7.836 98.18-210.648q1.383-3.684 6.453-3.687h36.414q5.067-.454 4.148 4.6zm-115.695 0q-2.766 5.077 2.766 4.6h76.977q5.067.464 4.148-4.6v-172.4q-.93-5.53-3.687-.922zm188.223-216.188q5.45 5.783 5.613 14.86v10.236q-.166 9.083-5.613 14.86-5.45 5.78-14.53 5.943-8.916-.163-14.364-5.943-5.615-5.777-5.78-14.86v-10.236q.163-9.078 5.78-14.86 5.448-5.777 14.364-5.943 9.078.167 14.53 5.943zm-22.3 115.576h-7.266c-1.32.107-1.65-.44-1-1.65l68.024-115.74q.658-1.982 2.146-1.65h7.265q1.815-.163 1 1.486l-68.2 115.74q-.66 1.98-1.98 1.816zm-3.138-90.975q.658 11.56 10.897 11.723 10.402-.163 10.896-11.723v-9.246q-.495-11.555-10.896-11.723-10.24.167-10.897 11.723zm42.763 87.507a20.796 20.796 0 0 1-5.778-14.694v-10.072a20.797 20.797 0 0 1 5.778-14.693q5.45-5.612 14.364-5.78 9.08.167 14.53 5.78 5.448 5.78 5.613 14.693v10.072q-.167 8.915-5.613 14.694-5.45 5.777-14.53 5.944-8.915-.167-14.364-5.944zm25.262-15.2v-9.08q-.495-11.227-10.897-11.393-10.24.167-10.896 11.393v9.08q.658 11.394 10.896 11.56 10.402-.164 10.897-11.56h0zM82.244 576.937H36.662q-2.606.262-2.345-2.605V561.05q-.26-2.602 2.345-2.345h45.582q2.864.526 2.605-2.344v-45.843q-.524-2.862 2.344-2.604H101q2.864-.256 2.344 2.604v45.843q-.262 2.87 2.604 2.344h45.582q2.602-.256 2.345 2.345v13.283q.256 2.607-2.345 2.605h-45.582q-2.868-.52-2.604 2.344v45.843q.52 2.868-2.344 2.344H87.192q-2.606.262-2.344-2.344V579.28q.256-2.862-2.605-2.344h0z"/></g><g fill="#fff"><path d="M38.33 434.863h-3.19a.798.798 0 1 1 0-1.596h.783v-16.772h-.783a.784.784 0 1 1 0-1.567h3.19a.784.784 0 1 1 0 1.567h-.812v16.772h.812a.798.798 0 0 1 0 1.596z"/><use xlink:href="#R"/><use xlink:href="#S"/><use xlink:href="#T"/><use xlink:href="#U"/><path d="M111.097 434.863h-.027a2.9 2.9 0 0 1-2.772-2.184 6.354 6.354 0 0 1-5.432 2.66c-4.564 0-7.028-3.752-7.028-7.925 0-4.228 2.52-7.896 7.028-7.896a6.401 6.401 0 0 1 5.432 2.632v-1.372a.789.789 0 0 1 .813-.784.765.765 0 0 1 .784.784v11.284c0 1.792 2.016.672 2.016 2.016a.77.77 0 0 1-.813.784zm-8.23-13.748c-3.304 0-5.433 2.66-5.433 6.3s2.13 6.328 5.433 6.328c3.332 0 5.432-2.687 5.432-6.328s-2.1-6.3-5.432-6.3z"/><use xlink:href="#V"/><path d="M139.265 428.227h-11.62c.253 3.192 2.324 5.516 5.376 5.516a5.061 5.061 0 0 0 4.116-1.932.735.735 0 0 1 .672-.392.856.856 0 0 1 .868.756c0 .252 0 .308-.532.924a6.612 6.612 0 0 1-5.124 2.24c-4.508 0-7.027-3.696-7.027-7.925 0-4.2 2.52-7.896 7.027-7.896s7.028 3.724 7.028 7.896a.847.847 0 0 1-.784.813zm-6.244-7.112c-3.36 0-5.123 2.576-5.376 5.517h10.78c-.252-3.192-2.324-5.517-5.404-5.517zm16.912-3.808a1.596 1.596 0 1 1 1.596-1.596 1.578 1.578 0 0 1-1.596 1.596zm0 17.556a.77.77 0 0 1-.812-.784v-13.3a.772.772 0 0 1 .813-.784.762.762 0 0 1 .783.784v13.3a.749.749 0 0 1-.783.784zm16.183 0a.787.787 0 0 1-.812-.784v-8.176a4.788 4.788 0 1 0-9.575 0v8.176a.799.799 0 0 1-1.597 0v-13.3a.799.799 0 0 1 1.597 0v.896a6.387 6.387 0 0 1 11.172 4.228v8.176a.781.781 0 0 1-.784.784z"/><use xlink:href="#W"/><use xlink:href="#X"/><use xlink:href="#Y"/><use xlink:href="#U" x="129.408"/><path d="M238.573 435.34c-4.508 0-7.028-3.696-7.028-7.925 0-4.2 2.52-7.896 7.028-7.896s7.027 3.696 7.027 7.896c0 4.23-2.52 7.925-7.027 7.925zm0-14.225c-3.305 0-5.432 2.66-5.432 6.3s2.127 6.328 5.432 6.328c3.332 0 5.432-2.687 5.432-6.328s-2.1-6.3-5.432-6.3zm14.924-4.62h-.868a1.238 1.238 0 0 0-1.232 1.204v2.296h2.1a.762.762 0 0 1 .783.784.786.786 0 0 1-.783.813h-2.1v12.487a.764.764 0 0 1-.784.784.747.747 0 0 1-.783-.784v-12.487h-1.933a.798.798 0 0 1 0-1.597h1.933V417.7a2.778 2.778 0 0 1 2.771-2.771h.896a.794.794 0 0 1 .812.812.75.75 0 0 1-.812.756z"/><use xlink:href="#Z"/><path d="M279.48 417.307a1.596 1.596 0 1 1 1.597-1.596 1.578 1.578 0 0 1-1.597 1.596zm0 17.556a.77.77 0 0 1-.812-.784v-13.3a.798.798 0 0 1 1.597 0v13.3a.75.75 0 0 1-.785.784zm10.584 6.384c-2.38 0-5.74-.896-5.74-1.903a.889.889 0 0 1 .812-.896 10.164 10.164 0 0 1 1.484.672 10.494 10.494 0 0 0 3.443.532c3.584 0 5.433-1.764 5.433-5.208v-1.96a6.685 6.685 0 0 1-5.433 2.38c-4.424 0-7.027-3.136-7.027-7.448 0-4.2 2.52-7.896 7.027-7.896a6.402 6.402 0 0 1 5.433 2.632v-1.344a.798.798 0 0 1 1.596 0v13.636c0 4.452-2.66 6.804-7.028 6.804zm0-20.132c-3.304 0-5.432 2.66-5.432 6.3 0 3.612 1.988 5.853 5.432 5.853s5.433-2.24 5.433-5.853c0-3.64-2.1-6.3-5.433-6.3zm22.428 13.748a.787.787 0 0 1-.812-.784v-8.176a4.788 4.788 0 1 0-9.575 0v8.176a.798.798 0 0 1-1.597 0v-18.367a.798.798 0 0 1 1.597 0v5.964a6.218 6.218 0 0 1 4.787-2.156 6.436 6.436 0 0 1 6.385 6.384v8.176a.781.781 0 0 1-.784.784z"/><use xlink:href="#a"/><path d="M346.876 433.212a6.508 6.508 0 0 1-5.013 2.128c-4.508 0-7.027-3.696-7.027-7.925 0-4.2 2.52-7.896 7.027-7.896a6.505 6.505 0 0 1 5.013 2.128.742.742 0 0 1 .224.532.877.877 0 0 1-.812.84.823.823 0 0 1-.588-.28 4.942 4.942 0 0 0-3.837-1.624c-3.304 0-5.432 2.66-5.432 6.3s2.128 6.328 5.432 6.328a5.032 5.032 0 0 0 3.837-1.624.795.795 0 0 1 1.399.532.803.803 0 0 1-.224.56zm15.008 1.65a.787.787 0 0 1-.812-.784v-8.176a4.788 4.788 0 0 0-9.576 0v8.176a.798.798 0 0 1-1.596 0v-18.367a.798.798 0 0 1 1.596 0v5.964a6.22 6.22 0 0 1 4.788-2.156 6.435 6.435 0 0 1 6.384 6.384v8.176a.781.781 0 0 1-.783.784z"/><use xlink:href="#b"/><use xlink:href="#b" x="16.184"/><use xlink:href="#c"/><path d="M41.355 471.247c-2.38 0-5.74-.896-5.74-1.903a.889.889 0 0 1 .812-.896 10.117 10.117 0 0 1 1.484.672 10.496 10.496 0 0 0 3.444.532c3.584 0 5.432-1.764 5.432-5.208v-1.96a6.683 6.683 0 0 1-5.432 2.38c-4.424 0-7.028-3.136-7.028-7.448 0-4.2 2.52-7.896 7.028-7.896a6.401 6.401 0 0 1 5.432 2.632v-1.344a.798.798 0 0 1 1.597 0v13.636c0 4.452-2.66 6.804-7.028 6.804zm0-20.132c-3.304 0-5.433 2.66-5.433 6.3 0 3.612 1.988 5.853 5.433 5.853s5.432-2.24 5.432-5.853c0-3.64-2.1-6.3-5.432-6.3z"/><use xlink:href="#W" x="-124.564" y="30"/><use xlink:href="#X" x="-124.555" y="30"/><path d="M89.874 464.863a.787.787 0 0 1-.812-.784v-1.4a6.354 6.354 0 0 1-5.432 2.66c-4.508 0-7.028-3.696-7.028-7.925 0-4.2 2.52-7.896 7.028-7.896a6.401 6.401 0 0 1 5.432 2.632v-6.44a.798.798 0 0 1 1.596 0v18.367a.781.781 0 0 1-.783.784zm-6.244-13.748c-3.305 0-5.433 2.66-5.433 6.3s2.128 6.328 5.433 6.328c3.332 0 5.432-2.687 5.432-6.328s-2.1-6.3-5.432-6.3zm22.176 13.748a.787.787 0 0 1-.812-.784v-.896a6.219 6.219 0 0 1-4.788 2.156 6.454 6.454 0 0 1-6.384-6.384v-8.177a.798.798 0 0 1 1.596 0v8.177a4.788 4.788 0 0 0 9.576 0v-8.177a.798.798 0 0 1 1.596 0v13.3a.781.781 0 0 1-.783.784z"/><use xlink:href="#d"/><path d="M132.545 464.863h-.868c-2.212 0-3.304-1.092-3.304-3.275v-9.996h-1.428a.798.798 0 0 1 0-1.597h1.428v-4.283a.787.787 0 0 1 .812-.784.764.764 0 0 1 .784.784v4.283h2.576a.798.798 0 0 1 0 1.597h-2.576v9.996c0 1.372.393 1.68 1.708 1.68h.868a.798.798 0 0 1 0 1.596z"/><use xlink:href="#e"/><path d="M146.713 465.34c-4.508 0-7.028-3.696-7.028-7.925 0-4.2 2.52-7.896 7.028-7.896s7.028 3.696 7.028 7.896c0 4.23-2.52 7.925-7.028 7.925zm0-14.225c-3.304 0-5.433 2.66-5.433 6.3s2.13 6.328 5.433 6.328c3.332 0 5.432-2.687 5.432-6.328s-2.1-6.3-5.432-6.3z"/><use xlink:href="#f"/><path d="M624.58 432.284a7.173 7.173 0 0 1-6.244 3.053c-6.02 0-8.147-4.984-8.147-10.444 0-5.488 2.128-10.472 8.147-10.472a7.094 7.094 0 0 1 6.217 3.052.569.569 0 0 1 .168.448.841.841 0 0 1-.869.784.743.743 0 0 1-.615-.309 5.509 5.509 0 0 0-4.9-2.38c-4.647 0-6.552 3.64-6.552 8.876 0 5.208 1.904 8.848 6.552 8.848a5.581 5.581 0 0 0 4.956-2.38.652.652 0 0 1 .616-.363.855.855 0 0 1 .84.812.89.89 0 0 1-.168.476zm14.616 2.576a.786.786 0 0 1-.812-.783V425.9a4.788 4.788 0 0 0-9.576 0v8.177a.798.798 0 0 1-1.596 0V415.7a.798.798 0 0 1 1.596 0v5.964a6.22 6.22 0 0 1 4.788-2.156 6.435 6.435 0 0 1 6.384 6.384v8.177a.78.78 0 0 1-.784.783zm18.564 0h-.028a2.9 2.9 0 0 1-2.772-2.184 6.352 6.352 0 0 1-5.432 2.66c-4.564 0-7.027-3.752-7.027-7.924 0-4.23 2.52-7.896 7.027-7.896a6.401 6.401 0 0 1 5.432 2.632v-1.372a.789.789 0 0 1 .813-.783.764.764 0 0 1 .784.783v11.284c0 1.792 2.016.672 2.016 2.017a.77.77 0 0 1-.812.783zm-8.232-13.748c-3.304 0-5.432 2.66-5.432 6.3s2.128 6.327 5.432 6.327c3.332 0 5.432-2.687 5.432-6.327s-2.1-6.3-5.432-6.3z"/><use xlink:href="#g"/><path d="M687.888 433.2a6.501 6.501 0 0 1-5.012 2.128c-4.508 0-7.027-3.696-7.027-7.924 0-4.2 2.52-7.896 7.027-7.896a6.501 6.501 0 0 1 5.012 2.128.743.743 0 0 1 .225.532.878.878 0 0 1-.812.84.826.826 0 0 1-.588-.28 4.935 4.935 0 0 0-3.836-1.624c-3.304 0-5.432 2.66-5.432 6.3s2.128 6.327 5.432 6.327a5.029 5.029 0 0 0 3.836-1.624.795.795 0 0 1 1.4.532.804.804 0 0 1-.225.561zm15.652-4.986h-11.62c.252 3.192 2.324 5.516 5.376 5.516a5.063 5.063 0 0 0 4.116-1.932.735.735 0 0 1 .672-.392.856.856 0 0 1 .868.756c0 .252 0 .308-.532.924a6.612 6.612 0 0 1-5.124 2.24c-4.508 0-7.027-3.696-7.027-7.924 0-4.2 2.52-7.896 7.027-7.896s7.028 3.724 7.028 7.896a.848.848 0 0 1-.784.812zm-6.244-7.112c-3.36 0-5.124 2.576-5.376 5.517h10.78c-.252-3.192-2.324-5.517-5.404-5.517zm22.484 14.225c-4.508 0-7.028-3.696-7.028-7.924 0-4.2 2.52-7.896 7.028-7.896s7.028 3.696 7.028 7.896c0 4.228-2.52 7.924-7.028 7.924zm0-14.225c-3.304 0-5.433 2.66-5.433 6.3s2.13 6.327 5.433 6.327c3.332 0 5.432-2.687 5.432-6.327s-2.1-6.3-5.432-6.3zm14.922-4.62h-.867a1.238 1.238 0 0 0-1.232 1.203v2.297h2.1a.763.763 0 0 1 .785.783.787.787 0 0 1-.785.813h-2.1v12.488a.763.763 0 0 1-.783.783.748.748 0 0 1-.785-.783V421.6h-1.932a.798.798 0 0 1 0-1.596h1.932v-2.297a2.779 2.779 0 0 1 2.772-2.771h.896a.794.794 0 0 1 .813.812.751.751 0 0 1-.813.757z"/><use xlink:href="#h"/><path d="M774.74 434.86h-.027a2.9 2.9 0 0 1-2.772-2.184 6.352 6.352 0 0 1-5.432 2.66c-4.564 0-7.028-3.752-7.028-7.924 0-4.23 2.52-7.896 7.028-7.896a6.401 6.401 0 0 1 5.432 2.632v-1.372a.789.789 0 0 1 .813-.783.764.764 0 0 1 .784.783v11.284c0 1.792 2.016.672 2.016 2.017a.77.77 0 0 1-.812.783zm-8.23-13.748c-3.304 0-5.433 2.66-5.433 6.3s2.13 6.327 5.433 6.327c3.332 0 5.432-2.687 5.432-6.327s-2.1-6.3-5.432-6.3z"/><use xlink:href="#i"/><use xlink:href="#g" x="125.661"/><path d="M802.965 417.304a1.596 1.596 0 1 1 1.597-1.596 1.578 1.578 0 0 1-1.597 1.596zm0 17.556a.769.769 0 0 1-.812-.783v-13.3a.77.77 0 0 1 .812-.783.762.762 0 0 1 .784.783v13.3a.749.749 0 0 1-.784.783zm16.185 0a.786.786 0 0 1-.812-.783V425.9a4.788 4.788 0 0 0-9.576 0v8.177a.798.798 0 0 1-1.596 0v-13.3a.798.798 0 0 1 1.596 0v.896a6.387 6.387 0 0 1 11.172 4.228v8.177a.78.78 0 0 1-.783.783zm10.33 6.385c-2.38 0-5.74-.896-5.74-1.904a.888.888 0 0 1 .812-.896 10.21 10.21 0 0 1 1.484.672 10.489 10.489 0 0 0 3.443.532c3.584 0 5.433-1.764 5.433-5.208v-1.96a6.685 6.685 0 0 1-5.433 2.38c-4.424 0-7.027-3.136-7.027-7.447 0-4.2 2.52-7.896 7.027-7.896a6.402 6.402 0 0 1 5.433 2.632v-1.344a.798.798 0 0 1 1.596 0v13.636c0 4.452-2.66 6.805-7.028 6.805zm0-20.133c-3.304 0-5.432 2.66-5.432 6.3 0 3.6 1.988 5.852 5.432 5.852s5.433-2.24 5.433-5.852c0-3.64-2.1-6.3-5.433-6.3zm31.36 13.748h-.027a2.899 2.899 0 0 1-2.772-2.184 6.352 6.352 0 0 1-5.432 2.66c-4.564 0-7.028-3.752-7.028-7.924 0-4.23 2.52-7.896 7.028-7.896a6.401 6.401 0 0 1 5.432 2.632v-1.372a.789.789 0 0 1 .813-.783.763.763 0 0 1 .783.783v11.284c0 1.792 2.017.672 2.017 2.017a.77.77 0 0 1-.813.783zm-8.23-13.748c-3.305 0-5.432 2.66-5.432 6.3s2.127 6.327 5.432 6.327c3.332 0 5.432-2.687 5.432-6.327s-2.1-6.3-5.432-6.3zm18.058 14.225a6.35 6.35 0 0 1-5.432-2.66v1.4a.798.798 0 0 1-1.597 0V415.7a.798.798 0 0 1 1.597 0v6.44a6.4 6.4 0 0 1 5.432-2.632c4.508 0 7.028 3.696 7.028 7.896 0 4.228-2.52 7.924-7.028 7.924zm0-14.225c-3.332 0-5.432 2.66-5.432 6.3s2.1 6.327 5.432 6.327 5.433-2.687 5.433-6.327-2.1-6.3-5.433-6.3z"/><use xlink:href="#j"/><path d="M908.075 421.085l-5.516 13.132a.918.918 0 0 1-.784.644.955.955 0 0 1-.812-.644l-5.516-13.105a.892.892 0 0 1-.056-.363.783.783 0 0 1 .812-.756.719.719 0 0 1 .7.476l4.872 11.508 4.844-11.508a.799.799 0 0 1 1.54.252.673.673 0 0 1-.084.364z"/><use xlink:href="#h" x="166.373"/><path d="M937.922 434.86h-.868c-2.2 0-3.304-1.092-3.304-3.275v-9.996h-1.428a.798.798 0 0 1 0-1.596h1.428v-4.284a.787.787 0 0 1 .813-.784.765.765 0 0 1 .784.784v4.284h2.575a.798.798 0 0 1 0 1.596h-2.575v9.996c0 1.37.392 1.68 1.707 1.68h.868a.798.798 0 0 1 0 1.596zm14.758 0a.786.786 0 0 1-.812-.783V425.9a4.788 4.788 0 0 0-9.576 0v8.177a.798.798 0 0 1-1.596 0V415.7a.798.798 0 0 1 1.596 0v5.964a6.22 6.22 0 0 1 4.788-2.156 6.435 6.435 0 0 1 6.384 6.384v8.177a.78.78 0 0 1-.783.783zm16.575-6.636h-11.62c.252 3.192 2.324 5.516 5.377 5.516a5.059 5.059 0 0 0 4.115-1.932.735.735 0 0 1 .672-.392.856.856 0 0 1 .868.756c0 .252 0 .308-.532.924a6.61 6.61 0 0 1-5.123 2.24c-4.508 0-7.028-3.696-7.028-7.924 0-4.2 2.52-7.896 7.028-7.896s7.027 3.724 7.027 7.896a.847.847 0 0 1-.783.812zm-6.244-7.112c-3.36 0-5.125 2.576-5.377 5.517h10.78c-.252-3.192-2.323-5.517-5.403-5.517zm-345.318 44.225a6.353 6.353 0 0 1-5.433-2.66v7.252a.798.798 0 1 1-1.596 0v-19.152a.798.798 0 0 1 1.596 0v1.372a6.403 6.403 0 0 1 5.433-2.632c4.508 0 7.028 3.696 7.028 7.896 0 4.228-2.52 7.924-7.028 7.924zm0-14.225c-3.332 0-5.433 2.66-5.433 6.3s2.1 6.327 5.433 6.327 5.432-2.687 5.432-6.327-2.1-6.3-5.432-6.3z"/><use xlink:href="#j" x="-252.975" y="30"/><path d="M655.1 451.085l-5.516 13.132a.92.92 0 0 1-.785.644.953.953 0 0 1-.812-.644l-5.516-13.105a.892.892 0 0 1-.056-.363.783.783 0 0 1 .812-.756.719.719 0 0 1 .7.476l4.87 11.508 4.845-11.508a.799.799 0 0 1 1.54.252.673.673 0 0 1-.084.364zm14.868 7.14h-11.62c.252 3.192 2.323 5.516 5.375 5.516a5.06 5.06 0 0 0 4.116-1.932.736.736 0 0 1 .673-.392.855.855 0 0 1 .867.756c0 .252 0 .308-.53.924a6.614 6.614 0 0 1-5.125 2.24c-4.508 0-7.027-3.696-7.027-7.924 0-4.2 2.52-7.896 7.027-7.896s7.028 3.724 7.028 7.896a.847.847 0 0 1-.784.812zm-6.244-7.112c-3.36 0-5.123 2.576-5.375 5.517h10.78c-.252-3.192-2.324-5.517-5.404-5.517z"/><use xlink:href="#i" x="-104.018" y="30"/><path d="M687.327 464.86h-.867c-2.212 0-3.305-1.092-3.305-3.275v-9.996h-1.428a.798.798 0 0 1 0-1.596h1.428v-4.284a.787.787 0 0 1 .813-.784.764.764 0 0 1 .784.784v4.284h2.575a.798.798 0 0 1 0 1.596h-2.575v9.996c0 1.37.392 1.68 1.708 1.68h.867a.798.798 0 0 1 0 1.596zm14.84-13.748l-7.588 17.948a2.895 2.895 0 0 1-2.996 1.68h-1.23a.798.798 0 0 1 0-1.596h1.23c.616 0 1.26-.028 1.513-.672l1.596-3.808-5.796-13.553a.892.892 0 0 1-.056-.363.783.783 0 0 1 .812-.756.718.718 0 0 1 .7.476l5.208 12.15 5.152-12.15a.728.728 0 0 1 .728-.476.759.759 0 0 1 .784.756.878.878 0 0 1-.057.363zm11.313 13.916a2.934 2.934 0 0 1-2.771-2.968V445.7a.798.798 0 0 1 1.596 0v16.352c0 1.792 1.988.756 1.988 2.017a.903.903 0 0 1-.813.951zm3.6-17.724a1.596 1.596 0 1 1 1.596-1.596 1.577 1.577 0 0 1-1.596 1.596zm0 17.556a.769.769 0 0 1-.812-.783v-13.3a.77.77 0 0 1 .812-.783.762.762 0 0 1 .784.783v13.3a.749.749 0 0 1-.784.783zm16.184 0a.786.786 0 0 1-.812-.783V455.9a4.788 4.788 0 0 0-9.576 0v8.177a.798.798 0 0 1-1.596 0v-13.3a.798.798 0 0 1 1.596 0v.896a6.387 6.387 0 0 1 11.172 4.228v8.177a.78.78 0 0 1-.784.783zm16.576-6.636h-11.62c.253 3.192 2.324 5.516 5.376 5.516a5.061 5.061 0 0 0 4.116-1.932.735.735 0 0 1 .672-.392.856.856 0 0 1 .868.756c0 .252 0 .308-.532.924a6.612 6.612 0 0 1-5.124 2.24c-4.508 0-7.027-3.696-7.027-7.924 0-4.2 2.52-7.896 7.027-7.896s7.028 3.724 7.028 7.896a.847.847 0 0 1-.784.812zm-6.244-7.112c-3.36 0-5.123 2.576-5.376 5.517H749c-.252-3.192-2.324-5.517-5.404-5.517zM387.7 932.764h-6.804v7.84a.798.798 0 0 1-1.597 0v-18.367a.826.826 0 0 1 .812-.784h7.56a5.656 5.656 0 1 1 .028 11.312zm0-9.744h-6.804v8.148h6.775a4.074 4.074 0 0 0 .028-8.148z"/><use xlink:href="#d" x="286.59" y="476.525"/><path d="M426.077 927.64l-7.588 17.948a2.897 2.897 0 0 1-2.996 1.68h-1.232a.798.798 0 0 1 0-1.596h1.232c.615 0 1.26-.028 1.512-.672l1.596-3.8-5.796-13.552a.892.892 0 0 1-.056-.363.783.783 0 0 1 .812-.757.72.72 0 0 1 .7.477l5.208 12.152 5.15-12.152a.731.731 0 0 1 .729-.477.76.76 0 0 1 .784.757.892.892 0 0 1-.056.363zm7.838 14.225c-4.508 0-7.028-3.696-7.028-7.925 0-4.2 2.52-7.896 7.028-7.896s7.027 3.696 7.027 7.896c0 4.228-2.52 7.925-7.027 7.925zm0-14.225c-3.305 0-5.433 2.66-5.433 6.3s2.128 6.328 5.433 6.328c3.332 0 5.432-2.687 5.432-6.328s-2.1-6.3-5.432-6.3zm14.923-4.62h-.868a1.238 1.238 0 0 0-1.231 1.204v2.296h2.1a.763.763 0 0 1 .784.784.787.787 0 0 1-.784.813h-2.1v12.487a.764.764 0 0 1-.784.784.748.748 0 0 1-.784-.784v-12.487h-1.932a.798.798 0 0 1 0-1.597h1.932v-2.296a2.778 2.778 0 0 1 2.772-2.771h.896a.794.794 0 0 1 .813.812.751.751 0 0 1-.813.756zm8.062 0h-.867a1.238 1.238 0 0 0-1.232 1.204v2.296h2.1a.764.764 0 0 1 .785.784.787.787 0 0 1-.785.813h-2.1v12.487a.764.764 0 0 1-.783.784.748.748 0 0 1-.785-.784v-12.487H451.3a.798.798 0 0 1 0-1.597h1.932v-2.296a2.778 2.778 0 0 1 2.772-2.771h.896a.794.794 0 0 1 .813.812.751.751 0 0 1-.812.756zm7.618 18.9c-1.68 0-4.508-.588-5.488-2.212a.674.674 0 0 1-.112-.42.764.764 0 0 1 1.429-.448c1.008 1.232 2.8 1.484 4.172 1.484 2.716 0 4.088-.896 4.088-2.717 0-4.228-9.185-1.987-9.185-7.588 0-2.827 2.828-3.92 5.377-3.92a7.587 7.587 0 0 1 4.815 1.624.784.784 0 0 1 .252.532.908.908 0 0 1-.868.84.74.74 0 0 1-.531-.224 5.6 5.6 0 0 0-3.668-1.176c-2.465 0-3.78.952-3.78 2.323 0 3.92 9.184 1.85 9.184 7.588 0 3.192-2.8 4.313-5.684 4.313zm28.98-.532h-.027a2.899 2.899 0 0 1-2.772-2.184 6.355 6.355 0 0 1-5.433 2.66c-4.563 0-7.027-3.752-7.027-7.925 0-4.228 2.52-7.896 7.027-7.896a6.402 6.402 0 0 1 5.433 2.632v-1.372a.789.789 0 0 1 .812-.784.764.764 0 0 1 .784.784v11.284c0 1.792 2.017.672 2.017 2.016a.77.77 0 0 1-.812.784zm-8.232-13.748c-3.304 0-5.432 2.66-5.432 6.3s2.128 6.328 5.432 6.328c3.332 0 5.433-2.687 5.433-6.328s-2.1-6.3-5.433-6.3z"/><use xlink:href="#k"/><use xlink:href="#l"/><path d="M533.194 947.772c-2.38 0-5.74-.895-5.74-1.903a.889.889 0 0 1 .813-.896 10.164 10.164 0 0 1 1.484.672 10.489 10.489 0 0 0 3.443.532c3.584 0 5.433-1.764 5.433-5.208v-1.96a6.685 6.685 0 0 1-5.433 2.38c-4.424 0-7.027-3.136-7.027-7.448 0-4.2 2.52-7.896 7.027-7.896a6.403 6.403 0 0 1 5.433 2.632v-1.344a.798.798 0 0 1 1.596 0v13.636c0 4.452-2.66 6.804-7.028 6.804zm0-20.132c-3.304 0-5.432 2.66-5.432 6.3 0 3.612 1.988 5.853 5.432 5.853s5.433-2.24 5.433-5.853c0-3.64-2.1-6.3-5.433-6.3z"/><use xlink:href="#T" x="471.372" y="506.525"/><use xlink:href="#m"/><use xlink:href="#n"/><path d="M590.392 941.388h-.867c-2.212 0-3.305-1.092-3.305-3.275v-9.996h-1.428a.798.798 0 0 1 0-1.597h1.428v-4.283a.787.787 0 0 1 .813-.784.764.764 0 0 1 .784.784v4.283h2.575a.798.798 0 0 1 0 1.597h-2.575v9.996c0 1.372.392 1.68 1.708 1.68h.867a.798.798 0 0 1 0 1.596zm15.4-6.635h-11.62c.252 3.192 2.324 5.516 5.376 5.516a5.063 5.063 0 0 0 4.116-1.932.735.735 0 0 1 .672-.392.856.856 0 0 1 .868.756c0 .252 0 .308-.532.924a6.612 6.612 0 0 1-5.124 2.24c-4.508 0-7.027-3.696-7.027-7.925 0-4.2 2.52-7.896 7.027-7.896s7.028 3.724 7.028 7.896a.848.848 0 0 1-.784.813zm-6.244-7.112c-3.36 0-5.124 2.576-5.376 5.517h10.78c-.252-3.192-2.324-5.517-5.404-5.517zm14.475 14.28c-1.68 0-4.508-.588-5.487-2.212a.674.674 0 0 1-.112-.42.764.764 0 0 1 1.428-.448c1.008 1.232 2.8 1.484 4.172 1.484 2.716 0 4.088-.896 4.088-2.717 0-4.228-9.184-1.987-9.184-7.588 0-2.827 2.828-3.92 5.376-3.92a7.589 7.589 0 0 1 4.816 1.624.784.784 0 0 1 .252.532.909.909 0 0 1-.869.84.74.74 0 0 1-.531-.224 5.598 5.598 0 0 0-3.668-1.176c-2.464 0-3.78.952-3.78 2.323 0 3.92 9.185 1.85 9.185 7.588 0 3.192-2.8 4.313-5.685 4.313z"/><use xlink:href="#o"/><path d="M641.407 923.02h-.868a1.238 1.238 0 0 0-1.231 1.204v2.296h2.1a.763.763 0 0 1 .784.784.787.787 0 0 1-.784.813h-2.1v12.487a.765.765 0 0 1-.784.784.748.748 0 0 1-.784-.784v-12.487h-1.932a.798.798 0 0 1 0-1.597h1.932v-2.296a2.778 2.778 0 0 1 2.771-2.771h.896a.794.794 0 0 1 .812.812.75.75 0 0 1-.812.756z"/><use xlink:href="#p"/><use xlink:href="#k" x="164.234"/><path d="M693.934 927.556l-4.563 13.16c-.196.532-.448.672-.812.672-.476 0-.615-.168-.783-.672l-3.668-10.92-3.668 10.92c-.196.532-.448.672-.812.672a.817.817 0 0 1-.784-.672l-4.536-13.16a1.215 1.215 0 0 1-.056-.308.796.796 0 0 1 .812-.729.728.728 0 0 1 .729.532l3.836 11.088 3.668-10.947c.168-.532.336-.673.813-.673.336 0 .615.112.783.673l3.725 10.947 3.78-11.088a.728.728 0 0 1 .729-.532.759.759 0 0 1 .812 1.036z"/><use xlink:href="#p" x="51.77"/><path d="M730.528 941.388a.764.764 0 0 1-.783-.784v-9.407a3.57 3.57 0 0 0-7.141-.028v9.436a.764.764 0 0 1-.783.784.787.787 0 0 1-.812-.784v-9.407a3.556 3.556 0 0 0-7.111-.028v9.436a.798.798 0 0 1-1.597 0v-13.3a.798.798 0 0 1 1.597 0v.168a5.089 5.089 0 0 1 3.556-1.428 5.193 5.193 0 0 1 4.368 2.38 5.168 5.168 0 0 1 9.52 2.744v9.436a.787.787 0 0 1-.812.784z"/><use xlink:href="#l" x="230.178"/><use xlink:href="#R" x="708.773" y="506.525"/><use xlink:href="#q"/><path d="M788.404 941.388h-8.12a.848.848 0 0 1-.812-.784v-18.367a.693.693 0 0 1 .729-.784h7.588a5.062 5.062 0 0 1 5.04 4.983 4.856 4.856 0 0 1-1.988 4.004 5.739 5.739 0 0 1-2.436 10.948zm-.616-18.368h-6.72v6.9h6.72a3.445 3.445 0 0 0 0-6.889zm.616 8.484h-7.336v8.288h7.336a4.144 4.144 0 1 0 0-8.288zm11.312 10.052a2.934 2.934 0 0 1-2.771-2.968v-16.352a.798.798 0 0 1 1.596 0v16.352c0 1.792 1.988.756 1.988 2.016a.903.903 0 0 1-.812.952zm17.416-.168h-.028a2.9 2.9 0 0 1-2.772-2.184 6.354 6.354 0 0 1-5.432 2.66c-4.564 0-7.027-3.752-7.027-7.925 0-4.228 2.52-7.896 7.027-7.896a6.401 6.401 0 0 1 5.432 2.632v-1.372a.789.789 0 0 1 .813-.784.765.765 0 0 1 .784.784v11.284c0 1.792 2.016.672 2.016 2.016a.77.77 0 0 1-.812.784zM808.9 927.64c-3.304 0-5.432 2.66-5.432 6.3s2.128 6.328 5.432 6.328c3.332 0 5.432-2.687 5.432-6.328s-2.1-6.3-5.432-6.3z"/><use xlink:href="#S" x="762.084" y="506.525"/><path d="M844.823 927.892l-4.816 4.816 4.76 7.448a.79.79 0 0 1 .168.447.851.851 0 0 1-.84.757.792.792 0 0 1-.672-.364l-4.592-7.14-2.884 2.912v3.836a.798.798 0 0 1-1.596 0v-18.367a.798.798 0 0 1 1.596 0V934.5l7.728-7.73a.789.789 0 0 1 .588-.252.808.808 0 0 1 .813.784.786.786 0 0 1-.252.588z"/><use xlink:href="#V" x="733.334" y="506.525"/><use xlink:href="#n" x="298.418"/><use xlink:href="#f" x="727.174" y="476.525"/><use xlink:href="#r"/><path d="M935.99 941.388a.762.762 0 0 1-.783-.784v-9.1h-10.864v9.1a.749.749 0 0 1-.784.784.77.77 0 0 1-.812-.784v-18.367a.77.77 0 0 1 .812-.784.749.749 0 0 1 .784.784v7.672h10.864v-7.672a.749.749 0 0 1 .783-.784.77.77 0 0 1 .813.784v18.367a.772.772 0 0 1-.812.784z"/><use xlink:href="#s"/><path d="M949.905 941.92c-1.68 0-4.508-.588-5.488-2.212a.679.679 0 0 1-.111-.42.764.764 0 0 1 1.428-.448c1.008 1.232 2.8 1.484 4.172 1.484 2.716 0 4.088-.896 4.088-2.717 0-4.228-9.184-1.987-9.184-7.588 0-2.827 2.828-3.92 5.375-3.92a7.585 7.585 0 0 1 4.816 1.624.784.784 0 0 1 .252.532.908.908 0 0 1-.868.84.742.742 0 0 1-.532-.224 5.596 5.596 0 0 0-3.668-1.176c-2.463 0-3.78.952-3.78 2.323 0 3.92 9.184 1.85 9.184 7.588 0 3.192-2.8 4.313-5.684 4.313z"/><use xlink:href="#t"/><path d="M989.413 941.388h-.028a2.899 2.899 0 0 1-2.771-2.184 6.356 6.356 0 0 1-5.433 2.66c-4.563 0-7.027-3.752-7.027-7.925 0-4.228 2.52-7.896 7.027-7.896a6.403 6.403 0 0 1 5.433 2.632v-1.372a.789.789 0 0 1 .812-.784.764.764 0 0 1 .784.784v11.284c0 1.792 2.016.672 2.016 2.016a.77.77 0 0 1-.812.784zm-8.232-13.748c-3.304 0-5.432 2.66-5.432 6.3s2.128 6.328 5.432 6.328c3.332 0 5.433-2.687 5.433-6.328s-2.1-6.3-5.433-6.3z"/><use xlink:href="#f" x="835.7" y="476.525"/><use xlink:href="#s" x="67.926"/><path d="M1024.552 939.737a6.505 6.505 0 0 1-5.012 2.128c-4.508 0-7.027-3.696-7.027-7.925 0-4.2 2.52-7.896 7.027-7.896a6.501 6.501 0 0 1 5.012 2.128.743.743 0 0 1 .225.532.878.878 0 0 1-.812.84.826.826 0 0 1-.588-.28 4.939 4.939 0 0 0-3.836-1.624c-3.304 0-5.432 2.66-5.432 6.3s2.128 6.328 5.432 6.328a5.029 5.029 0 0 0 3.836-1.624.795.795 0 0 1 1.4.532.804.804 0 0 1-.225.56zm7.7 2.183c-1.68 0-4.508-.588-5.487-2.212a.674.674 0 0 1-.112-.42.764.764 0 0 1 1.428-.448c1 1.232 2.8 1.484 4.172 1.484 2.716 0 4.1-.896 4.1-2.717 0-4.228-9.185-1.987-9.185-7.588 0-2.827 2.828-3.92 5.376-3.92a7.587 7.587 0 0 1 4.816 1.624.784.784 0 0 1 .252.532.908.908 0 0 1-.868.84.742.742 0 0 1-.532-.224 5.598 5.598 0 0 0-3.668-1.176c-2.464 0-3.78.952-3.78 2.323 0 3.92 9.185 1.85 9.185 7.588 0 3.192-2.8 4.313-5.685 4.313z"/><use xlink:href="#q" x="273.697"/><path d="M623.433 971.388a.787.787 0 0 1-.812-.784v-8.176a4.788 4.788 0 0 0-9.576 0v8.176a.798.798 0 0 1-1.596 0v-18.367a.798.798 0 0 1 1.596 0v5.964a6.222 6.222 0 0 1 4.788-2.156 6.435 6.435 0 0 1 6.384 6.384v8.176a.781.781 0 0 1-.783.784zM640 964.753H628.4c.252 3.192 2.324 5.516 5.377 5.516a5.059 5.059 0 0 0 4.115-1.932.735.735 0 0 1 .672-.392.856.856 0 0 1 .868.756c0 .252 0 .308-.532.924a6.61 6.61 0 0 1-5.123 2.24c-4.508 0-7.028-3.696-7.028-7.925 0-4.2 2.52-7.896 7.028-7.896s7.027 3.724 7.027 7.896a.847.847 0 0 1-.783.813zm-6.244-7.112c-3.36 0-5.125 2.576-5.377 5.517h10.78c-.252-3.192-2.323-5.517-5.403-5.517z"/><use xlink:href="#c" x="245.366" y="536.526"/><use xlink:href="#t" x="-308.834" y="30"/><use xlink:href="#e" x="530.645" y="506.526"/><use xlink:href="#f" x="514.464" y="506.525"/><path d="M693.29 977.772c-2.38 0-5.74-.895-5.74-1.903a.889.889 0 0 1 .812-.896 10.118 10.118 0 0 1 1.484.672 10.496 10.496 0 0 0 3.444.532c3.584 0 5.432-1.764 5.432-5.208v-1.96a6.683 6.683 0 0 1-5.432 2.38c-4.424 0-7.028-3.136-7.028-7.448 0-4.2 2.52-7.896 7.028-7.896a6.401 6.401 0 0 1 5.432 2.632v-1.344a.798.798 0 0 1 1.597 0v13.636c0 4.452-2.66 6.804-7.028 6.804zm0-20.132c-3.304 0-5.433 2.66-5.433 6.3 0 3.612 1.988 5.853 5.433 5.853s5.432-2.24 5.432-5.853c0-3.64-2.1-6.3-5.432-6.3z"/><use xlink:href="#Y" x="508.224" y="536.525"/><path d="M729.914 971.388a.787.787 0 0 1-.812-.784v-8.176a4.788 4.788 0 0 0-9.576 0v8.176a.798.798 0 0 1-1.596 0v-18.367a.798.798 0 0 1 1.596 0v5.964a6.219 6.219 0 0 1 4.788-2.156 6.435 6.435 0 0 1 6.384 6.384v8.176a.781.781 0 0 1-.784.784zm10.332.477c-4.508 0-7.028-3.696-7.028-7.925 0-4.2 2.52-7.896 7.028-7.896s7.028 3.696 7.028 7.896c0 4.228-2.52 7.925-7.028 7.925zm0-14.225c-3.304 0-5.432 2.66-5.432 6.3s2.128 6.328 5.432 6.328c3.332 0 5.433-2.687 5.433-6.328s-2.1-6.3-5.433-6.3zm14.476 14.28c-1.68 0-4.508-.588-5.488-2.212a.679.679 0 0 1-.111-.42.764.764 0 0 1 1.428-.448c1.008 1.232 2.8 1.484 4.172 1.484 2.716 0 4.088-.896 4.088-2.717 0-4.228-9.184-1.987-9.184-7.588 0-2.827 2.828-3.92 5.376-3.92a7.583 7.583 0 0 1 4.815 1.624.784.784 0 0 1 .252.532.907.907 0 0 1-.867.84.742.742 0 0 1-.532-.224 5.6 5.6 0 0 0-3.668-1.176c-2.464 0-3.78.952-3.78 2.323 0 3.92 9.184 1.85 9.184 7.588 0 3.192-2.8 4.313-5.684 4.313z"/><use xlink:href="#U" x="682.488" y="536.526"/><path d="M803.692 957.556l-4.563 13.16c-.196.532-.448.672-.812.672-.477 0-.616-.168-.784-.672l-3.668-10.92-3.668 10.92c-.196.532-.448.672-.812.672a.818.818 0 0 1-.784-.672l-4.535-13.16a1.176 1.176 0 0 1-.057-.308.796.796 0 0 1 .813-.729.728.728 0 0 1 .728.532l3.836 11.088 3.668-10.947c.168-.532.336-.673.813-.673.336 0 .616.112.784.673l3.724 10.947 3.78-11.088a.727.727 0 0 1 .728-.532.757.757 0 0 1 .812 1.036z"/><use xlink:href="#Z" x="543.14" y="536.525"/><use xlink:href="#p" x="177.462" y="30"/><use xlink:href="#R" x="802.376" y="536.525"/><use xlink:href="#l" x="355.897" y="30"/><use xlink:href="#m" x="324.738" y="30"/><use xlink:href="#r" x="-7.026" y="30"/><path d="M916.53 953.833a1.596 1.596 0 1 1 1.596-1.596 1.577 1.577 0 0 1-1.596 1.596zm0 17.556a.77.77 0 0 1-.812-.784v-13.3a.771.771 0 0 1 .812-.784.763.763 0 0 1 .784.784v13.3a.749.749 0 0 1-.784.784z"/><use xlink:href="#o" x="298.643" y="30"/><path d="M940.05 971.388h-.868c-2.212 0-3.304-1.092-3.304-3.275v-9.996h-1.428a.798.798 0 0 1 0-1.597h1.428v-4.283a.787.787 0 0 1 .813-.784.764.764 0 0 1 .783.784v4.283h2.576a.798.798 0 0 1 0 1.597h-2.576v9.996c0 1.372.393 1.68 1.708 1.68h.868a.798.798 0 0 1 0 1.596zm14.756 0a.787.787 0 0 1-.812-.784v-8.176a4.788 4.788 0 1 0-9.575 0v8.176a.798.798 0 0 1-1.597 0v-18.367a.798.798 0 0 1 1.597 0v5.964a6.219 6.219 0 0 1 4.788-2.156 6.435 6.435 0 0 1 6.384 6.384v8.176a.781.781 0 0 1-.784.784zm16.576-6.635h-11.62c.252 3.192 2.323 5.516 5.376 5.516a5.059 5.059 0 0 0 4.115-1.932.736.736 0 0 1 .673-.392.856.856 0 0 1 .868.756c0 .252 0 .308-.532.924a6.612 6.612 0 0 1-5.124 2.24c-4.508 0-7.028-3.696-7.028-7.925 0-4.2 2.52-7.896 7.028-7.896s7.027 3.724 7.027 7.896a.847.847 0 0 1-.783.813zm-6.244-7.112c-3.36 0-5.124 2.576-5.376 5.517h10.78c-.252-3.192-2.324-5.517-5.404-5.517zm34.327 13.747a.765.765 0 0 1-.784-.784v-9.407a3.57 3.57 0 0 0-7.14-.028v9.436a.764.764 0 0 1-.784.784.788.788 0 0 1-.812-.784v-9.407a3.556 3.556 0 0 0-7.111-.028v9.436a.798.798 0 0 1-1.596 0v-13.3a.798.798 0 0 1 1.596 0v.168a5.089 5.089 0 0 1 3.556-1.428 5.173 5.173 0 0 0 8.708 0 5.121 5.121 0 0 1 5.18 5.124v9.436a.787.787 0 0 1-.812.784z"/><use xlink:href="#p" x="359.094" y="30"/><use xlink:href="#a" x="696.885" y="536.525"/><path d="M1037.488 971.388h-.868c-2.212 0-3.304-1.092-3.304-3.275v-9.996h-1.43a.798.798 0 0 1 0-1.597h1.43v-4.283a.787.787 0 0 1 .812-.784.764.764 0 0 1 .784.784v4.283h2.576a.798.798 0 0 1 0 1.597h-2.576v9.996c0 1.372.392 1.68 1.708 1.68h.868a.798.798 0 0 1 0 1.596zm4.368 0a1.596 1.596 0 1 1 1.596-1.596 1.578 1.578 0 0 1-1.596 1.596z"/></g><path d="M660.407 576.937h-45.582q-2.607.262-2.344-2.605V561.05q-.264-2.602 2.344-2.345h45.582q2.862.526 2.604-2.344v-45.843q-.524-2.862 2.345-2.604h13.805q2.862-.256 2.344 2.604v45.843q-.262 2.87 2.605 2.344h45.582q2.6-.256 2.344 2.345v13.283q.256 2.607-2.344 2.605H684.1q-2.87-.52-2.605 2.344v45.843q.52 2.868-2.344 2.344h-13.805q-2.607.262-2.345-2.344V579.28q.256-2.862-2.604-2.344h0zm126.27 90.858q.454 5.077 4.148 1.844 14.747-19.813 55.773-23.508 41.02.93 64.992 29.04 23.962 28.12 24.43 71.445-.464 42.413-25.352 72.367-24.437 29.968-66.836 31.344-42.413-1.383-66.836-30.883-24.437-29.493-24.9-74.2V600.498q.454-41.484 24.9-69.14 24.426-28.1 67.758-29.04 35.024.464 59.46 20.28 24.426 20.288 29.5 54.4.918 4.148-4.6 4.148H901.9q-4.613 0-4.6-5.53a60.418 60.418 0 0 0-16.133-28.578q-12-11.517-36.875-11.984-27.202.464-42.406 18.438-15.2 18.44-15.2 47.016zm0 79.742q0 30.422 14.75 49.78 14.747 19.824 42.406 20.742 27.656-.918 42.406-20.742 14.282-19.813 14.75-50.703-.464-30.422-14.3-49.32-14.292-18.895-41.945-19.36-57.624 3.694-58.078 69.602h0zM994.1 513.372q5.45 5.783 5.613 14.86v10.236q-.166 9.083-5.613 14.86-5.45 5.78-14.53 5.943-8.917-.163-14.364-5.943-5.615-5.777-5.78-14.86v-10.236q.163-9.078 5.78-14.86 5.448-5.777 14.364-5.943 9.078.167 14.53 5.943zm-22.3 115.576h-7.266c-1.32.107-1.65-.44-1-1.65l68.024-115.74q.658-1.982 2.146-1.65H1041q1.815-.163 1 1.486l-68.2 115.74q-.66 1.98-1.98 1.816zm-3.138-90.975q.658 11.56 10.897 11.723 10.402-.163 10.896-11.723v-9.246q-.495-11.555-10.896-11.723-10.24.167-10.897 11.723zm42.763 87.507a20.796 20.796 0 0 1-5.778-14.694v-10.072a20.797 20.797 0 0 1 5.778-14.693q5.45-5.612 14.364-5.78 9.08.167 14.53 5.78 5.448 5.78 5.613 14.693v10.072q-.167 8.915-5.613 14.694-5.45 5.777-14.53 5.944-8.915-.167-14.364-5.944zm25.262-15.2v-9.08q-.495-11.227-10.897-11.393-10.24.167-10.896 11.393v9.08q.658 11.394 10.896 11.56 10.402-.164 10.897-11.56h0z" fill="#fcd200"/><g fill="none" stroke="#fff" stroke-miterlimit="10" stroke-width="2" stroke-dasharray="2.002 6.0064"><path d="M34.075 375.216H1046m-506 2V889"/><path d="M34.075 886.99H1046"/></g></svg>