<?xml version="1.0" encoding="utf-8"?>
<!-- Generator: Adobe Illustrator 24.3.0, SVG Export Plug-In . SVG Version: 6.00 Build 0)  -->
<svg version="1.1" id="Layer_1" xmlns:v="https://vecta.io/nano"
	 xmlns="http://www.w3.org/2000/svg" xmlns:xlink="http://www.w3.org/1999/xlink" x="0px" y="0px" viewBox="0 0 1080 1080"
	 style="enable-background:new 0 0 1080 1080;" xml:space="preserve">
<style type="text/css">
	.st0{fill:url(#SVGID_1_);}
	.st1{fill:url(#SVGID_2_);}
	.st2{fill:none;stroke:#000000;stroke-width:2;stroke-miterlimit:10;}
	.st3{fill:url(#SVGID_3_);}
	.st4{fill:url(#SVGID_4_);}
	.st5{fill:#1A1E73;}
	.st6{opacity:0.8;}
	.st7{fill:#FFFFFF;}
	.st8{fill:none;stroke:#FFFFFF;stroke-width:2;stroke-miterlimit:10;}
	.st9{opacity:0.44;}
	.st10{opacity:0.5;}
	.st11{opacity:0.7;}
</style>
<linearGradient id="SVGID_1_" gradientUnits="userSpaceOnUse" x1="11.7157" y1="1068.2843" x2="1068.2843" y2="11.7157" gradientTransform="matrix(1 0 0 -1 0 1080)">
	<stop  offset="0" style="stop-color:#6E2D82"/>
	<stop  offset="0.488" style="stop-color:#025A94"/>
	<stop  offset="0.622" style="stop-color:#104B83"/>
	<stop  offset="0.857" style="stop-color:#25356A"/>
	<stop  offset="1" style="stop-color:#2D2D61"/>
</linearGradient>
<path class="st0" d="M40,0h1000c22.1,0,40,17.9,40,40v1000c0,22.1-17.9,40-40,40H40c-22.1,0-40-17.9-40-40V40C0,17.9,17.9,0,40,0z"
	/>
<linearGradient id="SVGID_2_" gradientUnits="userSpaceOnUse" x1="426.787" y1="-114.5" x2="426.787" y2="671.17" gradientTransform="matrix(0 1 1 0 148.451 374.8787)">
	<stop  offset="0" style="stop-color:#FF5F6D"/>
	<stop  offset="0.199" style="stop-color:#FF796E"/>
	<stop  offset="0.551" style="stop-color:#FFA170"/>
	<stop  offset="0.83" style="stop-color:#FFBA71"/>
	<stop  offset="1" style="stop-color:#FFC371"/>
</linearGradient>
<path class="st1" d="M819.6,638.9v325.6H34V638.9H819.6z"/>
<path class="st2" d="M847.6,826.7h156.1"/>
<path d="M1000.8,836.7l17.3-10l-17.3-10V836.7z"/>
<linearGradient id="SVGID_3_" gradientUnits="userSpaceOnUse" x1="426.768" y1="277.22" x2="426.768" y2="1062.85" gradientTransform="matrix(0 1 1 0 -243.267 -16.8014)">
	<stop  offset="0" style="stop-color:#FF5F6D"/>
	<stop  offset="0.199" style="stop-color:#FF796E"/>
	<stop  offset="0.551" style="stop-color:#FFA170"/>
	<stop  offset="0.83" style="stop-color:#FFBA71"/>
	<stop  offset="1" style="stop-color:#FFC371"/>
</linearGradient>
<path class="st3" d="M819.6,307.1v205.7c0,33.1-26.9,60-60,60H34V247.1h725.6C792.7,247.1,819.6,274,819.6,307.1L819.6,307.1z"/>
<linearGradient id="SVGID_4_" gradientUnits="userSpaceOnUse" x1="932.7579" y1="165.087" x2="932.7579" y2="391.44" gradientTransform="matrix(0 1 1 0 654.4963 -131.0212)">
	<stop  offset="0" style="stop-color:#C56EFF"/>
	<stop  offset="1" style="stop-color:#32CAF8"/>
</linearGradient>
<path class="st4" d="M1045.9,698.9v205.7c0,33.1-26.9,60-60,60H819.6V638.9h166.3C1019.1,638.9,1045.9,665.7,1045.9,698.9
	L1045.9,698.9z"/>
<g>
	<path class="st5" d="M60.4,308.7c0.3,4.2,2.7,6.4,7,6.6c1.9,0.1,3.7-0.7,5-2c1.3-1.5,2-3.5,1.9-5.6v-5.3c0.1-1.9-0.5-3.7-1.7-5.2
		c-1.2-1.4-3-2.2-4.9-2.1c-2.1-0.1-4.2,0.6-5.8,2c-0.2,0.3-0.5,0.4-0.8,0.3h-2.9c-0.4,0.1-0.6-0.1-0.5-0.5v-20.1
		c-0.1-0.4,0.1-0.6,0.5-0.5h18.3c0.4-0.1,0.6,0.1,0.5,0.5v3c0.1,0.4-0.1,0.6-0.5,0.6H62.3c-0.4-0.1-0.6,0.1-0.5,0.5v11.6
		c0,0.4,0.2,0.4,0.5,0.2c1.8-0.9,3.8-1.4,5.8-1.3c2.8-0.1,5.6,1,7.6,3c2,2.2,3.1,5.1,3,8v5.3c0.1,3.1-1.1,6.2-3.3,8.4
		c-2.2,2.1-5.1,3.2-8.1,3.2c-2.9,0.1-5.8-1.1-7.9-3.1c-2-2.1-3.2-4.8-3.2-7.7c-0.1-0.4,0.1-0.6,0.5-0.5h3
		C60.2,308,60.4,308.2,60.4,308.7L60.4,308.7L60.4,308.7z"/>
	<g>
		<path id="E" class="st5" d="M90.8,315.6c0.1,1.9-1.3,3.5-3.2,3.6c-0.1,0-0.2,0-0.3,0c-2.2-0.2-3.4-1.4-3.5-3.6
			c-0.1-1.9,1.4-3.5,3.3-3.6c0.1,0,0.2,0,0.2,0c1.9-0.1,3.4,1.4,3.5,3.3C90.8,315.4,90.8,315.5,90.8,315.6L90.8,315.6z"/>
	</g>
	<path class="st5" d="M114.3,298.5c0-0.4-0.2-0.4-0.5-0.2c-1.3,1.6-3.7,2.6-7.2,2.9c-3.1,0.1-6.1-1.3-8.2-3.6
		c-2.1-2.6-3.2-5.8-3-9.1c-0.1-3.3,1-6.5,3.1-9.1c4.1-4.7,11.2-5.3,15.9-1.2c0.4,0.4,0.8,0.7,1.2,1.1c2.1,2.7,3.2,6,3.1,9.4V307
		c0.1,3.2-1,6.3-3.1,8.7c-2,2.3-4.9,3.5-8.7,3.6c-2.7,0-5.4-0.9-7.6-2.6c-2.1-1.7-3.4-4.1-3.6-6.8c-0.1-0.4,0.1-0.5,0.5-0.5h3.3
		c0.4,0,0.6,0.2,0.6,0.7c0.3,1.4,1,2.6,2,3.6c3.1,2.3,7.5,2,10.3-0.8c1.3-1.7,2-3.8,1.9-6L114.3,298.5z M114.3,288.3
		c0.1-2.3-0.6-4.5-1.9-6.4c-1.3-1.7-3.4-2.7-5.5-2.6c-2.1-0.1-4.1,0.9-5.4,2.6c-1.3,1.9-2,4.2-1.9,6.5c-0.1,2.3,0.6,4.5,1.9,6.4
		c1.3,1.6,3.3,2.6,5.3,2.5C111.8,297,114.3,294,114.3,288.3L114.3,288.3L114.3,288.3z"/>
	<g>
		<path id="F" class="st5" d="M65.3,355h-9.2c-0.4,0-0.8-0.3-0.8-0.8c0-0.2,0.1-0.3,0.2-0.4l8.3-11.8c0.4-0.6,0.6-1.4,0.6-2.1
			c0-2-1.6-3.7-3.7-3.7c0,0,0,0,0,0c-2.7,0-3.7,2.9-4.5,2.9c-0.5,0-0.8-0.3-0.9-0.8c0-0.6,2.1-3.7,5.3-3.7c2.9,0,5.2,2.3,5.3,5.2
			c0,1.1-0.3,2.2-1,3.1l-7.4,10.5h7.6c0.4,0,0.8,0.4,0.8,0.8S65.8,355,65.3,355L65.3,355z"/>
	</g>
	<g>
		<path id="G" class="st5" d="M74.4,355.4c-5.9,0-6-7.1-6-11.2c0-4,0.6-9.7,6-9.7c5.2,0,6,5.4,6,9.7
			C80.4,348.3,80.3,355.4,74.4,355.4L74.4,355.4z M78.8,344.2c0-4-0.6-8.1-4.4-8.1c-4.2,0-4.4,5.1-4.4,8.1v1.8
			c0,3.2,0.6,7.8,4.4,7.8c3.8,0,4.4-4.6,4.4-7.8V344.2z"/>
	</g>
	<g>
		<path id="H" class="st5" d="M88.9,355.4c-5.9,0-6-7.1-6-11.2c0-4,0.6-9.7,6-9.7c5.2,0,6,5.4,6,9.7
			C94.9,348.3,94.8,355.4,88.9,355.4L88.9,355.4z M93.3,344.2c0-4-0.6-8.1-4.4-8.1c-4.2,0-4.4,5.1-4.4,8.1v1.8
			c0,3.2,0.6,7.8,4.4,7.8c3.8,0,4.4-4.6,4.4-7.8L93.3,344.2z"/>
	</g>
	<path class="st5" d="M107.8,336.1l-7.1,18.4c-0.1,0.3-0.4,0.5-0.7,0.5c-0.5,0-0.8-0.4-0.8-0.8c0-0.1,0-0.2,0.1-0.3l6.6-17.3H97
		c-0.4,0-0.8-0.3-0.8-0.8c0-0.4,0.3-0.8,0.8-0.8c0,0,0,0,0.1,0h10c0.5,0,0.8,0.3,0.8,0.7C107.9,335.9,107.8,336,107.8,336.1
		L107.8,336.1z M121.3,346.3h-11.2c-0.4,0-0.8-0.4-0.8-0.8s0.4-0.8,0.8-0.8h11.2c0.4,0,0.8,0.4,0.8,0.8S121.8,346.3,121.3,346.3z
		 M133.8,355h-9.2c-0.4,0-0.8-0.3-0.8-0.8c0-0.2,0.1-0.3,0.2-0.4l8.3-11.8c0.4-0.6,0.6-1.4,0.6-2.1c0-2-1.6-3.7-3.7-3.7c0,0,0,0,0,0
		c-2.7,0-3.7,2.9-4.5,2.9c-0.5,0-0.8-0.3-0.9-0.8c0-0.6,2.1-3.7,5.3-3.7c2.9,0,5.2,2.3,5.3,5.2c0,1.1-0.3,2.2-1,3.1l-7.4,10.5h7.6
		c0.4,0,0.8,0.4,0.8,0.8S134.2,355,133.8,355L133.8,355z M142.9,355.4c-5.9,0-6-7.1-6-11.2c0-4,0.6-9.7,6-9.7c5.2,0,6,5.4,6,9.7
		C148.9,348.3,148.8,355.4,142.9,355.4L142.9,355.4z M147.3,344.2c0-4-0.6-8.1-4.4-8.1c-4.2,0-4.4,5.1-4.4,8.1v1.8
		c0,3.2,0.6,7.8,4.4,7.8c3.8,0,4.4-4.6,4.4-7.8V344.2z M155.4,355c-0.4,0-0.8-0.3-0.8-0.7c0,0,0,0,0,0v-16.7l-3.1,3
		c-0.1,0.2-0.3,0.3-0.5,0.3c-0.5,0-0.8-0.4-0.8-0.9c0-0.2,0.1-0.4,0.3-0.5l4.4-4.3c0.2-0.1,0.3-0.2,0.5-0.2c0.6,0,0.8,0.4,0.8,1
		v18.5C156.2,354.6,155.9,355,155.4,355C155.5,355,155.4,355,155.4,355L155.4,355z M165.4,355.4c-2.1,0.1-4.1-1-5.2-2.8
		c-0.1-0.1-0.2-0.3-0.2-0.5c0-0.4,0.4-0.8,0.8-0.8c0.3,0,0.5,0.1,0.6,0.4c0.8,1.3,2.3,2.1,3.9,2.1c3.5,0,4.8-3.4,4.8-8.8v-0.5
		c-2.1,2.6-6,3-8.6,0.8c-2.6-2.1-3-6-0.8-8.6c1.1-1.4,2.8-2.2,4.6-2.2c5.9,0,6.4,6,6.4,10.4C171.8,350.2,170.7,355.4,165.4,355.4
		L165.4,355.4z M165.4,336.1c-2.5,0.1-4.5,2.3-4.4,4.8c0.1,2.4,2,4.3,4.4,4.4c2.5-0.1,4.5-2.2,4.5-4.8
		C169.4,338.2,168.3,336.1,165.4,336.1z M78.3,676.5c-3.4,5.5-6,11.4-7.9,17.6c-1.7,6-2.7,12.2-2.9,18.4c0.1,0.5-0.1,0.7-0.6,0.6
		h-3.3c-0.4,0-0.6-0.3-0.5-0.6c0.3-6.3,1.4-12.6,3.3-18.6c1.9-6.3,4.6-12.4,8-18c0.4-0.5,0.3-0.8-0.1-0.8h-18
		c-0.4,0.1-0.6-0.1-0.5-0.6v-3.1c-0.1-0.4,0.1-0.6,0.5-0.5H78c0.4-0.1,0.6,0.1,0.5,0.5v4.3L78.3,676.5L78.3,676.5z"/>
	<g>
		<path id="E_1_" class="st5" d="M90.8,710.3c0.1,1.9-1.3,3.5-3.2,3.6c-0.1,0-0.2,0-0.3,0c-2.2-0.2-3.4-1.4-3.5-3.6
			c-0.1-1.9,1.4-3.5,3.3-3.6c0.1,0,0.2,0,0.2,0c1.9-0.1,3.4,1.4,3.5,3.3C90.8,710.1,90.8,710.2,90.8,710.3L90.8,710.3z"/>
	</g>
	<path class="st5" d="M99.9,690.9c0,0.4,0.2,0.5,0.5,0.2c1.2-1.7,3.6-2.7,7.1-3c3.2-0.1,6.2,1.3,8.3,3.7c2.1,2.6,3.2,5.8,3.1,9.1
		c0,3.4-1.1,6.6-3.2,9.2c-3.9,4.7-10.9,5.3-15.6,1.4c-0.5-0.4-0.9-0.9-1.4-1.3c-2.1-2.7-3.3-6-3.2-9.4v-18.4
		c-0.1-3.2,1.1-6.4,3.2-8.8c2.2-2.4,5.3-3.8,8.6-3.7c2.7,0,5.4,0.9,7.6,2.6c2.1,1.7,3.4,4.2,3.8,6.9c0.1,0.4-0.1,0.5-0.6,0.5h-3.5
		c-0.4,0-0.6-0.2-0.6-0.7c-0.3-1.4-1-2.6-2.1-3.6c-1.3-1.1-3-1.6-4.7-1.5c-2.1-0.1-4,0.8-5.4,2.3c-1.3,1.7-2,3.8-1.9,6L99.9,690.9z
		 M99.9,701.1c-0.1,2.3,0.6,4.5,1.9,6.3c2.3,3,6.6,3.5,9.6,1.2c0.4-0.3,0.8-0.8,1.2-1.2c1.3-1.9,1.9-4.2,1.9-6.4
		c0.1-2.2-0.6-4.4-1.8-6.3c-1.3-1.6-3.3-2.6-5.3-2.5C102.4,692.5,100,695.5,99.9,701.1C99.9,701.1,99.9,701.1,99.9,701.1z"/>
	<g>
		<path id="F_1_" class="st5" d="M65.3,749.6h-9.2c-0.4,0-0.8-0.3-0.8-0.8c0-0.2,0.1-0.3,0.2-0.4l8.3-11.8c0.4-0.6,0.6-1.4,0.6-2.1
			c0-2-1.6-3.7-3.7-3.7c0,0,0,0,0,0c-2.7,0-3.7,2.9-4.5,2.9c-0.5,0-0.8-0.3-0.9-0.8c0-0.6,2.1-3.7,5.3-3.7c2.9,0,5.2,2.3,5.3,5.2
			c0,1.1-0.3,2.2-1,3.1L57.7,748h7.6c0.4,0,0.8,0.4,0.8,0.8S65.8,749.6,65.3,749.6L65.3,749.6z"/>
	</g>
	<g>
		<path id="G_1_" class="st5" d="M74.4,750.1c-5.9,0-6-7.1-6-11.2c0-4,0.6-9.7,6-9.7c5.2,0,6,5.4,6,9.7
			C80.4,742.9,80.3,750.1,74.4,750.1L74.4,750.1z M78.8,738.9c0-4-0.6-8.1-4.4-8.1c-4.2,0-4.4,5.1-4.4,8.1v1.8
			c0,3.2,0.6,7.8,4.4,7.8c3.8,0,4.4-4.6,4.4-7.8V738.9z"/>
	</g>
	<path class="st5" d="M92.2,749.6h-9.2c-0.4,0-0.8-0.3-0.8-0.8c0-0.2,0.1-0.3,0.2-0.4l8.3-11.8c0.4-0.6,0.6-1.4,0.6-2.1
		c0-2-1.6-3.7-3.7-3.7c0,0,0,0,0,0c-2.7,0-3.7,2.9-4.5,2.9c-0.5,0-0.8-0.3-0.9-0.8c0-0.6,2.1-3.7,5.3-3.7c2.9,0,5.2,2.3,5.3,5.2
		c0,1.1-0.3,2.2-1,3.1L84.6,748h7.6c0.4,0,0.8,0.4,0.8,0.8C93,749.2,92.7,749.6,92.2,749.6L92.2,749.6z"/>
	<g>
		<path id="H_1_" class="st5" d="M101.3,750.1c-5.9,0-6-7.1-6-11.2c0-4,0.6-9.7,6-9.7c5.2,0,6,5.4,6,9.7
			C107.3,742.9,107.2,750.1,101.3,750.1L101.3,750.1z M105.7,738.9c0-4-0.6-8.1-4.4-8.1c-4.2,0-4.4,5.1-4.4,8.1v1.8
			c0,3.2,0.6,7.8,4.4,7.8c3.8,0,4.4-4.6,4.4-7.8L105.7,738.9z"/>
	</g>
	<path class="st5" d="M121.7,749.6h-0.9c-2.2,0-3.3-1.1-3.3-3.3v-10h-1.4c-0.4,0-0.8-0.4-0.8-0.8c0-0.4,0.4-0.8,0.8-0.8l0,0h1.4
		v-4.3c0-0.4,0.4-0.8,0.8-0.8c0,0,0,0,0,0c0.4,0,0.8,0.3,0.8,0.7c0,0,0,0,0,0v4.3h2.6c0.4,0,0.8,0.4,0.8,0.8c0,0.4-0.4,0.8-0.8,0.8
		h-2.6v10c0,1.4,0.4,1.7,1.7,1.7h0.9c0.4,0,0.8,0.4,0.8,0.8C122.5,749.2,122.1,749.6,121.7,749.6z M130.8,750.1c-4.5,0-7-3.7-7-7.9
		c0-4.2,2.5-7.9,7-7.9s7,3.7,7,7.9C137.9,746.4,135.3,750.1,130.8,750.1z M130.8,735.9c-3.3,0-5.4,2.7-5.4,6.3s2.1,6.3,5.4,6.3
		c3.3,0,5.4-2.7,5.4-6.3S134.2,735.9,130.8,735.9z M151.8,750c-2.8,0-5.1-2.2-5.1-5c0,0,0,0,0,0c0-0.4,0.4-0.8,0.8-0.8
		c0.4,0,0.8,0.4,0.8,0.8c0,1.9,1.5,3.4,3.4,3.4c1.9,0,3.5-1.5,3.5-3.4c0,0,0,0,0,0v-14.5c0-0.4,0.3-0.8,0.7-0.8c0,0,0,0,0,0
		c0.4,0,0.8,0.3,0.8,0.8c0,0,0,0,0,0V745C156.8,747.8,154.6,750,151.8,750L151.8,750z M172,749.6c-0.4,0-0.8-0.3-0.8-0.8
		c0,0,0,0,0,0v-0.9c-1.2,1.4-3,2.2-4.8,2.2c-3.5,0-6.3-2.9-6.4-6.4v-8.2c0-0.4,0.4-0.8,0.8-0.8c0.4,0,0.8,0.4,0.8,0.8v8.2
		c0,2.6,2.1,4.8,4.8,4.8c2.6,0,4.8-2.1,4.8-4.8v-8.2c0-0.4,0.4-0.8,0.8-0.8c0.4,0,0.8,0.4,0.8,0.8v13.3
		C172.8,749.2,172.4,749.6,172,749.6C172,749.6,172,749.6,172,749.6L172,749.6z M188.2,749.6c-0.4,0-0.8-0.3-0.8-0.8c0,0,0,0,0,0
		v-8.2c0-2.6-2.1-4.8-4.8-4.8c-2.6,0-4.8,2.1-4.8,4.8v8.2c0,0.4-0.4,0.8-0.8,0.8c-0.4,0-0.8-0.4-0.8-0.8v-13.3
		c0-0.4,0.4-0.8,0.8-0.8c0.4,0,0.8,0.4,0.8,0.8v0.9c2.3-2.6,6.4-2.9,9-0.6c1.4,1.2,2.2,3,2.2,4.8v8.2
		C189,749.2,188.6,749.6,188.2,749.6C188.2,749.6,188.2,749.6,188.2,749.6L188.2,749.6z M204.8,743h-11.6c0.3,3.2,2.3,5.5,5.4,5.5
		c1.6,0,3.1-0.7,4.1-1.9c0.1-0.2,0.4-0.4,0.7-0.4c0.4,0,0.8,0.3,0.9,0.8c0,0.3,0,0.3-0.5,0.9c-1.3,1.5-3.2,2.3-5.1,2.2
		c-4.5,0-7-3.7-7-7.9c0-4.2,2.5-7.9,7-7.9s7,3.7,7,7.9C205.5,742.6,205.2,742.9,204.8,743L204.8,743z M198.5,735.9
		c-3.4,0-5.1,2.6-5.4,5.5h10.8C203.7,738.2,201.6,735.9,198.5,735.9L198.5,735.9z"/>
</g>
<g class="st6">
	<path class="st7" d="M906.7,451.3c-6.1,0-9.5-5-9.5-10.8c0-5.7,3.4-10.7,9.5-10.7s9.5,5,9.5,10.7
		C916.2,446.3,912.8,451.3,906.7,451.3z M906.7,432c-4.5,0-7.4,3.6-7.4,8.5s2.9,8.6,7.4,8.6c4.5,0,7.4-3.6,7.4-8.6
		S911.2,432,906.7,432z M935.5,432l-7.5,17.8c-0.1,0.5-0.6,0.8-1.1,0.9c-0.5,0-0.9-0.4-1.1-0.9l-7.5-17.8c-0.1-0.2-0.1-0.3-0.1-0.5
		c0-0.6,0.5-1,1.1-1c0,0,0,0,0,0c0.4,0,0.8,0.2,1,0.6l6.6,15.6l6.6-15.6c0.2-0.6,0.9-0.8,1.4-0.6c0.4,0.2,0.7,0.5,0.7,0.9
		C935.6,431.7,935.5,431.8,935.5,432L935.5,432z M955.6,441.7h-15.8c0.3,4.3,3.2,7.5,7.3,7.5c2.2,0.1,4.2-0.9,5.6-2.6
		c0.2-0.3,0.5-0.5,0.9-0.5c0.6,0,1.1,0.4,1.2,1c0,0.3,0,0.4-0.7,1.3c-1.8,2-4.3,3.1-7,3c-6.1,0-9.5-5-9.5-10.8
		c0-5.7,3.4-10.7,9.5-10.7s9.5,5.1,9.5,10.7C956.7,441.2,956.2,441.6,955.6,441.7L955.6,441.7z M947.2,432c-4.6,0-7,3.5-7.3,7.5
		h14.6C954.2,435.2,951.3,432,947.2,432z M969.1,432.4c-3.6,0-6.5,2.9-6.5,6.5c0,0,0,0,0,0v10.8c0,0.6-0.5,1.1-1.1,1.1
		s-1.1-0.5-1.1-1.1l0,0v-18c0-0.6,0.5-1.1,1.1-1.1s1.1,0.5,1.1,1.1v1.6c1.6-1.9,4-2.9,6.5-2.9c0.6,0,1.1,0.5,1.1,1.1
		C970.2,431.9,969.7,432.4,969.1,432.4C969.1,432.4,969.1,432.4,969.1,432.4L969.1,432.4z"/>
	<g>
		<path id="I" class="st7" d="M855.5,484.9c-6.1,0-9.5-5-9.5-10.8c0-5.7,3.4-10.7,9.5-10.7s9.5,5,9.5,10.7
			C865.1,479.9,861.6,484.9,855.5,484.9z M855.5,465.6c-4.5,0-7.4,3.6-7.4,8.5s2.9,8.6,7.4,8.6c4.5,0,7.4-3.6,7.4-8.6
			S860,465.6,855.5,465.6z"/>
	</g>
	<g>
		<path id="J" class="st7" d="M885.1,484.3c-0.6,0-1.1-0.4-1.1-1c0,0,0,0,0,0v-11.1c0-3.6-2.9-6.5-6.5-6.5s-6.5,2.9-6.5,6.5l0,0
			v11.1c0,0.6-0.5,1.1-1.1,1.1s-1.1-0.5-1.1-1.1l0,0v-18c0-0.6,0.5-1.1,1.1-1.1s1.1,0.5,1.1,1.1v1.2c3.2-3.6,8.7-3.9,12.2-0.7
			c1.9,1.6,2.9,4,2.9,6.5v11.1C886.1,483.8,885.7,484.3,885.1,484.3C885.1,484.3,885.1,484.3,885.1,484.3L885.1,484.3z"/>
	</g>
	<path class="st7" d="M907.6,475.3h-15.8c0.3,4.3,3.2,7.5,7.3,7.5c2.2,0.1,4.2-0.9,5.6-2.6c0.2-0.3,0.5-0.5,0.9-0.5
		c0.6,0,1.1,0.4,1.2,1c0,0.3,0,0.4-0.7,1.3c-1.8,2-4.3,3.1-7,3c-6.1,0-9.5-5-9.5-10.8c0-5.7,3.4-10.7,9.5-10.7s9.5,5.1,9.5,10.7
		C908.6,474.8,908.2,475.2,907.6,475.3L907.6,475.3z M899.1,465.6c-4.6,0-7,3.5-7.3,7.5h14.6C906.1,468.8,903.3,465.6,899.1,465.6z
		 M945.7,484.3c-0.6,0-1-0.4-1.1-1c0,0,0,0,0-0.1v-12.8c0-2.7-2.1-4.9-4.8-4.9c-2.7,0-4.9,2.1-4.9,4.8v12.8c0,0.6-0.4,1-1,1.1
		c0,0,0,0-0.1,0c-0.6,0-1.1-0.4-1.1-1c0,0,0,0,0,0v-12.8c0-2.7-2.1-4.8-4.8-4.8c-2.7,0-4.8,2.1-4.8,4.8v12.8c0,0.6-0.5,1.1-1.1,1.1
		s-1.1-0.5-1.1-1.1l0,0v-18c0-0.6,0.5-1.1,1.1-1.1s1.1,0.5,1.1,1.1v0.2c1.3-1.2,3-1.9,4.8-1.9c2.4,0,4.6,1.2,5.9,3.2
		c2.1-3.3,6.4-4.2,9.7-2.1c2,1.3,3.2,3.5,3.2,5.8v12.8C946.8,483.8,946.3,484.3,945.7,484.3C945.7,484.3,945.7,484.3,945.7,484.3
		L945.7,484.3z"/>
	<g>
		<path id="K" class="st7" d="M952.2,460.5c-1.2,0-2.2-1-2.2-2.2c0-1.2,1-2.2,2.2-2.2c1.2,0,2.2,1,2.2,2.2c0,0,0,0,0,0
			C954.4,459.5,953.4,460.4,952.2,460.5C952.2,460.5,952.2,460.5,952.2,460.5z M952.2,484.3c-0.6,0-1.1-0.4-1.1-1c0,0,0-0.1,0-0.1
			v-18c0-0.6,0.5-1.1,1-1.1c0,0,0,0,0.1,0c0.6,0,1,0.4,1.1,1c0,0,0,0,0,0.1v18C953.3,483.8,952.8,484.2,952.2,484.3
			C952.3,484.3,952.2,484.3,952.2,484.3z"/>
	</g>
	<g>
		<path id="L" class="st7" d="M961.6,484.5c-2.1-0.1-3.8-1.9-3.8-4v-22.2c0-0.6,0.5-1.1,1.1-1.1s1.1,0.5,1.1,1.1v22.2
			c0,2.4,2.7,1,2.7,2.7C962.8,483.9,962.3,484.4,961.6,484.5L961.6,484.5z"/>
	</g>
	<g>
		<path id="L_1_" class="st7" d="M969.2,484.5c-2.1-0.1-3.8-1.9-3.8-4v-22.2c0-0.6,0.5-1.1,1.1-1.1s1.1,0.5,1.1,1.1v22.2
			c0,2.4,2.7,1,2.7,2.7C970.3,483.9,969.9,484.4,969.2,484.5L969.2,484.5z"/>
	</g>
	<g>
		<path id="K_1_" class="st7" d="M974.1,460.5c-1.2,0-2.2-1-2.2-2.2c0-1.2,1-2.2,2.2-2.2c1.2,0,2.2,1,2.2,2.2c0,0,0,0,0,0
			C976.3,459.5,975.3,460.4,974.1,460.5C974.1,460.5,974.1,460.5,974.1,460.5z M974.1,484.3c-0.6,0-1.1-0.4-1.1-1c0,0,0-0.1,0-0.1
			v-18c0-0.6,0.5-1.1,1-1.1c0,0,0,0,0.1,0c0.6,0,1,0.4,1.1,1c0,0,0,0,0,0.1v18C975.2,483.8,974.8,484.2,974.1,484.3
			C974.2,484.3,974.1,484.3,974.1,484.3z"/>
	</g>
	<g>
		<path id="I_1_" class="st7" d="M988.5,484.9c-6.1,0-9.5-5-9.5-10.8c0-5.7,3.4-10.7,9.5-10.7s9.5,5,9.5,10.7
			C998,479.9,994.6,484.9,988.5,484.9z M988.5,465.6c-4.5,0-7.4,3.6-7.4,8.5s2.9,8.6,7.4,8.6c4.5,0,7.4-3.6,7.4-8.6
			S993,465.6,988.5,465.6z"/>
	</g>
	<g>
		<path id="J_1_" class="st7" d="M1018,484.3c-0.6,0-1.1-0.4-1.1-1c0,0,0,0,0,0v-11.1c0-3.6-2.9-6.5-6.5-6.5s-6.5,2.9-6.5,6.5l0,0
			v11.1c0,0.6-0.5,1.1-1.1,1.1s-1.1-0.5-1.1-1.1l0,0v-18c0-0.6,0.5-1.1,1.1-1.1s1.1,0.5,1.1,1.1v1.2c3.2-3.6,8.7-3.9,12.2-0.7
			c1.9,1.6,2.9,4,2.9,6.5v11.1C1019.1,483.8,1018.6,484.3,1018,484.3C1018,484.3,1018,484.3,1018,484.3L1018,484.3z"/>
	</g>
	<g>
		<path id="M" class="st7" d="M885.1,518.5c-2.9,0.1-5.7-1.2-7.4-3.6v9.8c0,0.6-0.5,1.1-1.1,1.1s-1.1-0.5-1.1-1.1v-26
			c0-0.6,0.5-1.1,1.1-1.1s1.1,0.5,1.1,1.1v1.9c1.7-2.3,4.5-3.7,7.4-3.6c6.1,0,9.5,5,9.5,10.7C894.6,513.5,891.2,518.5,885.1,518.5
			L885.1,518.5z M885.1,499.2c-4.5,0-7.4,3.6-7.4,8.5s2.8,8.6,7.4,8.6s7.4-3.6,7.4-8.6S889.6,499.2,885.1,499.2z"/>
	</g>
	<path class="st7" d="M915.5,508.9h-15.8c0.3,4.3,3.2,7.5,7.3,7.5c2.2,0.1,4.2-0.9,5.6-2.6c0.2-0.3,0.5-0.5,0.9-0.5
		c0.6,0,1.1,0.4,1.2,1c0,0.3,0,0.4-0.7,1.3c-1.8,2-4.3,3.1-7,3c-6.1,0-9.5-5-9.5-10.8c0-5.7,3.4-10.7,9.5-10.7s9.5,5.1,9.5,10.7
		C916.6,508.4,916.1,508.8,915.5,508.9L915.5,508.9z M907.1,499.2c-4.6,0-7,3.5-7.3,7.5h14.6C914.1,502.4,911.2,499.2,907.1,499.2z
		 M929,518.5c-6.1,0-9.5-5-9.5-10.8c0-5.7,3.4-10.7,9.5-10.7s9.5,5,9.5,10.7C938.6,513.5,935.1,518.5,929,518.5z M929,499.2
		c-4.5,0-7.4,3.6-7.4,8.5c0,4.9,2.9,8.6,7.4,8.6c4.5,0,7.4-3.6,7.4-8.6S933.5,499.2,929,499.2z"/>
	<g>
		<path id="M_1_" class="st7" d="M951.9,518.5c-2.9,0.1-5.7-1.2-7.4-3.6v9.8c0,0.6-0.5,1.1-1.1,1.1s-1.1-0.5-1.1-1.1v-26
			c0-0.6,0.5-1.1,1.1-1.1s1.1,0.5,1.1,1.1v1.9c1.7-2.3,4.5-3.7,7.4-3.6c6.1,0,9.5,5,9.5,10.7C961.4,513.5,958,518.5,951.9,518.5
			L951.9,518.5z M951.9,499.2c-4.5,0-7.4,3.6-7.4,8.5s2.8,8.6,7.4,8.6s7.4-3.6,7.4-8.6S956.4,499.2,951.9,499.2z"/>
	</g>
	<path class="st7" d="M968.9,518.1c-2.1-0.1-3.8-1.9-3.8-4v-22.2c0-0.6,0.5-1.1,1.1-1.1s1.1,0.5,1.1,1.1v22.2c0,2.4,2.7,1,2.7,2.7
		C970.1,517.5,969.6,518,968.9,518.1L968.9,518.1z M989.9,508.9h-15.8c0.3,4.3,3.2,7.5,7.3,7.5c2.2,0.1,4.2-0.9,5.6-2.6
		c0.2-0.3,0.5-0.5,0.9-0.5c0.6,0,1.1,0.4,1.2,1c0,0.3,0,0.4-0.7,1.3c-1.8,2-4.3,3.1-7,3c-6.1,0-9.5-5-9.5-10.8
		c0-5.7,3.4-10.7,9.5-10.7s9.5,5.1,9.5,10.7C990.9,508.4,990.4,508.8,989.9,508.9L989.9,508.9z M981.4,499.2c-4.6,0-7,3.5-7.3,7.5
		h14.6C988.4,502.4,985.6,499.2,981.4,499.2z"/>
</g>
<g class="st6">
	<path class="st8" d="M932.8,540v134.5"/>
	<path class="st7" d="M922.8,671.6l10,17.3l10-17.3H922.8L922.8,671.6z"/>
</g>
<g>
	<g>
		<path id="N" class="st5" d="M127.4,286.4c-2.8,0.3-5.4-1.7-5.7-4.5c-0.3-2.8,1.7-5.4,4.5-5.7c2.8-0.3,5.4,1.7,5.7,4.5
			c0,0.2,0,0.4,0,0.6C132.1,284,130.1,286.3,127.4,286.4z M127.4,277.8c-1.9-0.3-3.7,0.9-4.1,2.9c-0.3,1.9,0.9,3.7,2.9,4.1
			c1.9,0.3,3.7-0.9,4.1-2.9c0-0.2,0.1-0.4,0.1-0.6C130.4,279.6,129.1,278,127.4,277.8z M138.4,276.8l-5.6,20.1
			c-0.1,0.4-0.4,0.6-0.7,0.6c-0.5,0-0.9-0.4-0.9-0.8c0-0.1,0-0.2,0-0.2l5.6-20.1c0.1-0.4,0.4-0.6,0.8-0.6c0.5,0,0.9,0.4,0.9,0.9
			C138.4,276.6,138.4,276.7,138.4,276.8L138.4,276.8z M142,297c-2.8,0.3-5.4-1.8-5.7-4.6c-0.3-2.8,1.8-5.4,4.6-5.7
			c2.8-0.3,5.4,1.8,5.7,4.6c0,0.2,0,0.3,0,0.5C146.8,294.5,144.7,296.8,142,297z M142,288.4c-1.9-0.3-3.7,1-4,2.9
			c-0.3,1.9,1,3.7,2.9,4c1.9,0.3,3.7-1,4-2.9c0-0.2,0-0.4,0-0.6C145.1,290.1,143.8,288.5,142,288.4z"/>
	</g>
	<g>
		<path id="N_1_" class="st5" d="M127.4,681.1c-2.8,0.3-5.4-1.7-5.7-4.5c-0.3-2.8,1.7-5.4,4.5-5.7c2.8-0.3,5.4,1.7,5.7,4.5
			c0,0.2,0,0.4,0,0.6C132.1,678.6,130.1,680.9,127.4,681.1z M127.4,672.5c-1.9-0.3-3.7,0.9-4.1,2.9c-0.3,1.9,0.9,3.7,2.9,4.1
			c1.9,0.3,3.7-0.9,4.1-2.9c0-0.2,0.1-0.4,0.1-0.6C130.4,674.2,129.1,672.7,127.4,672.5z M138.4,671.4l-5.6,20.1
			c-0.1,0.4-0.4,0.6-0.7,0.6c-0.5,0-0.9-0.4-0.9-0.8c0-0.1,0-0.2,0-0.2l5.6-20.1c0.1-0.4,0.4-0.6,0.8-0.6c0.5,0,0.9,0.4,0.9,0.9
			C138.4,671.2,138.4,671.3,138.4,671.4L138.4,671.4z M142,691.6c-2.8,0.3-5.4-1.8-5.7-4.6c-0.3-2.8,1.8-5.4,4.6-5.7
			c2.8-0.3,5.4,1.8,5.7,4.6c0,0.2,0,0.3,0,0.5C146.8,689.2,144.7,691.4,142,691.6z M142,683c-1.9-0.3-3.7,1-4,2.9
			c-0.3,1.9,1,3.7,2.9,4s3.7-1,4-2.9c0-0.2,0-0.4,0-0.6C145.1,684.7,143.8,683.2,142,683z"/>
	</g>
</g>
<g class="st9">
	<path class="st7" d="M42.3,1046c-2,0.1-4-0.7-5.5-2c0,0.8-0.6,1.4-1.3,1.4c0,0-0.1,0-0.1,0c-0.7,0-1.4-0.5-1.4-1.3c0,0,0-0.1,0-0.1
		v-20.9c0-0.8,0.7-1.4,1.5-1.4c0.8,0,1.4,0.6,1.4,1.4v6.2c1.5-1.5,3.4-2.2,5.5-2.2c5.4,0,8.4,4.4,8.4,9.4
		C50.7,1041.6,47.7,1046,42.3,1046z M42.3,1030c-3.3,0-5.5,2.6-5.5,6.6c0,4,2.2,6.6,5.5,6.6s5.5-2.6,5.5-6.6
		C47.8,1032.6,45.7,1030,42.3,1030z M67.9,1038.1H55.5c0.5,3.1,2.5,5.1,5.4,5.1c1.5,0.1,3-0.6,4-1.7c0.2-0.3,0.6-0.5,1-0.5
		c0.8,0,1.5,0.7,1.5,1.5c0,0.4-0.1,0.7-0.8,1.4c-1.5,1.5-3.6,2.3-5.7,2.2c-5.4,0-8.4-4.4-8.4-9.4c0-5,3-9.4,8.4-9.4
		c5.4,0,8.3,4.4,8.3,9.4C69.3,1037.4,68.7,1038.1,67.9,1038.1C67.9,1038.1,67.9,1038.1,67.9,1038.1L67.9,1038.1z M60.9,1030
		c-3.1,0-5,2.3-5.4,5.2h10.8C65.9,1032,63.9,1030,60.9,1030L60.9,1030z M88,1045.5c-1.3,0-2.4-0.7-3-1.9c-1.5,1.6-3.6,2.5-5.9,2.5
		c-5.4,0-8.4-4.5-8.4-9.4s3-9.4,8.4-9.4c2.1-0.1,4.1,0.7,5.5,2.2v-0.1c-0.1-0.8,0.5-1.4,1.2-1.5c0.1,0,0.1,0,0.2,0
		c0.7-0.1,1.4,0.5,1.5,1.2c0,0.1,0,0.1,0,0.2v12.9c0,0.3,0.2,0.6,0.5,0.6c0.8,0,1.4,0.6,1.5,1.4C89.5,1044.8,88.9,1045.5,88,1045.5
		C88.1,1045.5,88,1045.5,88,1045.5L88,1045.5z M79.2,1030c-3.3,0-5.5,2.6-5.5,6.6c0,4,2.2,6.6,5.5,6.6c3.4,0,5.5-2.6,5.5-6.6
		C84.7,1032.6,82.5,1030,79.2,1030z"/>
	<g>
		<path id="O" class="st7" d="M104.7,1045.5c-0.7,0-1.3-0.4-1.4-1.1c-1.4,1.1-3.1,1.7-4.8,1.7c-4.2,0-7.6-3.4-7.6-7.6v-9.2
			c0-0.8,0.6-1.4,1.4-1.5c0.8,0,1.4,0.6,1.5,1.4l0,0v9.3c0,2.6,2.1,4.8,4.8,4.8s4.8-2.1,4.8-4.8l0,0v-9.2c-0.1-0.7,0.5-1.4,1.2-1.5
			c0.1,0,0.1,0,0.2,0c0.8,0,1.4,0.5,1.4,1.3c0,0,0,0.1,0,0.1v14.9c0,0.7-0.5,1.4-1.3,1.4C104.8,1045.5,104.8,1045.5,104.7,1045.5
			L104.7,1045.5z"/>
	</g>
	<path class="st7" d="M115.2,1045.5h-0.6c-3.2,0-4.4-1.7-4.4-4.4v-10.5h-1c-0.8,0-1.4-0.6-1.5-1.4s0.6-1.4,1.4-1.5c0,0,0,0,0.1,0h1
		v-4.6c0-0.7,0.6-1.4,1.3-1.4c0,0,0.1,0,0.1,0c0.7,0,1.4,0.5,1.4,1.3c0,0,0,0.1,0,0.1v4.6h2.1c0.8,0,1.4,0.6,1.4,1.4c0,0,0,0,0,0
		c0,0.7-0.5,1.4-1.3,1.4c0,0-0.1,0-0.1,0H113v10.8c0,0.9,0.3,1.3,1.3,1.3h0.8c0.8,0,1.4,0.6,1.4,1.3c0,0,0,0.1,0,0.1
		c0,0.7-0.5,1.4-1.3,1.4C115.2,1045.5,115.2,1045.5,115.2,1045.5L115.2,1045.5z M119.8,1025.1c-1.3,0-2.4-1.1-2.4-2.4
		c0-1.3,1.1-2.4,2.4-2.4c1.3,0,2.4,1.1,2.4,2.4C122.2,1024,121.1,1025.1,119.8,1025.1C119.8,1025.1,119.8,1025.1,119.8,1025.1z
		 M119.8,1045.5c-0.8,0-1.4-0.6-1.5-1.3c0,0,0,0,0-0.1v-14.9c0-0.8,0.6-1.4,1.4-1.4c0,0,0.1,0,0.1,0c0.8,0,1.4,0.6,1.4,1.3
		c0,0,0,0.1,0,0.1v14.9c0,0.7-0.5,1.4-1.3,1.4C119.8,1045.5,119.8,1045.5,119.8,1045.5z M130.1,1030.6h-1.5v13.4
		c0,0.8-0.6,1.4-1.3,1.4c0,0-0.1,0-0.1,0c-0.7,0-1.4-0.5-1.4-1.3c0,0,0-0.1,0-0.1v-13.4h-1.4c-0.8,0-1.4-0.7-1.4-1.5
		c0-0.8,0.6-1.4,1.4-1.4h1.4v-2.3c0-2.1,1.7-3.8,3.8-3.8c0,0,0,0,0,0c0.8,0,1.4,0.6,1.5,1.4c0,0.8-0.6,1.4-1.4,1.5c0,0,0,0-0.1,0
		c-0.5,0-0.9,0.4-1,0.9c0,0,0,0,0,0v2.3h1.5c0.8,0,1.4,0.6,1.5,1.4C131.6,1029.9,131,1030.6,130.1,1030.6
		C130.2,1030.6,130.2,1030.6,130.1,1030.6L130.1,1030.6z"/>
	<g>
		<path id="O_1_" class="st7" d="M146.8,1045.5c-0.7,0-1.3-0.4-1.4-1.1c-1.4,1.1-3.1,1.7-4.8,1.7c-4.2,0-7.6-3.4-7.6-7.6v-9.2
			c0-0.8,0.6-1.4,1.4-1.5c0.8,0,1.4,0.6,1.5,1.4l0,0v9.3c0,2.6,2.1,4.8,4.8,4.8s4.8-2.1,4.8-4.8l0,0v-9.2c-0.1-0.7,0.5-1.4,1.2-1.5
			c0.1,0,0.1,0,0.2,0c0.8,0,1.4,0.5,1.4,1.3c0,0,0,0.1,0,0.1v14.9c0,0.7-0.5,1.4-1.3,1.4C146.9,1045.5,146.8,1045.5,146.8,1045.5
			L146.8,1045.5z"/>
	</g>
	<path class="st7" d="M154.7,1045.5c-1.9,0-3.3-1.5-3.3-3.4v-19c0-0.8,0.7-1.4,1.5-1.4c0.8,0,1.4,0.6,1.4,1.4v19
		c0,0.3,0.2,0.5,0.5,0.6c0.8,0,1.4,0.6,1.5,1.4C156.2,1044.9,155.6,1045.5,154.7,1045.5C154.8,1045.5,154.8,1045.5,154.7,1045.5z
		 M170.1,1045.5v-1.3c1.9-0.2,2-0.4,2-3.2v-6.7c0-2.8-1.2-4-3.1-4c-1.3,0.1-2.5,0.6-3.5,1.5v9.5c0,2.5,0.2,2.7,2.1,2.9v1.3h-9v-1.3
		c2.3-0.3,2.5-0.4,2.5-3v-8.2c0-2.4-0.3-2.6-2.2-2.9v-1.2c2.3-0.3,4.5-0.8,6.7-1.5l-0.1,2.9l2.6-1.7c0.9-0.7,2-1.1,3.2-1.1
		c3.2,0,5.2,2.3,5.2,6.3v7.5c0,2.5,0.2,2.7,2.3,2.9v1.3L170.1,1045.5z M194,1041.8c-2.5,3.4-5.5,4.2-7,4.2c-5.1,0-8.1-3.9-8.1-8.6
		c0-2.6,1-5.2,2.8-7.1c1.6-1.7,3.8-2.7,6.1-2.8c3.5,0,6.3,2.8,6.4,6.3c0,0.7-0.1,1.3-0.6,1.4c-0.8,0.2-6.2,0.5-10.3,0.6
		c0.1,4.6,2.7,6.7,5.6,6.7c1.7,0,3.3-0.7,4.5-1.9L194,1041.8z M186.9,1029.1c-1.7,0-3.2,1.8-3.5,5l5.5-0.1c0.6,0,0.8-0.1,0.8-0.8
		C189.8,1031.1,188.7,1029.1,186.9,1029.1L186.9,1029.1z M221.2,1029.2c-1.9,0.3-2.2,0.6-3.1,2.8c-1.3,3.5-3.1,8.5-4.9,13.9h-1.5
		l-4.6-11.5l-4.6,11.5H201l-4.7-14.2c-0.7-2-0.9-2.3-2.9-2.5v-1.2h9.4v1.2c-2.3,0.3-2.5,0.7-2.1,2.1l2.5,8.2c1.5-3.7,3-7.6,4.3-11.4
		h1.5c1.4,3.8,3,7.7,4.6,11.6c0.7-2.1,2.1-6,2.6-8.1c0.4-1.7,0-2.1-2.8-2.4v-1.2h7.7L221.2,1029.2z M230.6,1033
		c-0.9-2.6-2.2-4-4.2-4c-1.2,0-2.2,0.9-2.2,2.1c0,0.1,0,0.1,0,0.2c0,1.5,1,2.3,3.2,3.2c3.3,1.5,5.3,2.8,5.3,5.7
		c0,3.8-3.6,5.8-6.9,5.8c-1.7,0-3.4-0.4-4.9-1.2l-0.7-4.9l1.3-0.2c0.8,2.5,2.3,4.8,5,4.8c1.2,0.1,2.3-0.8,2.4-2c0-0.1,0-0.2,0-0.3
		c0-1.4-0.8-2.3-3.1-3.5c-2.7-1.3-5.1-2.6-5.1-5.8c0-3,2.5-5.4,6.6-5.4c1.4,0,2.8,0.2,4.1,0.6l0.6,4.6L230.6,1033z"/>
</g>
<g class="st10">
	<path class="st7" d="M940,1046.4c-1.2,0-3.2-0.4-3.9-1.6c-0.1-0.1-0.1-0.2-0.1-0.3c0-0.3,0.2-0.6,0.5-0.6c0.2,0,0.4,0.1,0.5,0.3
		c0.8,0.8,1.9,1.2,3,1.1c1.9,0,2.9-0.6,2.9-1.9c0-3-6.6-1.4-6.6-5.4c0-2,2-2.8,3.8-2.8c1.2,0,2.5,0.4,3.4,1.2
		c0.1,0.1,0.2,0.2,0.2,0.4c0,0.3-0.3,0.6-0.6,0.6c-0.1,0-0.3-0.1-0.4-0.2c-0.7-0.6-1.7-0.9-2.6-0.8c-1.8,0-2.7,0.7-2.7,1.7
		c0,2.8,6.6,1.3,6.6,5.4C944.1,1045.6,942.1,1046.4,940,1046.4L940,1046.4z M950.8,1046.3c-3.2,0-5-2.6-5-5.7c0-3,1.8-5.6,5-5.6
		s5,2.6,5,5.6C955.8,1043.7,954,1046.3,950.8,1046.3z M950.8,1036.2c-2.4,0-3.9,1.9-3.9,4.5s1.5,4.5,3.9,4.5c2.4,0,3.9-1.9,3.9-4.5
		S953.1,1036.2,950.8,1036.2z M966.5,1046c-0.3,0-0.6-0.2-0.6-0.5c0,0,0,0,0,0v-0.6c-0.9,1-2.1,1.6-3.4,1.5c-2.5,0-4.5-2.1-4.6-4.6
		v-5.8c0-0.3,0.3-0.6,0.6-0.6s0.6,0.3,0.6,0.6v5.8c0,1.9,1.5,3.4,3.4,3.4c1.9,0,3.4-1.5,3.4-3.4c0,0,0,0,0,0v-5.8
		c0-0.3,0.3-0.6,0.6-0.6s0.6,0.3,0.6,0.6v9.5C967.1,1045.7,966.9,1046,966.5,1046C966.5,1046,966.5,1046,966.5,1046L966.5,1046z
		 M974.5,1036.3c-1.9,0-3.4,1.5-3.4,3.4c0,0,0,0,0,0v5.7c0,0.3-0.3,0.6-0.6,0.6s-0.6-0.3-0.6-0.6v-9.5c0-0.3,0.3-0.6,0.6-0.6
		s0.6,0.3,0.6,0.6v0.8c0.9-1,2.1-1.5,3.4-1.5c0.3,0,0.6,0.2,0.6,0.5S974.9,1036.3,974.5,1036.3
		C974.5,1036.3,974.5,1036.3,974.5,1036.3L974.5,1036.3z M984.7,1044.8c-0.9,1-2.2,1.6-3.6,1.5c-3.2,0-5-2.6-5-5.7
		c0-3,1.8-5.6,5-5.6c1.4,0,2.7,0.5,3.6,1.5c0.1,0.1,0.2,0.2,0.2,0.4c0,0.3-0.3,0.6-0.6,0.6c-0.2,0-0.3-0.1-0.4-0.2
		c-0.7-0.8-1.7-1.2-2.7-1.2c-2.4,0-3.9,1.9-3.9,4.5s1.5,4.5,3.9,4.5c1,0,2-0.4,2.7-1.2c0.1-0.1,0.3-0.2,0.4-0.2
		c0.3,0,0.6,0.3,0.6,0.6C984.8,1044.6,984.8,1044.7,984.7,1044.8L984.7,1044.8z M996.3,1041.2H988c0.2,2.3,1.7,3.9,3.8,3.9
		c1.1,0,2.2-0.5,2.9-1.4c0.1-0.2,0.3-0.3,0.5-0.3c0.3,0,0.6,0.2,0.6,0.5c0,0.2,0,0.2-0.4,0.7c-0.9,1-2.3,1.6-3.7,1.6
		c-3.2,0-5-2.6-5-5.7c0-3,1.8-5.6,5-5.6s5,2.7,5,5.6C996.8,1041,996.6,1041.2,996.3,1041.2L996.3,1041.2z M991.8,1036.2
		c-2.4,0-3.7,1.8-3.8,3.9h7.7C995.5,1037.8,994,1036.2,991.8,1036.2z M1000.2,1039.4c-0.6,0-1.1-0.5-1.1-1.1s0.5-1.1,1.1-1.1l0,0
		c0.6,0,1.1,0.5,1.1,1.1S1000.9,1039.4,1000.2,1039.4z M1000.2,1046c-0.6,0-1.1-0.5-1.1-1.1s0.5-1.1,1.1-1.1l0,0
		c0.6,0,1.1,0.5,1.1,1.1S1000.9,1046,1000.2,1046z"/>
	<g>
		<path id="P" class="st7" d="M1015.4,1046h-5.8c-0.3,0-0.6-0.3-0.6-0.6v-13.1c0-0.3,0.2-0.5,0.4-0.6c0,0,0.1,0,0.1,0h5.4
			c2,0,3.6,1.6,3.6,3.6c0,1.1-0.5,2.2-1.4,2.9c2.1,1,3,3.4,2,5.4C1018.4,1045.1,1017,1046,1015.4,1046z M1014.9,1032.9h-4.8v4.9h4.8
			c1.4,0,2.5-1.1,2.5-2.5C1017.4,1034,1016.3,1032.9,1014.9,1032.9L1014.9,1032.9z M1015.4,1038.9h-5.2v5.9h5.2c1.6,0,3-1.3,3-2.9
			c0-1.6-1.3-3-2.9-3C1015.4,1038.9,1015.4,1038.9,1015.4,1038.9L1015.4,1038.9z"/>
	</g>
	<g>
		<path id="P_1_" class="st7" d="M1028.2,1046h-5.8c-0.3,0-0.6-0.3-0.6-0.6v-13.1c0-0.3,0.2-0.5,0.4-0.6c0,0,0.1,0,0.1,0h5.4
			c2,0,3.6,1.6,3.6,3.6c0,1.1-0.5,2.2-1.4,2.9c2.1,1,3,3.4,2,5.4C1031.3,1045.1,1029.8,1046,1028.2,1046z M1027.8,1032.9h-4.8v4.9
			h4.8c1.4,0,2.5-1.1,2.5-2.5C1030.3,1034,1029.2,1032.9,1027.8,1032.9L1027.8,1032.9z M1028.2,1038.9h-5.2v5.9h5.2
			c1.6,0,3-1.3,3-2.9c0-1.6-1.3-3-2.9-3C1028.3,1038.9,1028.3,1038.9,1028.2,1038.9L1028.2,1038.9z"/>
	</g>
	<path class="st7" d="M1044.7,1044.1c-1,1.4-2.7,2.3-4.5,2.2c-4.3,0-5.8-3.6-5.8-7.5c0-3.9,1.5-7.5,5.8-7.5c1.8-0.1,3.4,0.7,4.4,2.2
		c0.1,0.1,0.1,0.2,0.1,0.3c0,0.3-0.3,0.6-0.6,0.6c-0.2,0-0.3-0.1-0.4-0.2c-0.8-1.1-2.1-1.8-3.5-1.7c-3.3,0-4.7,2.6-4.7,6.3
		c0,3.7,1.4,6.3,4.7,6.3c1.4,0.1,2.7-0.6,3.5-1.7c0.1-0.2,0.3-0.3,0.4-0.3c0.3,0,0.6,0.3,0.6,0.6
		C1044.8,1043.9,1044.8,1044,1044.7,1044.1L1044.7,1044.1z"/>
</g>
<g class="st11">
	<path class="st7" d="M40.3,175.5c-3.3,0-6-3-6-6.7s2.7-6.6,6-6.6c3.3,0,6,3,6,6.6S43.6,175.5,40.3,175.5L40.3,175.5z M40.3,164.3
		c-1.9,0-3.8,1.8-3.8,4.5s1.9,4.5,3.8,4.5s3.8-1.8,3.8-4.5S42.2,164.3,40.3,164.3z M54.7,162.9l-7.3,26.2c-0.2,0.5-0.5,0.8-1,0.8
		c-0.6,0-1.1-0.5-1.2-1.1c0-0.1,0-0.2,0-0.3l7.3-26.2c0.1-0.5,0.5-0.8,1-0.8c0.6,0,1.1,0.5,1.1,1.1
		C54.7,162.7,54.7,162.8,54.7,162.9L54.7,162.9z M59.4,189.3c-3.3,0-6-3-6-6.7c0-3.6,2.7-6.6,6-6.6c3.3,0,6,3,6,6.6
		C65.4,186.3,62.7,189.3,59.4,189.3L59.4,189.3z M59.4,178.1c-1.9,0-3.8,1.8-3.8,4.5c0,2.7,1.9,4.5,3.8,4.5c1.9,0,3.8-1.8,3.8-4.5
		C63.2,179.9,61.3,178.1,59.4,178.1z M84,190c-2.3,0-6.1-0.8-7.4-3c-0.1-0.2-0.2-0.4-0.2-0.6c-0.1-0.6,0.4-1.1,0.9-1.1
		c0.4,0,0.8,0.2,1,0.5c1.4,1.7,3.8,2,5.7,2c3.7,0,5.5-1.2,5.5-3.7c0-5.7-12.5-2.7-12.5-10.3c0-3.8,3.8-5.3,7.3-5.3
		c2,0,5,0.7,6.5,2.2c0.2,0.2,0.3,0.4,0.3,0.7c0,0.6-0.6,1.1-1.2,1.1c-0.3,0-0.5-0.1-0.7-0.3c-1.4-1.1-3.2-1.7-5-1.6
		c-3.3,0-5.1,1.3-5.1,3.2c0,5.3,12.5,2.5,12.5,10.3C91.8,188.5,88,190,84,190L84,190z M101.9,189.3h-1.2c-3,0-4.5-1.5-4.5-4.4v-13.6
		h-1.9c-0.6,0-1.1-0.5-1-1.1c0-0.6,0.5-1,1-1h1.9v-5.8c0-0.6,0.5-1.1,1.1-1.1c0,0,0,0,0,0c0.6,0,1,0.4,1.1,1c0,0,0,0,0,0.1v5.8h3.5
		c0.6,0,1.1,0.5,1,1.1c0,0.6-0.5,1-1,1h-3.5v13.6c0,1.9,0.5,2.3,2.3,2.3h1.2c0.6,0,1.1,0.5,1.1,1.1
		C103,188.8,102.5,189.3,101.9,189.3L101.9,189.3z"/>
	<g>
		<path id="Q" class="st7" d="M114.4,189.9c-6.1,0-9.5-5-9.5-10.8c0-5.7,3.4-10.7,9.5-10.7s9.5,5,9.5,10.7
			C123.9,184.9,120.5,189.9,114.4,189.9z M114.4,170.6c-4.5,0-7.4,3.6-7.4,8.6s2.9,8.6,7.4,8.6c4.5,0,7.4-3.6,7.4-8.6
			S118.9,170.6,114.4,170.6z"/>
	</g>
	<g>
		<path id="R" class="st7" d="M137.2,189.9c-2.9,0.1-5.7-1.2-7.4-3.6v9.8c0,0.6-0.5,1.1-1.1,1.1c-0.6,0-1.1-0.5-1.1-1.1v-26
			c0-0.6,0.5-1.1,1.1-1.1c0.6,0,1.1,0.5,1.1,1.1v1.9c1.7-2.3,4.5-3.7,7.4-3.6c6.1,0,9.5,5,9.5,10.7
			C146.7,184.9,143.3,189.9,137.2,189.9L137.2,189.9z M137.2,170.6c-4.5,0-7.4,3.6-7.4,8.6s2.9,8.6,7.4,8.6s7.4-3.6,7.4-8.6
			S141.7,170.6,137.2,170.6z"/>
	</g>
	<g>
		<path id="R_1_" class="st7" d="M160,189.9c-2.9,0.1-5.7-1.2-7.4-3.6v9.8c0,0.6-0.5,1.1-1.1,1.1c-0.6,0-1.1-0.5-1.1-1.1v-26
			c0-0.6,0.5-1.1,1.1-1.1c0.6,0,1.1,0.5,1.1,1.1v1.9c1.7-2.3,4.5-3.7,7.4-3.6c6.1,0,9.5,5,9.5,10.7
			C169.6,184.9,166.2,189.9,160,189.9L160,189.9z M160,170.6c-4.5,0-7.4,3.6-7.4,8.6s2.9,8.6,7.4,8.6s7.4-3.6,7.4-8.6
			S164.6,170.6,160,170.6z"/>
	</g>
	<g>
		<path id="S" class="st7" d="M174.4,165.4c-1.2,0-2.2-1-2.2-2.2c0-1.2,1-2.2,2.2-2.2c1.2,0,2.2,1,2.2,2.2c0,0,0,0,0,0
			C176.6,164.5,175.7,165.4,174.4,165.4C174.5,165.4,174.5,165.4,174.4,165.4z M174.4,189.3c-0.6,0-1.1-0.4-1.1-1c0,0,0-0.1,0-0.1
			v-18c0-0.6,0.5-1.1,1-1.1c0,0,0,0,0.1,0c0.6,0,1,0.4,1.1,1c0,0,0,0,0,0.1v18C175.5,188.8,175.1,189.2,174.4,189.3
			C174.5,189.3,174.5,189.3,174.4,189.3z"/>
	</g>
	<path class="st7" d="M196.4,189.3c-0.6,0-1.1-0.4-1.1-1c0,0,0,0,0,0v-11.1c0-3.6-2.9-6.5-6.5-6.5c-3.6,0-6.5,2.9-6.5,6.5v11.1
		c0,0.6-0.5,1.1-1.1,1.1c-0.6,0-1.1-0.5-1.1-1.1v-18c0-0.6,0.5-1.1,1.1-1.1c0.6,0,1.1,0.5,1.1,1.1v1.2c3.2-3.6,8.6-3.9,12.2-0.8
		c1.9,1.6,2.9,4,2.9,6.5v11.1C197.5,188.8,197,189.3,196.4,189.3C196.4,189.3,196.4,189.3,196.4,189.3z"/>
	<g>
		<path id="T" class="st7" d="M210.4,197.9c-3.2,0-7.8-1.2-7.8-2.6c0-0.6,0.5-1.2,1.1-1.2c0.7,0.2,1.4,0.6,2,0.9
			c1.5,0.5,3.1,0.7,4.7,0.7c4.9,0,7.4-2.4,7.4-7.1V186c-1.8,2.2-4.5,3.4-7.4,3.2c-6,0-9.5-4.3-9.5-10.1c0-5.7,3.4-10.7,9.5-10.7
			c2.9-0.1,5.7,1.2,7.4,3.6v-1.8c0-0.6,0.5-1.1,1.1-1.1c0.6,0,1.1,0.5,1.1,1.1l0,0v18.5C220,194.7,216.4,197.9,210.4,197.9
			L210.4,197.9z M210.4,170.6c-4.5,0-7.4,3.6-7.4,8.6c0,4.9,2.7,7.9,7.4,7.9s7.4-3,7.4-7.9C217.8,174.2,214.9,170.6,210.4,170.6z"/>
	</g>
	<path class="st7" d="M239.5,190c-2.3,0-6.1-0.8-7.4-3c-0.1-0.2-0.2-0.4-0.2-0.6c-0.1-0.6,0.4-1.1,0.9-1.1c0.4,0,0.8,0.2,1,0.5
		c1.4,1.7,3.8,2,5.7,2c3.7,0,5.5-1.2,5.5-3.7c0-5.7-12.5-2.7-12.5-10.3c0-3.8,3.8-5.3,7.3-5.3c2,0,5,0.7,6.5,2.2
		c0.2,0.2,0.3,0.4,0.3,0.7c0,0.6-0.6,1.1-1.2,1.1c-0.3,0-0.5-0.1-0.7-0.3c-1.4-1.1-3.2-1.7-5-1.6c-3.3,0-5.1,1.3-5.1,3.2
		c0,5.3,12.5,2.5,12.5,10.3C247.2,188.5,243.4,190,239.5,190L239.5,190z M275.2,189.3c-0.6,0-1-0.4-1.1-1c0,0,0,0,0-0.1v-12.8
		c0-2.7-2.1-4.9-4.8-4.9c-2.7,0-4.9,2.1-4.9,4.8l0,0v12.8c0,0.6-0.4,1-1,1.1c0,0,0,0-0.1,0c-0.6,0-1.1-0.4-1.1-1c0,0,0,0,0,0v-12.8
		c0-2.7-2.1-4.8-4.8-4.8c-2.7,0-4.8,2.1-4.8,4.8v12.8c0,0.6-0.5,1.1-1.1,1.1c-0.6,0-1.1-0.5-1.1-1.1v-18c0-0.6,0.5-1.1,1.1-1.1
		c0.6,0,1.1,0.5,1.1,1.1v0.2c1.3-1.2,3-1.9,4.8-1.9c2.4,0,4.6,1.2,5.9,3.2c2.1-3.3,6.4-4.2,9.7-2.1c2,1.3,3.2,3.5,3.2,5.8v12.8
		C276.3,188.8,275.8,189.3,275.2,189.3C275.2,189.3,275.2,189.3,275.2,189.3L275.2,189.3z"/>
	<g>
		<path id="Q_1_" class="st7" d="M289.2,189.9c-6.1,0-9.5-5-9.5-10.8c0-5.7,3.4-10.7,9.5-10.7c6.1,0,9.5,5,9.5,10.7
			C298.8,184.9,295.4,189.9,289.2,189.9z M289.2,170.6c-4.5,0-7.4,3.6-7.4,8.6s2.9,8.6,7.4,8.6c4.5,0,7.4-3.6,7.4-8.6
			S293.8,170.6,289.2,170.6z"/>
	</g>
	<path class="st7" d="M316.8,170.9l-6.5,6.5l6.5,10.1c0.1,0.2,0.2,0.4,0.2,0.6c-0.1,0.6-0.6,1-1.1,1c-0.4,0-0.7-0.2-0.9-0.5
		l-6.2-9.7l-3.9,3.9v5.2c0,0.6-0.5,1.1-1.1,1.1c-0.6,0-1.1-0.5-1.1-1.1v-24.9c0-0.6,0.5-1.1,1.1-1.1c0.6,0,1.1,0.5,1.1,1.1v16.6
		l10.5-10.5c0.2-0.2,0.5-0.3,0.8-0.3c0.6,0,1.1,0.5,1.1,1.1C317.1,170.4,317,170.7,316.8,170.9L316.8,170.9z"/>
	<g>
		<path id="S_1_" class="st7" d="M321.1,165.4c-1.2,0-2.2-1-2.2-2.2c0-1.2,1-2.2,2.2-2.2c1.2,0,2.2,1,2.2,2.2c0,0,0,0,0,0
			C323.3,164.5,322.4,165.4,321.1,165.4C321.2,165.4,321.1,165.4,321.1,165.4z M321.1,189.3c-0.6,0-1.1-0.4-1.1-1c0,0,0-0.1,0-0.1
			v-18c0-0.6,0.5-1.1,1-1.1c0,0,0,0,0.1,0c0.6,0,1,0.4,1.1,1c0,0,0,0,0,0.1v18C322.2,188.8,321.8,189.2,321.1,189.3
			C321.2,189.3,321.2,189.3,321.1,189.3z"/>
	</g>
	<path class="st7" d="M343.1,189.3c-0.6,0-1.1-0.4-1.1-1c0,0,0,0,0,0v-11.1c0-3.6-2.9-6.5-6.5-6.5c-3.6,0-6.5,2.9-6.5,6.5v11.1
		c0,0.6-0.5,1.1-1.1,1.1c-0.6,0-1.1-0.5-1.1-1.1v-18c0-0.6,0.5-1.1,1.1-1.1c0.6,0,1.1,0.5,1.1,1.1v1.2c3.2-3.6,8.6-3.9,12.2-0.8
		c1.9,1.6,2.9,4,2.9,6.5v11.1C344.2,188.8,343.7,189.3,343.1,189.3C343.1,189.3,343.1,189.3,343.1,189.3L343.1,189.3z"/>
	<g>
		<path id="T_1_" class="st7" d="M357.1,197.9c-3.2,0-7.8-1.2-7.8-2.6c0-0.6,0.5-1.2,1.1-1.2c0.7,0.2,1.4,0.6,2,0.9
			c1.5,0.5,3.1,0.7,4.7,0.7c4.9,0,7.4-2.4,7.4-7.1V186c-1.8,2.2-4.5,3.4-7.4,3.2c-6,0-9.5-4.3-9.5-10.1c0-5.7,3.4-10.7,9.5-10.7
			c2.9-0.1,5.7,1.2,7.4,3.6v-1.8c0-0.6,0.5-1.1,1.1-1.1c0.6,0,1.1,0.5,1.1,1.1l0,0v18.5C366.6,194.7,363,197.9,357.1,197.9
			L357.1,197.9z M357.1,170.6c-4.5,0-7.4,3.6-7.4,8.6c0,4.9,2.7,7.9,7.4,7.9s7.4-3,7.4-7.9C364.5,174.2,361.6,170.6,357.1,170.6z"/>
	</g>
	<path class="st7" d="M372.8,192.6c-0.2,0.1-0.4,0.2-0.6,0.2c-0.6,0-1-0.5-1-1.1c0,0,0,0,0,0c0-1.1,1.6-1.2,1.9-2.4
		c-1.2-0.1-2.1-1.1-2-2.3c0.1-1.1,1-2,2.2-2c1.9,0,2.3,1.9,2.3,3.1C375.5,189.9,374.5,191.7,372.8,192.6L372.8,192.6z"/>
	<g>
		<path id="R_2_" class="st7" d="M398.3,189.9c-2.9,0.1-5.7-1.2-7.4-3.6v9.8c0,0.6-0.5,1.1-1.1,1.1s-1.1-0.5-1.1-1.1v-26
			c0-0.6,0.5-1.1,1.1-1.1s1.1,0.5,1.1,1.1v1.9c1.7-2.3,4.5-3.7,7.4-3.6c6.1,0,9.5,5,9.5,10.7C407.8,184.9,404.4,189.9,398.3,189.9
			L398.3,189.9z M398.3,170.6c-4.5,0-7.4,3.6-7.4,8.6s2.8,8.6,7.4,8.6c4.5,0,7.4-3.6,7.4-8.6S402.8,170.6,398.3,170.6z"/>
	</g>
	<path class="st7" d="M428.7,180.2h-15.8c0.3,4.3,3.2,7.5,7.3,7.5c2.2,0.1,4.2-0.9,5.6-2.6c0.2-0.3,0.5-0.5,0.9-0.5
		c0.6,0,1.1,0.4,1.2,1c0,0.3,0,0.4-0.7,1.3c-1.8,2-4.3,3.1-7,3c-6.1,0-9.5-5-9.5-10.8c0-5.7,3.4-10.7,9.5-10.7s9.5,5.1,9.5,10.7
		C429.7,179.7,429.3,180.2,428.7,180.2L428.7,180.2z M420.2,170.6c-4.6,0-7,3.5-7.3,7.5h14.6C427.2,173.8,424.4,170.6,420.2,170.6
		L420.2,170.6z"/>
	<g>
		<path id="U" class="st7" d="M442.2,170.9c-3.6,0-6.5,2.9-6.5,6.5c0,0,0,0,0,0v10.8c0,0.6-0.5,1.1-1.1,1.1c-0.6,0-1.1-0.5-1.1-1.1
			v-18c0-0.6,0.5-1.1,1.1-1.1c0.6,0,1.1,0.5,1.1,1.1v1.6c1.6-1.9,4-2.9,6.5-2.9c0.6,0,1.1,0.5,1.1,1
			C443.3,170.4,442.9,170.9,442.2,170.9C442.2,170.9,442.2,170.9,442.2,170.9L442.2,170.9z"/>
	</g>
	<path class="st7" d="M470.2,170.6L459.9,195c-0.8,1.8-2.3,2.3-4.1,2.3h-1.7c-0.6,0-1.1-0.5-1-1.1c0-0.6,0.5-1,1-1h1.7
		c0.8,0,1.7,0,2-0.9l2.2-5.2l-7.9-18.4c-0.1-0.2-0.1-0.3-0.1-0.5c0-0.6,0.5-1,1.1-1c0,0,0,0,0,0c0.4,0,0.8,0.2,1,0.6l7.1,16.5
		l7-16.5c0.2-0.4,0.6-0.7,1-0.6c0.6,0,1,0.4,1.1,1c0,0,0,0,0,0C470.3,170.3,470.3,170.4,470.2,170.6L470.2,170.6z M489.3,180.2
		h-15.8c0.3,4.3,3.2,7.5,7.3,7.5c2.2,0.1,4.2-0.9,5.6-2.6c0.2-0.3,0.5-0.5,0.9-0.5c0.6,0,1.1,0.4,1.2,1c0,0.3,0,0.4-0.7,1.3
		c-1.8,2-4.3,3.1-7,3c-6.1,0-9.5-5-9.5-10.8c0-5.7,3.4-10.7,9.5-10.7s9.5,5.1,9.5,10.7C490.4,179.7,489.9,180.2,489.3,180.2z
		 M480.9,170.6c-4.6,0-7,3.5-7.3,7.5h14.6C487.9,173.8,485,170.6,480.9,170.6L480.9,170.6z M514,189.3L514,189.3
		c-1.8,0-3.4-1.2-3.8-3c-1.7,2.4-4.5,3.7-7.4,3.6c-6.2,0-9.5-5.1-9.5-10.8c0-5.7,3.4-10.7,9.5-10.7c2.9-0.1,5.7,1.2,7.4,3.6v-1.9
		c0-0.6,0.5-1.1,1.1-1.1c0,0,0,0,0,0c0.6,0,1,0.4,1.1,1c0,0,0,0,0,0.1v15.3c0,2.4,2.7,0.9,2.7,2.7
		C515.1,188.8,514.7,189.2,514,189.3C514.1,189.3,514,189.3,514,189.3L514,189.3z M502.8,170.6c-4.5,0-7.4,3.6-7.4,8.6
		s2.9,8.6,7.4,8.6c4.5,0,7.4-3.6,7.4-8.6S507.4,170.6,502.8,170.6z"/>
	<g>
		<path id="U_1_" class="st7" d="M526.5,170.9c-3.6,0-6.5,2.9-6.5,6.5c0,0,0,0,0,0v10.8c0,0.6-0.5,1.1-1.1,1.1
			c-0.6,0-1.1-0.5-1.1-1.1v-18c0-0.6,0.5-1.1,1.1-1.1c0.6,0,1.1,0.5,1.1,1.1v1.6c1.6-1.9,4-2.9,6.5-2.9c0.6,0,1.1,0.5,1.1,1
			C527.6,170.4,527.1,170.9,526.5,170.9C526.5,170.9,526.5,170.9,526.5,170.9L526.5,170.9z"/>
	</g>
</g>
<g>
	<path class="st7" d="M80.3,40.5l-9.9,37.4c-0.1,1.3-1.2,2.2-2.4,2.1c0,0,0,0,0,0c-1.3,0-2.4-0.9-2.6-2.1l-8.1-28.7l-8,28.7
		C49,79.1,47.9,80,46.7,80c-1.3,0.1-2.4-0.8-2.5-2.1l-9.9-37.4c-0.1-0.3-0.1-0.6-0.1-0.8c0.1-1.4,1.3-2.4,2.7-2.3c0,0,0,0,0,0
		c1.1,0,2.1,0.8,2.4,1.9l7.6,28.6l7.9-28.4c0.3-1.4,1.6-2.3,3-2.1c1,0.2,1.9,1,2.1,2.1l7.9,28.4l7.6-28.6c0.3-1.1,1.3-1.9,2.5-2
		c1.4-0.1,2.6,1,2.6,2.5c0,0,0,0,0,0C80.4,39.9,80.3,40.2,80.3,40.5L80.3,40.5z"/>
	<g>
		<path id="V" class="st7" d="M113.1,80c-2.3,0-4.4-1.3-5.3-3.4c-2.7,2.9-6.6,4.6-10.6,4.4c-9.8,0-15.1-8-15.1-17
			s5.4-16.9,15.1-16.9c3.7-0.1,7.3,1.3,9.9,4v-0.2c-0.1-1.4,0.9-2.6,2.2-2.7c0.1,0,0.2,0,0.3,0c1.3-0.1,2.5,0.8,2.6,2.2
			c0,0.1,0,0.2,0,0.4v23.2c-0.1,0.5,0.3,1,0.8,1.1c1.4,0,2.6,1.1,2.6,2.5S114.6,80,113.1,80C113.1,80,113.1,80,113.1,80z M97.2,52.2
			c-6,0-9.9,4.7-9.9,11.8c0,7.2,3.9,11.9,9.9,11.9c6.1,0,9.9-4.7,9.9-11.9C107.1,56.9,103.3,52.2,97.2,52.2z"/>
	</g>
	<path class="st7" d="M144.9,51.7l-16.2,36.8c-1.2,2.6-3.8,4.2-6.6,4h-1.9c-1.3,0.1-2.5-1-2.5-2.3c0-0.1,0-0.2,0-0.3
		c-0.1-1.3,0.9-2.4,2.2-2.5c0.1,0,0.2,0,0.3,0h1.9c0.8,0.1,1.6-0.3,2-1l4-8.9l-11.7-25.9c-0.2-0.3-0.3-0.7-0.3-1.1
		c0.1-1.4,1.3-2.6,2.8-2.5c1,0,1.8,0.6,2.2,1.6l9.8,21.7l9.5-21.7c0.4-0.9,1.2-1.5,2.2-1.5c1.4-0.1,2.7,1,2.8,2.5
		C145.2,51,145.1,51.4,144.9,51.7L144.9,51.7z M196.4,80.1c-1.4,0-2.5-1.1-2.5-2.4c0-0.1,0-0.1,0-0.2V49.9l-11.6,21.7
		c-0.4,1-1.3,1.6-2.4,1.6c-1-0.1-2-0.7-2.4-1.6L165.8,50v27.5c0,1.4-1,2.5-2.4,2.6c-0.1,0-0.1,0-0.2,0c-1.4,0-2.5-1.1-2.5-2.4
		c0-0.1,0-0.1,0-0.2V40c-0.1-1.4,0.9-2.6,2.3-2.7c0.1,0,0.3,0,0.4,0c1,0,1.8,0.6,2.2,1.5l14.2,26.5l14.3-26.5c0.4-1,1.3-1.6,2.3-1.5
		c1.4-0.1,2.5,1,2.6,2.4c0,0.1,0,0.2,0,0.3v37.5c0,1.4-1,2.5-2.4,2.6C196.5,80.1,196.4,80.1,196.4,80.1L196.4,80.1z"/>
	<g>
		<path id="W" class="st7" d="M218.8,81c-9.7,0-15.1-7.9-15.1-17c0-9,5.4-16.9,15.1-16.9S233.9,55,233.9,64
			C233.9,73.1,228.5,81,218.8,81z M218.8,52.2c-6,0-9.9,4.7-9.9,11.8c0,7.2,3.9,11.9,9.9,11.9c6.1,0,9.9-4.7,9.9-11.9
			C228.7,56.9,224.9,52.2,218.8,52.2z"/>
	</g>
	<g>
		<path id="X" class="st7" d="M252.3,52.2c-4.7,0.1-8.5,3.9-8.5,8.6v16.6c0,1.4-1,2.5-2.4,2.6c-0.1,0-0.1,0-0.2,0
			c-1.4,0-2.5-1-2.5-2.4c0,0,0-0.1,0-0.1V50.7c0-1.4,1.1-2.6,2.5-2.6c0,0,0,0,0,0c1.3-0.1,2.4,0.8,2.6,2c2.4-2,5.5-3,8.6-3.1
			c1.4-0.1,2.6,1,2.7,2.4s-1,2.6-2.4,2.7C252.4,52.2,252.3,52.2,252.3,52.2L252.3,52.2z"/>
	</g>
	<g>
		<path id="Y" class="st7" d="M280.8,66.7h-22.2c0.8,5.6,4.4,9.2,9.7,9.2c2.7,0.1,5.4-1.1,7.1-3.1c0.4-0.6,1.1-0.9,1.9-1
			c1.4,0,2.6,1.2,2.7,2.6c0,0.7-0.2,1.3-1.4,2.5c-2.8,2.6-6.4,4.1-10.3,4c-9.7,0-15.1-8-15.1-17c0-8.9,5.4-16.9,15.1-16.9
			c9.8,0,15,8,15,16.9C283.3,65.5,282.2,66.6,280.8,66.7C280.8,66.7,280.8,66.7,280.8,66.7L280.8,66.7z M268.3,52.2
			c-5.6,0-8.9,4.1-9.7,9.3H278C277.2,55.8,273.6,52.2,268.3,52.2z"/>
	</g>
	<path class="st7" d="M314.4,81.1c-8.3,0-15-6.7-15.1-15c0,0,0,0,0-0.1V39.8c0-1.4,1.2-2.5,2.7-2.5c1.4,0,2.5,1.1,2.5,2.5V66
		c0,5.5,4.4,9.9,9.9,9.9c5.5,0,9.9-4.4,9.9-9.9V39.9c0-1.4,1.2-2.5,2.6-2.5c1.4,0,2.5,1.1,2.5,2.5V66
		C329.4,74.3,322.7,81.1,314.4,81.1C314.4,81.1,314.4,81.1,314.4,81.1L314.4,81.1z M359.3,80c-0.9,0-1.8-0.6-2.2-1.4l-9.8-20.3
		l-6.9,8.6v10.6c0,1.4-1.2,2.6-2.6,2.5c-1.4,0-2.5-1.1-2.5-2.5V39.8c0-1.4,1.2-2.6,2.6-2.5c1.4,0,2.5,1.1,2.5,2.5v18.8l16.4-20.3
		c0.4-0.6,1.1-1,1.9-1c1.5,0,2.7,1.1,2.8,2.6c0,0.6-0.2,1.2-0.7,1.6l-9.8,12.3l10.8,22.5c0.2,0.4,0.3,0.8,0.3,1.2
		C361.9,78.9,360.7,80,359.3,80L359.3,80z M389.9,81c-4.4,0-10.5-1.8-13.9-5c-0.5-0.5-0.9-1.1-0.8-1.9c0-1.4,1.2-2.6,2.6-2.6
		c0.9,0,1.2,0.3,2.3,1.1c2.9,2.1,6.3,3.2,9.9,3.2c7.1,0,10.3-2.6,10.3-7c0-12.5-23.9-5.4-23.9-21.7c0-7.3,6.2-11,14.1-11
		c4.1,0,10.1,1.6,13,5.1c0.4,0.4,0.7,1,0.7,1.6c0,1.4-1.2,2.6-2.6,2.7c-0.9,0-1.4-0.4-2.4-1.3c-2.5-2-5.5-3-8.7-2.9
		c-6.5,0-8.9,2.6-8.9,5.8c0,11.2,23.9,4.6,23.9,21.7C405.3,77.8,397.8,81,389.9,81L389.9,81z M447,80c-1.4,0-2.5-1-2.5-2.4
		c0,0,0-0.1,0-0.1V58.6c0.1-3.5-2.7-6.4-6.2-6.4c-3.5-0.1-6.4,2.7-6.4,6.2c0,0,0,0.1,0,0.1v18.9c0.1,1.4-1,2.5-2.3,2.6
		c-0.1,0-0.2,0-0.3,0c-1.3,0.1-2.5-1-2.5-2.3c0-0.1,0-0.1,0-0.2V58.6c0-3.5-2.8-6.4-6.3-6.4c-3.5,0-6.4,2.8-6.4,6.3v18.9
		c0,1.4-1,2.5-2.4,2.6c-0.1,0-0.1,0-0.2,0c-1.4,0-2.5-1-2.5-2.4c0,0,0-0.1,0-0.1V50.7c0-1.5,1.2-2.6,2.7-2.6c0.8,0,1.6,0.4,2.1,1.1
		c2-1.4,4.3-2.1,6.7-2.1c3.5,0,6.8,1.5,8.9,4.3c2.1-2.7,5.4-4.3,8.9-4.3c6.3,0,11.5,5.1,11.5,11.4c0,0,0,0,0,0v18.9
		c0,1.4-1,2.5-2.4,2.6C447.2,80,447.1,80,447,80L447,80z"/>
	<g>
		<path id="W_1_" class="st7" d="M468.9,81c-9.7,0-15.1-7.9-15.1-17c0-9,5.4-16.9,15.1-16.9S484,55,484,64
			C484,73.1,478.6,81,468.9,81z M468.9,52.2c-6,0-9.9,4.7-9.9,11.8c0,7.2,3.9,11.9,9.9,11.9c6.1,0,9.9-4.7,9.9-11.9
			C478.8,56.9,475,52.2,468.9,52.2z"/>
	</g>
	<path class="st7" d="M511.7,52.5l-8.9,8.9l9.3,14.6c0.2,0.4,0.4,0.9,0.4,1.4c-0.1,1.4-1.3,2.6-2.7,2.6c-0.8,0-1.6-0.5-2-1.2
		L499,65.2l-5.1,5.1v7.1c0,1.4-1.2,2.6-2.6,2.5c-1.4,0-2.5-1.1-2.5-2.5V39.8c-0.1-1.3,1-2.5,2.3-2.5c0.1,0,0.1,0,0.2,0
		c1.4-0.1,2.5,0.9,2.6,2.3c0,0.1,0,0.2,0,0.3v23.3L508,48.9c0.5-0.5,1.2-0.8,1.9-0.8c1.4,0.1,2.5,1.2,2.6,2.6
		C512.5,51.4,512.2,52.1,511.7,52.5L511.7,52.5z"/>
	<g>
		<path id="Z" class="st7" d="M542.1,66.7h-22.2c0.8,5.6,4.4,9.2,9.7,9.2c2.7,0.1,5.4-1.1,7.1-3.1c0.4-0.6,1.1-0.9,1.9-1
			c1.4,0,2.6,1.2,2.7,2.6c0,0.7-0.2,1.3-1.4,2.5c-2.8,2.6-6.4,4.1-10.3,4c-9.7,0-15.1-8-15.1-17c0-8.9,5.4-16.9,15.1-16.9
			c9.8,0,15,8,15,16.9C544.7,65.5,543.6,66.6,542.1,66.7C542.2,66.7,542.1,66.7,542.1,66.7L542.1,66.7z M529.6,52.2
			c-5.6,0-8.9,4.1-9.7,9.3h19.4C538.5,55.8,534.9,52.2,529.6,52.2L529.6,52.2z"/>
	</g>
	<g>
		<path id="a" class="st7" d="M562.4,52.2c-4.7,0.1-8.5,3.9-8.5,8.6v16.6c0,1.4-1,2.5-2.4,2.6c-0.1,0-0.1,0-0.2,0
			c-1.4,0-2.5-1-2.5-2.4c0,0,0-0.1,0-0.1V50.7c0-1.4,1.1-2.6,2.5-2.6c0,0,0,0,0,0c1.3-0.1,2.4,0.8,2.6,2c2.4-2,5.5-3,8.6-3.1
			c1.4-0.1,2.6,1,2.7,2.4c0.1,1.4-1,2.6-2.4,2.7C562.5,52.2,562.5,52.2,562.4,52.2L562.4,52.2z"/>
	</g>
	<path class="st7" d="M576.1,81c-3.3,0-8.8-1-11.6-4.5c-0.9-1.2-0.7-2.8,0.5-3.7c0.5-0.4,1.1-0.6,1.7-0.5c0.7,0,1.4,0.4,1.9,1
		c1.9,2,4.9,2.6,7.6,2.6c5.4,0,7.1-1.9,7.1-4.6c0-7.7-18.3-2.9-18.3-15.3c0-6.5,6.1-8.9,11.8-8.9c3.2,0,10.9,1.6,10.9,5
		c0,1.4-1.1,2.6-2.5,2.7c-0.7-0.1-1.4-0.3-2-0.8c-1.6-1.4-4-1.8-6.4-1.8c-5,0-6.7,1.9-6.7,3.8c0,7.1,18.4,2.5,18.4,15.3
		C588.4,78.4,582.5,81,576.1,81L576.1,81z M634.7,80c-1,0-1.9-0.6-2.3-1.6l-3.2-7.8h-20l-3.2,7.8c-0.4,0.9-1.2,1.5-2.2,1.6
		c-1.4,0-2.6-1.1-2.7-2.5c0-0.4,0.1-0.7,0.2-1L616.8,39c0.3-1.1,1.3-1.8,2.5-1.9c1.1,0.1,2.1,0.8,2.5,1.9l15.5,37.5
		c0.1,0.3,0.2,0.7,0.2,1C637.3,78.9,636.2,80,634.7,80C634.7,80,634.7,80,634.7,80z M619.2,46.4l-7.9,19.1h15.7L619.2,46.4z"/>
	<g>
		<path id="a_1_" class="st7" d="M653.7,52.2c-4.7,0.1-8.5,3.9-8.5,8.6v16.6c0,1.4-1,2.5-2.4,2.6c-0.1,0-0.1,0-0.2,0
			c-1.4,0-2.5-1-2.5-2.4c0,0,0-0.1,0-0.1V50.7c0-1.4,1.1-2.6,2.5-2.6c0,0,0,0,0,0c1.3-0.1,2.4,0.8,2.6,2c2.4-2,5.5-3,8.6-3.1
			c1.4-0.1,2.6,1,2.7,2.4c0.1,1.4-1,2.6-2.4,2.7C653.8,52.2,653.7,52.2,653.7,52.2L653.7,52.2z"/>
	</g>
	<g>
		<path id="Z_1_" class="st7" d="M682.1,66.7h-22.2c0.8,5.6,4.4,9.2,9.7,9.2c2.7,0.1,5.4-1.1,7.1-3.1c0.4-0.6,1.1-0.9,1.9-1
			c1.4,0,2.6,1.2,2.7,2.6c0,0.7-0.2,1.3-1.4,2.5c-2.8,2.6-6.4,4.1-10.3,4c-9.7,0-15.1-8-15.1-17c0-8.9,5.4-16.9,15.1-16.9
			c9.8,0,15,8,15,16.9C684.7,65.5,683.6,66.6,682.1,66.7C682.2,66.7,682.2,66.7,682.1,66.7L682.1,66.7z M669.7,52.2
			c-5.6,0-8.9,4.1-9.7,9.3h19.4C678.5,55.8,674.9,52.2,669.7,52.2L669.7,52.2z"/>
	</g>
	<path class="st7" d="M734.8,80.6c-0.7,0-1.3-0.3-1.7-0.8l-3.6-3.7c-2.8,3-6.6,4.9-12,4.9C704.6,81,700,70.3,700,58.6
		c0-11.8,4.6-22.4,17.5-22.4c12.8,0,17.5,10.7,17.5,22.4c0.2,4.5-0.7,9.1-2.6,13.2l4.3,4.3c0.5,0.5,0.8,1.1,0.8,1.8
		C737.5,79.4,736.3,80.6,734.8,80.6L734.8,80.6z M717.5,41.4c-8.5,0-12.3,6.3-12.3,17.3s3.8,17.3,12.3,17.3c3.1,0.2,6.2-1.1,8.3-3.4
		l-4.4-4.3c-0.5-0.5-0.8-1.2-0.8-1.9c0-1.4,1.2-2.6,2.6-2.6c0.7,0,1.3,0.3,1.7,0.8l3.4,3.3c1-3,1.4-6.1,1.4-9.2
		C729.8,47.7,725.9,41.4,717.5,41.4L717.5,41.4z M765.4,80.1c-1.2,0.1-2.3-0.8-2.5-2c-2.5,1.9-5.5,3-8.6,3
		c-7.5-0.1-13.6-6.1-13.7-13.7V50.8c0-1.4,1.1-2.6,2.5-2.6c1.4,0,2.6,1.1,2.6,2.5v16.7c-0.1,4.7,3.7,8.6,8.5,8.6
		c4.7,0.1,8.6-3.7,8.6-8.5c0-0.1,0-0.1,0-0.2V50.8c-0.1-1.3,0.8-2.5,2.1-2.6c0.1,0,0.3,0,0.4,0c1.4-0.1,2.5,1,2.6,2.3
		c0,0.1,0,0.2,0,0.3v26.8c0.1,1.3-0.9,2.4-2.3,2.5C765.5,80.1,765.5,80.1,765.4,80.1L765.4,80.1z"/>
	<g>
		<path id="b" class="st7" d="M776.8,43.3c-2.4,0-4.3-1.9-4.3-4.3c0-2.4,1.9-4.3,4.3-4.3s4.3,1.9,4.3,4.3c0,0,0,0,0,0
			C781.1,41.3,779.2,43.3,776.8,43.3C776.8,43.3,776.8,43.3,776.8,43.3z M776.8,80c-1.4,0.1-2.6-1-2.6-2.4c0,0,0-0.1,0-0.1V50.7
			c0-1.4,1.1-2.6,2.5-2.6c0.1,0,0.1,0,0.2,0c1.4,0,2.5,1.1,2.5,2.4c0,0.1,0,0.1,0,0.2v26.8c0.1,1.3-1,2.5-2.3,2.5
			C776.9,80,776.8,80,776.8,80z"/>
	</g>
	<g>
		<path id="c" class="st7" d="M795.8,80h-1c-5.7,0-7.9-3-7.9-7.9V53.2h-1.8c-1.4,0-2.6-1.1-2.6-2.5s1.1-2.6,2.5-2.6h1.8v-8.3
			c0-1.3,1-2.5,2.3-2.5c0.1,0,0.2,0,0.2,0c1.3-0.1,2.4,0.9,2.5,2.3c0,0.1,0,0.2,0,0.3v8.3h3.8c1.4,0,2.5,1.1,2.5,2.5c0,0,0,0,0,0.1
			c0.1,1.3-1,2.5-2.3,2.6c-0.1,0-0.1,0-0.2,0h-3.8v19.4c0,1.7,0.6,2.3,2.3,2.3h1.5c1.4-0.1,2.5,1,2.6,2.4c0,0.1,0,0.1,0,0.2
			c0.1,1.3-1,2.5-2.3,2.6C795.9,80,795.9,80,795.8,80L795.8,80z"/>
	</g>
	<g>
		<path id="c_1_" class="st7" d="M811.4,80h-1c-5.7,0-7.9-3-7.9-7.9V53.2h-1.8c-1.4,0-2.6-1.1-2.6-2.5s1.1-2.6,2.5-2.6h1.8v-8.3
			c0-1.3,1-2.5,2.3-2.5c0.1,0,0.2,0,0.2,0c1.3-0.1,2.4,0.9,2.5,2.3c0,0.1,0,0.2,0,0.3v8.3h3.8c1.4,0,2.5,1.1,2.5,2.5c0,0,0,0,0,0.1
			c0.1,1.3-1,2.5-2.3,2.6c-0.1,0-0.1,0-0.2,0h-3.8v19.4c0,1.7,0.6,2.3,2.3,2.3h1.5c1.4-0.1,2.5,1,2.6,2.4c0,0.1,0,0.1,0,0.2
			c0.1,1.3-1,2.5-2.3,2.6C811.6,80,811.5,80,811.4,80L811.4,80z"/>
	</g>
	<g>
		<path id="b_1_" class="st7" d="M819.7,43.3c-2.4,0-4.3-1.9-4.3-4.3c0-2.4,1.9-4.3,4.3-4.3s4.3,1.9,4.3,4.3c0,0,0,0,0,0
			C824.1,41.3,822.1,43.3,819.7,43.3C819.7,43.3,819.7,43.3,819.7,43.3z M819.7,80c-1.4,0.1-2.6-1-2.6-2.4c0,0,0-0.1,0-0.1V50.7
			c0-1.4,1.1-2.6,2.5-2.6c0.1,0,0.1,0,0.2,0c1.4,0,2.5,1.1,2.5,2.4c0,0.1,0,0.1,0,0.2v26.8c0.1,1.3-1,2.5-2.3,2.5
			C819.9,80,819.8,80,819.7,80z"/>
	</g>
	<path class="st7" d="M853.4,80c-1.3,0.1-2.5-1-2.5-2.3c0-0.1,0-0.1,0-0.2V60.8c0-4.7-3.8-8.6-8.5-8.6c-4.7,0-8.6,3.8-8.6,8.5
		c0,0,0,0,0,0v16.6c0.1,1.4-1,2.6-2.5,2.6c-0.1,0-0.1,0-0.2,0c-1.4,0-2.5-1.1-2.5-2.4c0-0.1,0-0.1,0-0.2V50.7
		c-0.1-1.3,0.9-2.4,2.2-2.5c0.1,0,0.2,0,0.3,0c1.2-0.1,2.3,0.8,2.6,2c5.9-4.7,14.5-3.8,19.3,2.1c1.9,2.4,3,5.4,3,8.5v16.6
		c0.1,1.4-1,2.5-2.3,2.6C853.6,80,853.5,80,853.4,80L853.4,80z M875.2,93.7c-3.7,0-12.7-1.3-12.7-4.9c0-1.4,1.2-2.6,2.6-2.7
		c1.4,0,0.2,0.2,3.4,1.4c2.2,0.8,4.5,1.2,6.8,1.1c6.7,0,9.9-3.2,9.9-9.5v-2.7c-2.7,2.4-6.3,3.7-9.9,3.6c-9.5,0-15.1-6.7-15.1-16
		c0-9,5.4-16.9,15.1-16.9c4.2,0,7.4,1.3,9.9,3.8v-0.2c0-1.4,1.1-2.6,2.5-2.6c0,0,0,0,0.1,0c1.4,0,2.5,1.1,2.6,2.5c0,0,0,0.1,0,0.1
		v28.4C890.3,88.6,884.6,93.7,875.2,93.7L875.2,93.7z M875.2,52.2c-6,0-9.9,4.7-9.9,11.8c0,6.8,3.6,10.9,9.9,10.9s9.9-4,9.9-10.9
		C885.1,56.9,881.3,52.2,875.2,52.2z M899.4,85.3c-0.4,0.3-0.8,0.4-1.3,0.4c-1.4-0.1-2.5-1.2-2.5-2.6c0-2,2.3-2.5,2.3-3.4v-0.1
		c0,0-2.4-0.7-2.4-4.3c0.1-2.1,1.9-3.8,4-3.7c2.8,0,4.5,3.2,4.5,5.8C903.9,80.6,902.2,83.6,899.4,85.3L899.4,85.3z M49.7,141.2H37.3
		c-1.4,0-2.5-1.1-2.6-2.5v-37.6c0.1-1.4,1.2-2.6,2.6-2.6h12.4c12.4,0,16.4,10.2,16.4,21.3C66.2,130.9,62.1,141.2,49.7,141.2
		L49.7,141.2z M49.7,103.6h-9.9v32.5h9.9c7.7,0,11.3-5.7,11.3-16.3C61,109.3,57.5,103.6,49.7,103.6L49.7,103.6z"/>
	<g>
		<path id="d" class="st7" d="M95.6,141.3c-1.2,0.1-2.3-0.8-2.5-2c-2.5,1.9-5.5,3-8.6,3c-7.5-0.1-13.6-6.1-13.7-13.7V112
			c0-1.4,1.1-2.6,2.6-2.6c1.4,0,2.6,1.1,2.6,2.5v16.7c0,4.7,3.8,8.6,8.5,8.6c4.7,0,8.6-3.8,8.6-8.5c0,0,0,0,0,0V112
			c-0.1-1.3,0.8-2.5,2.1-2.6c0.1,0,0.3,0,0.4,0c1.4-0.1,2.5,1,2.6,2.3c0,0.1,0,0.2,0,0.3v26.8c0.1,1.3-0.9,2.4-2.3,2.5
			C95.7,141.3,95.6,141.3,95.6,141.3L95.6,141.3z"/>
	</g>
	<g>
		<path id="Y_1_" class="st7" d="M130.4,127.9h-22.2c0.8,5.6,4.4,9.2,9.7,9.2c2.7,0.1,5.4-1.1,7.1-3.1c0.4-0.6,1.1-0.9,1.9-1
			c1.4,0,2.6,1.2,2.7,2.6c0,0.7-0.2,1.3-1.4,2.5c-2.8,2.6-6.4,4.1-10.3,4c-9.7,0-15.1-8-15.1-17c0-8.9,5.4-16.9,15.1-16.9
			c9.8,0,15,8,15,16.9C132.9,126.7,131.8,127.8,130.4,127.9C130.4,127.9,130.4,127.9,130.4,127.9L130.4,127.9z M117.9,113.4
			c-5.6,0-8.9,4.1-9.7,9.3h19.4C126.8,117,123.2,113.4,117.9,113.4z"/>
	</g>
	<path class="st7" d="M159.4,141.2h-1c-5.7,0-7.9-3-7.9-7.9v-18.8h-1.8c-1.4,0-2.6-1.1-2.6-2.5c0-1.4,1.1-2.6,2.5-2.6h1.8V101
		c0-1.3,1-2.5,2.3-2.5c0.1,0,0.2,0,0.2,0c1.3-0.1,2.4,0.9,2.5,2.3c0,0.1,0,0.2,0,0.3v8.3h3.8c1.4,0,2.5,1.1,2.5,2.5c0,0,0,0,0,0.1
		c0.1,1.3-1,2.5-2.3,2.6c-0.1,0-0.1,0-0.2,0h-3.8v19.4c0,1.7,0.6,2.3,2.3,2.3h1.5c1.4-0.1,2.5,1,2.6,2.4c0,0.1,0,0.1,0,0.2
		c0.1,1.3-1,2.5-2.3,2.6C159.5,141.2,159.5,141.2,159.4,141.2L159.4,141.2z"/>
	<g>
		<path id="W_2_" class="st7" d="M178.6,142.2c-9.7,0-15.1-7.9-15.1-17c0-9,5.4-16.9,15.1-16.9s15.1,7.9,15.1,16.9
			C193.7,134.3,188.3,142.2,178.6,142.2z M178.6,113.4c-6,0-9.9,4.7-9.9,11.8c0,7.2,3.9,11.9,9.9,11.9c6.1,0,9.9-4.7,9.9-11.9
			C188.5,118.1,184.7,113.4,178.6,113.4z"/>
	</g>
	<path class="st7" d="M240.5,135.7c-2.9,4.1-7.1,6.5-13.4,6.5c-12.9,0-17.5-10.7-17.5-22.4c0-11.8,4.6-22.4,17.5-22.4
		c6.1,0,10.5,2.4,13.3,6.5c0.4,0.4,0.5,1,0.5,1.5c0,1.4-1.2,2.5-2.6,2.5c-0.8,0-1.6-0.4-2-1.1c-1.9-2.7-4.6-4.3-9.2-4.3
		c-8.5,0-12.3,6.3-12.3,17.3s3.8,17.3,12.3,17.3c4.6,0,7.3-1.7,9.2-4.4c0.4-0.7,1.2-1.1,2-1.1c1.4-0.1,2.6,1,2.7,2.3
		C241.1,134.6,240.9,135.2,240.5,135.7L240.5,135.7z"/>
	<g>
		<path id="W_3_" class="st7" d="M258.6,142.2c-9.7,0-15.1-7.9-15.1-17c0-9,5.4-16.9,15.1-16.9c9.7,0,15.1,7.9,15.1,16.9
			C273.7,134.3,268.3,142.2,258.6,142.2z M258.6,113.4c-6,0-9.9,4.7-9.9,11.8c0,7.2,3.9,11.9,9.9,11.9c6.1,0,9.9-4.7,9.9-11.9
			C268.5,118.1,264.7,113.4,258.6,113.4z"/>
	</g>
	<path class="st7" d="M292.1,113.4c-4.7,0.1-8.5,3.9-8.5,8.6v16.6c0,1.4-1,2.5-2.4,2.6c-0.1,0-0.1,0-0.2,0c-1.4,0-2.5-1-2.5-2.4
		c0,0,0-0.1,0-0.1v-26.8c0-1.4,1.1-2.6,2.5-2.6c0,0,0,0,0,0c1.3-0.1,2.4,0.8,2.6,2c2.4-2,5.5-3,8.6-3.1c1.4-0.1,2.6,1,2.7,2.4
		c0.1,1.4-1,2.6-2.4,2.7C292.2,113.4,292.2,113.4,292.1,113.4L292.1,113.4z"/>
	<g>
		<path id="W_4_" class="st7" d="M309.5,142.2c-9.7,0-15.1-7.9-15.1-17c0-9,5.4-16.9,15.1-16.9c9.7,0,15.1,7.9,15.1,16.9
			C324.6,134.3,319.2,142.2,309.5,142.2z M309.5,113.4c-6,0-9.9,4.7-9.9,11.8c0,7.2,3.9,11.9,9.9,11.9c6.1,0,9.9-4.7,9.9-11.9
			C319.4,118.1,315.6,113.4,309.5,113.4z"/>
	</g>
	<path class="st7" d="M354.1,141.2c-1.3,0.1-2.5-1-2.5-2.3c0-0.1,0-0.1,0-0.2V122c0-4.7-3.8-8.6-8.5-8.6c-4.7,0-8.6,3.8-8.6,8.6
		v16.6c0.1,1.4-1,2.6-2.5,2.6c-0.1,0-0.1,0-0.2,0c-1.4,0-2.5-1.1-2.5-2.4c0-0.1,0-0.1,0-0.2v-26.8c-0.1-1.3,0.9-2.4,2.2-2.5
		c0.1,0,0.2,0,0.3,0c1.2-0.1,2.3,0.8,2.6,2c5.9-4.7,14.5-3.8,19.3,2.1c1.9,2.4,3,5.4,3,8.5v16.6c0.1,1.4-1,2.5-2.3,2.6
		C354.3,141.2,354.2,141.2,354.1,141.2L354.1,141.2z"/>
	<g>
		<path id="V_1_" class="st7" d="M391.8,141.2c-2.3,0-4.4-1.3-5.3-3.4c-2.7,2.9-6.6,4.6-10.6,4.4c-9.8,0-15.1-8-15.1-17
			c0-8.9,5.4-16.9,15.1-16.9c3.7-0.1,7.3,1.3,9.9,4V112c-0.1-1.4,0.9-2.6,2.2-2.7c0.1,0,0.2,0,0.3,0c1.3-0.1,2.5,0.8,2.6,2.2
			c0,0.1,0,0.2,0,0.4V135c-0.1,0.5,0.3,1,0.8,1.1c1.4,0,2.6,1.1,2.6,2.5S393.2,141.2,391.8,141.2
			C391.8,141.2,391.8,141.2,391.8,141.2z M375.9,113.4c-6,0-9.9,4.7-9.9,11.8c0,7.2,3.9,11.9,9.9,11.9c6.1,0,9.9-4.7,9.9-11.9
			C385.8,118.1,382,113.4,375.9,113.4z"/>
	</g>
	<path class="st7" d="M422.1,112.9l-10.9,26.3c-0.3,1.2-1.4,2-2.6,2c-1.2-0.1-2.2-0.9-2.6-2l-10.9-26.3c-0.1-0.3-0.2-0.7-0.2-1.1
		c0.1-1.4,1.2-2.5,2.6-2.5c1,0,1.9,0.6,2.3,1.6l8.8,21l8.8-21c0.5-1.3,2-2,3.4-1.4c0.9,0.4,1.6,1.3,1.6,2.3
		C422.3,112.1,422.2,112.5,422.1,112.9L422.1,112.9z M428.4,104.5c-2.4,0-4.3-1.9-4.3-4.3c0-2.4,1.9-4.3,4.3-4.3
		c2.4,0,4.3,1.9,4.3,4.3c0,0,0,0,0,0C432.8,102.5,430.8,104.5,428.4,104.5C428.5,104.5,428.4,104.5,428.4,104.5z M428.4,141.2
		c-1.4,0.1-2.6-1-2.6-2.4c0,0,0-0.1,0-0.1v-26.8c0-1.4,1.1-2.6,2.5-2.6c0.1,0,0.1,0,0.2,0c1.4,0,2.5,1.1,2.5,2.4c0,0.1,0,0.1,0,0.2
		v26.8c0.1,1.3-1,2.5-2.3,2.5C428.6,141.2,428.5,141.2,428.4,141.2z"/>
	<g>
		<path id="X_1_" class="st7" d="M451,113.4c-4.7,0.1-8.5,3.9-8.5,8.6v16.6c0,1.4-1,2.5-2.4,2.6c-0.1,0-0.1,0-0.2,0
			c-1.4,0-2.5-1-2.5-2.4c0,0,0-0.1,0-0.1v-26.8c0-1.4,1.1-2.6,2.5-2.6c0,0,0,0,0,0c1.3-0.1,2.4,0.8,2.6,2c2.4-2,5.5-3,8.6-3.1
			c1.4-0.1,2.6,1,2.7,2.4c0.1,1.4-1,2.6-2.4,2.7C451.1,113.4,451.1,113.4,451,113.4L451,113.4z"/>
	</g>
	<g>
		<path id="d_1_" class="st7" d="M479,141.3c-1.2,0.1-2.3-0.8-2.5-2c-2.5,1.9-5.5,3-8.6,3c-7.5-0.1-13.6-6.1-13.7-13.7V112
			c0-1.4,1.1-2.6,2.6-2.6c1.4,0,2.6,1.1,2.6,2.5v16.7c0,4.7,3.8,8.6,8.5,8.6c4.7,0,8.6-3.8,8.6-8.5c0,0,0,0,0,0V112
			c-0.1-1.3,0.8-2.5,2.1-2.6c0.1,0,0.3,0,0.4,0c1.4-0.1,2.5,1,2.6,2.3c0,0.1,0,0.2,0,0.3v26.8c0.1,1.3-0.9,2.4-2.3,2.5
			C479.2,141.3,479.1,141.3,479,141.3L479,141.3z"/>
	</g>
	<path class="st7" d="M497.7,142.2c-3.3,0-8.8-1-11.6-4.5c-0.9-1.2-0.7-2.8,0.5-3.7c0.5-0.4,1.1-0.6,1.7-0.5c0.7,0,1.4,0.4,1.9,1
		c1.9,2,4.9,2.6,7.6,2.6c5.4,0,7.1-1.9,7.1-4.6c0-7.7-18.3-2.9-18.3-15.3c0-6.5,6.1-8.9,11.8-8.9c3.2,0,10.9,1.6,10.9,5
		c0,1.4-1.1,2.6-2.5,2.7c-0.7-0.1-1.4-0.3-2-0.8c-1.6-1.4-4-1.8-6.4-1.8c-5,0-6.7,1.9-6.7,3.8c0,7.1,18.4,2.5,18.4,15.3
		C510,139.6,504,142.2,497.7,142.2L497.7,142.2z"/>
</g>
</svg>
