<svg xmlns="http://www.w3.org/2000/svg" xmlns:xlink="http://www.w3.org/1999/xlink" viewBox="0 0 1080 1080" xmlns:v="https://vecta.io/nano"><defs><linearGradient id="A" x1="11.716" y1="11.716" x2="1068.284" y2="1068.284" gradientUnits="userSpaceOnUse"><stop offset="0" stop-color="#643e8a"/><stop offset=".046" stop-color="#603a85"/><stop offset=".465" stop-color="#421b5d"/><stop offset=".798" stop-color="#2f0744"/><stop offset="1" stop-color="#28003b"/></linearGradient><linearGradient id="B" x1="33.956" y1="547.977" x2="792.808" y2="547.977" gradientUnits="userSpaceOnUse"><stop offset="0" stop-color="#fdfc47"/><stop offset=".052" stop-color="#eefc47"/><stop offset=".312" stop-color="#a7fd45"/><stop offset=".547" stop-color="#6ffd43"/><stop offset=".747" stop-color="#46fe42"/><stop offset=".904" stop-color="#2dfe41"/><stop offset="1" stop-color="#24fe41"/></linearGradient><linearGradient id="C" x1="792.956" y1="547.977" x2="1045.956" y2="547.977" gradientUnits="userSpaceOnUse"><stop offset="0" stop-color="#8e9eab"/><stop offset=".18" stop-color="#a5b2bb"/><stop offset=".541" stop-color="#cdd4d8"/><stop offset=".826" stop-color="#e6e9ea"/><stop offset="1" stop-color="#eff1f1"/></linearGradient><linearGradient id="D" x1="41.134" y1="910.507" x2="148.389" y2="910.507" xlink:href="#B"/><path id="E" d="M104.714 1045.51a1.36 1.36 0 0 1-1.4-1.101 7.763 7.763 0 0 1-4.804 1.668 7.666 7.666 0 0 1-7.604-7.605v-9.24a1.434 1.434 0 0 1 2.868-.033v9.272a4.753 4.753 0 1 0 9.507 0v-9.24a1.33 1.33 0 0 1 1.4-1.468 1.364 1.364 0 0 1 1.435 1.435v14.9a1.328 1.328 0 0 1-1.401 1.4z"/><path id="F" d="M772.297 1046.352c-1.2 0-3.22-.42-3.92-1.58a.486.486 0 0 1-.08-.301.546.546 0 0 1 1.021-.32 3.808 3.808 0 0 0 2.98 1.061c1.94 0 2.92-.64 2.92-1.94 0-3.02-6.562-1.422-6.562-5.422 0-2.02 2.02-2.8 3.84-2.8a5.415 5.415 0 0 1 3.44 1.16.56.56 0 0 1 .18.381.649.649 0 0 1-.62.6.535.535 0 0 1-.38-.16 4.001 4.001 0 0 0-2.62-.84c-1.76 0-2.7.68-2.7 1.66 0 2.8 6.562 1.32 6.562 5.422 0 2.28-2 3.08-4.06 3.08z"/><path id="G" d="M783.018 1046.31c-3.22 0-5.02-2.64-5.02-5.66 0-3.002 1.8-5.64 5.02-5.64s5.02 2.64 5.02 5.64c0 3.02-1.8 5.66-5.02 5.66zm0-10.162c-2.36 0-3.88 1.9-3.88 4.502s1.52 4.52 3.88 4.52c2.38 0 3.88-1.922 3.88-4.52s-1.5-4.502-3.88-4.502z"/><path id="H" d="M798.798 1045.972a.562.562 0 0 1-.58-.561v-.64a4.441 4.441 0 0 1-3.421 1.539 4.61 4.61 0 0 1-4.561-4.561v-5.842a.57.57 0 0 1 1.14 0v5.842a3.421 3.421 0 1 0 6.842 0v-5.842a.57.57 0 0 1 1.141 0v9.502a.558.558 0 0 1-.561.561z"/><path id="I" d="M806.757 1036.33a3.418 3.418 0 0 0-3.421 3.42v5.66a.57.57 0 0 1-1.141 0v-9.502a.57.57 0 0 1 1.141 0v.82a4.564 4.564 0 0 1 3.421-1.539.57.57 0 1 1 0 1.141z"/><path id="J" d="M816.938 1044.792a4.644 4.644 0 0 1-3.58 1.52c-3.22 0-5.02-2.64-5.02-5.66 0-3.002 1.8-5.64 5.02-5.64a4.644 4.644 0 0 1 3.58 1.52.528.528 0 0 1 .16.381.628.628 0 0 1-.58.6.589.589 0 0 1-.42-.201 3.526 3.526 0 0 0-2.74-1.16c-2.36 0-3.88 1.9-3.88 4.502s1.52 4.52 3.88 4.52a3.599 3.599 0 0 0 2.74-1.16.567.567 0 0 1 1 .379.574.574 0 0 1-.16.4z"/><path id="K" d="M861.295 1033.43a1.14 1.14 0 1 1 1.141-1.139 1.127 1.127 0 0 1-1.141 1.139zm0 12.543a.55.55 0 0 1-.58-.561v-9.502a.55.55 0 0 1 .58-.559.545.545 0 0 1 .561.559v9.502a.535.535 0 0 1-.561.561z"/><path id="L" d="M966.016 1045.972h-.02a2.071 2.071 0 0 1-1.98-1.561 4.533 4.533 0 0 1-3.88 1.9c-3.26 0-5.02-2.68-5.02-5.66 0-3.02 1.8-5.64 5.02-5.64a4.571 4.571 0 0 1 3.88 1.879v-.98a.564.564 0 0 1 .581-.559.545.545 0 0 1 .56.559v8.063c0 1.28 1.44.48 1.44 1.44a.549.549 0 0 1-.58.561zm-5.88-9.822c-2.36 0-3.88 1.9-3.88 4.502s1.52 4.52 3.88 4.52c2.38 0 3.88-1.922 3.88-4.52s-1.5-4.502-3.88-4.502z"/><path id="M" d="M970.394 1046.093a2.097 2.097 0 0 1-1.98-2.121V1032.3a.57.57 0 0 1 1.141 0v11.682c0 1.28 1.42.54 1.42 1.44a.646.646 0 0 1-.58.682z"/><path id="N" d="M47.275 243.783c-9.404 0-10.26-9.63-10.26-16.784 0-8.414 1.8-16.83 10.26-16.83a9.379 9.379 0 0 1 8.325 4.5 1.008 1.008 0 0 1 .27.765 1.367 1.367 0 0 1-1.35 1.215 1.202 1.202 0 0 1-1.035-.585 7.074 7.074 0 0 0-6.21-3.33c-5.67 0-7.694 5.4-7.694 14.22v.765a9.811 9.811 0 1 1 7.694 16.064zm0-17.324a7.5 7.5 0 0 0-7.199 7.65c.8 3.78 2.61 7.11 7.2 7.11a7.387 7.387 0 0 0 0-14.76z"/><path id="O" d="M131.198 221.33a7.691 7.691 0 0 0-7.694 7.695v12.734a1.283 1.283 0 0 1-2.565 0v-21.374a1.283 1.283 0 0 1 2.565 0v1.845a10.273 10.273 0 0 1 7.694-3.465 1.282 1.282 0 1 1 0 2.564z"/><path id="P" d="M157.334 243.018h-.045a4.659 4.659 0 0 1-4.455-3.51 10.207 10.207 0 0 1-8.729 4.274c-7.335 0-11.295-6.03-11.295-12.734 0-6.795 4.05-12.69 11.295-12.69a10.286 10.286 0 0 1 8.729 4.23v-2.205a1.268 1.268 0 0 1 1.305-1.26 1.228 1.228 0 0 1 1.261 1.26v18.134c0 2.88 3.24 1.08 3.24 3.24a1.238 1.238 0 0 1-1.305 1.26zm-13.23-22.094c-5.3 0-8.73 4.274-8.73 10.124s3.42 10.17 8.73 10.17c5.354 0 8.73-4.32 8.73-10.17s-3.375-10.124-8.73-10.124z"/><path id="Q" d="M188.464 936.782h-1.395c-3.555 0-5.3-1.754-5.3-5.264v-16.064h-2.295a1.282 1.282 0 0 1 0-2.564h2.295v-6.885a1.266 1.266 0 0 1 1.305-1.262 1.229 1.229 0 0 1 1.26 1.262v6.885h4.14a1.282 1.282 0 0 1 0 2.564h-4.14v16.064c0 2.205.63 2.7 2.745 2.7h1.395a1.282 1.282 0 0 1 0 2.564z"/><path id="R" d="M212.18 936.782a1.264 1.264 0 0 1-1.306-1.26v-13.14a7.694 7.694 0 1 0-15.389 0v13.14a1.283 1.283 0 0 1-2.565 0v-29.518a1.283 1.283 0 0 1 2.565 0v9.584a9.994 9.994 0 0 1 7.694-3.465 10.343 10.343 0 0 1 10.26 10.26v13.14a1.254 1.254 0 0 1-1.26 1.26z"/><path id="S" d="M275.313 937.638c-2.7 0-7.244-.945-8.82-3.555a1.09 1.09 0 0 1-.18-.676 1.227 1.227 0 0 1 2.295-.719c1.62 1.98 4.5 2.385 6.704 2.385 4.365 0 6.57-1.44 6.57-4.365 0-6.795-14.76-3.195-14.76-12.195 0-4.545 4.545-6.3 8.64-6.3 2.34 0 5.94.81 7.74 2.61a1.258 1.258 0 0 1 .405.855 1.458 1.458 0 0 1-1.395 1.35 1.194 1.194 0 0 1-.855-.359c-1.395-1.35-3.915-1.89-5.895-1.89-3.96 0-6.075 1.53-6.075 3.734 0 6.3 14.76 2.97 14.76 12.195 0 5.13-4.5 6.93-9.135 6.93z"/><path id="T" d="M321.887 936.782h-.045a4.658 4.658 0 0 1-4.455-3.51 10.206 10.206 0 0 1-8.729 4.275c-7.335 0-11.295-6.03-11.295-12.734 0-6.795 4.05-12.69 11.295-12.69a10.284 10.284 0 0 1 8.729 4.23v-2.205a1.268 1.268 0 0 1 1.305-1.26 1.228 1.228 0 0 1 1.261 1.26v18.133c0 2.88 3.24 1.08 3.24 3.24a1.237 1.237 0 0 1-1.305 1.26zm-13.23-22.094c-5.3 0-8.73 4.275-8.73 10.125s3.42 10.17 8.73 10.17c5.354 0 8.73-4.32 8.73-10.17s-3.375-10.125-8.73-10.125z"/><path id="U" d="M363.692 937.548c-7.245 0-11.295-5.94-11.295-12.734 0-6.75 4.05-12.69 11.295-12.69s11.295 5.94 11.295 12.69c0 6.795-4.05 12.734-11.295 12.734zm0-22.86c-5.3 0-8.73 4.275-8.73 10.125s3.42 10.17 8.73 10.17c5.354 0 8.73-4.32 8.73-10.17s-3.375-10.125-8.73-10.125z"/><path id="V" d="M410.99 228.368a4.786 4.786 0 0 0-4.788 4.788v7.924a.798.798 0 0 1-1.596 0v-13.3a.798.798 0 0 1 1.596 0v1.148a6.395 6.395 0 0 1 4.788-2.156.798.798 0 1 1 0 1.596z"/><path id="W" d="M425.518 235.228h-11.62c.252 3.19 2.324 5.516 5.376 5.516a5.06 5.06 0 0 0 4.116-1.932.734.734 0 0 1 .672-.393.856.856 0 0 1 .868.757c0 .252 0 .308-.532.924a6.611 6.611 0 0 1-5.124 2.239c-4.508 0-7.027-3.695-7.027-7.924 0-4.2 2.52-7.896 7.027-7.896s7.028 3.724 7.028 7.896a.848.848 0 0 1-.784.812zm-6.244-7.112c-3.36 0-5.124 2.576-5.376 5.516h10.78c-.252-3.19-2.324-5.516-5.404-5.516z"/><path id="X" d="M441.952 241.864a.787.787 0 0 1-.812-.784v-1.4a6.355 6.355 0 0 1-5.433 2.659c-4.508 0-7.027-3.695-7.027-7.924 0-4.2 2.52-7.896 7.027-7.896a6.403 6.403 0 0 1 5.433 2.632v-6.44a.798.798 0 0 1 1.596 0v18.368a.781.781 0 0 1-.784.784zm-6.244-13.748c-3.304 0-5.432 2.66-5.432 6.3s2.128 6.328 5.432 6.328c3.332 0 5.433-2.687 5.433-6.328s-2.1-6.3-5.433-6.3z"/><path id="Y" d="M458.137 241.864a.787.787 0 0 1-.812-.784v-.896a6.218 6.218 0 0 1-4.788 2.155 6.454 6.454 0 0 1-6.384-6.384v-8.176a.798.798 0 0 1 1.596 0v8.176a4.788 4.788 0 1 0 9.576 0v-8.176a.798.798 0 0 1 1.596 0v13.3a.781.781 0 0 1-.783.784z"/><path id="Z" d="M498.37 242.396c-1.68 0-4.508-.588-5.487-2.212a.675.675 0 0 1-.112-.42.764.764 0 0 1 1.428-.448c1.008 1.23 2.8 1.483 4.172 1.483 2.717 0 4.088-.895 4.088-2.716 0-4.228-9.184-1.987-9.184-7.588 0-2.828 2.828-3.92 5.376-3.92a7.587 7.587 0 0 1 4.816 1.624.784.784 0 0 1 .252.532.908.908 0 0 1-.868.84.742.742 0 0 1-.532-.224 5.599 5.599 0 0 0-3.668-1.177c-2.464 0-3.78.952-3.78 2.324 0 3.92 9.185 1.85 9.185 7.588 0 3.192-2.8 4.313-5.685 4.313z"/><path id="a" d="M525.308 228.116l-7.588 17.948a2.898 2.898 0 0 1-2.996 1.68h-1.232a.798.798 0 0 1 0-1.596h1.232c.616 0 1.26-.028 1.512-.672l1.596-3.81-5.796-13.552a.894.894 0 0 1-.056-.364.783.783 0 0 1 .812-.756.719.719 0 0 1 .7.477l5.208 12.15 5.152-12.15a.73.73 0 0 1 .728-.477.76.76 0 0 1 .784.756.894.894 0 0 1-.056.364z"/><path id="b" d="M533.398 242.34c-4.508 0-7.027-3.695-7.027-7.924 0-4.2 2.52-7.896 7.027-7.896s7.028 3.695 7.028 7.896c0 4.23-2.52 7.924-7.028 7.924zm0-14.224c-3.304 0-5.432 2.66-5.432 6.3s2.128 6.328 5.432 6.328c3.332 0 5.433-2.687 5.433-6.328s-2.1-6.3-5.433-6.3z"/><path id="c" d="M584.862 224.31a1.596 1.596 0 1 1 1.596-1.597 1.578 1.578 0 0 1-1.596 1.597zm0 17.556a.77.77 0 0 1-.812-.784v-13.3a.772.772 0 0 1 .813-.784.762.762 0 0 1 .783.784v13.3a.749.749 0 0 1-.783.784z"/><path id="d" d="M746.446 242.34a6.355 6.355 0 0 1-5.433-2.659v7.252a.798.798 0 1 1-1.596 0V227.78a.798.798 0 0 1 1.596 0v1.372a6.403 6.403 0 0 1 5.433-2.632c4.508 0 7.027 3.695 7.027 7.896 0 4.23-2.52 7.924-7.027 7.924zm0-14.224c-3.332 0-5.433 2.66-5.433 6.3s2.1 6.328 5.433 6.328 5.432-2.687 5.432-6.328-2.1-6.3-5.432-6.3z"/><path id="e" d="M930.628 242.34a6.355 6.355 0 0 1-5.433-2.659v1.4a.798.798 0 0 1-1.596 0v-18.368a.798.798 0 0 1 1.596 0v6.44a6.403 6.403 0 0 1 5.433-2.632c4.508 0 7.027 3.695 7.027 7.896 0 4.23-2.52 7.924-7.027 7.924zm0-14.224c-3.332 0-5.433 2.66-5.433 6.3s2.1 6.328 5.433 6.328 5.432-2.687 5.432-6.328-2.1-6.3-5.432-6.3z"/><path id="f" d="M334.655 80.116a6.122 6.122 0 0 1-6-6.119v-34.14a2.58 2.58 0 0 1 5.16-.061v34.2a.946.946 0 0 0 .84 1.02 2.55 2.55 0 1 1 0 5.1z"/><path id="g" d="M409.352 81.017c-9.66 0-15.06-7.92-15.06-16.98 0-9 5.4-16.92 15.06-16.92s15.06 7.92 15.06 16.92c0 9.06-5.4 16.98-15.06 16.98zm0-28.8c-6 0-9.9 4.68-9.9 11.82 0 7.2 3.9 11.88 9.9 11.88 6.06 0 9.9-4.68 9.9-11.88 0-7.14-3.84-11.82-9.9-11.82z"/><path id="h" d="M643.345 52.218a8.645 8.645 0 0 0-8.521 8.58v16.62a2.501 2.501 0 0 1-2.64 2.58 2.457 2.457 0 0 1-2.52-2.521v-26.76a2.542 2.542 0 0 1 2.52-2.58 2.463 2.463 0 0 1 2.58 2.04 13.874 13.874 0 0 1 8.58-3.06 2.551 2.551 0 1 1 0 5.1z"/><path id="i" d="M828.257 66.677h-22.2c.84 5.64 4.44 9.24 9.72 9.24a9.009 9.009 0 0 0 7.14-3.12 2.481 2.481 0 0 1 1.859-.96 2.8 2.8 0 0 1 2.7 2.641c0 .72-.18 1.26-1.44 2.52a14.619 14.619 0 0 1-10.259 4.02c-9.66 0-15.06-7.98-15.06-16.98 0-8.94 5.4-16.92 15.06-16.92 9.78 0 15 7.98 15 16.92a2.558 2.558 0 0 1-2.52 2.64zm-12.48-14.46c-5.64 0-8.94 4.14-9.72 9.3h19.438c-.84-5.76-4.44-9.3-9.72-9.3z"/><path id="j" d="M121.357 127.878h-22.2c.84 5.64 4.44 9.238 9.72 9.238a9.002 9.002 0 0 0 7.14-3.119 2.486 2.486 0 0 1 1.86-.96 2.8 2.8 0 0 1 2.7 2.64c0 .72-.18 1.26-1.44 2.52a14.62 14.62 0 0 1-10.26 4.021c-9.66 0-15.06-7.98-15.06-16.98 0-8.94 5.4-16.92 15.06-16.92 9.78 0 15 7.98 15 16.92a2.559 2.559 0 0 1-2.521 2.641zm-12.48-14.46c-5.64 0-8.94 4.14-9.72 9.3h19.44c-.84-5.76-4.44-9.3-9.72-9.3z"/><path id="k" d="M171.336 112.938l-16.2 36.838a6.876 6.876 0 0 1-6.6 4.02h-1.92a2.42 2.42 0 0 1-2.521-2.64 2.387 2.387 0 0 1 2.521-2.521h1.86c.78 0 1.62-.12 1.98-.96l3.96-8.88-11.7-25.858a2.175 2.175 0 0 1-.3-1.141 2.705 2.705 0 0 1 2.76-2.52 2.31 2.31 0 0 1 2.16 1.56l9.78 21.72 9.54-21.72a2.375 2.375 0 0 1 2.22-1.5 2.66 2.66 0 0 1 2.76 2.46 2.036 2.036 0 0 1-.3 1.141z"/><path id="l" d="M552.858 127.878h-22.2c.84 5.64 4.44 9.238 9.72 9.238a9.005 9.005 0 0 0 7.14-3.119 2.484 2.484 0 0 1 1.859-.96 2.8 2.8 0 0 1 2.7 2.64c0 .72-.18 1.26-1.44 2.52a14.616 14.616 0 0 1-10.259 4.021c-9.66 0-15.06-7.98-15.06-16.98 0-8.94 5.4-16.92 15.06-16.92 9.78 0 15 7.98 15 16.92a2.558 2.558 0 0 1-2.52 2.641zm-12.48-14.46c-5.64 0-8.94 4.14-9.72 9.3h19.438c-.84-5.76-4.44-9.3-9.72-9.3z"/><path id="m" d="M602.538 141.196h-1.02c-5.7 0-7.86-3-7.86-7.92v-18.838h-1.8a2.55 2.55 0 0 1-.061-5.101h1.8V101a2.436 2.436 0 0 1 2.579-2.52 2.39 2.39 0 0 1 2.521 2.52v8.34h3.84a2.487 2.487 0 0 1 2.52 2.521 2.441 2.441 0 0 1-2.52 2.58h-3.84v19.38c0 1.68.6 2.28 2.28 2.28h1.5a2.475 2.475 0 0 1 2.58 2.52 2.44 2.44 0 0 1-2.52 2.58z"/></defs><rect width="1080" height="1080" rx="40" fill="url(#A)"/><g opacity=".33" fill="#fff"><path d="M42.328 1046.045a7.892 7.892 0 0 1-5.503-2.002 1.364 1.364 0 0 1-1.468 1.401 1.346 1.346 0 0 1-1.401-1.401v-20.88a1.435 1.435 0 0 1 2.869-.033v6.238a7.4 7.4 0 0 1 5.503-2.169c5.37 0 8.373 4.403 8.373 9.406 0 5.037-3.002 9.44-8.373 9.44zm0-16c-3.335 0-5.503 2.602-5.503 6.57 0 4.003 2.168 6.604 5.503 6.604s5.504-2.602 5.504-6.604c0-3.97-2.168-6.57-5.504-6.57zm25.555 8.037h-12.34c.467 3.136 2.468 5.137 5.403 5.137a5.003 5.003 0 0 0 3.969-1.734 1.383 1.383 0 0 1 1.034-.533 1.556 1.556 0 0 1 1.501 1.468c0 .4-.1.7-.8 1.4a8.129 8.129 0 0 1-5.704 2.235c-5.37 0-8.372-4.437-8.372-9.44 0-4.97 3.002-9.406 8.372-9.406 5.437 0 8.34 4.437 8.34 9.406a1.422 1.422 0 0 1-1.401 1.468zm-6.937-8.038c-3.136 0-4.97 2.3-5.403 5.17H66.35c-.467-3.202-2.468-5.17-5.403-5.17zM88 1045.478a3.247 3.247 0 0 1-2.969-1.901 7.642 7.642 0 0 1-5.87 2.469c-5.437 0-8.372-4.47-8.372-9.44s3.002-9.406 8.372-9.406a7.369 7.369 0 0 1 5.504 2.202v-.134a1.376 1.376 0 0 1 1.4-1.501 1.341 1.341 0 0 1 1.468 1.401v12.875a.54.54 0 0 0 .467.601 1.418 1.418 0 1 1 0 2.835zm-8.84-15.443c-3.336 0-5.504 2.602-5.504 6.57 0 4.003 2.168 6.604 5.504 6.604 3.37 0 5.504-2.602 5.504-6.604 0-3.97-2.135-6.57-5.504-6.57z"/><use xlink:href="#E"/><path d="M115.158 1045.478h-.567c-3.17 0-4.37-1.668-4.37-4.403V1030.6h-1a1.418 1.418 0 1 1-.033-2.835h1v-4.637a1.355 1.355 0 0 1 1.435-1.4 1.328 1.328 0 0 1 1.401 1.4v4.637h2.135a1.383 1.383 0 0 1 1.4 1.401 1.356 1.356 0 0 1-1.4 1.434h-2.135v10.774c0 .934.333 1.268 1.268 1.268h.833a1.376 1.376 0 0 1 1.435 1.4 1.357 1.357 0 0 1-1.4 1.435zm4.604-20.415a2.401 2.401 0 1 1 2.402-2.401 2.392 2.392 0 0 1-2.402 2.401zm0 20.414a1.4 1.4 0 0 1-1.467-1.401V1029.2a1.408 1.408 0 0 1 1.467-1.435 1.374 1.374 0 0 1 1.401 1.435v14.876a1.346 1.346 0 0 1-1.401 1.401zm10.376-14.877h-1.5v13.442a1.364 1.364 0 0 1-1.468 1.401 1.346 1.346 0 0 1-1.401-1.401V1030.6h-1.37a1.418 1.418 0 0 1 0-2.835h1.367v-2.27a3.801 3.801 0 0 1 3.836-3.769 1.418 1.418 0 1 1 0 2.835.934.934 0 0 0-.967.9v2.302h1.5a1.418 1.418 0 1 1 0 2.835z"/><use xlink:href="#E" x="42.068"/><path d="M154.725 1045.544a3.403 3.403 0 0 1-3.336-3.402v-18.98a1.435 1.435 0 0 1 2.869-.033v19.013a.527.527 0 0 0 .467.567 1.418 1.418 0 1 1 0 2.835zm15.37-.066v-1.264c1.886-.237 2.046-.437 2.046-3.157v-6.7c0-2.8-1.248-4.017-3.064-4.017a5.597 5.597 0 0 0-3.47 1.493v9.476c0 2.527.187 2.658 2.06 2.896v1.264h-8.968v-1.264c2.254-.33 2.5-.4 2.5-3v-8.2c0-2.446-.303-2.565-2.185-2.922v-1.184a34.101 34.101 0 0 0 6.653-1.533l-.052 2.95 2.6-1.745a5.659 5.659 0 0 1 3.159-1.086c3.194 0 5.2 2.338 5.2 6.3v7.5c0 2.54.237 2.657 2.277 2.92v1.264zm23.9-3.703c-2.458 3.427-5.488 4.178-7.014 4.178-5.142 0-8.124-3.936-8.124-8.594a10.333 10.333 0 0 1 2.832-7.062 8.602 8.602 0 0 1 6.082-2.814 6.386 6.386 0 0 1 6.37 6.347c-.014.715-.08 1.277-.612 1.4-.767.184-6.17.5-10.318.647.062 4.587 2.717 6.74 5.556 6.74a6.776 6.776 0 0 0 4.543-1.866zm-7.07-12.7c-1.667 0-3.167 1.807-3.516 4.963l5.486-.118c.6-.026.848-.146.848-.792.04-2.022-1.037-4.053-2.818-4.053zm34.284.145c-1.943.343-2.248.624-3.105 2.765-1.33 3.462-3.102 8.53-4.934 13.94h-1.512l-4.65-11.46-4.55 11.46h-1.472l-4.685-14.192c-.687-1.985-.94-2.274-2.855-2.512v-1.25h9.397v1.25c-2.325.345-2.535.672-2.058 2.133l2.52 8.214c1.507-3.68 2.988-7.62 4.327-11.424h1.456c1.4 3.76 2.986 7.702 4.573 11.568.742-2.107 2.062-5.964 2.557-8.108.412-1.674-.008-2.078-2.753-2.383v-1.25h7.742zm9.4 3.746c-.92-2.606-2.155-3.984-4.2-3.984a2.166 2.166 0 0 0-2.225 2.266c0 1.497 1.046 2.264 3.16 3.216 3.278 1.496 5.3 2.787 5.3 5.736 0 3.85-3.6 5.764-6.945 5.764a12.073 12.073 0 0 1-4.92-1.161l-.662-4.892 1.252-.224c.8 2.5 2.33 4.75 4.976 4.75a2.231 2.231 0 0 0 2.438-2.281c0-1.423-.76-2.333-3.092-3.467-2.67-1.295-5.107-2.64-5.107-5.775 0-3.046 2.533-5.42 6.565-5.42a18.751 18.751 0 0 1 4.112.567l.62 4.577z"/></g><g opacity=".5" fill="#fff"><use xlink:href="#F"/><use xlink:href="#G"/><use xlink:href="#H"/><use xlink:href="#I"/><use xlink:href="#J"/><path d="M828.518 1041.23h-8.302c.18 2.28 1.66 3.94 3.84 3.94a3.615 3.615 0 0 0 2.94-1.381.524.524 0 0 1 .48-.281.611.611 0 0 1 .62.541c0 .18 0 .22-.38.66a4.722 4.722 0 0 1-3.66 1.6c-3.22 0-5.02-2.64-5.02-5.66 0-3.002 1.8-5.64 5.02-5.64s5.02 2.66 5.02 5.64a.607.607 0 0 1-.56.58zm-4.46-5.082c-2.4 0-3.66 1.842-3.84 3.94h7.7c-.18-2.28-1.66-3.94-3.86-3.94zm8.437 3.262a1.141 1.141 0 1 1 0-2.281 1.141 1.141 0 0 1 0 2.281zm0 6.56a1.14 1.14 0 1 1 0-2.279 1.14 1.14 0 0 1 0 2.279zm15.122.002h-5.802a.605.605 0 0 1-.58-.561v-13.12a.495.495 0 0 1 .52-.561h5.42a3.616 3.616 0 0 1 3.601 3.561 3.472 3.472 0 0 1-1.42 2.861 4.099 4.099 0 0 1-1.74 7.82zm-.44-13.123h-4.8v4.922h4.8a2.461 2.461 0 1 0 0-4.922zm.44 6.063h-5.24v5.92h5.24a2.96 2.96 0 1 0 0-5.92z"/><use xlink:href="#I" x="51.92"/><use xlink:href="#K"/><path d="M868.356 1045.972h-.62a2.074 2.074 0 0 1-2.36-2.34v-7.143h-1.02a.569.569 0 0 1 0-1.139h1.02v-3.06a.562.562 0 0 1 .58-.561.546.546 0 0 1 .56.561v3.06h1.84a.569.569 0 0 1 0 1.139h-1.84v7.143c0 .98.28 1.2 1.22 1.2h.62a.563.563 0 0 1 .56.58.557.557 0 0 1-.56.561z"/><use xlink:href="#K" x="10.02"/><use xlink:href="#F" x="105.759"/><path d="M892.777 1045.972a.562.562 0 0 1-.58-.561v-5.84a3.421 3.421 0 1 0-6.841 0v5.84a.57.57 0 0 1-1.141 0v-13.12a.57.57 0 0 1 1.141 0v4.26a4.441 4.441 0 0 1 3.421-1.539 4.596 4.596 0 0 1 4.561 4.561v5.84a.557.557 0 0 1-.561.561zm20.32 0a.546.546 0 0 1-.561-.561v-10.86l-4.76 8.842a.528.528 0 0 1-.46.359.618.618 0 0 1-.541-.359l-4.74-8.842v10.86a.57.57 0 0 1-1.141 0v-13.12a.58.58 0 0 1 .601-.561.523.523 0 0 1 .479.279l5.302 9.902 5.32-9.902a.545.545 0 0 1 .48-.279.58.58 0 0 1 .601.561v13.12a.562.562 0 0 1-.58.561zm12.44-4.742h-8.302c.18 2.28 1.66 3.94 3.84 3.94a3.615 3.615 0 0 0 2.94-1.381.524.524 0 0 1 .479-.281.611.611 0 0 1 .62.541c0 .18 0 .22-.38.66a4.722 4.722 0 0 1-3.66 1.6c-3.22 0-5.02-2.64-5.02-5.66 0-3.002 1.8-5.64 5.02-5.64s5.02 2.66 5.02 5.64a.607.607 0 0 1-.56.58zm-4.46-5.082c-2.4 0-3.66 1.842-3.84 3.94h7.7c-.18-2.28-1.66-3.94-3.86-3.94zm16.42 9.824a.562.562 0 0 1-.581-.561v-1a4.533 4.533 0 0 1-3.88 1.9c-3.22 0-5.02-2.64-5.02-5.66 0-3.002 1.8-5.64 5.02-5.64a4.571 4.571 0 0 1 3.88 1.879v-4.6a.57.57 0 0 1 1.141 0v13.12a.557.557 0 0 1-.56.561zm-4.46-9.822c-2.36 0-3.88 1.9-3.88 4.502s1.52 4.52 3.88 4.52c2.38 0 3.88-1.922 3.88-4.52s-1.5-4.502-3.88-4.502z"/><use xlink:href="#K" x="80.179"/><use xlink:href="#J" x="136.078"/><use xlink:href="#L"/><use xlink:href="#M"/><path d="M981.195 1046.253a3.6 3.6 0 0 1-3.621-3.582.58.58 0 1 1 1.16 0 2.433 2.433 0 0 0 2.421 2.441 2.459 2.459 0 0 0 2.48-2.441v-10.38a.546.546 0 0 1 .56-.561.562.562 0 0 1 .581.561v10.38a3.604 3.604 0 0 1-3.581 3.582z"/><use xlink:href="#G" x="209.157"/><use xlink:href="#H" x="209.156"/><use xlink:href="#I" x="209.157"/><path d="M1026.514 1045.972a.562.562 0 0 1-.58-.561v-5.84a3.42 3.42 0 1 0-6.841 0v5.84a.57.57 0 0 1-1.141 0v-9.502a.57.57 0 0 1 1.141 0v.64a4.564 4.564 0 0 1 7.981 3.021v5.84a.557.557 0 0 1-.561.561z"/><use xlink:href="#L" x="74.159"/><use xlink:href="#M" x="74.159"/></g><g fill="#b9fd43"><use xlink:href="#N"/><use xlink:href="#N" x="22.859"/><path d="M104.154 253.278c-3.825 0-9.225-1.44-9.225-3.06a1.428 1.428 0 0 1 1.305-1.44 16.172 16.172 0 0 1 2.385 1.08 16.862 16.862 0 0 0 5.535.854c5.76 0 8.73-2.835 8.73-8.37v-3.15a10.743 10.743 0 0 1-8.73 3.825c-7.11 0-11.295-5.04-11.295-11.97 0-6.75 4.05-12.69 11.295-12.69a10.286 10.286 0 0 1 8.73 4.23v-2.16a1.283 1.283 0 0 1 2.565 0v21.914c0 7.154-4.275 10.935-11.295 10.935zm0-32.354c-5.3 0-8.73 4.274-8.73 10.124 0 5.805 3.194 9.405 8.73 9.405s8.73-3.6 8.73-9.405c0-5.85-3.375-10.124-8.73-10.124z"/><use xlink:href="#O"/><use xlink:href="#P"/><path d="M191.128 243.018a1.228 1.228 0 0 1-1.26-1.26v-15.12a5.738 5.738 0 0 0-11.475-.046v15.165a1.228 1.228 0 0 1-1.26 1.26 1.266 1.266 0 0 1-1.306-1.26v-15.12a5.715 5.715 0 0 0-11.429-.046v15.165a1.283 1.283 0 0 1-2.565 0v-21.374a1.283 1.283 0 0 1 2.565 0v.27a8.178 8.178 0 0 1 5.714-2.295 8.348 8.348 0 0 1 7.02 3.825 8.306 8.306 0 0 1 15.299 4.409v15.165a1.265 1.265 0 0 1-1.305 1.26zm13.905.855c-2.7 0-7.244-.944-8.82-3.555a1.087 1.087 0 0 1-.18-.675 1.228 1.228 0 0 1 2.295-.72c1.62 1.98 4.5 2.385 6.704 2.385 4.365 0 6.57-1.44 6.57-4.365 0-6.794-14.76-3.194-14.76-12.194 0-4.545 4.545-6.3 8.64-6.3 2.34 0 5.94.8 7.74 2.6a1.256 1.256 0 0 1 .405.854 1.459 1.459 0 0 1-1.395 1.351 1.191 1.191 0 0 1-.855-.36c-1.395-1.35-3.915-1.9-5.895-1.9-3.96 0-6.075 1.53-6.075 3.734 0 6.3 14.76 2.97 14.76 12.194 0 5.13-4.5 6.93-9.135 6.93zm34.38-.1a10.207 10.207 0 0 1-8.729-4.274v11.654a1.283 1.283 0 1 1-2.565 0v-30.778a1.283 1.283 0 0 1 2.565 0v2.205a10.286 10.286 0 0 1 8.729-4.23c7.244 0 11.294 5.94 11.294 12.7 0 6.795-4.05 12.734-11.294 12.734zm0-22.858c-5.355 0-8.73 4.274-8.73 10.124s3.374 10.17 8.73 10.17 8.73-4.32 8.73-10.17-3.375-10.124-8.73-10.124zm36.044 11.428h-18.674c.405 5.13 3.734 8.865 8.64 8.865 2.43 0 5.3-1.08 6.614-3.105a1.183 1.183 0 0 1 1.08-.63 1.376 1.376 0 0 1 1.396 1.216c0 .404 0 .494-.855 1.484a10.623 10.623 0 0 1-8.234 3.6c-7.245 0-11.295-5.94-11.295-12.734 0-6.75 4.05-12.7 11.295-12.7s11.295 5.985 11.295 12.7a1.363 1.363 0 0 1-1.261 1.305zm-10.034-11.43c-5.4 0-8.234 4.14-8.64 8.864h17.324c-.405-5.13-3.734-8.864-8.685-8.864z"/><use xlink:href="#O" x="160.235"/><path d="M325.54 243.018a1.265 1.265 0 0 1-1.305-1.26v-2.25a10.207 10.207 0 0 1-8.729 4.274c-7.245 0-11.295-5.94-11.295-12.734 0-6.75 4.05-12.69 11.295-12.69a10.286 10.286 0 0 1 8.729 4.23v-10.35a1.283 1.283 0 0 1 2.565 0v29.52a1.255 1.255 0 0 1-1.261 1.26zm-10.034-22.094c-5.3 0-8.73 4.274-8.73 10.124s3.42 10.17 8.73 10.17c5.354 0 8.73-4.32 8.73-10.17s-3.375-10.124-8.73-10.124z"/><use xlink:href="#P" x="198.446"/><path d="M379.676 220.925l-12.194 28.844c-.9 2.114-2.745 2.7-4.815 2.7h-1.98a1.282 1.282 0 0 1 0-2.564h1.98c1 0 2.025-.045 2.43-1.08l2.565-6.12-9.314-21.778a1.434 1.434 0 0 1-.09-.585 1.258 1.258 0 0 1 1.305-1.215 1.156 1.156 0 0 1 1.125.765l8.37 19.53 8.28-19.53a1.173 1.173 0 0 1 1.17-.765 1.219 1.219 0 0 1 1.26 1.215 1.434 1.434 0 0 1-.09.585z"/></g><g fill="#fff"><use xlink:href="#Q"/><use xlink:href="#R"/><path d="M242.014 936.782h-.045a4.657 4.657 0 0 1-4.455-3.51 10.206 10.206 0 0 1-8.73 4.275c-7.335 0-11.295-6.03-11.295-12.734 0-6.795 4.05-12.69 11.295-12.69a10.284 10.284 0 0 1 8.73 4.23v-2.205a1.268 1.268 0 0 1 1.305-1.26 1.228 1.228 0 0 1 1.261 1.26v18.133c0 2.88 3.24 1.08 3.24 3.24a1.237 1.237 0 0 1-1.305 1.26zm-13.23-22.094c-5.3 0-8.73 4.275-8.73 10.125s3.42 10.17 8.73 10.17c5.355 0 8.73-4.32 8.73-10.17s-3.375-10.125-8.73-10.125z"/><use xlink:href="#Q" x="66.284"/><path d="M259.114 914.06a1.496 1.496 0 0 1-.675.225 1.445 1.445 0 0 1-1.26-1.531c0-.988 2.564-1.215 2.564-4.094v-3.42a1.279 1.279 0 0 1 1.26-1.35 1.314 1.314 0 0 1 1.305 1.35v3.42a6.414 6.414 0 0 1-3.194 5.4z"/><use xlink:href="#S"/><use xlink:href="#T"/><path d="M337.683 937.548a10.206 10.206 0 0 1-8.729-4.275v2.25a1.283 1.283 0 0 1-2.565 0v-29.518a1.283 1.283 0 0 1 2.565 0v10.35a10.284 10.284 0 0 1 8.729-4.23c7.244 0 11.294 5.94 11.294 12.69 0 6.795-4.05 12.734-11.294 12.734zm0-22.86c-5.355 0-8.73 4.275-8.73 10.125s3.374 10.17 8.73 10.17 8.73-4.32 8.73-10.17-3.375-10.125-8.73-10.125z"/><use xlink:href="#U"/><path d="M398.296 936.782a1.264 1.264 0 0 1-1.305-1.26v-1.44a9.996 9.996 0 0 1-7.695 3.465 10.373 10.373 0 0 1-10.26-10.26v-13.14a1.283 1.283 0 0 1 2.565 0v13.14a7.695 7.695 0 1 0 15.39 0v-13.14a1.282 1.282 0 0 1 2.564 0v21.373a1.254 1.254 0 0 1-1.26 1.26z"/><use xlink:href="#Q" x="224.816"/><path d="M436.095 936.782H434.7c-3.555 0-5.3-1.754-5.3-5.264v-16.064h-2.295a1.282 1.282 0 0 1 0-2.564h2.295v-6.885a1.266 1.266 0 0 1 1.305-1.262 1.229 1.229 0 0 1 1.26 1.262v6.885h4.14a1.282 1.282 0 0 1 0 2.564h-4.14v16.064c0 2.205.63 2.7 2.745 2.7h1.395a1.282 1.282 0 0 1 0 2.564zm34.065-22.228l-7.335 21.148c-.315.855-.72 1.08-1.305 1.08-.766 0-1-.27-1.26-1.08l-5.895-17.55-5.895 17.55c-.315.855-.72 1.08-1.305 1.08a1.315 1.315 0 0 1-1.261-1.08l-7.3-21.148a1.91 1.91 0 0 1-.09-.494 1.278 1.278 0 0 1 1.305-1.17 1.167 1.167 0 0 1 1.17.854l6.165 17.82 5.895-17.596c.27-.854.54-1.078 1.305-1.078.54 0 1 .18 1.26 1.078l5.985 17.596 6.074-17.82a1.168 1.168 0 0 1 1.17-.854 1.309 1.309 0 0 1 1.396 1.215 1.329 1.329 0 0 1-.09.449z"/><use xlink:href="#U" x="120.238"/><use xlink:href="#Q" x="329.574"/><use xlink:href="#R" x="329.573"/><path d="M549.404 908.57a2.565 2.565 0 1 1 2.565-2.564 2.535 2.535 0 0 1-2.565 2.564zm0 28.213a1.236 1.236 0 0 1-1.305-1.26V914.15a1.239 1.239 0 0 1 1.305-1.26 1.226 1.226 0 0 1 1.261 1.26v21.373a1.203 1.203 0 0 1-1.261 1.26zm17.01-21.7a7.691 7.691 0 0 0-7.694 7.695v12.734a1.283 1.283 0 0 1-2.565 0V914.15a1.283 1.283 0 0 1 2.565 0v1.844a10.273 10.273 0 0 1 7.694-3.465 1.282 1.282 0 1 1 0 2.564zm23.985 21.69a1.264 1.264 0 0 1-1.305-1.26v-2.25a10.206 10.206 0 0 1-8.729 4.275c-7.245 0-11.295-5.94-11.295-12.734 0-6.75 4.05-12.7 11.295-12.7a10.284 10.284 0 0 1 8.729 4.23v-10.35a1.283 1.283 0 0 1 2.565 0v29.518a1.255 1.255 0 0 1-1.261 1.26zm-10.034-22.094c-5.3 0-8.73 4.275-8.73 10.125s3.42 10.17 8.73 10.17c5.354 0 8.73-4.32 8.73-10.17s-3.375-10.125-8.73-10.125z"/><use xlink:href="#S" x="329.349"/><use xlink:href="#U" x="274.315"/><path d="M661.99 907.265h-1.395a1.987 1.987 0 0 0-1.979 1.934v3.69h3.374a1.225 1.225 0 0 1 1.261 1.26 1.265 1.265 0 0 1-1.261 1.305h-3.374v20.068a1.228 1.228 0 0 1-1.261 1.26 1.201 1.201 0 0 1-1.26-1.26v-20.068h-3.104a1.282 1.282 0 0 1 0-2.564h3.104v-3.69a4.466 4.466 0 0 1 4.455-4.455h1.44a1.278 1.278 0 0 1 1.306 1.307 1.207 1.207 0 0 1-1.306 1.215z"/><use xlink:href="#T" x="378.443"/><path d="M724.1 936.782a1.264 1.264 0 0 1-1.306-1.26v-13.14a7.694 7.694 0 1 0-15.389 0v13.14a1.283 1.283 0 0 1-2.565 0V914.15a1.283 1.283 0 0 1 2.565 0v1.44a10.265 10.265 0 0 1 17.954 6.795v13.14a1.254 1.254 0 0 1-1.26 1.26z"/><use xlink:href="#T" x="442.163"/><path d="M779.844 937.548a10.206 10.206 0 0 1-8.729-4.275v11.654a1.283 1.283 0 1 1-2.565 0V914.15a1.283 1.283 0 0 1 2.565 0v2.205a10.284 10.284 0 0 1 8.729-4.23c7.244 0 11.294 5.94 11.294 12.7 0 6.795-4.05 12.734-11.294 12.734zm0-22.86c-5.355 0-8.73 4.275-8.73 10.125s3.374 10.17 8.73 10.17 8.73-4.32 8.73-10.17-3.375-10.125-8.73-10.125zm27.046 22.86a10.206 10.206 0 0 1-8.73-4.275v11.654a1.283 1.283 0 1 1-2.565 0V914.15a1.283 1.283 0 0 1 2.565 0v2.205a10.284 10.284 0 0 1 8.73-4.23c7.244 0 11.294 5.94 11.294 12.7 0 6.795-4.05 12.734-11.294 12.734zm0-22.86c-5.355 0-8.73 4.275-8.73 10.125s3.374 10.17 8.73 10.17 8.73-4.32 8.73-10.17-3.375-10.125-8.73-10.125zm20.204 22.364a4.715 4.715 0 0 1-4.455-4.77v-26.277a1.283 1.283 0 0 1 2.565 0v26.277c0 2.88 3.194 1.215 3.194 3.24a1.45 1.45 0 0 1-1.305 1.529zm24.794-10.934h-18.674c.405 5.13 3.734 8.865 8.64 8.865 2.43 0 5.3-1.08 6.614-3.105a1.184 1.184 0 0 1 1.08-.631 1.377 1.377 0 0 1 1.395 1.217c0 .404 0 .494-.855 1.484a10.623 10.623 0 0 1-8.234 3.6c-7.245 0-11.295-5.94-11.295-12.734 0-6.75 4.05-12.7 11.295-12.7s11.295 5.984 11.295 12.7a1.363 1.363 0 0 1-1.261 1.305zm-10.034-11.43c-5.4 0-8.234 4.14-8.64 8.865h17.324c-.405-5.13-3.734-8.865-8.685-8.865z"/></g><path d="M46.002 280.6h746.807a0 0 0 0 1 0 0v534.752a0 0 0 0 1 0 0H46.002a12.046 12.046 0 0 1-12.046-12.046v-510.66a12.046 12.046 0 0 1 12.046-12.046z" fill="url(#B)"/><g fill="#fff"><use xlink:href="#V"/><use xlink:href="#W"/><use xlink:href="#X"/><use xlink:href="#Y"/><path d="M473.986 240.212a6.505 6.505 0 0 1-5.013 2.128c-4.508 0-7.027-3.695-7.027-7.924 0-4.2 2.52-7.896 7.027-7.896a6.505 6.505 0 0 1 5.013 2.128.742.742 0 0 1 .224.532.877.877 0 0 1-.812.84.826.826 0 0 1-.588-.28 4.935 4.935 0 0 0-3.836-1.624c-3.304 0-5.432 2.66-5.432 6.3s2.128 6.328 5.432 6.328a5.032 5.032 0 0 0 3.836-1.624.795.795 0 0 1 1.4.532.799.799 0 0 1-.224.56z"/><use xlink:href="#W" x="64.372"/><use xlink:href="#Z"/><use xlink:href="#a"/><use xlink:href="#b"/><use xlink:href="#Y" x="97.043"/><use xlink:href="#V" x="155.027"/><use xlink:href="#V" x="170.51"/><use xlink:href="#c"/><use xlink:href="#Z" x="95.62"/><path d="M612.778 228.368l-4.815 4.816 4.76 7.447a.795.795 0 0 1 .168.448.85.85 0 0 1-.84.756.791.791 0 0 1-.672-.363l-4.592-7.14-2.885 2.912v3.836a.798.798 0 0 1-1.596 0v-18.368a.798.798 0 0 1 1.596 0v12.265l7.73-7.73a.788.788 0 0 1 .588-.252.807.807 0 0 1 .812.784.784.784 0 0 1-.252.588z"/><use xlink:href="#b" x="94.974"/><path d="M643.548 223.496h-.868a1.238 1.238 0 0 0-1.231 1.204v2.296h2.1a.763.763 0 0 1 .784.784.788.788 0 0 1-.784.813h-2.1v12.487a.765.765 0 0 1-.784.784.748.748 0 0 1-.784-.784v-12.487h-1.932a.798.798 0 0 1 0-1.597h1.932V224.7a2.778 2.778 0 0 1 2.772-2.771h.896a.795.795 0 0 1 .813.812.751.751 0 0 1-.812.756z"/><use xlink:href="#X" x="223.968"/><use xlink:href="#W" x="257.482"/><path d="M698.23 228.088l-5.516 13.133a.92.92 0 0 1-.784.644.954.954 0 0 1-.812-.644l-5.517-13.104a.894.894 0 0 1-.056-.364.783.783 0 0 1 .812-.756.719.719 0 0 1 .7.477l4.872 11.508 4.844-11.508a.799.799 0 0 1 1.54.252.668.668 0 0 1-.084.363z"/><use xlink:href="#W" x="287.832"/><path d="M719.93 242.032a2.935 2.935 0 0 1-2.772-2.968v-16.353a.798.798 0 0 1 1.596 0v16.353c0 1.792 1.988.756 1.988 2.016a.903.903 0 0 1-.812.952z"/><use xlink:href="#b" x="195.967"/><use xlink:href="#d"/><use xlink:href="#c" x="172.448"/><path d="M773.745 241.864a.787.787 0 0 1-.812-.784v-8.176a4.788 4.788 0 1 0-9.576 0v8.176a.798.798 0 0 1-1.596 0v-13.3a.798.798 0 0 1 1.596 0v.896a6.388 6.388 0 0 1 11.173 4.228v8.176a.781.781 0 0 1-.784.784zm10.585 6.384c-2.38 0-5.74-.896-5.74-1.903a.888.888 0 0 1 .812-.896 10.105 10.105 0 0 1 1.484.672 10.489 10.489 0 0 0 3.443.532c3.584 0 5.433-1.764 5.433-5.208v-1.96a6.688 6.688 0 0 1-5.433 2.38c-4.424 0-7.027-3.136-7.027-7.448 0-4.2 2.52-7.896 7.027-7.896a6.403 6.403 0 0 1 5.433 2.632v-1.344a.798.798 0 0 1 1.596 0v13.636c0 4.452-2.66 6.804-7.028 6.804zm0-20.132c-3.304 0-5.432 2.66-5.432 6.3 0 3.612 1.988 5.853 5.432 5.853s5.433-2.24 5.433-5.853c0-3.64-2.1-6.3-5.433-6.3zm22.37 13.748h-.868c-2.212 0-3.304-1.092-3.304-3.276v-9.995H801.1a.799.799 0 0 1 0-1.597h1.428v-4.284a.786.786 0 0 1 .812-.783.763.763 0 0 1 .784.783v4.284h2.576a.799.799 0 0 1 0 1.597h-2.576v9.995c0 1.372.393 1.68 1.708 1.68h.868a.798.798 0 0 1 0 1.596z"/><use xlink:href="#a" x="296.485"/><use xlink:href="#d" x="84.868"/><use xlink:href="#W" x="428.474"/><path d="M873.2 241.864h-9.155a.807.807 0 0 1-.812-.784.795.795 0 0 1 .168-.448l8.345-11.787a3.951 3.951 0 0 0 .644-2.101 3.692 3.692 0 0 0-3.668-3.724c-2.66 0-3.724 2.912-4.48 2.912a.857.857 0 0 1-.867-.784c0-.645 2.128-3.724 5.348-3.724a5.269 5.269 0 0 1 5.264 5.235 5.364 5.364 0 0 1-.979 3.08l-7.42 10.528h7.615a.798.798 0 0 1 0 1.596z"/><use xlink:href="#X" x="454.263"/><use xlink:href="#c" x="316.618"/><path d="M920.548 241.864h-.028a2.898 2.898 0 0 1-2.771-2.184 6.355 6.355 0 0 1-5.433 2.659c-4.563 0-7.027-3.752-7.027-7.924 0-4.228 2.52-7.896 7.027-7.896a6.403 6.403 0 0 1 5.433 2.632v-1.372a.789.789 0 0 1 .812-.784.764.764 0 0 1 .784.784v11.284c0 1.792 2.016.672 2.016 2.016a.77.77 0 0 1-.812.784zm-8.232-13.748c-3.304 0-5.432 2.66-5.432 6.3s2.128 6.328 5.432 6.328c3.332 0 5.433-2.687 5.433-6.328s-2.1-6.3-5.433-6.3z"/><use xlink:href="#e"/><use xlink:href="#W" x="527.789"/><path d="M962.24 241.864h-.868c-2.212 0-3.304-1.092-3.304-3.276v-9.995h-1.428a.798.798 0 0 1 0-1.597h1.428v-4.284a.786.786 0 0 1 .812-.783.763.763 0 0 1 .784.783v4.284h2.576a.798.798 0 0 1 0 1.597h-2.576v9.995c0 1.372.393 1.68 1.708 1.68h.868a.798.798 0 0 1 0 1.596z"/><use xlink:href="#W" x="552.372"/><use xlink:href="#Z" x="488.003"/><use xlink:href="#e" x="77.642"/><use xlink:href="#a" x="505.092"/></g><path d="M792.956 280.6h240.8a12.2 12.2 0 0 1 12.2 12.2v510.352a12.2 12.2 0 0 1-12.2 12.2h-240.8a0 0 0 0 1 0 0V280.6a0 0 0 0 1 0 0z" opacity=".33" fill="url(#C)"/><path d="M1025.942 455.11l-196.534.932" fill="none" stroke="#0f0" stroke-miterlimit="10" stroke-width="2"/><path d="M832.28 446.057l-17.223 10.054 17.317 9.9-.094-19.945zm45.322-29.457h-46.318a4.083 4.083 0 0 1-4.108-3.966 4.015 4.015 0 0 1 .851-2.267l42.2-59.634a19.964 19.964 0 0 0 3.258-10.623 18.681 18.681 0 0 0-18.556-18.84c-13.457 0-18.84 14.73-22.664 14.73-2.125 0-4.4-1.7-4.4-3.966 0-3.258 10.765-18.84 27.055-18.84a26.66 26.66 0 0 1 26.629 26.488 27.137 27.137 0 0 1-4.957 15.581l-37.537 53.26h38.528a4.038 4.038 0 0 1 0 8.074zm43.204 1.426c-9.5 0-20.256-5.1-25.497-13.456a3.829 3.829 0 0 1-.708-2.267 4.331 4.331 0 0 1 4.249-4.107c2.125 0 2.267 1.133 4.392 3.4a22.29 22.29 0 0 0 17.564 8.357c12.465 0 23.654-10.766 23.654-25.64 0-15.015-11.2-25.78-23.654-25.78a22.893 22.893 0 0 0-18.698 10.057 4.059 4.059 0 0 1-3.824 1.983 3.906 3.906 0 0 1-4.107-4.25V319.72a3.87 3.87 0 0 1 3.966-3.966h47.3a3.975 3.975 0 1 1 0 7.932H902.25v33.146a28.678 28.678 0 0 1 18.557-6.374c17.422 0 31.73 14.73 31.73 33.854 0 18.84-14.307 33.712-31.73 33.712zm49.97-78.396c-7.185 0-13.048-6.524-13.048-14.534s5.863-14.45 13.048-14.45c7.102 0 12.965 6.44 12.965 14.45s-5.863 14.534-12.965 14.534zm0-24.36c-4.13 0-8.34 3.88-8.34 9.827s4.212 9.827 8.34 9.827 8.258-3.882 8.258-9.827-4.13-9.827-8.258-9.827zm31.216-3.056l-15.773 56.98c-.413 1.156-1.073 1.734-2.064 1.734a2.54 2.54 0 0 1-2.56-2.395 1.621 1.621 0 0 1 .082-.661l15.773-56.98a2.232 2.232 0 0 1 2.146-1.816 2.597 2.597 0 0 1 2.478 2.478 2.336 2.336 0 0 1-.082.66zm10.24 57.23c-7.102 0-12.965-6.523-12.965-14.534 0-7.928 5.863-14.45 12.965-14.45 7.185 0 13.048 6.523 13.048 14.45 0 8-5.863 14.534-13.048 14.534zm0-24.278c-4.13 0-8.258 3.88-8.258 9.744 0 5.946 4.13 9.827 8.258 9.827 4.212 0 8.34-3.88 8.34-9.827 0-5.863-4.13-9.744-8.34-9.744z" fill="#0f0"/><path d="M142.764 885.464c-4.028-6.938-9.847-11.637-17.008-13.428a27.775 27.775 0 0 0-6.042-.671c-7.61 0-15.44 3.357-22.38 9.4.67-5.37 3.804-16.113 14.77-19.47a2.336 2.336 0 1 0-1.342-4.476c-14.1 4.476-17.233 18.35-17.904 24.17-7.16-6.266-15.218-9.847-23.05-9.847a27.77 27.77 0 0 0-6.042.671c-7.16 1.79-12.98 6.266-17.01 13.428-6.266 10.742-7.385 25.96-2.91 40.506 6.042 22.38 23.05 38.492 40.06 38.492a26.311 26.311 0 0 0 6.042-.671 20.19 20.19 0 0 0 4.699-1.79 40.267 40.267 0 0 0 4.699 1.79 27.78 27.78 0 0 0 6.042.671c17.01 0 33.793-16.113 40.283-38.268 4.476-14.547 3.357-29.764-2.9-40.506zM89.8 917.07c-1.333 3.214-4.007 6.97-7.164 6.97a4.325 4.325 0 0 1-3.099-1.373 4.116 4.116 0 0 1-1.005-4.652c1.457-3.52 7.812-6.33 9.852-6.33a2.104 2.104 0 0 1 1.538.594c.91.91.87 2.388-.123 4.79zm20.183 5.596a4.326 4.326 0 0 1-3.099 1.373c-3.157 0-5.83-3.754-7.164-6.97-.995-2.403-1.032-3.88-.123-4.79a2.104 2.104 0 0 1 1.539-.594c2.04 0 8.394 2.808 9.852 6.33a4.115 4.115 0 0 1-1.004 4.652z" fill="url(#D)"/><g fill="#fff"><path d="M61.06 79.997H36.1a2.602 2.602 0 0 1-2.64-2.521V39.858a2.613 2.613 0 0 1 2.64-2.58h24.96a2.426 2.426 0 0 1 2.521 2.52 2.506 2.506 0 0 1-2.521 2.58H38.62v12.12h15.72a2.561 2.561 0 0 1 2.58 2.58 2.523 2.523 0 0 1-2.58 2.58H38.62v15.24h22.44a2.471 2.471 0 0 1 2.521 2.579 2.426 2.426 0 0 1-2.521 2.521zm29.338-28.32l-10.92 26.278a2.736 2.736 0 0 1-2.579 2.041 2.904 2.904 0 0 1-2.58-2.041L63.4 51.678a3.686 3.686 0 0 1-.18-1.08 2.587 2.587 0 0 1 2.64-2.46 2.457 2.457 0 0 1 2.28 1.561l8.76 20.998L85.66 49.7a2.585 2.585 0 0 1 4.98.84 2.993 2.993 0 0 1-.24 1.14zm28.56 15h-22.2c.84 5.64 4.44 9.24 9.72 9.24a9.009 9.009 0 0 0 7.14-3.12 2.481 2.481 0 0 1 1.859-.96 2.8 2.8 0 0 1 2.7 2.641c0 .72-.18 1.26-1.44 2.52a14.623 14.623 0 0 1-10.26 4.02c-9.66 0-15.06-7.98-15.06-16.98 0-8.94 5.4-16.92 15.06-16.92 9.78 0 15 7.98 15 16.92a2.558 2.558 0 0 1-2.52 2.64zm-12.48-14.46c-5.64 0-8.94 4.14-9.72 9.3h19.44c-.84-5.76-4.44-9.3-9.72-9.3zm42.66 27.78a2.424 2.424 0 0 1-2.52-2.521v-16.68a8.55 8.55 0 1 0-17.1 0v16.62a2.55 2.55 0 0 1-2.64 2.64 2.471 2.471 0 0 1-2.52-2.58v-26.82a2.386 2.386 0 0 1 2.52-2.52 2.509 2.509 0 0 1 2.58 1.98 13.702 13.702 0 0 1 22.259 10.68v16.62a2.454 2.454 0 0 1-2.58 2.58zm50.64 0a2.456 2.456 0 0 1-2.28-1.561l-3.18-7.8h-19.98l-3.24 7.8a2.439 2.439 0 0 1-2.22 1.561 2.651 2.651 0 0 1-2.699-2.521 1.978 1.978 0 0 1 .239-1.021l15.42-37.498a2.62 2.62 0 0 1 2.46-1.859 2.725 2.725 0 0 1 2.46 1.859l15.48 37.498a2.825 2.825 0 0 1 .18 1.021 2.561 2.561 0 0 1-2.64 2.521zm-15.48-33.6l-7.86 19.08h15.72zm45.238 34.62c-4.38 0-10.5-1.8-13.92-4.98a2.398 2.398 0 0 1-.84-1.859 2.599 2.599 0 0 1 2.58-2.58c.9 0 1.2.3 2.28 1.14a16.249 16.249 0 0 0 9.899 3.18c7.14 0 10.26-2.58 10.26-7.02 0-12.48-23.938-5.4-23.938-21.72 0-7.32 6.18-10.98 14.1-10.98 4.14 0 10.08 1.62 13.02 5.1a2.365 2.365 0 0 1 .66 1.62 2.794 2.794 0 0 1-2.58 2.7c-.9 0-1.38-.42-2.4-1.32a13.185 13.185 0 0 0-8.7-2.939c-6.48 0-8.94 2.58-8.94 5.82 0 11.22 23.94 4.56 23.94 21.72 0 8.94-7.5 12.12-15.42 12.12zm57.12-1.02a2.457 2.457 0 0 1-2.52-2.521v-18.9a6.33 6.33 0 1 0-12.659-.06v18.9a2.454 2.454 0 0 1-2.58 2.58 2.424 2.424 0 0 1-2.521-2.521v-18.9a6.36 6.36 0 0 0-12.719-.06v18.9a2.502 2.502 0 0 1-2.641 2.58 2.457 2.457 0 0 1-2.52-2.521v-26.82a2.632 2.632 0 0 1 4.8-1.439 11.558 11.558 0 0 1 6.66-2.1 11.358 11.358 0 0 1 8.939 4.26 11.236 11.236 0 0 1 8.88-4.26 11.459 11.459 0 0 1 11.52 11.399v18.9a2.502 2.502 0 0 1-2.641 2.58zm36.6 0a5.839 5.839 0 0 1-5.34-3.42 13.749 13.749 0 0 1-10.56 4.439c-9.78 0-15.06-8.04-15.06-16.98s5.4-16.92 15.06-16.92a13.262 13.262 0 0 1 9.899 3.959v-.24a2.476 2.476 0 0 1 2.52-2.7 2.412 2.412 0 0 1 2.641 2.52v23.16a.972.972 0 0 0 .84 1.08 2.55 2.55 0 1 1 0 5.1zm-15.9-27.78c-6 0-9.9 4.68-9.9 11.82 0 7.2 3.9 11.88 9.9 11.88 6.06 0 9.9-4.68 9.9-11.88 0-7.14-3.84-11.82-9.9-11.82z"/><use xlink:href="#f"/><use xlink:href="#f" x="11.279"/><path d="M381.872 61.517h-12.84v15.9a2.58 2.58 0 0 1-5.159.06V39.858a2.491 2.491 0 0 1 2.52-2.58h15.54c5.28 0 12.06 4.14 12.06 12.06a12.098 12.098 0 0 1-12.119 12.179zm0-19.14h-12.84v14.04h12.78a7.02 7.02 0 0 0 .061-14.039z"/><use xlink:href="#g"/><path d="M441.63 52.218a8.644 8.644 0 0 0-8.52 8.58v16.62a2.502 2.502 0 0 1-2.641 2.58 2.457 2.457 0 0 1-2.52-2.521v-26.76a2.542 2.542 0 0 1 2.52-2.58 2.463 2.463 0 0 1 2.58 2.04 13.874 13.874 0 0 1 8.58-3.06 2.551 2.551 0 1 1 0 5.1zm17.47 27.78h-1.02c-5.7 0-7.86-3-7.86-7.92v-18.84h-1.8a2.55 2.55 0 1 1-.061-5.1h1.8v-8.34a2.436 2.436 0 0 1 2.58-2.52 2.389 2.389 0 0 1 2.52 2.52v8.34h3.84a2.488 2.488 0 0 1 2.521 2.52 2.441 2.441 0 0 1-2.521 2.58h-3.84v19.38c0 1.68.6 2.28 2.28 2.28h1.5a2.475 2.475 0 0 1 2.58 2.52 2.441 2.441 0 0 1-2.521 2.58zm7.07-36.72a4.32 4.32 0 1 1 4.32-4.32 4.302 4.302 0 0 1-4.32 4.32zm0 36.72a2.521 2.521 0 0 1-2.64-2.521v-26.76a2.534 2.534 0 0 1 2.64-2.58 2.473 2.473 0 0 1 2.521 2.58v26.76a2.421 2.421 0 0 1-2.521 2.521z"/><use xlink:href="#g" x="76.978"/><path d="M528.507 79.997a2.424 2.424 0 0 1-2.52-2.521v-16.68a8.55 8.55 0 1 0-17.1 0v16.62a2.55 2.55 0 0 1-2.64 2.64 2.471 2.471 0 0 1-2.52-2.58v-26.82a2.387 2.387 0 0 1 2.52-2.52 2.509 2.509 0 0 1 2.58 1.98 13.702 13.702 0 0 1 22.259 10.68v16.62a2.454 2.454 0 0 1-2.58 2.58z"/><use xlink:href="#g" x="150.895"/><path d="M587.426 53.237h-2.7v24.18a2.452 2.452 0 0 1-2.64 2.52 2.42 2.42 0 0 1-2.52-2.52v-24.18h-2.46a2.55 2.55 0 0 1 0-5.1h2.46v-4.08a6.836 6.836 0 0 1 6.899-6.779 2.551 2.551 0 1 1 0 5.1 1.682 1.682 0 0 0-1.74 1.62v4.14h2.7a2.551 2.551 0 1 1 0 5.1zm40.738-10.86h-22.44v12.12h15.72a2.561 2.561 0 0 1 2.58 2.58 2.523 2.523 0 0 1-2.58 2.58h-15.72v17.82a2.575 2.575 0 0 1-2.52 2.521 2.602 2.602 0 0 1-2.64-2.521v-37.62a2.613 2.613 0 0 1 2.64-2.58h24.96a2.425 2.425 0 0 1 2.52 2.52 2.505 2.505 0 0 1-2.52 2.58z"/><use xlink:href="#h"/><path d="M672.564 80.057a2.445 2.445 0 0 1-2.52-1.979 13.97 13.97 0 0 1-8.64 3 13.79 13.79 0 0 1-13.68-13.68v-16.62a2.58 2.58 0 0 1 5.159-.061v16.68a8.55 8.55 0 1 0 17.1 0v-16.62a2.393 2.393 0 0 1 2.521-2.641 2.454 2.454 0 0 1 2.579 2.58v26.818a2.389 2.389 0 0 1-2.52 2.521zm10.2-36.78a4.32 4.32 0 1 1 4.319-4.32 4.302 4.302 0 0 1-4.319 4.32zm0 36.72a2.52 2.52 0 0 1-2.64-2.521v-26.76a2.533 2.533 0 0 1 2.64-2.58 2.472 2.472 0 0 1 2.52 2.58v26.76a2.421 2.421 0 0 1-2.52 2.521zm17.818-.001h-1.02c-5.7 0-7.86-3-7.86-7.92v-18.84h-1.8a2.55 2.55 0 0 1-.061-5.1h1.8v-8.34a2.436 2.436 0 0 1 2.579-2.52 2.39 2.39 0 0 1 2.521 2.52v8.34h3.84a2.488 2.488 0 0 1 2.52 2.52 2.44 2.44 0 0 1-2.52 2.58h-3.84v19.38c0 1.68.6 2.28 2.28 2.28h1.5a2.474 2.474 0 0 1 2.58 2.52 2.441 2.441 0 0 1-2.52 2.58z"/><use xlink:href="#g" x="320.33"/><use xlink:href="#h" x="118.615"/><path d="M803.06 40.638l-12.6 37.318a2.722 2.722 0 0 1-2.579 2.041 2.826 2.826 0 0 1-2.521-2.041L772.7 40.638a2.574 2.574 0 0 1 2.46-3.359 2.506 2.506 0 0 1 2.399 1.74l10.32 30.418 10.38-30.418a2.387 2.387 0 0 1 2.34-1.74 2.56 2.56 0 0 1 2.7 2.46 1.832 1.832 0 0 1-.24.899z"/><use xlink:href="#i"/><path d="M847.337 93.677c-3.66 0-12.72-1.32-12.72-4.92a2.794 2.794 0 0 1 2.58-2.701c1.38 0 .18.18 3.36 1.38a18.773 18.773 0 0 0 6.78 1.14c6.66 0 9.9-3.18 9.9-9.48v-2.7a14.042 14.042 0 0 1-9.899 3.6c-9.48 0-15.06-6.72-15.06-15.96 0-9 5.4-16.92 15.06-16.92 4.2 0 7.44 1.26 9.9 3.84v-.24a2.554 2.554 0 0 1 2.58-2.58 2.519 2.519 0 0 1 2.579 2.58v28.38c0 9.54-5.7 14.58-15.06 14.58zm0-41.46c-6 0-9.9 4.68-9.9 11.82 0 6.84 3.6 10.86 9.9 10.86s9.9-4.02 9.9-10.86c0-7.14-3.84-11.82-9.9-11.82z"/><use xlink:href="#i" x="65.22"/><path d="M909.017 79.997h-1.02c-5.7 0-7.86-3-7.86-7.92v-18.84h-1.8a2.55 2.55 0 1 1-.061-5.1h1.8v-8.34a2.436 2.436 0 0 1 2.579-2.52 2.39 2.39 0 0 1 2.521 2.52v8.34h3.84a2.488 2.488 0 0 1 2.52 2.52 2.44 2.44 0 0 1-2.52 2.58h-3.84v19.38c0 1.68.6 2.28 2.28 2.28h1.5a2.474 2.474 0 0 1 2.58 2.52 2.441 2.441 0 0 1-2.52 2.58zm33.898 0a5.836 5.836 0 0 1-5.34-3.42 13.749 13.749 0 0 1-10.56 4.439c-9.78 0-15.06-8.04-15.06-16.98s5.4-16.92 15.06-16.92a13.262 13.262 0 0 1 9.899 3.959v-.24a2.476 2.476 0 0 1 2.52-2.7 2.412 2.412 0 0 1 2.64 2.52v23.16a.971.971 0 0 0 .841 1.08 2.55 2.55 0 1 1 0 5.1zm-15.9-27.78c-6 0-9.9 4.68-9.9 11.82 0 7.2 3.9 11.88 9.9 11.88 6.06 0 9.9-4.68 9.9-11.88 0-7.14-3.84-11.82-9.9-11.82zm35.52 28.8a14.206 14.206 0 0 1-9.9-3.6 2.452 2.452 0 0 1-2.64 2.52 2.42 2.42 0 0 1-2.52-2.52v-37.56a2.58 2.58 0 0 1 5.159-.061v11.22a13.319 13.319 0 0 1 9.9-3.899c9.66 0 15.06 7.92 15.06 16.92 0 9.06-5.4 16.98-15.06 16.98zm0-28.8c-6 0-9.9 4.68-9.9 11.82 0 7.2 3.9 11.88 9.9 11.88s9.9-4.68 9.9-11.88c0-7.14-3.9-11.82-9.9-11.82zm24.24 27.9a6.122 6.122 0 0 1-6-6.119v-34.14a2.58 2.58 0 0 1 5.16-.061v34.2a.947.947 0 0 0 .84 1.02 2.55 2.55 0 1 1 0 5.1zm30.6-13.44h-22.2c.84 5.64 4.44 9.24 9.72 9.24a9.009 9.009 0 0 0 7.14-3.12 2.481 2.481 0 0 1 1.859-.96 2.8 2.8 0 0 1 2.7 2.641c0 .72-.18 1.26-1.44 2.52a14.619 14.619 0 0 1-10.259 4.02c-9.66 0-15.06-7.98-15.06-16.98 0-8.94 5.4-16.92 15.06-16.92 9.78 0 15 7.98 15 16.92a2.558 2.558 0 0 1-2.519 2.64zm-12.48-14.46c-5.64 0-8.94 4.14-9.72 9.3h19.438c-.84-5.76-4.44-9.3-9.72-9.3zm27.9 28.8c-3.3 0-8.82-1.02-11.64-4.5a2.655 2.655 0 0 1 2.16-4.26 2.462 2.462 0 0 1 1.859 1.02c1.86 2.04 4.92 2.64 7.62 2.64 5.4 0 7.14-1.86 7.14-4.56 0-7.68-18.3-2.94-18.3-15.3 0-6.54 6.12-8.94 11.82-8.94 3.24 0 10.86 1.62 10.86 4.98a2.695 2.695 0 0 1-2.52 2.7 3.617 3.617 0 0 1-1.98-.78c-1.62-1.38-3.96-1.8-6.36-1.8-4.98 0-6.72 1.86-6.72 3.84 0 7.14 18.36 2.52 18.36 15.3 0 7.08-5.94 9.66-12.3 9.66zM62.26 141.196H37.3a2.601 2.601 0 0 1-2.64-2.52V101.06a2.612 2.612 0 0 1 2.64-2.58h24.96a2.425 2.425 0 0 1 2.521 2.52 2.505 2.505 0 0 1-2.521 2.579H39.822v12.12h15.72a2.56 2.56 0 0 1 2.58 2.58 2.523 2.523 0 0 1-2.58 2.579h-15.72v15.24H62.26a2.471 2.471 0 0 1 2.521 2.58 2.425 2.425 0 0 1-2.521 2.52zm29.338-28.318l-10.92 26.28a2.736 2.736 0 0 1-2.579 2.039 2.905 2.905 0 0 1-2.58-2.039l-10.92-26.28a3.691 3.691 0 0 1-.18-1.08 2.588 2.588 0 0 1 2.64-2.46 2.456 2.456 0 0 1 2.28 1.56l8.76 21 8.76-21a2.585 2.585 0 0 1 4.98.84 2.994 2.994 0 0 1-.24 1.141z"/><use xlink:href="#j"/><path d="M141.637 113.418a8.644 8.644 0 0 0-8.52 8.579v16.62a2.5 2.5 0 0 1-2.64 2.58 2.456 2.456 0 0 1-2.52-2.52v-26.76a2.541 2.541 0 0 1 2.52-2.58 2.463 2.463 0 0 1 2.58 2.04 13.874 13.874 0 0 1 8.579-3.061 2.552 2.552 0 1 1 0 5.101z"/><use xlink:href="#k"/><path d="M202.176 141.196h-12.42a2.729 2.729 0 0 1-2.64-2.52V101.06a2.693 2.693 0 0 1 2.64-2.58h12.42c12.36 0 16.44 10.2 16.44 21.3 0 11.158-4.08 21.418-16.44 21.418zm0-37.618h-9.9v32.52h9.9c7.74 0 11.28-5.7 11.28-16.318 0-10.44-3.54-16.2-11.28-16.2zm51.118 37.618a5.839 5.839 0 0 1-5.34-3.42 13.745 13.745 0 0 1-10.56 4.44c-9.78 0-15.06-8.04-15.06-16.98s5.4-16.92 15.06-16.92a13.254 13.254 0 0 1 9.899 3.961v-.24a2.476 2.476 0 0 1 2.521-2.7 2.412 2.412 0 0 1 2.64 2.521v23.158a.971.971 0 0 0 .84 1.08 2.55 2.55 0 1 1 0 5.1zm-15.9-27.778c-6 0-9.9 4.68-9.9 11.82 0 7.2 3.9 11.88 9.9 11.88 6.06 0 9.9-4.68 9.9-11.88 0-7.14-3.84-11.82-9.9-11.82z"/><use xlink:href="#k" x="113.698"/><path d="M330.633 135.677c-2.94 4.08-7.14 6.54-13.38 6.54-12.9 0-17.46-10.68-17.46-22.38 0-11.76 4.56-22.438 17.46-22.438 6.06 0 10.5 2.4 13.32 6.54a2.31 2.31 0 0 1 .54 1.5 2.6 2.6 0 0 1-2.64 2.52 2.507 2.507 0 0 1-2.04-1.08c-1.86-2.7-4.62-4.32-9.18-4.32-8.52 0-12.3 6.3-12.3 17.28s3.78 17.28 12.3 17.28c4.56 0 7.32-1.74 9.18-4.38a2.425 2.425 0 0 1 2.04-1.141 2.525 2.525 0 0 1 2.159 4.08zm34.02 5.52a5.839 5.839 0 0 1-5.34-3.42 13.746 13.746 0 0 1-10.56 4.44c-9.78 0-15.06-8.04-15.06-16.98s5.4-16.92 15.06-16.92a13.256 13.256 0 0 1 9.899 3.961v-.24a2.476 2.476 0 0 1 2.52-2.7 2.412 2.412 0 0 1 2.641 2.521v23.158a.971.971 0 0 0 .84 1.08 2.55 2.55 0 1 1 0 5.1zm-15.9-27.778c-6 0-9.9 4.68-9.9 11.82 0 7.2 3.9 11.88 9.9 11.88 6.06 0 9.9-4.68 9.9-11.88 0-7.14-3.84-11.82-9.9-11.82zm46.44 27.778a2.423 2.423 0 0 1-2.521-2.52v-16.68a8.549 8.549 0 1 0-17.099 0v16.62a2.551 2.551 0 0 1-2.641 2.641 2.472 2.472 0 0 1-2.52-2.58V111.86a2.387 2.387 0 0 1 2.52-2.521 2.509 2.509 0 0 1 2.58 1.979 13.703 13.703 0 0 1 22.26 10.68v16.62a2.454 2.454 0 0 1-2.58 2.58zm38.46-18.478h-12.84v15.898a2.58 2.58 0 0 1-5.159.061V101.06a2.491 2.491 0 0 1 2.52-2.58h15.54c5.28 0 12.06 4.14 12.06 12.06a12.099 12.099 0 0 1-12.119 12.18zm0-19.14h-12.84v14.04h12.78a7.02 7.02 0 0 0 .061-14.04zm29.878 9.84a8.643 8.643 0 0 0-8.52 8.579v16.62a2.501 2.501 0 0 1-2.641 2.58 2.456 2.456 0 0 1-2.52-2.52v-26.76a2.541 2.541 0 0 1 2.52-2.58 2.463 2.463 0 0 1 2.58 2.04 13.875 13.875 0 0 1 8.58-3.061 2.552 2.552 0 1 1 0 5.101z"/><use xlink:href="#j" x="370.663"/><path d="M523.098 112.878l-10.92 26.28a2.737 2.737 0 0 1-2.58 2.039 2.905 2.905 0 0 1-2.58-2.039l-10.92-26.28a3.695 3.695 0 0 1-.181-1.08 2.589 2.589 0 0 1 2.64-2.46 2.456 2.456 0 0 1 2.28 1.56l8.76 21 8.76-21a2.585 2.585 0 0 1 4.979.84 2.975 2.975 0 0 1-.24 1.141z"/><use xlink:href="#l"/><path d="M584.238 141.196a2.423 2.423 0 0 1-2.521-2.52v-16.68a8.55 8.55 0 1 0-17.1 0v16.62a2.55 2.55 0 0 1-2.64 2.641 2.472 2.472 0 0 1-2.52-2.58v-26.818a2.387 2.387 0 0 1 2.52-2.521 2.509 2.509 0 0 1 2.58 1.979 13.702 13.702 0 0 1 22.259 10.68v16.62a2.453 2.453 0 0 1-2.579 2.58z"/><use xlink:href="#m"/><path d="M635.416 141.196h-12.42a2.729 2.729 0 0 1-2.64-2.52V101.06a2.693 2.693 0 0 1 2.64-2.58h12.42c12.36 0 16.438 10.2 16.438 21.3 0 11.158-4.08 21.418-16.438 21.418zm0-37.618h-9.9v32.52h9.9c7.74 0 11.28-5.7 11.28-16.318 0-10.44-3.54-16.2-11.28-16.2zm24.3.9a4.319 4.319 0 1 1 4.319-4.318 4.302 4.302 0 0 1-4.319 4.318zm0 36.72a2.519 2.519 0 0 1-2.64-2.52v-26.76a2.533 2.533 0 0 1 2.64-2.58 2.471 2.471 0 0 1 2.52 2.58v26.76a2.42 2.42 0 0 1-2.52 2.52zm38.457-.001a5.837 5.837 0 0 1-5.339-3.42 13.746 13.746 0 0 1-10.56 4.44c-9.78 0-15.06-8.04-15.06-16.98s5.4-16.92 15.06-16.92a13.256 13.256 0 0 1 9.899 3.961v-.24a2.475 2.475 0 0 1 2.52-2.7 2.412 2.412 0 0 1 2.64 2.521v23.158a.971.971 0 0 0 .84 1.08 2.55 2.55 0 1 1 0 5.1zm-15.898-27.778c-6 0-9.9 4.68-9.9 11.82 0 7.2 3.9 11.88 9.9 11.88 6.06 0 9.9-4.68 9.9-11.88 0-7.14-3.84-11.82-9.9-11.82zm36.72 28.8a14.199 14.199 0 0 1-9.9-3.601 2.453 2.453 0 0 1-2.64 2.521 2.421 2.421 0 0 1-2.52-2.521V101.06a2.58 2.58 0 0 1 5.159-.06v11.22a13.323 13.323 0 0 1 9.9-3.9c9.66 0 15.06 7.92 15.06 16.92 0 9.06-5.4 16.98-15.06 16.98zm0-28.8c-6 0-9.9 4.68-9.9 11.82 0 7.2 3.9 11.88 9.9 11.88s9.9-4.68 9.9-11.88c0-7.14-3.9-11.82-9.9-11.82z"/><use xlink:href="#l" x="212.095"/><use xlink:href="#m" x="179.156"/><use xlink:href="#l" x="260.514"/><path d="M829.992 142.217c-3.3 0-8.82-1.02-11.64-4.5a2.655 2.655 0 0 1 2.16-4.26 2.463 2.463 0 0 1 1.859 1.021c1.86 2.04 4.92 2.64 7.62 2.64 5.4 0 7.14-1.86 7.14-4.56 0-7.68-18.3-2.94-18.3-15.3 0-6.54 6.12-8.94 11.82-8.94 3.24 0 10.86 1.62 10.86 4.98a2.693 2.693 0 0 1-2.52 2.699 3.607 3.607 0 0 1-1.98-.779c-1.62-1.38-3.96-1.8-6.36-1.8-4.98 0-6.72 1.86-6.72 3.84 0 7.14 18.36 2.52 18.36 15.3 0 7.08-5.94 9.66-12.3 9.66z"/></g></svg>