<svg xmlns="http://www.w3.org/2000/svg" xmlns:xlink="http://www.w3.org/1999/xlink" viewBox="0 0 1080 1080" xmlns:v="https://vecta.io/nano"><defs><linearGradient id="A" x1="11.716" y1="1068.284" x2="1068.284" y2="11.716" gradientUnits="userSpaceOnUse"><stop offset="0" stop-color="#1fa2ff"/><stop offset=".208" stop-color="#19bafd"/><stop offset=".5" stop-color="#12d8fa"/><stop offset=".545" stop-color="#24ddf4"/><stop offset=".699" stop-color="#5bebe3"/><stop offset=".832" stop-color="#84f6d6"/><stop offset=".937" stop-color="#9dfdce"/><stop offset="1" stop-color="#a6ffcb"/></linearGradient><path id="B" d="M104.714 1045.51a1.36 1.36 0 0 1-1.4-1.101 7.763 7.763 0 0 1-4.804 1.668 7.666 7.666 0 0 1-7.604-7.605v-9.24a1.434 1.434 0 0 1 2.868-.033v9.272a4.753 4.753 0 1 0 9.507 0v-9.24a1.33 1.33 0 0 1 1.4-1.468 1.364 1.364 0 0 1 1.435 1.435v14.9a1.328 1.328 0 0 1-1.401 1.4z"/><path id="C" d="M785.21 1046.36c-1.2 0-3.22-.42-3.92-1.58a.482.482 0 0 1-.08-.3.546.546 0 0 1 1.021-.32 3.812 3.812 0 0 0 2.98 1.061c1.94 0 2.92-.64 2.92-1.94 0-3.02-6.562-1.42-6.562-5.422 0-2.02 2.02-2.8 3.84-2.8a5.415 5.415 0 0 1 3.44 1.16.558.558 0 0 1 .18.38.648.648 0 0 1-.62.6.531.531 0 0 1-.38-.16 4.001 4.001 0 0 0-2.62-.84c-1.76 0-2.7.68-2.7 1.66 0 2.8 6.562 1.32 6.562 5.422 0 2.28-2 3.08-4.06 3.08z"/><path id="D" d="M795.93 1046.32c-3.22 0-5.02-2.64-5.02-5.66 0-3 1.8-5.64 5.02-5.64s5.02 2.64 5.02 5.64c0 3.02-1.8 5.66-5.02 5.66zm0-10.162c-2.36 0-3.88 1.9-3.88 4.5s1.52 4.52 3.88 4.52c2.38 0 3.88-1.92 3.88-4.52s-1.5-4.5-3.88-4.5z"/><path id="E" d="M819.67 1036.337a3.418 3.418 0 0 0-3.421 3.42v5.66a.57.57 0 0 1-1.141 0v-9.502a.57.57 0 0 1 1.141 0v.82a4.565 4.565 0 0 1 3.421-1.54.57.57 0 1 1 0 1.141z"/><path id="F" d="M841.43 1041.238h-8.302c.18 2.28 1.66 3.94 3.84 3.94a3.615 3.615 0 0 0 2.94-1.381.525.525 0 0 1 .479-.28.611.611 0 0 1 .62.541c0 .18 0 .22-.38.66a4.72 4.72 0 0 1-3.66 1.601c-3.22 0-5.02-2.64-5.02-5.66 0-3 1.8-5.64 5.02-5.64s5.02 2.66 5.02 5.64a.606.606 0 0 1-.56.58zm-4.46-5.08c-2.4 0-3.66 1.84-3.84 3.94h7.7c-.18-2.28-1.66-3.94-3.86-3.94z"/><path id="G" d="M927.89 1046a.616.616 0 0 1-.48-.319l-7.82-11.543v11.282a.57.57 0 0 1-1.141 0v-13.122a.569.569 0 0 1 1.08-.28l7.822 11.542v-11.262a.57.57 0 0 1 1.14 0v13.122a.597.597 0 0 1-.6.58z"/><path id="H" d="M272.344 66.682h-22.2c.84 5.64 4.44 9.24 9.72 9.24a9.005 9.005 0 0 0 7.14-3.12 2.483 2.483 0 0 1 1.86-.96 2.8 2.8 0 0 1 2.7 2.64c0 .72-.18 1.26-1.44 2.52a14.622 14.622 0 0 1-10.26 4.02c-9.66 0-15.06-7.98-15.06-16.98 0-8.94 5.4-16.92 15.06-16.92 9.78 0 15 7.98 15 16.92a2.558 2.558 0 0 1-2.52 2.64zm-12.48-14.46c-5.64 0-8.94 4.14-9.72 9.3h19.44c-.84-5.76-4.44-9.3-9.72-9.3z"/><path id="I" d="M372.303 80a5.839 5.839 0 0 1-5.34-3.42 13.747 13.747 0 0 1-10.56 4.44c-9.78 0-15.06-8.04-15.06-16.98s5.4-16.92 15.06-16.92a13.258 13.258 0 0 1 9.899 3.96v-.24a2.476 2.476 0 0 1 2.52-2.7 2.412 2.412 0 0 1 2.64 2.52v23.16a.971.971 0 0 0 .84 1.08 2.55 2.55 0 1 1 0 5.1zm-15.9-27.78c-6 0-9.9 4.68-9.9 11.82 0 7.2 3.9 11.88 9.9 11.88 6.06 0 9.9-4.68 9.9-11.88 0-7.14-3.84-11.82-9.9-11.82z"/><path id="J" d="M436.983 51.742l-16.2 36.838a6.876 6.876 0 0 1-6.6 4.02h-1.92a2.42 2.42 0 0 1-2.52-2.64 2.387 2.387 0 0 1 2.52-2.52h1.86a1.894 1.894 0 0 0 1.98-.96l3.96-8.88-11.7-25.86a2.168 2.168 0 0 1-.3-1.14 2.705 2.705 0 0 1 2.76-2.52 2.31 2.31 0 0 1 2.16 1.56l9.78 21.72 9.54-21.72a2.375 2.375 0 0 1 2.22-1.5 2.659 2.659 0 0 1 2.76 2.46 2.039 2.039 0 0 1-.3 1.14z"/><path id="K" d="M548.1 80a2.424 2.424 0 0 1-2.52-2.52v-16.68a8.55 8.55 0 1 0-17.099 0v16.62a2.55 2.55 0 0 1-2.64 2.64 2.472 2.472 0 0 1-2.52-2.58v-26.82a2.387 2.387 0 0 1 2.52-2.52 2.509 2.509 0 0 1 2.58 1.98 13.703 13.703 0 0 1 22.259 10.68v16.62a2.454 2.454 0 0 1-2.58 2.58z"/><path id="L" d="M566.282 81.02c-3.3 0-8.82-1.02-11.64-4.5a2.655 2.655 0 0 1 2.16-4.26 2.464 2.464 0 0 1 1.86 1.02c1.86 2.04 4.92 2.64 7.62 2.64 5.4 0 7.14-1.86 7.14-4.56 0-7.68-18.3-2.94-18.3-15.3 0-6.54 6.12-8.94 11.82-8.94 3.24 0 10.86 1.62 10.86 4.98a2.694 2.694 0 0 1-2.52 2.7 3.612 3.612 0 0 1-1.98-.78c-1.62-1.38-3.96-1.8-6.36-1.8-4.98 0-6.72 1.86-6.72 3.84 0 7.14 18.36 2.52 18.36 15.3 0 7.08-5.94 9.66-12.3 9.66z"/><path id="M" d="M628.56 43.282a4.32 4.32 0 1 1 4.32-4.319 4.302 4.302 0 0 1-4.32 4.319zm0 36.72a2.52 2.52 0 0 1-2.64-2.52v-26.76a2.534 2.534 0 0 1 2.64-2.58 2.472 2.472 0 0 1 2.52 2.58v26.76a2.421 2.421 0 0 1-2.52 2.52z"/><path id="N" d="M634.95 142.22c-9.66 0-15.06-7.92-15.06-16.98 0-9 5.4-16.92 15.06-16.92s15.06 7.92 15.06 16.92c0 9.06-5.4 16.98-15.06 16.98zm0-28.8c-6 0-9.9 4.68-9.9 11.82 0 7.2 3.9 11.88 9.9 11.88 6.06 0 9.9-4.68 9.9-11.88 0-7.14-3.84-11.82-9.9-11.82z"/><path id="O" d="M171.053 413.345a11.078 11.078 0 0 1-7.169-2.64.783.783 0 0 1-.27-.6.912.912 0 0 1 .87-.87c.36 0 .33.1.96.57a9.505 9.505 0 0 0 5.609 1.83c3.78 0 5.97-1.4 5.97-4.1 0-7.11-12.69-3.15-12.69-11.34 0-3.6 3.15-5.25 7.02-5.25 2.16 0 5.19.93 6.54 2.82a.881.881 0 0 1 .18.51.872.872 0 0 1-.9.84c-.42 0-.42-.12-.93-.63a6.942 6.942 0 0 0-4.89-1.83c-3.57 0-5.3 1.38-5.3 3.54 0 6.45 12.69 2.7 12.69 11.34 0 4.17-3.66 5.82-7.68 5.82z"/><path id="P" d="M187.823 412.835h-.93c-2.37 0-3.54-1.17-3.54-3.5v-10.71h-1.53a.855.855 0 0 1 0-1.709h1.53v-4.6a.843.843 0 0 1 .87-.84.819.819 0 0 1 .84.84v4.6h2.76a.855.855 0 0 1 0 1.709h-2.76v10.71c0 1.47.42 1.8 1.83 1.8h.93a.855.855 0 0 1 0 1.71z"/><path id="Q" d="M198.833 398.376a5.127 5.127 0 0 0-5.13 5.13v8.49a.855.855 0 0 1-1.71 0v-14.25a.855.855 0 0 1 1.71 0v1.23a6.848 6.848 0 0 1 5.13-2.31.855.855 0 1 1 0 1.71z"/><path id="R" d="M217.456 412.835h-.03a3.106 3.106 0 0 1-2.97-2.34 6.805 6.805 0 0 1-5.819 2.85c-4.9 0-7.53-4.02-7.53-8.5 0-4.53 2.7-8.46 7.53-8.46a6.858 6.858 0 0 1 5.819 2.82v-1.47a.845.845 0 0 1 .87-.84.819.819 0 0 1 .84.84v12.09c0 1.92 2.16.72 2.16 2.16a.825.825 0 0 1-.87.84zm-8.82-14.73c-3.54 0-5.82 2.85-5.82 6.75s2.28 6.78 5.82 6.78c3.57 0 5.82-2.88 5.82-6.78s-2.25-6.75-5.82-6.75z"/><path id="S" d="M249.947 413.405c-1.8 0-4.83-.63-5.88-2.37a.722.722 0 0 1-.12-.45.819.819 0 0 1 1.53-.48c1.08 1.32 3 1.6 4.47 1.6 2.9 0 4.38-.96 4.38-2.9 0-4.53-9.84-2.13-9.84-8.13 0-3.03 3.03-4.2 5.76-4.2a8.131 8.131 0 0 1 5.16 1.74.84.84 0 0 1 .27.57.972.972 0 0 1-.93.9.793.793 0 0 1-.57-.24 5.998 5.998 0 0 0-3.93-1.26c-2.64 0-4.05 1.02-4.05 2.5 0 4.2 9.84 1.98 9.84 8.13 0 3.42-3 4.62-6.1 4.62z"/><path id="T" d="M767.102 413.345c-4.83 0-7.53-3.96-7.53-8.5 0-4.5 2.7-8.46 7.53-8.46s7.53 3.96 7.53 8.46c0 4.53-2.7 8.5-7.53 8.5zm0-15.24c-3.54 0-5.82 2.85-5.82 6.75s2.28 6.78 5.82 6.78c3.57 0 5.82-2.88 5.82-6.78s-2.25-6.75-5.82-6.75z"/><path id="U" d="M781.77 413.015a3.143 3.143 0 0 1-2.97-3.18v-17.52a.855.855 0 0 1 1.71 0v17.52c0 1.92 2.13.8 2.13 2.16a.967.967 0 0 1-.87 1.02z"/><path id="V" d="M798.9 398.106l-8.13 19.23a3.104 3.104 0 0 1-3.21 1.8h-1.32a.855.855 0 0 1 0-1.71h1.32c.66 0 1.35-.03 1.62-.72l1.7-4.08-6.2-14.52a.953.953 0 0 1-.06-.39.839.839 0 0 1 .87-.81.77.77 0 0 1 .75.51l5.58 13.02 5.52-13.02a.782.782 0 0 1 .78-.51.813.813 0 0 1 .84.81.953.953 0 0 1-.06.39z"/><path id="W" d="M866.874 405.725h-12.45c.27 3.42 2.5 5.9 5.76 5.9a5.422 5.422 0 0 0 4.41-2.07.786.786 0 0 1 .72-.42.917.917 0 0 1 .93.81c0 .27 0 .33-.57 1a7.082 7.082 0 0 1-5.49 2.4c-4.83 0-7.53-3.96-7.53-8.5 0-4.5 2.7-8.46 7.53-8.46s7.53 4 7.53 8.46a.908.908 0 0 1-.84.87zm-6.69-7.62c-3.6 0-5.5 2.76-5.76 5.9h11.55c-.27-3.42-2.5-5.9-5.8-5.9z"/><path id="X" d="M884.724 412.835a.844.844 0 0 1-.87-.84v-8.76a5.13 5.13 0 1 0-10.259 0v8.76a.855.855 0 0 1-1.71 0v-14.25a.855.855 0 0 1 1.71 0v.96a6.843 6.843 0 0 1 11.969 4.53v8.76a.836.836 0 0 1-.84.84z"/><path id="Y" d="M239.405 682.633c-1.8 0-4.83-.63-5.88-2.37a.722.722 0 0 1-.12-.45.819.819 0 0 1 1.53-.48c1.08 1.32 3 1.6 4.47 1.6 2.9 0 4.38-.96 4.38-2.9 0-4.53-9.84-2.13-9.84-8.13 0-3.03 3.03-4.2 5.76-4.2a8.131 8.131 0 0 1 5.16 1.74.841.841 0 0 1 .27.57.972.972 0 0 1-.93.9.793.793 0 0 1-.57-.24 5.998 5.998 0 0 0-3.93-1.26c-2.64 0-4.05 1.02-4.05 2.5 0 4.2 9.84 1.98 9.84 8.13 0 3.42-3 4.62-6.1 4.62z"/><path id="Z" d="M807.943 663.254a1.71 1.71 0 1 1 1.709-1.71 1.69 1.69 0 0 1-1.709 1.71zm0 18.81a.825.825 0 0 1-.87-.84v-14.25a.826.826 0 0 1 .87-.84.817.817 0 0 1 .84.84v14.25a.803.803 0 0 1-.84.84z"/></defs><rect width="1080" height="1080" rx="40" fill="url(#A)"/><g opacity=".5"><path d="M42.328 1046.045a7.892 7.892 0 0 1-5.503-2.002 1.364 1.364 0 0 1-1.468 1.401 1.346 1.346 0 0 1-1.401-1.401v-20.88a1.435 1.435 0 0 1 2.869-.033v6.238a7.4 7.4 0 0 1 5.503-2.169c5.37 0 8.373 4.403 8.373 9.406 0 5.037-3.002 9.44-8.373 9.44zm0-16c-3.335 0-5.503 2.602-5.503 6.57 0 4.003 2.168 6.604 5.503 6.604s5.504-2.602 5.504-6.604c0-3.97-2.168-6.57-5.504-6.57zm25.555 8.037h-12.34c.467 3.136 2.468 5.137 5.403 5.137a5.003 5.003 0 0 0 3.969-1.734 1.383 1.383 0 0 1 1.034-.533 1.556 1.556 0 0 1 1.501 1.468c0 .4-.1.7-.8 1.4a8.129 8.129 0 0 1-5.704 2.235c-5.37 0-8.372-4.437-8.372-9.44 0-4.97 3.002-9.406 8.372-9.406 5.437 0 8.34 4.437 8.34 9.406a1.422 1.422 0 0 1-1.401 1.468zm-6.937-8.038c-3.136 0-4.97 2.3-5.403 5.17H66.35c-.467-3.202-2.468-5.17-5.403-5.17zM88 1045.478a3.247 3.247 0 0 1-2.969-1.901 7.642 7.642 0 0 1-5.87 2.469c-5.437 0-8.372-4.47-8.372-9.44s3.002-9.406 8.372-9.406a7.369 7.369 0 0 1 5.504 2.202v-.134a1.376 1.376 0 0 1 1.4-1.501 1.341 1.341 0 0 1 1.468 1.401v12.875a.54.54 0 0 0 .467.601 1.418 1.418 0 1 1 0 2.835zm-8.84-15.443c-3.336 0-5.504 2.602-5.504 6.57 0 4.003 2.168 6.604 5.504 6.604 3.37 0 5.504-2.602 5.504-6.604 0-3.97-2.135-6.57-5.504-6.57z"/><use xlink:href="#B"/><path d="M115.158 1045.478h-.567c-3.17 0-4.37-1.668-4.37-4.403V1030.6h-1a1.418 1.418 0 1 1-.033-2.835h1v-4.637a1.355 1.355 0 0 1 1.435-1.4 1.328 1.328 0 0 1 1.401 1.4v4.637h2.135a1.383 1.383 0 0 1 1.4 1.401 1.356 1.356 0 0 1-1.4 1.434h-2.135v10.774c0 .934.333 1.268 1.268 1.268h.833a1.376 1.376 0 0 1 1.435 1.4 1.357 1.357 0 0 1-1.4 1.435zm4.604-20.415a2.401 2.401 0 1 1 2.402-2.401 2.392 2.392 0 0 1-2.402 2.401zm0 20.414a1.4 1.4 0 0 1-1.467-1.401V1029.2a1.408 1.408 0 0 1 1.467-1.435 1.374 1.374 0 0 1 1.401 1.435v14.876a1.346 1.346 0 0 1-1.401 1.401zm10.376-14.877h-1.5v13.442a1.364 1.364 0 0 1-1.468 1.401 1.346 1.346 0 0 1-1.401-1.401V1030.6h-1.37a1.418 1.418 0 0 1 0-2.835h1.367v-2.27a3.801 3.801 0 0 1 3.836-3.769 1.418 1.418 0 1 1 0 2.835.934.934 0 0 0-.967.9v2.302h1.5a1.418 1.418 0 1 1 0 2.835z"/><use xlink:href="#B" x="42.068"/><path d="M154.725 1045.544a3.403 3.403 0 0 1-3.336-3.402v-18.98a1.435 1.435 0 0 1 2.869-.033v19.013a.527.527 0 0 0 .467.567 1.418 1.418 0 1 1 0 2.835zm15.37-.066v-1.264c1.886-.237 2.046-.437 2.046-3.157v-6.7c0-2.8-1.248-4.017-3.064-4.017a5.597 5.597 0 0 0-3.47 1.493v9.476c0 2.527.187 2.658 2.06 2.896v1.264h-8.968v-1.264c2.254-.33 2.5-.4 2.5-3v-8.2c0-2.446-.303-2.565-2.185-2.922v-1.184a34.101 34.101 0 0 0 6.653-1.533l-.052 2.95 2.6-1.745a5.659 5.659 0 0 1 3.159-1.086c3.194 0 5.2 2.338 5.2 6.3v7.5c0 2.54.237 2.657 2.277 2.92v1.264zm23.9-3.703c-2.458 3.427-5.488 4.178-7.014 4.178-5.142 0-8.124-3.936-8.124-8.594a10.333 10.333 0 0 1 2.832-7.062 8.602 8.602 0 0 1 6.082-2.814 6.386 6.386 0 0 1 6.37 6.347c-.014.715-.08 1.277-.612 1.4-.767.184-6.17.5-10.318.647.062 4.587 2.717 6.74 5.556 6.74a6.776 6.776 0 0 0 4.543-1.866zm-7.07-12.7c-1.667 0-3.167 1.807-3.516 4.963l5.486-.118c.6-.026.848-.146.848-.792.04-2.022-1.037-4.053-2.818-4.053zm34.284.145c-1.943.343-2.248.624-3.105 2.765-1.33 3.462-3.102 8.53-4.934 13.94h-1.512l-4.65-11.46-4.55 11.46h-1.472l-4.685-14.192c-.687-1.985-.94-2.274-2.855-2.512v-1.25h9.397v1.25c-2.325.345-2.535.672-2.058 2.133l2.52 8.214c1.507-3.68 2.988-7.62 4.327-11.424h1.456c1.4 3.76 2.986 7.702 4.573 11.568.742-2.107 2.062-5.964 2.557-8.108.412-1.674-.008-2.078-2.753-2.383v-1.25h7.742zm9.4 3.746c-.92-2.606-2.155-3.984-4.2-3.984a2.166 2.166 0 0 0-2.225 2.266c0 1.497 1.046 2.264 3.16 3.216 3.278 1.496 5.3 2.787 5.3 5.736 0 3.85-3.6 5.764-6.945 5.764a12.073 12.073 0 0 1-4.92-1.161l-.662-4.892 1.252-.224c.8 2.5 2.33 4.75 4.976 4.75a2.231 2.231 0 0 0 2.438-2.281c0-1.423-.76-2.333-3.092-3.467-2.67-1.295-5.107-2.64-5.107-5.775 0-3.046 2.533-5.42 6.565-5.42a18.751 18.751 0 0 1 4.112.567l.62 4.577z"/></g><g opacity=".5"><use xlink:href="#C"/><use xlink:href="#D"/><path d="M811.7 1045.98a.562.562 0 0 1-.58-.561v-.64a4.442 4.442 0 0 1-3.421 1.54 4.61 4.61 0 0 1-4.561-4.561v-5.842a.57.57 0 0 1 1.14 0v5.842a3.421 3.421 0 0 0 6.842 0v-5.842a.57.57 0 0 1 1.141 0v9.502a.558.558 0 0 1-.561.561z"/><use xlink:href="#E"/><path d="M829.85 1044.798a4.645 4.645 0 0 1-3.58 1.521c-3.22 0-5.02-2.64-5.02-5.66 0-3 1.8-5.64 5.02-5.64a4.647 4.647 0 0 1 3.58 1.52.531.531 0 0 1 .16.381.627.627 0 0 1-.58.6.587.587 0 0 1-.42-.2 3.526 3.526 0 0 0-2.74-1.16c-2.36 0-3.88 1.9-3.88 4.5s1.52 4.52 3.88 4.52a3.596 3.596 0 0 0 2.74-1.16.587.587 0 0 1 .42-.2.594.594 0 0 1 .58.58.571.571 0 0 1-.16.399z"/><use xlink:href="#F"/><use xlink:href="#C" x="62.498"/><path d="M854.907 1039.418a1.14 1.14 0 1 1 0-2.28 1.14 1.14 0 0 1 0 2.28zm0 6.562a1.14 1.14 0 1 1 0-2.28 1.14 1.14 0 0 1 0 2.28zm14.223.34c-4.4 0-5.82-3.7-5.82-7.46 0-3.74 1.42-7.482 5.82-7.482a5.095 5.095 0 0 1 4.44 2.181.405.405 0 0 1 .12.32.6.6 0 0 1-.62.561c-.28 0-.44-.24-.66-.52a3.879 3.879 0 0 0-3.28-1.4c-3.02 0-4.682 2.32-4.682 6.342 0 3.04.96 6.32 4.682 6.32 3.16 0 4.54-2.42 4.68-5.74h-2.44a.572.572 0 0 1-.6-.58.561.561 0 0 1 .56-.58h3.04a.556.556 0 0 1 .58.58c0 3.9-1.54 7.46-5.82 7.46z"/><use xlink:href="#D" x="85.838"/><use xlink:href="#D" x="97.797"/><path d="M910.148 1045.98a.563.563 0 0 1-.581-.561v-1a4.536 4.536 0 0 1-3.88 1.9c-3.22 0-5.02-2.64-5.02-5.66 0-3 1.8-5.64 5.02-5.64a4.571 4.571 0 0 1 3.88 1.88v-4.6a.57.57 0 0 1 1.141 0v13.122a.558.558 0 0 1-.56.561zm-4.46-9.822c-2.36 0-3.88 1.9-3.88 4.5s1.52 4.52 3.88 4.52c2.38 0 3.88-1.92 3.88-4.52s-1.5-4.5-3.88-4.5z"/><use xlink:href="#G"/><use xlink:href="#F" x="98.918"/><path d="M956.448 1036.097l-3.26 9.4c-.14.38-.32.48-.58.48-.34 0-.44-.12-.56-.48l-2.62-7.802-2.62 7.802c-.14.38-.32.48-.58.48a.584.584 0 0 1-.56-.48l-3.24-9.4a.876.876 0 0 1-.04-.221.569.569 0 0 1 .58-.52.519.519 0 0 1 .52.38l2.74 7.922 2.62-7.822c.12-.38.24-.48.58-.48.24 0 .44.08.56.48l2.66 7.822 2.7-7.922a.519.519 0 0 1 .521-.38.582.582 0 0 1 .62.54.607.607 0 0 1-.04.2z"/><use xlink:href="#C" x="176.536"/><use xlink:href="#G" x="54.357"/><path d="M994.707 1041.238h-8.302c.18 2.28 1.66 3.94 3.84 3.94a3.615 3.615 0 0 0 2.94-1.381.525.525 0 0 1 .48-.28.611.611 0 0 1 .62.541c0 .18 0 .22-.38.66a4.72 4.72 0 0 1-3.66 1.601c-3.22 0-5.02-2.64-5.02-5.66 0-3 1.8-5.64 5.02-5.64s5.02 2.66 5.02 5.64a.606.606 0 0 1-.56.58zm-4.46-5.08c-2.4 0-3.66 1.84-3.84 3.94h7.7c-.18-2.28-1.66-3.94-3.86-3.94zm11.06 9.822h-.62a2.075 2.075 0 0 1-2.36-2.341v-7.142h-1.02a.57.57 0 0 1 0-1.14h1.02v-3.06a.562.562 0 0 1 .58-.561.546.546 0 0 1 .56.561v3.06h1.84a.57.57 0 0 1 0 1.14h-1.84v7.142c0 .98.28 1.2 1.22 1.2h.62a.571.571 0 0 1 0 1.141zm15.542-9.883l-3.26 9.4c-.14.38-.32.48-.58.48-.34 0-.44-.12-.56-.48l-2.62-7.802-2.62 7.802c-.14.38-.32.48-.58.48a.584.584 0 0 1-.56-.48l-3.24-9.4a.876.876 0 0 1-.04-.221.569.569 0 0 1 .58-.52.519.519 0 0 1 .521.38l2.74 7.922 2.62-7.822c.12-.38.24-.48.58-.48.24 0 .44.08.56.48l2.66 7.822 2.7-7.922a.519.519 0 0 1 .521-.38.582.582 0 0 1 .62.54.607.607 0 0 1-.04.2z"/><use xlink:href="#D" x="227.435"/><use xlink:href="#E" x="215.655"/><path d="M1044.846 1036.337l-3.44 3.44 3.4 5.32a.564.564 0 0 1 .12.319.608.608 0 0 1-.6.541.565.565 0 0 1-.48-.261l-3.28-5.1-2.06 2.08v2.74a.57.57 0 0 1-1.141 0v-13.122a.57.57 0 0 1 1.141 0v8.762l5.52-5.52a.564.564 0 0 1 .421-.18.577.577 0 0 1 .58.56.561.561 0 0 1-.181.421z"/></g><path d="M224.345 81.02c-13.2 0-17.46-11.1-17.46-22.38 0-11.58 4.56-22.44 17.46-22.44 5.46 0 10.02 1.92 13.32 6.54a2.557 2.557 0 0 1 .54 1.5 2.873 2.873 0 0 1-2.88 2.58c-1.08 0-1.2-.48-2.16-1.56-1.92-2.34-4.5-3.9-8.82-3.9-9.24 0-12.3 7.86-12.3 17.28 0 8.22 2.22 17.28 12.3 17.28 7.32 0 11.7-5.22 12.12-13.86h-5.4a2.501 2.501 0 0 1-2.64-2.58 2.471 2.471 0 0 1 2.52-2.58h8.22a2.52 2.52 0 0 1 2.64 2.64c-.24 11.22-4.74 21.48-17.46 21.48z"/><use xlink:href="#H"/><path d="M292.624 52.222a8.644 8.644 0 0 0-8.52 8.58v16.62a2.501 2.501 0 0 1-2.64 2.58 2.456 2.456 0 0 1-2.52-2.52v-26.76a2.541 2.541 0 0 1 2.52-2.58 2.463 2.463 0 0 1 2.58 2.04 13.874 13.874 0 0 1 8.58-3.06 2.552 2.552 0 1 1 0 5.1zM334.503 80a2.457 2.457 0 0 1-2.52-2.52v-18.9a6.33 6.33 0 1 0-12.659-.06v18.9a2.454 2.454 0 0 1-2.58 2.58 2.424 2.424 0 0 1-2.52-2.52v-18.9a6.36 6.36 0 0 0-12.719-.06v18.9a2.501 2.501 0 0 1-2.64 2.58 2.456 2.456 0 0 1-2.52-2.52V50.66a2.632 2.632 0 0 1 4.8-1.44 11.56 11.56 0 0 1 6.66-2.1 11.358 11.358 0 0 1 8.939 4.26 11.24 11.24 0 0 1 8.88-4.26 11.459 11.459 0 0 1 11.52 11.4v18.9a2.501 2.501 0 0 1-2.64 2.58z"/><use xlink:href="#I"/><path d="M402.843 80a2.424 2.424 0 0 1-2.52-2.52v-16.68a8.55 8.55 0 1 0-17.099 0v16.62a2.551 2.551 0 0 1-2.64 2.64 2.472 2.472 0 0 1-2.52-2.58v-26.82a2.387 2.387 0 0 1 2.52-2.52 2.509 2.509 0 0 1 2.58 1.98 13.703 13.703 0 0 1 22.259 10.68v16.62a2.454 2.454 0 0 1-2.58 2.58z"/><use xlink:href="#J"/><path d="M471.542 80h-16.14a2.73 2.73 0 0 1-2.64-2.52V39.863a2.511 2.511 0 0 1 2.52-2.58h14.88a11.255 11.255 0 0 1 11.22 11.1 10.801 10.801 0 0 1-3.42 7.979 12.411 12.411 0 0 1 6.3 10.919 12.804 12.804 0 0 1-12.719 12.72zm-1.38-37.62h-12.24v12.12h12.24a6.06 6.06 0 1 0 0-12.12zm1.38 17.22h-13.62v15.3h13.62a7.65 7.65 0 0 0 0-15.3z"/><use xlink:href="#I" x="145.257"/><use xlink:href="#K"/><use xlink:href="#L"/><path d="M606.84 81.02c-4.38 0-10.5-1.8-13.92-4.98a2.4 2.4 0 0 1-.84-1.86 2.599 2.599 0 0 1 2.58-2.58c.9 0 1.2.3 2.28 1.14a16.242 16.242 0 0 0 9.899 3.18c7.14 0 10.26-2.58 10.26-7.02 0-12.48-23.94-5.4-23.94-21.72 0-7.32 6.18-10.98 14.1-10.98 4.14 0 10.08 1.62 13.02 5.1a2.365 2.365 0 0 1 .66 1.62 2.795 2.795 0 0 1-2.58 2.7c-.9 0-1.38-.42-2.4-1.32a13.181 13.181 0 0 0-8.7-2.94c-6.48 0-8.94 2.58-8.94 5.82 0 11.22 23.94 4.56 23.94 21.72 0 8.94-7.5 12.12-15.42 12.12z"/><use xlink:href="#M"/><use xlink:href="#K" x="114.12"/><path d="M684.06 93.68c-3.66 0-12.72-1.32-12.72-4.92a2.794 2.794 0 0 1 2.58-2.7c1.38 0 .18.18 3.36 1.38a18.748 18.748 0 0 0 6.78 1.14c6.66 0 9.9-3.18 9.9-9.48v-2.7a14.039 14.039 0 0 1-9.9 3.6C674.58 80 669 73.28 669 64.04c0-9 5.4-16.92 15.06-16.92 4.2 0 7.44 1.26 9.9 3.84v-.24a2.553 2.553 0 0 1 2.58-2.58 2.519 2.519 0 0 1 2.58 2.58V79.1c0 9.54-5.7 14.58-15.06 14.58zm0-41.458c-6 0-9.9 4.68-9.9 11.82 0 6.84 3.6 10.86 9.9 10.86s9.9-4.02 9.9-10.86c0-7.14-3.84-11.82-9.9-11.82zm26.82 27.898a6.122 6.122 0 0 1-6-6.12V39.863a2.58 2.58 0 0 1 5.16-.06V74a.947.947 0 0 0 .84 1.02 2.55 2.55 0 1 1 0 5.1zm31.798-13.438h-22.2c.84 5.64 4.44 9.24 9.72 9.24a9.005 9.005 0 0 0 7.14-3.12 2.484 2.484 0 0 1 1.86-.96 2.8 2.8 0 0 1 2.7 2.64c0 .72-.18 1.26-1.44 2.52a14.622 14.622 0 0 1-10.26 4.02c-9.66 0-15.06-7.98-15.06-16.98 0-8.94 5.4-16.92 15.06-16.92 9.78 0 15 7.98 15 16.92a2.558 2.558 0 0 1-2.52 2.64zm-12.48-14.46c-5.64 0-8.94 4.14-9.72 9.3h19.44c-.84-5.76-4.44-9.3-9.72-9.3zm37.44 10.8h-17.16a2.55 2.55 0 1 1 0-5.1h17.16a2.55 2.55 0 0 1 0 5.1zm21.96 18.058a15.03 15.03 0 0 1-15.06-15.06V39.8a2.581 2.581 0 0 1 5.16 0v26.22a9.93 9.93 0 1 0 19.859 0V39.86a2.55 2.55 0 1 1 5.1-.06v26.22a15.031 15.031 0 0 1-15.06 15.06z"/><use xlink:href="#L" x="254.215"/><use xlink:href="#H" x="590.392"/><path d="M322.175 122.722h-12.84v15.9a2.58 2.58 0 0 1-5.16.06v-37.618a2.491 2.491 0 0 1 2.52-2.58h15.54c5.28 0 12.06 4.14 12.06 12.06a12.099 12.099 0 0 1-12.12 12.179zm0-19.14h-12.84v14.04h12.78a7.02 7.02 0 0 0 .06-14.04zm21.84 37.738a6.122 6.122 0 0 1-6-6.12v-34.138a2.58 2.58 0 0 1 5.16-.06V135.2a.947.947 0 0 0 .84 1.02 2.55 2.55 0 1 1 0 5.1z"/><use xlink:href="#I" x="6.931" y="61.2"/><use xlink:href="#L" x="-171.268" y="61.2"/><path d="M421.234 141.2h-1.02c-5.7 0-7.86-3-7.86-7.92v-18.84h-1.8a2.55 2.55 0 1 1-.06-5.1h1.8v-8.34a2.436 2.436 0 0 1 2.58-2.52 2.389 2.389 0 0 1 2.52 2.52v8.34h3.84a2.488 2.488 0 0 1 2.52 2.52 2.441 2.441 0 0 1-2.52 2.58h-3.84v19.38c0 1.68.6 2.28 2.28 2.28h1.5a2.475 2.475 0 0 1 2.58 2.52 2.441 2.441 0 0 1-2.52 2.58z"/><use xlink:href="#M" x="-199.046" y="61.201"/><path d="M462.812 137.66a13.936 13.936 0 0 1-10.74 4.56c-9.66 0-15.06-7.92-15.06-16.98 0-9 5.4-16.92 15.06-16.92a13.936 13.936 0 0 1 10.74 4.56 2.615 2.615 0 0 1 .72 1.74 2.794 2.794 0 0 1-2.7 2.58 2.84 2.84 0 0 1-1.86-.84 8.814 8.814 0 0 0-6.9-2.94c-6 0-9.9 4.68-9.9 11.82 0 7.2 3.9 11.88 9.9 11.88a8.923 8.923 0 0 0 6.9-2.939 2.396 2.396 0 0 1 1.86-.9 2.59 2.59 0 0 1 1.98 4.38zm46.438 3.6a2.108 2.108 0 0 1-1.74-.84l-4.32-4.32-2.28 2.28a12.84 12.84 0 1 1-15.6-20.099l-1.2-1.2a11.089 11.089 0 0 1-3.72-8.399 11.344 11.344 0 0 1 11.279-11.28c8.04 0 11.7 7.68 11.7 8.46a2.746 2.746 0 0 1-2.7 2.58c-2.4 0-3.84-5.88-9-5.88a6.069 6.069 0 0 0-6.12 6.12 5.933 5.933 0 0 0 2.16 4.68l15.48 15.48 4.14-4.14a3.012 3.012 0 0 1 1.8-.9 2.706 2.706 0 0 1 2.58 2.7 2.617 2.617 0 0 1-.72 1.86l-4.2 4.08 4.32 4.38a2.534 2.534 0 0 1 .84 1.8 2.757 2.757 0 0 1-2.7 2.64zm-20.04-19.08a7.592 7.592 0 0 0-5.16 7.2 7.814 7.814 0 0 0 7.62 7.739 7.412 7.412 0 0 0 5.4-2.22l2.46-2.46zm50.6 20.04c-4.38 0-10.5-1.8-13.92-4.98a2.4 2.4 0 0 1-.84-1.86 2.599 2.599 0 0 1 2.58-2.58c.9 0 1.2.3 2.28 1.14a16.241 16.241 0 0 0 9.899 3.18c7.14 0 10.26-2.58 10.26-7.02 0-12.48-23.94-5.4-23.94-21.72 0-7.32 6.18-10.98 14.1-10.98 4.14 0 10.08 1.62 13.02 5.1a2.365 2.365 0 0 1 .66 1.62 2.795 2.795 0 0 1-2.58 2.7c-.9 0-1.38-.42-2.4-1.32a13.181 13.181 0 0 0-8.7-2.94c-6.48 0-8.94 2.58-8.94 5.82 0 11.22 23.94 4.56 23.94 21.72 0 8.94-7.5 12.12-15.42 12.12zm29.1-1.02h-1.02c-5.7 0-7.86-3-7.86-7.92v-18.84h-1.8a2.55 2.55 0 0 1-.06-5.1h1.8V101a2.436 2.436 0 0 1 2.58-2.52 2.389 2.389 0 0 1 2.52 2.52v8.34h3.84a2.488 2.488 0 0 1 2.52 2.52 2.441 2.441 0 0 1-2.52 2.58h-3.84v19.38c0 1.68.6 2.28 2.28 2.28h1.5a2.475 2.475 0 0 1 2.58 2.52 2.441 2.441 0 0 1-2.52 2.58z"/><use xlink:href="#J" x="163.407" y="61.2"/><path d="M617.55 113.422a8.644 8.644 0 0 0-8.52 8.58v16.62a2.501 2.501 0 0 1-2.64 2.58 2.456 2.456 0 0 1-2.52-2.52v-26.76a2.541 2.541 0 0 1 2.52-2.58 2.463 2.463 0 0 1 2.58 2.04 13.875 13.875 0 0 1 8.58-3.06 2.552 2.552 0 1 1 0 5.1z"/><use xlink:href="#N"/><path d="M664.528 114.442h-2.7v24.18a2.453 2.453 0 0 1-2.64 2.52 2.421 2.421 0 0 1-2.52-2.52v-24.18h-2.46a2.55 2.55 0 0 1 0-5.1h2.46v-4.08a6.836 6.836 0 0 1 6.899-6.78 2.551 2.551 0 1 1 0 5.1 1.681 1.681 0 0 0-1.74 1.62v4.14h2.7a2.552 2.552 0 1 1 0 5.1z"/><use xlink:href="#N" x="48.898"/><use xlink:href="#I" x="360.923" y="61.2"/><path d="M777.145 141.2a2.457 2.457 0 0 1-2.52-2.52v-18.9a6.33 6.33 0 1 0-12.659-.06v18.9a2.454 2.454 0 0 1-2.58 2.58 2.424 2.424 0 0 1-2.52-2.52v-18.9a6.36 6.36 0 0 0-12.719-.06v18.9a2.501 2.501 0 0 1-2.64 2.58 2.456 2.456 0 0 1-2.52-2.52v-26.82a2.632 2.632 0 0 1 4.8-1.44 11.56 11.56 0 0 1 6.66-2.1 11.359 11.359 0 0 1 8.939 4.26 11.24 11.24 0 0 1 8.88-4.26 11.459 11.459 0 0 1 11.52 11.4v18.9a2.501 2.501 0 0 1-2.64 2.58z"/><path d="M264.758 615.88c-5.63-24.853 3.226-128.184-11.64-126.27-27.3 3.515-17.377 2.336-22.578 29-3.846 11.418-19.546.35-28.3 4.56-4.604 1.33-11.814 1.894-12.638-4.455-1.46-3.2-1.638-23.067-6.202-24.873s-23.492-9.228-23.82-.337c3.3 19.782-20.722 131.4 8.165 143.8 18.768 8.056 32.552.43 41.436.677 8.954-.487 31.973 6.098 41.16-.676 7.225-5.328 16.896-10.532 14.43-21.414zm-35.358 3.758a1.501 1.501 0 0 1-1.473 1.223 1.521 1.521 0 0 1-.279-.026 56.219 56.219 0 0 0-12.691-.437c-4.565.18-9.284.365-13.898-.595-5.14-1.07-9.778-3.46-14.264-5.774a1.5 1.5 0 0 1 1.375-2.667c4.307 2.22 8.76 4.518 13.5 5.504 4.254.885 8.584.715 13.17.534a59.429 59.429 0 0 1 13.365.486 1.5 1.5 0 0 1 1.196 1.752zm1.05-15.805a1.5 1.5 0 0 1-2.121-.024c-4.36-4.462-8.58-9.172-12.54-13.997-1.205-1.468-3.447-4.2-3.007-7.36a1.5 1.5 0 0 1 2.972.414c-.24 1.714 1.1 3.5 2.355 5.043a214.15 214.15 0 0 0 12.365 13.803 1.5 1.5 0 0 1-.024 2.121zm20.027-1.166a1.5 1.5 0 0 1-1.495 1.397 1.66 1.66 0 0 1-.104-.003 1.5 1.5 0 0 1-1.394-1.599 45.408 45.408 0 0 0-1.704-15.827c-.35-1.2-.76-2.425-1.156-3.6a43.176 43.176 0 0 1-2.237-8.632c-.8-6.798 1.54-13.424 3.604-19.27a1.5 1.5 0 0 1 2.829.999c-1.956 5.537-4.173 11.814-3.454 17.92a40.271 40.271 0 0 0 2.103 8.03l1.192 3.725a48.402 48.402 0 0 1 1.816 16.869zm247.918-240.912a2.136 2.136 0 0 0 2.261 2.261h78.236a2.533 2.533 0 0 0 2.261-2.714l9.253-114.996H489.14zM590.65 243.27a4.902 4.902 0 0 0 3.618-4.975V225.18a5.133 5.133 0 0 0-5.427-4.975h-98.135a5.019 5.019 0 0 0-4.974 4.975v13.115c0 2.26 1.357 4.522 3.166 4.975l.003.037h101.747zm-369.43-21.493a18.314 18.314 0 0 1 1.774-1.537l-6.303-10.917a30.753 30.753 0 0 0-9.189 9.922l10.862 6.27a18.185 18.185 0 0 1 2.857-3.739zm-5.3 12.8a18.184 18.184 0 0 1 1.167-6.351l-10.95-6.322a30.558 30.558 0 0 0-2.734 12.671v.176h12.518zm16.566-18.043V204a30.386 30.386 0 0 0-13.233 3.755l6.263 10.85a18.01 18.01 0 0 1 6.969-2.048zm38.54-12.597l-35.54.003v12.516l35.54-.001a3.369 3.369 0 0 0 3.369-3.369v-5.78a3.369 3.369 0 0 0-3.369-3.369zm-67.623 162.96a3.369 3.369 0 0 0 3.369 3.369h5.78a3.369 3.369 0 0 0 3.369-3.369V237.762H203.4zm748.707-72.54a8.974 8.974 0 0 0-8.65-9.283l-6.54-36.076a12.171 12.171 0 0 0-11.814-9.916h-108.65a12.001 12.001 0 0 0-11.814 9.916l-6.54 36.076h-.422a9.005 9.005 0 0 0-9.072 9.072v1.454H952.1zm-163.503 6.118a9.005 9.005 0 0 0 9.072 9.072h.422l6.75 36.7a12.171 12.171 0 0 0 11.814 9.916h2.32v-21.428a1.5 1.5 0 0 1 3 0v21.428H835.6v-21.428a1.5 1.5 0 0 1 3 0v21.428h13.624v-21.428a1.5 1.5 0 0 1 3 0v21.428h13.625v-21.428a1.5 1.5 0 1 1 3 0v21.428h13.624v-21.428a1.5 1.5 0 1 1 3 0v21.428h13.624v-21.428a1.5 1.5 0 0 1 3 0v21.428h13.624v-21.428a1.5 1.5 0 0 1 3 0v21.428h3.375a12.001 12.001 0 0 0 11.814-9.916l6.75-36.7a8.981 8.981 0 0 0 8.439-8.861v-2.086H788.597z" fill="#270078"/><g fill="none" stroke="#eb4700" stroke-miterlimit="10" stroke-width="11.2"><path d="M287.352 219.48L131.95 374.882"/><path d="M131.95 219.48l155.402 155.402M617.7 219.48L462.3 374.882"/><path d="M462.3 219.48l155.4 155.402M948.05 219.48L792.648 374.882"/><path d="M792.648 219.48L948.05 374.882"/></g><g fill="#270078"><use xlink:href="#O"/><use xlink:href="#P"/><use xlink:href="#Q"/><use xlink:href="#R"/><path d="M241.396 398.016l-4.9 14.1c-.2.57-.48.72-.87.72-.5 0-.66-.18-.84-.72l-3.93-11.7-3.93 11.7c-.2.57-.48.72-.87.72a.876.876 0 0 1-.84-.72l-4.86-14.1a1.289 1.289 0 0 1-.06-.33.852.852 0 0 1 .87-.78.779.779 0 0 1 .78.57l4.1 11.88 3.93-11.73c.18-.57.36-.72.87-.72.36 0 .66.12.84.72l4 11.73 4.05-11.88a.778.778 0 0 1 .78-.57.873.873 0 0 1 .93.81.896.896 0 0 1-.06.3z"/><use xlink:href="#S"/><path d="M522.7 410.26a7.173 7.173 0 0 1-6.244 3.052c-6.02 0-8.148-4.984-8.148-10.444 0-5.488 2.128-10.472 8.148-10.472a7.092 7.092 0 0 1 6.216 3.052.569.569 0 0 1 .168.448.839.839 0 0 1-.868.784.742.742 0 0 1-.616-.308 5.509 5.509 0 0 0-4.9-2.38c-4.648 0-6.552 3.64-6.552 8.876 0 5.208 1.904 8.848 6.552 8.848a5.581 5.581 0 0 0 4.956-2.38.652.652 0 0 1 .616-.364.856.856 0 0 1 .84.812.894.894 0 0 1-.168.476zm15.482 2.575a.787.787 0 0 1-.812-.784v-.896a6.219 6.219 0 0 1-4.788 2.156 6.454 6.454 0 0 1-6.384-6.384v-8.176a.798.798 0 0 1 1.596 0v8.176a4.788 4.788 0 1 0 9.576 0v-8.176a.798.798 0 0 1 1.596 0v13.3a.781.781 0 0 1-.784.784zm12.348.475a6.353 6.353 0 0 1-5.432-2.66v7.252a.798.798 0 1 1-1.596 0V398.75a.798.798 0 0 1 1.596 0v1.372a6.402 6.402 0 0 1 5.432-2.632c4.508 0 7.028 3.696 7.028 7.896 0 4.228-2.52 7.924-7.028 7.924zm0-14.224c-3.332 0-5.432 2.66-5.432 6.3s2.1 6.328 5.432 6.328 5.432-2.688 5.432-6.328-2.1-6.3-5.432-6.3zm15.597 14.28c-1.68 0-4.508-.588-5.488-2.212a.677.677 0 0 1-.112-.42.764.764 0 0 1 1.428-.448c1.008 1.232 2.8 1.484 4.172 1.484 2.716 0 4.088-.896 4.088-2.716 0-4.228-9.184-1.988-9.184-7.588 0-2.828 2.828-3.92 5.376-3.92a7.585 7.585 0 0 1 4.816 1.624.783.783 0 0 1 .252.532.908.908 0 0 1-.868.84.742.742 0 0 1-.532-.224 5.599 5.599 0 0 0-3.668-1.176c-2.464 0-3.78.952-3.78 2.324 0 3.92 9.184 1.848 9.184 7.588 0 3.192-2.8 4.312-5.684 4.312zm183.405-9.772h-7.3v8.4a.855.855 0 0 1-1.71 0v-19.68a.886.886 0 0 1 .87-.84h8.1a6.06 6.06 0 1 1 .03 12.12zm0-10.44h-7.3v8.73h7.26a4.365 4.365 0 1 0 .03-8.729z"/><use xlink:href="#T"/><use xlink:href="#U"/><use xlink:href="#V"/><path d="M807.51 413.405c-1.8 0-4.83-.63-5.88-2.37a.722.722 0 0 1-.12-.45.819.819 0 0 1 1.53-.48c1.08 1.32 3 1.6 4.47 1.6 2.9 0 4.38-.96 4.38-2.9 0-4.53-9.84-2.13-9.84-8.13 0-3.03 3.03-4.2 5.76-4.2a8.128 8.128 0 0 1 5.16 1.74.839.839 0 0 1 .27.57.972.972 0 0 1-.93.9.793.793 0 0 1-.57-.24 5.999 5.999 0 0 0-3.93-1.26c-2.64 0-4.05 1.02-4.05 2.5 0 4.2 9.84 1.98 9.84 8.13 0 3.42-3 4.62-6.1 4.62z"/><use xlink:href="#P" x="635.017"/><use xlink:href="#V" x="41.04"/><use xlink:href="#Q" x="651.547"/><use xlink:href="#W"/><use xlink:href="#X"/><use xlink:href="#W" x="36.81"/><path d="M924.174 413.345a6.806 6.806 0 0 1-5.82-2.85v1.5a.855.855 0 0 1-1.71 0v-19.68a.855.855 0 0 1 1.71 0v6.9a6.859 6.859 0 0 1 5.82-2.82c4.83 0 7.53 3.96 7.53 8.46 0 4.53-2.7 8.5-7.53 8.5zm0-15.24c-3.57 0-5.82 2.85-5.82 6.75s2.25 6.78 5.82 6.78 5.82-2.88 5.82-6.78-2.25-6.75-5.82-6.75z"/><use xlink:href="#T" x="175.612"/><path d="M965.843 412.865a.744.744 0 0 1-.63-.33l-5.3-6.72-5.3 6.72a.743.743 0 0 1-.63.33.872.872 0 0 1-.9-.84.936.936 0 0 1 .18-.6l5.55-7-4.86-6.12a1.04 1.04 0 0 1-.21-.6.899.899 0 0 1 .93-.84.743.743 0 0 1 .63.33l4.62 5.85 4.65-5.85a.662.662 0 0 1 .6-.33.899.899 0 0 1 .93.84.823.823 0 0 1-.21.54l-4.9 6.18 5.58 7a.859.859 0 0 1 .24.6.927.927 0 0 1-.96.84zm17.94-7.14h-12.45c.27 3.42 2.5 5.9 5.76 5.9a5.422 5.422 0 0 0 4.41-2.07.786.786 0 0 1 .72-.42.917.917 0 0 1 .93.81c0 .27 0 .33-.57 1a7.083 7.083 0 0 1-5.49 2.4c-4.83 0-7.53-3.96-7.53-8.5 0-4.5 2.7-8.46 7.53-8.46s7.53 4 7.53 8.46a.908.908 0 0 1-.84.87zm-6.7-7.62c-3.6 0-5.5 2.76-5.76 5.9h11.55c-.27-3.42-2.5-5.9-5.8-5.9zm16.7 15.3c-1.8 0-4.83-.63-5.88-2.37a.722.722 0 0 1-.12-.45.819.819 0 0 1 1.53-.48c1.08 1.32 3 1.6 4.47 1.6 2.9 0 4.38-.96 4.38-2.9 0-4.53-9.84-2.13-9.84-8.13 0-3.03 3.03-4.2 5.76-4.2a8.129 8.129 0 0 1 5.16 1.74.839.839 0 0 1 .27.57.972.972 0 0 1-.93.9.793.793 0 0 1-.57-.24 5.999 5.999 0 0 0-3.93-1.26c-2.64 0-4.05 1.02-4.05 2.5 0 4.2 9.84 1.98 9.84 8.13 0 3.42-3 4.62-6.1 4.62zM617.077 553.17l-.063-.5-.395-3.105-.338-1.96-.303-1.686-.734-3.28-.103-.44-.56-2.055-.4-1.443-.542-1.7q-.3-.955-.644-1.9l-.448-1.23-1.033-2.612-.197-.48a76.819 76.819 0 0 0-59.292-46.255l-.53-.08-3.32-.42-.515-.055-3.75-.286-4.83-.08-.68.022-2.67.083-1.188.087-.507.04-2.834.264-1.43.185-3.256.503-1.03.187-4.1.895-.18.044-3.18.876-.596.172-2.127.695-.666.223-1 .347-.773.295-.378.147a77.826 77.826 0 0 0-45.462 46.493l-1.098 3.302-.295 1.026-.267.946-.417 1.5-.82 3.547a76.613 76.613 0 0 0-1.177 23.417l.12.987.338 2.647.47 2.7.168.933.817 3.648.052.2.66 2.415.27.94.58 1.82.6 1.77q.238.664.485 1.33.47 1.256.987 2.498l.242.583a76.851 76.851 0 0 0 59.301 46.228l.493.074 3.24.413.594.063q1.746.174 3.512.27l.234.017 3.927.1 2.175-.063 2.085-.068 1.378-.104.4-.033 2.758-.256 1.483-.192 3.182-.5 1.1-.195 4.003-.873.3-.07 2.93-.808.84-.24 2.5-.826 1.308-.447.922-.354a77.891 77.891 0 0 0 45.583-46.397l.094-.273 1.055-3.177.32-1.107.312-1.107.35-1.273.823-3.55a76.743 76.743 0 0 0 1.171-23.483zm-20.718 36.728a63.311 63.311 0 1 1-112.592-57.933 1.5 1.5 0 1 1 2.664 1.379 60.311 60.311 0 1 0 35.023-29.673 1.5 1.5 0 1 1-.922-2.854 63.312 63.312 0 0 1 75.826 89.082zm273.99-111.452c-6.663 0-10.64 4.367-10.64 11.68v1.76c0 5.74 1.598 8.982 5.207 10.52a1.377 1.377 0 0 1 .903 1.209V640.9a3.705 3.705 0 0 0 3.701 3.701h1.67a3.705 3.705 0 0 0 3.7-3.701V503.616a1.384 1.384 0 0 1 .921-1.22c3.582-1.527 5.18-4.77 5.18-10.5v-1.76c0-7.313-3.978-11.68-10.64-11.68z"/></g><g fill="none" stroke="#eb4700" stroke-miterlimit="10" stroke-width="11.2"><path d="M287.352 483.827L131.95 639.23"/><path d="M131.95 483.827L287.352 639.23M617.7 483.827L462.3 639.23"/><path d="M462.3 483.827L617.7 639.23m330.35-155.403L792.648 639.23"/><path d="M792.648 483.827L948.05 639.23"/></g><g fill="#270078"><path d="M184.955 682.064h-8.7a.908.908 0 0 1-.87-.84v-19.68a.743.743 0 0 1 .78-.84h8.13a5.423 5.423 0 0 1 5.399 5.34 5.205 5.205 0 0 1-2.13 4.29 6.148 6.148 0 0 1-2.61 11.729zm-.66-19.68h-7.2v7.38h7.2a3.69 3.69 0 1 0 0-7.379zm.66 9.09h-7.86v8.88h7.86a4.44 4.44 0 1 0 0-8.88z"/><use xlink:href="#R" x="-6.491" y="269.229"/><path d="M222.005 688.903c-2.55 0-6.15-.96-6.15-2.04a.952.952 0 0 1 .87-.96 10.862 10.862 0 0 1 1.59.72 11.241 11.241 0 0 0 3.69.57c3.84 0 5.82-1.9 5.82-5.58v-2.1a7.16 7.16 0 0 1-5.819 2.55c-4.74 0-7.53-3.36-7.53-7.98 0-4.5 2.7-8.46 7.53-8.46a6.858 6.858 0 0 1 5.819 2.82v-1.44a.855.855 0 0 1 1.71 0v14.61c0 4.77-2.85 7.3-7.53 7.3zm0-21.57c-3.54 0-5.82 2.85-5.82 6.75 0 3.87 2.13 6.27 5.82 6.27s5.82-2.4 5.82-6.27c0-3.9-2.25-6.75-5.82-6.75z"/><use xlink:href="#Y"/><path d="M506.288 672.824H499v8.4a.855.855 0 0 1-1.71 0v-19.68a.886.886 0 0 1 .87-.84h8.1a6.06 6.06 0 1 1 .03 12.12zm0-10.44H499v8.73h7.26a4.365 4.365 0 1 0 .03-8.729zm13.7 19.86a3.144 3.144 0 0 1-2.97-3.18v-17.52a.855.855 0 0 1 1.71 0v17.52c0 1.92 2.13.8 2.13 2.16a.967.967 0 0 1-.87 1.02zm19.86-.18h-.03a3.106 3.106 0 0 1-2.97-2.34 6.805 6.805 0 0 1-5.819 2.85c-4.9 0-7.53-4.02-7.53-8.5 0-4.53 2.7-8.46 7.53-8.46a6.858 6.858 0 0 1 5.819 2.82v-1.47a.846.846 0 0 1 .87-.84.819.819 0 0 1 .84.84v12.1c0 1.92 2.16.72 2.16 2.16a.825.825 0 0 1-.87.84zm-8.82-14.73c-3.54 0-5.82 2.85-5.82 6.75s2.28 6.78 5.82 6.78c3.57 0 5.82-2.88 5.82-6.78s-2.25-6.75-5.82-6.75z"/><use xlink:href="#P" x="361.725" y="269.229"/><use xlink:href="#W" x="-299.627" y="269.229"/><use xlink:href="#S" x="327.32" y="269.228"/><use xlink:href="#O" x="615.08" y="269.228"/><use xlink:href="#P" x="615.08" y="269.229"/><use xlink:href="#Z"/><use xlink:href="#Q" x="621.65" y="269.228"/><use xlink:href="#Q" x="632.15" y="269.228"/><use xlink:href="#Z" x="27.57"/><use xlink:href="#X" x="-30.672" y="269.229"/><path d="M866.322 688.903c-2.55 0-6.15-.96-6.15-2.04a.952.952 0 0 1 .87-.96 10.863 10.863 0 0 1 1.59.72 11.24 11.24 0 0 0 3.69.57c3.84 0 5.82-1.9 5.82-5.58v-2.1a7.16 7.16 0 0 1-5.819 2.55c-4.74 0-7.53-3.36-7.53-7.98 0-4.5 2.7-8.46 7.53-8.46a6.858 6.858 0 0 1 5.819 2.82v-1.44a.855.855 0 0 1 1.71 0v14.61c0 4.77-2.85 7.3-7.53 7.3zm0-21.57c-3.54 0-5.82 2.85-5.82 6.75 0 3.87 2.13 6.27 5.82 6.27s5.82-2.4 5.82-6.27c0-3.9-2.25-6.75-5.82-6.75z"/><use xlink:href="#Y" x="652.267"/><use xlink:href="#P" x="719.179" y="269.229"/><use xlink:href="#Z" x="104.099"/><path d="M929.952 680.294a6.968 6.968 0 0 1-5.37 2.28c-4.83 0-7.53-3.96-7.53-8.5 0-4.5 2.7-8.46 7.53-8.46a6.968 6.968 0 0 1 5.37 2.28.794.794 0 0 1 .24.57.94.94 0 0 1-.87.9.886.886 0 0 1-.63-.3 5.288 5.288 0 0 0-4.109-1.74c-3.54 0-5.82 2.85-5.82 6.75s2.28 6.78 5.82 6.78a5.389 5.389 0 0 0 4.109-1.74.851.851 0 0 1 1.5.57.859.859 0 0 1-.24.6zm15.658-12.7l-5.16 5.16 5.1 7.98a.849.849 0 0 1 .18.479.911.911 0 0 1-.9.81.847.847 0 0 1-.72-.39l-4.92-7.65-3.1 3.12v4.1a.855.855 0 0 1-1.71 0v-19.68a.855.855 0 0 1 1.71 0v13.14l8.28-8.28a.841.841 0 0 1 .63-.27.864.864 0 0 1 .87.84.841.841 0 0 1-.27.63z"/><use xlink:href="#S" x="704.453" y="269.228"/><path d="M559.3 793.813a2.363 2.363 0 0 0-.019-.304l-1.66-12.993-2.685-19.62a3.153 3.153 0 0 0-2.853-2.667h-1.175l-.503 29.906a1.551 1.551 0 0 1-1.343 1.524h-4.165a1.551 1.551 0 0 1-1.343-1.524l-.468-27.782a2.16 2.16 0 0 0-2.16-2.124h-1.962a2.16 2.16 0 0 0-2.16 2.124l-.468 27.782a1.551 1.551 0 0 1-1.343 1.524h-4.06a1.551 1.551 0 0 1-1.343-1.524l-.504-29.906h-1.343a3.011 3.011 0 0 0-2.853 2.667l-2.517 19.43-1.678 13.143.003.168-.003.022c0 6.758 1.07 12.814 3.982 17.242a15.139 15.139 0 0 0 6.919 5.872 2.159 2.159 0 0 1 1.323 2.026l-2.066 105.674c0 2.286 4 5.2 9.143 5.2 4.953 0 9.143-2.905 9.143-5.2l-2.253-105.66a2.149 2.149 0 0 1 1.329-2.032c8.403-3.46 11.057-12.354 11.082-22.97zM219.52 768.23v-2.857a11.218 11.218 0 0 0-.762-4.238c-.953-1.333-2.667-2.096-5.143-2.096-9.26 0-14.26 10.723-16.535 21.97h6.7a1.5 1.5 0 0 1 0 3h-7.25a81.62 81.62 0 0 0-.661 5.188h7.047a1.5 1.5 0 0 1 0 3h-7.277a74.48 74.48 0 0 0-.128 4.274l.008.914h6.992a1.5 1.5 0 1 1 0 3h-6.9c.068 1.555.175 3.304.317 5.188h6.715a1.5 1.5 0 1 1 0 3h-6.467l.53 5.188h6.357a1.5 1.5 0 1 1 0 3h-6c1.742 13.815 5.015 29.636 10.118 35.807l-2.524 71.908c0 2.286 4 5.2 9.143 5.2 4.953 0 9.143-2.905 9.143-5.2zm672.734 25.43c0-13.905-8-36.43-21.906-36.43-13.715 0-21.906 22.525-21.906 36.43 0 11.238 5.524 21.762 14.858 24.8l-1.905 106.004c0 2.286 4 5.2 9.143 5.2 4.953 0 9.143-2.905 9.143-5.2l-2.286-106.195c9.524-3.048 14.858-13.38 14.858-24.62zm-15.5 18.668a1.5 1.5 0 1 1-1.211-2.745c4.363-1.925 7.294-8.894 7.294-17.34 0-5.744-1.437-14.698-4.6-20.786a1.5 1.5 0 0 1 2.664-1.38c3.385 6.534 4.927 16.07 4.927 22.166 0 9.767-3.565 17.65-9.083 20.085z"/></g><g fill="none" stroke="#eb4700" stroke-miterlimit="10" stroke-width="11.2"><path d="M287.352 775.152L131.95 930.554"/><path d="M131.95 775.152l155.402 155.402M617.7 775.152L462.3 930.554"/><path d="M462.3 775.152l155.4 155.402m330.35-155.402L792.648 930.554"/><path d="M792.648 775.152L948.05 930.554"/></g><g fill="#270078"><path d="M507.308 964.792a7.684 7.684 0 0 1-6.689 3.27c-6.45 0-8.73-5.34-8.73-11.2 0-5.88 2.28-11.22 8.73-11.22a7.598 7.598 0 0 1 6.66 3.27.607.607 0 0 1 .18.48.899.899 0 0 1-.93.84.795.795 0 0 1-.66-.33 5.901 5.901 0 0 0-5.25-2.55c-4.98 0-7.02 3.9-7.02 9.5 0 5.58 2.04 9.48 7.02 9.48a5.979 5.979 0 0 0 5.31-2.55.699.699 0 0 1 .66-.39.917.917 0 0 1 .9.87.954.954 0 0 1-.18.51zm16.6 2.76a.844.844 0 0 1-.87-.84v-.96a6.662 6.662 0 0 1-5.129 2.31 6.915 6.915 0 0 1-6.84-6.839v-8.76a.855.855 0 0 1 1.71 0v8.76a5.13 5.13 0 0 0 10.259 0v-8.76a.855.855 0 0 1 1.71 0v14.25a.836.836 0 0 1-.84.84z"/><use xlink:href="#P" x="347.267" y="554.717"/><use xlink:href="#U" x="-239.542" y="554.717"/><use xlink:href="#W" x="-306.917" y="554.717"/><use xlink:href="#Q" x="372.974" y="554.716"/><use xlink:href="#V" x="-210.503" y="554.716"/></g></svg>