<svg xmlns="http://www.w3.org/2000/svg" xmlns:xlink="http://www.w3.org/1999/xlink" viewBox="0 0 1080 1080" xmlns:v="https://vecta.io/nano"><style><![CDATA[.A,.J,.Av,.Aw,.Ax,.Ay,.Az,.BA,.K,.L,.M,.N,.O,.P,.Q,.R,.S,.T,.U,.V,.W,.X,.Y,.Z,.a,.b,.c,.d,.e,.f,.g,.h,.i,.j,.k,.l,.m,.n,.o,.p,.q,.r,.s,.t,.u,.v,.w,.x,.y,.z,.AA,.AB,.AD,.AE,.AF,.AG,.F,.AH,.AI,.AJ,.AK,.AL,.AM,.AN,.AO,.AP,.AQ,.G,.AR,.AS,.AT,.AU,.AV,.AW,.AX,.AY,.AZ,.Aa,.H,.Ab,.Ac,.Ad,.Ae,.Af,.Ag,.Ah,.Ai,.Aj,.Ak,.I,.Al,.Am,.An,.Ao,.Ap,.Aq,.Ar,.As,.At,.Au{isolation:isolate}.E{mix-blend-mode:multiply}.BL{fill:#fff}.BM{opacity:.9}.BN{fill:#fe0}.BO{fill:#fff799}.BP{stroke-miterlimit:10}]]></style><defs><linearGradient id="A" x1="11.716" y1="11.94" x2="1068.284" y2="1068.508" gradientUnits="userSpaceOnUse"><stop offset="0" stop-color="#f857a6"/><stop offset=".112" stop-color="#f95999"/><stop offset=".502" stop-color="#fc6171"/><stop offset=".812" stop-color="#fe6558"/><stop offset="1" stop-color="#ff674f"/></linearGradient><linearGradient id="B" x1="46.424" y1="251.31" x2="46.424" y2="2942.968" gradientUnits="userSpaceOnUse"><stop offset=".001" stop-color="#fff"/><stop offset=".005" stop-color="#fffcfd"/><stop offset=".086" stop-color="#ffc8d8"/><stop offset=".171" stop-color="#ff99b8"/><stop offset=".26" stop-color="#ff709b"/><stop offset=".353" stop-color="#ff4d83"/><stop offset=".451" stop-color="#ff316f"/><stop offset=".557" stop-color="#ff1b60"/><stop offset=".672" stop-color="#ff0c55"/><stop offset=".806" stop-color="#ff034f"/><stop offset="1" stop-color="#ff004d"/></linearGradient><linearGradient id="C" x1="66.99" y1="248.249" x2="66.99" y2="2918.07" xlink:href="#B"/><linearGradient id="D" x1="87.555" y1="249.27" x2="87.555" y2="2926.277" xlink:href="#B"/><linearGradient id="E" x1="108.121" y1="249.27" x2="108.121" y2="2926.277" xlink:href="#B"/><linearGradient id="F" x1="128.686" y1="249.27" x2="128.686" y2="2926.277" xlink:href="#B"/><linearGradient id="G" x1="149.252" y1="255.393" x2="149.252" y2="2977.52" xlink:href="#B"/><linearGradient id="H" x1="169.817" y1="257.434" x2="169.817" y2="2995.405" xlink:href="#B"/><linearGradient id="I" x1="190.383" y1="258.454" x2="190.383" y2="3004.506" xlink:href="#B"/><linearGradient id="J" x1="210.949" y1="258.454" x2="210.949" y2="3004.506" xlink:href="#B"/><linearGradient id="K" x1="231.514" y1="261.516" x2="231.514" y2="3032.473" xlink:href="#B"/><linearGradient id="L" x1="252.08" y1="262.536" x2="252.08" y2="3042.023" xlink:href="#B"/><linearGradient id="M" x1="272.645" y1="259.475" x2="272.645" y2="3013.718" xlink:href="#B"/><linearGradient id="N" x1="293.211" y1="254.372" x2="293.211" y2="2968.731" xlink:href="#B"/><linearGradient id="O" x1="313.776" y1="255.393" x2="313.776" y2="2977.52" xlink:href="#B"/><linearGradient id="P" x1="334.342" y1="260.495" x2="334.342" y2="3023.038" xlink:href="#B"/><linearGradient id="Q" x1="354.908" y1="253.351" x2="354.908" y2="2960.043" xlink:href="#B"/><linearGradient id="R" x1="375.473" y1="238.044" x2="375.473" y2="2840.802" xlink:href="#B"/><linearGradient id="S" x1="396.039" y1="238.044" x2="396.039" y2="2840.802" xlink:href="#B"/><linearGradient id="T" x1="416.604" y1="237.023" x2="416.604" y2="2833.523" xlink:href="#B"/><linearGradient id="U" x1="437.17" y1="240.085" x2="437.17" y2="2855.592" xlink:href="#B"/><linearGradient id="V" x1="457.735" y1="243.146" x2="457.735" y2="2878.384" xlink:href="#B"/><linearGradient id="W" x1="478.301" y1="247.228" x2="478.301" y2="2909.955" xlink:href="#B"/><linearGradient id="X" x1="498.867" y1="263.557" x2="498.867" y2="3051.687" xlink:href="#B"/><linearGradient id="Y" x1="519.432" y1="283.967" x2="519.432" y2="3273.279" xlink:href="#B"/><linearGradient id="Z" x1="539.998" y1="288.05" x2="539.998" y2="3325.221" xlink:href="#B"/><linearGradient id="a" x1="560.563" y1="286.008" x2="560.563" y2="3298.881" xlink:href="#B"/><linearGradient id="b" x1="581.129" y1="273.762" x2="581.129" y2="3155.27" xlink:href="#B"/><linearGradient id="c" x1="601.695" y1="265.598" x2="601.695" y2="3071.38" xlink:href="#B"/><linearGradient id="d" x1="622.26" y1="262.536" x2="622.26" y2="3042.023" xlink:href="#B"/><linearGradient id="e" x1="642.826" y1="272.742" x2="642.826" y2="3144.307" xlink:href="#B"/><linearGradient id="f" x1="663.391" y1="277.844" x2="663.391" y2="3200.578" xlink:href="#B"/><linearGradient id="g" x1="683.957" y1="278.865" x2="683.957" y2="3212.289" xlink:href="#B"/><linearGradient id="h" x1="704.522" y1="281.926" x2="704.522" y2="3248.381" xlink:href="#B"/><linearGradient id="i" x1="725.088" y1="282.947" x2="725.088" y2="3260.742" xlink:href="#B"/><linearGradient id="j" x1="745.654" y1="277.844" x2="745.654" y2="3200.578" xlink:href="#B"/><linearGradient id="k" x1="766.219" y1="277.844" x2="766.219" y2="3200.578" xlink:href="#B"/><linearGradient id="l" x1="786.785" y1="265.598" x2="786.785" y2="3071.38" xlink:href="#B"/><linearGradient id="m" x1="807.35" y1="256.413" x2="807.35" y2="2986.408" xlink:href="#B"/><linearGradient id="n" x1="827.916" y1="253.351" x2="827.916" y2="2960.043" xlink:href="#B"/><linearGradient id="o" x1="848.481" y1="245.187" x2="848.481" y2="2893.995" xlink:href="#B"/><linearGradient id="p" x1="869.047" y1="244.167" x2="869.047" y2="2886.145" xlink:href="#B"/><linearGradient id="q" x1="889.613" y1="234.982" x2="889.613" y2="2819.194" xlink:href="#B"/><linearGradient id="r" x1="910.178" y1="230.9" x2="910.178" y2="2791.414" xlink:href="#B"/><linearGradient id="s" x1="930.744" y1="225.797" x2="930.744" y2="2758.249" xlink:href="#B"/><linearGradient id="t" x1="951.309" y1="224.777" x2="951.309" y2="2751.812" xlink:href="#B"/><linearGradient id="u" x1="971.875" y1="219.674" x2="971.875" y2="2720.569" xlink:href="#B"/><linearGradient id="v" x1="992.44" y1="214.571" x2="992.44" y2="2690.803" xlink:href="#B"/><linearGradient id="w" x1="1013.006" y1="207.428" x2="1013.006" y2="2651.418" xlink:href="#B"/><linearGradient id="x" x1="1033.572" y1="204.366" x2="1033.572" y2="2635.301" xlink:href="#B"/><linearGradient id="y" x1="46.425" y1="252.364" x2="46.425" y2="2525.808" gradientUnits="userSpaceOnUse"><stop offset=".001" stop-color="#fff"/><stop offset=".009" stop-color="#fff6f9" stop-opacity=".964"/><stop offset=".049" stop-color="#ffc8d9" stop-opacity=".784"/><stop offset=".094" stop-color="#ff9dba" stop-opacity=".615"/><stop offset=".143" stop-color="#ff77a0" stop-opacity=".467"/><stop offset=".196" stop-color="#ff5789" stop-opacity=".34"/><stop offset=".255" stop-color="#ff3b76" stop-opacity=".233"/><stop offset=".321" stop-color="#ff2567" stop-opacity=".147"/><stop offset=".398" stop-color="#ff145b" stop-opacity=".08"/><stop offset=".494" stop-color="#ff0953" stop-opacity=".034"/><stop offset=".628" stop-color="#ff024e" stop-opacity=".007"/><stop offset="1" stop-color="#ff004d" stop-opacity="0"/></linearGradient><linearGradient id="z" x1="66.99" y1="249.302" x2="66.99" y2="2532.793" xlink:href="#y"/><linearGradient id="AA" x1="87.556" y1="250.323" x2="87.556" y2="2530.464" xlink:href="#y"/><linearGradient id="AB" x1="108.121" y1="250.323" x2="108.121" y2="2530.464" xlink:href="#y"/><linearGradient id="AC" x1="128.687" y1="250.323" x2="128.687" y2="2530.464" xlink:href="#y"/><linearGradient id="AD" x1="149.253" y1="256.446" x2="149.253" y2="2516.496" xlink:href="#y"/><linearGradient id="AE" x1="169.818" y1="258.487" x2="169.818" y2="2511.84" xlink:href="#y"/><linearGradient id="AF" x1="190.384" y1="259.507" x2="190.384" y2="2509.512" xlink:href="#y"/><linearGradient id="AG" x1="210.949" y1="259.507" x2="210.949" y2="2509.512" xlink:href="#y"/><linearGradient id="AH" x1="231.515" y1="262.569" x2="231.515" y2="2502.528" xlink:href="#y"/><linearGradient id="AI" x1="252.08" y1="263.59" x2="252.08" y2="2500.2" xlink:href="#y"/><linearGradient id="AJ" x1="272.646" y1="260.528" x2="272.646" y2="2507.184" xlink:href="#y"/><linearGradient id="AK" x1="293.212" y1="255.425" x2="293.212" y2="2518.824" xlink:href="#y"/><linearGradient id="AL" x1="313.777" y1="256.446" x2="313.777" y2="2516.496" xlink:href="#y"/><linearGradient id="AM" x1="334.343" y1="261.549" x2="334.343" y2="2504.857" xlink:href="#y"/><linearGradient id="AN" x1="354.908" y1="254.405" x2="354.908" y2="2521.152" xlink:href="#y"/><linearGradient id="AO" x1="375.474" y1="239.097" x2="375.474" y2="2556.073" xlink:href="#y"/><linearGradient id="AP" x1="396.039" y1="239.097" x2="396.039" y2="2556.073" xlink:href="#y"/><linearGradient id="AQ" x1="416.605" y1="238.077" x2="416.605" y2="2558.401" xlink:href="#y"/><linearGradient id="AR" x1="437.171" y1="241.138" x2="437.171" y2="2551.417" xlink:href="#y"/><linearGradient id="AS" x1="457.736" y1="244.2" x2="457.736" y2="2544.433" xlink:href="#y"/><linearGradient id="AT" x1="478.302" y1="248.282" x2="478.302" y2="2535.121" xlink:href="#y"/><linearGradient id="AU" x1="498.867" y1="264.61" x2="498.867" y2="2497.873" xlink:href="#y"/><linearGradient id="AV" x1="519.433" y1="285.021" x2="519.433" y2="2451.311" xlink:href="#y"/><linearGradient id="AW" x1="539.999" y1="289.103" x2="539.999" y2="2441.999" xlink:href="#y"/><linearGradient id="AX" x1="560.564" y1="287.062" x2="560.564" y2="2446.655" xlink:href="#y"/><linearGradient id="AY" x1="581.13" y1="274.816" x2="581.13" y2="2474.592" xlink:href="#y"/><linearGradient id="AZ" x1="601.695" y1="266.651" x2="601.695" y2="2493.216" xlink:href="#y"/><linearGradient id="Aa" x1="622.261" y1="263.59" x2="622.261" y2="2500.2" xlink:href="#y"/><linearGradient id="Ab" x1="642.826" y1="273.795" x2="642.826" y2="2476.92" xlink:href="#y"/><linearGradient id="Ac" x1="663.392" y1="278.898" x2="663.392" y2="2465.28" xlink:href="#y"/><linearGradient id="Ad" x1="683.958" y1="279.918" x2="683.958" y2="2462.952" xlink:href="#y"/><linearGradient id="Ae" x1="704.523" y1="282.98" x2="704.523" y2="2455.967" xlink:href="#y"/><linearGradient id="Af" x1="725.089" y1="284" x2="725.089" y2="2453.64" xlink:href="#y"/><linearGradient id="Ag" x1="745.654" y1="278.898" x2="745.654" y2="2465.28" xlink:href="#y"/><linearGradient id="Ah" x1="766.22" y1="278.898" x2="766.22" y2="2465.28" xlink:href="#y"/><linearGradient id="Ai" x1="786.785" y1="266.651" x2="786.785" y2="2493.216" xlink:href="#y"/><linearGradient id="Aj" x1="807.351" y1="257.466" x2="807.351" y2="2514.168" xlink:href="#y"/><linearGradient id="Ak" x1="827.917" y1="254.405" x2="827.917" y2="2521.152" xlink:href="#y"/><linearGradient id="Al" x1="848.482" y1="246.241" x2="848.482" y2="2539.777" xlink:href="#y"/><linearGradient id="Am" x1="869.048" y1="245.22" x2="869.048" y2="2542.105" xlink:href="#y"/><linearGradient id="An" x1="889.613" y1="236.036" x2="889.613" y2="2563.057" xlink:href="#y"/><linearGradient id="Ao" x1="910.179" y1="231.953" x2="910.179" y2="2572.369" xlink:href="#y"/><linearGradient id="Ap" x1="930.744" y1="226.851" x2="930.744" y2="2584.01" xlink:href="#y"/><linearGradient id="Aq" x1="951.31" y1="225.83" x2="951.31" y2="2586.337" xlink:href="#y"/><linearGradient id="Ar" x1="971.876" y1="220.727" x2="971.876" y2="2597.977" xlink:href="#y"/><linearGradient id="As" x1="992.441" y1="215.625" x2="992.441" y2="2609.617" xlink:href="#y"/><linearGradient id="At" x1="1013.007" y1="208.481" x2="1013.007" y2="2625.914" xlink:href="#y"/><linearGradient id="Au" x1="1033.572" y1="205.42" x2="1033.572" y2="2632.898" xlink:href="#y"/><path id="Av" d="M104.77 1045.467a1.36 1.36 0 0 1-1.4-1.101 7.763 7.763 0 0 1-4.804 1.668 7.666 7.666 0 0 1-7.604-7.605v-9.24a1.434 1.434 0 0 1 2.868-.033v9.272a4.753 4.753 0 1 0 9.507 0v-9.24a1.33 1.33 0 0 1 1.4-1.468 1.364 1.364 0 0 1 1.435 1.435v14.9a1.328 1.328 0 0 1-1.401 1.4z"/><path id="Aw" d="M888.407 1046.368c-3.22 0-5.02-2.64-5.02-5.66 0-3 1.8-5.64 5.02-5.64s5.02 2.64 5.02 5.64c0 3.02-1.8 5.66-5.02 5.66zm0-10.162c-2.36 0-3.88 1.9-3.88 4.5s1.52 4.52 3.88 4.52c2.38 0 3.88-1.92 3.88-4.52s-1.5-4.5-3.88-4.5z"/><path id="Ax" d="M912.146 1036.387a3.418 3.418 0 0 0-3.421 3.42v5.66a.57.57 0 0 1-1.141 0v-9.502a.57.57 0 0 1 1.141 0v.82a4.565 4.565 0 0 1 3.421-1.54.57.57 0 1 1 0 1.141z"/><path id="Ay" d="M120.974 246.2h15.424v4.113h-15.424z"/><path id="Az" d="M130.125 219.515a4.034 4.034 0 0 0-3.976 4.004v7.756a1.167 1.167 0 0 1-1.232 1.204 1.146 1.146 0 0 1-1.176-1.176v-12.488a1.186 1.186 0 0 1 1.176-1.204 1.149 1.149 0 0 1 1.204.952 6.479 6.479 0 0 1 4.004-1.428 1.191 1.191 0 1 1 0 2.38z"/><path id="BA" d="M117.77 453.166a2.016 2.016 0 1 1 2.016-2.017 2.008 2.008 0 0 1-2.016 2.017zm0 17.136a1.176 1.176 0 0 1-1.232-1.176v-12.488a1.182 1.182 0 0 1 1.232-1.204 1.154 1.154 0 0 1 1.176 1.204v12.488a1.13 1.13 0 0 1-1.176 1.176z"/><path id="BB" d="M204.913 435.463c-5.992 0-5.992-7.11-5.992-11.2 0-3.948.616-9.716 5.964-9.716s6.02 5.628 6.02 9.716c0 4.256-.112 11.2-5.992 11.2zm3.584-11.2c0-2.464-.056-7.31-3.584-7.31s-3.584 4.845-3.584 7.31v1.567c0 2.912.392 7.252 3.556 7.252 3.22 0 3.612-4.34 3.612-7.252z"/><path id="BC" d="M111.83 80.397c-3.3 0-8.82-1.02-11.64-4.5a2.655 2.655 0 0 1 2.16-4.26 2.465 2.465 0 0 1 1.86 1.021c1.86 2.04 4.92 2.64 7.62 2.64 5.4 0 7.14-1.86 7.14-4.56 0-7.68-18.3-2.94-18.3-15.3 0-6.54 6.12-8.94 11.82-8.94 3.24 0 10.86 1.62 10.86 4.98a2.693 2.693 0 0 1-2.52 2.699 3.607 3.607 0 0 1-1.98-.779c-1.62-1.38-3.96-1.8-6.36-1.8-4.98 0-6.72 1.86-6.72 3.84 0 7.14 18.36 2.52 18.36 15.3 0 7.08-5.94 9.66-12.3 9.66z"/><path id="BD" d="M156.77 42.658a4.319 4.319 0 1 1 4.32-4.318 4.302 4.302 0 0 1-4.32 4.318zm0 36.72a2.52 2.52 0 0 1-2.64-2.52V50.1a2.533 2.533 0 0 1 2.64-2.58 2.472 2.472 0 0 1 2.52 2.58v26.76a2.421 2.421 0 0 1-2.52 2.52z"/><path id="BE" d="M327.887 79.498a6.122 6.122 0 0 1-6-6.121V39.24a2.58 2.58 0 0 1 5.16-.06v34.197a.947.947 0 0 0 .84 1.02 2.55 2.55 0 1 1 0 5.101z"/><path id="BF" d="M438.825 80.397c-9.66 0-15.06-7.92-15.06-16.98 0-9 5.4-16.92 15.06-16.92s15.06 7.92 15.06 16.92c0 9.06-5.4 16.98-15.06 16.98zm0-28.8c-6 0-9.9 4.68-9.9 11.82 0 7.2 3.9 11.88 9.9 11.88 6.06 0 9.9-4.68 9.9-11.88 0-7.14-3.84-11.82-9.9-11.82z"/><path id="BG" d="M285.287 137.037a13.935 13.935 0 0 1-10.74 4.561c-9.66 0-15.06-7.92-15.06-16.98 0-9 5.4-16.92 15.06-16.92a13.934 13.934 0 0 1 10.74 4.56 2.614 2.614 0 0 1 .72 1.739 2.794 2.794 0 0 1-2.7 2.58 2.84 2.84 0 0 1-1.86-.84 8.816 8.816 0 0 0-6.9-2.939c-6 0-9.9 4.68-9.9 11.82 0 7.2 3.9 11.88 9.9 11.88a8.926 8.926 0 0 0 6.9-2.939 2.396 2.396 0 0 1 1.86-.9 2.589 2.589 0 0 1 1.98 4.379z"/></defs><g class="A"><g><rect y=".224" width="1080" height="1080" rx="40" fill="url(#A)"/></g><g><g opacity=".4"><path d="M42.384 1046a7.892 7.892 0 0 1-5.503-2.002 1.364 1.364 0 0 1-1.468 1.401 1.346 1.346 0 0 1-1.401-1.401v-20.88a1.435 1.435 0 0 1 2.869-.033v6.238a7.4 7.4 0 0 1 5.503-2.169c5.37 0 8.373 4.403 8.373 9.406 0 5.037-3.002 9.44-8.373 9.44zm0-16c-3.335 0-5.503 2.602-5.503 6.57 0 4.003 2.168 6.604 5.503 6.604s5.504-2.602 5.504-6.604c0-3.97-2.168-6.57-5.504-6.57zm25.556 8.038H55.6c.467 3.136 2.468 5.137 5.403 5.137a5.003 5.003 0 0 0 3.969-1.734 1.383 1.383 0 0 1 1.034-.533 1.556 1.556 0 0 1 1.501 1.468c0 .4-.1.7-.8 1.4a8.129 8.129 0 0 1-5.704 2.235c-5.37 0-8.372-4.437-8.372-9.44 0-4.97 3.002-9.406 8.372-9.406 5.437 0 8.34 4.437 8.34 9.406a1.422 1.422 0 0 1-1.401 1.468zM61.002 1030c-3.136 0-4.97 2.3-5.403 5.17h10.807c-.467-3.202-2.468-5.17-5.403-5.17zm27.053 15.434a3.247 3.247 0 0 1-2.969-1.901 7.642 7.642 0 0 1-5.87 2.469c-5.437 0-8.372-4.47-8.372-9.44s3.002-9.406 8.372-9.406a7.37 7.37 0 0 1 5.504 2.202v-.134a1.376 1.376 0 0 1 1.4-1.501 1.341 1.341 0 0 1 1.468 1.401V1042a.54.54 0 0 0 .467.601 1.418 1.418 0 1 1 0 2.835zM79.216 1030c-3.336 0-5.504 2.602-5.504 6.57 0 4.003 2.168 6.604 5.504 6.604 3.37 0 5.504-2.602 5.504-6.604 0-3.97-2.135-6.57-5.504-6.57z"/><use xlink:href="#Av"/><path d="M115.214 1045.434h-.567c-3.17 0-4.37-1.668-4.37-4.403v-10.474h-1a1.418 1.418 0 1 1-.033-2.835h1v-4.637a1.355 1.355 0 0 1 1.435-1.4 1.328 1.328 0 0 1 1.401 1.4v4.637h2.135a1.383 1.383 0 0 1 1.4 1.401 1.356 1.356 0 0 1-1.4 1.434h-2.135v10.774c0 .934.333 1.268 1.268 1.268h.833a1.376 1.376 0 0 1 1.435 1.4 1.357 1.357 0 0 1-1.4 1.435zm4.604-20.414a2.401 2.401 0 1 1 2.402-2.401 2.392 2.392 0 0 1-2.402 2.401zm0 20.414a1.4 1.4 0 0 1-1.467-1.401v-14.876a1.408 1.408 0 0 1 1.467-1.435 1.374 1.374 0 0 1 1.401 1.435v14.876a1.346 1.346 0 0 1-1.401 1.401zm10.376-14.877h-1.5V1044a1.364 1.364 0 0 1-1.468 1.401 1.346 1.346 0 0 1-1.401-1.401v-13.442h-1.367a1.418 1.418 0 0 1 0-2.835h1.367v-2.27a3.801 3.801 0 0 1 3.836-3.769 1.418 1.418 0 1 1 0 2.835.934.934 0 0 0-.967.9v2.302h1.5a1.418 1.418 0 1 1 0 2.835z"/><use xlink:href="#Av" x="42.068"/><path d="M154.78 1045.5a3.403 3.403 0 0 1-3.336-3.402v-18.98a1.435 1.435 0 0 1 2.869-.033v19.013a.527.527 0 0 0 .467.567 1.418 1.418 0 1 1 0 2.835zm15.37-.066v-1.264c1.886-.237 2.046-.437 2.046-3.157v-6.7c0-2.8-1.248-4.017-3.064-4.017a5.597 5.597 0 0 0-3.47 1.493v9.476c0 2.527.187 2.658 2.06 2.896v1.264h-8.968v-1.264c2.254-.33 2.5-.4 2.5-3v-8.2c0-2.446-.303-2.565-2.185-2.922v-1.184a34.102 34.102 0 0 0 6.653-1.533l-.052 2.95 2.6-1.745a5.659 5.659 0 0 1 3.159-1.086c3.194 0 5.2 2.338 5.2 6.3v7.5c0 2.54.237 2.657 2.277 2.92v1.264zm23.9-3.704c-2.458 3.427-5.488 4.178-7.014 4.178-5.142 0-8.124-3.936-8.124-8.594a10.333 10.333 0 0 1 2.832-7.062 8.602 8.602 0 0 1 6.082-2.814 6.386 6.386 0 0 1 6.37 6.347c-.014.715-.08 1.277-.612 1.4-.767.184-6.17.5-10.318.647.062 4.587 2.717 6.74 5.556 6.74a6.776 6.776 0 0 0 4.543-1.866zm-7.07-12.7c-1.667 0-3.167 1.807-3.516 4.963l5.486-.118c.6-.026.848-.146.848-.792.04-2.022-1.037-4.053-2.818-4.053zm34.284.145c-1.943.343-2.248.624-3.105 2.765-1.33 3.462-3.102 8.53-4.934 13.94h-1.512l-4.65-11.46-4.55 11.46h-1.472l-4.685-14.192c-.687-1.985-.94-2.274-2.855-2.512v-1.25h9.397v1.25c-2.325.345-2.535.672-2.058 2.133l2.52 8.214c1.507-3.68 2.988-7.62 4.327-11.424h1.456c1.4 3.76 2.986 7.702 4.573 11.568.742-2.107 2.062-5.964 2.557-8.108.412-1.674-.008-2.078-2.753-2.383v-1.25h7.742zm9.4 3.747c-.92-2.606-2.155-3.984-4.2-3.984a2.166 2.166 0 0 0-2.225 2.266c0 1.497 1.046 2.264 3.16 3.216 3.278 1.496 5.3 2.787 5.3 5.736 0 3.85-3.6 5.764-6.945 5.764a12.073 12.073 0 0 1-4.92-1.161l-.662-4.892 1.252-.224c.8 2.5 2.33 4.75 4.976 4.75a2.231 2.231 0 0 0 2.438-2.281c0-1.423-.76-2.333-3.092-3.467-2.67-1.295-5.107-2.64-5.107-5.775 0-3.046 2.533-5.42 6.565-5.42a18.751 18.751 0 0 1 4.112.567l.62 4.577z"/></g><g opacity=".6"><path d="M877.686 1046.408c-1.2 0-3.22-.42-3.92-1.58a.482.482 0 0 1-.08-.3.546.546 0 0 1 1.02-.32 3.812 3.812 0 0 0 2.98 1.061c1.94 0 2.92-.64 2.92-1.94 0-3.02-6.562-1.42-6.562-5.422 0-2.02 2.02-2.8 3.84-2.8a5.415 5.415 0 0 1 3.44 1.16.558.558 0 0 1 .18.38.648.648 0 0 1-.62.6.531.531 0 0 1-.38-.16 4.001 4.001 0 0 0-2.62-.84c-1.76 0-2.7.68-2.7 1.66 0 2.8 6.562 1.32 6.562 5.422 0 2.28-2 3.08-4.06 3.08z"/><use xlink:href="#Aw"/><path d="M904.187 1046.028a.562.562 0 0 1-.58-.561v-.64a4.442 4.442 0 0 1-3.421 1.54 4.61 4.61 0 0 1-4.561-4.561v-5.842a.57.57 0 0 1 1.14 0v5.842a3.421 3.421 0 1 0 6.842 0v-5.842a.57.57 0 0 1 1.141 0v9.502a.558.558 0 0 1-.561.561z"/><use xlink:href="#Ax"/><path d="M922.327 1044.848a4.645 4.645 0 0 1-3.58 1.521c-3.22 0-5.02-2.64-5.02-5.66 0-3 1.8-5.64 5.02-5.64a4.647 4.647 0 0 1 3.58 1.52.531.531 0 0 1 .16.381.627.627 0 0 1-.58.6.587.587 0 0 1-.42-.2 3.526 3.526 0 0 0-2.74-1.16c-2.36 0-3.88 1.9-3.88 4.5s1.52 4.52 3.88 4.52a3.596 3.596 0 0 0 2.74-1.16.587.587 0 0 1 .42-.2.594.594 0 0 1 .58.58.571.571 0 0 1-.16.399zm11.58-3.56h-8.302c.18 2.28 1.66 3.94 3.84 3.94a3.615 3.615 0 0 0 2.94-1.381.525.525 0 0 1 .479-.28.611.611 0 0 1 .62.541c0 .18 0 .22-.38.66a4.72 4.72 0 0 1-3.66 1.601c-3.22 0-5.02-2.64-5.02-5.66 0-3 1.8-5.64 5.02-5.64s5.02 2.66 5.02 5.64a.606.606 0 0 1-.56.58zm-4.46-5.08c-2.4 0-3.66 1.84-3.84 3.94h7.7c-.18-2.28-1.66-3.94-3.86-3.94zm8.437 3.26a1.14 1.14 0 1 1 0-2.28 1.14 1.14 0 0 1 0 2.28zm0 6.562a1.14 1.14 0 1 1 0-2.28 1.14 1.14 0 0 1 0 2.28zm22.063-13.523l-3.52 13.103a.553.553 0 0 1-.56.42.533.533 0 0 1-.541-.42l-3-11.083-2.98 11.083a.533.533 0 0 1-.54.42.554.554 0 0 1-.561-.42l-3.52-13.103a.544.544 0 0 1-.021-.181.581.581 0 0 1 .58-.58.499.499 0 0 1 .521.44l3 11.082 2.98-11.082a.529.529 0 0 1 .54-.4.537.537 0 0 1 .56.4l2.98 11.082 3-11.082a.526.526 0 0 1 .521-.44.581.581 0 0 1 .58.58.545.545 0 0 1-.021.181z"/><use xlink:href="#Aw" x="77.558"/><use xlink:href="#Ax" x="65.779"/><path d="M981.944 1046.148a2.096 2.096 0 0 1-1.98-2.12v-11.683a.57.57 0 0 1 1.141 0v11.683c0 1.28 1.42.54 1.42 1.44a.645.645 0 0 1-.58.681zm11.422-.12a.563.563 0 0 1-.581-.561v-1a4.536 4.536 0 0 1-3.88 1.9c-3.22 0-5.02-2.64-5.02-5.66 0-3 1.8-5.64 5.02-5.64a4.571 4.571 0 0 1 3.88 1.88v-4.6a.57.57 0 0 1 1.141 0v13.122a.558.558 0 0 1-.56.561zm-4.46-9.822c-2.36 0-3.88 1.9-3.88 4.5s1.52 4.52 3.88 4.52c2.38 0 3.88-1.92 3.88-4.52s-1.5-4.5-3.88-4.5zm18.6 9.822h-5.802a.606.606 0 0 1-.58-.561v-13.122a.495.495 0 0 1 .521-.561h5.42a3.616 3.616 0 0 1 3.601 3.561 3.471 3.471 0 0 1-1.42 2.861 4.1 4.1 0 0 1-1.74 7.821zm-.44-13.123h-4.8v4.92h4.8a2.461 2.461 0 1 0 0-4.921zm.44 6.062h-5.24v5.92h5.24a2.961 2.961 0 1 0 0-5.921zm16.66 7.06h-.02a2.072 2.072 0 0 1-1.98-1.561 4.536 4.536 0 0 1-3.88 1.9c-3.26 0-5.02-2.68-5.02-5.66 0-3.02 1.8-5.64 5.02-5.64a4.571 4.571 0 0 1 3.88 1.88v-.98a.564.564 0 0 1 .581-.56.546.546 0 0 1 .56.56v8.063c0 1.28 1.44.48 1.44 1.44a.55.55 0 0 1-.58.561zm-5.88-9.822c-2.36 0-3.88 1.9-3.88 4.5s1.52 4.52 3.88 4.52c2.38 0 3.88-1.92 3.88-4.52s-1.5-4.5-3.88-4.5zm16.84 9.822a.563.563 0 0 1-.58-.561v-5.84a3.42 3.42 0 1 0-6.841 0v5.84a.571.571 0 0 1-1.141 0v-9.502a.571.571 0 0 1 1.141 0v.64a4.563 4.563 0 0 1 7.981 3.021v5.84a.558.558 0 0 1-.561.561zm10.7-9.64l-3.44 3.44 3.4 5.32a.564.564 0 0 1 .12.319.608.608 0 0 1-.6.541.565.565 0 0 1-.48-.261l-3.28-5.1-2.06 2.08v2.74a.571.571 0 0 1-1.141 0v-13.122a.571.571 0 0 1 1.141 0v8.762l5.52-5.52a.564.564 0 0 1 .421-.18.577.577 0 0 1 .58.56.561.561 0 0 1-.181.421z"/></g></g><g><g class="E"><path class="F" d="M38.712 251.3h15.424v693.924H38.712z" fill="url(#B)"/><path class="G" d="M59.277 248.25h15.424v696.985H59.277z" fill="url(#C)"/><path class="H" d="M79.843 249.27h15.424v695.965H79.843z" fill="url(#D)"/><path class="I" d="M100.41 249.27h15.424v695.965H100.41z" fill="url(#E)"/><path class="J" d="M120.974 249.27h15.424v695.965h-15.424z" fill="url(#F)"/><path class="K" d="M141.54 255.393h15.424v689.84H141.54z" fill="url(#G)"/><path class="L" d="M162.105 257.434h15.424v687.8h-15.424z" fill="url(#H)"/><path class="M" d="M182.67 258.454h15.424v686.78H182.67z" fill="url(#I)"/><path class="N" d="M203.237 258.454h15.424v686.78h-15.424z" fill="url(#J)"/><path class="O" d="M223.802 261.516h15.424v683.72h-15.424z" fill="url(#K)"/><path class="P" d="M244.368 262.536h15.424v682.698h-15.424z" fill="url(#L)"/><path class="Q" d="M264.933 259.475h15.424v685.76h-15.424z" fill="url(#M)"/><path class="R" d="M285.5 254.372h15.424v690.862H285.5z" fill="url(#N)"/><path class="S" d="M306.064 255.393h15.424v689.84h-15.424z" fill="url(#O)"/><path class="T" d="M326.63 260.495h15.424v684.74H326.63z" fill="url(#P)"/><path class="U" d="M347.196 253.35h15.424v691.883h-15.424z" fill="url(#Q)"/><path class="V" d="M367.76 238.044h15.424v707.19H367.76z" fill="url(#R)"/><path class="W" d="M388.327 238.044h15.424v707.19h-15.424z" fill="url(#S)"/><path class="X" d="M408.892 237.023h15.424v708.21h-15.424z" fill="url(#T)"/><path class="Y" d="M429.458 240.085h15.424v705.15h-15.424z" fill="url(#U)"/><path class="Z" d="M450.023 243.146h15.424v702.088h-15.424z" fill="url(#V)"/><path class="a" d="M470.59 247.228h15.424v698.006H470.59z" fill="url(#W)"/><path class="b" d="M491.155 263.557h15.424v681.678h-15.424z" fill="url(#X)"/><path class="c" d="M511.72 283.967h15.424v661.267H511.72z" fill="url(#Y)"/><path class="d" d="M532.286 288.05H547.7v657.185h-15.424z" fill="url(#Z)"/><path class="e" d="M552.85 286.008h15.424v659.226H552.85z" fill="url(#a)"/><path class="f" d="M573.417 273.762h15.424v671.472h-15.424z" fill="url(#b)"/><path class="g" d="M593.982 265.598h15.424v679.636h-15.424z" fill="url(#c)"/><path class="h" d="M614.548 262.536h15.424v682.698h-15.424z" fill="url(#d)"/><path class="i" d="M635.114 272.742h15.424v672.493h-15.424z" fill="url(#e)"/><path class="j" d="M655.68 277.844h15.424v667.4H655.68z" fill="url(#f)"/><path class="k" d="M676.245 278.865h15.424v666.37h-15.424z" fill="url(#g)"/><path class="l" d="M696.8 281.926h15.424v663.308H696.8z" fill="url(#h)"/><path class="m" d="M717.376 282.947H732.8v662.287h-15.424z" fill="url(#i)"/><path class="n" d="M737.94 277.844h15.424v667.4H737.94z" fill="url(#j)"/><path class="o" d="M758.507 277.844h15.424v667.4h-15.424z" fill="url(#k)"/><path class="p" d="M779.073 265.598h15.424v679.636h-15.424z" fill="url(#l)"/><path class="q" d="M799.638 256.413h15.424v688.82h-15.424z" fill="url(#m)"/><path class="r" d="M820.204 253.35h15.424v691.883h-15.424z" fill="url(#n)"/><path class="s" d="M840.77 245.187h15.424v700.047H840.77z" fill="url(#o)"/><path class="t" d="M861.335 244.167h15.424v701.068h-15.424z" fill="url(#p)"/><path class="u" d="M881.9 234.982h15.424v710.252H881.9z" fill="url(#q)"/><path class="v" d="M902.466 230.9H917.9v714.334h-15.424z" fill="url(#r)"/><path class="w" d="M923.032 225.797h15.424v719.437h-15.424z" fill="url(#s)"/><path class="x" d="M943.597 224.777h15.424v720.458h-15.424z" fill="url(#t)"/><path class="y" d="M964.163 219.674h15.424v725.56h-15.424z" fill="url(#u)"/><path class="z" d="M984.728 214.57h15.424v730.663h-15.424z" fill="url(#v)"/><path class="AA" d="M1005.294 207.428h15.424v737.806h-15.424z" fill="url(#w)"/><path class="AB" d="M1025.86 204.366h15.424v740.868h-15.424z" fill="url(#x)"/></g><g opacity=".5"><path class="AD" d="M38.713 252.364h15.424v692.87H38.713z" fill="url(#y)"/><path class="AE" d="M59.278 249.302h15.424v695.932H59.278z" fill="url(#z)"/><path class="AF" d="M79.844 250.323h15.424v694.91H79.844z" fill="url(#AA)"/><path class="AG" d="M100.41 250.323h15.424v694.91H100.41z" fill="url(#AB)"/><path class="AH" d="M120.975 250.323H136.4v694.91h-15.424z" fill="url(#AC)"/><path class="AI" d="M141.54 256.446h15.424v688.788H141.54z" fill="url(#AD)"/><path class="AJ" d="M162.106 258.487h15.424v686.747h-15.424z" fill="url(#AE)"/><path class="AK" d="M182.672 259.507h15.424v685.727h-15.424z" fill="url(#AF)"/><path class="AL" d="M203.237 259.507h15.424v685.727h-15.424z" fill="url(#AG)"/><path class="AM" d="M223.803 262.57h15.424v682.665h-15.424z" fill="url(#AH)"/><path class="AN" d="M244.368 263.6h15.424v681.645h-15.424z" fill="url(#AI)"/><path class="AO" d="M264.934 260.528h15.424v684.706h-15.424z" fill="url(#AJ)"/><path class="AP" d="M285.5 255.425h15.424v689.81H285.5z" fill="url(#AK)"/><path class="AQ" d="M306.065 256.446h15.424v688.788h-15.424z" fill="url(#AL)"/><path class="AR" d="M326.63 261.55h15.424v683.686H326.63z" fill="url(#AM)"/><path class="AS" d="M347.196 254.405h15.424v690.83h-15.424z" fill="url(#AN)"/><path class="AT" d="M367.762 239.097h15.424v706.137h-15.424z" fill="url(#AO)"/><path class="AU" d="M388.327 239.097h15.424v706.137h-15.424z" fill="url(#AP)"/><path class="AV" d="M408.893 238.077h15.424v707.158h-15.424z" fill="url(#AQ)"/><path class="AW" d="M429.458 241.138h15.424v704.096h-15.424z" fill="url(#AR)"/><path class="AX" d="M450.024 244.2h15.424v701.035h-15.424z" fill="url(#AS)"/><path class="AY" d="M470.6 248.282h15.424v696.953H470.6z" fill="url(#AT)"/><path class="AZ" d="M491.155 264.6h15.424v680.624h-15.424z" fill="url(#AU)"/><path class="Aa" d="M511.72 285.02h15.424v660.213H511.72z" fill="url(#AV)"/><path class="Ab" d="M532.286 289.103h15.424v656.13h-15.424z" fill="url(#AW)"/><path class="Ac" d="M552.852 287.062h15.424v658.172h-15.424z" fill="url(#AX)"/><path class="Ad" d="M573.417 274.816h15.424v670.42h-15.424z" fill="url(#AY)"/><path class="Ae" d="M593.983 266.65h15.424v678.583h-15.424z" fill="url(#AZ)"/><path class="Af" d="M614.55 263.6h15.424v681.645H614.55z" fill="url(#Aa)"/><path class="Ag" d="M635.114 273.795h15.424v671.44h-15.424z" fill="url(#Ab)"/><path class="Ah" d="M655.68 278.898h15.424v666.337H655.68z" fill="url(#Ac)"/><path class="Ai" d="M676.245 279.918h15.424v665.316h-15.424z" fill="url(#Ad)"/><path class="Aj" d="M696.81 282.98h15.424v662.254H696.81z" fill="url(#Ae)"/><path class="Ak" d="M717.377 284H732.8v661.234h-15.424z" fill="url(#Af)"/><path class="Al" d="M737.942 278.898h15.424v666.337h-15.424z" fill="url(#Ag)"/><path class="Am" d="M758.508 278.898h15.424v666.337h-15.424z" fill="url(#Ah)"/><path class="An" d="M779.073 266.65h15.424v678.583h-15.424z" fill="url(#Ai)"/><path class="Ao" d="M799.64 257.466h15.424v687.768H799.64z" fill="url(#Aj)"/><path class="Ap" d="M820.204 254.405h15.424v690.83h-15.424z" fill="url(#Ak)"/><path class="Aq" d="M840.77 246.24h15.424v698.994H840.77z" fill="url(#Al)"/><path class="Ar" d="M861.336 245.22h15.424v700.014h-15.424z" fill="url(#Am)"/><path class="As" d="M881.9 236.036h15.424v709.2H881.9z" fill="url(#An)"/><path class="At" d="M902.467 231.953h15.424v713.28h-15.424z" fill="url(#Ao)"/><path class="Au" d="M923.032 226.85h15.424v718.384h-15.424z" fill="url(#Ap)"/><path class="Av" d="M943.598 225.83h15.424v719.404h-15.424z" fill="url(#Aq)"/><path class="Aw" d="M964.164 220.727h15.424v724.507h-15.424z" fill="url(#Ar)"/><path class="Ax" d="M984.73 215.625h15.424v729.61H984.73z" fill="url(#As)"/><path class="Ay" d="M1005.295 208.48h15.424v736.753h-15.424z" fill="url(#At)"/><path class="Az" d="M1025.86 205.42h15.424v739.815h-15.424z" fill="url(#Au)"/></g><g class="BA BM BL"><g class="BM"><path d="M38.712 248.25h15.424v4.113H38.712z"/><path d="M59.277 245.19h15.424v4.113H59.277z"/><path d="M79.843 246.2h15.424v4.113H79.843z"/><path d="M100.41 246.2h15.424v4.113H100.41z"/><use xlink:href="#Ay"/><path d="M141.54 252.333h15.424v4.113H141.54z"/><use xlink:href="#Ay" x="41.131" y="8.174"/><path d="M182.67 255.394h15.424v4.113H182.67z"/><use xlink:href="#Ay" x="82.262" y="9.194"/><use xlink:href="#Ay" x="102.828" y="12.256"/><use xlink:href="#Ay" x="123.394" y="13.276"/><use xlink:href="#Ay" x="143.959" y="10.215"/><path d="M285.5 251.312h15.424v4.113H285.5z"/><use xlink:href="#Ay" x="185.09" y="6.133"/><path d="M326.63 257.435h15.424v4.113H326.63z"/><use xlink:href="#Ay" x="226.222" y="4.092"/><path d="M367.76 234.984h15.424v4.113H367.76z"/><use xlink:href="#Ay" x="267.353" y="-11.216"/><use xlink:href="#Ay" x="287.918" y="-12.236"/><use xlink:href="#Ay" x="308.484" y="-9.175"/><use xlink:href="#Ay" x="329.049" y="-6.113"/><path d="M470.59 244.17h15.424v4.113H470.59z"/><use xlink:href="#Ay" x="370.181" y="14.297"/><path d="M511.72 280.908h15.424v4.113H511.72z"/><path d="M532.286 285H547.7v4.113h-15.424z"/><use xlink:href="#Ay" x="431.878" y="36.75"/><use xlink:href="#Ay" x="452.443" y="24.503"/><use xlink:href="#Ay" x="473.008" y="16.338"/><use xlink:href="#Ay" x="493.574" y="13.276"/><use xlink:href="#Ay" x="514.14" y="23.482"/><path d="M655.68 274.785h15.424v4.113H655.68z"/><use xlink:href="#Ay" x="555.271" y="29.605"/><path d="M696.8 278.867h15.424v4.113H696.8z"/><path d="M717.376 279.887H732.8V284h-15.424z"/><path d="M737.94 274.785h15.424v4.113H737.94z"/><use xlink:href="#Ay" x="637.533" y="28.585"/><use xlink:href="#Ay" x="658.099" y="16.338"/><use xlink:href="#Ay" x="678.664" y="7.153"/><use xlink:href="#Ay" x="699.23" y="4.092"/><path d="M840.77 242.128h15.424v4.113H840.77z"/><use xlink:href="#Ay" x="740.361" y="-5.093"/><path d="M881.9 231.923h15.424v4.113H881.9z"/><use xlink:href="#Ay" x="781.492" y="-18.36"/><use xlink:href="#Ay" x="802.058" y="-23.463"/><use xlink:href="#Ay" x="822.623" y="-24.484"/><use xlink:href="#Ay" x="843.189" y="-29.586"/><use xlink:href="#Ay" x="863.754" y="-34.69"/><use xlink:href="#Ay" x="884.32" y="-41.832"/><use xlink:href="#Ay" x="904.886" y="-44.894"/></g></g><g fill="none" stroke-width="4"><path d="M38.712 567.817l20.873 12.175q10.436 6.087 20.873 12.175 10.465 6.096 20.93 12.175 10.436 6.08 20.873 12.175 10.436 6.087 20.873 12.175c6.958 4.058 13.915 12.175 20.873 12.175h20.93c6.958 0 13.915 12.175 20.873 12.175h20.873c6.958 0 13.915 12.175 20.873 12.175h20.93c6.958 0 13.915 12.175 20.873 12.175H331.1c6.977 0 13.953 12.175 20.93 12.175h20.873c6.958 0 13.915 8.116 20.873 12.175s13.915 12.175 20.873 12.175h20.93c6.958 0 13.915 12.175 20.873 12.175h41.745c6.977 0 13.953-12.175 20.93-12.175h41.745c6.957 0 13.915 12.175 20.873 12.175h41.802c6.958 0 13.915 12.175 20.873 12.175h20.873c6.977 0 13.953 8.11 20.93 12.175q10.436 6.08 20.873 12.175 10.436 6.087 20.873 12.175 10.436 6.087 20.873 12.175 10.465 6.096 20.93 12.175 10.436 6.08 20.873 12.175c6.958 4.058 13.915 12.175 20.873 12.175h20.873c6.977 0 13.953 12.175 20.93 12.175h41.745c6.958 0 13.915 12.175 20.873 12.175h41.802c6.958 0 13.915 12.175 20.873 12.175h41.802c6.958 0 13.915 6.087 20.873 12.175" stroke="#fff799" class="BP"/><path d="M38.712 482.594c6.958 3.044 13.915 6.087 20.873 12.175s13.915 18.265 20.873 24.35c6.977 6.1 13.953 6.073 20.93 12.175 6.958 6.085 13.915 18.262 20.873 24.35s13.915 8.116 20.873 12.175l20.873 12.175c6.977 4.064 13.953 12.175 20.93 12.175h20.873c6.958 0 13.915 12.175 20.873 12.175h20.873c6.977 0 13.953 12.175 20.93 12.175h20.873c6.958 0 13.915 12.175 20.873 12.175H331.1c6.977 0 13.953 8.11 20.93 12.175q10.436 6.08 20.873 12.175c6.958 4.058 13.915 12.175 20.873 12.175h20.873c6.977 0 13.953 12.175 20.93 12.175h146.166c6.977 0 13.953 12.175 20.93 12.175h20.873c6.958 0 13.915 8.116 20.873 12.175l20.873 12.175q10.465 6.096 20.93 12.175 10.436 6.08 20.873 12.175 10.436 6.087 20.873 12.175 10.436 6.087 20.873 12.175 10.465 6.096 20.93 12.175 10.436 6.08 20.873 12.175 10.436 6.087 20.873 12.175c6.958 4.058 13.915 12.175 20.873 12.175h20.93c6.957 0 13.915 12.175 20.873 12.175h62.675c6.957 0 13.915 12.175 20.873 12.175h20.873c6.958 0 13.915 12.175 20.873 12.175h20.93c6.958 0 13.915 6.087 20.873 12.175" stroke="#fe0"/></g><circle cx="1041.284" cy="860.011" r="4.75" class="BN"/><circle cx="1041.284" cy="872.186" r="4.75" class="BO"/><circle cx="38.712" cy="482.594" r="4.75" class="BN"/><ellipse cx="38.712" cy="567.817" rx="4.717" ry="4.759" class="BO"/><g fill="none" stroke="#fe0" stroke-width="2" class="BP"><path d="M38.944 482.607h1"/><path d="M45.956 482.607l990.982.006" stroke-dasharray="2.00401 6.01202"/><path d="M1039.944 482.613h1v1"/><path d="M1040.944 489.63V855.6" stroke-dasharray="2.00532 6.01595"/><path d="M1040.944 858.607v1"/></g></g><g><g opacity=".55" class="BL"><path d="M38.623 983.713v-2.16H41.8v-20.88l-3.24.288v-1.584a12.466 12.466 0 0 0 2.159-.774 8.742 8.742 0 0 0 1.944-1.241h1.728v24.2h3.024v2.16zm13.103-4.823a5.067 5.067 0 0 0 .45 1.566 2.841 2.841 0 0 0 .702.918 2.121 2.121 0 0 0 .828.432 3.395 3.395 0 0 0 .828.108q1.73 0 2.736-2.484a23.563 23.563 0 0 0 1.08-7.92 7.729 7.729 0 0 1-1.818 1.404 4.381 4.381 0 0 1-2.177.576 5.439 5.439 0 0 1-2.088-.414 4.492 4.492 0 0 1-1.782-1.368 7.293 7.293 0 0 1-1.242-2.466 12.832 12.832 0 0 1-.468-3.744 10.38 10.38 0 0 1 1.494-5.977 4.711 4.711 0 0 1 4.086-2.159 7.11 7.11 0 0 1 2.934.558 4.694 4.694 0 0 1 2.07 1.908 10.666 10.666 0 0 1 1.242 3.672 34.048 34.048 0 0 1 .414 5.813 42.956 42.956 0 0 1-.45 6.715 17.183 17.183 0 0 1-1.296 4.571 6.535 6.535 0 0 1-2.052 2.628 4.681 4.681 0 0 1-2.753.847 5.684 5.684 0 0 1-2.142-.36 3.924 3.924 0 0 1-1.476-1.026 5.195 5.195 0 0 1-.954-1.584 9.805 9.805 0 0 1-.54-2.069zm6.695-12.24a18.582 18.582 0 0 0-.252-3.329 7.374 7.374 0 0 0-.72-2.196 3.019 3.019 0 0 0-1.152-1.225 3.323 3.323 0 0 0-2.934-.071 2.582 2.582 0 0 0-1.062 1.008 6.002 6.002 0 0 0-.684 1.854 13.587 13.587 0 0 0-.252 2.845 12.662 12.662 0 0 0 .27 2.861 5.273 5.273 0 0 0 .72 1.782 2.449 2.449 0 0 0 1.044.9 3.061 3.061 0 0 0 1.206.252 3.693 3.693 0 0 0 2.213-.685 7.277 7.277 0 0 0 1.602-1.548zm3.565-8.93H73.65v1.368l-7.56 24.624h-2.736l7.56-23.832h-8.928zm25.198 12.997a41.495 41.495 0 0 1-.378 6.048 14.799 14.799 0 0 1-1.152 4.141 5.679 5.679 0 0 1-1.962 2.394 5.348 5.348 0 0 1-5.544 0 5.676 5.676 0 0 1-1.962-2.394 14.783 14.783 0 0 1-1.152-4.141 48.58 48.58 0 0 1 0-12.096 14.785 14.785 0 0 1 1.152-4.14 5.685 5.685 0 0 1 1.962-2.395 5.354 5.354 0 0 1 5.544 0 5.688 5.688 0 0 1 1.962 2.395 14.801 14.801 0 0 1 1.152 4.14 41.504 41.504 0 0 1 .378 6.048zm-2.592 0a50.699 50.699 0 0 0-.234-5.346 15.386 15.386 0 0 0-.702-3.438 4.18 4.18 0 0 0-1.152-1.854 2.525 2.525 0 0 0-3.168 0 4.168 4.168 0 0 0-1.152 1.854 15.307 15.307 0 0 0-.702 3.438 61.079 61.079 0 0 0 0 10.691 15.295 15.295 0 0 0 .702 3.438 4.157 4.157 0 0 0 1.152 1.854 2.525 2.525 0 0 0 3.168 0 4.169 4.169 0 0 0 1.152-1.854 15.374 15.374 0 0 0 .702-3.438 50.673 50.673 0 0 0 .234-5.346z"/></g><g opacity=".55" class="BL"><path d="M989.376 983.683v-2.16a17.911 17.911 0 0 1 1.512-3.582 37.008 37.008 0 0 1 1.98-3.168q1.044-1.493 2.124-2.88 1.08-1.386 1.944-2.736a15.815 15.815 0 0 0 1.404-2.718 7.687 7.687 0 0 0 .54-2.844 4.555 4.555 0 0 0-.899-3.078 2.853 2.853 0 0 0-2.232-1.026 3.172 3.172 0 0 0-2.574 1.278 7.513 7.513 0 0 0-1.206 4.194h-2.376a13.059 13.059 0 0 1 .63-3.672 6.606 6.606 0 0 1 1.35-2.358 4.619 4.619 0 0 1 1.872-1.242 6.818 6.818 0 0 1 2.232-.359 5.524 5.524 0 0 1 4.176 1.691 6.865 6.865 0 0 1 1.62 4.933 8.864 8.864 0 0 1-.45 2.916 12.35 12.35 0 0 1-1.206 2.502 22.053 22.053 0 0 1-1.746 2.394q-1 1.188-2.07 2.6-1.08 1.422-2.178 3.15a28.079 28.079 0 0 0-2.07 3.996h9.863v2.16zm25.63-12.997a41.569 41.569 0 0 1-.377 6.048 14.8 14.8 0 0 1-1.152 4.141 5.679 5.679 0 0 1-1.962 2.394 5.348 5.348 0 0 1-5.544 0 5.676 5.676 0 0 1-1.962-2.394 14.783 14.783 0 0 1-1.152-4.141 48.58 48.58 0 0 1 0-12.096 14.785 14.785 0 0 1 1.152-4.14 5.685 5.685 0 0 1 1.962-2.395 5.354 5.354 0 0 1 5.544 0 5.688 5.688 0 0 1 1.962 2.395 14.802 14.802 0 0 1 1.152 4.14 41.578 41.578 0 0 1 .377 6.048zm-2.6 0a50.699 50.699 0 0 0-.234-5.346 15.386 15.386 0 0 0-.702-3.438 4.18 4.18 0 0 0-1.152-1.854 2.525 2.525 0 0 0-3.168 0 4.168 4.168 0 0 0-1.152 1.854 15.307 15.307 0 0 0-.702 3.438 61.082 61.082 0 0 0 0 10.691 15.295 15.295 0 0 0 .702 3.438 4.156 4.156 0 0 0 1.152 1.854 2.525 2.525 0 0 0 3.168 0 4.169 4.169 0 0 0 1.152-1.854 15.374 15.374 0 0 0 .702-3.438 50.673 50.673 0 0 0 .234-5.346zm3.165 12.997v-2.16a17.91 17.91 0 0 1 1.512-3.582 37.006 37.006 0 0 1 1.98-3.168q1.044-1.493 2.124-2.88 1.08-1.386 1.944-2.736a15.816 15.816 0 0 0 1.404-2.718 7.678 7.678 0 0 0 .54-2.844 4.555 4.555 0 0 0-.9-3.078 2.853 2.853 0 0 0-2.232-1.026 3.172 3.172 0 0 0-2.574 1.278 7.513 7.513 0 0 0-1.206 4.194h-2.376a13.059 13.059 0 0 1 .63-3.672 6.606 6.606 0 0 1 1.35-2.358 4.619 4.619 0 0 1 1.872-1.242 6.818 6.818 0 0 1 2.232-.359 5.525 5.525 0 0 1 4.176 1.691 6.865 6.865 0 0 1 1.62 4.933 8.864 8.864 0 0 1-.45 2.916 12.35 12.35 0 0 1-1.206 2.502 21.995 21.995 0 0 1-1.746 2.394q-1 1.188-2.07 2.6-1.08 1.422-2.178 3.15a28.079 28.079 0 0 0-2.07 3.996h9.864v2.16zm25.63-12.997a41.495 41.495 0 0 1-.378 6.048 14.799 14.799 0 0 1-1.152 4.141 5.679 5.679 0 0 1-1.962 2.394 5.348 5.348 0 0 1-5.544 0 5.675 5.675 0 0 1-1.962-2.394 14.783 14.783 0 0 1-1.152-4.141 48.58 48.58 0 0 1 0-12.096 14.785 14.785 0 0 1 1.152-4.14 5.684 5.684 0 0 1 1.962-2.395 5.354 5.354 0 0 1 5.544 0 5.688 5.688 0 0 1 1.962 2.395 14.802 14.802 0 0 1 1.152 4.14 41.504 41.504 0 0 1 .378 6.048zm-2.592 0a50.697 50.697 0 0 0-.234-5.346 15.386 15.386 0 0 0-.702-3.438 4.18 4.18 0 0 0-1.152-1.854 2.525 2.525 0 0 0-3.168 0 4.168 4.168 0 0 0-1.152 1.854 15.307 15.307 0 0 0-.702 3.438 61.079 61.079 0 0 0 0 10.691 15.295 15.295 0 0 0 .702 3.438 4.156 4.156 0 0 0 1.152 1.854 2.525 2.525 0 0 0 3.168 0 4.169 4.169 0 0 0 1.152-1.854 15.374 15.374 0 0 0 .702-3.438 50.671 50.671 0 0 0 .234-5.346z"/></g><g class="BL"><path d="M41.4 219.26q.034.387.316.14 1.125-1.512 4.254-1.793a6.377 6.377 0 0 1 4.957 2.215 8.25 8.25 0 0 1 1.863 5.449 8.507 8.507 0 0 1-1.934 5.52 6.662 6.662 0 0 1-10.195.035 8.722 8.722 0 0 1-1.898-5.66v-11.04a7.81 7.81 0 0 1 1.898-5.273 6.686 6.686 0 0 1 5.168-2.215 7.125 7.125 0 0 1 4.535 1.547 6.408 6.408 0 0 1 2.25 4.148q.07.316-.352.316H50.2q-.352 0-.352-.422a4.605 4.605 0 0 0-1.23-2.18 4.042 4.042 0 0 0-2.812-.914 4.104 4.104 0 0 0-3.234 1.406 5.448 5.448 0 0 0-1.16 3.586zm0 6.082a6.088 6.088 0 0 0 1.125 3.797 4.097 4.097 0 0 0 6.469 0 6.631 6.631 0 0 0 1.125-3.867 6.389 6.389 0 0 0-1.09-3.762 3.848 3.848 0 0 0-3.199-1.477q-4.395.28-4.43 5.3h0zm24.934-16.63a6.92 6.92 0 0 1 1.898 4.816q-.2 4.36-3.023 5.766c-.118.094-.105.2.035.352a6.586 6.586 0 0 1 3.445 6.188 7.351 7.351 0 0 1-2.004 5.203 6.969 6.969 0 0 1-4.957 2.039 6.843 6.843 0 0 1-4.922-2.039 7.348 7.348 0 0 1-2.003-5.203 6.585 6.585 0 0 1 3.445-6.187q.2-.2.035-.352-2.812-1.406-3.023-5.766a6.917 6.917 0 0 1 1.898-4.816 6.254 6.254 0 0 1 9.176 0zM61.73 230.72a4.186 4.186 0 0 0 3.199-1.371 4.945 4.945 0 0 0 1.195-3.48 5.727 5.727 0 0 0-1.16-3.762 4.242 4.242 0 0 0-6.434 0 5.727 5.727 0 0 0-1.16 3.762 4.943 4.943 0 0 0 1.195 3.48 4.144 4.144 0 0 0 3.164 1.371h0zm3.938-17.156a4.863 4.863 0 0 0-1.055-3.164 3.778 3.778 0 0 0-5.766 0 4.969 4.969 0 0 0-1.02 3.164q.105 4.43 3.902 4.676 3.83-.246 3.938-4.676zM89.2 219.3l-7.56 17.2a3.209 3.209 0 0 1-3.08 1.876h-.896a1.129 1.129 0 0 1-1.176-1.231 1.114 1.114 0 0 1 1.176-1.177h.868a.885.885 0 0 0 .924-.447l1.848-4.145-5.46-12.067a1.014 1.014 0 0 1-.14-.532 1.262 1.262 0 0 1 1.288-1.176 1.078 1.078 0 0 1 1.008.728l4.564 10.136 4.452-10.136a1.109 1.109 0 0 1 1.036-.7 1.241 1.241 0 0 1 1.288 1.148.955.955 0 0 1-.14.532zm13.86 6.973H92.7c.392 2.632 2.072 4.312 4.536 4.312a4.2 4.2 0 0 0 3.332-1.456 1.16 1.16 0 0 1 .868-.447 1.306 1.306 0 0 1 1.26 1.231c0 .336-.084.588-.672 1.176a6.82 6.82 0 0 1-4.788 1.876c-4.508 0-7.028-3.724-7.028-7.924 0-4.172 2.52-7.896 7.028-7.896 4.564 0 7 3.724 7 7.896a1.194 1.194 0 0 1-1.176 1.232zm-5.824-6.748c-2.632 0-4.172 1.932-4.536 4.34h9.072c-.392-2.687-2.072-4.34-4.536-4.34zm23.268 12.963a2.725 2.725 0 0 1-2.492-1.596 6.418 6.418 0 0 1-4.928 2.071c-4.564 0-7.028-3.752-7.028-7.924s2.52-7.896 7.028-7.896a6.188 6.188 0 0 1 4.62 1.848v-.112a1.155 1.155 0 0 1 1.176-1.26 1.126 1.126 0 0 1 1.232 1.176v10.8a.453.453 0 0 0 .392.504 1.19 1.19 0 1 1 0 2.38zm-7.42-12.964c-2.8 0-4.62 2.184-4.62 5.516 0 3.36 1.82 5.544 4.62 5.544 2.828 0 4.62-2.184 4.62-5.544 0-3.332-1.792-5.516-4.62-5.516z"/><use xlink:href="#Az"/><path d="M137.097 232.954c-1.54 0-4.116-.476-5.432-2.1a1.239 1.239 0 0 1 1.008-1.988 1.149 1.149 0 0 1 .868.477 4.784 4.784 0 0 0 3.556 1.231c2.52 0 3.332-.868 3.332-2.128 0-3.584-8.54-1.372-8.54-7.14 0-3.052 2.856-4.172 5.516-4.172 1.512 0 5.068.756 5.068 2.324a1.258 1.258 0 0 1-1.176 1.26 1.688 1.688 0 0 1-.924-.364 4.542 4.542 0 0 0-2.968-.84c-2.324 0-3.136.868-3.136 1.792 0 3.332 8.567 1.176 8.567 7.14 0 3.305-2.772 4.508-5.74 4.508zm887.215-68.574a45.735 45.735 0 0 0-4.711 10.582 46.426 46.426 0 0 0-1.758 11.039q.07.457-.352.387h-2.004q-.387-.035-.316-.387a45.205 45.205 0 0 1 1.969-11.18 46.458 46.458 0 0 1 4.816-10.828q.316-.492-.035-.492h-10.828q-.387.07-.316-.352v-1.863q-.07-.387.316-.316h13.042q.387-.07.316.316v2.602l-.14.492zm5.67 18.984q-.035.352.316.316h10.265q.387-.07.316.316v1.898q.07.387-.316.352h-12.902q-.387.035-.316-.352v-1.934q.176-4.746 2.742-7.207a65.258 65.258 0 0 1 5.097-4.43 6.646 6.646 0 0 0 2.777-5.062 4.743 4.743 0 0 0-1.055-3.094 3.592 3.592 0 0 0-2.848-1.266 3.905 3.905 0 0 0-3.093 1.336 5.075 5.075 0 0 0-1.16 3.164q.034.492-.387.422h-1.898q-.387.07-.316-.316a7.754 7.754 0 0 1 2.004-4.957 6.397 6.397 0 0 1 4.886-2.145 6.324 6.324 0 0 1 4.676 1.934 6.836 6.836 0 0 1 1.898 4.816 7.908 7.908 0 0 1-2.742 5.941l-5.098 4.254a8.148 8.148 0 0 0-2.847 6.012h0z"/></g><g class="BN"><path d="M97.752 468.65a6.503 6.503 0 0 1-5.012 2.128c-4.508 0-7.028-3.695-7.028-7.924 0-4.2 2.52-7.896 7.028-7.896a6.503 6.503 0 0 1 5.012 2.128 1.22 1.22 0 0 1 .336.812 1.304 1.304 0 0 1-1.26 1.204 1.324 1.324 0 0 1-.868-.392 4.112 4.112 0 0 0-3.22-1.372c-2.8 0-4.62 2.184-4.62 5.516 0 3.36 1.82 5.544 4.62 5.544a4.161 4.161 0 0 0 3.22-1.372 1.119 1.119 0 0 1 .868-.42 1.209 1.209 0 0 1 .924 2.044zm14.363 1.652a1.131 1.131 0 0 1-1.176-1.176v-7.784a3.99 3.99 0 1 0-7.979 0v7.756a1.19 1.19 0 0 1-1.232 1.232 1.154 1.154 0 0 1-1.176-1.204V451.57a1.204 1.204 0 0 1 2.408-.028v4.844a5.649 5.649 0 0 1 3.976-1.428 6.435 6.435 0 0 1 6.383 6.384v7.756a1.145 1.145 0 0 1-1.204 1.204z"/><use xlink:href="#BA"/><path d="M125.106 470.357a2.857 2.857 0 0 1-2.8-2.855V451.57a1.204 1.204 0 0 1 2.408-.028v15.96a.442.442 0 0 0 .392.476 1.19 1.19 0 1 1 0 2.38zm15.4-.084a1.137 1.137 0 0 1-1.204-1.176 6.775 6.775 0 0 1-4.62 1.68c-4.508 0-7.028-3.695-7.028-7.924 0-4.2 2.52-7.896 7.028-7.896a6.171 6.171 0 0 1 4.62 1.819v-5.207a1.204 1.204 0 0 1 2.408-.028v17.556a1.137 1.137 0 0 1-1.204 1.176zm-5.823-12.936c-2.8 0-4.62 2.184-4.62 5.516 0 3.36 1.82 5.544 4.62 5.544 2.828 0 4.62-2.184 4.62-5.544 0-3.332-1.792-5.516-4.62-5.516zm16.818.001a4.034 4.034 0 0 0-3.976 4.004v7.756a1.167 1.167 0 0 1-1.232 1.204 1.147 1.147 0 0 1-1.176-1.176v-12.488a1.186 1.186 0 0 1 1.176-1.204 1.15 1.15 0 0 1 1.204.952 6.477 6.477 0 0 1 4.004-1.428 1.191 1.191 0 1 1 0 2.38zm13.863 6.748h-10.36c.392 2.632 2.07 4.312 4.536 4.312a4.2 4.2 0 0 0 3.332-1.456 1.16 1.16 0 0 1 .868-.447 1.306 1.306 0 0 1 1.26 1.231c0 .336-.084.588-.672 1.176a6.82 6.82 0 0 1-4.788 1.876c-4.508 0-7.028-3.724-7.028-7.924 0-4.172 2.52-7.896 7.028-7.896 4.564 0 7 3.724 7 7.896a1.194 1.194 0 0 1-1.176 1.232zm-5.824-6.748c-2.632 0-4.172 1.932-4.536 4.34h9.07c-.392-2.688-2.072-4.34-4.536-4.34zm21.027 12.964a1.131 1.131 0 0 1-1.176-1.176v-7.784a3.99 3.99 0 1 0-7.979 0v7.756a1.19 1.19 0 0 1-1.232 1.232 1.154 1.154 0 0 1-1.176-1.204V456.6a1.114 1.114 0 0 1 1.176-1.176 1.171 1.171 0 0 1 1.204.924 6.395 6.395 0 0 1 10.387 4.984v7.756a1.145 1.145 0 0 1-1.204 1.204z"/></g><g opacity=".66"><path d="M53.3 434.987h-5.796a1.274 1.274 0 0 1-1.231-1.176v-17.556a1.257 1.257 0 0 1 1.231-1.204H53.3c5.768 0 7.672 4.76 7.672 9.94 0 5.208-1.904 9.996-7.672 9.996zm0-17.556h-4.62v15.176h4.62c3.612 0 5.264-2.66 5.264-7.616 0-4.872-1.652-7.56-5.264-7.56zm22.82 11.34H65.76c.392 2.632 2.072 4.312 4.536 4.312a4.2 4.2 0 0 0 3.332-1.456 1.16 1.16 0 0 1 .868-.447 1.306 1.306 0 0 1 1.26 1.231c0 .336-.084.588-.672 1.176a6.82 6.82 0 0 1-4.788 1.876c-4.508 0-7.028-3.724-7.028-7.924 0-4.172 2.52-7.896 7.028-7.896 4.564 0 7 3.724 7 7.896a1.194 1.194 0 0 1-1.176 1.232zm-5.824-6.748c-2.632 0-4.172 1.932-4.536 4.34h9.072c-.392-2.688-2.072-4.34-4.536-4.34zm23.267 12.965a2.725 2.725 0 0 1-2.492-1.596 6.418 6.418 0 0 1-4.928 2.071c-4.564 0-7.028-3.752-7.028-7.924s2.52-7.896 7.028-7.896a6.188 6.188 0 0 1 4.62 1.848v-.112a1.156 1.156 0 0 1 1.176-1.26 1.126 1.126 0 0 1 1.232 1.176v10.8a.453.453 0 0 0 .392.504 1.19 1.19 0 1 1 0 2.38zm-7.42-12.964c-2.8 0-4.62 2.184-4.62 5.516 0 3.36 1.82 5.544 4.62 5.544 2.828 0 4.62-2.184 4.62-5.544 0-3.332-1.792-5.516-4.62-5.516zm15.4 12.964h-.476c-2.66 0-3.668-1.4-3.668-3.696v-8.79h-.84a1.19 1.19 0 0 1-.028-2.38h.84v-3.892a1.137 1.137 0 0 1 1.204-1.176 1.115 1.115 0 0 1 1.176 1.176v3.892h1.792a1.161 1.161 0 0 1 1.176 1.176 1.139 1.139 0 0 1-1.176 1.204H99.75v9.044c0 .784.28 1.064 1.064 1.064h.7a1.155 1.155 0 0 1 1.204 1.176 1.139 1.139 0 0 1-1.176 1.204zm14.698 0a1.131 1.131 0 0 1-1.176-1.176v-7.784a3.99 3.99 0 1 0-7.979 0v7.756a1.19 1.19 0 0 1-1.232 1.232 1.154 1.154 0 0 1-1.176-1.204v-17.556a1.204 1.204 0 0 1 2.408-.028v4.844a5.649 5.649 0 0 1 3.976-1.428 6.435 6.435 0 0 1 6.383 6.384v7.756a1.145 1.145 0 0 1-1.204 1.204zm9.046.476c-1.54 0-4.116-.476-5.432-2.1a1.239 1.239 0 0 1 1.008-1.988 1.148 1.148 0 0 1 .868.477 4.784 4.784 0 0 0 3.556 1.231c2.52 0 3.332-.868 3.332-2.128 0-3.584-8.54-1.372-8.54-7.14 0-3.052 2.856-4.172 5.516-4.172 1.512 0 5.068.756 5.068 2.324a1.257 1.257 0 0 1-1.176 1.26 1.688 1.688 0 0 1-.924-.364 4.54 4.54 0 0 0-2.968-.84c-2.324 0-3.136.868-3.136 1.792 0 3.332 8.567 1.176 8.567 7.14 0 3.305-2.77 4.508-5.74 4.508zm21.4 0a6.129 6.129 0 0 1-4.62-1.848v6.076a1.167 1.167 0 0 1-1.232 1.204 1.154 1.154 0 0 1-1.176-1.204v-18.368a1.154 1.154 0 0 1 1.176-1.204 1.167 1.167 0 0 1 1.232 1.204 6.72 6.72 0 0 1 4.62-1.708c4.508 0 7.028 3.696 7.028 7.896 0 4.256-2.52 7.95-7.028 7.95zm0-13.468c-2.77 0-4.62 2.212-4.62 5.517 0 3.36 1.82 5.57 4.62 5.57s4.62-2.184 4.62-5.544c0-3.332-1.82-5.544-4.62-5.544zm21.587 6.775h-10.36c.392 2.632 2.072 4.312 4.536 4.312a4.2 4.2 0 0 0 3.332-1.456 1.16 1.16 0 0 1 .868-.447 1.306 1.306 0 0 1 1.26 1.231c0 .336-.084.588-.672 1.176a6.82 6.82 0 0 1-4.788 1.876c-4.508 0-7.028-3.724-7.028-7.924 0-4.172 2.52-7.896 7.028-7.896 4.564 0 7 3.724 7 7.896a1.194 1.194 0 0 1-1.176 1.232zm-5.824-6.748c-2.632 0-4.172 1.932-4.536 4.34h9.07c-.392-2.688-2.072-4.34-4.536-4.34z"/><use xlink:href="#Az" x="48.162" y="202.508"/><path d="M190.298 434.987a1.164 1.164 0 0 1-1.176-1.176v-15.008l-2.24 2.184a1.083 1.083 0 0 1-.784.336 1.308 1.308 0 0 1-1.26-1.231 1.149 1.149 0 0 1 .364-.841l4.172-4.03a1.543 1.543 0 0 1 1.036-.448c.784 0 1.12.784 1.12 1.428v17.584a1.184 1.184 0 0 1-1.232 1.204zm5.488 2.463a1.13 1.13 0 0 1-.588.196 1.232 1.232 0 0 1-1.176-1.232c0-.952 1.064-1.147 1.064-1.596v-.028s-1.12-.308-1.12-1.987a1.812 1.812 0 0 1 1.876-1.736c1.316 0 2.1 1.484 2.1 2.688a4.43 4.43 0 0 1-2.156 3.696z"/><use xlink:href="#BB"/><use xlink:href="#BB" x="14.447"/><use xlink:href="#BB" x="28.895"/><path d="M256.067 435.463a6.625 6.625 0 0 1-4.62-1.68 1.144 1.144 0 0 1-1.232 1.176 1.129 1.129 0 0 1-1.176-1.176v-17.527a1.204 1.204 0 0 1 2.408-.028v5.235a6.217 6.217 0 0 1 4.62-1.819c4.507 0 7.027 3.695 7.027 7.896 0 4.23-2.52 7.924-7.027 7.924zm0-13.44c-2.8 0-4.62 2.184-4.62 5.516 0 3.36 1.82 5.544 4.62 5.544s4.62-2.184 4.62-5.544c0-3.332-1.82-5.516-4.62-5.516z"/><use xlink:href="#BA" x="149.384" y="-35.316"/><path d="M278.24 422.023a4.034 4.034 0 0 0-3.976 4.004v7.756a1.167 1.167 0 0 1-1.232 1.204 1.146 1.146 0 0 1-1.176-1.176v-12.488a1.186 1.186 0 0 1 1.176-1.204 1.149 1.149 0 0 1 1.204.952 6.477 6.477 0 0 1 4.004-1.428 1.191 1.191 0 1 1 0 2.38z"/><path d="M285.27 434.987h-.476c-2.66 0-3.668-1.4-3.668-3.696v-8.79h-.84a1.19 1.19 0 1 1-.028-2.38h.84v-3.892a1.137 1.137 0 0 1 1.204-1.176 1.115 1.115 0 0 1 1.176 1.176v3.892h1.792a1.161 1.161 0 0 1 1.176 1.176 1.139 1.139 0 0 1-1.176 1.204h-1.792v9.044c0 .784.28 1.064 1.064 1.064h.7a1.155 1.155 0 0 1 1.204 1.176 1.139 1.139 0 0 1-1.176 1.204zm14.698 0a1.131 1.131 0 0 1-1.176-1.176v-7.784a3.99 3.99 0 1 0-7.979 0v7.756a1.19 1.19 0 0 1-1.232 1.232 1.154 1.154 0 0 1-1.176-1.204v-17.556a1.204 1.204 0 0 1 2.408-.028v4.844a5.647 5.647 0 0 1 3.976-1.428 6.435 6.435 0 0 1 6.384 6.384v7.756a1.145 1.145 0 0 1-1.204 1.204zm9.044.476c-1.54 0-4.116-.476-5.432-2.1a1.239 1.239 0 0 1 1.008-1.988 1.149 1.149 0 0 1 .868.477 4.783 4.783 0 0 0 3.556 1.231c2.52 0 3.332-.868 3.332-2.128 0-3.584-8.54-1.372-8.54-7.14 0-3.052 2.856-4.172 5.515-4.172 1.512 0 5.068.756 5.068 2.324a1.258 1.258 0 0 1-1.176 1.26 1.688 1.688 0 0 1-.924-.364 4.542 4.542 0 0 0-2.968-.84c-2.323 0-3.135.868-3.135 1.792 0 3.332 8.567 1.176 8.567 7.14 0 3.305-2.772 4.508-5.74 4.508zm9.632-10.92a2.007 2.007 0 0 1-2.016-2.016 2.017 2.017 0 0 1 4.032 0 2.007 2.007 0 0 1-2.016 2.016zm0 10.473a2.008 2.008 0 0 1-2.016-2.017 2.017 2.017 0 0 1 4.032 0 2.008 2.008 0 0 1-2.016 2.017z"/></g><g class="BO"><path d="M48.318 641.047a2.016 2.016 0 1 1 2.016-2.017 2.008 2.008 0 0 1-2.016 2.017zm0 17.136a1.176 1.176 0 0 1-1.231-1.176V644.52a1.182 1.182 0 0 1 1.231-1.204 1.154 1.154 0 0 1 1.176 1.204v12.488a1.13 1.13 0 0 1-1.176 1.176zm16.267 0a1.131 1.131 0 0 1-1.175-1.176v-7.784a3.99 3.99 0 1 0-7.98 0v7.756a1.19 1.19 0 0 1-1.232 1.232 1.154 1.154 0 0 1-1.176-1.204V644.5a1.114 1.114 0 0 1 1.176-1.176 1.171 1.171 0 0 1 1.204.924 6.395 6.395 0 0 1 10.388 4.984v7.756a1.145 1.145 0 0 1-1.204 1.204zm8.932-12.49h-1.26v11.284a1.144 1.144 0 0 1-1.232 1.176 1.13 1.13 0 0 1-1.176-1.176v-11.284H68.7a1.19 1.19 0 0 1 0-2.38h1.148v-1.903a3.191 3.191 0 0 1 3.22-3.164 1.191 1.191 0 1 1 0 2.38.784.784 0 0 0-.812.756v1.932h1.26a1.191 1.191 0 1 1 0 2.38zm16.996 12.49a2.725 2.725 0 0 1-2.492-1.596 6.418 6.418 0 0 1-4.928 2.071c-4.563 0-7.028-3.752-7.028-7.924s2.52-7.896 7.028-7.896a6.188 6.188 0 0 1 4.62 1.848v-.112a1.156 1.156 0 0 1 1.176-1.26 1.126 1.126 0 0 1 1.232 1.176v10.8a.453.453 0 0 0 .392.504 1.19 1.19 0 1 1 0 2.38zm-7.42-12.964c-2.8 0-4.62 2.184-4.62 5.516 0 3.36 1.82 5.544 4.62 5.544 2.828 0 4.62-2.184 4.62-5.544 0-3.332-1.792-5.516-4.62-5.516zm22.23 12.964a1.131 1.131 0 0 1-1.176-1.176v-7.784a3.99 3.99 0 1 0-7.979 0v7.756a1.19 1.19 0 0 1-1.232 1.232 1.154 1.154 0 0 1-1.176-1.204V644.5a1.114 1.114 0 0 1 1.176-1.176 1.171 1.171 0 0 1 1.204.924 6.395 6.395 0 0 1 10.388 4.984v7.756a1.145 1.145 0 0 1-1.204 1.204zm9.1 0h-.476c-2.66 0-3.667-1.4-3.667-3.696v-8.792h-.84a1.19 1.19 0 1 1-.028-2.38h.84v-3.892a1.137 1.137 0 0 1 1.204-1.176 1.115 1.115 0 0 1 1.176 1.176v3.892h1.792a1.161 1.161 0 0 1 1.176 1.176 1.139 1.139 0 0 1-1.176 1.204h-1.792v9.044c0 .784.28 1.064 1.063 1.064h.7a1.155 1.155 0 0 1 1.204 1.176 1.139 1.139 0 0 1-1.176 1.204zm7.812.475c-1.54 0-4.116-.476-5.432-2.1a1.239 1.239 0 0 1 1.008-1.988 1.149 1.149 0 0 1 .868.477 4.784 4.784 0 0 0 3.556 1.231c2.52 0 3.332-.868 3.332-2.128 0-3.584-8.54-1.372-8.54-7.14 0-3.052 2.856-4.172 5.516-4.172 1.512 0 5.068.756 5.068 2.324a1.258 1.258 0 0 1-1.176 1.26 1.688 1.688 0 0 1-.924-.364 4.542 4.542 0 0 0-2.968-.84c-2.324 0-3.136.868-3.136 1.792 0 3.332 8.568 1.176 8.568 7.14 0 3.305-2.772 4.508-5.74 4.508zm-68.98-29.233a4.242 4.242 0 0 0 3.199-1.441 5.056 5.056 0 0 0 1.195-3.445 5.7 5.7 0 0 0-1.406-4.008 4.947 4.947 0 0 0-3.656-1.406h-.422q-.352.035-.316-.352v-1.687q-.035-.387.316-.316h.2a4.705 4.705 0 0 0 3.445-1.371 4.962 4.962 0 0 0 1.336-3.586q-.2-3.727-3.656-3.937a3.607 3.607 0 0 0-2.496.949 4.37 4.37 0 0 0-1.301 2.777q0 .492-.352.422h-1.898q-.422.07-.316-.352a6.985 6.985 0 0 1 2.003-4.465 6.281 6.281 0 0 1 8.859 0 6.552 6.552 0 0 1 1.828 4.605 6.217 6.217 0 0 1-1.195 3.797 6.674 6.674 0 0 1-2.461 2.039q-.282.176.035.387a7.701 7.701 0 0 1 2.707 2.074 6.759 6.759 0 0 1 1.406 4.43 7.652 7.652 0 0 1-2.039 5.168 7.04 7.04 0 0 1-5.062 2.215 6.808 6.808 0 0 1-4.711-1.828 7.17 7.17 0 0 1-2.144-5.098q-.07-.2.316-.28h1.898q.387-.07.387.422.316 4.113 4.3 4.3h0zm16.032-23.168l.422-.316h2.496c.258 0 .375.117.352.352v22.22q-.07.387.316.352h4.57q.387-.07.316.316v1.723q.034.387-.316.316H64.997q-.387.07-.352-.316v-1.723q-.035-.387.352-.316h4.746q.35.035.316-.352v-18.738q-.035-.422-.352-.07a15.44 15.44 0 0 1-4.816 2.813q-.282.14-.316-.176v-1.793a.341.341 0 0 1 .246-.316 8.839 8.839 0 0 0 4.465-3.973h0z"/></g><g class="BN"><path d="M53.244 468.507a4.242 4.242 0 0 0 3.199-1.441 5.056 5.056 0 0 0 1.195-3.445 5.7 5.7 0 0 0-1.406-4.008 4.947 4.947 0 0 0-3.656-1.406h-.422q-.352.035-.316-.352v-1.687q-.035-.387.316-.316h.2a4.705 4.705 0 0 0 3.445-1.371 4.962 4.962 0 0 0 1.336-3.586q-.2-3.727-3.656-3.937a3.607 3.607 0 0 0-2.496.949 4.37 4.37 0 0 0-1.301 2.777q0 .492-.352.422h-1.898q-.42.07-.316-.352a6.985 6.985 0 0 1 2.003-4.465 6.281 6.281 0 0 1 8.859 0 6.552 6.552 0 0 1 1.828 4.605 6.217 6.217 0 0 1-1.195 3.797 6.675 6.675 0 0 1-2.461 2.039q-.282.176.035.387a7.701 7.701 0 0 1 2.707 2.074 6.759 6.759 0 0 1 1.406 4.43 7.652 7.652 0 0 1-2.039 5.168 7.04 7.04 0 0 1-5.062 2.215 6.808 6.808 0 0 1-4.711-1.828 7.17 7.17 0 0 1-2.144-5.098q-.07-.2.316-.28h1.898q.387-.07.387.422.316 4.113 4.3 4.3h0zm22.184-21.973a6.92 6.92 0 0 1 1.898 4.816q-.2 4.36-3.023 5.766c-.118.094-.105.2.035.352a6.586 6.586 0 0 1 3.445 6.188 7.351 7.351 0 0 1-2.004 5.203 6.968 6.968 0 0 1-4.957 2.039 6.843 6.843 0 0 1-4.922-2.039 7.346 7.346 0 0 1-2.004-5.203 6.585 6.585 0 0 1 3.445-6.187q.2-.2.035-.352-2.813-1.406-3.023-5.766a6.916 6.916 0 0 1 1.898-4.816 6.254 6.254 0 0 1 9.176 0zm-4.605 22.008a4.186 4.186 0 0 0 3.199-1.371 4.945 4.945 0 0 0 1.195-3.48 5.727 5.727 0 0 0-1.16-3.762 4.242 4.242 0 0 0-6.434 0 5.727 5.727 0 0 0-1.16 3.762 4.943 4.943 0 0 0 1.195 3.48 4.144 4.144 0 0 0 3.164 1.371h0zm3.938-17.156a4.863 4.863 0 0 0-1.055-3.164 3.778 3.778 0 0 0-5.766 0 4.969 4.969 0 0 0-1.02 3.164q.105 4.43 3.902 4.676 3.83-.246 3.938-4.676z"/></g><path d="M1031.327 881.617a45.753 45.753 0 0 0-4.71 10.582 46.426 46.426 0 0 0-1.758 11.039q.07.457-.352.387h-2.004q-.387-.035-.316-.387a45.205 45.205 0 0 1 1.969-11.18 46.458 46.458 0 0 1 4.816-10.828q.316-.492-.035-.492h-10.828q-.387.07-.316-.352v-1.863q-.07-.387.316-.316h13.042q.387-.07.316.316v2.602l-.14.492z" class="BO"/><path d="M1028.207 808.98a6.919 6.919 0 0 1 1.898 4.816q-.21 4.36-3.023 5.766c-.118.094-.105.21.035.352a6.585 6.585 0 0 1 3.445 6.188 7.352 7.352 0 0 1-2.003 5.203 6.968 6.968 0 0 1-4.957 2.039 6.843 6.843 0 0 1-4.922-2.039 7.346 7.346 0 0 1-2.004-5.203 6.585 6.585 0 0 1 3.445-6.187q.21-.21.035-.352-2.813-1.406-3.023-5.766a6.916 6.916 0 0 1 1.898-4.816 6.254 6.254 0 0 1 9.176 0zm-4.605 22.008a4.186 4.186 0 0 0 3.199-1.371 4.945 4.945 0 0 0 1.195-3.48 5.727 5.727 0 0 0-1.16-3.762 4.242 4.242 0 0 0-6.434 0 5.727 5.727 0 0 0-1.16 3.762 4.943 4.943 0 0 0 1.195 3.48 4.144 4.144 0 0 0 3.164 1.371h0zm3.938-17.156a4.863 4.863 0 0 0-1.055-3.164 3.778 3.778 0 0 0-5.766 0 4.969 4.969 0 0 0-1.02 3.164q.105 4.43 3.902 4.676 3.83-.246 3.937-4.676z" class="BN"/></g><g><path d="M61.37 79.437a2.572 2.572 0 0 1-1.98-1.08L46.9 60.897h-7.74v15.898a2.501 2.501 0 0 1-2.64 2.58 2.456 2.456 0 0 1-2.52-2.52V39.24a2.491 2.491 0 0 1 2.52-2.58h15.54c5.28 0 12.06 4.14 12.06 12.06a12.094 12.094 0 0 1-11.04 12.119L63.6 75.3a2.358 2.358 0 0 1 .54 1.561 2.76 2.76 0 0 1-2.76 2.58zM52 41.757H39.17V55.8h12.78a7.02 7.02 0 0 0 .06-14.04zm41.16 37.68a2.446 2.446 0 0 1-2.52-1.98 13.963 13.963 0 0 1-8.64 3 13.79 13.79 0 0 1-13.679-13.68v-16.62a2.58 2.58 0 0 1 5.16-.06v16.68a8.55 8.55 0 1 0 17.099 0v-16.62a2.393 2.393 0 0 1 2.52-2.64 2.454 2.454 0 0 1 2.58 2.58v26.82a2.39 2.39 0 0 1-2.52 2.52z"/><use xlink:href="#BC"/><use xlink:href="#BC" x="26.1"/><use xlink:href="#BD"/><path d="M195.23 79.377a5.839 5.839 0 0 1-5.34-3.42 13.746 13.746 0 0 1-10.56 4.44c-9.78 0-15.06-8.04-15.06-16.98s5.4-16.92 15.06-16.92a13.257 13.257 0 0 1 9.9 3.961v-.24a2.475 2.475 0 0 1 2.52-2.7 2.412 2.412 0 0 1 2.64 2.521v23.158a.971.971 0 0 0 .84 1.08 2.55 2.55 0 1 1 0 5.1zM179.33 51.6c-6 0-9.9 4.68-9.9 11.82 0 7.2 3.9 11.88 9.9 11.88 6.06 0 9.9-4.68 9.9-11.88 0-7.14-3.84-11.82-9.9-11.82zm24-2.522a2.52 2.52 0 0 1-5.04 0l-.84-9.96v-.36a3.278 3.278 0 0 1 3.36-3.181 3.326 3.326 0 0 1 3.42 3.12v.3z"/><use xlink:href="#BC" x="107.52"/><g class="BN"><path d="M273.227 73.857c-2.94 4.08-7.14 6.54-13.38 6.54-12.9 0-17.46-10.68-17.46-22.38 0-11.76 4.56-22.438 17.46-22.438 6.06 0 10.5 2.4 13.32 6.54a2.31 2.31 0 0 1 .54 1.5 2.6 2.6 0 0 1-2.64 2.52 2.508 2.508 0 0 1-2.04-1.08c-1.86-2.7-4.62-4.32-9.18-4.32-8.52 0-12.3 6.3-12.3 17.28s3.78 17.28 12.3 17.28c4.56 0 7.32-1.74 9.18-4.38a2.425 2.425 0 0 1 2.04-1.141 2.525 2.525 0 0 1 2.16 4.08zm29.22 5.52a2.423 2.423 0 0 1-2.52-2.52v-16.68a8.55 8.55 0 1 0-17.099 0v16.62a2.55 2.55 0 0 1-2.64 2.641 2.472 2.472 0 0 1-2.52-2.58V39.24a2.58 2.58 0 0 1 5.16-.06v10.38a12.1 12.1 0 0 1 8.52-3.061 13.791 13.791 0 0 1 13.68 13.68V76.8a2.454 2.454 0 0 1-2.58 2.58z"/><use xlink:href="#BD" x="156.598"/><use xlink:href="#BE"/><path d="M359.685 79.317a2.436 2.436 0 0 1-2.58-2.521 14.515 14.515 0 0 1-9.899 3.601c-9.66 0-15.06-7.92-15.06-16.98 0-9 5.4-16.92 15.06-16.92a13.225 13.225 0 0 1 9.899 3.9V39.24a2.58 2.58 0 0 1 5.16-.06v37.617a2.436 2.436 0 0 1-2.58 2.521zm-12.48-27.72c-6 0-9.9 4.68-9.9 11.82 0 7.2 3.9 11.88 9.9 11.88 6.06 0 9.9-4.68 9.9-11.88 0-7.14-3.84-11.82-9.9-11.82zm69.18 27.84a2.472 2.472 0 0 1-2.52-2.58v-27.6l-11.64 21.72a2.627 2.627 0 0 1-2.4 1.619 2.857 2.857 0 0 1-2.4-1.619l-11.58-21.6v27.48a2.501 2.501 0 0 1-2.64 2.58 2.472 2.472 0 0 1-2.52-2.58V39.36a2.526 2.526 0 0 1 2.76-2.7 2.3 2.3 0 0 1 2.16 1.5l14.22 26.46 14.28-26.46a2.303 2.303 0 0 1 2.34-1.5 2.486 2.486 0 0 1 2.58 2.7v37.498a2.501 2.501 0 0 1-2.64 2.58z"/><use xlink:href="#BF"/><path d="M471.044 51.6a8.643 8.643 0 0 0-8.52 8.579V76.8a2.501 2.501 0 0 1-2.64 2.58 2.456 2.456 0 0 1-2.52-2.52V50.1a2.541 2.541 0 0 1 2.52-2.58 2.463 2.463 0 0 1 2.58 2.04 13.875 13.875 0 0 1 8.58-3.061 2.552 2.552 0 1 1 0 5.101zm16.92 27.777h-1.02c-5.7 0-7.86-3-7.86-7.92V52.62h-1.8a2.551 2.551 0 0 1-.06-5.101h1.8v-8.34a2.436 2.436 0 0 1 2.58-2.521 2.389 2.389 0 0 1 2.52 2.521v8.34h3.84a2.487 2.487 0 0 1 2.52 2.521 2.441 2.441 0 0 1-2.52 2.58h-3.84V72c0 1.68.6 2.28 2.28 2.28h1.5a2.475 2.475 0 0 1 2.58 2.52 2.441 2.441 0 0 1-2.52 2.58zm35.1 0a5.839 5.839 0 0 1-5.34-3.42 13.745 13.745 0 0 1-10.56 4.44c-9.78 0-15.06-8.04-15.06-16.98s5.4-16.92 15.06-16.92a13.254 13.254 0 0 1 9.899 3.961v-.24a2.476 2.476 0 0 1 2.521-2.7 2.412 2.412 0 0 1 2.64 2.521v23.158a.971.971 0 0 0 .84 1.08 2.55 2.55 0 1 1 0 5.1zm-15.9-27.778c-6 0-9.9 4.68-9.9 11.82 0 7.2 3.9 11.88 9.9 11.88 6.06 0 9.9-4.68 9.9-11.88 0-7.14-3.84-11.82-9.9-11.82z"/><use xlink:href="#BE" x="206.575"/><path d="M542.862 42.658a4.319 4.319 0 1 1 4.319-4.318 4.302 4.302 0 0 1-4.319 4.318zm0 36.72a2.519 2.519 0 0 1-2.64-2.52V50.1a2.533 2.533 0 0 1 2.64-2.58 2.471 2.471 0 0 1 2.52 2.58v26.76a2.42 2.42 0 0 1-2.52 2.52zm19.018-.001h-1.02c-5.7 0-7.86-3-7.86-7.92V52.62h-1.8a2.551 2.551 0 0 1-.061-5.101h1.8v-8.34a2.436 2.436 0 0 1 2.579-2.521 2.39 2.39 0 0 1 2.521 2.521v8.34h3.84a2.487 2.487 0 0 1 2.52 2.521 2.441 2.441 0 0 1-2.52 2.58h-3.84V72c0 1.68.6 2.28 2.28 2.28h1.5a2.475 2.475 0 0 1 2.58 2.52 2.44 2.44 0 0 1-2.52 2.58zm32.16-28.257l-16.2 36.838a6.876 6.876 0 0 1-6.6 4.02h-1.92a2.419 2.419 0 0 1-2.52-2.64 2.387 2.387 0 0 1 2.52-2.521h1.86a1.894 1.894 0 0 0 1.979-.959l3.96-8.88-11.7-25.858a2.168 2.168 0 0 1-.301-1.141 2.705 2.705 0 0 1 2.761-2.52 2.309 2.309 0 0 1 2.159 1.56l9.78 21.72 9.54-21.72a2.376 2.376 0 0 1 2.22-1.5 2.66 2.66 0 0 1 2.76 2.46 2.036 2.036 0 0 1-.3 1.141z"/></g><path d="M614.92 79.377h-6.9a2.55 2.55 0 0 1 0-5.1h.9V41.76h-.9a2.55 2.55 0 0 1 0-5.1h6.9a2.551 2.551 0 1 1 0 5.1h-.9v32.52h.9a2.551 2.551 0 1 1 0 5.1zm16.68 1.02c-3.3 0-8.82-1.02-11.64-4.5a2.655 2.655 0 0 1 2.16-4.26 2.463 2.463 0 0 1 1.859 1.021c1.86 2.04 4.92 2.64 7.62 2.64 5.4 0 7.14-1.86 7.14-4.56 0-7.68-18.3-2.94-18.3-15.3 0-6.54 6.12-8.94 11.82-8.94 3.24 0 10.86 1.62 10.86 4.98a2.693 2.693 0 0 1-2.521 2.699 3.607 3.607 0 0 1-1.979-.779c-1.62-1.38-3.96-1.8-6.36-1.8-4.98 0-6.72 1.86-6.72 3.84 0 7.14 18.36 2.52 18.36 15.3 0 7.08-5.94 9.66-12.3 9.66zm42.12-1.02H661.3a2.729 2.729 0 0 1-2.64-2.52V39.24a2.693 2.693 0 0 1 2.64-2.58h12.42c12.36 0 16.44 10.2 16.44 21.3 0 11.158-4.08 21.418-16.44 21.418zm0-37.618h-9.9v32.52h9.9c7.74 0 11.28-5.7 11.28-16.318 0-10.44-3.54-16.2-11.28-16.2z"/><use xlink:href="#BF" x="268.553"/><path d="M765.696 50.938l-9.3 26.34a2.727 2.727 0 0 1-2.64 2.1c-1.26 0-1.98-.54-2.52-2.1l-7.02-19.8-7.08 19.8a2.599 2.599 0 0 1-5.101 0l-9.24-26.34a2.642 2.642 0 0 1-.12-.96 2.585 2.585 0 0 1 2.64-2.46 2.378 2.378 0 0 1 2.34 1.681l6.96 20.04 7.08-19.62c.48-1.38 1.08-2.1 2.52-2.1 1.32 0 2.04.66 2.52 2.1l7.02 19.62 7.02-20.04a2.358 2.358 0 0 1 2.279-1.681 2.667 2.667 0 0 1 2.761 2.521 2.485 2.485 0 0 1-.12.899zm27.84 28.44a2.423 2.423 0 0 1-2.52-2.52v-16.68a8.55 8.55 0 1 0-17.1 0v16.62a2.55 2.55 0 0 1-2.64 2.641 2.472 2.472 0 0 1-2.52-2.58V50.04a2.387 2.387 0 0 1 2.52-2.521 2.509 2.509 0 0 1 2.58 1.979 13.702 13.702 0 0 1 22.259 10.68v16.62a2.453 2.453 0 0 1-2.58 2.58zm9.18 5.28a2.437 2.437 0 0 1-1.261.42 2.641 2.641 0 0 1-2.52-2.64c0-2.04 2.28-2.46 2.28-3.42v-.06s-2.4-.66-2.4-4.26a3.882 3.882 0 0 1 4.02-3.719c2.82 0 4.5 3.18 4.5 5.76a9.49 9.49 0 0 1-4.619 7.919z"/><g class="BL"><path d="M54.9 140.578H36.65a2.602 2.602 0 0 1-2.64-2.521V100.44a2.58 2.58 0 0 1 5.16-.061v35.1H54.9a2.55 2.55 0 0 1 0 5.1zm6.9-36.718a4.32 4.32 0 1 1 4.32-4.32 4.302 4.302 0 0 1-4.32 4.32zm0 36.72a2.521 2.521 0 0 1-2.64-2.521V111.3a2.534 2.534 0 0 1 2.64-2.58 2.472 2.472 0 0 1 2.52 2.58v26.76a2.421 2.421 0 0 1-2.52 2.521zm18.66-26.762h-2.7v24.18a2.453 2.453 0 0 1-2.64 2.52 2.42 2.42 0 0 1-2.52-2.52v-24.18h-2.46a2.55 2.55 0 0 1 0-5.1h2.46v-4.08a6.836 6.836 0 0 1 6.899-6.779 2.551 2.551 0 1 1 0 5.1 1.681 1.681 0 0 0-1.74 1.62v4.14h2.7a2.551 2.551 0 1 1 0 5.1zm30.96 13.44H89.2c.84 5.64 4.44 9.24 9.72 9.24a9.007 9.007 0 0 0 7.14-3.12 2.482 2.482 0 0 1 1.86-.96 2.8 2.8 0 0 1 2.7 2.641c0 .72-.18 1.26-1.44 2.52a14.623 14.623 0 0 1-10.26 4.02c-9.66 0-15.06-7.98-15.06-16.98 0-8.94 5.4-16.92 15.06-16.92 9.78 0 15 7.98 15 16.92a2.558 2.558 0 0 1-2.52 2.64zM98.93 112.8c-5.64 0-8.94 4.14-9.72 9.3h19.44c-.84-5.76-4.44-9.3-9.72-9.3zm58.978 27.778h-24.96a2.602 2.602 0 0 1-2.64-2.521V100.44a2.612 2.612 0 0 1 2.64-2.58h24.96a2.425 2.425 0 0 1 2.52 2.52 2.505 2.505 0 0 1-2.52 2.58h-22.44v12.12h15.72a2.561 2.561 0 0 1 2.58 2.58 2.523 2.523 0 0 1-2.58 2.58h-15.72v15.24h22.44a2.471 2.471 0 0 1 2.52 2.579 2.426 2.426 0 0 1-2.52 2.521zm29.94.06a2.251 2.251 0 0 1-1.92-.96l-9.78-11.94-9.78 11.94a2.732 2.732 0 0 1-1.92.9 2.697 2.697 0 0 1-2.7-2.521 2.731 2.731 0 0 1 .72-1.739l10.32-12.66-8.82-10.74a2.502 2.502 0 0 1-.66-1.681 2.705 2.705 0 0 1 2.7-2.58 2.321 2.321 0 0 1 1.92.961l8.22 10.08 8.28-10.08a2.28 2.28 0 0 1 1.8-.961 2.76 2.76 0 0 1 2.76 2.58 2.687 2.687 0 0 1-.66 1.621l-8.88 10.8 10.44 12.66a2.642 2.642 0 0 1 .66 1.739 2.746 2.746 0 0 1-2.7 2.58zm20.46.96a13.128 13.128 0 0 1-9.899-3.96v13.02a2.501 2.501 0 0 1-2.64 2.58 2.471 2.471 0 0 1-2.52-2.58V111.3a2.472 2.472 0 0 1 2.52-2.58 2.501 2.501 0 0 1 2.64 2.58 14.399 14.399 0 0 1 9.899-3.66c9.66 0 15.06 7.92 15.06 16.92 0 9.12-5.4 17.04-15.06 17.04zm0-28.86c-5.94 0-9.9 4.74-9.9 11.82 0 7.2 3.9 11.94 9.9 11.94s9.9-4.68 9.9-11.88c0-7.14-3.9-11.88-9.9-11.88zm45.96 14.52h-22.2c.84 5.64 4.44 9.24 9.72 9.24a9.007 9.007 0 0 0 7.14-3.12 2.482 2.482 0 0 1 1.86-.96 2.8 2.8 0 0 1 2.7 2.641c0 .72-.18 1.26-1.44 2.52a14.623 14.623 0 0 1-10.26 4.02c-9.66 0-15.06-7.98-15.06-16.98 0-8.94 5.4-16.92 15.06-16.92 9.78 0 15 7.98 15 16.92a2.558 2.558 0 0 1-2.52 2.64zm-12.48-14.46c-5.64 0-8.94 4.14-9.72 9.3h19.44c-.84-5.76-4.44-9.3-9.72-9.3z"/><use xlink:href="#BG"/><path d="M300.226 140.578h-1.02c-5.7 0-7.86-3-7.86-7.92v-18.84h-1.8a2.55 2.55 0 1 1-.06-5.1h1.8v-8.34a2.436 2.436 0 0 1 2.58-2.52 2.389 2.389 0 0 1 2.52 2.52v8.34h3.84a2.488 2.488 0 0 1 2.52 2.52 2.441 2.441 0 0 1-2.52 2.58h-3.84v19.38c0 1.68.6 2.28 2.28 2.28h1.5a2.474 2.474 0 0 1 2.58 2.52 2.441 2.441 0 0 1-2.52 2.58zm35.1 0a5.839 5.839 0 0 1-5.34-3.42 13.748 13.748 0 0 1-10.56 4.439c-9.78 0-15.06-8.04-15.06-16.98s5.4-16.92 15.06-16.92a13.261 13.261 0 0 1 9.899 3.959v-.24a2.476 2.476 0 0 1 2.52-2.7 2.412 2.412 0 0 1 2.64 2.52v23.16a.972.972 0 0 0 .84 1.08 2.55 2.55 0 1 1 0 5.1zm-15.9-27.78c-6 0-9.9 4.68-9.9 11.82 0 7.2 3.9 11.88 9.9 11.88 6.06 0 9.9-4.68 9.9-11.88 0-7.14-3.84-11.82-9.9-11.82zm46.44 27.78a2.424 2.424 0 0 1-2.52-2.521v-16.68a8.55 8.55 0 1 0-17.099 0v16.62a2.551 2.551 0 0 1-2.64 2.64 2.471 2.471 0 0 1-2.52-2.58v-26.82a2.386 2.386 0 0 1 2.52-2.52 2.509 2.509 0 0 1 2.58 1.98 13.703 13.703 0 0 1 22.259 10.68v16.62a2.454 2.454 0 0 1-2.58 2.58z"/><use xlink:href="#BG" x="111.717"/><path d="M427.784 112.318l-16.2 36.84a6.876 6.876 0 0 1-6.6 4.021h-1.92a2.421 2.421 0 0 1-2.52-2.641 2.387 2.387 0 0 1 2.52-2.52h1.86a1.894 1.894 0 0 0 1.98-.961l3.96-8.88-11.7-25.86a2.165 2.165 0 0 1-.3-1.14 2.705 2.705 0 0 1 2.76-2.52 2.31 2.31 0 0 1 2.16 1.561l9.78 21.72 9.54-21.72a2.375 2.375 0 0 1 2.22-1.5 2.659 2.659 0 0 1 2.76 2.46 2.037 2.037 0 0 1-.3 1.14z"/></g><path d="M450.943 140.578h-6.9a2.55 2.55 0 0 1 0-5.1h.9v-32.52h-.9a2.55 2.55 0 0 1 0-5.1h6.9a2.551 2.551 0 1 1 0 5.1h-.9v32.52h.9a2.551 2.551 0 1 1 0 5.1zm16.68 1.02c-3.3 0-8.82-1.02-11.64-4.5a2.655 2.655 0 0 1 2.16-4.26 2.464 2.464 0 0 1 1.86 1.02c1.86 2.04 4.92 2.64 7.62 2.64 5.4 0 7.14-1.86 7.14-4.56 0-7.68-18.3-2.94-18.3-15.3 0-6.54 6.12-8.94 11.82-8.94 3.24 0 10.86 1.62 10.86 4.98a2.695 2.695 0 0 1-2.52 2.7 3.617 3.617 0 0 1-1.98-.78c-1.62-1.38-3.96-1.8-6.36-1.8-4.98 0-6.72 1.86-6.72 3.84 0 7.14 18.36 2.52 18.36 15.3 0 7.08-5.94 9.66-12.3 9.66zm43.08.06a15.031 15.031 0 0 1-15.059-15.061v-26.22a2.581 2.581 0 0 1 5.16 0v26.22a9.93 9.93 0 1 0 19.859 0V100.44a2.55 2.55 0 0 1 5.1-.061v26.22a15.031 15.031 0 0 1-15.06 15.061zm35.94-.06a13.13 13.13 0 0 1-9.9-3.96v13.02a2.5 2.5 0 0 1-2.64 2.58 2.471 2.471 0 0 1-2.52-2.58V111.3a2.472 2.472 0 0 1 2.52-2.58 2.501 2.501 0 0 1 2.64 2.58 14.402 14.402 0 0 1 9.9-3.66c9.66 0 15.06 7.92 15.06 16.92 0 9.12-5.4 17.04-15.06 17.04zm0-28.86c-5.94 0-9.9 4.74-9.9 11.82 0 7.2 3.9 11.94 9.9 11.94s9.9-4.68 9.9-11.88c0-7.14-3.9-11.88-9.9-11.88z"/></g></g></svg>