<?xml version="1.0" encoding="utf-8"?>
<!-- Generator: Adobe Illustrator 24.3.0, SVG Export Plug-In . SVG Version: 6.00 Build 0)  -->
<svg version="1.1" id="Layer_1" xmlns:v="https://vecta.io/nano"
	 xmlns="http://www.w3.org/2000/svg" xmlns:xlink="http://www.w3.org/1999/xlink" x="0px" y="0px" viewBox="0 0 1080 1080"
	 style="enable-background:new 0 0 1080 1080;" xml:space="preserve">
<style type="text/css">
	.st0{fill:url(#SVGID_1_);}
	.st1{opacity:0.4;}
	.st2{fill:#FFFFFF;}
	.st3{opacity:0.5;}
	.st4{opacity:0.22;}
	.st5{fill:none;stroke:#FFFFFF;stroke-width:2;stroke-miterlimit:10;}
	.st6{fill:none;stroke:#FFFFFF;stroke-width:2;stroke-miterlimit:10;stroke-dasharray:1.9985,5.9956;}
	.st7{opacity:0.66;}
	.st8{fill:url(#SVGID_2_);}
	.st9{fill:none;stroke:#FFFFFF;stroke-width:2;stroke-linecap:round;stroke-linejoin:round;}
	.st10{fill:url(#SVGID_3_);}
	.st11{fill:url(#SVGID_4_);}
</style>
<g>
	<linearGradient id="SVGID_1_" gradientUnits="userSpaceOnUse" x1="0" y1="540" x2="1080" y2="540">
		<stop  offset="0" style="stop-color:#200122"/>
		<stop  offset="0.12" style="stop-color:#2A011E"/>
		<stop  offset="1" style="stop-color:#6F0000"/>
	</linearGradient>
	<path class="st0" d="M40,0h1000c22.1,0,40,17.9,40,40v1000c0,22.1-17.9,40-40,40H40c-22.1,0-40-17.9-40-40V40C0,17.9,17.9,0,40,0z"
		/>
</g>
<g>
	<g>
		<path d="M85.4,579.3c0.8,0,1.5-0.7,1.4-1.6c0-0.8-0.7-1.4-1.4-1.4c-0.8,0-1.5,0.7-1.4,1.6C84,578.6,84.6,579.2,85.4,579.3z"/>
	</g>
	<g>
		<g class="st1">
			<path class="st2" d="M42.3,1046c-2,0.1-4-0.7-5.5-2c0,0.8-0.6,1.4-1.3,1.4h-0.1c-0.7,0-1.4-0.5-1.4-1.3v-0.1v-20.9
				c0-0.8,0.7-1.4,1.5-1.4s1.4,0.6,1.4,1.4v6.2c1.5-1.5,3.4-2.2,5.5-2.2c5.4,0,8.4,4.4,8.4,9.4C50.7,1041.6,47.7,1046,42.3,1046z
				 M42.3,1030c-3.3,0-5.5,2.6-5.5,6.6s2.2,6.6,5.5,6.6s5.5-2.6,5.5-6.6S45.7,1030,42.3,1030z M67.9,1038.1H55.5
				c0.5,3.1,2.5,5.1,5.4,5.1c1.5,0.1,3-0.6,4-1.7c0.2-0.3,0.6-0.5,1-0.5c0.8,0,1.5,0.7,1.5,1.5c0,0.4-0.1,0.7-0.8,1.4
				c-1.5,1.5-3.6,2.3-5.7,2.2c-5.4,0-8.4-4.4-8.4-9.4s3-9.4,8.4-9.4s8.3,4.4,8.3,9.4C69.3,1037.4,68.7,1038.1,67.9,1038.1
				L67.9,1038.1L67.9,1038.1z M60.9,1030c-3.1,0-5,2.3-5.4,5.2h10.8C65.9,1032,63.9,1030,60.9,1030L60.9,1030z M88,1045.5
				c-1.3,0-2.4-0.7-3-1.9c-1.5,1.6-3.6,2.5-5.9,2.5c-5.4,0-8.4-4.5-8.4-9.4s3-9.4,8.4-9.4c2.1-0.1,4.1,0.7,5.5,2.2v-0.1
				c-0.1-0.8,0.5-1.4,1.2-1.5c0.1,0,0.1,0,0.2,0c0.7-0.1,1.4,0.5,1.5,1.2c0,0.1,0,0.1,0,0.2v12.9c0,0.3,0.2,0.6,0.5,0.6
				c0.8,0,1.4,0.6,1.5,1.4C89.5,1044.8,88.9,1045.5,88,1045.5C88.1,1045.5,88,1045.5,88,1045.5L88,1045.5z M79.2,1030
				c-3.3,0-5.5,2.6-5.5,6.6s2.2,6.6,5.5,6.6c3.4,0,5.5-2.6,5.5-6.6S82.5,1030,79.2,1030z"/>
			<g>
				<path id="E" class="st2" d="M104.7,1045.5c-0.7,0-1.3-0.4-1.4-1.1c-1.4,1.1-3.1,1.7-4.8,1.7c-4.2,0-7.6-3.4-7.6-7.6v-9.2
					c0-0.8,0.6-1.4,1.4-1.5c0.8,0,1.4,0.6,1.5,1.4l0,0v9.3c0,2.6,2.1,4.8,4.8,4.8s4.8-2.1,4.8-4.8l0,0v-9.2
					c-0.1-0.7,0.5-1.4,1.2-1.5c0.1,0,0.1,0,0.2,0c0.8,0,1.4,0.5,1.4,1.3v0.1v14.9c0,0.7-0.5,1.4-1.3,1.4
					C104.8,1045.5,104.8,1045.5,104.7,1045.5L104.7,1045.5z"/>
			</g>
			<path class="st2" d="M115.2,1045.5h-0.6c-3.2,0-4.4-1.7-4.4-4.4v-10.5h-1c-0.8,0-1.4-0.6-1.5-1.4s0.6-1.4,1.4-1.5c0,0,0,0,0.1,0
				h1v-4.6c0-0.7,0.6-1.4,1.3-1.4h0.1c0.7,0,1.4,0.5,1.4,1.3v0.1v4.6h2.1c0.8,0,1.4,0.6,1.4,1.4l0,0c0,0.7-0.5,1.4-1.3,1.4h-0.1H113
				v10.8c0,0.9,0.3,1.3,1.3,1.3h0.8c0.8,0,1.4,0.6,1.4,1.3v0.1C116.5,1044.7,116,1045.4,115.2,1045.5
				C115.2,1045.5,115.2,1045.5,115.2,1045.5L115.2,1045.5z M119.8,1025.1c-1.3,0-2.4-1.1-2.4-2.4c0-1.3,1.1-2.4,2.4-2.4
				s2.4,1.1,2.4,2.4C122.2,1024,121.1,1025.1,119.8,1025.1L119.8,1025.1z M119.8,1045.5c-0.8,0-1.4-0.6-1.5-1.3c0,0,0,0,0-0.1v-14.9
				c0-0.8,0.6-1.4,1.4-1.4h0.1c0.8,0,1.4,0.6,1.4,1.3v0.1v14.9C121.2,1044.8,120.7,1045.5,119.8,1045.5
				C119.8,1045.5,119.8,1045.5,119.8,1045.5z M130.1,1030.6h-1.5v13.4c0,0.8-0.6,1.4-1.3,1.4h-0.1c-0.7,0-1.4-0.5-1.4-1.3v-0.1
				v-13.4h-1.4c-0.8,0-1.4-0.7-1.4-1.5s0.6-1.4,1.4-1.4h1.4v-2.3c0-2.1,1.7-3.8,3.8-3.8l0,0c0.8,0,1.4,0.6,1.5,1.4
				c0,0.8-0.6,1.4-1.4,1.5c0,0,0,0-0.1,0c-0.5,0-0.9,0.4-1,0.9l0,0v2.3h1.5c0.8,0,1.4,0.6,1.5,1.4
				C131.6,1029.9,131,1030.6,130.1,1030.6C130.2,1030.6,130.2,1030.6,130.1,1030.6L130.1,1030.6z"/>
			<g>
				<path id="E_1_" class="st2" d="M146.8,1045.5c-0.7,0-1.3-0.4-1.4-1.1c-1.4,1.1-3.1,1.7-4.8,1.7c-4.2,0-7.6-3.4-7.6-7.6v-9.2
					c0-0.8,0.6-1.4,1.4-1.5c0.8,0,1.4,0.6,1.5,1.4l0,0v9.3c0,2.6,2.1,4.8,4.8,4.8s4.8-2.1,4.8-4.8l0,0v-9.2
					c-0.1-0.7,0.5-1.4,1.2-1.5c0.1,0,0.1,0,0.2,0c0.8,0,1.4,0.5,1.4,1.3v0.1v14.9c0,0.7-0.5,1.4-1.3,1.4
					C146.9,1045.5,146.8,1045.5,146.8,1045.5L146.8,1045.5z"/>
			</g>
			<path class="st2" d="M154.7,1045.5c-1.9,0-3.3-1.5-3.3-3.4v-19c0-0.8,0.7-1.4,1.5-1.4s1.4,0.6,1.4,1.4v19c0,0.3,0.2,0.5,0.5,0.6
				c0.8,0,1.4,0.6,1.5,1.4C156.2,1044.9,155.6,1045.5,154.7,1045.5C154.8,1045.5,154.8,1045.5,154.7,1045.5z M170.1,1045.5v-1.3
				c1.9-0.2,2-0.4,2-3.2v-6.7c0-2.8-1.2-4-3.1-4c-1.3,0.1-2.5,0.6-3.5,1.5v9.5c0,2.5,0.2,2.7,2.1,2.9v1.3h-9v-1.3
				c2.3-0.3,2.5-0.4,2.5-3v-8.2c0-2.4-0.3-2.6-2.2-2.9v-1.2c2.3-0.3,4.5-0.8,6.7-1.5l-0.1,2.9l2.6-1.7c0.9-0.7,2-1.1,3.2-1.1
				c3.2,0,5.2,2.3,5.2,6.3v7.5c0,2.5,0.2,2.7,2.3,2.9v1.3L170.1,1045.5z M194,1041.8c-2.5,3.4-5.5,4.2-7,4.2c-5.1,0-8.1-3.9-8.1-8.6
				c0-2.6,1-5.2,2.8-7.1c1.6-1.7,3.8-2.7,6.1-2.8c3.5,0,6.3,2.8,6.4,6.3c0,0.7-0.1,1.3-0.6,1.4c-0.8,0.2-6.2,0.5-10.3,0.6
				c0.1,4.6,2.7,6.7,5.6,6.7c1.7,0,3.3-0.7,4.5-1.9L194,1041.8z M186.9,1029.1c-1.7,0-3.2,1.8-3.5,5l5.5-0.1c0.6,0,0.8-0.1,0.8-0.8
				C189.8,1031.1,188.7,1029.1,186.9,1029.1L186.9,1029.1z M221.2,1029.2c-1.9,0.3-2.2,0.6-3.1,2.8c-1.3,3.5-3.1,8.5-4.9,13.9h-1.5
				l-4.6-11.5l-4.6,11.5H201l-4.7-14.2c-0.7-2-0.9-2.3-2.9-2.5v-1.2h9.4v1.2c-2.3,0.3-2.5,0.7-2.1,2.1l2.5,8.2
				c1.5-3.7,3-7.6,4.3-11.4h1.5c1.4,3.8,3,7.7,4.6,11.6c0.7-2.1,2.1-6,2.6-8.1c0.4-1.7,0-2.1-2.8-2.4v-1.2h7.7L221.2,1029.2z
				 M230.6,1033c-0.9-2.6-2.2-4-4.2-4c-1.2,0-2.2,0.9-2.2,2.1c0,0.1,0,0.1,0,0.2c0,1.5,1,2.3,3.2,3.2c3.3,1.5,5.3,2.8,5.3,5.7
				c0,3.8-3.6,5.8-6.9,5.8c-1.7,0-3.4-0.4-4.9-1.2l-0.7-4.9l1.3-0.2c0.8,2.5,2.3,4.8,5,4.8c1.2,0.1,2.3-0.8,2.4-2c0-0.1,0-0.2,0-0.3
				c0-1.4-0.8-2.3-3.1-3.5c-2.7-1.3-5.1-2.6-5.1-5.8c0-3,2.5-5.4,6.6-5.4c1.4,0,2.8,0.2,4.1,0.6l0.6,4.6L230.6,1033z"/>
		</g>
		<g class="st3">
			<g>
				<path id="F" class="st2" d="M697.6,1046.4c-1.2,0-3.2-0.4-3.9-1.6c-0.1-0.1-0.1-0.2-0.1-0.3c0-0.3,0.2-0.6,0.5-0.6
					c0.2,0,0.4,0.1,0.5,0.3c0.8,0.8,1.9,1.2,3,1.1c1.9,0,2.9-0.6,2.9-1.9c0-3-6.6-1.4-6.6-5.4c0-2,2-2.8,3.8-2.8
					c1.2,0,2.5,0.4,3.4,1.2c0.1,0.1,0.2,0.2,0.2,0.4c0,0.3-0.3,0.6-0.6,0.6c-0.1,0-0.3-0.1-0.4-0.2c-0.7-0.6-1.7-0.9-2.6-0.8
					c-1.8,0-2.7,0.7-2.7,1.7c0,2.8,6.6,1.3,6.6,5.4C701.7,1045.6,699.7,1046.4,697.6,1046.4L697.6,1046.4z"/>
			</g>
			<g>
				<path id="G" class="st2" d="M708.3,1046.3c-3.2,0-5-2.6-5-5.7c0-3,1.8-5.6,5-5.6s5,2.6,5,5.6
					C713.3,1043.7,711.5,1046.3,708.3,1046.3z M708.3,1036.2c-2.4,0-3.9,1.9-3.9,4.5s1.5,4.5,3.9,4.5s3.9-1.9,3.9-4.5
					S710.7,1036.2,708.3,1036.2z"/>
			</g>
			<g>
				<path id="H" class="st2" d="M724.1,1046c-0.3,0-0.6-0.2-0.6-0.5l0,0v-0.6c-0.9,1-2.1,1.6-3.4,1.5c-2.5,0-4.5-2.1-4.6-4.6v-5.8
					c0-0.3,0.3-0.6,0.6-0.6s0.6,0.3,0.6,0.6v5.8c0,1.9,1.5,3.4,3.4,3.4s3.4-1.5,3.4-3.4l0,0v-5.8c0-0.3,0.3-0.6,0.6-0.6
					s0.6,0.3,0.6,0.6v9.5C724.7,1045.7,724.4,1046,724.1,1046L724.1,1046L724.1,1046z"/>
			</g>
			<path class="st2" d="M732.1,1036.3c-1.9,0-3.4,1.5-3.4,3.4l0,0v5.7c0,0.3-0.3,0.6-0.6,0.6s-0.6-0.3-0.6-0.6v-9.5
				c0-0.3,0.3-0.6,0.6-0.6s0.6,0.3,0.6,0.6v0.8c0.9-1,2.1-1.5,3.4-1.5c0.3,0,0.6,0.3,0.6,0.6
				C732.6,1036.1,732.4,1036.3,732.1,1036.3L732.1,1036.3z"/>
			<g>
				<path id="I" class="st2" d="M742.2,1044.8c-0.9,1-2.2,1.6-3.6,1.5c-3.2,0-5-2.6-5-5.7c0-3,1.8-5.6,5-5.6c1.4,0,2.7,0.5,3.6,1.5
					c0.1,0.1,0.2,0.2,0.2,0.4c0,0.3-0.3,0.6-0.6,0.6c-0.2,0-0.3-0.1-0.4-0.2c-0.7-0.8-1.7-1.2-2.7-1.2c-2.4,0-3.9,1.9-3.9,4.5
					s1.5,4.5,3.9,4.5c1,0,2-0.4,2.7-1.2c0.1-0.1,0.3-0.2,0.4-0.2c0.3,0,0.6,0.3,0.6,0.6C742.4,1044.5,742.3,1044.7,742.2,1044.8
					L742.2,1044.8z"/>
			</g>
			<g>
				<path id="J" class="st2" d="M753.8,1041.2h-8.3c0.2,2.3,1.7,3.9,3.8,3.9c1.1,0,2.2-0.5,2.9-1.4c0.1-0.2,0.3-0.3,0.5-0.3
					c0.3,0,0.6,0.2,0.6,0.5c0,0.2,0,0.2-0.4,0.7c-0.9,1-2.3,1.6-3.7,1.6c-3.2,0-5-2.6-5-5.7c0-3,1.8-5.6,5-5.6s5,2.7,5,5.6
					C754.4,1041,754.1,1041.2,753.8,1041.2L753.8,1041.2z M749.4,1036.2c-2.4,0-3.7,1.8-3.8,3.9h7.7
					C753,1037.8,751.6,1036.2,749.4,1036.2z"/>
			</g>
			<path class="st2" d="M757.8,1039.4c-0.6,0-1.1-0.5-1.1-1.1s0.5-1.1,1.1-1.1l0,0c0.6,0,1.1,0.5,1.1,1.1S758.4,1039.4,757.8,1039.4
				z M757.8,1046c-0.6,0-1.1-0.5-1.1-1.1s0.5-1.1,1.1-1.1l0,0c0.6,0,1.1,0.5,1.1,1.1S758.4,1046,757.8,1046z M772.9,1046h-5.8
				c-0.3,0-0.6-0.3-0.6-0.6v-13.1c0-0.3,0.2-0.5,0.4-0.6h0.1h5.4c2,0,3.6,1.6,3.6,3.6c0,1.1-0.5,2.2-1.4,2.9c2.1,1,3,3.4,2,5.4
				C776,1045.1,774.5,1046,772.9,1046L772.9,1046z M772.5,1032.9h-4.8v4.9h4.8c1.4,0,2.5-1.1,2.5-2.4
				C775,1034,773.9,1032.9,772.5,1032.9L772.5,1032.9L772.5,1032.9z M772.9,1038.9h-5.2v5.9h5.2c1.6,0,3-1.3,3-2.9
				S774.6,1038.9,772.9,1038.9C773,1038.9,773,1038.9,772.9,1038.9L772.9,1038.9z"/>
			<g>
				<path id="H_1_" class="st2" d="M787.8,1046c-0.3,0-0.6-0.2-0.6-0.5l0,0v-0.6c-0.9,1-2.1,1.6-3.4,1.5c-2.5,0-4.5-2.1-4.6-4.6
					v-5.8c0-0.3,0.3-0.6,0.6-0.6s0.6,0.3,0.6,0.6v5.8c0,1.9,1.5,3.4,3.4,3.4s3.4-1.5,3.4-3.4l0,0v-5.8c0-0.3,0.3-0.6,0.6-0.6
					s0.6,0.3,0.6,0.6v9.5C788.4,1045.7,788.1,1046,787.8,1046L787.8,1046L787.8,1046z"/>
			</g>
			<g>
				<path id="K" class="st2" d="M793.2,1046.1c-1.1-0.1-2-1-2-2.1v-11.7c0-0.3,0.3-0.6,0.6-0.6s0.6,0.3,0.6,0.6v11.7
					c0,1.3,1.4,0.5,1.4,1.4C793.8,1045.8,793.5,1046.1,793.2,1046.1L793.2,1046.1z"/>
			</g>
			<g>
				<path id="K_1_" class="st2" d="M797.6,1046.1c-1.1-0.1-2-1-2-2.1v-11.7c0-0.3,0.3-0.6,0.6-0.6s0.6,0.3,0.6,0.6v11.7
					c0,1.3,1.4,0.5,1.4,1.4C798.2,1045.8,797.9,1046.1,797.6,1046.1L797.6,1046.1z"/>
			</g>
			<g>
				<path id="J_1_" class="st2" d="M809,1041.2h-8.3c0.2,2.3,1.7,3.9,3.8,3.9c1.1,0,2.2-0.5,2.9-1.4c0.1-0.2,0.3-0.3,0.5-0.3
					c0.3,0,0.6,0.2,0.6,0.5c0,0.2,0,0.2-0.4,0.7c-0.9,1-2.3,1.6-3.7,1.6c-3.2,0-5-2.6-5-5.7c0-3,1.8-5.6,5-5.6s5,2.7,5,5.6
					C809.5,1041,809.3,1041.2,809,1041.2L809,1041.2z M804.5,1036.2c-2.4,0-3.7,1.8-3.8,3.9h7.7
					C808.2,1037.8,806.7,1036.2,804.5,1036.2z"/>
			</g>
			<g>
				<path id="L" class="st2" d="M815.6,1046H815c-1.1,0.2-2.2-0.6-2.4-1.7c0-0.2,0-0.4,0-0.6v-7.1h-1c-0.3,0-0.6-0.3-0.6-0.6
					c0-0.3,0.3-0.6,0.6-0.6h1v-3.1c0-0.3,0.3-0.6,0.6-0.6l0,0c0.3,0,0.6,0.2,0.6,0.5l0,0v3.1h1.8c0.3,0,0.6,0.3,0.6,0.6
					c0,0.3-0.3,0.6-0.6,0.6h-1.8v7.1c0,1,0.3,1.2,1.2,1.2h0.6c0.3,0,0.6,0.3,0.6,0.6C816.2,1045.7,815.9,1046,815.6,1046z"/>
			</g>
			<g>
				<path id="M" class="st2" d="M818.5,1033.4c-0.6,0-1.1-0.5-1.1-1.1s0.5-1.1,1.1-1.1s1.1,0.5,1.1,1.1
					C819.7,1032.9,819.2,1033.4,818.5,1033.4C818.6,1033.4,818.5,1033.4,818.5,1033.4z M818.5,1046c-0.3,0-0.6-0.2-0.6-0.5l0,0v-9.5
					c0-0.3,0.2-0.6,0.5-0.6l0,0c0.3,0,0.6,0.2,0.6,0.5l0,0v9.5C819.1,1045.7,818.9,1046,818.5,1046
					C818.6,1046,818.6,1046,818.5,1046z"/>
			</g>
			<g>
				<path id="N" class="st2" d="M830.5,1046c-0.3,0-0.6-0.2-0.6-0.5l0,0v-5.8c0-1.9-1.5-3.4-3.4-3.4s-3.4,1.5-3.4,3.4l0,0v5.8
					c0,0.3-0.3,0.6-0.6,0.6s-0.6-0.3-0.6-0.6v-9.5c0-0.3,0.3-0.6,0.6-0.6s0.6,0.3,0.6,0.6v0.6c1.7-1.9,4.6-2.1,6.4-0.4
					c1,0.9,1.5,2.1,1.5,3.4v5.8C831.1,1045.7,830.8,1046,830.5,1046L830.5,1046L830.5,1046z"/>
			</g>
			<g>
				<path id="G_1_" class="st2" d="M843.2,1046.3c-3.2,0-5-2.6-5-5.7c0-3,1.8-5.6,5-5.6s5,2.6,5,5.6
					C848.2,1043.7,846.4,1046.3,843.2,1046.3z M843.2,1036.2c-2.4,0-3.9,1.9-3.9,4.5s1.5,4.5,3.9,4.5s3.9-1.9,3.9-4.5
					S845.6,1036.2,843.2,1036.2z"/>
			</g>
			<path class="st2" d="M854.2,1032.9h-0.6c-0.5,0-0.9,0.4-0.9,0.9v1.6h1.5c0.3,0,0.6,0.2,0.6,0.5l0,0c0,0.3-0.2,0.6-0.5,0.6l0,0
				h-1.5v8.9c0,0.3-0.2,0.6-0.5,0.6l0,0c-0.3,0-0.5-0.2-0.6-0.5c0,0,0,0,0-0.1v-8.9h-1.4c-0.3,0-0.6-0.3-0.6-0.6
				c0-0.3,0.3-0.6,0.6-0.6h1.4v-1.6c0-1.1,0.9-2,2-2h0.6c0.3,0,0.6,0.2,0.6,0.6l0,0C854.8,1032.6,854.6,1032.9,854.2,1032.9
				C854.3,1032.9,854.3,1032.9,854.2,1032.9L854.2,1032.9z"/>
			<g>
				<path id="L_1_" class="st2" d="M865.3,1046h-0.6c-1.1,0.2-2.2-0.6-2.4-1.7c0-0.2,0-0.4,0-0.6v-7.1h-1c-0.3,0-0.6-0.3-0.6-0.6
					c0-0.3,0.3-0.6,0.6-0.6h1v-3.1c0-0.3,0.3-0.6,0.6-0.6l0,0c0.3,0,0.6,0.2,0.6,0.5l0,0v3.1h1.8c0.3,0,0.6,0.3,0.6,0.6
					c0,0.3-0.3,0.6-0.6,0.6h-1.8v7.1c0,1,0.3,1.2,1.2,1.2h0.6c0.3,0,0.6,0.3,0.6,0.6C865.9,1045.7,865.6,1046,865.3,1046z"/>
			</g>
			<path class="st2" d="M876.2,1046c-0.3,0-0.6-0.2-0.6-0.5l0,0v-5.8c0-1.9-1.5-3.4-3.4-3.4s-3.4,1.5-3.4,3.4l0,0v5.8
				c0,0.3-0.3,0.6-0.6,0.6s-0.6-0.3-0.6-0.6v-13.1c0-0.3,0.3-0.6,0.6-0.6s0.6,0.3,0.6,0.6v4.3c0.9-1,2.1-1.6,3.4-1.5
				c2.5,0,4.5,2.1,4.6,4.6v5.8C876.8,1045.7,876.6,1046,876.2,1046L876.2,1046L876.2,1046z"/>
			<g>
				<path id="J_2_" class="st2" d="M888.5,1041.2h-8.3c0.2,2.3,1.7,3.9,3.8,3.9c1.1,0,2.2-0.5,2.9-1.4c0.1-0.2,0.3-0.3,0.5-0.3
					c0.3,0,0.6,0.2,0.6,0.5c0,0.2,0,0.2-0.4,0.7c-0.9,1-2.3,1.6-3.7,1.6c-3.2,0-5-2.6-5-5.7c0-3,1.8-5.6,5-5.6s5,2.7,5,5.6
					C889,1041,888.8,1041.2,888.5,1041.2L888.5,1041.2z M884,1036.2c-2.4,0-3.7,1.8-3.8,3.9h7.7
					C887.7,1037.8,886.2,1036.2,884,1036.2z"/>
			</g>
			<path class="st2" d="M906.6,1046c-0.2,0-0.4-0.1-0.5-0.3l-1.3-3.1h-7.2l-1.3,3.1c-0.1,0.3-0.5,0.4-0.7,0.3s-0.3-0.3-0.3-0.5
				c0-0.1,0-0.2,0-0.3l5.4-13.1c0.1-0.2,0.3-0.4,0.6-0.4c0.2,0,0.4,0.2,0.5,0.4l5.4,13.1c0,0.1,0,0.2,0,0.3
				C907.2,1045.7,906.9,1046,906.6,1046L906.6,1046L906.6,1046z M901.2,1033.8l-3.1,7.6h6.3L901.2,1033.8z"/>
			<g>
				<path id="L_2_" class="st2" d="M912,1046h-0.6c-1.1,0.2-2.2-0.6-2.4-1.7c0-0.2,0-0.4,0-0.6v-7.1h-1c-0.3,0-0.6-0.3-0.6-0.6
					c0-0.3,0.3-0.6,0.6-0.6h1v-3.1c0-0.3,0.3-0.6,0.6-0.6l0,0c0.3,0,0.6,0.2,0.6,0.5l0,0v3.1h1.8c0.3,0,0.6,0.3,0.6,0.6
					c0,0.3-0.3,0.6-0.6,0.6h-1.8v7.1c0,1,0.3,1.2,1.2,1.2h0.6c0.3,0,0.6,0.3,0.6,0.6C912.6,1045.7,912.4,1046,912,1046z"/>
			</g>
			<g>
				<path id="G_2_" class="st2" d="M919,1046.3c-3.2,0-5-2.6-5-5.7c0-3,1.8-5.6,5-5.6s5,2.6,5,5.6
					C924,1043.7,922.2,1046.3,919,1046.3z M919,1036.2c-2.4,0-3.9,1.9-3.9,4.5s1.5,4.5,3.9,4.5s3.9-1.9,3.9-4.5
					S921.4,1036.2,919,1036.2z"/>
			</g>
			<path class="st2" d="M939.4,1046c-0.3,0-0.6-0.2-0.6-0.5l0,0v-6.7c0-1.4-1.1-2.6-2.5-2.6s-2.6,1.1-2.6,2.5v6.7
				c0,0.3-0.2,0.6-0.5,0.6l0,0c-0.3,0-0.6-0.2-0.6-0.5l0,0v-6.7c0-1.4-1.2-2.5-2.6-2.5c-1.4,0-2.5,1.1-2.5,2.5v6.7
				c0,0.3-0.3,0.6-0.6,0.6s-0.6-0.3-0.6-0.6v-9.5c0-0.3,0.3-0.6,0.6-0.6s0.6,0.3,0.6,0.6v0.1c0.7-0.7,1.6-1,2.5-1
				c1.1,1.7,3.4,2.2,5.1,1.1c0.4-0.3,0.8-0.7,1.1-1.1c2,0,3.7,1.6,3.7,3.6l0,0v6.7C940,1045.7,939.7,1046,939.4,1046L939.4,1046
				L939.4,1046z"/>
			<g>
				<path id="M_1_" class="st2" d="M943.2,1033.4c-0.6,0-1.1-0.5-1.1-1.1s0.5-1.1,1.1-1.1s1.1,0.5,1.1,1.1
					C944.4,1032.9,943.9,1033.4,943.2,1033.4L943.2,1033.4z M943.2,1046c-0.3,0-0.6-0.2-0.6-0.5l0,0v-9.5c0-0.3,0.2-0.6,0.5-0.6l0,0
					c0.3,0,0.6,0.2,0.6,0.5l0,0v9.5C943.8,1045.7,943.6,1046,943.2,1046C943.3,1046,943.2,1046,943.2,1046z"/>
			</g>
			<g>
				<path id="I_1_" class="st2" d="M954.8,1044.8c-0.9,1-2.2,1.6-3.6,1.5c-3.2,0-5-2.6-5-5.7c0-3,1.8-5.6,5-5.6
					c1.4,0,2.7,0.5,3.6,1.5c0.1,0.1,0.2,0.2,0.2,0.4c0,0.3-0.3,0.6-0.6,0.6c-0.2,0-0.3-0.1-0.4-0.2c-0.7-0.8-1.7-1.2-2.7-1.2
					c-2.4,0-3.9,1.9-3.9,4.5s1.5,4.5,3.9,4.5c1,0,2-0.4,2.7-1.2c0.1-0.1,0.3-0.2,0.4-0.2c0.3,0,0.6,0.3,0.6,0.6
					C954.9,1044.5,954.9,1044.7,954.8,1044.8L954.8,1044.8z"/>
			</g>
			<path class="st2" d="M966.4,1046.3c-1.8,0-3.4-0.6-4.8-1.8c-0.1-0.1-0.2-0.2-0.2-0.4c0-0.3,0.3-0.6,0.6-0.6
				c0.2,0,0.2,0.1,0.6,0.4c1.1,0.8,2.4,1.2,3.7,1.2c2.5,0,4-0.9,4-2.7c0-4.7-8.5-2.1-8.5-7.6c0-2.4,2.1-3.5,4.7-3.5
				c1.7,0,3.2,0.7,4.4,1.9c0.2,0.2,0.1,0.6-0.1,0.8c-0.1,0.1-0.2,0.1-0.4,0.1c-0.3,0-0.3-0.1-0.6-0.4c-0.9-0.8-2.1-1.3-3.3-1.2
				c-2.4,0-3.5,0.9-3.5,2.4c0,4.3,8.5,1.8,8.5,7.6C971.5,1045.2,969,1046.3,966.4,1046.3L966.4,1046.3z"/>
			<g>
				<path id="I_2_" class="st2" d="M981.6,1044.8c-0.9,1-2.2,1.6-3.6,1.5c-3.2,0-5-2.6-5-5.7c0-3,1.8-5.6,5-5.6
					c1.4,0,2.7,0.5,3.6,1.5c0.1,0.1,0.2,0.2,0.2,0.4c0,0.3-0.3,0.6-0.6,0.6c-0.2,0-0.3-0.1-0.4-0.2c-0.7-0.8-1.7-1.2-2.7-1.2
					c-2.4,0-3.9,1.9-3.9,4.5s1.5,4.5,3.9,4.5c1,0,2-0.4,2.7-1.2c0.1-0.1,0.3-0.2,0.4-0.2c0.3,0,0.6,0.3,0.6,0.6
					C981.8,1044.5,981.7,1044.7,981.6,1044.8L981.6,1044.8z"/>
			</g>
			<g>
				<path id="M_2_" class="st2" d="M984.8,1033.4c-0.6,0-1.1-0.5-1.1-1.1s0.5-1.1,1.1-1.1s1.1,0.5,1.1,1.1
					C985.9,1032.9,985.4,1033.4,984.8,1033.4L984.8,1033.4z M984.8,1046c-0.3,0-0.6-0.2-0.6-0.5l0,0v-9.5c0-0.3,0.2-0.6,0.5-0.6l0,0
					c0.3,0,0.6,0.2,0.6,0.5l0,0v9.5C985.3,1045.7,985.1,1046,984.8,1046L984.8,1046z"/>
			</g>
			<path class="st2" d="M997.2,1041.2h-8.3c0.2,2.3,1.7,3.9,3.8,3.9c1.1,0,2.2-0.5,2.9-1.4c0.1-0.2,0.3-0.3,0.5-0.3
				c0.3,0,0.6,0.2,0.6,0.5c0,0.2,0,0.2-0.4,0.7c-0.9,1-2.3,1.6-3.7,1.6c-3.2,0-5-2.6-5-5.7c0-3,1.8-5.6,5-5.6s5,2.7,5,5.6
				C997.7,1041,997.5,1041.2,997.2,1041.2L997.2,1041.2z M992.7,1036.2c-2.4,0-3.7,1.8-3.8,3.9h7.7
				C996.4,1037.8,994.9,1036.2,992.7,1036.2z"/>
			<g>
				<path id="N_1_" class="st2" d="M1008.7,1046c-0.3,0-0.6-0.2-0.6-0.5l0,0v-5.8c0-1.9-1.5-3.4-3.4-3.4s-3.4,1.5-3.4,3.4l0,0v5.8
					c0,0.3-0.3,0.6-0.6,0.6s-0.6-0.3-0.6-0.6v-9.5c0-0.3,0.3-0.6,0.6-0.6s0.6,0.3,0.6,0.6v0.6c1.7-1.9,4.6-2.1,6.4-0.4
					c1,0.9,1.5,2.1,1.5,3.4v5.8C1009.2,1045.7,1009,1046,1008.7,1046L1008.7,1046L1008.7,1046z"/>
			</g>
			<g>
				<path id="L_3_" class="st2" d="M1015.6,1046h-0.6c-1.1,0.2-2.2-0.6-2.4-1.7c0-0.2,0-0.4,0-0.6v-7.1h-1c-0.3,0-0.6-0.3-0.6-0.6
					c0-0.3,0.3-0.6,0.6-0.6h1v-3.1c0-0.3,0.3-0.6,0.6-0.6l0,0c0.3,0,0.6,0.2,0.6,0.5l0,0v3.1h1.8c0.3,0,0.6,0.3,0.6,0.6
					c0,0.3-0.3,0.6-0.6,0.6h-1.8v7.1c0,1,0.3,1.2,1.2,1.2h0.6c0.3,0,0.6,0.3,0.6,0.6C1016.1,1045.7,1015.9,1046,1015.6,1046z"/>
			</g>
			<g>
				<path id="M_3_" class="st2" d="M1018.5,1033.4c-0.6,0-1.1-0.5-1.1-1.1s0.5-1.1,1.1-1.1s1.1,0.5,1.1,1.1
					C1019.7,1032.9,1019.2,1033.4,1018.5,1033.4L1018.5,1033.4z M1018.5,1046c-0.3,0-0.6-0.2-0.6-0.5l0,0v-9.5
					c0-0.3,0.2-0.6,0.5-0.6l0,0c0.3,0,0.6,0.2,0.6,0.5l0,0v9.5C1019.1,1045.7,1018.9,1046,1018.5,1046L1018.5,1046z"/>
			</g>
			<g>
				<path id="F_1_" class="st2" d="M1025.3,1046.4c-1.2,0-3.2-0.4-3.9-1.6c-0.1-0.1-0.1-0.2-0.1-0.3c0-0.3,0.2-0.6,0.5-0.6
					c0.2,0,0.4,0.1,0.5,0.3c0.8,0.8,1.9,1.2,3,1.1c1.9,0,2.9-0.6,2.9-1.9c0-3-6.6-1.4-6.6-5.4c0-2,2-2.8,3.8-2.8
					c1.2,0,2.5,0.4,3.4,1.2c0.1,0.1,0.2,0.2,0.2,0.4c0,0.3-0.3,0.6-0.6,0.6c-0.1,0-0.3-0.1-0.4-0.2c-0.7-0.6-1.7-0.9-2.6-0.8
					c-1.8,0-2.7,0.7-2.7,1.7c0,2.8,6.6,1.3,6.6,5.4C1029.3,1045.6,1027.3,1046.4,1025.3,1046.4L1025.3,1046.4z"/>
			</g>
			<g>
				<path id="L_4_" class="st2" d="M1035.1,1046h-0.6c-1.1,0.2-2.2-0.6-2.4-1.7c0-0.2,0-0.4,0-0.6v-7.1h-1c-0.3,0-0.6-0.3-0.6-0.6
					c0-0.3,0.3-0.6,0.6-0.6h1v-3.1c0-0.3,0.3-0.6,0.6-0.6l0,0c0.3,0,0.6,0.2,0.6,0.5l0,0v3.1h1.8c0.3,0,0.6,0.3,0.6,0.6
					c0,0.3-0.3,0.6-0.6,0.6h-1.8v7.1c0,1,0.3,1.2,1.2,1.2h0.6c0.3,0,0.6,0.3,0.6,0.6C1035.6,1045.7,1035.4,1046,1035.1,1046z"/>
			</g>
			<g>
				<path id="F_2_" class="st2" d="M1040.8,1046.4c-1.2,0-3.2-0.4-3.9-1.6c-0.1-0.1-0.1-0.2-0.1-0.3c0-0.3,0.2-0.6,0.5-0.6
					c0.2,0,0.4,0.1,0.5,0.3c0.8,0.8,1.9,1.2,3,1.1c1.9,0,2.9-0.6,2.9-1.9c0-3-6.6-1.4-6.6-5.4c0-2,2-2.8,3.8-2.8
					c1.2,0,2.5,0.4,3.4,1.2c0.1,0.1,0.2,0.2,0.2,0.4c0,0.3-0.3,0.6-0.6,0.6c-0.1,0-0.3-0.1-0.4-0.2c-0.7-0.6-1.7-0.9-2.6-0.8
					c-1.8,0-2.7,0.7-2.7,1.7c0,2.8,6.6,1.3,6.6,5.4C1044.9,1045.6,1042.9,1046.4,1040.8,1046.4L1040.8,1046.4z"/>
			</g>
		</g>
	</g>
	<g>
		<g>
			<path class="st2" d="M82.7,40.5l-9.9,37.4c-0.1,1.3-1.2,2.2-2.4,2.1l0,0c-1.3,0-2.4-0.9-2.6-2.1l-8.1-28.7l-8,28.7
				c-0.2,1.2-1.3,2.1-2.5,2.1c-1.3,0.1-2.4-0.8-2.5-2.1l-9.9-37.4c-0.1-0.3-0.1-0.6-0.1-0.8c0.1-1.4,1.3-2.4,2.7-2.3l0,0
				c1.1,0,2.1,0.8,2.4,1.9l7.6,28.6l7.9-28.4c0.3-1.4,1.6-2.3,3-2.1c1,0.2,1.9,1,2.1,2.1l7.9,28.4l7.6-28.6c0.3-1.1,1.3-1.9,2.5-2
				c1.4-0.1,2.6,1,2.6,2.5l0,0C82.8,39.9,82.7,40.2,82.7,40.5z M112.1,66.7H89.9c0.8,5.6,4.4,9.2,9.7,9.2c2.7,0.1,5.4-1.1,7.1-3.1
				c0.4-0.6,1.1-0.9,1.9-1c1.4,0,2.6,1.2,2.7,2.6c0,0.7-0.2,1.3-1.4,2.5c-2.8,2.6-6.4,4.1-10.3,4c-9.7,0-15.1-8-15.1-17
				C84.5,55,89.9,47,99.6,47c9.8,0,15,8,15,16.9C114.7,65.5,113.6,66.6,112.1,66.7L112.1,66.7z M99.6,52.2c-5.6,0-8.9,4.1-9.7,9.3
				h19.4C108.5,55.8,104.9,52.2,99.6,52.2z M158.6,80c-1.4,0.1-2.6-1-2.6-2.4v-0.1V59.7h-19.8v17.8c0,1.4-1.2,2.5-2.7,2.5
				c-1.4,0-2.5-1.1-2.5-2.5V39.8c0-1.4,1.2-2.5,2.7-2.5c1.4,0,2.5,1.1,2.5,2.5v14.8H156V39.9c0-1.4,1.2-2.6,2.6-2.6s2.6,1.2,2.6,2.6
				v37.6C161.2,78.8,160,80,158.6,80L158.6,80L158.6,80z M196.8,80c-2.3,0-4.4-1.3-5.3-3.4c-2.7,2.9-6.6,4.6-10.6,4.4
				c-9.8,0-15.1-8-15.1-17s5.4-16.9,15.1-16.9c3.7-0.1,7.3,1.3,9.9,4v-0.2c-0.1-1.4,0.9-2.6,2.2-2.7c0.1,0,0.2,0,0.3,0
				c1.3-0.1,2.5,0.8,2.6,2.2c0,0.1,0,0.2,0,0.4V74c-0.1,0.5,0.3,1,0.8,1.1c1.4,0,2.6,1.1,2.6,2.5C199.4,78.9,198.2,80,196.8,80
				L196.8,80z M180.9,52.2c-6,0-9.9,4.7-9.9,11.8c0,7.2,3.9,11.9,9.9,11.9c6.1,0,9.9-4.7,9.9-11.9C190.8,56.9,187,52.2,180.9,52.2z
				 M227.1,51.7L216.2,78c-0.3,1.2-1.4,2-2.6,2c-1.2-0.1-2.2-0.9-2.6-2l-10.9-26.3c-0.1-0.3-0.2-0.7-0.2-1.1
				c0.1-1.4,1.2-2.5,2.6-2.5c1,0,1.9,0.6,2.3,1.6l8.8,21l8.8-21c0.5-1.3,2-2,3.4-1.4c0.9,0.4,1.6,1.3,1.6,2.3
				C227.3,50.9,227.2,51.3,227.1,51.7L227.1,51.7z M256.8,66.7h-22.2c0.8,5.6,4.4,9.2,9.7,9.2c2.7,0.1,5.4-1.1,7.1-3.1
				c0.4-0.6,1.1-0.9,1.9-1c1.4,0,2.6,1.2,2.7,2.6c0,0.7-0.2,1.3-1.4,2.5c-2.8,2.6-6.4,4.1-10.3,4c-9.7,0-15.1-8-15.1-17
				c0-8.9,5.4-16.9,15.1-16.9c9.8,0,15,8,15,16.9C259.4,65.4,258.3,66.6,256.8,66.7C256.9,66.7,256.9,66.7,256.8,66.7L256.8,66.7z
				 M244.4,52.2c-5.6,0-8.9,4.1-9.7,9.3h19.4C253.2,55.8,249.6,52.2,244.4,52.2z M290.8,80h-12.4c-1.4,0-2.5-1.1-2.6-2.5V39.9
				c0.1-1.4,1.2-2.6,2.6-2.6h12.4c12.4,0,16.4,10.2,16.4,21.3C307.2,69.7,303.2,80,290.8,80L290.8,80z M290.8,42.4h-9.9v32.5h9.9
				c7.7,0,11.3-5.7,11.3-16.3C302.1,48.1,298.5,42.4,290.8,42.4z"/>
			<g>
				<path id="O" class="st2" d="M338.5,66.7h-22.2c0.8,5.6,4.4,9.2,9.7,9.2c2.7,0.1,5.4-1.1,7.1-3.1c0.4-0.6,1.1-0.9,1.9-1
					c1.4,0,2.6,1.2,2.7,2.6c0,0.7-0.2,1.3-1.4,2.5c-2.8,2.6-6.4,4.1-10.3,4c-9.7,0-15.1-8-15.1-17c0-8.9,5.4-16.9,15.1-16.9
					c9.8,0,15,8,15,16.9C341.1,65.5,340,66.6,338.5,66.7L338.5,66.7z M326,52.2c-5.6,0-8.9,4.1-9.7,9.3h19.4
					C334.9,55.8,331.3,52.2,326,52.2z"/>
			</g>
			<g>
				<path id="P" class="st2" d="M369.5,76.5c-2.7,3-6.7,4.7-10.7,4.6c-9.7,0-15.1-7.9-15.1-17c0-9,5.4-16.9,15.1-16.9
					c4.1-0.1,8,1.5,10.7,4.6c0.4,0.5,0.7,1.1,0.7,1.7c-0.1,1.4-1.3,2.5-2.7,2.6c-0.7,0-1.4-0.3-1.9-0.8c-1.7-2-4.3-3-6.9-2.9
					c-6,0-9.9,4.7-9.9,11.8c0,7.2,3.9,11.9,9.9,11.9c2.6,0.1,5.1-1,6.9-2.9c0.5-0.6,1.1-0.9,1.9-0.9c1.4-0.1,2.6,1,2.7,2.5
					C370.3,75.3,370,75.9,369.5,76.5L369.5,76.5z"/>
			</g>
			<g>
				<path id="Q" class="st2" d="M388,81c-9.7,0-15.1-7.9-15.1-17c0-9,5.4-16.9,15.1-16.9S403.1,55,403.1,64
					C403.1,73.1,397.7,81,388,81z M388,52.2c-6,0-9.9,4.7-9.9,11.8c0,7.2,3.9,11.9,9.9,11.9c6.1,0,9.9-4.7,9.9-11.9
					C397.9,56.9,394.1,52.2,388,52.2z"/>
			</g>
			<g>
				<path id="R" class="st2" d="M446,80c-1.4,0-2.5-1-2.5-2.4v-0.1V58.6c0.1-3.5-2.7-6.4-6.2-6.4c-3.5-0.1-6.4,2.7-6.4,6.2v0.1v18.9
					c0.1,1.4-1,2.5-2.3,2.6c-0.1,0-0.2,0-0.3,0c-1.3,0.1-2.5-1-2.5-2.3c0-0.1,0-0.1,0-0.2V58.6c0-3.5-2.9-6.3-6.4-6.3
					s-6.3,2.8-6.3,6.3v18.9c0,1.4-1,2.5-2.4,2.6c-0.1,0-0.1,0-0.2,0c-1.4,0-2.5-1-2.5-2.4v-0.1V50.7c0-1.5,1.2-2.6,2.7-2.6
					c0.8,0,1.6,0.4,2.1,1.1c2-1.4,4.3-2.1,6.7-2.1c3.5,0,6.8,1.5,8.9,4.3c2.1-2.7,5.4-4.3,8.9-4.3c6.3,0,11.5,5.1,11.5,11.4l0,0
					v18.9c0,1.4-1,2.5-2.4,2.6C446.1,80,446,80,446,80L446,80z"/>
			</g>
			<g>
				<path id="R_1_" class="st2" d="M492.3,80c-1.4,0-2.5-1-2.5-2.4v-0.1V58.6c0.1-3.5-2.7-6.4-6.2-6.4c-3.5-0.1-6.4,2.7-6.4,6.2v0.1
					v18.9c0.1,1.4-1,2.5-2.3,2.6c-0.1,0-0.2,0-0.3,0c-1.3,0.1-2.5-1-2.5-2.3c0-0.1,0-0.1,0-0.2V58.6c0-3.5-2.9-6.3-6.4-6.3
					s-6.3,2.8-6.3,6.3v18.9c0,1.4-1,2.5-2.4,2.6c-0.1,0-0.1,0-0.2,0c-1.4,0-2.5-1-2.5-2.4v-0.1V50.7c0-1.5,1.2-2.6,2.7-2.6
					c0.8,0,1.6,0.4,2.1,1.1c2-1.4,4.3-2.1,6.7-2.1c3.5,0,6.8,1.5,8.9,4.3c2.1-2.7,5.4-4.3,8.9-4.3c6.3,0,11.5,5.1,11.5,11.4l0,0
					v18.9c0,1.4-1,2.5-2.4,2.6C492.5,80,492.4,80,492.3,80L492.3,80z"/>
			</g>
			<path class="st2" d="M503.3,43.3c-2.4,0-4.3-1.9-4.3-4.3c0-2.4,1.9-4.3,4.3-4.3s4.3,1.9,4.3,4.3l0,0
				C507.6,41.3,505.7,43.3,503.3,43.3L503.3,43.3z M503.3,80c-1.4,0.1-2.6-1-2.6-2.4v-0.1V50.7c0-1.4,1.1-2.6,2.5-2.6
				c0.1,0,0.1,0,0.2,0c1.4,0,2.5,1.1,2.5,2.4c0,0.1,0,0.1,0,0.2v26.8c0.1,1.3-1,2.5-2.3,2.5C503.4,80,503.4,80,503.3,80z"/>
			<g>
				<path id="S" class="st2" d="M522.2,81c-3.3,0-8.8-1-11.6-4.5c-0.9-1.2-0.7-2.8,0.5-3.7c0.5-0.4,1.1-0.6,1.7-0.5
					c0.7,0,1.4,0.4,1.9,1c1.9,2,4.9,2.6,7.6,2.6c5.4,0,7.1-1.9,7.1-4.6c0-7.7-18.3-2.9-18.3-15.3c0-6.5,6.1-8.9,11.8-8.9
					c3.2,0,10.9,1.6,10.9,5c0,1.4-1.1,2.6-2.5,2.7c-0.7-0.1-1.4-0.3-2-0.8c-1.6-1.4-4-1.8-6.4-1.8c-5,0-6.7,1.9-6.7,3.8
					c0,7.1,18.4,2.5,18.4,15.3C534.5,78.4,528.6,81,522.2,81L522.2,81z"/>
			</g>
			<g>
				<path id="S_1_" class="st2" d="M548.3,81c-3.3,0-8.8-1-11.6-4.5c-0.9-1.2-0.7-2.8,0.5-3.7c0.5-0.4,1.1-0.6,1.7-0.5
					c0.7,0,1.4,0.4,1.9,1c1.9,2,4.9,2.6,7.6,2.6c5.4,0,7.1-1.9,7.1-4.6c0-7.7-18.3-2.9-18.3-15.3c0-6.5,6.1-8.9,11.8-8.9
					c3.2,0,10.9,1.6,10.9,5c0,1.4-1.1,2.6-2.5,2.7c-0.7-0.1-1.4-0.3-2-0.8c-1.6-1.4-4-1.8-6.4-1.8c-5,0-6.7,1.9-6.7,3.8
					c0,7.1,18.4,2.5,18.4,15.3C560.6,78.4,554.7,81,548.3,81L548.3,81z"/>
			</g>
			<path class="st2" d="M567.2,43.3c-2.4,0-4.3-1.9-4.3-4.3c0-2.4,1.9-4.3,4.3-4.3s4.3,1.9,4.3,4.3l0,0
				C571.5,41.3,569.6,43.3,567.2,43.3L567.2,43.3z M567.2,80c-1.4,0.1-2.6-1-2.6-2.4v-0.1V50.7c0-1.4,1.1-2.6,2.5-2.6
				c0.1,0,0.1,0,0.2,0c1.4,0,2.5,1.1,2.5,2.4c0,0.1,0,0.1,0,0.2v26.8c0.1,1.3-1,2.5-2.3,2.5C567.3,80,567.2,80,567.2,80z"/>
			<g>
				<path id="Q_1_" class="st2" d="M589.7,81c-9.7,0-15.1-7.9-15.1-17c0-9,5.4-16.9,15.1-16.9S604.8,55,604.8,64
					C604.8,73.1,599.4,81,589.7,81z M589.7,52.2c-6,0-9.9,4.7-9.9,11.8c0,7.2,3.9,11.9,9.9,11.9c6.1,0,9.9-4.7,9.9-11.9
					C599.6,56.9,595.8,52.2,589.7,52.2z"/>
			</g>
			<path class="st2" d="M634.3,80c-1.3,0.1-2.5-1-2.5-2.3c0-0.1,0-0.1,0-0.2V60.8c0-4.7-3.8-8.6-8.5-8.6s-8.6,3.8-8.6,8.5l0,0v16.6
				c0.1,1.4-1,2.6-2.5,2.6c-0.1,0-0.1,0-0.2,0c-1.4,0-2.5-1.1-2.5-2.4c0-0.1,0-0.1,0-0.2V50.7c-0.1-1.3,0.9-2.4,2.2-2.5
				c0.1,0,0.2,0,0.3,0c1.2-0.1,2.3,0.8,2.6,2c5.9-4.7,14.5-3.8,19.3,2.1c1.9,2.4,3,5.4,3,8.5v16.6c0.1,1.4-1,2.5-2.3,2.6
				C634.5,80,634.4,80,634.3,80L634.3,80z"/>
			<g>
				<path id="T" class="st2" d="M668.6,66.7h-22.2c0.8,5.6,4.4,9.2,9.7,9.2c2.7,0.1,5.4-1.1,7.1-3.1c0.4-0.6,1.1-0.9,1.9-1
					c1.4,0,2.6,1.2,2.7,2.6c0,0.7-0.2,1.3-1.4,2.5c-2.8,2.6-6.4,4.1-10.3,4c-9.7,0-15.1-8-15.1-17c0-8.9,5.4-16.9,15.1-16.9
					c9.8,0,15,8,15,16.9C671.2,65.5,670.1,66.6,668.6,66.7L668.6,66.7L668.6,66.7z M656.1,52.2c-5.6,0-8.9,4.1-9.7,9.3h19.4
					C665,55.8,661.4,52.2,656.1,52.2L656.1,52.2z"/>
			</g>
			<path class="st2" d="M701.4,79.9c-1.3,0.1-2.5-0.9-2.6-2.3c0-0.1,0-0.2,0-0.2c-2.7,2.4-6.3,3.7-9.9,3.6c-9.7,0-15.1-7.9-15.1-17
				c0-9,5.4-16.9,15.1-16.9c3.7-0.1,7.3,1.3,9.9,3.9V39.9c0-1.4,1.2-2.6,2.6-2.6c1.4,0,2.5,1.1,2.6,2.5v37.6c0,1.3-1,2.5-2.3,2.5
				C701.5,79.9,701.4,79.9,701.4,79.9L701.4,79.9z M688.9,52.2c-6,0-9.9,4.7-9.9,11.8c0,7.2,3.9,11.9,9.9,11.9
				c6.1,0,9.9-4.7,9.9-11.9C698.8,56.9,694.9,52.2,688.9,52.2z M733.5,81c-7.3,0-13.2-5.9-13.3-13.2c0-4.4,2.1-8.5,5.8-10.9
				c-2.7-2.2-4.3-5.5-4.3-9c0-6.5,5.2-11.7,11.7-11.7s11.7,5.2,11.7,11.7c0,3.5-1.5,6.8-4.3,9c6,4.1,7.6,12.3,3.5,18.4
				C742,78.9,737.9,81,733.5,81L733.5,81z M733.5,59.6c-4.5,0-8.2,3.6-8.2,8.1s3.6,8.2,8.1,8.2s8.2-3.6,8.2-8.1S738,59.7,733.5,59.6
				z M733.5,41.4c-3.6,0-6.6,3-6.6,6.6s3,6.6,6.6,6.6l0,0c3.6,0,6.6-3,6.6-6.6C740.1,44.3,737.2,41.4,733.5,41.4z M761.4,80.6
				c-4.3,0-8.3-2.2-10.8-5.7c-0.3-0.4-0.4-0.9-0.4-1.4c0-1.4,1.2-2.5,2.6-2.5c1.1,0,1.6,0.4,2.5,1.6c1.5,1.8,3.8,2.9,6.2,2.9
				c4.1,0,8.3-3.8,8.3-9.2c0-5.5-4.2-9.2-8.3-9.2c-2.6-0.1-5,1.2-6.4,3.4c-0.4,0.9-1.4,1.4-2.3,1.4c-1.6,0-2.6-1-2.6-3v-19
				c0-1.4,1.2-2.5,2.6-2.5H771c1.4-0.1,2.5,0.9,2.6,2.3c0,0.1,0,0.2,0,0.3c0.1,1.3-1,2.5-2.3,2.5c-0.1,0-0.1,0-0.2,0h-15.8v11.2
				c1.9-1.1,4-1.7,6.2-1.6c7.4,0,13.4,6.2,13.4,14.3C774.8,74.3,768.7,80.6,761.4,80.6L761.4,80.6z M782.1,47.4
				c-3,0-5.5-2.8-5.5-6.2s2.5-6.1,5.5-6.1s5.5,2.7,5.5,6.1S785.1,47.4,782.1,47.4z M782.1,38.1c-1.6,0.2-2.7,1.6-2.5,3.1
				c-0.3,1.4,0.6,2.8,2,3.1s2.8-0.6,3.1-2c0.1-0.4,0.1-0.8,0-1.1C784.7,39.7,783.6,38.3,782.1,38.1L782.1,38.1z M796.6,36.4
				l-6.4,23.2c-0.1,0.7-0.7,1.1-1.4,1.1c-0.8,0-1.5-0.6-1.6-1.4l0,0c0-0.1,0-0.3,0-0.4l6.5-23.2c0.2-0.6,0.7-1.1,1.4-1.1
				c0.8,0,1.5,0.6,1.5,1.4C796.7,36.1,796.7,36.2,796.6,36.4L796.6,36.4z M801.6,60c-3,0-5.5-2.8-5.5-6.2s2.5-6.1,5.5-6.1
				s5.5,2.8,5.5,6.1C807.1,57.3,804.6,60,801.6,60z M801.6,50.7c-1.5,0.2-2.6,1.6-2.5,3.1c0,2.1,1.4,3.2,2.5,3.2s2.5-1.1,2.5-3.2
				C804.3,52.3,803.2,50.9,801.6,50.7z"/>
			<g>
				<path id="Q_2_" class="st2" d="M838.2,81c-9.7,0-15.1-7.9-15.1-17c0-9,5.4-16.9,15.1-16.9c9.7,0,15.1,7.9,15.1,16.9
					C853.2,73.1,847.8,81,838.2,81z M838.2,52.2c-6,0-9.9,4.7-9.9,11.8c0,7.2,3.9,11.9,9.9,11.9c6.1,0,9.9-4.7,9.9-11.9
					C848.1,56.9,844.2,52.2,838.2,52.2z"/>
			</g>
			<path class="st2" d="M867.7,53.2H865v24.2c0,1.4-1,2.5-2.4,2.5c-0.1,0-0.2,0-0.3,0c-1.3,0.1-2.5-1-2.5-2.3c0-0.1,0-0.1,0-0.2
				V53.2h-2.5c-1.4,0-2.5-1.1-2.5-2.6c0-1.4,1.1-2.5,2.5-2.5h2.5V44c0-3.8,3.1-6.8,6.9-6.8l0,0c1.4,0,2.6,1.1,2.6,2.5
				s-1.1,2.6-2.5,2.6h-0.1c-0.9,0-1.7,0.7-1.7,1.6V48h2.7c1.4-0.1,2.6,1,2.7,2.4c0.1,1.4-1,2.6-2.4,2.7
				C867.9,53.2,867.8,53.2,867.7,53.2L867.7,53.2z M895.8,80h-1c-5.7,0-7.9-3-7.9-7.9V53.2h-1.8c-1.4,0-2.6-1.1-2.6-2.5
				s1.1-2.6,2.5-2.6h1.8v-8.3c0-1.3,1-2.5,2.3-2.5c0.1,0,0.2,0,0.2,0c1.3-0.1,2.4,0.9,2.5,2.3c0,0.1,0,0.2,0,0.3v8.3h3.8
				c1.4,0,2.5,1.1,2.5,2.5c0,0,0,0,0,0.1c0.1,1.3-1,2.5-2.3,2.6c-0.1,0-0.1,0-0.2,0H892v19.4c0,1.7,0.6,2.3,2.3,2.3h1.5
				c1.4-0.1,2.5,1,2.6,2.4c0,0.1,0,0.1,0,0.2c0.1,1.3-1,2.5-2.3,2.6C895.9,80,895.9,80,895.8,80L895.8,80z M926.1,80
				c-1.3,0.1-2.5-1-2.5-2.3c0-0.1,0-0.1,0-0.2V60.8c0-4.7-3.8-8.6-8.5-8.6s-8.6,3.8-8.6,8.5l0,0v16.6c0.1,1.4-1,2.6-2.5,2.6
				c-0.1,0-0.1,0-0.2,0c-1.4,0-2.5-1.1-2.5-2.4c0-0.1,0-0.1,0-0.2V39.9c0-1.4,1.2-2.6,2.6-2.6c1.4,0,2.5,1.1,2.6,2.5v10.4
				c2.3-2.1,5.4-3.2,8.5-3.1c7.5,0.1,13.6,6.2,13.7,13.7v16.6c0.1,1.4-1,2.5-2.3,2.6C926.3,80,926.2,80,926.1,80L926.1,80z
				 M960.4,66.7h-22.2c0.8,5.6,4.4,9.2,9.7,9.2c2.7,0.1,5.4-1.1,7.1-3.1c0.4-0.6,1.1-0.9,1.9-1c1.4,0,2.6,1.2,2.7,2.6
				c0,0.7-0.2,1.3-1.4,2.5c-2.8,2.6-6.4,4.1-10.3,4c-9.7,0-15.1-8-15.1-17c0-8.9,5.4-16.9,15.1-16.9c9.8,0,15,8,15,16.9
				C963,65.4,961.9,66.6,960.4,66.7C960.5,66.7,960.4,66.7,960.4,66.7L960.4,66.7z M948,52.2c-5.6,0-8.9,4.1-9.7,9.3h19.4
				C956.8,55.8,953.2,52.2,948,52.2L948,52.2z"/>
			<g>
				<path id="U" class="st2" d="M82.7,101.7l-9.9,37.4c-0.1,1.3-1.2,2.2-2.4,2.1l0,0c-1.3,0-2.4-0.9-2.6-2.1l-8.1-28.7l-8,28.7
					c-0.2,1.2-1.3,2.1-2.5,2.1c-1.3,0.1-2.4-0.8-2.5-2.1l-9.9-37.4c-0.1-0.3-0.1-0.6-0.1-0.8c0.1-1.4,1.3-2.4,2.7-2.3l0,0
					c1.1,0,2.1,0.8,2.4,1.9l7.6,28.6l7.9-28.4c0.3-1.4,1.6-2.3,3-2.1c1,0.2,1.9,1,2.1,2.1l7.9,28.4l7.6-28.6c0.3-1.1,1.3-1.9,2.5-2
					c1.4-0.1,2.6,1,2.6,2.5l0,0C82.8,101.1,82.7,101.4,82.7,101.7z"/>
			</g>
			<g>
				<path id="Q_3_" class="st2" d="M99.6,142.2c-9.7,0-15.1-7.9-15.1-17c0-9,5.4-16.9,15.1-16.9s15.1,7.9,15.1,16.9
					C114.7,134.3,109.3,142.2,99.6,142.2z M99.6,113.4c-6,0-9.9,4.7-9.9,11.8c0,7.2,3.9,11.9,9.9,11.9c6.1,0,9.9-4.7,9.9-11.9
					C109.5,118.1,105.7,113.4,99.6,113.4z"/>
			</g>
			<path class="st2" d="M133.1,113.4c-4.7,0.1-8.5,3.9-8.5,8.6v16.6c0,1.4-1,2.5-2.4,2.6c-0.1,0-0.1,0-0.2,0c-1.4,0-2.5-1-2.5-2.4
				v-0.1v-26.8c0-1.4,1.1-2.6,2.5-2.6l0,0c1.3-0.1,2.4,0.8,2.6,2c2.4-2,5.5-3,8.6-3.1c1.4-0.1,2.6,1,2.7,2.4c0.1,1.4-1,2.6-2.4,2.7
				C133.3,113.4,133.2,113.4,133.1,113.4z"/>
			<g>
				<path id="V" class="st2" d="M142.5,141.3c-3.3-0.1-6-2.8-6-6.1v-34.1c0-1.4,1.1-2.6,2.6-2.6s2.6,1.1,2.6,2.6v34.2
					c0,0.5,0.3,1,0.8,1c1.4,0,2.6,1.1,2.6,2.6S143.9,141.3,142.5,141.3L142.5,141.3L142.5,141.3z"/>
			</g>
			<path class="st2" d="M174.3,141.1c-1.3,0.1-2.5-0.9-2.6-2.3c0-0.1,0-0.2,0-0.2c-2.7,2.4-6.3,3.7-9.9,3.6c-9.7,0-15.1-7.9-15.1-17
				c0-9,5.4-16.9,15.1-16.9c3.7-0.1,7.3,1.3,9.9,3.9V101c0-1.4,1.1-2.6,2.6-2.6s2.6,1.1,2.6,2.6v37.6c0,1.3-1,2.5-2.3,2.5
				C174.4,141.1,174.4,141.1,174.3,141.1L174.3,141.1z M161.8,113.4c-6,0-9.9,4.7-9.9,11.8c0,7.2,3.9,11.9,9.9,11.9
				c6.1,0,9.9-4.7,9.9-11.9C171.7,118.1,167.9,113.4,161.8,113.4z M184.2,113.2c-0.4,0.2-0.9,0.3-1.3,0.3c-1.4-0.1-2.6-1.3-2.6-2.7
				c0-0.9,0.5-1.7,1.3-2.2c1.5-0.9,2.5-2.4,2.6-4.1V100c-0.1-1.4,1-2.6,2.4-2.7s2.6,1,2.7,2.4c0,0.1,0,0.1,0,0.2v4.6
				C189.1,108.1,187.2,111.4,184.2,113.2L184.2,113.2z M204,142.2c-3.3,0-8.8-1-11.6-4.5c-0.9-1.2-0.7-2.8,0.5-3.7
				c0.5-0.4,1.1-0.6,1.7-0.5c0.7,0,1.4,0.4,1.9,1c1.9,2,4.9,2.6,7.6,2.6c5.4,0,7.1-1.9,7.1-4.6c0-7.7-18.3-2.9-18.3-15.3
				c0-6.5,6.1-8.9,11.8-8.9c3.2,0,10.9,1.6,10.9,5c0,1.4-1.1,2.6-2.5,2.7c-0.7-0.1-1.4-0.3-2-0.8c-1.6-1.4-4-1.8-6.4-1.8
				c-5,0-6.7,1.9-6.7,3.8c0,7.1,18.4,2.5,18.4,15.3C216.3,139.6,210.4,142.2,204,142.2L204,142.2z M259.9,141.2
				c-0.9,0-1.7-0.5-2.2-1.3l-20.2-30.3v29c0,1.4-1,2.5-2.4,2.6c-0.1,0-0.1,0-0.2,0c-1.4,0-2.5-1-2.5-2.4v-0.1v-37.6
				c0-1.4,1.1-2.6,2.5-2.6c0.1,0,0.1,0,0.2,0c0.9,0,1.7,0.5,2.2,1.3l20.2,30.3v-29c0-1.4,1.1-2.6,2.6-2.6c1.4,0,2.6,1.1,2.6,2.6
				v37.6C262.5,140,261.4,141.2,259.9,141.2L259.9,141.2L259.9,141.2z M293,141.3c-1.2,0.1-2.3-0.8-2.5-2c-2.5,1.9-5.5,3-8.6,3
				c-7.5-0.1-13.6-6.2-13.7-13.7V112c0-1.4,1.1-2.6,2.6-2.6c1.4,0,2.6,1.1,2.6,2.6v16.7c-0.1,4.7,3.7,8.6,8.5,8.6
				c4.7,0.1,8.6-3.7,8.6-8.5c0-0.1,0-0.1,0-0.2V112c-0.1-1.3,0.8-2.5,2.1-2.6c0.1,0,0.3,0,0.4,0c1.4-0.1,2.5,1,2.6,2.3
				c0,0.1,0,0.2,0,0.3v26.8c0.1,1.3-0.9,2.4-2.3,2.5C293.1,141.3,293,141.3,293,141.3L293,141.3z"/>
			<g>
				<path id="P_1_" class="st2" d="M326,137.7c-2.7,3-6.7,4.7-10.7,4.6c-9.7,0-15.1-7.9-15.1-17c0-9,5.4-16.9,15.1-16.9
					c4.1-0.1,8,1.5,10.7,4.6c0.4,0.5,0.7,1.1,0.7,1.7c-0.1,1.4-1.3,2.5-2.7,2.6c-0.7,0-1.4-0.3-1.9-0.8c-1.7-2-4.3-3-6.9-2.9
					c-6,0-9.9,4.7-9.9,11.8c0,7.2,3.9,11.9,9.9,11.9c2.6,0.1,5.1-1,6.9-2.9c0.5-0.6,1.1-0.9,1.9-0.9c1.4-0.1,2.6,1,2.7,2.5
					C326.8,136.5,326.5,137.1,326,137.7L326,137.7z"/>
			</g>
			<g>
				<path id="V_1_" class="st2" d="M336.5,141.3c-3.3-0.1-6-2.8-6-6.1v-34.1c0-1.4,1.1-2.6,2.5-2.6s2.6,1.1,2.6,2.6v34.2
					c0,0.5,0.3,1,0.8,1c1.4,0,2.5,1.1,2.5,2.6S337.9,141.3,336.5,141.3L336.5,141.3L336.5,141.3z"/>
			</g>
			<g>
				<path id="O_1_" class="st2" d="M368.3,127.9h-22.2c0.8,5.6,4.4,9.2,9.7,9.2c2.7,0.1,5.4-1.1,7.1-3.1c0.4-0.6,1.1-0.9,1.9-1
					c1.4,0,2.6,1.2,2.7,2.6c0,0.7-0.2,1.3-1.4,2.5c-2.8,2.6-6.4,4.1-10.3,4c-9.7,0-15.1-8-15.1-17c0-8.9,5.4-16.9,15.1-16.9
					c9.8,0,15,8,15,16.9C370.8,126.7,369.7,127.8,368.3,127.9L368.3,127.9z M355.8,113.4c-5.6,0-8.9,4.1-9.7,9.3h19.4
					C364.7,117,361.1,113.4,355.8,113.4z"/>
			</g>
			<path class="st2" d="M404.4,141.2c-2.3,0-4.4-1.3-5.3-3.4c-2.7,2.9-6.6,4.6-10.6,4.4c-9.8,0-15.1-8-15.1-17s5.4-16.9,15.1-16.9
				c3.7-0.1,7.3,1.3,9.9,4V112c-0.1-1.4,0.9-2.6,2.2-2.7c0.1,0,0.2,0,0.3,0c1.3-0.1,2.5,0.8,2.6,2.2c0,0.1,0,0.2,0,0.4V135
				c-0.1,0.5,0.3,1,0.8,1.1c1.4,0,2.5,1.1,2.5,2.6S405.8,141.2,404.4,141.2L404.4,141.2z M388.5,113.4c-6,0-9.9,4.7-9.9,11.8
				c0,7.2,3.9,11.9,9.9,11.9c6.1,0,9.9-4.7,9.9-11.9C398.4,118.1,394.6,113.4,388.5,113.4z M423.9,113.4c-4.7,0.1-8.5,3.9-8.5,8.6
				v16.6c0,1.4-1,2.5-2.4,2.6c-0.1,0-0.1,0-0.2,0c-1.4,0-2.5-1-2.5-2.4v-0.1v-26.8c0-1.4,1.1-2.6,2.5-2.6l0,0c1.3-0.1,2.4,0.8,2.6,2
				c2.4-2,5.5-3,8.6-3.1c1.4-0.1,2.6,1,2.7,2.4s-1,2.6-2.4,2.7C424,113.4,423.9,113.4,423.9,113.4L423.9,113.4z"/>
			<g>
				<path id="U_1_" class="st2" d="M483.1,101.7l-9.9,37.4c-0.1,1.3-1.2,2.2-2.4,2.1l0,0c-1.3,0-2.4-0.9-2.6-2.1l-8.1-28.7l-8,28.7
					c-0.2,1.2-1.3,2.1-2.5,2.1c-1.3,0.1-2.4-0.8-2.5-2.1l-9.9-37.4c-0.1-0.3-0.1-0.6-0.1-0.8c0.1-1.4,1.3-2.4,2.7-2.3l0,0
					c1.1,0,2.1,0.8,2.4,1.9l7.6,28.6l7.9-28.4c0.3-1.4,1.6-2.3,3-2.1c1,0.2,1.9,1,2.1,2.1l7.9,28.4l7.6-28.6c0.3-1.1,1.3-1.9,2.5-2
					c1.4-0.1,2.6,1,2.6,2.5l0,0C483.2,101.1,483.2,101.4,483.1,101.7z"/>
			</g>
			<path class="st2" d="M516,141.2c-2.3,0-4.4-1.3-5.3-3.4c-2.7,2.9-6.6,4.6-10.6,4.4c-9.8,0-15.1-8-15.1-17s5.4-16.9,15.1-16.9
				c3.7-0.1,7.3,1.3,9.9,4V112c-0.1-1.4,0.9-2.6,2.2-2.7c0.1,0,0.2,0,0.3,0c1.3-0.1,2.5,0.8,2.6,2.2c0,0.1,0,0.2,0,0.4V135
				c-0.1,0.5,0.3,1,0.8,1.1c1.4,0,2.5,1.1,2.5,2.6S517.4,141.2,516,141.2L516,141.2z M500.1,113.4c-6,0-9.9,4.7-9.9,11.8
				c0,7.2,3.9,11.9,9.9,11.9c6.1,0,9.9-4.7,9.9-11.9C510,118.1,506.1,113.4,500.1,113.4z M535.4,113.4c-4.7,0.1-8.5,3.9-8.5,8.6
				v16.6c0,1.4-1,2.5-2.4,2.6c-0.1,0-0.1,0-0.2,0c-1.4,0-2.5-1-2.5-2.4v-0.1v-26.8c0-1.4,1.1-2.6,2.5-2.6l0,0c1.3-0.1,2.4,0.8,2.6,2
				c2.4-2,5.5-3,8.6-3.1c1.4-0.1,2.6,1,2.7,2.4c0.1,1.4-1,2.6-2.4,2.7C535.5,113.4,535.5,113.4,535.4,113.4L535.4,113.4z
				 M563.9,141.2c-1.3,0.1-2.5-1-2.5-2.3c0-0.1,0-0.1,0-0.2V122c0-4.7-3.8-8.6-8.5-8.6s-8.6,3.8-8.6,8.5l0,0v16.6
				c0.1,1.4-1,2.6-2.5,2.6c-0.1,0-0.1,0-0.2,0c-1.4,0-2.5-1.1-2.5-2.4c0-0.1,0-0.1,0-0.2v-37.6c0-1.4,1.2-2.6,2.6-2.6
				c1.4,0,2.5,1.1,2.6,2.5v10.4c2.3-2.1,5.4-3.2,8.5-3.1c7.5,0.1,13.6,6.2,13.7,13.7v16.6c0.1,1.4-1,2.5-2.3,2.6
				C564.1,141.2,564,141.2,563.9,141.2L563.9,141.2z"/>
			<g>
				<path id="T_1_" class="st2" d="M598.2,127.9H576c0.8,5.6,4.4,9.2,9.7,9.2c2.7,0.1,5.4-1.1,7.1-3.1c0.4-0.6,1.1-0.9,1.9-1
					c1.4,0,2.6,1.2,2.7,2.6c0,0.7-0.2,1.3-1.4,2.5c-2.8,2.6-6.4,4.1-10.3,4c-9.7,0-15.1-8-15.1-17c0-8.9,5.4-16.9,15.1-16.9
					c9.8,0,15,8,15,16.9C600.8,126.7,599.7,127.8,598.2,127.9C598.3,127.9,598.2,127.9,598.2,127.9L598.2,127.9z M585.8,113.4
					c-5.6,0-8.9,4.1-9.7,9.3h19.4C594.6,117,591,113.4,585.8,113.4L585.8,113.4z"/>
			</g>
			<path class="st2" d="M634.4,141.2c-2.3,0-4.4-1.3-5.3-3.4c-2.7,2.9-6.6,4.6-10.6,4.4c-9.8,0-15.1-8-15.1-17s5.4-16.9,15.1-16.9
				c3.7-0.1,7.3,1.3,9.9,4V112c-0.1-1.4,0.9-2.6,2.2-2.7c0.1,0,0.2,0,0.3,0c1.3-0.1,2.5,0.8,2.6,2.2c0,0.1,0,0.2,0,0.4V135
				c-0.1,0.5,0.3,1,0.8,1.1c1.4,0,2.5,1.1,2.5,2.6S635.8,141.2,634.4,141.2L634.4,141.2L634.4,141.2z M618.5,113.4
				c-6,0-9.9,4.7-9.9,11.8c0,7.2,3.9,11.9,9.9,11.9c6.1,0,9.9-4.7,9.9-11.9C628.4,118.1,624.6,113.4,618.5,113.4z M666.3,141.1
				c-1.3,0.1-2.5-0.9-2.6-2.3c0-0.1,0-0.2,0-0.2c-2.7,2.4-6.3,3.7-9.9,3.6c-9.7,0-15.1-7.9-15.1-17c0-9,5.4-16.9,15.1-16.9
				c3.7-0.1,7.3,1.3,9.9,3.9V101c0-1.4,1.2-2.6,2.6-2.6c1.4,0,2.5,1.1,2.6,2.5v37.6c0,1.3-1,2.5-2.3,2.5
				C666.5,141.1,666.4,141.1,666.3,141.1L666.3,141.1z M653.9,113.4c-6,0-9.9,4.7-9.9,11.8c0,7.2,3.9,11.9,9.9,11.9
				c6.1,0,9.9-4.7,9.9-11.9C663.8,118.1,659.9,113.4,653.9,113.4z"/>
			<g>
				<path id="S_2_" class="st2" d="M685.1,142.2c-3.3,0-8.8-1-11.6-4.5c-0.9-1.2-0.7-2.8,0.5-3.7c0.5-0.4,1.1-0.6,1.7-0.5
					c0.7,0,1.4,0.4,1.9,1c1.9,2,4.9,2.6,7.6,2.6c5.4,0,7.1-1.9,7.1-4.6c0-7.7-18.3-2.9-18.3-15.3c0-6.5,6.1-8.9,11.8-8.9
					c3.2,0,10.9,1.6,10.9,5c0,1.4-1.1,2.6-2.5,2.7c-0.7-0.1-1.4-0.3-2-0.8c-1.6-1.4-4-1.8-6.4-1.8c-5,0-6.7,1.9-6.7,3.8
					c0,7.1,18.4,2.5,18.4,15.3C697.3,139.6,691.4,142.2,685.1,142.2L685.1,142.2z"/>
			</g>
		</g>
		<g>
			<path class="st2" d="M992.2,987.5v-2.2c2.3-7.7,9.5-12,9.5-17.9c0-2.7-1.4-4.1-3.1-4.1c-2.1,0-3.6,1.6-3.8,5.5h-2.4
				c0.3-5.9,3-7.6,6.1-7.6c3.4,0,5.8,2.3,5.8,6.6c0,6.5-5.8,8.5-9.7,17.6h9.9v2.2L992.2,987.5z M1012.3,987.9c-4.2,0-6.3-4-6.3-13.4
				s2-13.4,6.3-13.4s6.3,4,6.3,13.4S1016.5,987.9,1012.3,987.9z M1012.3,963.3c-2.4,0-3.7,2.7-3.7,11.2s1.3,11.2,3.7,11.2
				s3.7-2.7,3.7-11.2S1014.7,963.3,1012.3,963.3z"/>
			<path id="W" class="st2" d="M1021.9,987.5v-2.2h3.2v-20.9l-3.2,0.3v-1.6c1.5-0.3,2.9-1,4.1-2h1.7v24.2h3v2.2H1021.9z"/>
			<path class="st2" d="M1034.1,961.5h11.7v1.4l-7.6,24.6h-2.7l7.6-23.8h-8.9L1034.1,961.5z"/>
			<path id="W_1_" class="st2" d="M87.4,987.5v-2.2h3.2v-20.9l-3.2,0.3v-1.6c1.5-0.3,2.9-1,4.1-2h1.7v24.2h3v2.2H87.4z"/>
			<path class="st2" d="M102.2,982.7c0.4,2.6,1.8,3,2.8,3c2.3,0,3.7-3.2,3.8-10.4c-1,1.2-2.4,1.9-4,2c-2.9,0-5.6-2.1-5.6-8
				c0-5,2.2-8.1,5.6-8.1c4.5,0,6.7,2.6,6.7,12c0,10.4-2.4,14.8-6.6,14.8c-3.3,0-4.6-2-5.1-5L102.2,982.7z M108.9,970.5
				c0-5.3-1.4-7.1-3.7-7.1c-2,0-3.4,1.5-3.4,6c0,4.6,1.6,5.8,3.2,5.8c1.6-0.1,3-0.9,3.8-2.2L108.9,970.5L108.9,970.5z M119.2,987.9
				c-4,0-6.4-3.2-6.4-6.9c0-3.2,1.7-5.5,4.2-7.3c-2.3-1.8-3.6-3.6-3.6-6.7c0-3.2,2.6-5.8,5.8-5.8s5.8,2.6,5.8,5.8
				c0,3.1-1.3,4.9-3.6,6.7c2.5,1.8,4.2,4.1,4.2,7.3C125.6,984.7,123.3,987.9,119.2,987.9L119.2,987.9z M119.2,975.1
				c-2.1,1.5-3.8,3.2-3.8,6c0,2.1,1.2,4.6,3.8,4.6s3.8-2.5,3.8-4.6C123.1,978.3,121.3,976.6,119.2,975.1z M119.2,963.3
				c-1.7,0-3.2,1.3-3.2,3.1c0,0.1,0,0.2,0,0.3c0,2.4,1.2,4.6,3.2,5.8c2-1.2,3.3-3.4,3.2-5.8c0.1-1.7-1.2-3.3-2.9-3.4
				C119.4,963.3,119.3,963.3,119.2,963.3z M136.2,966.4c-0.4-2.6-1.8-3-2.8-3c-2.3,0-3.7,3.2-3.8,10.4c1-1.2,2.4-1.9,4-2
				c2.9,0,5.6,2.1,5.6,8c0,5-2.2,8.1-5.6,8.1c-4.5,0-6.7-2.6-6.7-12c0-10.4,2.4-14.8,6.6-14.8c3.3,0,4.6,2,5.1,5L136.2,966.4z
				 M129.5,978.6c0,5.3,1.4,7.1,3.7,7.1c2,0,3.4-1.5,3.4-6c0-4.6-1.6-5.8-3.2-5.8c-1.6,0.1-3,0.9-3.8,2.2L129.5,978.6z"/>
		</g>
		<g class="st4">
			<g>
				<g>
					<g>
						<line class="st5" x1="86.6" y1="832.3" x2="87.6" y2="832.3"/>
						<line class="st6" x1="93.6" y1="832.3" x2="1041.9" y2="832.3"/>
						<line class="st5" x1="1044.9" y1="832.3" x2="1045.9" y2="832.3"/>
					</g>
					<g>
						<line class="st5" x1="86.6" y1="733.1" x2="87.6" y2="733.1"/>
						<line class="st6" x1="93.6" y1="733.1" x2="1041.9" y2="733.1"/>
						<line class="st5" x1="1044.9" y1="733.1" x2="1045.9" y2="733.1"/>
					</g>
					<g>
						<line class="st5" x1="86.6" y1="628.5" x2="87.6" y2="628.5"/>
						<line class="st6" x1="93.6" y1="628.5" x2="1041.9" y2="628.5"/>
						<line class="st5" x1="1044.9" y1="628.5" x2="1045.9" y2="628.5"/>
					</g>
					<g>
						<line class="st5" x1="86.6" y1="523.9" x2="87.6" y2="523.9"/>
						<line class="st6" x1="93.6" y1="523.9" x2="1041.9" y2="523.9"/>
						<line class="st5" x1="1044.9" y1="523.9" x2="1045.9" y2="523.9"/>
					</g>
					<g>
						<line class="st5" x1="86.6" y1="413.9" x2="87.6" y2="413.9"/>
						<line class="st6" x1="93.6" y1="413.9" x2="1041.9" y2="413.9"/>
						<line class="st5" x1="1044.9" y1="413.9" x2="1045.9" y2="413.9"/>
					</g>
					<g>
						<line class="st5" x1="86.6" y1="309.3" x2="87.6" y2="309.3"/>
						<line class="st6" x1="93.6" y1="309.3" x2="1041.9" y2="309.3"/>
						<line class="st5" x1="1044.9" y1="309.3" x2="1045.9" y2="309.3"/>
					</g>
					<g>
						<line class="st5" x1="86.6" y1="204.7" x2="87.6" y2="204.7"/>
						<line class="st6" x1="93.6" y1="204.7" x2="1041.9" y2="204.7"/>
						<line class="st5" x1="1044.9" y1="204.7" x2="1045.9" y2="204.7"/>
					</g>
				</g>
			</g>
		</g>
		<g class="st7">
			<path class="st2" d="M39.7,315.7c-5.6,0-6.1-5.4-6.1-9.3c0-4.7,1.1-9.3,6.1-9.3c2-0.1,3.9,0.9,5,2.5c0.1,0.1,0.2,0.3,0.2,0.4
				c-0.1,0.4-0.4,0.7-0.8,0.7c-0.2,0-0.5-0.1-0.6-0.3c-0.8-1.2-2.2-1.9-3.7-1.9c-3.4,0-4.6,3-4.6,7.9v0.4c1.2-1.3,2.8-2.1,4.6-2.1
				c3.1-0.1,5.6,2.2,5.8,5.3c0.1,3.1-2.2,5.6-5.3,5.8C40.1,315.7,39.9,315.7,39.7,315.7L39.7,315.7z M39.7,306.1
				c-2.4,0-4.3,1.9-4.3,4.2c0.5,2.1,1.6,4,4.3,4c2.3,0.1,4.2-1.7,4.2-4s-1.7-4.2-4-4.2C39.9,306.1,39.8,306.1,39.7,306.1L39.7,306.1
				z"/>
			<g>
				<path id="X" class="st2" d="M53.2,315.7c-5.7,0-5.8-6.4-5.8-10s0.6-8.7,5.7-8.7c5,0,5.8,4.8,5.8,8.7
					C58.9,309.4,58.9,315.7,53.2,315.7L53.2,315.7z M57.4,305.7c0-3.6-0.5-7.2-4.2-7.2c-4,0-4.2,4.6-4.2,7.2v1.6c0,2.9,0.6,7,4.2,7
					c3.7,0,4.3-4.1,4.3-7L57.4,305.7z"/>
			</g>
		</g>
		<g class="st7">
			<path class="st2" d="M41.4,238.4h-0.8c-2.1,0-3.2-1-3.2-2.9v-8.9H36c-0.4,0-0.7-0.3-0.7-0.7s0.3-0.7,0.7-0.7h0.1h1.4v-3.8
				c0-0.4,0.4-0.7,0.8-0.7l0,0c0.4,0,0.7,0.3,0.8,0.7l0,0v3.8h2.5c0.4,0,0.7,0.3,0.7,0.7s-0.3,0.7-0.7,0.7h-0.1H39v8.9
				c0,1.2,0.4,1.5,1.6,1.5h0.8c0.4,0,0.7,0.3,0.8,0.7C42.2,238.1,41.9,238.4,41.4,238.4L41.4,238.4L41.4,238.4z M55.6,238.4
				c-0.4,0-0.8-0.3-0.8-0.7l0,0v-7.3c-0.2-2.5-2.4-4.5-4.9-4.3c-2.3,0.2-4.1,2-4.3,4.3v7.3c0,0.4-0.4,0.7-0.8,0.7l0,0
				c-0.4,0-0.8-0.3-0.8-0.7l0,0v-16.4c0-0.4,0.4-0.7,0.8-0.7l0,0c0.4,0,0.7,0.3,0.8,0.7l0,0v5.3c1.2-1.3,2.9-2,4.6-1.9
				c3.3-0.1,6,2.4,6.1,5.7v7.3C56.3,238.1,56,238.5,55.6,238.4L55.6,238.4L55.6,238.4z M65.5,238.9c-4.3,0-6.8-3.3-6.8-7.1
				s2.4-7,6.8-7s6.8,3.3,6.8,7C72.3,235.6,69.9,238.9,65.5,238.9z M65.5,226.2c-3.2,0-5.2,2.4-5.2,5.6s2,5.6,5.2,5.6
				c3.2,0,5.2-2.4,5.2-5.6S68.7,226.2,65.5,226.2z M86.2,238.4c-0.4,0-0.8-0.3-0.8-0.7l0,0v-0.8c-1.2,1.3-2.9,2-4.6,1.9
				c-3.3,0.1-6-2.4-6.1-5.7v-7.3c0-0.4,0.4-0.7,0.8-0.7s0.7,0.3,0.7,0.7v7.3c0.2,2.5,2.4,4.4,5,4.3c2.3-0.2,4.1-2,4.3-4.3v-7.3
				c0-0.4,0.4-0.7,0.8-0.7l0,0c0.4,0,0.7,0.3,0.8,0.7l0,0v11.9C87,238.1,86.6,238.5,86.2,238.4L86.2,238.4L86.2,238.4z M94.8,238.9
				c-1.6,0-4.3-0.5-5.3-2c-0.1-0.1-0.1-0.2-0.1-0.4c0-0.4,0.4-0.7,0.8-0.8c0.2,0,0.5,0.2,0.6,0.4c1,1.1,2.7,1.3,4,1.3
				c2.6,0,3.9-0.8,3.9-2.4c0-3.8-8.8-1.8-8.8-6.8c0-2.5,2.7-3.5,5.2-3.5c1.7,0,3.3,0.5,4.6,1.4c0.1,0.1,0.2,0.3,0.2,0.5
				c0,0.4-0.4,0.7-0.8,0.8c-0.2,0-0.4-0.1-0.5-0.2c-1-0.7-2.3-1.1-3.5-1c-2.4,0-3.6,0.9-3.6,2.1c0,3.5,8.8,1.6,8.8,6.8
				C100.2,237.9,97.5,238.9,94.8,238.9L94.8,238.9z M116.6,238.4L116.6,238.4c-1.2,0-2.3-0.8-2.7-1.9c-1.3,1.6-3.2,2.5-5.2,2.4
				c-4.4,0-6.8-3.4-6.8-7.1c0-3.8,2.4-7,6.8-7c2-0.1,4,0.8,5.2,2.4V226c0-0.4,0.4-0.7,0.8-0.7l0,0c0.4,0,0.7,0.3,0.8,0.7l0,0v10.1
				c0,1.6,1.9,0.6,1.9,1.8C117.3,238.1,117,238.5,116.6,238.4L116.6,238.4L116.6,238.4z M108.7,226.2c-3.2,0-5.2,2.4-5.2,5.6
				s2,5.6,5.2,5.6s5.2-2.4,5.2-5.6S111.9,226.2,108.7,226.2L108.7,226.2z M130.8,238.4c-0.4,0-0.8-0.3-0.8-0.7l0,0v-7.3
				c-0.2-2.5-2.4-4.5-4.9-4.3c-2.3,0.2-4.1,2-4.3,4.3v7.3c0,0.4-0.4,0.7-0.8,0.7l0,0c-0.4,0-0.8-0.3-0.8-0.7l0,0v-11.9
				c0-0.4,0.4-0.7,0.8-0.7l0,0c0.4,0,0.7,0.3,0.8,0.7l0,0v0.8c1.2-1.2,2.9-1.9,4.6-1.9c3.3-0.1,6,2.4,6.1,5.7v7.3
				C131.5,238.1,131.2,238.5,130.8,238.4L130.8,238.4L130.8,238.4z M146.7,238.4c-0.4,0-0.8-0.3-0.8-0.7l0,0v-1.2
				c-1.3,1.6-3.2,2.5-5.2,2.4c-4.3,0-6.8-3.3-6.8-7.1s2.4-7,6.8-7c2-0.1,4,0.8,5.2,2.4v-5.8c0-0.4,0.4-0.7,0.8-0.7l0,0
				c0.4,0,0.7,0.3,0.8,0.7l0,0v16.4C147.5,238.1,147.1,238.5,146.7,238.4L146.7,238.4L146.7,238.4z M140.7,226.2
				c-3.2,0-5.2,2.4-5.2,5.6s2,5.6,5.2,5.6s5.2-2.4,5.2-5.6S143.9,226.2,140.7,226.2L140.7,226.2z"/>
		</g>
		<g class="st7">
			<path class="st2" d="M39.5,420.2c-1.9,0-3.7-0.9-4.8-2.4c-0.1-0.1-0.1-0.3-0.1-0.4c0-0.4,0.4-0.7,0.8-0.7c0.4,0,0.4,0.2,0.8,0.6
				c0.8,1,2.1,1.5,3.3,1.5c2.5,0,4.5-2,4.5-4.5s-2-4.5-4.5-4.5c-1.4,0-2.7,0.7-3.6,1.8c-0.2,0.2-0.4,0.4-0.7,0.4
				c-0.4,0-0.7-0.3-0.8-0.6v-0.1v-8.2c0-0.4,0.3-0.7,0.7-0.7l0,0h9c0.4-0.1,0.7,0.2,0.8,0.6s-0.2,0.7-0.6,0.8c-0.1,0-0.1,0-0.2,0
				h-8.2v5.9c1-0.8,2.3-1.2,3.5-1.1c3.3,0,6,2.7,6,6C45.4,417.5,42.8,420.2,39.5,420.2L39.5,420.2L39.5,420.2z"/>
			<g>
				<path id="Y" class="st2" d="M53.2,420.3c-5.7,0-5.8-6.3-5.8-10c0-3.6,0.6-8.7,5.7-8.7c5,0,5.8,4.8,5.8,8.7
					C58.9,414,58.9,420.3,53.2,420.3L53.2,420.3z M57.4,410.3c0-3.6-0.5-7.2-4.2-7.2c-4,0-4.2,4.6-4.2,7.2v1.6c0,2.9,0.6,7,4.2,7
					c3.7,0,4.3-4.1,4.3-7L57.4,410.3z"/>
			</g>
		</g>
		<g class="st7">
			<path class="st2" d="M45.7,193.9l-6.8,16.4c-0.1,0.3-0.4,0.5-0.7,0.5c-0.4,0-0.8-0.3-0.8-0.7c0-0.1,0-0.2,0.1-0.3l6.4-15.4h-8.5
				c-0.4,0-0.7-0.2-0.8-0.6c0-0.4,0.2-0.7,0.6-0.8c0.1,0,0.1,0,0.2,0H45c0.5,0,0.8,0.2,0.8,0.6C45.8,193.7,45.8,193.8,45.7,193.9
				L45.7,193.9z"/>
			<g>
				<path id="X_1_" class="st2" d="M53.2,211.1c-5.7,0-5.8-6.4-5.8-10s0.6-8.7,5.7-8.7c5,0,5.8,4.8,5.8,8.7
					C58.9,204.8,58.9,211.1,53.2,211.1L53.2,211.1z M57.4,201.1c0-3.6-0.5-7.2-4.2-7.2c-4,0-4.2,4.6-4.2,7.2v1.6c0,2.9,0.6,7,4.2,7
					c3.7,0,4.3-4.1,4.3-7L57.4,201.1z"/>
			</g>
		</g>
		<g class="st7">
			<path class="st2" d="M45,521.2h-1.7v2.6c0,0.4-0.4,0.7-0.8,0.7l0,0c-0.4,0-0.7-0.3-0.8-0.7l0,0v-2.6h-7.3c-0.5,0-0.8-0.3-0.8-0.6
				c0-0.2,0-0.3,0.1-0.5l7.6-13.4c0.1-0.3,0.4-0.4,0.7-0.4c0.4,0,0.7,0.3,0.8,0.7c0,0.1,0,0.3-0.1,0.4l-7,12.4h6v-3.2
				c0-0.4,0.4-0.8,0.8-0.8c0.4,0,0.7,0.3,0.8,0.7v3.2H45c0.4,0,0.7,0.3,0.8,0.7l0,0C45.8,520.9,45.5,521.2,45,521.2L45,521.2
				L45,521.2z M53.2,525c-5.7,0-5.8-6.3-5.8-10c0-3.6,0.6-8.7,5.7-8.7c5,0,5.8,4.8,5.8,8.7C58.9,518.6,58.9,525,53.2,525L53.2,525z
				 M57.4,515c0-3.6-0.5-7.2-4.2-7.2c-4,0-4.2,4.6-4.2,7.2v1.6c0,2.9,0.6,7,4.2,7c3.7,0,4.3-4.1,4.3-7L57.4,515z"/>
		</g>
		<g class="st7">
			<path class="st2" d="M39.4,629.5c-2,0-3.8-0.9-4.9-2.5c-0.1-0.1-0.1-0.3-0.1-0.4c0-0.4,0.4-0.7,0.8-0.8c0.3,0,0.5,0.1,0.6,0.4
				c0.8,1.2,2.2,1.9,3.6,1.9c2.2,0.2,4-1.5,4.2-3.6s-1.5-4-3.6-4.2c-0.2,0-0.4,0-0.6,0l0,0c-0.4,0-0.8-0.3-0.8-0.7s0.4-0.7,0.8-0.7
				l0,0l0,0c1.8,0.1,3.4-1.2,3.5-3s-1.2-3.4-3-3.5c-0.2,0-0.3,0-0.5,0c-2.9,0-3.3,2.6-4.4,2.6c-0.4,0-0.8-0.3-0.8-0.7
				c0-0.5,2-3.3,5.2-3.3c2.7-0.1,4.9,2,5.1,4.7c0,1.6-0.9,3.1-2.3,3.9c1.8,0.8,3,2.7,3,4.7C45.1,627.3,42.5,629.7,39.4,629.5
				L39.4,629.5z"/>
			<g>
				<path id="Y_1_" class="st2" d="M53.2,629.5c-5.7,0-5.8-6.3-5.8-10c0-3.6,0.6-8.7,5.7-8.7c5,0,5.8,4.8,5.8,8.7
					C58.9,623.2,58.9,629.5,53.2,629.5L53.2,629.5z M57.4,619.5c0-3.6-0.5-7.2-4.2-7.2c-4,0-4.2,4.6-4.2,7.2v1.6c0,2.9,0.6,7,4.2,7
					c3.7,0,4.3-4.1,4.3-7L57.4,619.5z"/>
			</g>
		</g>
		<g class="st7">
			<path class="st2" d="M44.4,733.7h-8.8c-0.4,0-0.8-0.3-0.8-0.7c0-0.1,0.1-0.3,0.2-0.4l8-10.5c0.4-0.5,0.6-1.2,0.6-1.9
				c-0.1-1.9-1.6-3.4-3.5-3.3l0,0c-2.6,0-3.6,2.6-4.3,2.6c-0.4,0-0.8-0.3-0.8-0.7c0-0.6,2-3.3,5.1-3.3c2.7-0.1,4.9,2,5.1,4.7
				c0,1-0.3,2-0.9,2.8l-7.1,9.4h7.3c0.4,0,0.7,0.3,0.8,0.7c0,0.4-0.3,0.7-0.7,0.8C44.5,733.7,44.5,733.7,44.4,733.7L44.4,733.7z
				 M53.2,734.1c-5.7,0-5.8-6.3-5.8-10c0-3.6,0.6-8.7,5.7-8.7c5,0,5.8,4.8,5.8,8.7C58.9,727.8,58.9,734.1,53.2,734.1L53.2,734.1z
				 M57.4,724.1c0-3.6-0.5-7.2-4.2-7.2c-4,0-4.2,4.6-4.2,7.2v1.6c0,2.9,0.6,7,4.2,7c3.7,0,4.3-4.1,4.3-7L57.4,724.1z"/>
		</g>
		<g class="st7">
			<path class="st2" d="M43.8,838.3c-0.4,0-0.7-0.3-0.8-0.7l0,0v-14.9l-2.9,2.7c-0.1,0.1-0.3,0.2-0.5,0.2c-0.4,0-0.8-0.3-0.8-0.8
				c0-0.2,0.1-0.3,0.2-0.5l4.3-3.8c0.2-0.1,0.3-0.2,0.5-0.2c0.6,0,0.8,0.4,0.8,0.9v16.5C44.6,838,44.3,838.3,43.8,838.3
				C43.9,838.3,43.8,838.3,43.8,838.3L43.8,838.3z M53.2,838.7c-5.7,0-5.8-6.3-5.8-10c0-3.6,0.6-8.7,5.7-8.7c5,0,5.8,4.8,5.8,8.7
				C58.9,832.4,58.9,838.7,53.2,838.7L53.2,838.7z M57.4,828.8c0-3.6-0.5-7.2-4.2-7.2c-4,0-4.2,4.6-4.2,7.2v1.6c0,2.9,0.6,7,4.2,7
				c3.7,0,4.3-4.1,4.3-7L57.4,828.8z"/>
		</g>
		<linearGradient id="SVGID_2_" gradientUnits="userSpaceOnUse" x1="444.4067" y1="793.0577" x2="580.1649" y2="557.9183">
			<stop  offset="0" style="stop-color:#E8005D"/>
			<stop  offset="1" style="stop-color:#800005"/>
		</linearGradient>
		<path class="st8" d="M182.6,337.6c10.6,9.4,21.3,14.7,32,30.6s21.3,40.7,32,65c10.7,24.3,21.3,59.4,32,80.8
			c10.7,21.4,21.4,33.2,32,47.4c10.7,14.1,21.3,25.7,32,37.6c10.6,11.9,21.3,24.5,32,33.8c10.7,9.4,21.3,18.1,32,22.3
			s21.4,3.1,32,6.4c10.6,3.2,21.3,8.7,32,13l32,12.8c10.7,4.1,21.3,7.8,32,11.6l32,11.4c10.7,3.8,21.3,7.1,32,11.6s21.3,8.5,32,15.4
			s21.3,19.6,32,26.1s21.4,9.4,32,13c10.7,3.7,21.3,3.2,32,9c10.7,5.9,21.3,20.6,32,26.2c10.7,5.5,21.3,5.9,32,8.3
			c10.7,2.4,21.4,4.1,32,5.9l32,5l32,5.7c10.7,1.7,21.3,4.3,32,4.6s21.4,0.3,32,0.5l32,0.7l32-0.1c10.7,0,21.3,2.9,32,5.9v42
			c-10.7-0.1-21.3-0.1-32-0.1c-10.7,0-21.3,2.1-32,2.1s-21.3-1.8-32-1.9l-32-0.2c-10.7-0.1-21.3-2.5-32-3.7l-32-3.7l-32-3.3l-32-4.2
			l-32-3.7c-10.6-1.2-21.3-2.5-32-3.7s-21.3-1.3-32-3.7s-21.4-7.2-32-10.9c-10.7-3.6-21.3-7.2-32-10.9c-10.6-3.6-21.3-7.2-32-10.9
			c-10.6-3.6-21.3-7.2-32-10.9l-32-10.8l-32-10.5c-10.7-3.8-21.3-8.4-32-12.3c-10.6-3.9-21.3-8.5-32-11.2s-21.4-1.7-32-5.2
			c-10.7-3.5-21.3-14-32-23.4c-10.6-9.4-21.3-22.2-32-33.1c-10.7-10.8-21.3-22.7-32-32c-10.7-9.4-21.4-16.1-32-24.4
			c-10.6-8.3-21.3-14.4-32-25.3c-10.7-10.9-21.3-29.7-32-40c-10.6-10.3-21.3-15.7-32-21.9s-21.4-10-32.1-15.3
			c-10.6-5.3-21.3-10.1-32-16.4c-10.7-6.3-21.3-13.9-32-21.5V272.9l32,18.8c10.7,6.5,21.3,12.6,32,20.3
			C161.2,319.6,171.9,328.2,182.6,337.6L182.6,337.6z"/>
		<g class="st3">
			<path class="st9" d="M893.4,711.5l-67,108.5"/>
		</g>
		<linearGradient id="SVGID_3_" gradientUnits="userSpaceOnUse" x1="482.3922" y1="699.6532" x2="572.7862" y2="543.0862">
			<stop  offset="0" style="stop-color:#E8005D"/>
			<stop  offset="1" style="stop-color:#800005"/>
		</linearGradient>
		<path class="st10" d="M1045.9,836.3v11.5c-10.7-2.9-21.3-5.9-32-5.9l-32,0.1c-10.7,0-21.3-0.5-32-0.7l-32-0.5
			c-10.7-0.3-21.3-2.9-32-4.6c-10.7-1.7-21.3-3.9-32-5.7l-32-5c-10.7-1.8-21.4-3.5-32-5.9c-10.7-2.4-21.3-2.8-32-8.3
			s-21.3-20.3-32-26.2s-21.3-5.4-32-9c-10.7-3.7-21.4-6.5-32-13c-10.7-6.5-21.3-19.2-32-26.1c-10.7-6.9-21.3-10.9-32-15.4
			s-21.3-7.8-32-11.6l-32-11.4l-32-11.6c-10.7-4.1-21.3-8.5-32-12.8c-10.6-4.3-21.3-9.8-32-13s-21.4-2.1-32-6.4
			c-10.7-4.2-21.3-12.9-32-22.3c-10.6-9.3-21.3-21.9-32-33.8c-10.7-11.9-21.3-23.5-32-37.6c-10.7-14.2-21.4-26-32-47.4
			c-10.6-21.3-21.3-56.5-32-80.8c-10.7-24.3-21.3-49-32-65c-10.6-15.9-21.3-21.2-32-30.6s-21.4-18-32.1-25.6
			c-10.6-7.6-21.3-13.8-32-20.3s-21.3-12.6-32-18.8v-10.2l32,18c10.7,6.4,21.3,12.7,32,20.3c10.7,7.7,21.4,16.4,32.1,25.6
			c10.6,9.2,21.3,13.9,32,29.5c10.7,15.7,21.3,40.1,32,64.5c10.7,24.4,21.3,60.2,32,81.8c10.7,21.6,21.4,33.3,32,47.5
			c10.7,14.2,21.3,25.8,32,37.8c10.6,12,21.3,24.6,32,34.1s21.3,18.9,32,23.1c10.7,4.2,21.4,3.2,32,6.4s21.3,8.3,32,12.6l32,12.7
			c10.6,3.9,21.3,6.9,32,10.8c10.7,3.9,21.4,8.5,32,12.5c10.7,4,21.3,7,32,11.4s21.3,8.3,32,15.2s21.3,19.5,32,26s21.4,9.2,32,12.9
			c10.7,3.7,21.3,3.6,32,9.5s21.3,20.2,32,26s21.3,6.2,32,8.6c10.7,2.4,21.4,3.9,32,5.6l32,4.8l32,5.5c10.7,1.6,21.3,4.3,32,4.4
			l32,0.2l32,0.7l32-0.2C1024.6,830.6,1035.3,833.5,1045.9,836.3L1045.9,836.3z"/>
		<linearGradient id="SVGID_4_" gradientUnits="userSpaceOnUse" x1="355.704" y1="1092.168" x2="616.0818" y2="641.1819">
			<stop  offset="0" style="stop-color:#E8005D"/>
			<stop  offset="1" style="stop-color:#800005"/>
		</linearGradient>
		<path class="st11" d="M118.6,538.3c10.6,6.3,21.3,11.1,32,16.4c10.7,5.3,21.4,9.1,32.1,15.3c10.6,6.2,21.3,11.6,32,21.9
			c10.7,10.3,21.3,29.1,32,40c10.6,10.9,21.3,17,32,25.3s21.4,15,32,24.4c10.7,9.4,21.3,21.2,32,32c10.6,10.9,21.3,23.6,32,33.1
			c10.7,9.4,21.3,19.9,32,23.4s21.4,2.5,32,5.2s21.3,7.3,32,11.2s21.3,8.5,32,12.3c10.6,3.8,21.3,6.9,32,10.5l32,10.8
			c10.6,3.6,21.3,7.2,32,10.9c10.7,3.6,21.3,7.2,32,10.9c10.7,3.6,21.3,7.2,32,10.9c10.7,3.6,21.4,8.4,32,10.9
			c10.7,2.4,21.3,2.5,32,3.7c10.6,1.2,21.3,2.5,32,3.7l32,3.7l32,4.2c10.7,1.2,21.3,2.1,32,3.3l32,3.7c10.7,1.2,21.3,3.6,32,3.7
			l32,0.2c10.7,0.1,21.3,1.9,32,1.9s21.3-2.1,32-2.1s21.3,0,32,0.1v47H86.6v-420C97.2,524.4,107.9,532,118.6,538.3L118.6,538.3z"/>
		<g class="st7">
			<path class="st2" d="M142.8,484.8c-5.8,0-10.5-4.7-10.5-10.5l0,0v-18.4c0-1,0.9-1.8,1.9-1.7c1,0,1.7,0.8,1.7,1.7v18.4
				c0,3.8,3,7,6.9,7c3.8,0,7-3,7-6.9c0-0.1,0-0.1,0-0.2V456c0-1,0.8-1.8,1.8-1.8s1.8,0.8,1.8,1.8l0,0v18.4
				C153.4,480.1,148.7,484.8,142.8,484.8C142.9,484.8,142.9,484.8,142.8,484.8L142.8,484.8z M166.8,484.8c-3.1,0-7.4-1.3-9.7-3.5
				c-0.4-0.3-0.6-0.8-0.6-1.3c0-1,0.8-1.8,1.8-1.8c0.6,0,0.8,0.2,1.6,0.8c2,1.5,4.4,2.3,6.9,2.2c5,0,7.2-1.8,7.2-4.9
				c0-8.7-16.8-3.8-16.8-15.2c0-5.1,4.3-7.7,9.9-7.7c2.9,0,7.1,1.1,9.1,3.6c0.3,0.3,0.5,0.7,0.5,1.1c0,1-0.8,1.8-1.8,1.9
				c-0.6,0-1-0.3-1.7-0.9c-1.7-1.4-3.9-2.1-6.1-2.1c-4.5,0-6.3,1.8-6.3,4.1c0,7.9,16.8,3.2,16.8,15.2
				C177.6,482.5,172.4,484.8,166.8,484.8L166.8,484.8z M202.1,484.1c-0.7,0-1.3-0.4-1.6-1.1l-2.2-5.5h-14L182,483
				c-0.2,0.6-0.9,1.1-1.6,1.1c-1,0-1.8-0.8-1.9-1.8c0-0.2,0-0.5,0.2-0.7l10.8-26.3c0.2-0.8,0.9-1.3,1.7-1.3s1.5,0.6,1.7,1.3
				l10.8,26.3c0.1,0.2,0.1,0.5,0.1,0.7C203.9,483.3,203.1,484.1,202.1,484.1L202.1,484.1L202.1,484.1z M191.2,460.5l-5.5,13.4h11
				L191.2,460.5z"/>
		</g>
		<g class="st7">
			<path class="st2" d="M903.7,516.9c-1.3,1.9-3.5,3-5.8,2.8c-5.6,0-7.6-4.6-7.6-9.7c0-5.1,2-9.7,7.6-9.7c2.3-0.1,4.5,1,5.8,2.8
				c0.1,0.1,0.2,0.3,0.2,0.4c0,0.4-0.4,0.7-0.8,0.7c-0.2,0-0.4-0.1-0.6-0.3c-1-1.5-2.8-2.3-4.6-2.2c-4.3,0-6.1,3.4-6.1,8.2
				s1.8,8.2,6.1,8.2c1.8,0.1,3.6-0.7,4.6-2.2c0.1-0.2,0.3-0.3,0.6-0.3c0.4,0,0.8,0.3,0.8,0.8C903.8,516.6,903.8,516.8,903.7,516.9
				L903.7,516.9z M917.3,519.3c-0.4,0-0.7-0.3-0.8-0.7l0,0V511c0-2.5-1.9-4.5-4.4-4.5s-4.5,1.9-4.5,4.4v0.1v7.6
				c0,0.4-0.4,0.7-0.8,0.7c-0.4,0-0.7-0.3-0.7-0.7v-17.1c0-0.4,0.4-0.7,0.8-0.7c0.4,0,0.7,0.3,0.7,0.7v5.5c1.1-1.3,2.7-2,4.4-2
				c3.3,0,5.9,2.7,5.9,5.9v7.6C918,519,917.7,519.3,917.3,519.3L917.3,519.3L917.3,519.3z"/>
			<g>
				<path id="Z" class="st2" d="M921.7,503c-0.8,0-1.5-0.7-1.5-1.5s0.7-1.5,1.5-1.5s1.5,0.7,1.5,1.5l0,0
					C923.2,502.3,922.5,503,921.7,503L921.7,503z M921.7,519.3c-0.4,0-0.7-0.3-0.8-0.7c0,0,0,0,0-0.1v-12.4c0-0.4,0.3-0.7,0.7-0.7
					c0,0,0,0,0.1,0c0.4,0,0.7,0.3,0.7,0.7l0,0v12.4C922.4,518.9,922.1,519.3,921.7,519.3L921.7,519.3z"/>
			</g>
			<g>
				<path id="a" class="st2" d="M936.7,519.3c-0.4,0-0.7-0.3-0.8-0.7l0,0V511c0-2.5-2-4.4-4.4-4.4c-2.5,0-4.4,2-4.4,4.4v7.6
					c0,0.4-0.3,0.7-0.7,0.7s-0.7-0.3-0.7-0.7v-12.4c0-0.4,0.3-0.7,0.7-0.7s0.7,0.3,0.7,0.7v0.8c2.2-2.5,5.9-2.7,8.4-0.5
					c1.3,1.1,2,2.7,2,4.4v7.6C937.5,519,937.1,519.3,936.7,519.3L936.7,519.3L936.7,519.3z"/>
			</g>
			<g>
				<path id="b" class="st2" d="M954,519.3L954,519.3c-1.2,0-2.3-0.8-2.6-2c-1.2,1.6-3.1,2.6-5,2.5c-4.2,0-6.5-3.5-6.5-7.4
					c0-3.9,2.3-7.3,6.5-7.3c2-0.1,3.9,0.8,5,2.4v-1.3c0-0.4,0.3-0.7,0.7-0.7l0,0c0.4,0,0.7,0.3,0.7,0.7l0,0v10.5
					c0,1.7,1.9,0.6,1.9,1.9C954.7,519,954.4,519.3,954,519.3L954,519.3L954,519.3z M946.3,506.5c-3.1,0-5,2.5-5,5.9s2,5.9,5,5.9
					c3.1,0,5-2.5,5-5.9S949.4,506.5,946.3,506.5z"/>
			</g>
			<path class="st2" d="M903.1,532.2h-10.8v6.4h7.9c0.4,0,0.7,0.3,0.8,0.7c0,0,0,0,0,0.1c0,0.4-0.3,0.7-0.7,0.8l0,0h-8v8.5
				c0,0.4-0.4,0.7-0.8,0.7c-0.4,0-0.7-0.3-0.7-0.7v-17.1c0-0.4,0.4-0.7,0.8-0.7h11.5c0.4,0,0.7,0.3,0.8,0.7
				C903.9,531.9,903.6,532.2,903.1,532.2L903.1,532.2L903.1,532.2z"/>
			<g>
				<path id="c" class="st2" d="M910.3,536.8c-2.5,0-4.4,2-4.4,4.4l0,0v7.4c0,0.4-0.3,0.7-0.7,0.7s-0.7-0.3-0.7-0.7v-12.3
					c0-0.4,0.3-0.7,0.7-0.7s0.7,0.3,0.7,0.7v1.1c1.1-1.3,2.7-2,4.4-2c0.4,0,0.7,0.3,0.7,0.7S910.7,536.8,910.3,536.8L910.3,536.8
					L910.3,536.8z"/>
			</g>
			<g>
				<path id="d" class="st2" d="M925.4,549.3L925.4,549.3c-1.2,0-2.3-0.8-2.6-2c-1.2,1.6-3.1,2.6-5,2.5c-4.2,0-6.5-3.5-6.5-7.4
					s2.3-7.3,6.5-7.3c2-0.1,3.9,0.8,5,2.4v-1.3c0-0.4,0.3-0.7,0.7-0.7l0,0c0.4,0,0.7,0.3,0.7,0.7l0,0v10.5c0,1.7,1.9,0.6,1.9,1.9
					C926.1,549,925.8,549.3,925.4,549.3L925.4,549.3L925.4,549.3z M917.7,536.5c-3.1,0-5,2.5-5,5.8s2,5.9,5,5.9c3.1,0,5-2.5,5-5.9
					S920.8,536.5,917.7,536.5z"/>
			</g>
			<g>
				<path id="a_1_" class="st2" d="M939.1,549.3c-0.4,0-0.7-0.3-0.8-0.7l0,0V541c0-2.5-2-4.4-4.4-4.4c-2.5,0-4.4,2-4.4,4.4v7.6
					c0,0.4-0.3,0.7-0.7,0.7s-0.7-0.3-0.7-0.7v-12.4c0-0.4,0.3-0.7,0.7-0.7s0.7,0.3,0.7,0.7v0.8c2.2-2.5,5.9-2.7,8.4-0.5
					c1.3,1.1,2,2.7,2,4.4v7.6C939.8,549,939.5,549.3,939.1,549.3L939.1,549.3L939.1,549.3z"/>
			</g>
			<path class="st2" d="M953.4,547.8c-1.2,1.3-2.9,2-4.7,2c-4.2,0-6.5-3.4-6.5-7.4c0-3.9,2.3-7.3,6.5-7.3c1.8-0.1,3.5,0.7,4.7,2
				c0.1,0.1,0.2,0.3,0.2,0.5c0,0.4-0.3,0.7-0.8,0.8c-0.2,0-0.4-0.1-0.5-0.3c-0.9-1-2.2-1.6-3.6-1.5c-3.1,0-5,2.5-5,5.8s2,5.9,5,5.9
				c1.3,0,2.6-0.5,3.6-1.5c0.3-0.3,0.7-0.4,1-0.1c0.2,0.1,0.3,0.4,0.3,0.6C953.6,547.4,953.5,547.6,953.4,547.8L953.4,547.8z"/>
			<g>
				<path id="e" class="st2" d="M967.9,543.1h-10.8c0.2,3,2.2,5.1,5,5.1c1.5,0,2.9-0.6,3.8-1.8c0.1-0.2,0.4-0.4,0.6-0.4
					c0.4,0,0.8,0.3,0.8,0.7c0,0.2,0,0.3-0.5,0.9c-1.2,1.4-2.9,2.1-4.8,2.1c-4.2,0-6.5-3.4-6.5-7.4c0-3.9,2.3-7.3,6.5-7.3
					s6.5,3.5,6.5,7.3C968.6,542.8,968.3,543.1,967.9,543.1L967.9,543.1z M962.1,536.5c-3.1,0-4.8,2.4-5,5.1h10
					C966.9,538.7,965,536.5,962.1,536.5L962.1,536.5z"/>
			</g>
			<g>
				<path id="f" class="st2" d="M893.9,579.3h-3c-0.4,0-0.7-0.3-0.7-0.7s0.3-0.7,0.7-0.7l0,0h0.7v-15.6h-0.7c-0.4,0-0.7-0.3-0.8-0.7
					c0-0.4,0.3-0.7,0.7-0.8h0.1h3c0.4,0,0.7,0.3,0.7,0.7s-0.3,0.7-0.7,0.7h-0.8v15.6h0.8c0.4,0,0.7,0.3,0.7,0.7
					C894.6,579,894.3,579.3,893.9,579.3z"/>
			</g>
			<g>
				<path id="a_2_" class="st2" d="M908.4,579.3c-0.4,0-0.7-0.3-0.8-0.7l0,0V571c0-2.5-2-4.4-4.4-4.4c-2.5,0-4.4,2-4.4,4.4v7.6
					c0,0.4-0.3,0.7-0.7,0.7s-0.7-0.3-0.7-0.7v-12.4c0-0.4,0.3-0.7,0.7-0.7s0.7,0.3,0.7,0.7v0.8c2.2-2.5,5.9-2.7,8.4-0.5
					c1.3,1.1,2,2.7,2,4.4v7.6C909.1,579,908.8,579.3,908.4,579.3L908.4,579.3L908.4,579.3z"/>
			</g>
			<path class="st2" d="M923.8,579.3c-0.4,0-0.7-0.3-0.8-0.7l0,0v-1.3c-1.2,1.6-3.1,2.6-5,2.5c-4.2,0-6.5-3.4-6.5-7.4
				c0-3.9,2.3-7.3,6.5-7.3c2-0.1,3.9,0.8,5,2.4v-6c0-0.4,0.4-0.7,0.8-0.7c0.4,0,0.7,0.3,0.7,0.7v17.1
				C924.5,579,924.2,579.3,923.8,579.3L923.8,579.3L923.8,579.3z M918,566.5c-3.1,0-5,2.5-5,5.8s2,5.9,5,5.9c3.1,0,5-2.5,5-5.9
				S921,566.5,918,566.5z"/>
			<g>
				<path id="Z_1_" class="st2" d="M928.4,563c-0.8,0-1.5-0.7-1.5-1.5s0.7-1.5,1.5-1.5s1.5,0.7,1.5,1.5l0,0
					C929.9,562.3,929.2,563,928.4,563L928.4,563z M928.4,579.3c-0.4,0-0.7-0.3-0.8-0.7c0,0,0,0,0-0.1v-12.3c0-0.4,0.3-0.7,0.7-0.7
					c0,0,0,0,0.1,0c0.4,0,0.7,0.3,0.7,0.7l0,0v12.3C929.2,578.9,928.9,579.3,928.4,579.3L928.4,579.3z"/>
			</g>
			<g>
				<path id="b_1_" class="st2" d="M945.9,579.3L945.9,579.3c-1.2,0-2.3-0.8-2.6-2c-1.2,1.6-3.1,2.6-5,2.5c-4.2,0-6.5-3.5-6.5-7.4
					s2.3-7.3,6.5-7.3c2-0.1,3.9,0.8,5,2.4v-1.3c0-0.4,0.3-0.7,0.7-0.7l0,0c0.4,0,0.7,0.3,0.7,0.7l0,0v10.5c0,1.7,1.9,0.6,1.9,1.9
					C946.6,579,946.3,579.3,945.9,579.3L945.9,579.3L945.9,579.3z M938.2,566.5c-3.1,0-5,2.5-5,5.9s2,5.9,5,5.9c3.1,0,5-2.5,5-5.9
					S941.3,566.5,938.2,566.5z"/>
			</g>
			<g>
				<path id="f_1_" class="st2" d="M893.9,609.3h-3c-0.4,0-0.7-0.3-0.7-0.7s0.3-0.7,0.7-0.7l0,0h0.7v-15.6h-0.7
					c-0.4,0-0.7-0.3-0.8-0.7c0-0.4,0.3-0.7,0.7-0.8h0.1h3c0.4,0,0.7,0.3,0.7,0.7s-0.3,0.7-0.7,0.7h-0.8v15.6h0.8
					c0.4,0,0.7,0.3,0.7,0.7C894.6,609,894.3,609.3,893.9,609.3z"/>
			</g>
			<path class="st2" d="M901.6,609.8c-1.6,0-4.2-0.5-5.1-2.1c-0.1-0.1-0.1-0.3-0.1-0.4c0-0.4,0.2-0.7,0.6-0.8c0.3,0,0.6,0.1,0.7,0.4
				c1,1,2.4,1.5,3.9,1.4c2.5,0,3.8-0.8,3.8-2.5c0-3.9-8.5-1.8-8.5-7c0-2.6,2.6-3.6,5-3.6c1.6,0,3.2,0.5,4.5,1.5
				c0.1,0.1,0.2,0.3,0.2,0.5c0,0.4-0.4,0.8-0.8,0.8c-0.2,0-0.4-0.1-0.5-0.2c-1-0.8-2.2-1.1-3.4-1.1c-2.3,0-3.5,0.9-3.5,2.2
				c0,3.6,8.5,1.7,8.5,7C906.9,608.7,904.3,609.8,901.6,609.8L901.6,609.8z"/>
			<g>
				<path id="c_1_" class="st2" d="M915,596.8c-2.5,0-4.4,2-4.4,4.4l0,0v7.4c0,0.4-0.3,0.7-0.7,0.7s-0.7-0.3-0.7-0.7v-12.3
					c0-0.4,0.3-0.7,0.7-0.7s0.7,0.3,0.7,0.7v1.1c1.1-1.3,2.7-2,4.4-2c0.4,0,0.7,0.3,0.7,0.7S915.4,596.8,915,596.8L915,596.8
					L915,596.8z"/>
			</g>
			<g>
				<path id="b_2_" class="st2" d="M930.1,609.3L930.1,609.3c-1.2,0-2.3-0.8-2.6-2c-1.2,1.6-3.1,2.6-5,2.5c-4.2,0-6.5-3.5-6.5-7.4
					s2.3-7.3,6.5-7.3c2-0.1,3.9,0.8,5,2.4v-1.3c0-0.4,0.3-0.7,0.7-0.7l0,0c0.4,0,0.7,0.3,0.7,0.7l0,0v10.5c0,1.7,1.9,0.6,1.9,1.9
					C930.9,609,930.5,609.3,930.1,609.3L930.1,609.3L930.1,609.3z M922.4,596.5c-3.1,0-5,2.5-5,5.9s2,5.9,5,5.9c3.1,0,5-2.5,5-5.9
					S925.5,596.5,922.4,596.5z"/>
			</g>
			<path class="st2" d="M944.4,603.1h-10.8c0.2,3,2.2,5.1,5,5.1c1.5,0,2.9-0.6,3.8-1.8c0.1-0.2,0.4-0.4,0.6-0.4
				c0.4,0,0.8,0.3,0.8,0.7c0,0.2,0,0.3-0.5,0.9c-1.2,1.4-2.9,2.1-4.8,2.1c-4.2,0-6.5-3.4-6.5-7.4c0-3.9,2.3-7.3,6.5-7.3
				s6.5,3.5,6.5,7.3C945.1,602.8,944.8,603.1,944.4,603.1L944.4,603.1z M938.6,596.5c-3.1,0-4.8,2.4-5,5.1h10
				C943.4,598.7,941.5,596.5,938.6,596.5L938.6,596.5z M950.3,609.4c-1.5-0.1-2.6-1.3-2.6-2.8v-15.2c0-0.4,0.3-0.7,0.7-0.7
				s0.7,0.3,0.7,0.7v15.2c0,1.7,1.8,0.7,1.8,1.9C951.1,609,950.7,609.4,950.3,609.4L950.3,609.4z M903.1,639.3
				c-0.3,0-0.5-0.2-0.6-0.4l-10.2-15v14.7c0,0.4-0.4,0.7-0.8,0.7c-0.4,0-0.7-0.3-0.7-0.7v-17.1c0-0.4,0.3-0.8,0.7-0.8
				c0.3,0,0.6,0.1,0.7,0.4l10.2,15v-14.6c0-0.4,0.3-0.7,0.7-0.7s0.7,0.3,0.7,0.7v17.1C903.8,639,903.5,639.3,903.1,639.3
				L903.1,639.3z M908.5,639.3c-0.8,0-1.5-0.7-1.5-1.5s0.7-1.5,1.5-1.5s1.5,0.7,1.5,1.5l0,0C910,638.6,909.3,639.3,908.5,639.3
				L908.5,639.3z"/>
			<g>
				<path id="g" class="st2" d="M930.1,639.3c-0.3,0-0.5-0.2-0.6-0.4l-4.7-9.7l-4.3,5.3v4.1c0,0.4-0.3,0.7-0.7,0.7c0,0,0,0-0.1,0
					c-0.4,0-0.7-0.3-0.8-0.7c0,0,0,0,0-0.1v-17.1c0-0.4,0.3-0.7,0.7-0.7c0,0,0,0,0.1,0c0.4,0,0.7,0.3,0.7,0.7l0,0V632l8.9-11.1
					c0.1-0.2,0.3-0.3,0.5-0.3c0.4,0,0.8,0.3,0.8,0.8c0,0.2-0.1,0.4-0.2,0.5l-4.8,5.9l5,10.3c0,0.1,0.1,0.2,0.1,0.3
					C930.8,639,930.5,639.3,930.1,639.3L930.1,639.3z"/>
			</g>
			<path class="st2" d="M937.9,639.7c-4.2,0-6.5-3.4-6.5-7.4c0-3.9,2.3-7.3,6.5-7.3s6.5,3.4,6.5,7.3
				C944.4,636.3,942,639.7,937.9,639.7z M937.9,626.5c-3.1,0-5,2.5-5,5.8s2,5.9,5,5.9c3.1,0,5-2.5,5-5.9S941,626.5,937.9,626.5z"/>
			<g>
				<path id="c_2_" class="st2" d="M952.9,626.8c-2.5,0-4.4,2-4.4,4.4l0,0v7.4c0,0.4-0.3,0.7-0.7,0.7s-0.7-0.3-0.7-0.7v-12.3
					c0-0.4,0.3-0.7,0.7-0.7s0.7,0.3,0.7,0.7v1.1c1.1-1.3,2.7-2,4.4-2c0.4,0,0.7,0.3,0.7,0.7S953.3,626.8,952.9,626.8L952.9,626.8
					L952.9,626.8z"/>
			</g>
			<g>
				<path id="e_1_" class="st2" d="M966.1,633.1h-10.8c0.2,3,2.2,5.1,5,5.1c1.5,0,2.9-0.6,3.8-1.8c0.1-0.2,0.4-0.4,0.6-0.4
					c0.4,0,0.8,0.3,0.8,0.7c0,0.2,0,0.3-0.5,0.9c-1.2,1.4-2.9,2.1-4.8,2.1c-4.2,0-6.5-3.4-6.5-7.4c0-3.9,2.3-7.3,6.5-7.3
					s6.5,3.5,6.5,7.3C966.9,632.8,966.5,633.1,966.1,633.1L966.1,633.1z M960.3,626.5c-3.1,0-4.8,2.4-5,5.1h10
					C965.1,628.7,963.2,626.5,960.3,626.5L960.3,626.5z"/>
			</g>
			<g>
				<path id="d_1_" class="st2" d="M983,639.3L983,639.3c-1.2,0-2.3-0.8-2.6-2c-1.2,1.6-3.1,2.6-5,2.5c-4.2,0-6.5-3.5-6.5-7.4
					s2.3-7.3,6.5-7.3c2-0.1,3.9,0.8,5,2.4v-1.3c0-0.4,0.3-0.7,0.7-0.7l0,0c0.4,0,0.7,0.3,0.7,0.7l0,0v10.5c0,1.7,1.9,0.6,1.9,1.9
					C983.8,639,983.5,639.3,983,639.3C983.1,639.3,983,639.3,983,639.3L983,639.3z M975.4,626.5c-3.1,0-5,2.5-5,5.8s2,5.9,5,5.9
					c3.1,0,5-2.5,5-5.9S978.5,626.5,975.4,626.5z"/>
			</g>
			<path class="st2" d="M898.6,661.3h-6.3v7.3c0,0.4-0.4,0.7-0.8,0.7c-0.4,0-0.7-0.3-0.7-0.7v-17.1c0-0.4,0.4-0.7,0.8-0.7h7
				c2.9,0,5.3,2.3,5.3,5.2S901.5,661.3,898.6,661.3L898.6,661.3z M898.6,652.2h-6.3v7.6h6.3c2.1,0,3.8-1.7,3.8-3.8
				C902.4,653.9,900.7,652.2,898.6,652.2L898.6,652.2z"/>
			<g>
				<path id="d_2_" class="st2" d="M920.4,669.3L920.4,669.3c-1.2,0-2.3-0.8-2.6-2c-1.2,1.6-3.1,2.6-5,2.5c-4.2,0-6.5-3.5-6.5-7.4
					s2.3-7.3,6.5-7.3c2-0.1,3.9,0.8,5,2.4v-1.3c0-0.4,0.3-0.7,0.7-0.7l0,0c0.4,0,0.7,0.3,0.7,0.7l0,0v10.5c0,1.7,1.9,0.6,1.9,1.9
					C921.2,669,920.9,669.3,920.4,669.3C920.5,669.3,920.4,669.3,920.4,669.3L920.4,669.3z M912.8,656.5c-3.1,0-5,2.5-5,5.8
					s2,5.9,5,5.9c3.1,0,5-2.5,5-5.9S915.9,656.5,912.8,656.5z"/>
			</g>
			<path class="st2" d="M932.7,656.8l-4.5,4.5l4.4,6.9c0.1,0.1,0.1,0.3,0.2,0.4c0,0.4-0.4,0.7-0.8,0.7c-0.3,0-0.5-0.1-0.6-0.3
				l-4.3-6.6l-2.7,2.7v3.6c0,0.4-0.3,0.7-0.7,0.7s-0.7-0.3-0.7-0.7v-17.1c0-0.4,0.3-0.7,0.7-0.7s0.7,0.3,0.7,0.7V663l7.2-7.2
				c0.1-0.2,0.3-0.2,0.5-0.2c0.4,0,0.7,0.3,0.8,0.7C933,656.4,932.9,656.6,932.7,656.8L932.7,656.8z M935.7,653
				c-0.8,0-1.5-0.7-1.5-1.5s0.7-1.5,1.5-1.5s1.5,0.7,1.5,1.5l0,0C937.2,652.3,936.6,653,935.7,653C935.8,653,935.7,653,935.7,653z
				 M935.7,669.3c-0.4,0-0.7-0.3-0.8-0.7c0,0,0,0,0-0.1v-12.3c0-0.4,0.3-0.7,0.7-0.7c0,0,0,0,0.1,0c0.4,0,0.7,0.3,0.7,0.7l0,0v12.3
				C936.5,668.9,936.2,669.3,935.7,669.3C935.8,669.3,935.8,669.3,935.7,669.3z M944,669.8c-1.6,0-4.2-0.5-5.1-2.1
				c-0.1-0.1-0.1-0.3-0.1-0.4c0-0.4,0.2-0.7,0.6-0.8c0.3,0,0.6,0.1,0.7,0.4c1,1,2.4,1.5,3.9,1.4c2.5,0,3.8-0.8,3.8-2.5
				c0-3.9-8.5-1.8-8.5-7c0-2.6,2.6-3.6,5-3.6c1.6,0,3.2,0.5,4.5,1.5c0.1,0.1,0.2,0.3,0.2,0.5c0,0.4-0.4,0.8-0.8,0.8
				c-0.2,0-0.4-0.1-0.5-0.2c-1-0.8-2.2-1.1-3.4-1.1c-2.3,0-3.5,0.9-3.5,2.2c0,3.6,8.5,1.7,8.5,7C949.3,668.7,946.7,669.8,944,669.8
				L944,669.8z M956.2,669.3h-0.8c-2.1,0-3.1-1-3.1-3V657H951c-0.4,0-0.7-0.3-0.7-0.7s0.3-0.7,0.7-0.7h1.3v-4c0-0.4,0.3-0.7,0.7-0.7
				l0,0c0.4,0,0.7,0.3,0.7,0.7l0,0v4h2.4c0.4,0,0.7,0.3,0.7,0.7s-0.3,0.7-0.7,0.7h-2.4v9.3c0,1.3,0.4,1.6,1.6,1.6h0.8
				c0.4,0,0.7,0.3,0.7,0.7C957,669,956.6,669.3,956.2,669.3L956.2,669.3z"/>
			<g>
				<path id="b_3_" class="st2" d="M972.4,669.3L972.4,669.3c-1.2,0-2.3-0.8-2.6-2c-1.2,1.6-3.1,2.6-5,2.5c-4.2,0-6.5-3.5-6.5-7.4
					s2.3-7.3,6.5-7.3c2-0.1,3.9,0.8,5,2.4v-1.3c0-0.4,0.3-0.7,0.7-0.7l0,0c0.4,0,0.7,0.3,0.7,0.7l0,0v10.5c0,1.7,1.9,0.6,1.9,1.9
					C973.1,669,972.8,669.3,972.4,669.3L972.4,669.3L972.4,669.3z M964.7,656.5c-3.1,0-5,2.5-5,5.9s2,5.9,5,5.9c3.1,0,5-2.5,5-5.9
					S967.8,656.5,964.7,656.5z"/>
			</g>
			<g>
				<path id="a_3_" class="st2" d="M986.1,669.3c-0.4,0-0.7-0.3-0.8-0.7l0,0V661c0-2.5-2-4.4-4.4-4.4s-4.4,2-4.4,4.4v7.6
					c0,0.4-0.3,0.7-0.7,0.7c-0.4,0-0.7-0.3-0.7-0.7v-12.4c0-0.4,0.3-0.7,0.7-0.7c0.4,0,0.7,0.3,0.7,0.7v0.8c2.2-2.5,5.9-2.7,8.4-0.5
					c1.3,1.1,2,2.7,2,4.4v7.6C986.8,669,986.5,669.3,986.1,669.3L986.1,669.3L986.1,669.3z"/>
			</g>
			<path class="st2" d="M897.2,699.8c-3.6,0-6.5-2.9-6.5-6.5l0,0v-11.7c0-0.4,0.3-0.8,0.8-0.8c0.4,0,0.8,0.3,0.8,0.8v11.7
				c0,2.8,2.3,5,5,5s5-2.3,5-5v-11.7c0-0.4,0.3-0.7,0.7-0.7s0.7,0.3,0.7,0.7v11.7C903.7,696.8,900.8,699.8,897.2,699.8L897.2,699.8
				L897.2,699.8z"/>
			<g>
				<path id="g_1_" class="st2" d="M917.8,699.3c-0.3,0-0.5-0.2-0.6-0.4l-4.7-9.7l-4.3,5.3v4.1c0,0.4-0.3,0.7-0.7,0.7c0,0,0,0-0.1,0
					c-0.4,0-0.7-0.3-0.8-0.7c0,0,0,0,0-0.1v-17.1c0-0.4,0.3-0.7,0.7-0.7c0,0,0,0,0.1,0c0.4,0,0.7,0.3,0.7,0.7l0,0V692l8.9-11.1
					c0.1-0.2,0.3-0.3,0.5-0.3c0.4,0,0.8,0.3,0.8,0.8c0,0.2-0.1,0.4-0.2,0.5l-4.8,5.9l5,10.3c0,0.1,0.1,0.2,0.1,0.3
					C918.5,699,918.2,699.3,917.8,699.3L917.8,699.3z"/>
			</g>
			<path class="st2" d="M896.6,484.6c-5.2,0-8-4.2-8-9.1c0-4.8,2.9-9,8-9s8,4.2,8,9C904.7,480.4,901.8,484.6,896.6,484.6z
				 M896.6,469.2c-3.2,0-5.3,2.5-5.3,6.3s2.1,6.3,5.3,6.3s5.3-2.5,5.3-6.3C901.9,471.7,899.9,469.2,896.6,469.2z M913.2,484.1h-0.5
				c-3,0-4.2-1.6-4.2-4.2v-10h-1c-0.8,0-1.4-0.6-1.4-1.3c0-0.8,0.6-1.4,1.3-1.4l0,0h1v-4.4c0-0.7,0.5-1.3,1.3-1.3h0.1
				c0.7,0,1.3,0.5,1.3,1.2v0.1v4.4h2c0.7,0,1.3,0.6,1.3,1.3l0,0c0,0.7-0.5,1.3-1.2,1.4h-0.1h-2v10.3c0,0.9,0.3,1.2,1.2,1.2h0.8
				c0.7,0,1.3,0.5,1.4,1.3v0.1c0,0.7-0.5,1.3-1.2,1.4C913.3,484.1,913.3,484.1,913.2,484.1L913.2,484.1z M930,484.1
				c-0.7,0-1.3-0.5-1.3-1.2v-0.1v-8.9c0-2.5-2-4.6-4.5-4.6s-4.6,2-4.6,4.5v0.1v8.9c0,0.8-0.6,1.4-1.3,1.4h-0.1
				c-0.7,0-1.3-0.6-1.3-1.3v-0.1v-20.1c0-0.8,0.6-1.4,1.4-1.4c0.8,0,1.4,0.6,1.4,1.4l0,0v5.5c1.2-1.1,2.9-1.7,4.5-1.6
				c4,0,7.3,3.3,7.3,7.3v8.9c0,0.7-0.5,1.3-1.2,1.4C930.1,484.1,930.1,484.1,930,484.1L930,484.1z M949,477h-11.8
				c0.5,3,2.4,4.9,5.2,4.9c1.5,0.1,2.9-0.6,3.8-1.7c0.2-0.3,0.6-0.5,1-0.5c0.8,0,1.4,0.6,1.4,1.4c0,0.4-0.1,0.7-0.8,1.3
				c-1.5,1.4-3.4,2.2-5.5,2.1c-5.2,0-8-4.3-8-9.1c0-4.8,2.9-9,8-9c5.2,0,8,4.3,8,9C950.3,476.3,949.7,476.9,949,477L949,477L949,477
				z M942.3,469.3c-3,0-4.8,2.2-5.2,5h10.4C947,471.1,945.1,469.3,942.3,469.3L942.3,469.3z M960.4,469.3c-2.5,0-4.5,2.1-4.5,4.6
				v8.9c0,0.7-0.6,1.4-1.3,1.4h-0.1c-0.7,0-1.3-0.6-1.3-1.3c0,0,0,0,0-0.1v-14.3c0-0.7,0.6-1.4,1.3-1.4l0,0c0.7,0,1.3,0.4,1.4,1.1
				c1.3-1,2.9-1.6,4.6-1.6c0.8,0,1.4,0.6,1.4,1.3c0,0.8-0.6,1.4-1.3,1.4C960.5,469.3,960.5,469.3,960.4,469.3L960.4,469.3z"/>
		</g>
		<g class="st7">
			<path class="st2" d="M151.7,799.8c-0.6,0-1.1-0.3-1.4-0.8l-8.7-12.2h-5.4V798c0,1-0.7,1.8-1.7,1.8c-0.1,0-0.1,0-0.2,0
				c-0.9,0-1.7-0.7-1.8-1.7V798v-26.3c0-1,0.7-1.8,1.7-1.8h0.1h10.9c4.7,0,8.5,3.8,8.4,8.5c0,4.4-3.4,8-7.7,8.4l7.4,10.1
				c0.3,0.3,0.4,0.7,0.4,1.1C153.6,799.1,152.7,799.9,151.7,799.8L151.7,799.8z M145.2,773.5h-9v9.8h8.9c2.7,0,4.9-2.2,4.9-5
				C149.9,775.7,147.8,773.5,145.2,773.5L145.2,773.5z M174.8,799.8c-0.9,0-1.6-0.5-1.8-1.4c-1.7,1.4-3.9,2.1-6,2.1
				c-5.3,0-9.5-4.3-9.6-9.6v-11.6c0-1,0.8-1.8,1.8-1.8s1.8,0.8,1.8,1.8V791c0,3.3,2.7,6,6,6s6-2.7,6-6l0,0v-11.6
				c-0.1-0.9,0.6-1.7,1.5-1.8c0.1,0,0.2,0,0.3,0c0.9,0,1.8,0.7,1.8,1.6c0,0.1,0,0.1,0,0.2v18.8c0.1,0.9-0.7,1.7-1.6,1.8
				C174.9,799.9,174.9,799.9,174.8,799.8L174.8,799.8z M188.7,800.5c-2.3,0-6.2-0.7-8.1-3.2c-0.6-0.8-0.5-2,0.4-2.6
				c0.3-0.3,0.7-0.4,1.2-0.4s1,0.3,1.3,0.7c1.3,1.4,3.4,1.8,5.3,1.8c3.8,0,5-1.3,5-3.2c0-5.4-12.8-2.1-12.8-10.7
				c0-4.6,4.3-6.3,8.3-6.3c2.3,0,7.6,1.1,7.6,3.5c0,1-0.8,1.8-1.8,1.9c-0.5,0-1-0.2-1.4-0.5c-1.3-0.9-2.9-1.4-4.5-1.3
				c-3.5,0-4.7,1.3-4.7,2.7c0,5,12.9,1.8,12.9,10.7C197.3,798.7,193.2,800.5,188.7,800.5L188.7,800.5z M207.8,800.5
				c-2.3,0-6.2-0.7-8.1-3.2c-0.6-0.8-0.5-2,0.4-2.6c0.3-0.3,0.7-0.4,1.2-0.4s1,0.3,1.3,0.7c1.3,1.4,3.4,1.8,5.3,1.8
				c3.8,0,5-1.3,5-3.2c0-5.4-12.8-2.1-12.8-10.7c0-4.6,4.3-6.3,8.3-6.3c2.3,0,7.6,1.1,7.6,3.5c0,1-0.8,1.8-1.8,1.9
				c-0.5,0-1-0.2-1.4-0.5c-1.3-0.9-2.9-1.4-4.5-1.3c-3.5,0-4.7,1.3-4.7,2.7c0,5,12.9,1.8,12.9,10.7
				C216.4,798.7,212.3,800.5,207.8,800.5L207.8,800.5z M221.8,774.1c-1.7,0-3-1.4-3-3c0-1.7,1.4-3,3-3c1.7,0,3,1.4,3,3
				C224.9,772.7,223.5,774.1,221.8,774.1C221.9,774.1,221.9,774.1,221.8,774.1z M221.8,799.8c-1,0-1.8-0.7-1.8-1.7V798v-18.7
				c0-1,0.8-1.8,1.7-1.8h0.1c1,0,1.7,0.7,1.8,1.7v0.1V798c0,0.9-0.7,1.7-1.6,1.8C221.9,799.8,221.9,799.8,221.8,799.8L221.8,799.8z
				 M249.6,799.8c-1.6,0-3.1-0.9-3.7-2.4c-1.9,2.1-4.6,3.2-7.4,3.1c-6.8,0-10.5-5.6-10.5-11.9s3.8-11.8,10.5-11.8
				c2.6-0.1,5.1,0.9,6.9,2.8v-0.2c-0.1-1,0.6-1.8,1.6-1.9c0.1,0,0.1,0,0.2,0c0.9-0.1,1.8,0.6,1.8,1.5c0,0.1,0,0.2,0,0.2v16.2
				c0,0.4,0.2,0.7,0.6,0.8c1,0,1.8,0.8,1.8,1.7C251.5,799,250.7,799.8,249.6,799.8C249.7,799.8,249.6,799.8,249.6,799.8L249.6,799.8
				z M238.5,780.4c-4.2,0-6.9,3.3-6.9,8.3s2.7,8.3,6.9,8.3s6.9-3.3,6.9-8.3C245.4,783.6,242.7,780.4,238.5,780.4z"/>
		</g>
	</g>
</g>
</svg>
