<?xml version="1.0" encoding="utf-8"?>
<!-- Generator: Adobe Illustrator 23.0.1, SVG Export Plug-In . SVG Version: 6.00 Build 0)  -->
<svg version="1.1" id="Layer_1" xmlns="http://www.w3.org/2000/svg" xmlns:xlink="http://www.w3.org/1999/xlink" x="0px" y="0px"
	 viewBox="0 0 1920 1080" style="enable-background:new 0 0 1920 1080;" xml:space="preserve">
<style type="text/css">
	.st0{fill:#FFF5E3;}
	.st1{fill:#EE3E23;}
	.st2{fill:#FDC659;}
	.st3{fill:#EF3E23;}
	.st4{fill:#333132;}
</style>
<rect class="st0" width="1920" height="1080"/>
<g>
	<rect x="1345.56" y="407.96" class="st1" width="25.49" height="566.76"/>
	<rect x="541.62" y="105.24" class="st2" width="25.49" height="869.48"/>
	<rect x="823.96" y="105.24" class="st2" width="25.57" height="869.48"/>
	<rect x="1135.22" y="105.24" class="st2" width="25.65" height="869.48"/>
	<rect x="1166.64" y="105.24" class="st2" width="25.49" height="869.48"/>
	<rect x="1197.93" y="105.24" class="st2" width="25.57" height="869.48"/>
	<rect x="1229.31" y="105.24" class="st2" width="25.49" height="869.48"/>
	<rect x="193.69" y="105.24" class="st2" width="25.65" height="869.48"/>
	<rect x="1604.78" y="105.24" class="st2" width="25.65" height="869.48"/>
	<rect x="1772.12" y="105.24" class="st2" width="25.65" height="869.48"/>
	<rect x="1565.92" y="105.24" class="st2" width="25.65" height="869.48"/>
	<rect x="118.23" y="105.24" class="st2" width="25.65" height="869.48"/>
	<rect x="333.48" y="105.24" class="st2" width="25.49" height="869.48"/>
	<rect x="364.78" y="105.24" class="st2" width="25.57" height="869.48"/>
	<rect x="396.15" y="105.24" class="st2" width="25.49" height="869.48"/>
	<rect x="1296.11" y="105.24" class="st2" width="25.49" height="869.48"/>
	<rect x="1435.44" y="105.24" class="st2" width="25.57" height="869.48"/>
	<rect x="1479.85" y="105.24" class="st2" width="25.65" height="869.48"/>
	<g>
		<g>
			<path class="st3" d="M1186.54,374.46c0,95.17,77.17,172.35,172.39,172.35c95.05,0,172.23-77.17,172.23-172.35
				c0-95.06-77.17-172.28-172.23-172.28C1263.71,202.18,1186.54,279.39,1186.54,374.46z"/>
		</g>
	</g>
	<polygon class="st4" points="1358.31,689.24 1177.56,974.76 1539.07,974.76 	"/>
	<rect x="995.19" y="105.24" class="st2" width="25.65" height="869.48"/>
	<rect x="1026.6" y="105.24" class="st2" width="25.49" height="869.48"/>
	<polygon class="st4" points="965.94,689.24 785.18,974.76 1146.69,974.76 	"/>
	<polygon class="st4" points="1277.1,689.24 1096.35,974.76 1458.01,974.76 	"/>
	<polygon class="st4" points="443.04,689.24 262.29,974.76 623.8,974.76 	"/>
	<rect x="684.82" y="105.24" class="st2" width="25.65" height="869.48"/>
	<rect x="716.23" y="105.24" class="st2" width="25.49" height="869.48"/>
</g>
<polygon class="st4" points="1656.81,689.24 1476.05,974.76 1837.56,974.76 "/>
</svg>
