<svg id="Layer_1" data-name="Layer 1" xmlns="http://www.w3.org/2000/svg" viewBox="0 0 1280 248.21"><defs><style>.cls-1{fill:#333132;}.cls-2{fill:#fdc659;}.cls-3{fill:#fff5e3;}</style></defs><title>yg-umbro-wireframes-170817-2130--slicing</title><path class="cls-1" d="M228.48,180.08H224.7v9.78h-1.81v-9.78H219.1V178.5h9.38Z"/><path class="cls-1" d="M237.79,188.27v1.58H230V178.5h7.65v1.58h-5.86v3.23h5.07v1.49h-5.07v3.47Z"/><path class="cls-1" d="M243,178.5h1.57L249,189.86h-1.89l-1.2-3.09h-4.38l-1.18,3.09h-1.9Zm2.61,6.94-1.82-4.88-1.89,4.88Z"/><path class="cls-1" d="M260,189.86v-8.18l-3.38,6.19h-1l-3.39-6.19v8.18h-1.79V178.5h1.92l3.76,6.94,3.76-6.94h1.92v11.36Z"/><path class="cls-1" d="M274.19,188.27v1.58h-6.11v-1.58h2.27v-5.58a1.88,1.88,0,0,1-.45.4,5,5,0,0,1-.67.38,5.31,5.31,0,0,1-.77.3,2.5,2.5,0,0,1-.7.12v-1.65a1.85,1.85,0,0,0,.74-.19,6.05,6.05,0,0,0,.82-.45,6.35,6.35,0,0,0,.69-.51,1.42,1.42,0,0,0,.34-.37h1.81v7.55Z"/><path class="cls-1" d="M227.23,232.69h-3.78v9.78h-1.81v-9.78h-3.79v-1.58h9.38Z"/><path class="cls-1" d="M236.54,240.89v1.58h-7.79V231.11h7.65v1.58h-5.86v3.23h5.07v1.49h-5.07v3.47Z"/><path class="cls-1" d="M241.74,231.11h1.57l4.48,11.36H245.9l-1.2-3.09h-4.38l-1.18,3.09h-1.9Zm2.61,6.94-1.82-4.88-1.89,4.88Z"/><path class="cls-1" d="M258.75,242.47v-8.18l-3.38,6.19h-1L251,234.29v8.18H249.2V231.11h1.92l3.76,6.94,3.76-6.94h1.92v11.36Z"/><path class="cls-1" d="M266.43,242.47a6.5,6.5,0,0,1,.11-1.25,3.5,3.5,0,0,1,.4-1.08,4,4,0,0,1,.78-1,6.62,6.62,0,0,1,1.28-.89l1.06-.56a9.35,9.35,0,0,0,.87-.5,2.57,2.57,0,0,0,.6-.53,1,1,0,0,0,.22-.65,1.23,1.23,0,0,0-.44-.92,1.81,1.81,0,0,0-1.27-.41,2.49,2.49,0,0,0-.79.12,3.1,3.1,0,0,0-.66.3,2.88,2.88,0,0,0-.52.41q-.22.22-.4.43l-1.12-1.3a4,4,0,0,1,.5-.44,5,5,0,0,1,.83-.5,6.12,6.12,0,0,1,1.11-.41,5.22,5.22,0,0,1,1.36-.17,4.47,4.47,0,0,1,1.38.2,3.13,3.13,0,0,1,1,.55,2.37,2.37,0,0,1,.65.84,2.48,2.48,0,0,1,.22,1,2.26,2.26,0,0,1-.24,1.06,3.27,3.27,0,0,1-.59.82,4,4,0,0,1-.77.6q-.42.25-.77.42l-.76.38a6.9,6.9,0,0,0-.82.5,5.4,5.4,0,0,0-.72.6,1.79,1.79,0,0,0-.45.7h5.3v1.58Z"/><rect class="cls-2" x="303.32" y="137.23" width="1.54" height="52.62"/><rect class="cls-2" x="305.28" y="137.23" width="1.54" height="52.62"/><rect class="cls-2" x="306.84" y="137.23" width="1.55" height="52.62"/><rect class="cls-2" x="308.15" y="137.23" width="1.54" height="52.62"/><rect class="cls-2" x="310.75" y="137.23" width="1.55" height="52.62"/><rect class="cls-2" x="316.23" y="137.23" width="1.54" height="52.62"/><rect class="cls-2" x="316.49" y="137.23" width="1.54" height="52.62"/><rect class="cls-2" x="358.63" y="137.23" width="1.54" height="52.62"/><rect class="cls-2" x="365.03" y="137.23" width="1.54" height="52.62"/><rect class="cls-2" x="384.47" y="137.23" width="1.54" height="52.62"/><rect class="cls-2" x="386.94" y="137.23" width="1.55" height="52.62"/><rect class="cls-2" x="392.17" y="137.23" width="1.54" height="52.62"/><rect class="cls-2" x="394.25" y="137.23" width="1.55" height="52.62"/><rect class="cls-2" x="398.03" y="137.23" width="1.55" height="52.62"/><rect class="cls-2" x="404.68" y="137.23" width="1.55" height="52.62"/><rect class="cls-2" x="409" y="137.23" width="1.54" height="52.62"/><rect class="cls-2" x="410.3" y="137.23" width="1.54" height="52.62"/><rect class="cls-2" x="411.99" y="137.23" width="1.55" height="52.62"/><rect class="cls-2" x="413.95" y="137.23" width="1.54" height="52.62"/><rect class="cls-2" x="416.82" y="137.23" width="1.54" height="52.62"/><rect class="cls-2" x="417.21" y="137.23" width="1.55" height="52.62"/><rect class="cls-2" x="424.39" y="137.23" width="1.54" height="52.62"/><rect class="cls-2" x="425.95" y="137.23" width="1.55" height="52.62"/><rect class="cls-2" x="427.52" y="137.23" width="1.54" height="52.62"/><rect class="cls-2" x="463.39" y="137.23" width="1.55" height="52.62"/><rect class="cls-2" x="466.01" y="137.23" width="1.54" height="52.62"/><rect class="cls-2" x="468.62" y="137.23" width="1.54" height="52.62"/><rect class="cls-2" x="479.83" y="137.23" width="1.54" height="52.62"/><rect class="cls-2" x="481.41" y="137.23" width="1.54" height="52.62"/><rect class="cls-2" x="482.97" y="137.23" width="1.55" height="52.62"/><rect class="cls-2" x="488.18" y="137.23" width="1.55" height="52.62"/><rect class="cls-2" x="488.31" y="137.23" width="1.55" height="52.62"/><rect class="cls-2" x="489.23" y="137.23" width="1.54" height="52.62"/><rect class="cls-2" x="491.05" y="137.23" width="1.55" height="52.62"/><rect class="cls-2" x="495.5" y="137.23" width="1.54" height="52.62"/><rect class="cls-2" x="500.84" y="137.23" width="1.54" height="52.62"/><rect class="cls-2" x="509.19" y="137.23" width="1.55" height="52.62"/><rect class="cls-2" x="510.5" y="137.23" width="1.54" height="52.62"/><rect class="cls-2" x="510.76" y="137.23" width="1.54" height="52.62"/><rect class="cls-2" x="512.32" y="137.23" width="1.55" height="52.62"/><rect class="cls-2" x="515.58" y="137.23" width="1.55" height="52.62"/><rect class="cls-2" x="517.28" y="137.23" width="1.54" height="52.62"/><rect class="cls-2" x="534.49" y="137.23" width="1.55" height="52.62"/><rect class="cls-2" x="536.84" y="137.23" width="1.55" height="52.62"/><rect class="cls-2" x="536.98" y="137.23" width="1.54" height="52.62"/><rect class="cls-2" x="538.67" y="137.23" width="1.54" height="52.62"/><rect class="cls-2" x="540.24" y="137.23" width="1.55" height="52.62"/><rect class="cls-2" x="541.55" y="137.23" width="1.54" height="52.62"/><rect class="cls-2" x="546.89" y="137.23" width="1.54" height="52.62"/><rect class="cls-2" x="556.68" y="137.23" width="1.55" height="52.62"/><rect class="cls-2" x="559.42" y="137.23" width="1.54" height="52.62"/><rect class="cls-2" x="561.89" y="137.23" width="1.55" height="52.62"/><rect class="cls-2" x="567.12" y="137.23" width="1.54" height="52.62"/><rect class="cls-2" x="579.77" y="137.23" width="1.54" height="52.62"/><rect class="cls-2" x="586.69" y="137.23" width="1.54" height="52.62"/><rect class="cls-2" x="593.86" y="137.23" width="1.54" height="52.62"/><rect class="cls-2" x="599.21" y="137.23" width="1.55" height="52.62"/><rect class="cls-2" x="604.17" y="137.23" width="1.54" height="52.62"/><rect class="cls-2" x="613.04" y="137.23" width="1.55" height="52.62"/><rect class="cls-2" x="616.43" y="137.23" width="1.55" height="52.62"/><rect class="cls-2" x="617.09" y="137.23" width="1.54" height="52.62"/><rect class="cls-2" x="618.13" y="137.23" width="1.54" height="52.62"/><rect class="cls-2" x="620.74" y="137.23" width="1.54" height="52.62"/><rect class="cls-2" x="622.43" y="137.23" width="1.55" height="52.62"/><rect class="cls-2" x="626.08" y="137.23" width="1.55" height="52.62"/><rect class="cls-2" x="633.39" y="137.23" width="1.55" height="52.62"/><rect class="cls-2" x="633.91" y="137.23" width="1.54" height="52.62"/><rect class="cls-2" x="634.44" y="137.23" width="1.54" height="52.62"/><rect class="cls-2" x="649.57" y="137.23" width="1.55" height="52.62"/><rect class="cls-2" x="661.44" y="137.23" width="1.55" height="52.62"/><rect class="cls-2" x="662.49" y="137.23" width="1.54" height="52.62"/><rect class="cls-2" x="673.71" y="137.23" width="1.54" height="52.62"/><rect class="cls-2" x="674.1" y="137.23" width="1.54" height="52.62"/><rect class="cls-2" x="675.66" y="137.23" width="1.55" height="52.62"/><rect class="cls-2" x="676.45" y="137.23" width="1.54" height="52.62"/><rect class="cls-2" x="683.49" y="137.23" width="1.54" height="52.62"/><rect class="cls-2" x="693.01" y="137.23" width="1.55" height="52.62"/><rect class="cls-2" x="695.1" y="137.23" width="1.55" height="52.62"/><rect class="cls-2" x="696.66" y="137.23" width="1.55" height="52.62"/><rect class="cls-2" x="698.36" y="137.23" width="1.55" height="52.62"/><rect class="cls-2" x="700.31" y="137.23" width="1.55" height="52.62"/><rect class="cls-2" x="709.58" y="137.23" width="1.54" height="52.62"/><rect class="cls-2" x="710.11" y="137.23" width="1.54" height="52.62"/><rect class="cls-2" x="711.93" y="137.23" width="1.54" height="52.62"/><rect class="cls-2" x="719.89" y="137.23" width="1.55" height="52.62"/><rect class="cls-2" x="721.72" y="137.23" width="1.54" height="52.62"/><rect class="cls-2" x="726.67" y="137.23" width="1.55" height="52.62"/><rect class="cls-2" x="728.89" y="137.23" width="1.54" height="52.62"/><rect class="cls-2" x="730.58" y="137.23" width="1.55" height="52.62"/><rect class="cls-2" x="736.72" y="137.23" width="1.55" height="52.62"/><rect class="cls-2" x="747.02" y="137.23" width="1.54" height="52.62"/><rect class="cls-2" x="749.64" y="137.23" width="1.54" height="52.62"/><rect class="cls-2" x="752.24" y="137.23" width="1.55" height="52.62"/><rect class="cls-2" x="753.94" y="137.23" width="1.55" height="52.62"/><rect class="cls-2" x="756.42" y="137.23" width="1.54" height="52.62"/><rect class="cls-2" x="760.47" y="137.23" width="1.54" height="52.62"/><rect class="cls-2" x="764.51" y="137.23" width="1.54" height="52.62"/><rect class="cls-2" x="765.03" y="137.23" width="1.55" height="52.62"/><rect class="cls-2" x="772.07" y="137.23" width="1.55" height="52.62"/><rect class="cls-2" x="774.16" y="137.23" width="1.54" height="52.62"/><rect class="cls-2" x="775.72" y="137.23" width="1.55" height="52.62"/><rect class="cls-2" x="787.07" y="137.23" width="1.55" height="52.62"/><rect class="cls-2" x="787.47" y="137.23" width="1.54" height="52.62"/><rect class="cls-2" x="795.3" y="137.23" width="1.54" height="52.62"/><rect class="cls-2" x="797.25" y="137.23" width="1.55" height="52.62"/><rect class="cls-2" x="798.95" y="137.23" width="1.54" height="52.62"/><rect class="cls-2" x="804.03" y="137.23" width="1.55" height="52.62"/><rect class="cls-2" x="806.52" y="137.23" width="1.54" height="52.62"/><rect class="cls-2" x="808.48" y="137.23" width="1.54" height="52.62"/><rect class="cls-2" x="823.61" y="137.23" width="1.55" height="52.62"/><rect class="cls-2" x="825.56" y="137.23" width="1.55" height="52.62"/><rect class="cls-2" x="834.7" y="137.23" width="1.55" height="52.62"/><rect class="cls-2" x="837.05" y="137.23" width="1.54" height="52.62"/><rect class="cls-2" x="839.26" y="137.23" width="1.55" height="52.62"/><rect class="cls-2" x="849.17" y="137.23" width="1.55" height="52.62"/><rect class="cls-2" x="881.93" y="137.23" width="1.54" height="52.62"/><rect class="cls-2" x="884.92" y="137.23" width="1.55" height="52.62"/><rect class="cls-2" x="887.01" y="137.23" width="1.55" height="52.62"/><rect class="cls-2" x="903.71" y="137.23" width="1.54" height="52.62"/><rect class="cls-2" x="913.5" y="137.23" width="1.54" height="52.62"/><rect class="cls-2" x="915.59" y="137.23" width="1.54" height="52.62"/><rect class="cls-2" x="936.32" y="137.23" width="1.55" height="52.62"/><rect class="cls-2" x="953.29" y="137.23" width="1.55" height="52.62"/><rect class="cls-2" x="954.6" y="137.23" width="1.54" height="52.62"/><rect class="cls-2" x="957.2" y="137.23" width="1.55" height="52.62"/><rect class="cls-2" x="959.56" y="137.23" width="1.54" height="52.62"/><rect class="cls-2" x="963.2" y="137.23" width="1.55" height="52.62"/><rect class="cls-2" x="967.64" y="137.23" width="1.54" height="52.62"/><rect class="cls-2" x="968.68" y="137.23" width="1.54" height="52.62"/><rect class="cls-2" x="971.3" y="137.23" width="1.54" height="52.62"/><rect class="cls-2" x="978.07" y="137.23" width="1.55" height="52.62"/><rect class="cls-2" x="983.03" y="137.23" width="1.54" height="52.62"/><rect class="cls-2" x="986.17" y="137.23" width="1.54" height="52.62"/><rect class="cls-2" x="987.86" y="137.23" width="1.55" height="52.62"/><rect class="cls-2" x="994.38" y="137.23" width="1.55" height="52.62"/><rect class="cls-2" x="997.77" y="137.23" width="1.55" height="52.62"/><rect class="cls-2" x="1001.82" y="137.23" width="1.55" height="52.62"/><rect class="cls-2" x="1009.39" y="137.23" width="1.54" height="52.62"/><rect class="cls-2" x="1011.34" y="137.23" width="1.55" height="52.62"/><rect class="cls-2" x="1021.78" y="137.23" width="1.55" height="52.62"/><rect class="cls-2" x="311.14" y="189.86" width="1.55" height="52.61"/><rect class="cls-2" x="311.8" y="189.86" width="1.54" height="52.61"/><rect class="cls-2" x="313.88" y="189.86" width="1.55" height="52.61"/><rect class="cls-2" x="315.98" y="189.86" width="1.54" height="52.61"/><rect class="cls-2" x="317.54" y="189.86" width="1.54" height="52.61"/><rect class="cls-2" x="317.81" y="189.86" width="1.54" height="52.61"/><rect class="cls-2" x="319.37" y="189.86" width="1.54" height="52.61"/><rect class="cls-2" x="326.41" y="189.86" width="1.54" height="52.61"/><rect class="cls-2" x="330.32" y="189.86" width="1.54" height="52.61"/><rect class="cls-2" x="332.81" y="189.86" width="1.54" height="52.61"/><rect class="cls-2" x="357.2" y="189.86" width="1.54" height="52.61"/><rect class="cls-2" x="359.28" y="189.86" width="1.55" height="52.61"/><rect class="cls-2" x="367.38" y="189.86" width="1.54" height="52.61"/><rect class="cls-2" x="368.81" y="189.86" width="1.54" height="52.61"/><rect class="cls-2" x="369.59" y="189.86" width="1.55" height="52.61"/><rect class="cls-2" x="374.94" y="189.86" width="1.54" height="52.61"/><rect class="cls-2" x="377.94" y="189.86" width="1.55" height="52.61"/><rect class="cls-2" x="379.51" y="189.86" width="1.54" height="52.61"/><rect class="cls-2" x="380.16" y="189.86" width="1.55" height="52.61"/><rect class="cls-2" x="385.64" y="189.86" width="1.54" height="52.61"/><rect class="cls-2" x="402.6" y="189.86" width="1.54" height="52.61"/><rect class="cls-2" x="404.17" y="189.86" width="1.54" height="52.61"/><rect class="cls-2" x="406.26" y="189.86" width="1.54" height="52.61"/><rect class="cls-2" x="418.64" y="189.86" width="1.55" height="52.61"/><rect class="cls-2" x="421.52" y="189.86" width="1.55" height="52.61"/><rect class="cls-2" x="431.04" y="189.86" width="1.54" height="52.61"/><rect class="cls-2" x="434.57" y="189.86" width="1.54" height="52.61"/><rect class="cls-2" x="436.13" y="189.86" width="1.55" height="52.61"/><rect class="cls-2" x="439.78" y="189.86" width="1.54" height="52.61"/><rect class="cls-2" x="440.43" y="189.86" width="1.55" height="52.61"/><rect class="cls-2" x="441.87" y="189.86" width="1.54" height="52.61"/><rect class="cls-2" x="451.13" y="189.86" width="1.54" height="52.61"/><rect class="cls-2" x="453.35" y="189.86" width="1.55" height="52.61"/><rect class="cls-2" x="461.31" y="189.86" width="1.54" height="52.61"/><rect class="cls-2" x="462.35" y="189.86" width="1.54" height="52.61"/><rect class="cls-2" x="464.58" y="189.86" width="1.54" height="52.61"/><rect class="cls-2" x="464.83" y="189.86" width="1.54" height="52.61"/><rect class="cls-2" x="466.14" y="189.86" width="1.54" height="52.61"/><rect class="cls-2" x="466.4" y="189.86" width="1.54" height="52.61"/><rect class="cls-2" x="467.44" y="189.86" width="1.55" height="52.61"/><rect class="cls-2" x="469.53" y="189.86" width="1.54" height="52.61"/><rect class="cls-2" x="471.23" y="189.86" width="1.54" height="52.61"/><rect class="cls-2" x="477.35" y="189.86" width="1.54" height="52.61"/><rect class="cls-2" x="484.14" y="189.86" width="1.55" height="52.61"/><rect class="cls-2" x="485.84" y="189.86" width="1.54" height="52.61"/><rect class="cls-2" x="487.79" y="189.86" width="1.55" height="52.61"/><rect class="cls-2" x="503.58" y="189.86" width="1.54" height="52.61"/><rect class="cls-2" x="509.72" y="189.86" width="1.54" height="52.61"/><rect class="cls-2" x="511.67" y="189.86" width="1.54" height="52.61"/><rect class="cls-2" x="514.41" y="189.86" width="1.55" height="52.61"/><rect class="cls-2" x="516.63" y="189.86" width="1.54" height="52.61"/><rect class="cls-2" x="525.5" y="189.86" width="1.55" height="52.61"/><rect class="cls-2" x="527.07" y="189.86" width="1.54" height="52.61"/><rect class="cls-2" x="536.45" y="189.86" width="1.55" height="52.61"/><rect class="cls-2" x="539.46" y="189.86" width="1.55" height="52.61"/><rect class="cls-2" x="543.37" y="189.86" width="1.55" height="52.61"/><rect class="cls-2" x="547.28" y="189.86" width="1.55" height="52.61"/><rect class="cls-2" x="551.2" y="189.86" width="1.54" height="52.61"/><rect class="cls-2" x="552.89" y="189.86" width="1.54" height="52.61"/><rect class="cls-2" x="555.12" y="189.86" width="1.54" height="52.61"/><rect class="cls-2" x="558.11" y="189.86" width="1.55" height="52.61"/><rect class="cls-2" x="571.56" y="189.86" width="1.54" height="52.61"/><rect class="cls-2" x="573.38" y="189.86" width="1.54" height="52.61"/><rect class="cls-2" x="575.34" y="189.86" width="1.54" height="52.61"/><rect class="cls-2" x="587.6" y="189.86" width="1.54" height="52.61"/><rect class="cls-2" x="588.38" y="189.86" width="1.54" height="52.61"/><rect class="cls-2" x="589.69" y="189.86" width="1.54" height="52.61"/><rect class="cls-2" x="592.16" y="189.86" width="1.55" height="52.61"/><rect class="cls-2" x="592.56" y="189.86" width="1.54" height="52.61"/><rect class="cls-2" x="593.99" y="189.86" width="1.55" height="52.61"/><rect class="cls-2" x="600.12" y="189.86" width="1.55" height="52.61"/><rect class="cls-2" x="610.42" y="189.86" width="1.55" height="52.61"/><rect class="cls-2" x="615.39" y="189.86" width="1.55" height="52.61"/><rect class="cls-2" x="617.34" y="189.86" width="1.55" height="52.61"/><rect class="cls-2" x="624.52" y="189.86" width="1.54" height="52.61"/><rect class="cls-2" x="629.48" y="189.86" width="1.55" height="52.61"/><rect class="cls-2" x="630.92" y="189.86" width="1.54" height="52.61"/><rect class="cls-2" x="635.61" y="189.86" width="1.54" height="52.61"/><rect class="cls-2" x="656.74" y="189.86" width="1.55" height="52.61"/><rect class="cls-2" x="658.32" y="189.86" width="1.54" height="52.61"/><rect class="cls-2" x="661.31" y="189.86" width="1.55" height="52.61"/><rect class="cls-2" x="655.56" y="189.86" width="1.55" height="52.61"/><rect class="cls-2" x="657.27" y="189.86" width="1.55" height="52.61"/><rect class="cls-2" x="658.97" y="189.86" width="1.54" height="52.61"/><rect class="cls-2" x="660.66" y="189.86" width="1.55" height="52.61"/><rect class="cls-2" x="663.14" y="189.86" width="1.54" height="52.61"/><rect class="cls-2" x="664.18" y="189.86" width="1.54" height="52.61"/><rect class="cls-2" x="666.14" y="189.86" width="1.54" height="52.61"/><rect class="cls-2" x="671.62" y="189.86" width="1.55" height="52.61"/><rect class="cls-2" x="672.41" y="189.86" width="1.54" height="52.61"/><rect class="cls-2" x="684.27" y="189.86" width="1.54" height="52.61"/><rect class="cls-2" x="686.37" y="189.86" width="1.54" height="52.61"/><rect class="cls-2" x="687.93" y="189.86" width="1.54" height="52.61"/><rect class="cls-2" x="690.28" y="189.86" width="1.54" height="52.61"/><rect class="cls-2" x="699.67" y="189.86" width="1.54" height="52.61"/><rect class="cls-2" x="709.71" y="189.86" width="1.55" height="52.61"/><rect class="cls-2" x="709.84" y="189.86" width="1.54" height="52.61"/><rect class="cls-2" x="724.45" y="189.86" width="1.55" height="52.61"/><rect class="cls-2" x="725.24" y="189.86" width="1.54" height="52.61"/><rect class="cls-2" x="727.98" y="189.86" width="1.54" height="52.61"/><rect class="cls-2" x="730.19" y="189.86" width="1.54" height="52.61"/><rect class="cls-2" x="731.24" y="189.86" width="1.55" height="52.61"/><rect class="cls-2" x="731.9" y="189.86" width="1.54" height="52.61"/><rect class="cls-2" x="733.98" y="189.86" width="1.54" height="52.61"/><rect class="cls-2" x="737.24" y="189.86" width="1.54" height="52.61"/><rect class="cls-2" x="739.59" y="189.86" width="1.54" height="52.61"/><rect class="cls-2" x="747.16" y="189.86" width="1.54" height="52.61"/><rect class="cls-2" x="747.42" y="189.86" width="1.55" height="52.61"/><rect class="cls-2" x="747.94" y="189.86" width="1.55" height="52.61"/><rect class="cls-2" x="748.72" y="189.86" width="1.55" height="52.61"/><rect class="cls-2" x="754.59" y="189.86" width="1.55" height="52.61"/><rect class="cls-2" x="755.37" y="189.86" width="1.55" height="52.61"/><rect class="cls-2" x="758.24" y="189.86" width="1.55" height="52.61"/><rect class="cls-2" x="763.21" y="189.86" width="1.54" height="52.61"/><rect class="cls-2" x="763.73" y="189.86" width="1.54" height="52.61"/><rect class="cls-2" x="767.38" y="189.86" width="1.54" height="52.61"/><rect class="cls-2" x="767.64" y="189.86" width="1.54" height="52.61"/><rect class="cls-2" x="768.81" y="189.86" width="1.55" height="52.61"/><rect class="cls-2" x="770.51" y="189.86" width="1.54" height="52.61"/><rect class="cls-2" x="776.64" y="189.86" width="1.55" height="52.61"/><rect class="cls-2" x="780.43" y="189.86" width="1.54" height="52.61"/><rect class="cls-2" x="785.25" y="189.86" width="1.54" height="52.61"/><rect class="cls-2" x="792.95" y="189.86" width="1.55" height="52.61"/><rect class="cls-2" x="803.52" y="189.86" width="1.55" height="52.61"/><rect class="cls-2" x="805.08" y="189.86" width="1.54" height="52.61"/><rect class="cls-2" x="805.47" y="189.86" width="1.54" height="52.61"/><rect class="cls-2" x="807.56" y="189.86" width="1.55" height="52.61"/><rect class="cls-2" x="812.78" y="189.86" width="1.54" height="52.61"/><rect class="cls-2" x="816.04" y="189.86" width="1.54" height="52.61"/><rect class="cls-2" x="820.47" y="189.86" width="1.54" height="52.61"/><rect class="cls-2" x="822.18" y="189.86" width="1.54" height="52.61"/><rect class="cls-2" x="835.21" y="189.86" width="1.55" height="52.61"/><rect class="cls-2" x="842.91" y="189.86" width="1.55" height="52.61"/><rect class="cls-2" x="848.27" y="189.86" width="1.54" height="52.61"/><rect class="cls-2" x="848.78" y="189.86" width="1.55" height="52.61"/><rect class="cls-2" x="851.92" y="189.86" width="1.54" height="52.61"/><rect class="cls-2" x="854.79" y="189.86" width="1.55" height="52.61"/><rect class="cls-2" x="856.09" y="189.86" width="1.55" height="52.61"/><rect class="cls-2" x="863.01" y="189.86" width="1.55" height="52.61"/><rect class="cls-2" x="864.32" y="189.86" width="1.54" height="52.61"/><rect class="cls-2" x="875.79" y="189.86" width="1.54" height="52.61"/><rect class="cls-2" x="877.22" y="189.86" width="1.55" height="52.61"/><rect class="cls-2" x="880.1" y="189.86" width="1.55" height="52.61"/><rect class="cls-2" x="886.49" y="189.86" width="1.54" height="52.61"/><rect class="cls-2" x="889.23" y="189.86" width="1.55" height="52.61"/><rect class="cls-2" x="889.88" y="189.86" width="1.55" height="52.61"/><rect class="cls-2" x="895.89" y="189.86" width="1.54" height="52.61"/><rect class="cls-2" x="914.93" y="189.86" width="1.55" height="52.61"/><rect class="cls-2" x="919.23" y="189.86" width="1.55" height="52.61"/><rect class="cls-2" x="922.62" y="189.86" width="1.55" height="52.61"/><rect class="cls-2" x="924.32" y="189.86" width="1.54" height="52.61"/><rect class="cls-2" x="926.54" y="189.86" width="1.55" height="52.61"/><rect class="cls-2" x="929.67" y="189.86" width="1.55" height="52.61"/><rect class="cls-2" x="936.98" y="189.86" width="1.54" height="52.61"/><rect class="cls-2" x="937.89" y="189.86" width="1.55" height="52.61"/><rect class="cls-2" x="941.68" y="189.86" width="1.55" height="52.61"/><rect class="cls-2" x="951.33" y="189.86" width="1.54" height="52.61"/><rect class="cls-2" x="955.51" y="189.86" width="1.54" height="52.61"/><rect class="cls-2" x="960.47" y="189.86" width="1.54" height="52.61"/><rect class="cls-2" x="962.03" y="189.86" width="1.55" height="52.61"/><rect class="cls-2" x="966.07" y="189.86" width="1.55" height="52.61"/><rect class="cls-2" x="966.47" y="189.86" width="1.55" height="52.61"/><rect class="cls-2" x="972.34" y="189.86" width="1.54" height="52.61"/><rect class="cls-2" x="978.99" y="189.86" width="1.54" height="52.61"/><rect class="cls-2" x="980.94" y="189.86" width="1.55" height="52.61"/><rect class="cls-2" x="983.69" y="189.86" width="1.55" height="52.61"/><rect class="cls-2" x="984.34" y="189.86" width="1.55" height="52.61"/><rect class="cls-2" x="984.6" y="189.86" width="1.55" height="52.61"/><rect class="cls-2" x="985.13" y="189.86" width="1.54" height="52.61"/><rect class="cls-2" x="988.51" y="189.86" width="1.55" height="52.61"/><rect class="cls-2" x="1002.08" y="189.86" width="1.55" height="52.61"/><rect class="cls-2" x="1004.3" y="189.86" width="1.54" height="52.61"/><rect class="cls-2" x="1006" y="189.86" width="1.54" height="52.61"/><path d="M313.19,120.09l-1-.06c3.73-57.56,51.88-102.66,109.63-102.66v1C364.6,18.37,316.89,63,313.19,120.09Z"/><polygon points="307.84 118.4 312.46 127.23 317.8 118.81 307.84 118.4"/><rect class="cls-2" x="572.13" y="8.59" width="82.02" height="18.56"/><path class="cls-1" d="M447.32,14.34a3.12,3.12,0,0,0-.58-.47,5.86,5.86,0,0,0-.89-.47,6.51,6.51,0,0,0-1.12-.36,5.57,5.57,0,0,0-1.25-.14,3.41,3.41,0,0,0-2.09.52,1.72,1.72,0,0,0-.67,1.44,1.56,1.56,0,0,0,.21.85,1.8,1.8,0,0,0,.65.58,5.09,5.09,0,0,0,1.1.44l1.54.41a17.67,17.67,0,0,1,2,.58,5.55,5.55,0,0,1,1.47.78,3.18,3.18,0,0,1,.93,1.13,3.67,3.67,0,0,1,.33,1.63,4,4,0,0,1-.41,1.86,3.49,3.49,0,0,1-1.12,1.27,4.94,4.94,0,0,1-1.65.72,8.48,8.48,0,0,1-2,.23,10.07,10.07,0,0,1-3.13-.49,9,9,0,0,1-2.73-1.43l1-1.92a4.7,4.7,0,0,0,.75.58,6.92,6.92,0,0,0,1.14.59,10,10,0,0,0,1.41.46,6.48,6.48,0,0,0,1.58.19,3.79,3.79,0,0,0,2-.46,1.51,1.51,0,0,0,.72-1.36,1.46,1.46,0,0,0-.27-.9,2.32,2.32,0,0,0-.77-.63,6.73,6.73,0,0,0-1.22-.49q-.72-.22-1.64-.46a16.92,16.92,0,0,1-1.85-.59,4.61,4.61,0,0,1-1.31-.75,2.93,2.93,0,0,1-.79-1,3.41,3.41,0,0,1-.27-1.43,4.12,4.12,0,0,1,.4-1.85A4,4,0,0,1,439.87,12a4.77,4.77,0,0,1,1.63-.83,7.12,7.12,0,0,1,2-.28,7.49,7.49,0,0,1,2.66.46,8.82,8.82,0,0,1,2.14,1.14Z"/><path class="cls-1" d="M457.46,23.28a3.59,3.59,0,0,0,1.86-.44,3.51,3.51,0,0,0,1.19-1.15,4.85,4.85,0,0,0,.64-1.62,9.14,9.14,0,0,0,.19-1.87V11h2.26v7.2a10.76,10.76,0,0,1-.34,2.75,6.35,6.35,0,0,1-1.08,2.26,5.15,5.15,0,0,1-1.91,1.53,6.46,6.46,0,0,1-2.81.56,6.33,6.33,0,0,1-2.87-.59,5.16,5.16,0,0,1-1.89-1.58,6.47,6.47,0,0,1-1-2.27,10.9,10.9,0,0,1-.32-2.66V11h2.24v7.2a9.2,9.2,0,0,0,.19,1.89,4.83,4.83,0,0,0,.64,1.62,3.39,3.39,0,0,0,1.2,1.14A3.67,3.67,0,0,0,457.46,23.28Z"/><path class="cls-1" d="M466.08,18a7.43,7.43,0,0,1,.46-2.55,7.05,7.05,0,0,1,1.35-2.28,6.82,6.82,0,0,1,2.17-1.63,6.57,6.57,0,0,1,2.9-.62,6.15,6.15,0,0,1,3.32.86A5.58,5.58,0,0,1,478.36,14L476.6,15.2a4,4,0,0,0-.72-1.08,3.53,3.53,0,0,0-.92-.7,4,4,0,0,0-1-.37,5.22,5.22,0,0,0-1-.11,4.09,4.09,0,0,0-2,.45,4.35,4.35,0,0,0-1.41,1.19,5.31,5.31,0,0,0-.86,1.66,6.09,6.09,0,0,0-.29,1.84,5.76,5.76,0,0,0,.34,2,5.36,5.36,0,0,0,.95,1.66,4.67,4.67,0,0,0,1.45,1.15,4,4,0,0,0,1.84.43,4.63,4.63,0,0,0,1.07-.13,4,4,0,0,0,1.06-.42A4.24,4.24,0,0,0,476,22a3.64,3.64,0,0,0,.71-1.06L478.58,22a4.35,4.35,0,0,1-1,1.41,6.11,6.11,0,0,1-1.4,1,7.16,7.16,0,0,1-1.65.64,7,7,0,0,1-1.71.22,5.88,5.88,0,0,1-2.74-.64A7.19,7.19,0,0,1,468,23a7.68,7.68,0,0,1-1.4-2.34A7.42,7.42,0,0,1,466.08,18Z"/><path class="cls-1" d="M480,18a7.44,7.44,0,0,1,.46-2.55,7,7,0,0,1,1.35-2.28A6.81,6.81,0,0,1,484,11.54a6.57,6.57,0,0,1,2.9-.62,6.15,6.15,0,0,1,3.32.86A5.59,5.59,0,0,1,492.3,14l-1.76,1.18a4,4,0,0,0-.72-1.08,3.52,3.52,0,0,0-.92-.7,4,4,0,0,0-1-.37,5.22,5.22,0,0,0-1-.11,4.09,4.09,0,0,0-2,.45,4.36,4.36,0,0,0-1.41,1.19,5.32,5.32,0,0,0-.86,1.66,6.09,6.09,0,0,0-.29,1.84,5.78,5.78,0,0,0,.34,2,5.35,5.35,0,0,0,1,1.66A4.66,4.66,0,0,0,485,22.87a4,4,0,0,0,1.84.43,4.63,4.63,0,0,0,1.07-.13,4,4,0,0,0,1.06-.42,4.24,4.24,0,0,0,.94-.73,3.66,3.66,0,0,0,.71-1.06L492.52,22a4.34,4.34,0,0,1-1,1.41,6.12,6.12,0,0,1-1.4,1,7.18,7.18,0,0,1-1.65.64,7,7,0,0,1-1.71.22,5.88,5.88,0,0,1-2.74-.64A7.18,7.18,0,0,1,481.92,23a7.69,7.69,0,0,1-1.4-2.34A7.44,7.44,0,0,1,480,18Z"/><path class="cls-1" d="M504.74,23.22v2H495V11h9.56v2h-7.32v4h6.34v1.86h-6.34v4.34Z"/><path class="cls-1" d="M515.56,14.34a3.12,3.12,0,0,0-.58-.47,5.85,5.85,0,0,0-.89-.47A6.52,6.52,0,0,0,513,13a5.58,5.58,0,0,0-1.25-.14,3.4,3.4,0,0,0-2.09.52,1.72,1.72,0,0,0-.67,1.44,1.55,1.55,0,0,0,.21.85,1.8,1.8,0,0,0,.65.58,5.09,5.09,0,0,0,1.1.44l1.54.41a17.7,17.7,0,0,1,2,.58,5.57,5.57,0,0,1,1.47.78,3.18,3.18,0,0,1,.93,1.13,3.67,3.67,0,0,1,.33,1.63,4,4,0,0,1-.41,1.86,3.49,3.49,0,0,1-1.12,1.27,4.93,4.93,0,0,1-1.65.72,8.48,8.48,0,0,1-2,.23,10.07,10.07,0,0,1-3.13-.49,9,9,0,0,1-2.73-1.43l1-1.92a4.7,4.7,0,0,0,.75.58,6.94,6.94,0,0,0,1.14.59,10,10,0,0,0,1.41.46,6.48,6.48,0,0,0,1.58.19,3.79,3.79,0,0,0,2-.46,1.51,1.51,0,0,0,.72-1.36,1.46,1.46,0,0,0-.27-.9,2.32,2.32,0,0,0-.77-.63,6.71,6.71,0,0,0-1.22-.49q-.72-.22-1.64-.46a16.93,16.93,0,0,1-1.85-.59,4.63,4.63,0,0,1-1.31-.75,2.94,2.94,0,0,1-.79-1,3.42,3.42,0,0,1-.27-1.43,4.13,4.13,0,0,1,.4-1.85A4,4,0,0,1,508.11,12a4.77,4.77,0,0,1,1.63-.83,7.12,7.12,0,0,1,2-.28,7.49,7.49,0,0,1,2.66.46,8.82,8.82,0,0,1,2.14,1.14Z"/><path class="cls-1" d="M528.18,14.34a3.12,3.12,0,0,0-.58-.47,5.86,5.86,0,0,0-.89-.47,6.51,6.51,0,0,0-1.12-.36,5.57,5.57,0,0,0-1.25-.14,3.41,3.41,0,0,0-2.09.52,1.72,1.72,0,0,0-.67,1.44,1.56,1.56,0,0,0,.21.85,1.8,1.8,0,0,0,.65.58,5.09,5.09,0,0,0,1.1.44l1.54.41a17.67,17.67,0,0,1,2,.58,5.55,5.55,0,0,1,1.47.78,3.18,3.18,0,0,1,.93,1.13,3.67,3.67,0,0,1,.33,1.63,4,4,0,0,1-.41,1.86,3.49,3.49,0,0,1-1.12,1.27,4.94,4.94,0,0,1-1.65.72,8.48,8.48,0,0,1-2,.23,10.07,10.07,0,0,1-3.13-.49,9,9,0,0,1-2.73-1.43l1-1.92a4.7,4.7,0,0,0,.75.58,6.92,6.92,0,0,0,1.14.59,10,10,0,0,0,1.41.46,6.48,6.48,0,0,0,1.58.19,3.79,3.79,0,0,0,2-.46,1.51,1.51,0,0,0,.72-1.36,1.46,1.46,0,0,0-.27-.9,2.32,2.32,0,0,0-.77-.63,6.73,6.73,0,0,0-1.22-.49q-.72-.22-1.64-.46a16.92,16.92,0,0,1-1.85-.59,4.61,4.61,0,0,1-1.31-.75,2.93,2.93,0,0,1-.79-1,3.41,3.41,0,0,1-.27-1.43,4.12,4.12,0,0,1,.4-1.85A4,4,0,0,1,520.73,12a4.77,4.77,0,0,1,1.63-.83,7.12,7.12,0,0,1,2-.28,7.49,7.49,0,0,1,2.66.46,8.82,8.82,0,0,1,2.14,1.14Z"/><path class="cls-1" d="M532.4,25.2V11h9.46v2h-7.22v4.24h6v1.86h-6V25.2Z"/><path class="cls-1" d="M550.3,23.28a3.59,3.59,0,0,0,1.86-.44,3.51,3.51,0,0,0,1.19-1.15,4.85,4.85,0,0,0,.64-1.62,9.11,9.11,0,0,0,.19-1.87V11h2.26v7.2a10.76,10.76,0,0,1-.34,2.75A6.36,6.36,0,0,1,555,23.21a5.15,5.15,0,0,1-1.91,1.53,6.46,6.46,0,0,1-2.81.56,6.33,6.33,0,0,1-2.87-.59,5.17,5.17,0,0,1-1.89-1.58,6.5,6.5,0,0,1-1-2.27,11,11,0,0,1-.32-2.66V11h2.24v7.2a9.2,9.2,0,0,0,.19,1.89,4.84,4.84,0,0,0,.64,1.62,3.39,3.39,0,0,0,1.2,1.14A3.67,3.67,0,0,0,550.3,23.28Z"/><path class="cls-1" d="M559.82,25.2V11h2.24V23.22h7.62v2Z"/><path class="cls-3" d="M576.7,25.2V11h6a3.94,3.94,0,0,1,1.77.4,4.53,4.53,0,0,1,1.39,1.05,5,5,0,0,1,.91,1.48,4.55,4.55,0,0,1,.33,1.69,4.89,4.89,0,0,1-.31,1.73,4.84,4.84,0,0,1-.87,1.48,4.24,4.24,0,0,1-1.35,1,3.9,3.9,0,0,1-1.75.39h-3.84V25.2Zm2.24-6.92h3.7a1.88,1.88,0,0,0,.87-.2,2,2,0,0,0,.67-.56,2.79,2.79,0,0,0,.44-.84,3.34,3.34,0,0,0,.16-1.06,3.05,3.05,0,0,0-.18-1.08,2.54,2.54,0,0,0-.5-.83,2.3,2.3,0,0,0-.73-.54,2,2,0,0,0-.85-.19h-3.58Z"/><path class="cls-3" d="M592.84,11h2l5.6,14.2H598l-1.5-3.86h-5.48l-1.48,3.86H587.2Zm3.26,8.68-2.28-6.1-2.36,6.1Z"/><path class="cls-3" d="M610.74,14.34a3.12,3.12,0,0,0-.58-.47,5.86,5.86,0,0,0-.89-.47,6.51,6.51,0,0,0-1.12-.36,5.57,5.57,0,0,0-1.25-.14,3.41,3.41,0,0,0-2.09.52,1.72,1.72,0,0,0-.67,1.44,1.56,1.56,0,0,0,.21.85,1.8,1.8,0,0,0,.65.58,5.09,5.09,0,0,0,1.1.44l1.54.41a17.67,17.67,0,0,1,2,.58,5.55,5.55,0,0,1,1.47.78,3.18,3.18,0,0,1,.93,1.13,3.67,3.67,0,0,1,.33,1.63,4,4,0,0,1-.41,1.86,3.49,3.49,0,0,1-1.12,1.27,4.94,4.94,0,0,1-1.65.72,8.48,8.48,0,0,1-2,.23,10.07,10.07,0,0,1-3.13-.49,9,9,0,0,1-2.73-1.43l1-1.92a4.7,4.7,0,0,0,.75.58,6.92,6.92,0,0,0,1.14.59,10,10,0,0,0,1.41.46,6.48,6.48,0,0,0,1.58.19,3.79,3.79,0,0,0,2-.46,1.51,1.51,0,0,0,.72-1.36,1.46,1.46,0,0,0-.27-.9,2.32,2.32,0,0,0-.77-.63,6.73,6.73,0,0,0-1.22-.49q-.72-.22-1.64-.46a16.92,16.92,0,0,1-1.85-.59,4.61,4.61,0,0,1-1.31-.75,2.93,2.93,0,0,1-.79-1,3.41,3.41,0,0,1-.27-1.43,4.12,4.12,0,0,1,.4-1.85A4,4,0,0,1,603.29,12a4.77,4.77,0,0,1,1.63-.83,7.12,7.12,0,0,1,2-.28,7.49,7.49,0,0,1,2.66.46,8.82,8.82,0,0,1,2.14,1.14Z"/><path class="cls-3" d="M623.36,14.34a3.09,3.09,0,0,0-.58-.47,5.83,5.83,0,0,0-.89-.47,6.48,6.48,0,0,0-1.12-.36,5.57,5.57,0,0,0-1.25-.14,3.41,3.41,0,0,0-2.09.52,1.72,1.72,0,0,0-.67,1.44,1.56,1.56,0,0,0,.21.85,1.8,1.8,0,0,0,.65.58,5.08,5.08,0,0,0,1.1.44l1.54.41a17.7,17.7,0,0,1,2,.58,5.55,5.55,0,0,1,1.47.78,3.18,3.18,0,0,1,.93,1.13,3.66,3.66,0,0,1,.33,1.63,4,4,0,0,1-.41,1.86,3.5,3.5,0,0,1-1.12,1.27,4.94,4.94,0,0,1-1.65.72,8.48,8.48,0,0,1-2,.23,10.07,10.07,0,0,1-3.13-.49,9,9,0,0,1-2.73-1.43l1-1.92a4.74,4.74,0,0,0,.75.58,7,7,0,0,0,1.14.59,9.92,9.92,0,0,0,1.41.46,6.47,6.47,0,0,0,1.58.19,3.79,3.79,0,0,0,2-.46,1.51,1.51,0,0,0,.72-1.36,1.45,1.45,0,0,0-.27-.9,2.31,2.31,0,0,0-.77-.63,6.73,6.73,0,0,0-1.22-.49q-.72-.22-1.64-.46a16.91,16.91,0,0,1-1.85-.59,4.61,4.61,0,0,1-1.31-.75,2.94,2.94,0,0,1-.79-1,3.42,3.42,0,0,1-.27-1.43,4.12,4.12,0,0,1,.4-1.85A4,4,0,0,1,615.91,12a4.77,4.77,0,0,1,1.63-.83,7.12,7.12,0,0,1,2-.28,7.48,7.48,0,0,1,2.66.46,8.82,8.82,0,0,1,2.14,1.14Z"/><path class="cls-3" d="M637.32,23.22v2h-9.74V11h9.56v2h-7.32v4h6.34v1.86h-6.34v4.34Z"/><path class="cls-3" d="M648.13,14.34a3.12,3.12,0,0,0-.58-.47,5.85,5.85,0,0,0-.89-.47,6.52,6.52,0,0,0-1.12-.36,5.58,5.58,0,0,0-1.25-.14,3.4,3.4,0,0,0-2.09.52,1.72,1.72,0,0,0-.67,1.44,1.55,1.55,0,0,0,.21.85,1.8,1.8,0,0,0,.65.58,5.09,5.09,0,0,0,1.1.44l1.54.41a17.7,17.7,0,0,1,2,.58,5.57,5.57,0,0,1,1.47.78,3.18,3.18,0,0,1,.93,1.13,3.67,3.67,0,0,1,.33,1.63,4,4,0,0,1-.41,1.86,3.49,3.49,0,0,1-1.12,1.27,4.93,4.93,0,0,1-1.65.72,8.48,8.48,0,0,1-2,.23,10.07,10.07,0,0,1-3.13-.49,9,9,0,0,1-2.73-1.43l1-1.92a4.7,4.7,0,0,0,.75.58,6.94,6.94,0,0,0,1.14.59,10,10,0,0,0,1.41.46,6.48,6.48,0,0,0,1.58.19,3.79,3.79,0,0,0,2-.46,1.51,1.51,0,0,0,.72-1.36,1.46,1.46,0,0,0-.27-.9,2.32,2.32,0,0,0-.77-.63,6.71,6.71,0,0,0-1.22-.49q-.72-.22-1.64-.46a16.93,16.93,0,0,1-1.85-.59,4.63,4.63,0,0,1-1.31-.75,2.94,2.94,0,0,1-.79-1,3.42,3.42,0,0,1-.27-1.43,4.13,4.13,0,0,1,.4-1.85A4,4,0,0,1,640.68,12a4.77,4.77,0,0,1,1.63-.83,7.12,7.12,0,0,1,2-.28,7.49,7.49,0,0,1,2.66.46,8.82,8.82,0,0,1,2.14,1.14Z"/><path class="cls-1" d="M455.62,39.34a3.12,3.12,0,0,0-.58-.47,5.85,5.85,0,0,0-.89-.47A6.52,6.52,0,0,0,453,38a5.58,5.58,0,0,0-1.25-.14,3.4,3.4,0,0,0-2.09.52,1.72,1.72,0,0,0-.67,1.44,1.55,1.55,0,0,0,.21.85,1.8,1.8,0,0,0,.65.58,5.09,5.09,0,0,0,1.1.44l1.54.41a17.7,17.7,0,0,1,2,.58,5.57,5.57,0,0,1,1.47.78,3.18,3.18,0,0,1,.93,1.13,3.67,3.67,0,0,1,.33,1.63,4,4,0,0,1-.41,1.86,3.49,3.49,0,0,1-1.12,1.27,4.93,4.93,0,0,1-1.65.72,8.48,8.48,0,0,1-2,.23,10.07,10.07,0,0,1-3.13-.49,9,9,0,0,1-2.73-1.43l1-1.92a4.7,4.7,0,0,0,.75.58,6.94,6.94,0,0,0,1.14.59,10,10,0,0,0,1.41.46,6.48,6.48,0,0,0,1.58.19,3.79,3.79,0,0,0,2-.46,1.51,1.51,0,0,0,.72-1.36,1.46,1.46,0,0,0-.27-.9,2.32,2.32,0,0,0-.77-.63,6.71,6.71,0,0,0-1.22-.49q-.72-.22-1.64-.46a16.93,16.93,0,0,1-1.85-.59,4.63,4.63,0,0,1-1.31-.75,2.94,2.94,0,0,1-.79-1,3.42,3.42,0,0,1-.27-1.43,4.13,4.13,0,0,1,.4-1.85A4,4,0,0,1,448.17,37a4.77,4.77,0,0,1,1.63-.83,7.12,7.12,0,0,1,2-.28,7.49,7.49,0,0,1,2.66.46,8.82,8.82,0,0,1,2.14,1.14Z"/><path class="cls-1" d="M471.5,36V50.2h-2.26V43.94h-7.16V50.2h-2.24V36h2.24v5.94h7.16V36Z"/><path class="cls-1" d="M481,50.3a6.23,6.23,0,0,1-2.77-.61,6.89,6.89,0,0,1-2.15-1.62,7.32,7.32,0,0,1-1.39-2.31,7.48,7.48,0,0,1-.49-2.66,7.26,7.26,0,0,1,.52-2.72,7.55,7.55,0,0,1,1.43-2.3,6.83,6.83,0,0,1,2.16-1.59A6.32,6.32,0,0,1,481,35.9a6.07,6.07,0,0,1,2.77.63,7,7,0,0,1,2.14,1.65,7.59,7.59,0,0,1,1.38,2.31,7.4,7.4,0,0,1,0,5.35,7.19,7.19,0,0,1-1.43,2.29,7,7,0,0,1-2.17,1.58A6.27,6.27,0,0,1,481,50.3Zm-4.52-7.2A6,6,0,0,0,476.8,45a5.27,5.27,0,0,0,.91,1.66,4.44,4.44,0,0,0,1.43,1.15,4.07,4.07,0,0,0,1.88.43,3.94,3.94,0,0,0,1.91-.45,4.49,4.49,0,0,0,1.41-1.19,5.35,5.35,0,0,0,.88-1.66,6.07,6.07,0,0,0,0-3.83,5.19,5.19,0,0,0-.91-1.64,4.56,4.56,0,0,0-1.42-1.14,4.26,4.26,0,0,0-3.77,0,4.58,4.58,0,0,0-1.42,1.17,5.24,5.24,0,0,0-.89,1.65A5.93,5.93,0,0,0,476.48,43.1Z"/><path class="cls-1" d="M495.06,36.06h2.12l1.74,4.82,1.76-4.82h2.1l-2.42,6.32,2.12,5.22L506.9,36h2.46L503.5,50.2h-1.92l-2.64-6.36-2.66,6.36h-1.92L488.5,36h2.44l4.44,11.6,2.12-5.22Z"/><path class="cls-1" d="M516.1,50.2V36h6a3.94,3.94,0,0,1,1.77.4,4.53,4.53,0,0,1,1.39,1.05,5,5,0,0,1,.91,1.48,4.54,4.54,0,0,1,.33,1.69,4.91,4.91,0,0,1-.31,1.73,4.84,4.84,0,0,1-.87,1.48,4.24,4.24,0,0,1-1.35,1,3.9,3.9,0,0,1-1.75.39h-3.84V50.2Zm2.24-6.92H522a1.88,1.88,0,0,0,.87-.2,2,2,0,0,0,.67-.56,2.8,2.8,0,0,0,.44-.84,3.34,3.34,0,0,0,.16-1.06,3.05,3.05,0,0,0-.18-1.08,2.54,2.54,0,0,0-.5-.83,2.3,2.3,0,0,0-.73-.54,2,2,0,0,0-.85-.19h-3.58Z"/><path class="cls-1" d="M534.86,50.3a6.22,6.22,0,0,1-2.77-.61,6.89,6.89,0,0,1-2.15-1.62,7.32,7.32,0,0,1-1.39-2.31,7.47,7.47,0,0,1-.49-2.66,7.25,7.25,0,0,1,.52-2.72,7.55,7.55,0,0,1,1.43-2.3,6.82,6.82,0,0,1,2.16-1.59,6.32,6.32,0,0,1,2.73-.59,6.07,6.07,0,0,1,2.77.63,7,7,0,0,1,2.14,1.65,7.57,7.57,0,0,1,1.38,2.31,7.41,7.41,0,0,1,0,5.35,7.19,7.19,0,0,1-1.43,2.29,7,7,0,0,1-2.17,1.58A6.27,6.27,0,0,1,534.86,50.3Zm-4.52-7.2a6,6,0,0,0,.32,1.94,5.28,5.28,0,0,0,.91,1.66A4.45,4.45,0,0,0,533,47.85a4.06,4.06,0,0,0,1.88.43,3.94,3.94,0,0,0,1.91-.45,4.5,4.5,0,0,0,1.41-1.19,5.36,5.36,0,0,0,.88-1.66,6,6,0,0,0,.3-1.88,6,6,0,0,0-.32-1.95,5.17,5.17,0,0,0-.91-1.64,4.55,4.55,0,0,0-1.42-1.14,4.26,4.26,0,0,0-3.77,0,4.57,4.57,0,0,0-1.42,1.17,5.26,5.26,0,0,0-.89,1.65A5.93,5.93,0,0,0,530.34,43.1Z"/><path class="cls-1" d="M552.8,39.34a3.12,3.12,0,0,0-.58-.47,5.85,5.85,0,0,0-.89-.47,6.52,6.52,0,0,0-1.12-.36A5.58,5.58,0,0,0,549,37.9a3.4,3.4,0,0,0-2.09.52,1.72,1.72,0,0,0-.67,1.44,1.55,1.55,0,0,0,.21.85,1.8,1.8,0,0,0,.65.58,5.09,5.09,0,0,0,1.1.44l1.54.41a17.7,17.7,0,0,1,2,.58,5.57,5.57,0,0,1,1.47.78,3.18,3.18,0,0,1,.93,1.13,3.67,3.67,0,0,1,.33,1.63,4,4,0,0,1-.41,1.86,3.49,3.49,0,0,1-1.12,1.27,4.93,4.93,0,0,1-1.65.72,8.48,8.48,0,0,1-2,.23,10.07,10.07,0,0,1-3.13-.49,9,9,0,0,1-2.73-1.43l1-1.92a4.7,4.7,0,0,0,.75.58,6.94,6.94,0,0,0,1.14.59,10,10,0,0,0,1.41.46,6.48,6.48,0,0,0,1.58.19,3.79,3.79,0,0,0,2-.46A1.51,1.51,0,0,0,552,46.5a1.46,1.46,0,0,0-.27-.9,2.32,2.32,0,0,0-.77-.63,6.71,6.71,0,0,0-1.22-.49q-.72-.22-1.64-.46a16.93,16.93,0,0,1-1.85-.59,4.63,4.63,0,0,1-1.31-.75,2.94,2.94,0,0,1-.79-1,3.42,3.42,0,0,1-.27-1.43,4.13,4.13,0,0,1,.4-1.85A4,4,0,0,1,545.35,37a4.77,4.77,0,0,1,1.63-.83,7.12,7.12,0,0,1,2-.28,7.49,7.49,0,0,1,2.66.46,8.82,8.82,0,0,1,2.14,1.14Z"/><path class="cls-1" d="M565.42,39.34a3.09,3.09,0,0,0-.58-.47,5.83,5.83,0,0,0-.89-.47,6.48,6.48,0,0,0-1.12-.36,5.57,5.57,0,0,0-1.25-.14,3.41,3.41,0,0,0-2.09.52,1.72,1.72,0,0,0-.67,1.44,1.56,1.56,0,0,0,.21.85,1.8,1.8,0,0,0,.65.58,5.08,5.08,0,0,0,1.1.44l1.54.41a17.7,17.7,0,0,1,2,.58,5.55,5.55,0,0,1,1.47.78,3.18,3.18,0,0,1,.93,1.13,3.66,3.66,0,0,1,.33,1.63,4,4,0,0,1-.41,1.86,3.5,3.5,0,0,1-1.12,1.27,4.94,4.94,0,0,1-1.65.72,8.48,8.48,0,0,1-2,.23,10.07,10.07,0,0,1-3.13-.49,9,9,0,0,1-2.73-1.43l1-1.92a4.74,4.74,0,0,0,.75.58,7,7,0,0,0,1.14.59,9.92,9.92,0,0,0,1.41.46,6.47,6.47,0,0,0,1.58.19,3.79,3.79,0,0,0,2-.46,1.51,1.51,0,0,0,.72-1.36,1.45,1.45,0,0,0-.27-.9,2.31,2.31,0,0,0-.77-.63,6.73,6.73,0,0,0-1.22-.49q-.72-.22-1.64-.46a16.91,16.91,0,0,1-1.85-.59,4.61,4.61,0,0,1-1.31-.75,2.94,2.94,0,0,1-.79-1,3.42,3.42,0,0,1-.27-1.43,4.12,4.12,0,0,1,.4-1.85A4,4,0,0,1,558,37a4.77,4.77,0,0,1,1.63-.83,7.12,7.12,0,0,1,2-.28,7.48,7.48,0,0,1,2.66.46,8.82,8.82,0,0,1,2.14,1.14Z"/><path class="cls-1" d="M579.38,48.22v2h-9.74V36h9.56v2h-7.32v4h6.34v1.86h-6.34v4.34Z"/><path class="cls-1" d="M590.2,39.34a3.12,3.12,0,0,0-.58-.47,5.85,5.85,0,0,0-.89-.47,6.52,6.52,0,0,0-1.12-.36,5.58,5.58,0,0,0-1.25-.14,3.4,3.4,0,0,0-2.09.52,1.72,1.72,0,0,0-.67,1.44,1.55,1.55,0,0,0,.21.85,1.8,1.8,0,0,0,.65.58,5.09,5.09,0,0,0,1.1.44l1.54.41a17.7,17.7,0,0,1,2,.58,5.57,5.57,0,0,1,1.47.78,3.18,3.18,0,0,1,.93,1.13,3.67,3.67,0,0,1,.33,1.63,4,4,0,0,1-.41,1.86,3.49,3.49,0,0,1-1.12,1.27,4.93,4.93,0,0,1-1.65.72,8.48,8.48,0,0,1-2,.23,10.07,10.07,0,0,1-3.13-.49,9,9,0,0,1-2.73-1.43l1-1.92a4.7,4.7,0,0,0,.75.58,6.94,6.94,0,0,0,1.14.59,10,10,0,0,0,1.41.46,6.48,6.48,0,0,0,1.58.19,3.79,3.79,0,0,0,2-.46,1.51,1.51,0,0,0,.72-1.36,1.46,1.46,0,0,0-.27-.9,2.32,2.32,0,0,0-.77-.63,6.71,6.71,0,0,0-1.22-.49q-.72-.22-1.64-.46a16.93,16.93,0,0,1-1.85-.59,4.63,4.63,0,0,1-1.31-.75,2.94,2.94,0,0,1-.79-1,3.42,3.42,0,0,1-.27-1.43,4.13,4.13,0,0,1,.4-1.85A4,4,0,0,1,582.75,37a4.77,4.77,0,0,1,1.63-.83,7.12,7.12,0,0,1,2-.28,7.49,7.49,0,0,1,2.66.46,8.82,8.82,0,0,1,2.14,1.14Z"/><path class="cls-1" d="M602.82,39.34a3.12,3.12,0,0,0-.58-.47,5.86,5.86,0,0,0-.89-.47,6.51,6.51,0,0,0-1.12-.36A5.57,5.57,0,0,0,599,37.9a3.41,3.41,0,0,0-2.09.52,1.72,1.72,0,0,0-.67,1.44,1.56,1.56,0,0,0,.21.85,1.8,1.8,0,0,0,.65.58,5.09,5.09,0,0,0,1.1.44l1.54.41a17.67,17.67,0,0,1,2,.58,5.55,5.55,0,0,1,1.47.78,3.18,3.18,0,0,1,.93,1.13,3.67,3.67,0,0,1,.33,1.63,4,4,0,0,1-.41,1.86,3.49,3.49,0,0,1-1.12,1.27,4.94,4.94,0,0,1-1.65.72,8.48,8.48,0,0,1-2,.23,10.07,10.07,0,0,1-3.13-.49,9,9,0,0,1-2.73-1.43l1-1.92a4.7,4.7,0,0,0,.75.58,6.92,6.92,0,0,0,1.14.59,10,10,0,0,0,1.41.46,6.48,6.48,0,0,0,1.58.19,3.79,3.79,0,0,0,2-.46A1.51,1.51,0,0,0,602,46.5a1.46,1.46,0,0,0-.27-.9A2.32,2.32,0,0,0,601,45a6.73,6.73,0,0,0-1.22-.49q-.72-.22-1.64-.46a16.92,16.92,0,0,1-1.85-.59,4.61,4.61,0,0,1-1.31-.75,2.93,2.93,0,0,1-.79-1,3.41,3.41,0,0,1-.27-1.43,4.12,4.12,0,0,1,.4-1.85A4,4,0,0,1,595.37,37a4.77,4.77,0,0,1,1.63-.83,7.12,7.12,0,0,1,2-.28,7.49,7.49,0,0,1,2.66.46,8.82,8.82,0,0,1,2.14,1.14Z"/><path class="cls-1" d="M607,50.2V36h2.24V50.2Z"/><path class="cls-1" d="M618.78,50.3a6.23,6.23,0,0,1-2.77-.61,6.9,6.9,0,0,1-2.15-1.62,7.32,7.32,0,0,1-1.39-2.31A7.47,7.47,0,0,1,612,43.1a7.25,7.25,0,0,1,.52-2.72,7.56,7.56,0,0,1,1.43-2.3,6.83,6.83,0,0,1,2.16-1.59,6.32,6.32,0,0,1,2.73-.59,6.07,6.07,0,0,1,2.77.63,7,7,0,0,1,2.14,1.65,7.56,7.56,0,0,1,1.38,2.31,7.41,7.41,0,0,1,0,5.35,7.18,7.18,0,0,1-1.43,2.29,7,7,0,0,1-2.17,1.58A6.27,6.27,0,0,1,618.78,50.3Zm-4.52-7.2a6,6,0,0,0,.32,1.94,5.27,5.27,0,0,0,.91,1.66,4.44,4.44,0,0,0,1.43,1.15,4.06,4.06,0,0,0,1.88.43,4,4,0,0,0,1.91-.45,4.5,4.5,0,0,0,1.41-1.19A5.37,5.37,0,0,0,623,45a6,6,0,0,0,.3-1.88,6,6,0,0,0-.32-1.95,5.17,5.17,0,0,0-.91-1.64,4.55,4.55,0,0,0-1.42-1.14,4.26,4.26,0,0,0-3.77,0,4.57,4.57,0,0,0-1.42,1.17,5.25,5.25,0,0,0-.89,1.65A5.93,5.93,0,0,0,614.25,43.1Z"/><path class="cls-1" d="M630.55,40.2v10h-2.24V36h1.76l8.12,10.24V36h2.26V50.2h-1.86Z"/></svg>