<svg id="Layer_1" data-name="Layer 1" xmlns="http://www.w3.org/2000/svg" viewBox="0 0 1280.01 316.99"><defs><style>.cls-1{fill:#fdc659;}.cls-2{fill:#333132;}.cls-3{fill:#ee3e23;}</style></defs><title>yg-umbro-wireframes-170817-2130--slicing</title><rect class="cls-1" x="301.05" y="204.64" width="1.54" height="52.62"/><rect class="cls-1" x="303.01" y="204.64" width="1.54" height="52.62"/><rect class="cls-1" x="304.57" y="204.64" width="1.55" height="52.62"/><rect class="cls-1" x="305.88" y="204.64" width="1.54" height="52.62"/><rect class="cls-1" x="308.48" y="204.64" width="1.55" height="52.62"/><rect class="cls-1" x="313.97" y="204.64" width="1.54" height="52.62"/><rect class="cls-1" x="314.23" y="204.64" width="1.54" height="52.62"/><rect class="cls-1" x="356.37" y="204.64" width="1.54" height="52.62"/><rect class="cls-1" x="362.76" y="204.64" width="1.54" height="52.62"/><rect class="cls-1" x="382.2" y="204.64" width="1.54" height="52.62"/><rect class="cls-1" x="384.68" y="204.64" width="1.55" height="52.62"/><rect class="cls-1" x="389.9" y="204.64" width="1.54" height="52.62"/><rect class="cls-1" x="391.98" y="204.64" width="1.55" height="52.62"/><rect class="cls-1" x="395.76" y="204.64" width="1.55" height="52.62"/><rect class="cls-1" x="402.42" y="204.64" width="1.55" height="52.62"/><rect class="cls-1" x="406.73" y="204.64" width="1.54" height="52.62"/><rect class="cls-1" x="408.03" y="204.64" width="1.54" height="52.62"/><rect class="cls-1" x="409.72" y="204.64" width="1.55" height="52.62"/><rect class="cls-1" x="411.68" y="204.64" width="1.54" height="52.62"/><rect class="cls-1" x="414.55" y="204.64" width="1.54" height="52.62"/><rect class="cls-1" x="414.95" y="204.64" width="1.55" height="52.62"/><rect class="cls-1" x="422.12" y="204.64" width="1.54" height="52.62"/><rect class="cls-1" x="423.68" y="204.64" width="1.55" height="52.62"/><rect class="cls-1" x="425.25" y="204.64" width="1.54" height="52.62"/><rect class="cls-1" x="461.13" y="204.64" width="1.55" height="52.62"/><rect class="cls-1" x="463.74" y="204.64" width="1.54" height="52.62"/><rect class="cls-1" x="466.35" y="204.64" width="1.54" height="52.62"/><rect class="cls-1" x="477.57" y="204.64" width="1.54" height="52.62"/><rect class="cls-1" x="479.14" y="204.64" width="1.54" height="52.62"/><rect class="cls-1" x="480.7" y="204.64" width="1.55" height="52.62"/><rect class="cls-1" x="485.91" y="204.64" width="1.55" height="52.62"/><rect class="cls-1" x="486.04" y="204.64" width="1.55" height="52.62"/><rect class="cls-1" x="486.96" y="204.64" width="1.54" height="52.62"/><rect class="cls-1" x="488.79" y="204.64" width="1.55" height="52.62"/><rect class="cls-1" x="493.23" y="204.64" width="1.54" height="52.62"/><rect class="cls-1" x="498.57" y="204.64" width="1.54" height="52.62"/><rect class="cls-1" x="506.92" y="204.64" width="1.55" height="52.62"/><rect class="cls-1" x="508.23" y="204.64" width="1.54" height="52.62"/><rect class="cls-1" x="508.49" y="204.64" width="1.54" height="52.62"/><rect class="cls-1" x="510.05" y="204.64" width="1.55" height="52.62"/><rect class="cls-1" x="513.31" y="204.64" width="1.55" height="52.62"/><rect class="cls-1" x="515.01" y="204.64" width="1.54" height="52.62"/><rect class="cls-1" x="532.23" y="204.64" width="1.55" height="52.62"/><rect class="cls-1" x="534.58" y="204.64" width="1.55" height="52.62"/><rect class="cls-1" x="534.71" y="204.64" width="1.54" height="52.62"/><rect class="cls-1" x="536.41" y="204.64" width="1.54" height="52.62"/><rect class="cls-1" x="537.97" y="204.64" width="1.55" height="52.62"/><rect class="cls-1" x="539.28" y="204.64" width="1.54" height="52.62"/><rect class="cls-1" x="544.62" y="204.64" width="1.54" height="52.62"/><rect class="cls-1" x="554.41" y="204.64" width="1.55" height="52.62"/><rect class="cls-1" x="557.15" y="204.64" width="1.54" height="52.62"/><rect class="cls-1" x="559.62" y="204.64" width="1.55" height="52.62"/><rect class="cls-1" x="564.85" y="204.64" width="1.54" height="52.62"/><rect class="cls-1" x="577.5" y="204.64" width="1.54" height="52.62"/><rect class="cls-1" x="584.42" y="204.64" width="1.54" height="52.62"/><rect class="cls-1" x="591.6" y="204.64" width="1.54" height="52.62"/><rect class="cls-1" x="596.94" y="204.64" width="1.55" height="52.62"/><rect class="cls-1" x="601.9" y="204.64" width="1.54" height="52.62"/><rect class="cls-1" x="610.77" y="204.64" width="1.55" height="52.62"/><rect class="cls-1" x="614.16" y="204.64" width="1.55" height="52.62"/><rect class="cls-1" x="614.82" y="204.64" width="1.54" height="52.62"/><rect class="cls-1" x="615.86" y="204.64" width="1.54" height="52.62"/><rect class="cls-1" x="618.47" y="204.64" width="1.54" height="52.62"/><rect class="cls-1" x="620.16" y="204.64" width="1.55" height="52.62"/><rect class="cls-1" x="623.82" y="204.64" width="1.55" height="52.62"/><rect class="cls-1" x="631.12" y="204.64" width="1.55" height="52.62"/><rect class="cls-1" x="631.64" y="204.64" width="1.54" height="52.62"/><rect class="cls-1" x="632.17" y="204.64" width="1.54" height="52.62"/><rect class="cls-1" x="647.3" y="204.64" width="1.55" height="52.62"/><rect class="cls-1" x="659.17" y="204.64" width="1.55" height="52.62"/><rect class="cls-1" x="660.22" y="204.64" width="1.54" height="52.62"/><rect class="cls-1" x="671.44" y="204.64" width="1.54" height="52.62"/><rect class="cls-1" x="671.83" y="204.64" width="1.54" height="52.62"/><rect class="cls-1" x="673.39" y="204.64" width="1.55" height="52.62"/><rect class="cls-1" x="674.18" y="204.64" width="1.54" height="52.62"/><rect class="cls-1" x="681.22" y="204.64" width="1.54" height="52.62"/><rect class="cls-1" x="690.74" y="204.64" width="1.55" height="52.62"/><rect class="cls-1" x="692.83" y="204.64" width="1.55" height="52.62"/><rect class="cls-1" x="694.39" y="204.64" width="1.55" height="52.62"/><rect class="cls-1" x="696.1" y="204.64" width="1.55" height="52.62"/><rect class="cls-1" x="698.05" y="204.64" width="1.55" height="52.62"/><rect class="cls-1" x="707.31" y="204.64" width="1.54" height="52.62"/><rect class="cls-1" x="707.84" y="204.64" width="1.54" height="52.62"/><rect class="cls-1" x="709.66" y="204.64" width="1.54" height="52.62"/><rect class="cls-1" x="717.62" y="204.64" width="1.55" height="52.62"/><rect class="cls-1" x="719.45" y="204.64" width="1.54" height="52.62"/><rect class="cls-1" x="724.4" y="204.64" width="1.55" height="52.62"/><rect class="cls-1" x="726.63" y="204.64" width="1.54" height="52.62"/><rect class="cls-1" x="728.32" y="204.64" width="1.55" height="52.62"/><rect class="cls-1" x="734.45" y="204.64" width="1.55" height="52.62"/><rect class="cls-1" x="744.76" y="204.64" width="1.54" height="52.62"/><rect class="cls-1" x="747.37" y="204.64" width="1.54" height="52.62"/><rect class="cls-1" x="749.97" y="204.64" width="1.55" height="52.62"/><rect class="cls-1" x="751.67" y="204.64" width="1.55" height="52.62"/><rect class="cls-1" x="754.15" y="204.64" width="1.54" height="52.62"/><rect class="cls-1" x="758.2" y="204.64" width="1.54" height="52.62"/><rect class="cls-1" x="762.24" y="204.64" width="1.54" height="52.62"/><rect class="cls-1" x="762.76" y="204.64" width="1.55" height="52.62"/><rect class="cls-1" x="769.8" y="204.64" width="1.55" height="52.62"/><rect class="cls-1" x="771.9" y="204.64" width="1.54" height="52.62"/><rect class="cls-1" x="773.46" y="204.64" width="1.55" height="52.62"/><rect class="cls-1" x="784.81" y="204.64" width="1.55" height="52.62"/><rect class="cls-1" x="785.2" y="204.64" width="1.54" height="52.62"/><rect class="cls-1" x="793.03" y="204.64" width="1.54" height="52.62"/><rect class="cls-1" x="794.98" y="204.64" width="1.55" height="52.62"/><rect class="cls-1" x="796.68" y="204.64" width="1.54" height="52.62"/><rect class="cls-1" x="801.77" y="204.64" width="1.55" height="52.62"/><rect class="cls-1" x="804.25" y="204.64" width="1.54" height="52.62"/><rect class="cls-1" x="806.21" y="204.64" width="1.54" height="52.62"/><rect class="cls-1" x="821.34" y="204.64" width="1.55" height="52.62"/><rect class="cls-1" x="823.29" y="204.64" width="1.55" height="52.62"/><rect class="cls-1" x="832.43" y="204.64" width="1.55" height="52.62"/><rect class="cls-1" x="834.78" y="204.64" width="1.54" height="52.62"/><rect class="cls-1" x="836.99" y="204.64" width="1.55" height="52.62"/><rect class="cls-1" x="846.91" y="204.64" width="1.55" height="52.62"/><rect class="cls-1" x="879.66" y="204.64" width="1.54" height="52.62"/><rect class="cls-1" x="882.65" y="204.64" width="1.55" height="52.62"/><rect class="cls-1" x="884.74" y="204.64" width="1.55" height="52.62"/><rect class="cls-1" x="901.44" y="204.64" width="1.54" height="52.62"/><rect class="cls-1" x="911.23" y="204.64" width="1.54" height="52.62"/><rect class="cls-1" x="913.32" y="204.64" width="1.54" height="52.62"/><rect class="cls-1" x="934.06" y="204.64" width="1.55" height="52.62"/><rect class="cls-1" x="951.02" y="204.64" width="1.55" height="52.62"/><rect class="cls-1" x="952.33" y="204.64" width="1.54" height="52.62"/><rect class="cls-1" x="954.93" y="204.64" width="1.55" height="52.62"/><rect class="cls-1" x="957.29" y="204.64" width="1.54" height="52.62"/><rect class="cls-1" x="960.94" y="204.64" width="1.55" height="52.62"/><rect class="cls-1" x="965.38" y="204.64" width="1.54" height="52.62"/><rect class="cls-1" x="966.42" y="204.64" width="1.54" height="52.62"/><rect class="cls-1" x="969.03" y="204.64" width="1.54" height="52.62"/><rect class="cls-1" x="975.8" y="204.64" width="1.55" height="52.62"/><rect class="cls-1" x="980.77" y="204.64" width="1.54" height="52.62"/><rect class="cls-1" x="983.9" y="204.64" width="1.54" height="52.62"/><rect class="cls-1" x="985.59" y="204.64" width="1.55" height="52.62"/><rect class="cls-1" x="992.12" y="204.64" width="1.55" height="52.62"/><rect class="cls-1" x="995.51" y="204.64" width="1.55" height="52.62"/><rect class="cls-1" x="999.55" y="204.64" width="1.55" height="52.62"/><rect class="cls-1" x="1007.13" y="204.64" width="1.54" height="52.62"/><rect class="cls-1" x="1009.08" y="204.64" width="1.55" height="52.62"/><rect class="cls-1" x="1019.51" y="204.64" width="1.55" height="52.62"/><polygon class="cls-2" points="378.69 239.98 367.75 257.26 389.64 257.26 378.69 239.98"/><polygon class="cls-2" points="495.81 239.98 484.87 257.26 506.75 257.26 495.81 239.98"/><polygon class="cls-2" points="626.15 239.98 615.2 257.26 637.09 257.26 626.15 239.98"/><polygon class="cls-2" points="712.13 239.98 701.18 257.26 723.06 257.26 712.13 239.98"/><polygon class="cls-2" points="765.35 239.98 754.41 257.26 776.29 257.26 765.35 239.98"/><polygon class="cls-2" points="787.66 239.98 776.72 257.26 798.6 257.26 787.66 239.98"/><polygon class="cls-2" points="808.4 239.98 797.46 257.26 819.34 257.26 808.4 239.98"/><polygon class="cls-2" points="830.33 239.98 819.38 257.26 841.26 257.26 830.33 239.98"/><polygon class="cls-2" points="908.73 239.98 897.79 257.26 919.67 257.26 908.73 239.98"/><polygon class="cls-2" points="675.98 239.98 665.04 257.26 686.92 257.26 675.98 239.98"/><polygon class="cls-2" points="671.89 239.98 660.96 257.26 682.83 257.26 671.89 239.98"/><circle class="cls-3" cx="517.37" cy="220.93" r="10.43"/><polygon class="cls-3" points="518.81 257.26 515.87 257.26 515.87 228.63 518.81 228.63 518.81 257.26 518.81 257.26"/><polygon class="cls-2" points="517.34 239.98 506.4 257.26 528.27 257.26 517.34 239.98"/><path class="cls-3" d="M689.73,220.93a10.42,10.42,0,1,0,10.42-10.43A10.42,10.42,0,0,0,689.73,220.93Z"/><polygon class="cls-3" points="701.59 257.26 698.65 257.26 698.65 228.63 701.59 228.63 701.59 257.26 701.59 257.26"/><polygon class="cls-2" points="700.12 239.98 689.18 257.26 711.06 257.26 700.12 239.98"/><rect class="cls-1" x="308.87" y="257.26" width="1.55" height="52.61"/><rect class="cls-1" x="309.53" y="257.26" width="1.54" height="52.61"/><rect class="cls-1" x="311.62" y="257.26" width="1.55" height="52.61"/><rect class="cls-1" x="313.71" y="257.26" width="1.54" height="52.61"/><rect class="cls-1" x="315.27" y="257.26" width="1.54" height="52.61"/><rect class="cls-1" x="315.54" y="257.26" width="1.54" height="52.61"/><rect class="cls-1" x="317.1" y="257.26" width="1.54" height="52.61"/><rect class="cls-1" x="324.14" y="257.26" width="1.54" height="52.61"/><rect class="cls-1" x="328.06" y="257.26" width="1.54" height="52.61"/><rect class="cls-1" x="330.54" y="257.26" width="1.54" height="52.61"/><rect class="cls-1" x="354.93" y="257.26" width="1.54" height="52.61"/><rect class="cls-1" x="357.02" y="257.26" width="1.55" height="52.61"/><rect class="cls-1" x="365.11" y="257.26" width="1.54" height="52.61"/><rect class="cls-1" x="366.54" y="257.26" width="1.54" height="52.61"/><rect class="cls-1" x="367.32" y="257.26" width="1.55" height="52.61"/><rect class="cls-1" x="372.68" y="257.26" width="1.54" height="52.61"/><rect class="cls-1" x="375.67" y="257.26" width="1.55" height="52.61"/><rect class="cls-1" x="377.24" y="257.26" width="1.54" height="52.61"/><rect class="cls-1" x="377.89" y="257.26" width="1.55" height="52.61"/><rect class="cls-1" x="383.37" y="257.26" width="1.54" height="52.61"/><rect class="cls-1" x="400.34" y="257.26" width="1.54" height="52.61"/><rect class="cls-1" x="401.9" y="257.26" width="1.54" height="52.61"/><rect class="cls-1" x="403.99" y="257.26" width="1.54" height="52.61"/><rect class="cls-1" x="416.38" y="257.26" width="1.55" height="52.61"/><rect class="cls-1" x="419.25" y="257.26" width="1.55" height="52.61"/><rect class="cls-1" x="428.77" y="257.26" width="1.54" height="52.61"/><rect class="cls-1" x="432.3" y="257.26" width="1.54" height="52.61"/><rect class="cls-1" x="433.86" y="257.26" width="1.55" height="52.61"/><rect class="cls-1" x="437.51" y="257.26" width="1.54" height="52.61"/><rect class="cls-1" x="438.16" y="257.26" width="1.55" height="52.61"/><rect class="cls-1" x="439.6" y="257.26" width="1.54" height="52.61"/><rect class="cls-1" x="448.87" y="257.26" width="1.54" height="52.61"/><rect class="cls-1" x="451.08" y="257.26" width="1.55" height="52.61"/><rect class="cls-1" x="459.05" y="257.26" width="1.54" height="52.61"/><rect class="cls-1" x="460.09" y="257.26" width="1.54" height="52.61"/><rect class="cls-1" x="462.31" y="257.26" width="1.54" height="52.61"/><rect class="cls-1" x="462.57" y="257.26" width="1.54" height="52.61"/><rect class="cls-1" x="463.87" y="257.26" width="1.54" height="52.61"/><rect class="cls-1" x="464.13" y="257.26" width="1.54" height="52.61"/><rect class="cls-1" x="465.17" y="257.26" width="1.55" height="52.61"/><rect class="cls-1" x="467.26" y="257.26" width="1.54" height="52.61"/><rect class="cls-1" x="468.96" y="257.26" width="1.54" height="52.61"/><rect class="cls-1" x="475.09" y="257.26" width="1.54" height="52.61"/><rect class="cls-1" x="481.87" y="257.26" width="1.55" height="52.61"/><rect class="cls-1" x="483.57" y="257.26" width="1.54" height="52.61"/><rect class="cls-1" x="485.52" y="257.26" width="1.55" height="52.61"/><rect class="cls-1" x="501.31" y="257.26" width="1.54" height="52.61"/><rect class="cls-1" x="507.45" y="257.26" width="1.54" height="52.61"/><rect class="cls-1" x="509.4" y="257.26" width="1.54" height="52.61"/><rect class="cls-1" x="512.14" y="257.26" width="1.55" height="52.61"/><rect class="cls-1" x="514.36" y="257.26" width="1.54" height="52.61"/><rect class="cls-1" x="523.23" y="257.26" width="1.55" height="52.61"/><rect class="cls-1" x="524.8" y="257.26" width="1.54" height="52.61"/><rect class="cls-1" x="534.19" y="257.26" width="1.55" height="52.61"/><rect class="cls-1" x="537.19" y="257.26" width="1.55" height="52.61"/><rect class="cls-1" x="541.1" y="257.26" width="1.55" height="52.61"/><rect class="cls-1" x="545.01" y="257.26" width="1.55" height="52.61"/><rect class="cls-1" x="548.94" y="257.26" width="1.54" height="52.61"/><rect class="cls-1" x="550.63" y="257.26" width="1.54" height="52.61"/><rect class="cls-1" x="552.85" y="257.26" width="1.54" height="52.61"/><rect class="cls-1" x="555.84" y="257.26" width="1.55" height="52.61"/><rect class="cls-1" x="569.29" y="257.26" width="1.54" height="52.61"/><rect class="cls-1" x="571.11" y="257.26" width="1.54" height="52.61"/><rect class="cls-1" x="573.07" y="257.26" width="1.54" height="52.61"/><rect class="cls-1" x="585.33" y="257.26" width="1.54" height="52.61"/><rect class="cls-1" x="586.11" y="257.26" width="1.54" height="52.61"/><rect class="cls-1" x="587.42" y="257.26" width="1.54" height="52.61"/><rect class="cls-1" x="589.89" y="257.26" width="1.55" height="52.61"/><rect class="cls-1" x="590.29" y="257.26" width="1.54" height="52.61"/><rect class="cls-1" x="591.72" y="257.26" width="1.55" height="52.61"/><rect class="cls-1" x="597.85" y="257.26" width="1.55" height="52.61"/><rect class="cls-1" x="608.16" y="257.26" width="1.55" height="52.61"/><rect class="cls-1" x="613.12" y="257.26" width="1.55" height="52.61"/><rect class="cls-1" x="615.07" y="257.26" width="1.55" height="52.61"/><rect class="cls-1" x="622.25" y="257.26" width="1.54" height="52.61"/><rect class="cls-1" x="627.21" y="257.26" width="1.55" height="52.61"/><rect class="cls-1" x="628.65" y="257.26" width="1.54" height="52.61"/><rect class="cls-1" x="633.34" y="257.26" width="1.54" height="52.61"/><rect class="cls-1" x="654.48" y="257.26" width="1.55" height="52.61"/><rect class="cls-1" x="656.05" y="257.26" width="1.54" height="52.61"/><rect class="cls-1" x="659.04" y="257.26" width="1.55" height="52.61"/><rect class="cls-1" x="653.3" y="257.26" width="1.55" height="52.61"/><rect class="cls-1" x="655" y="257.26" width="1.55" height="52.61"/><rect class="cls-1" x="656.7" y="257.26" width="1.54" height="52.61"/><rect class="cls-1" x="658.39" y="257.26" width="1.55" height="52.61"/><rect class="cls-1" x="660.87" y="257.26" width="1.54" height="52.61"/><rect class="cls-1" x="661.91" y="257.26" width="1.54" height="52.61"/><rect class="cls-1" x="663.87" y="257.26" width="1.54" height="52.61"/><rect class="cls-1" x="669.35" y="257.26" width="1.55" height="52.61"/><rect class="cls-1" x="670.14" y="257.26" width="1.54" height="52.61"/><rect class="cls-1" x="682" y="257.26" width="1.54" height="52.61"/><rect class="cls-1" x="684.1" y="257.26" width="1.54" height="52.61"/><rect class="cls-1" x="685.66" y="257.26" width="1.54" height="52.61"/><rect class="cls-1" x="688.01" y="257.26" width="1.54" height="52.61"/><rect class="cls-1" x="697.4" y="257.26" width="1.54" height="52.61"/><rect class="cls-1" x="707.44" y="257.26" width="1.55" height="52.61"/><rect class="cls-1" x="707.57" y="257.26" width="1.54" height="52.61"/><rect class="cls-1" x="722.18" y="257.26" width="1.55" height="52.61"/><rect class="cls-1" x="722.97" y="257.26" width="1.54" height="52.61"/><rect class="cls-1" x="725.71" y="257.26" width="1.54" height="52.61"/><rect class="cls-1" x="727.93" y="257.26" width="1.54" height="52.61"/><rect class="cls-1" x="728.97" y="257.26" width="1.55" height="52.61"/><rect class="cls-1" x="729.63" y="257.26" width="1.54" height="52.61"/><rect class="cls-1" x="731.71" y="257.26" width="1.54" height="52.61"/><rect class="cls-1" x="734.97" y="257.26" width="1.54" height="52.61"/><rect class="cls-1" x="737.32" y="257.26" width="1.54" height="52.61"/><rect class="cls-1" x="744.89" y="257.26" width="1.54" height="52.61"/><rect class="cls-1" x="745.15" y="257.26" width="1.55" height="52.61"/><rect class="cls-1" x="745.67" y="257.26" width="1.55" height="52.61"/><rect class="cls-1" x="746.45" y="257.26" width="1.55" height="52.61"/><rect class="cls-1" x="752.32" y="257.26" width="1.55" height="52.61"/><rect class="cls-1" x="753.1" y="257.26" width="1.55" height="52.61"/><rect class="cls-1" x="755.98" y="257.26" width="1.55" height="52.61"/><rect class="cls-1" x="760.94" y="257.26" width="1.54" height="52.61"/><rect class="cls-1" x="761.46" y="257.26" width="1.54" height="52.61"/><rect class="cls-1" x="765.11" y="257.26" width="1.54" height="52.61"/><rect class="cls-1" x="765.37" y="257.26" width="1.54" height="52.61"/><rect class="cls-1" x="766.54" y="257.26" width="1.55" height="52.61"/><rect class="cls-1" x="768.24" y="257.26" width="1.54" height="52.61"/><rect class="cls-1" x="774.37" y="257.26" width="1.55" height="52.61"/><rect class="cls-1" x="778.16" y="257.26" width="1.54" height="52.61"/><rect class="cls-1" x="782.98" y="257.26" width="1.54" height="52.61"/><rect class="cls-1" x="790.68" y="257.26" width="1.55" height="52.61"/><rect class="cls-1" x="801.25" y="257.26" width="1.55" height="52.61"/><rect class="cls-1" x="802.82" y="257.26" width="1.54" height="52.61"/><rect class="cls-1" x="803.21" y="257.26" width="1.54" height="52.61"/><rect class="cls-1" x="805.29" y="257.26" width="1.55" height="52.61"/><rect class="cls-1" x="810.51" y="257.26" width="1.54" height="52.61"/><rect class="cls-1" x="813.77" y="257.26" width="1.54" height="52.61"/><rect class="cls-1" x="818.21" y="257.26" width="1.54" height="52.61"/><rect class="cls-1" x="819.91" y="257.26" width="1.54" height="52.61"/><rect class="cls-1" x="832.95" y="257.26" width="1.55" height="52.61"/><rect class="cls-1" x="840.64" y="257.26" width="1.55" height="52.61"/><rect class="cls-1" x="846" y="257.26" width="1.54" height="52.61"/><rect class="cls-1" x="846.52" y="257.26" width="1.55" height="52.61"/><rect class="cls-1" x="849.65" y="257.26" width="1.54" height="52.61"/><rect class="cls-1" x="852.52" y="257.26" width="1.55" height="52.61"/><rect class="cls-1" x="853.82" y="257.26" width="1.55" height="52.61"/><rect class="cls-1" x="860.74" y="257.26" width="1.55" height="52.61"/><rect class="cls-1" x="862.05" y="257.26" width="1.54" height="52.61"/><rect class="cls-1" x="873.53" y="257.26" width="1.54" height="52.61"/><rect class="cls-1" x="874.96" y="257.26" width="1.55" height="52.61"/><rect class="cls-1" x="877.83" y="257.26" width="1.55" height="52.61"/><rect class="cls-1" x="884.22" y="257.26" width="1.54" height="52.61"/><rect class="cls-1" x="886.96" y="257.26" width="1.55" height="52.61"/><rect class="cls-1" x="887.61" y="257.26" width="1.55" height="52.61"/><rect class="cls-1" x="893.62" y="257.26" width="1.54" height="52.61"/><rect class="cls-1" x="912.66" y="257.26" width="1.55" height="52.61"/><rect class="cls-1" x="916.97" y="257.26" width="1.55" height="52.61"/><rect class="cls-1" x="920.36" y="257.26" width="1.55" height="52.61"/><rect class="cls-1" x="922.06" y="257.26" width="1.54" height="52.61"/><rect class="cls-1" x="924.27" y="257.26" width="1.55" height="52.61"/><rect class="cls-1" x="927.4" y="257.26" width="1.55" height="52.61"/><rect class="cls-1" x="934.72" y="257.26" width="1.54" height="52.61"/><rect class="cls-1" x="935.63" y="257.26" width="1.55" height="52.61"/><rect class="cls-1" x="939.41" y="257.26" width="1.55" height="52.61"/><rect class="cls-1" x="949.07" y="257.26" width="1.54" height="52.61"/><rect class="cls-1" x="953.24" y="257.26" width="1.54" height="52.61"/><rect class="cls-1" x="958.2" y="257.26" width="1.54" height="52.61"/><rect class="cls-1" x="959.76" y="257.26" width="1.55" height="52.61"/><rect class="cls-1" x="963.81" y="257.26" width="1.55" height="52.61"/><rect class="cls-1" x="964.2" y="257.26" width="1.55" height="52.61"/><rect class="cls-1" x="970.07" y="257.26" width="1.54" height="52.61"/><rect class="cls-1" x="976.72" y="257.26" width="1.54" height="52.61"/><rect class="cls-1" x="978.68" y="257.26" width="1.55" height="52.61"/><rect class="cls-1" x="981.42" y="257.26" width="1.55" height="52.61"/><rect class="cls-1" x="982.07" y="257.26" width="1.55" height="52.61"/><rect class="cls-1" x="982.33" y="257.26" width="1.55" height="52.61"/><rect class="cls-1" x="982.86" y="257.26" width="1.54" height="52.61"/><rect class="cls-1" x="986.24" y="257.26" width="1.55" height="52.61"/><rect class="cls-1" x="999.81" y="257.26" width="1.55" height="52.61"/><rect class="cls-1" x="1002.03" y="257.26" width="1.54" height="52.61"/><rect class="cls-1" x="1003.73" y="257.26" width="1.54" height="52.61"/><polygon class="cls-2" points="402.14 292.6 391.2 309.87 413.08 309.87 402.14 292.6"/><polygon class="cls-2" points="442.98 292.6 432.04 309.87 453.92 309.87 442.98 292.6"/><polygon class="cls-2" points="472.07 292.6 461.13 309.87 483.01 309.87 472.07 292.6"/><polygon class="cls-2" points="641.8 292.6 630.86 309.87 652.75 309.87 641.8 292.6"/><polygon class="cls-2" points="689.94 292.6 679 309.87 700.88 309.87 689.94 292.6"/><polygon class="cls-2" points="758.57 292.6 747.63 309.87 769.51 309.87 758.57 292.6"/><polygon class="cls-2" points="816.1 292.6 805.16 309.87 827.05 309.87 816.1 292.6"/><polygon class="cls-2" points="843.63 292.6 832.7 309.87 854.57 309.87 843.63 292.6"/><polygon class="cls-2" points="856.15 292.6 845.22 309.87 867.09 309.87 856.15 292.6"/><polygon class="cls-2" points="876.9 292.6 865.96 309.87 887.84 309.87 876.9 292.6"/><polygon class="cls-2" points="896.21 292.6 885.27 309.87 907.15 309.87 896.21 292.6"/><polygon class="cls-2" points="980.88 292.6 969.94 309.87 991.82 309.87 980.88 292.6"/><polygon class="cls-2" points="989.49 292.6 978.55 309.87 1000.42 309.87 989.49 292.6"/><path class="cls-3" d="M433.1,273.54a10.43,10.43,0,1,0,10.44-10.42A10.43,10.43,0,0,0,433.1,273.54Z"/><polygon class="cls-3" points="444.96 309.87 442.03 309.87 442.03 281.24 444.96 281.24 444.96 309.87 444.96 309.87"/><polygon class="cls-2" points="443.5 292.6 432.56 309.87 454.43 309.87 443.5 292.6"/><path class="cls-3" d="M729.13,273.54a10.42,10.42,0,1,0,10.43-10.42A10.42,10.42,0,0,0,729.13,273.54Z"/><polygon class="cls-3" points="740.98 309.87 738.05 309.87 738.05 281.24 740.98 281.24 740.98 309.87 740.98 309.87"/><polygon class="cls-2" points="739.52 292.6 728.58 309.87 750.46 309.87 739.52 292.6"/><path class="cls-3" d="M931.21,273.54a10.43,10.43,0,1,0,10.43-10.42A10.43,10.43,0,0,0,931.21,273.54Z"/><polygon class="cls-3" points="943.08 309.87 940.14 309.87 940.14 281.24 943.08 281.24 943.08 309.87 943.08 309.87"/><polygon class="cls-2" points="941.61 292.6 930.66 309.87 952.55 309.87 941.61 292.6"/><path class="cls-2" d="M407.51,88.79h-4.72V101h-2.26V88.79h-4.74v-2h11.72Z"/><path class="cls-2" d="M421.47,86.81V101h-2.26V94.75h-7.16V101h-2.24V86.81h2.24v5.94h7.16V86.81Z"/><path class="cls-2" d="M425.07,101V86.81h2.24V101Z"/><path class="cls-2" d="M439.31,90.15a3.12,3.12,0,0,0-.58-.47,5.86,5.86,0,0,0-.89-.47,6.51,6.51,0,0,0-1.12-.36,5.57,5.57,0,0,0-1.25-.14,3.41,3.41,0,0,0-2.09.52,1.72,1.72,0,0,0-.67,1.44,1.56,1.56,0,0,0,.21.85,1.8,1.8,0,0,0,.65.58,5.09,5.09,0,0,0,1.1.44l1.54.41a17.67,17.67,0,0,1,2,.58,5.55,5.55,0,0,1,1.47.78,3.18,3.18,0,0,1,.93,1.13,3.67,3.67,0,0,1,.33,1.63,4,4,0,0,1-.41,1.86,3.49,3.49,0,0,1-1.12,1.27,4.94,4.94,0,0,1-1.65.72,8.48,8.48,0,0,1-2,.23,10.07,10.07,0,0,1-3.13-.49,9,9,0,0,1-2.73-1.43l1-1.92a4.7,4.7,0,0,0,.75.58,6.92,6.92,0,0,0,1.14.59,10,10,0,0,0,1.41.46,6.48,6.48,0,0,0,1.58.19,3.79,3.79,0,0,0,2-.46,1.51,1.51,0,0,0,.72-1.36,1.46,1.46,0,0,0-.27-.9,2.32,2.32,0,0,0-.77-.63,6.73,6.73,0,0,0-1.22-.49q-.72-.22-1.64-.46a16.92,16.92,0,0,1-1.85-.59,4.61,4.61,0,0,1-1.31-.75,2.93,2.93,0,0,1-.79-1,3.41,3.41,0,0,1-.27-1.43,4.12,4.12,0,0,1,.4-1.85,4,4,0,0,1,1.09-1.36,4.77,4.77,0,0,1,1.63-.83,7.12,7.12,0,0,1,2-.28,7.49,7.49,0,0,1,2.66.46,8.82,8.82,0,0,1,2.14,1.14Z"/><path class="cls-2" d="M448.87,101V86.81h2.24V101Z"/><path class="cls-2" d="M463.11,90.15a3.09,3.09,0,0,0-.58-.47,5.83,5.83,0,0,0-.89-.47,6.48,6.48,0,0,0-1.12-.36,5.57,5.57,0,0,0-1.25-.14,3.41,3.41,0,0,0-2.09.52,1.72,1.72,0,0,0-.67,1.44,1.56,1.56,0,0,0,.21.85,1.8,1.8,0,0,0,.65.58,5.08,5.08,0,0,0,1.1.44L460,93a17.7,17.7,0,0,1,2,.58,5.55,5.55,0,0,1,1.47.78,3.18,3.18,0,0,1,.93,1.13,3.66,3.66,0,0,1,.33,1.63,4,4,0,0,1-.41,1.86,3.5,3.5,0,0,1-1.12,1.27,4.94,4.94,0,0,1-1.65.72,8.48,8.48,0,0,1-2,.23,10.07,10.07,0,0,1-3.13-.49,9,9,0,0,1-2.73-1.43l1-1.92a4.74,4.74,0,0,0,.75.58,7,7,0,0,0,1.14.59,9.92,9.92,0,0,0,1.41.46,6.47,6.47,0,0,0,1.58.19,3.79,3.79,0,0,0,2-.46,1.51,1.51,0,0,0,.72-1.36,1.45,1.45,0,0,0-.27-.9,2.31,2.31,0,0,0-.77-.63,6.73,6.73,0,0,0-1.22-.49q-.72-.22-1.64-.46a16.91,16.91,0,0,1-1.85-.59,4.61,4.61,0,0,1-1.31-.75,2.94,2.94,0,0,1-.79-1,3.42,3.42,0,0,1-.27-1.43,4.12,4.12,0,0,1,.4-1.85,4,4,0,0,1,1.09-1.36,4.77,4.77,0,0,1,1.63-.83,7.12,7.12,0,0,1,2-.28,7.48,7.48,0,0,1,2.66.46,8.82,8.82,0,0,1,2.14,1.14Z"/><path class="cls-2" d="M476.23,86.81h2l5.6,14.2h-2.36l-1.5-3.86h-5.48L473,101h-2.38Zm3.26,8.68-2.28-6.1-2.36,6.1Z"/><path class="cls-2" d="M352.5,126v-14.2H362v2h-7.22V118h6v1.86h-6V126Z"/><path class="cls-2" d="M370.06,126.11a6.23,6.23,0,0,1-2.77-.61,6.89,6.89,0,0,1-2.15-1.62,7.32,7.32,0,0,1-1.39-2.31,7.48,7.48,0,0,1-.49-2.66,7.26,7.26,0,0,1,.52-2.72,7.55,7.55,0,0,1,1.43-2.3,6.83,6.83,0,0,1,2.16-1.59,6.32,6.32,0,0,1,2.73-.59,6.07,6.07,0,0,1,2.77.63A7,7,0,0,1,375,114a7.59,7.59,0,0,1,1.38,2.31,7.4,7.4,0,0,1,0,5.35,7.19,7.19,0,0,1-1.43,2.29,7,7,0,0,1-2.17,1.58A6.27,6.27,0,0,1,370.06,126.11Zm-4.52-7.2a6,6,0,0,0,.32,1.94,5.27,5.27,0,0,0,.91,1.66,4.44,4.44,0,0,0,1.43,1.15,4.07,4.07,0,0,0,1.88.43,3.94,3.94,0,0,0,1.91-.45,4.49,4.49,0,0,0,1.41-1.19,5.35,5.35,0,0,0,.88-1.66,6.07,6.07,0,0,0,0-3.83,5.19,5.19,0,0,0-.91-1.64,4.56,4.56,0,0,0-1.42-1.14,4.26,4.26,0,0,0-3.77,0,4.58,4.58,0,0,0-1.42,1.17,5.24,5.24,0,0,0-.89,1.65A5.93,5.93,0,0,0,365.54,118.91Z"/><path class="cls-2" d="M385.5,126.11a6.23,6.23,0,0,1-2.77-.61,6.9,6.9,0,0,1-2.15-1.62,7.32,7.32,0,0,1-1.39-2.31,7.47,7.47,0,0,1-.49-2.66,7.25,7.25,0,0,1,.52-2.72,7.56,7.56,0,0,1,1.43-2.3,6.83,6.83,0,0,1,2.16-1.59,6.32,6.32,0,0,1,2.73-.59,6.07,6.07,0,0,1,2.77.63,7,7,0,0,1,2.14,1.65,7.56,7.56,0,0,1,1.38,2.31,7.41,7.41,0,0,1,0,5.35,7.18,7.18,0,0,1-1.43,2.29,7,7,0,0,1-2.17,1.58A6.27,6.27,0,0,1,385.5,126.11Zm-4.52-7.2a6,6,0,0,0,.32,1.94,5.27,5.27,0,0,0,.91,1.66,4.44,4.44,0,0,0,1.43,1.15,4.06,4.06,0,0,0,1.88.43,4,4,0,0,0,1.91-.45,4.5,4.5,0,0,0,1.41-1.19,5.37,5.37,0,0,0,.88-1.66,6,6,0,0,0,.3-1.88,6,6,0,0,0-.32-1.95,5.17,5.17,0,0,0-.91-1.64,4.55,4.55,0,0,0-1.42-1.14,4.26,4.26,0,0,0-3.77,0,4.57,4.57,0,0,0-1.42,1.17,5.25,5.25,0,0,0-.89,1.65A5.93,5.93,0,0,0,381,118.91Z"/><path class="cls-2" d="M404.8,113.79h-4.72V126h-2.26V113.79h-4.74v-2H404.8Z"/><path class="cls-2" d="M418.26,122.35a3.31,3.31,0,0,1-.35,1.54A3.51,3.51,0,0,1,417,125a4.23,4.23,0,0,1-1.39.72,5.66,5.66,0,0,1-1.7.25H407.1v-14.2h7.32a2.81,2.81,0,0,1,1.34.32,3.35,3.35,0,0,1,1,.83,3.8,3.8,0,0,1,.65,1.16,3.91,3.91,0,0,1,.23,1.31,3.81,3.81,0,0,1-.53,2,3.23,3.23,0,0,1-1.51,1.35,3.61,3.61,0,0,1,1.93,1.31A3.75,3.75,0,0,1,418.26,122.35Zm-8.92-8.6v4.18h4.12a1.83,1.83,0,0,0,.77-.16,2.11,2.11,0,0,0,.62-.43,1.89,1.89,0,0,0,.42-.65,2.26,2.26,0,0,0,.15-.84,2.2,2.2,0,0,0-.52-1.51,1.68,1.68,0,0,0-1.32-.59Zm6.62,8.18a2.43,2.43,0,0,0-.55-1.54,1.88,1.88,0,0,0-.61-.48,1.72,1.72,0,0,0-.78-.18h-4.68v4.34h4.54a2,2,0,0,0,.82-.17,2.09,2.09,0,0,0,.66-.46,2.16,2.16,0,0,0,.6-1.51Z"/><path class="cls-2" d="M424.88,111.81h2l5.6,14.2h-2.36l-1.5-3.86H423.1L421.62,126h-2.38Zm3.26,8.68-2.28-6.1-2.36,6.1Z"/><path class="cls-2" d="M434.6,126v-14.2h2.24V124h7.62v2Z"/><path class="cls-2" d="M446.68,126v-14.2h2.24V124h7.62v2Z"/><path class="cls-2" d="M475.5,126V115.79l-4.22,7.74H470l-4.24-7.74V126h-2.24v-14.2H466l4.7,8.68,4.7-8.68h2.4V126Z"/><path class="cls-2" d="M485.54,111.81h2l5.6,14.2h-2.36l-1.5-3.86h-5.48L482.28,126H479.9Zm3.26,8.68-2.28-6.1-2.36,6.1Z"/><path class="cls-2" d="M504.28,113.79h-4.72V126H497.3V113.79h-4.74v-2h11.72Z"/><path class="cls-2" d="M505,118.81a7.43,7.43,0,0,1,.46-2.55,7,7,0,0,1,1.35-2.28,6.81,6.81,0,0,1,2.17-1.63,6.57,6.57,0,0,1,2.9-.62,6.15,6.15,0,0,1,3.32.86,5.58,5.58,0,0,1,2.08,2.24L515.54,116a4,4,0,0,0-.72-1.08,3.53,3.53,0,0,0-.92-.7,4,4,0,0,0-1-.37,5.22,5.22,0,0,0-1-.11,4.09,4.09,0,0,0-2,.45,4.35,4.35,0,0,0-1.41,1.19,5.32,5.32,0,0,0-.86,1.66,6.09,6.09,0,0,0-.29,1.84,5.77,5.77,0,0,0,.34,2,5.36,5.36,0,0,0,.95,1.66,4.67,4.67,0,0,0,1.45,1.15,4,4,0,0,0,1.84.43A4.64,4.64,0,0,0,513,124a4,4,0,0,0,1.06-.42,4.24,4.24,0,0,0,.94-.73,3.66,3.66,0,0,0,.71-1.06l1.86,1.06a4.35,4.35,0,0,1-1,1.41,6.12,6.12,0,0,1-1.4,1,7.17,7.17,0,0,1-1.65.64,7,7,0,0,1-1.71.22,5.88,5.88,0,0,1-2.74-.64,7.19,7.19,0,0,1-2.14-1.67,7.7,7.7,0,0,1-1.4-2.34A7.43,7.43,0,0,1,505,118.81Z"/><path class="cls-2" d="M531.66,111.81V126H529.4v-6.26h-7.16V126H520v-14.2h2.24v5.94h7.16v-5.94Z"/><path class="cls-2" d="M228.49,247.48h-3.78v9.78H222.9v-9.78h-3.79V245.9h9.38Z"/><path class="cls-2" d="M237.8,255.68v1.58H230V245.9h7.65v1.58H231.8v3.23h5.07v1.49H231.8v3.47Z"/><path class="cls-2" d="M243,245.9h1.57L249,257.26h-1.89l-1.2-3.09h-4.38l-1.18,3.09h-1.9Zm2.61,6.94L243.78,248l-1.89,4.88Z"/><path class="cls-2" d="M260,257.26v-8.18l-3.38,6.19h-1l-3.39-6.19v8.18h-1.79V245.9h1.92l3.76,6.94,3.76-6.94h1.92v11.36Z"/><path class="cls-2" d="M274.2,255.68v1.58h-6.11v-1.58h2.27v-5.58a1.88,1.88,0,0,1-.45.4,5,5,0,0,1-.67.38,5.31,5.31,0,0,1-.77.3,2.5,2.5,0,0,1-.7.12v-1.65a1.85,1.85,0,0,0,.74-.19,6.05,6.05,0,0,0,.82-.45,6.35,6.35,0,0,0,.69-.51,1.42,1.42,0,0,0,.34-.37h1.81v7.55Z"/><path class="cls-2" d="M227.24,300.1h-3.78v9.78h-1.81V300.1h-3.79v-1.58h9.38Z"/><path class="cls-2" d="M236.55,308.29v1.58h-7.79V298.51h7.65v1.58h-5.86v3.23h5.07v1.49h-5.07v3.47Z"/><path class="cls-2" d="M241.75,298.51h1.57l4.48,11.36h-1.89l-1.2-3.09h-4.38l-1.18,3.09h-1.9Zm2.61,6.94-1.82-4.88-1.89,4.88Z"/><path class="cls-2" d="M258.76,309.87V301.7l-3.38,6.19h-1L251,301.7v8.18h-1.79V298.51h1.92l3.76,6.94,3.76-6.94h1.92v11.36Z"/><path class="cls-2" d="M266.44,309.87a6.5,6.5,0,0,1,.11-1.25,3.5,3.5,0,0,1,.4-1.08,4,4,0,0,1,.78-1,6.62,6.62,0,0,1,1.28-.89l1.06-.56a9.35,9.35,0,0,0,.87-.5,2.57,2.57,0,0,0,.6-.53,1,1,0,0,0,.22-.65,1.23,1.23,0,0,0-.44-.92,1.81,1.81,0,0,0-1.27-.41,2.49,2.49,0,0,0-.79.12,3.1,3.1,0,0,0-.66.3,2.88,2.88,0,0,0-.52.41q-.22.22-.4.43l-1.12-1.3a4,4,0,0,1,.5-.44,5,5,0,0,1,.83-.5,6.12,6.12,0,0,1,1.11-.41,5.22,5.22,0,0,1,1.36-.17,4.47,4.47,0,0,1,1.38.2,3.13,3.13,0,0,1,1,.55,2.37,2.37,0,0,1,.65.84,2.48,2.48,0,0,1,.22,1,2.26,2.26,0,0,1-.24,1.06,3.27,3.27,0,0,1-.59.82,4,4,0,0,1-.77.6q-.42.25-.77.42l-.76.38a6.9,6.9,0,0,0-.82.5,5.4,5.4,0,0,0-.72.6,1.79,1.79,0,0,0-.45.7h5.3v1.58Z"/><rect class="cls-2" x="306.92" y="182.29" width="1" height="22.35"/><rect class="cls-2" x="1018.1" y="182.29" width="1" height="22.35"/><rect class="cls-2" x="643.59" y="182.29" width="1" height="22.35"/><path class="cls-2" d="M308.58,175.93a4.16,4.16,0,0,1-2.11-.56,5.08,5.08,0,0,1-1.52-1.38,6.17,6.17,0,0,1-.92-1.85,6.72,6.72,0,0,1-.31-2,6.62,6.62,0,0,1,.34-2.06,6.16,6.16,0,0,1,1-1.86,5.09,5.09,0,0,1,1.53-1.34,4,4,0,0,1,2-.51,4,4,0,0,1,2.1.55,5.24,5.24,0,0,1,1.52,1.4,6.17,6.17,0,0,1,.92,1.86,6.8,6.8,0,0,1,.3,1.94,6.58,6.58,0,0,1-.34,2.06,6.07,6.07,0,0,1-1,1.84,5.14,5.14,0,0,1-1.53,1.33A4.11,4.11,0,0,1,308.58,175.93Zm-3-5.76a6.16,6.16,0,0,0,.22,1.46,4.78,4.78,0,0,0,.58,1.34,3.24,3.24,0,0,0,.94,1,2.48,2.48,0,0,0,2.66,0,3.32,3.32,0,0,0,.94-1,4.87,4.87,0,0,0,.55-1.34,5.75,5.75,0,0,0,.18-1.39,5.64,5.64,0,0,0-.2-1.46,4.67,4.67,0,0,0-.58-1.34,3.35,3.35,0,0,0-.94-1,2.27,2.27,0,0,0-1.3-.38,2.33,2.33,0,0,0-1.36.4,3.26,3.26,0,0,0-.94,1,5,5,0,0,0-.55,1.34A5.68,5.68,0,0,0,305.54,170.17Z"/><path class="cls-2" d="M328.91,175.77V167.6l-3.38,6.19h-1l-3.39-6.19v8.18h-1.79V164.41h1.92l3.76,6.94,3.76-6.94h1.92v11.36Z"/><path class="cls-2" d="M333.28,175.77V164.41h1.79v11.36Z"/><path class="cls-2" d="M339.43,167.77v8h-1.79V164.41H339l6.5,8.19v-8.18h1.81v11.34h-1.49Z"/><path class="cls-2" d="M349.6,175.77v-2h1.46v2Z"/><path class="cls-2" d="M642.59,175.77V173h-5.07v-1.57l5.62-7h1.22v7h1.41V173h-1.41v2.75Zm-3.28-4.34h3.47v-4.35Z"/><path class="cls-2" d="M651,168.48a4,4,0,0,1,1.48.27,3.68,3.68,0,0,1,1.18.75,3.37,3.37,0,0,1,.78,1.14,3.73,3.73,0,0,1,.28,1.46,3.79,3.79,0,0,1-.31,1.55,3.58,3.58,0,0,1-.86,1.21,4,4,0,0,1-1.3.78,4.58,4.58,0,0,1-1.62.28,4.4,4.4,0,0,1-2.21-.55,3.72,3.72,0,0,1-1.49-1.51l1.06-1a3.38,3.38,0,0,0,1.15,1.1,3,3,0,0,0,1.5.41,2.52,2.52,0,0,0,.91-.16,2.16,2.16,0,0,0,.72-.45,2,2,0,0,0,.47-.7,2.35,2.35,0,0,0,.17-.9,2.25,2.25,0,0,0-.17-.88,2,2,0,0,0-.46-.68,2.1,2.1,0,0,0-.68-.44,2.21,2.21,0,0,0-.84-.16,2.49,2.49,0,0,0-1.14.27,2.16,2.16,0,0,0-.86.77h-1.57s0-.17.07-.38.09-.48.15-.8l.21-1.07q.11-.59.24-1.2.29-1.42.62-3.17h5.55V166h-4.27l-.58,3.09a1.78,1.78,0,0,1,.73-.47A3.07,3.07,0,0,1,651,168.48Z"/><path class="cls-2" d="M1008.57,168.27a3.78,3.78,0,0,1,.32-1.55,3.91,3.91,0,0,1,.87-1.25,4.07,4.07,0,0,1,1.3-.83,4.28,4.28,0,0,1,1.62-.3,4.14,4.14,0,0,1,1.71.34,3.56,3.56,0,0,1,1.3,1,4.68,4.68,0,0,1,.83,1.58,7,7,0,0,1,.3,2.11,11.93,11.93,0,0,1-.3,2.86,6.33,6.33,0,0,1-.87,2.06,3.75,3.75,0,0,1-1.37,1.25,3.79,3.79,0,0,1-1.78.42,4.05,4.05,0,0,1-2-.5A4,4,0,0,1,1009,174l1-1.09a2.76,2.76,0,0,0,1,1.06,2.73,2.73,0,0,0,1.42.39,2.25,2.25,0,0,0,1.92-1,4.92,4.92,0,0,0,.74-2.85,2.53,2.53,0,0,1-1,1.14,3.16,3.16,0,0,1-1.62.42,4,4,0,0,1-1.55-.3,3.89,3.89,0,0,1-1.25-.81,3.75,3.75,0,0,1-.83-1.21A3.69,3.69,0,0,1,1008.57,168.27Zm4.1-2.45a2.26,2.26,0,0,0-.93.19,2.43,2.43,0,0,0-.76.53,2.57,2.57,0,0,0-.52.78,2.32,2.32,0,0,0-.19.94,2.26,2.26,0,0,0,.19.93,2.5,2.5,0,0,0,.52.76,2.46,2.46,0,0,0,.77.52,2.38,2.38,0,0,0,1.87,0,2.55,2.55,0,0,0,.77-.51,2.38,2.38,0,0,0,.52-.76,2.28,2.28,0,0,0,.19-.92,2.37,2.37,0,0,0-.19-.94,2.49,2.49,0,0,0-1.3-1.31A2.32,2.32,0,0,0,1012.67,165.82Z"/><path class="cls-2" d="M1023.16,175.93a4.16,4.16,0,0,1-2.11-.56,5.08,5.08,0,0,1-1.52-1.38,6.17,6.17,0,0,1-.92-1.85,6.71,6.71,0,0,1-.31-2,6.61,6.61,0,0,1,.34-2.06,6.15,6.15,0,0,1,1-1.86,5.09,5.09,0,0,1,1.53-1.34,4,4,0,0,1,2-.51,4,4,0,0,1,2.1.55,5.23,5.23,0,0,1,1.52,1.4,6.16,6.16,0,0,1,.92,1.86,6.8,6.8,0,0,1,.3,1.94,6.59,6.59,0,0,1-.34,2.06,6.08,6.08,0,0,1-1,1.84,5.15,5.15,0,0,1-1.53,1.33A4.11,4.11,0,0,1,1023.16,175.93Zm-3-5.76a6.11,6.11,0,0,0,.22,1.46,4.77,4.77,0,0,0,.58,1.34,3.24,3.24,0,0,0,.94,1,2.48,2.48,0,0,0,2.66,0,3.32,3.32,0,0,0,.94-1,4.85,4.85,0,0,0,.55-1.34,5.77,5.77,0,0,0,.18-1.39,5.62,5.62,0,0,0-.2-1.46,4.66,4.66,0,0,0-.58-1.34,3.35,3.35,0,0,0-.94-1,2.27,2.27,0,0,0-1.3-.38,2.32,2.32,0,0,0-1.36.4,3.26,3.26,0,0,0-.94,1,5,5,0,0,0-.55,1.34A5.65,5.65,0,0,0,1020.12,170.17Z"/><path class="cls-2" d="M1043.5,175.77V167.6l-3.38,6.19h-1l-3.39-6.19v8.18h-1.79V164.41h1.92l3.76,6.94,3.76-6.94h1.92v11.36Z"/><path class="cls-2" d="M1047.86,175.77V164.41h1.79v11.36Z"/><path class="cls-2" d="M1054,167.77v8h-1.79V164.41h1.41l6.5,8.19v-8.18h1.81v11.34h-1.49Z"/><path class="cls-2" d="M1064.19,175.77v-2h1.46v2Z"/><path d="M283.93,212.89A109.88,109.88,0,1,1,436.61,75l-.93.37A108.88,108.88,0,1,0,284.39,212Z"/><polygon points="280.69 216.26 290.64 215.53 285.04 207.28 280.69 216.26"/></svg>