<svg id="Layer_1" data-name="Layer 1" xmlns="http://www.w3.org/2000/svg" viewBox="0 0 640 56.81"><defs><style>.cls-1{fill:#333132;}.cls-2{fill:#fdc659;}.cls-3{fill:#ef3e23;}</style></defs><title>yg-umbro-wireframes-170817-2130--slicing</title><path class="cls-1" d="M65.43,51.93a2.8,2.8,0,0,1-2.07.93A3,3,0,0,1,62,52.56,3.41,3.41,0,0,1,61,51.77a3.71,3.71,0,0,1-.7-1.16A3.78,3.78,0,0,1,60,49.23a3.71,3.71,0,0,1,.26-1.37,3.63,3.63,0,0,1,.7-1.14,3.32,3.32,0,0,1,1.07-.78,3.51,3.51,0,0,1,3.06.14,2.75,2.75,0,0,1,1,1.13l-.86.62a2,2,0,0,0-.8-.87,2.23,2.23,0,0,0-1.12-.29,1.93,1.93,0,0,0-.91.21,2.24,2.24,0,0,0-.7.57,2.56,2.56,0,0,0-.45.83,3.12,3.12,0,0,0-.15,1,2.87,2.87,0,0,0,.17,1,2.64,2.64,0,0,0,.48.82,2.28,2.28,0,0,0,.73.55,2,2,0,0,0,.91.21,2.26,2.26,0,0,0,1-.25,3,3,0,0,0,.94-.79V50H63.94v-.83h2.43v3.59h-.94Z"/><path class="cls-1" d="M72.52,51.82v1H67.65v-7.1h4.78v1H68.77v2h3.17v.93H68.77v2.17Z"/><path class="cls-1" d="M73.68,52.81v-7.1h3.09a2,2,0,0,1,.88.2,2.28,2.28,0,0,1,.7.53,2.49,2.49,0,0,1,.45.74A2.26,2.26,0,0,1,79,48a2.38,2.38,0,0,1-.1.69,2.42,2.42,0,0,1-.28.61,2,2,0,0,1-.44.49,1.81,1.81,0,0,1-.57.3l1.67,2.7H78l-1.54-2.47H74.8v2.47Zm1.12-3.46h2a.9.9,0,0,0,.44-.11,1,1,0,0,0,.33-.29,1.47,1.47,0,0,0,.22-.42,1.61,1.61,0,0,0,.08-.51,1.37,1.37,0,0,0-.1-.51,1.46,1.46,0,0,0-.25-.42,1.2,1.2,0,0,0-.36-.29.92.92,0,0,0-.43-.11H74.8Z"/><path class="cls-1" d="M86.26,52.81V47.7l-2.11,3.87h-.62L81.41,47.7v5.11H80.29v-7.1h1.2L83.84,50l2.35-4.34h1.2v7.1Z"/><path class="cls-1" d="M91.08,45.71h1l2.8,7.1H93.68l-.75-1.93H90.19l-.74,1.93H88.26ZM92.71,50l-1.14-3-1.18,3Z"/><path class="cls-1" d="M96.86,47.81v5H95.74v-7.1h.88l4.06,5.12V45.72h1.13v7.09h-.93Z"/><path class="cls-1" d="M103.93,45.71l2,3.56,2-3.56h1.23l-2.65,4.56v2.54h-1.12V50.25l-2.63-4.54Z"/><path class="cls-1" d="M64.39,31a1.8,1.8,0,0,0,.93-.22,1.76,1.76,0,0,0,.6-.58,2.43,2.43,0,0,0,.32-.81,4.54,4.54,0,0,0,.1-.93v-3.6h1.13v3.6a5.38,5.38,0,0,1-.17,1.38A3.18,3.18,0,0,1,66.75,31a2.58,2.58,0,0,1-1,.76,3.22,3.22,0,0,1-1.41.28A3.15,3.15,0,0,1,63,31.75,2.58,2.58,0,0,1,62,31a3.25,3.25,0,0,1-.52-1.13,5.48,5.48,0,0,1-.16-1.33v-3.6h1.12v3.6a4.6,4.6,0,0,0,.1.95,2.43,2.43,0,0,0,.32.81,1.69,1.69,0,0,0,.6.57A1.83,1.83,0,0,0,64.39,31Z"/><path class="cls-1" d="M69,32v-7.1H72a2,2,0,0,1,.88.2,2.28,2.28,0,0,1,.7.53,2.49,2.49,0,0,1,.45.74,2.26,2.26,0,0,1,.17.84,2.38,2.38,0,0,1-.1.69,2.42,2.42,0,0,1-.28.61,2,2,0,0,1-.44.49,1.81,1.81,0,0,1-.57.3L74.52,32H73.25l-1.54-2.47H70.07V32Zm1.12-3.46h2a.9.9,0,0,0,.44-.11,1,1,0,0,0,.33-.29,1.47,1.47,0,0,0,.22-.42,1.61,1.61,0,0,0,.08-.51,1.37,1.37,0,0,0-.1-.51,1.46,1.46,0,0,0-.25-.42A1.2,1.2,0,0,0,72.4,26a.92.92,0,0,0-.43-.11h-1.9Z"/><path class="cls-1" d="M78.52,31a1.8,1.8,0,0,0,.93-.22,1.76,1.76,0,0,0,.6-.58,2.43,2.43,0,0,0,.32-.81,4.54,4.54,0,0,0,.1-.93v-3.6h1.13v3.6a5.38,5.38,0,0,1-.17,1.38A3.18,3.18,0,0,1,80.88,31a2.58,2.58,0,0,1-1,.76,3.22,3.22,0,0,1-1.41.28,3.15,3.15,0,0,1-1.43-.29,2.58,2.58,0,0,1-.95-.79,3.25,3.25,0,0,1-.52-1.13,5.48,5.48,0,0,1-.16-1.33v-3.6h1.12v3.6a4.6,4.6,0,0,0,.1.95,2.43,2.43,0,0,0,.32.81,1.69,1.69,0,0,0,.6.57A1.83,1.83,0,0,0,78.52,31Z"/><path class="cls-1" d="M88.05,31.11A2.8,2.8,0,0,1,86,32a3,3,0,0,1-1.32-.29A3.41,3.41,0,0,1,83.6,31a3.71,3.71,0,0,1-.7-1.16,3.78,3.78,0,0,1-.26-1.38A3.71,3.71,0,0,1,82.9,27a3.63,3.63,0,0,1,.7-1.14,3.32,3.32,0,0,1,1.07-.78,3.51,3.51,0,0,1,3.06.14,2.75,2.75,0,0,1,1,1.13l-.86.62a2,2,0,0,0-.8-.87A2.23,2.23,0,0,0,86,25.85a1.93,1.93,0,0,0-.91.21,2.24,2.24,0,0,0-.7.57,2.56,2.56,0,0,0-.45.83,3.12,3.12,0,0,0-.15,1,2.87,2.87,0,0,0,.17,1,2.64,2.64,0,0,0,.48.82,2.28,2.28,0,0,0,.73.55,2,2,0,0,0,.91.21,2.26,2.26,0,0,0,1-.25,3,3,0,0,0,.94-.79v-.76H86.56V28.4H89V32h-.94Z"/><path class="cls-1" d="M93.23,31a1.8,1.8,0,0,0,.93-.22,1.76,1.76,0,0,0,.6-.58,2.43,2.43,0,0,0,.32-.81,4.54,4.54,0,0,0,.1-.93v-3.6H96.3v3.6a5.38,5.38,0,0,1-.17,1.38A3.18,3.18,0,0,1,95.59,31a2.58,2.58,0,0,1-1,.76,3.22,3.22,0,0,1-1.41.28,3.15,3.15,0,0,1-1.43-.29,2.58,2.58,0,0,1-.95-.79,3.25,3.25,0,0,1-.52-1.13,5.48,5.48,0,0,1-.16-1.33v-3.6h1.12v3.6a4.6,4.6,0,0,0,.1.95,2.43,2.43,0,0,0,.32.81,1.69,1.69,0,0,0,.6.57A1.83,1.83,0,0,0,93.23,31Z"/><path class="cls-1" d="M99.58,24.89h1l2.8,7.1h-1.18l-.75-1.93H98.69L98,32H96.76Zm1.63,4.34-1.14-3-1.18,3Z"/><path class="cls-1" d="M103.93,24.89l2,3.56,2-3.56h1.23l-2.65,4.56V32h-1.12V29.43l-2.63-4.54Z"/><rect class="cls-2" x="121.86" y="11.18" width="0.61" height="20.82"/><rect class="cls-2" x="122.63" y="11.18" width="0.61" height="20.82"/><rect class="cls-2" x="123.25" y="11.18" width="0.61" height="20.82"/><rect class="cls-2" x="123.77" y="11.18" width="0.61" height="20.82"/><rect class="cls-2" x="124.8" y="11.18" width="0.61" height="20.82"/><rect class="cls-2" x="126.97" y="11.18" width="0.61" height="20.82"/><rect class="cls-2" x="127.07" y="11.18" width="0.61" height="20.82"/><rect class="cls-2" x="143.75" y="11.18" width="0.61" height="20.82"/><rect class="cls-2" x="146.28" y="11.18" width="0.61" height="20.82"/><rect class="cls-2" x="153.97" y="11.18" width="0.61" height="20.82"/><rect class="cls-2" x="154.95" y="11.18" width="0.61" height="20.82"/><rect class="cls-2" x="157.01" y="11.18" width="0.61" height="20.82"/><rect class="cls-2" x="157.84" y="11.18" width="0.61" height="20.82"/><rect class="cls-2" x="159.33" y="11.18" width="0.61" height="20.82"/><rect class="cls-2" x="161.97" y="11.18" width="0.61" height="20.82"/><rect class="cls-2" x="163.67" y="11.18" width="0.61" height="20.82"/><rect class="cls-2" x="164.19" y="11.18" width="0.61" height="20.82"/><rect class="cls-2" x="164.86" y="11.18" width="0.61" height="20.82"/><rect class="cls-2" x="165.63" y="11.18" width="0.61" height="20.82"/><rect class="cls-2" x="166.77" y="11.18" width="0.61" height="20.82"/><rect class="cls-2" x="166.92" y="11.18" width="0.61" height="20.82"/><rect class="cls-2" x="169.76" y="11.18" width="0.61" height="20.82"/><rect class="cls-2" x="170.38" y="11.18" width="0.61" height="20.82"/><rect class="cls-2" x="171" y="11.18" width="0.61" height="20.82"/><rect class="cls-2" x="185.19" y="11.18" width="0.61" height="20.82"/><rect class="cls-2" x="186.23" y="11.18" width="0.61" height="20.82"/><rect class="cls-2" x="187.26" y="11.18" width="0.61" height="20.82"/><rect class="cls-2" x="191.7" y="11.18" width="0.61" height="20.82"/><rect class="cls-2" x="192.32" y="11.18" width="0.61" height="20.82"/><rect class="cls-2" x="192.94" y="11.18" width="0.61" height="20.82"/><rect class="cls-2" x="195" y="11.18" width="0.61" height="20.82"/><rect class="cls-2" x="195.05" y="11.18" width="0.61" height="20.82"/><rect class="cls-2" x="195.42" y="11.18" width="0.61" height="20.82"/><rect class="cls-2" x="196.14" y="11.18" width="0.61" height="20.82"/><rect class="cls-2" x="197.9" y="11.18" width="0.61" height="20.82"/><rect class="cls-2" x="200.01" y="11.18" width="0.61" height="20.82"/><rect class="cls-2" x="203.31" y="11.18" width="0.61" height="20.82"/><rect class="cls-2" x="203.83" y="11.18" width="0.61" height="20.82"/><rect class="cls-2" x="203.93" y="11.18" width="0.61" height="20.82"/><rect class="cls-2" x="204.55" y="11.18" width="0.61" height="20.82"/><rect class="cls-2" x="205.84" y="11.18" width="0.61" height="20.82"/><rect class="cls-2" x="206.51" y="11.18" width="0.61" height="20.82"/><rect class="cls-2" x="213.32" y="11.18" width="0.61" height="20.82"/><rect class="cls-2" x="214.26" y="11.18" width="0.61" height="20.82"/><rect class="cls-2" x="214.31" y="11.18" width="0.61" height="20.82"/><rect class="cls-2" x="214.98" y="11.18" width="0.61" height="20.82"/><rect class="cls-2" x="215.6" y="11.18" width="0.61" height="20.82"/><rect class="cls-2" x="216.12" y="11.18" width="0.61" height="20.82"/><rect class="cls-2" x="218.23" y="11.18" width="0.61" height="20.82"/><rect class="cls-2" x="222.1" y="11.18" width="0.61" height="20.82"/><rect class="cls-2" x="223.19" y="11.18" width="0.61" height="20.82"/><rect class="cls-2" x="224.17" y="11.18" width="0.61" height="20.82"/><rect class="cls-2" x="226.23" y="11.18" width="0.61" height="20.82"/><rect class="cls-2" x="231.24" y="11.18" width="0.61" height="20.82"/><rect class="cls-2" x="233.98" y="11.18" width="0.61" height="20.82"/><rect class="cls-2" x="236.81" y="11.18" width="0.61" height="20.82"/><rect class="cls-2" x="238.93" y="11.18" width="0.61" height="20.82"/><rect class="cls-2" x="240.89" y="11.18" width="0.61" height="20.82"/><rect class="cls-2" x="244.4" y="11.18" width="0.61" height="20.82"/><rect class="cls-2" x="245.74" y="11.18" width="0.61" height="20.82"/><rect class="cls-2" x="246" y="11.18" width="0.61" height="20.82"/><rect class="cls-2" x="246.42" y="11.18" width="0.61" height="20.82"/><rect class="cls-2" x="247.45" y="11.18" width="0.61" height="20.82"/><rect class="cls-2" x="248.12" y="11.18" width="0.61" height="20.82"/><rect class="cls-2" x="249.56" y="11.18" width="0.61" height="20.82"/><rect class="cls-2" x="252.45" y="11.18" width="0.61" height="20.82"/><rect class="cls-2" x="252.66" y="11.18" width="0.61" height="20.82"/><rect class="cls-2" x="252.87" y="11.18" width="0.61" height="20.82"/><rect class="cls-2" x="258.86" y="11.18" width="0.61" height="20.82"/><rect class="cls-2" x="263.55" y="11.18" width="0.61" height="20.82"/><rect class="cls-2" x="263.97" y="11.18" width="0.61" height="20.82"/><rect class="cls-2" x="268.41" y="11.18" width="0.61" height="20.82"/><rect class="cls-2" x="268.56" y="11.18" width="0.61" height="20.82"/><rect class="cls-2" x="269.18" y="11.18" width="0.61" height="20.82"/><rect class="cls-2" x="269.49" y="11.18" width="0.61" height="20.82"/><rect class="cls-2" x="272.28" y="11.18" width="0.61" height="20.82"/><rect class="cls-2" x="276.04" y="11.18" width="0.61" height="20.82"/><rect class="cls-2" x="276.87" y="11.18" width="0.61" height="20.82"/><rect class="cls-2" x="277.49" y="11.18" width="0.61" height="20.82"/><rect class="cls-2" x="278.16" y="11.18" width="0.61" height="20.82"/><rect class="cls-2" x="278.93" y="11.18" width="0.61" height="20.82"/><rect class="cls-2" x="282.6" y="11.18" width="0.61" height="20.82"/><rect class="cls-2" x="282.81" y="11.18" width="0.61" height="20.82"/><rect class="cls-2" x="283.53" y="11.18" width="0.61" height="20.82"/><rect class="cls-2" x="286.68" y="11.18" width="0.61" height="20.82"/><rect class="cls-2" x="287.4" y="11.18" width="0.61" height="20.82"/><rect class="cls-2" x="289.36" y="11.18" width="0.61" height="20.82"/><rect class="cls-2" x="290.24" y="11.18" width="0.61" height="20.82"/><rect class="cls-2" x="290.91" y="11.18" width="0.61" height="20.82"/><rect class="cls-2" x="293.34" y="11.18" width="0.61" height="20.82"/><rect class="cls-2" x="297.41" y="11.18" width="0.61" height="20.82"/><rect class="cls-2" x="298.45" y="11.18" width="0.61" height="20.82"/><rect class="cls-2" x="299.48" y="11.18" width="0.61" height="20.82"/><rect class="cls-2" x="300.15" y="11.18" width="0.61" height="20.82"/><rect class="cls-2" x="301.13" y="11.18" width="0.61" height="20.82"/><rect class="cls-2" x="302.73" y="11.18" width="0.61" height="20.82"/><rect class="cls-2" x="304.33" y="11.18" width="0.61" height="20.82"/><rect class="cls-2" x="304.54" y="11.18" width="0.61" height="20.82"/><rect class="cls-2" x="307.32" y="11.18" width="0.61" height="20.82"/><rect class="cls-2" x="308.15" y="11.18" width="0.61" height="20.82"/><rect class="cls-2" x="308.77" y="11.18" width="0.61" height="20.82"/><rect class="cls-2" x="313.26" y="11.18" width="0.61" height="20.82"/><rect class="cls-2" x="313.42" y="11.18" width="0.61" height="20.82"/><rect class="cls-2" x="316.51" y="11.18" width="0.61" height="20.82"/><rect class="cls-2" x="317.29" y="11.18" width="0.61" height="20.82"/><rect class="cls-2" x="317.96" y="11.18" width="0.61" height="20.82"/><rect class="cls-2" x="319.97" y="11.18" width="0.61" height="20.82"/><rect class="cls-2" x="320.95" y="11.18" width="0.61" height="20.82"/><rect class="cls-2" x="321.73" y="11.18" width="0.61" height="20.82"/><rect class="cls-2" x="327.71" y="11.18" width="0.61" height="20.82"/><rect class="cls-2" x="328.49" y="11.18" width="0.61" height="20.82"/><rect class="cls-2" x="332.1" y="11.18" width="0.61" height="20.82"/><rect class="cls-2" x="333.03" y="11.18" width="0.61" height="20.82"/><rect class="cls-2" x="333.91" y="11.18" width="0.61" height="20.82"/><rect class="cls-2" x="337.83" y="11.18" width="0.61" height="20.82"/><rect class="cls-2" x="350.79" y="11.18" width="0.61" height="20.82"/><rect class="cls-2" x="351.97" y="11.18" width="0.61" height="20.82"/><rect class="cls-2" x="352.8" y="11.18" width="0.61" height="20.82"/><rect class="cls-2" x="359.41" y="11.18" width="0.61" height="20.82"/><rect class="cls-2" x="363.28" y="11.18" width="0.61" height="20.82"/><rect class="cls-2" x="364.11" y="11.18" width="0.61" height="20.82"/><rect class="cls-2" x="372.31" y="11.18" width="0.61" height="20.82"/><rect class="cls-2" x="379.02" y="11.18" width="0.61" height="20.82"/><rect class="cls-2" x="379.54" y="11.18" width="0.61" height="20.82"/><rect class="cls-2" x="380.57" y="11.18" width="0.61" height="20.82"/><rect class="cls-2" x="381.5" y="11.18" width="0.61" height="20.82"/><rect class="cls-2" x="382.95" y="11.18" width="0.61" height="20.82"/><rect class="cls-2" x="384.7" y="11.18" width="0.61" height="20.82"/><rect class="cls-2" x="385.12" y="11.18" width="0.61" height="20.82"/><rect class="cls-2" x="386.15" y="11.18" width="0.61" height="20.82"/><rect class="cls-2" x="388.83" y="11.18" width="0.61" height="20.82"/><rect class="cls-2" x="390.79" y="11.18" width="0.61" height="20.82"/><rect class="cls-2" x="392.03" y="11.18" width="0.61" height="20.82"/><rect class="cls-2" x="392.7" y="11.18" width="0.61" height="20.82"/><rect class="cls-2" x="395.28" y="11.18" width="0.61" height="20.82"/><rect class="cls-2" x="396.62" y="11.18" width="0.61" height="20.82"/><rect class="cls-2" x="398.22" y="11.18" width="0.61" height="20.82"/><rect class="cls-2" x="401.22" y="11.18" width="0.61" height="20.82"/><rect class="cls-2" x="401.99" y="11.18" width="0.61" height="20.82"/><rect class="cls-2" x="406.12" y="11.18" width="0.61" height="20.82"/><polygon class="cls-1" points="139.92 25.16 135.59 32 144.25 32 139.92 25.16"/><polygon class="cls-1" points="142.91 25.16 138.58 32 147.24 32 142.91 25.16"/><polygon class="cls-1" points="198.92 25.16 194.59 32 203.25 32 198.92 25.16"/><polygon class="cls-1" points="250.49 25.16 246.16 32 254.81 32 250.49 25.16"/><polygon class="cls-1" points="284.5 25.16 280.17 32 288.83 32 284.5 25.16"/><polygon class="cls-1" points="305.56 25.16 301.24 32 309.89 32 305.56 25.16"/><polygon class="cls-1" points="314.39 25.16 310.06 32 318.72 32 314.39 25.16"/><polygon class="cls-1" points="322.6 25.16 318.27 32 326.92 32 322.6 25.16"/><polygon class="cls-1" points="331.27 25.16 326.94 32 335.6 32 331.27 25.16"/><polygon class="cls-1" points="362.29 25.16 357.96 32 366.62 32 362.29 25.16"/><polygon class="cls-1" points="410.09 25.16 405.76 32 414.42 32 410.09 25.16"/><polygon class="cls-1" points="270.2 25.16 265.88 32 274.53 32 270.2 25.16"/><polygon class="cls-1" points="268.58 25.16 264.26 32 272.91 32 268.58 25.16"/><circle class="cls-3" cx="207.45" cy="17.62" r="4.13"/><rect class="cls-3" x="206.46" y="20.67" width="1.95" height="11.33"/><polygon class="cls-1" points="207.43 25.16 203.11 32 211.76 32 207.43 25.16"/><circle class="cls-3" cx="279.76" cy="17.62" r="4.12"/><rect class="cls-3" x="278.78" y="20.67" width="1.95" height="11.33"/><polygon class="cls-1" points="279.75 25.16 275.43 32 284.08 32 279.75 25.16"/><rect class="cls-2" x="124.95" y="32" width="0.61" height="20.82"/><rect class="cls-2" x="125.22" y="32" width="0.61" height="20.82"/><rect class="cls-2" x="126.04" y="32" width="0.61" height="20.82"/><rect class="cls-2" x="126.87" y="32" width="0.61" height="20.82"/><rect class="cls-2" x="127.48" y="32" width="0.61" height="20.82"/><rect class="cls-2" x="127.59" y="32" width="0.61" height="20.82"/><rect class="cls-2" x="128.21" y="32" width="0.61" height="20.82"/><rect class="cls-2" x="131" y="32" width="0.61" height="20.82"/><rect class="cls-2" x="132.54" y="32" width="0.61" height="20.82"/><rect class="cls-2" x="133.53" y="32" width="0.61" height="20.82"/><rect class="cls-2" x="143.18" y="32" width="0.61" height="20.82"/><rect class="cls-2" x="144" y="32" width="0.61" height="20.82"/><rect class="cls-2" x="147.21" y="32" width="0.61" height="20.82"/><rect class="cls-2" x="147.77" y="32" width="0.61" height="20.82"/><rect class="cls-2" x="148.08" y="32" width="0.61" height="20.82"/><rect class="cls-2" x="150.2" y="32" width="0.61" height="20.82"/><rect class="cls-2" x="151.38" y="32" width="0.61" height="20.82"/><rect class="cls-2" x="152" y="32" width="0.61" height="20.82"/><rect class="cls-2" x="152.26" y="32" width="0.61" height="20.82"/><rect class="cls-2" x="154.43" y="32" width="0.61" height="20.82"/><rect class="cls-2" x="161.14" y="32" width="0.61" height="20.82"/><rect class="cls-2" x="161.76" y="32" width="0.61" height="20.82"/><rect class="cls-2" x="162.59" y="32" width="0.61" height="20.82"/><rect class="cls-2" x="167.49" y="32" width="0.61" height="20.82"/><rect class="cls-2" x="168.62" y="32" width="0.61" height="20.82"/><rect class="cls-2" x="172.39" y="32" width="0.61" height="20.82"/><rect class="cls-2" x="173.79" y="32" width="0.61" height="20.82"/><rect class="cls-2" x="174.41" y="32" width="0.61" height="20.82"/><rect class="cls-2" x="175.85" y="32" width="0.61" height="20.82"/><rect class="cls-2" x="176.11" y="32" width="0.61" height="20.82"/><rect class="cls-2" x="176.68" y="32" width="0.61" height="20.82"/><rect class="cls-2" x="180.34" y="32" width="0.61" height="20.82"/><rect class="cls-2" x="181.22" y="32" width="0.61" height="20.82"/><rect class="cls-2" x="184.37" y="32" width="0.61" height="20.82"/><rect class="cls-2" x="184.78" y="32" width="0.61" height="20.82"/><rect class="cls-2" x="185.66" y="32" width="0.61" height="20.82"/><rect class="cls-2" x="185.76" y="32" width="0.61" height="20.82"/><rect class="cls-2" x="186.28" y="32" width="0.61" height="20.82"/><rect class="cls-2" x="186.38" y="32" width="0.61" height="20.82"/><rect class="cls-2" x="186.79" y="32" width="0.61" height="20.82"/><rect class="cls-2" x="187.62" y="32" width="0.61" height="20.82"/><rect class="cls-2" x="188.29" y="32" width="0.61" height="20.82"/><rect class="cls-2" x="190.72" y="32" width="0.61" height="20.82"/><rect class="cls-2" x="193.4" y="32" width="0.61" height="20.82"/><rect class="cls-2" x="194.07" y="32" width="0.61" height="20.82"/><rect class="cls-2" x="194.85" y="32" width="0.61" height="20.82"/><rect class="cls-2" x="201.09" y="32" width="0.61" height="20.82"/><rect class="cls-2" x="203.52" y="32" width="0.61" height="20.82"/><rect class="cls-2" x="204.29" y="32" width="0.61" height="20.82"/><rect class="cls-2" x="205.38" y="32" width="0.61" height="20.82"/><rect class="cls-2" x="206.26" y="32" width="0.61" height="20.82"/><rect class="cls-2" x="209.77" y="32" width="0.61" height="20.82"/><rect class="cls-2" x="210.39" y="32" width="0.61" height="20.82"/><rect class="cls-2" x="214.1" y="32" width="0.61" height="20.82"/><rect class="cls-2" x="215.29" y="32" width="0.61" height="20.82"/><rect class="cls-2" x="216.84" y="32" width="0.61" height="20.82"/><rect class="cls-2" x="218.38" y="32" width="0.61" height="20.82"/><rect class="cls-2" x="219.94" y="32" width="0.61" height="20.82"/><rect class="cls-2" x="220.61" y="32" width="0.61" height="20.82"/><rect class="cls-2" x="221.48" y="32" width="0.61" height="20.82"/><rect class="cls-2" x="222.67" y="32" width="0.61" height="20.82"/><rect class="cls-2" x="227.99" y="32" width="0.61" height="20.82"/><rect class="cls-2" x="228.71" y="32" width="0.61" height="20.82"/><rect class="cls-2" x="229.49" y="32" width="0.61" height="20.82"/><rect class="cls-2" x="234.34" y="32" width="0.61" height="20.82"/><rect class="cls-2" x="234.65" y="32" width="0.61" height="20.82"/><rect class="cls-2" x="235.16" y="32" width="0.61" height="20.82"/><rect class="cls-2" x="236.14" y="32" width="0.61" height="20.82"/><rect class="cls-2" x="236.3" y="32" width="0.61" height="20.82"/><rect class="cls-2" x="236.87" y="32" width="0.61" height="20.82"/><rect class="cls-2" x="239.29" y="32" width="0.61" height="20.82"/><rect class="cls-2" x="243.37" y="32" width="0.61" height="20.82"/><rect class="cls-2" x="245.33" y="32" width="0.61" height="20.82"/><rect class="cls-2" x="246.1" y="32" width="0.61" height="20.82"/><rect class="cls-2" x="248.95" y="32" width="0.61" height="20.82"/><rect class="cls-2" x="250.91" y="32" width="0.61" height="20.82"/><rect class="cls-2" x="251.48" y="32" width="0.61" height="20.82"/><rect class="cls-2" x="253.33" y="32" width="0.61" height="20.82"/><rect class="cls-2" x="261.69" y="32" width="0.61" height="20.82"/><rect class="cls-2" x="262.32" y="32" width="0.61" height="20.82"/><rect class="cls-2" x="263.5" y="32" width="0.61" height="20.82"/><rect class="cls-2" x="261.23" y="32" width="0.61" height="20.82"/><rect class="cls-2" x="261.9" y="32" width="0.61" height="20.82"/><rect class="cls-2" x="262.57" y="32" width="0.61" height="20.82"/><rect class="cls-2" x="263.24" y="32" width="0.61" height="20.82"/><rect class="cls-2" x="264.22" y="32" width="0.61" height="20.82"/><rect class="cls-2" x="264.64" y="32" width="0.61" height="20.82"/><rect class="cls-2" x="265.41" y="32" width="0.61" height="20.82"/><rect class="cls-2" x="267.58" y="32" width="0.61" height="20.82"/><rect class="cls-2" x="267.89" y="32" width="0.61" height="20.82"/><rect class="cls-2" x="272.59" y="32" width="0.61" height="20.82"/><rect class="cls-2" x="273.41" y="32" width="0.61" height="20.82"/><rect class="cls-2" x="274.03" y="32" width="0.61" height="20.82"/><rect class="cls-2" x="274.96" y="32" width="0.61" height="20.82"/><rect class="cls-2" x="278.68" y="32" width="0.61" height="20.82"/><rect class="cls-2" x="282.65" y="32" width="0.61" height="20.82"/><rect class="cls-2" x="282.7" y="32" width="0.61" height="20.82"/><rect class="cls-2" x="288.48" y="32" width="0.61" height="20.82"/><rect class="cls-2" x="288.8" y="32" width="0.61" height="20.82"/><rect class="cls-2" x="289.88" y="32" width="0.61" height="20.82"/><rect class="cls-2" x="290.76" y="32" width="0.61" height="20.82"/><rect class="cls-2" x="291.17" y="32" width="0.61" height="20.82"/><rect class="cls-2" x="291.43" y="32" width="0.61" height="20.82"/><rect class="cls-2" x="292.25" y="32" width="0.61" height="20.82"/><rect class="cls-2" x="293.54" y="32" width="0.61" height="20.82"/><rect class="cls-2" x="294.47" y="32" width="0.61" height="20.82"/><rect class="cls-2" x="297.47" y="32" width="0.61" height="20.82"/><rect class="cls-2" x="297.57" y="32" width="0.61" height="20.82"/><rect class="cls-2" x="297.77" y="32" width="0.61" height="20.82"/><rect class="cls-2" x="298.08" y="32" width="0.61" height="20.82"/><rect class="cls-2" x="300.41" y="32" width="0.61" height="20.82"/><rect class="cls-2" x="300.72" y="32" width="0.61" height="20.82"/><rect class="cls-2" x="301.85" y="32" width="0.61" height="20.82"/><rect class="cls-2" x="303.82" y="32" width="0.61" height="20.82"/><rect class="cls-2" x="304.02" y="32" width="0.61" height="20.82"/><rect class="cls-2" x="305.47" y="32" width="0.61" height="20.82"/><rect class="cls-2" x="305.57" y="32" width="0.61" height="20.82"/><rect class="cls-2" x="306.03" y="32" width="0.61" height="20.82"/><rect class="cls-2" x="306.71" y="32" width="0.61" height="20.82"/><rect class="cls-2" x="309.13" y="32" width="0.61" height="20.82"/><rect class="cls-2" x="310.63" y="32" width="0.61" height="20.82"/><rect class="cls-2" x="312.54" y="32" width="0.61" height="20.82"/><rect class="cls-2" x="315.58" y="32" width="0.61" height="20.82"/><rect class="cls-2" x="319.76" y="32" width="0.61" height="20.82"/><rect class="cls-2" x="320.39" y="32" width="0.61" height="20.82"/><rect class="cls-2" x="320.54" y="32" width="0.61" height="20.82"/><rect class="cls-2" x="321.36" y="32" width="0.61" height="20.82"/><rect class="cls-2" x="323.43" y="32" width="0.61" height="20.82"/><rect class="cls-2" x="324.72" y="32" width="0.61" height="20.82"/><rect class="cls-2" x="326.48" y="32" width="0.61" height="20.82"/><rect class="cls-2" x="327.15" y="32" width="0.61" height="20.82"/><rect class="cls-2" x="332.31" y="32" width="0.61" height="20.82"/><rect class="cls-2" x="335.35" y="32" width="0.61" height="20.82"/><rect class="cls-2" x="337.47" y="32" width="0.61" height="20.82"/><rect class="cls-2" x="337.68" y="32" width="0.61" height="20.82"/><rect class="cls-2" x="338.92" y="32" width="0.61" height="20.82"/><rect class="cls-2" x="340.05" y="32" width="0.61" height="20.82"/><rect class="cls-2" x="340.57" y="32" width="0.61" height="20.82"/><rect class="cls-2" x="343.3" y="32" width="0.61" height="20.82"/><rect class="cls-2" x="343.82" y="32" width="0.61" height="20.82"/><rect class="cls-2" x="348.36" y="32" width="0.61" height="20.82"/><rect class="cls-2" x="348.93" y="32" width="0.61" height="20.82"/><rect class="cls-2" x="350.06" y="32" width="0.61" height="20.82"/><rect class="cls-2" x="352.59" y="32" width="0.61" height="20.82"/><rect class="cls-2" x="353.68" y="32" width="0.61" height="20.82"/><rect class="cls-2" x="353.94" y="32" width="0.61" height="20.82"/><rect class="cls-2" x="356.31" y="32" width="0.61" height="20.82"/><rect class="cls-2" x="363.85" y="32" width="0.61" height="20.82"/><rect class="cls-2" x="365.55" y="32" width="0.61" height="20.82"/><rect class="cls-2" x="366.89" y="32" width="0.61" height="20.82"/><rect class="cls-2" x="367.56" y="32" width="0.61" height="20.82"/><rect class="cls-2" x="368.44" y="32" width="0.61" height="20.82"/><rect class="cls-2" x="369.68" y="32" width="0.61" height="20.82"/><rect class="cls-2" x="372.57" y="32" width="0.61" height="20.82"/><rect class="cls-2" x="372.93" y="32" width="0.61" height="20.82"/><rect class="cls-2" x="374.43" y="32" width="0.61" height="20.82"/><rect class="cls-2" x="378.25" y="32" width="0.61" height="20.82"/><rect class="cls-2" x="379.9" y="32" width="0.61" height="20.82"/><rect class="cls-2" x="381.86" y="32" width="0.61" height="20.82"/><rect class="cls-2" x="382.48" y="32" width="0.61" height="20.82"/><rect class="cls-2" x="384.08" y="32" width="0.61" height="20.82"/><rect class="cls-2" x="384.24" y="32" width="0.61" height="20.82"/><rect class="cls-2" x="386.56" y="32" width="0.61" height="20.82"/><rect class="cls-2" x="389.19" y="32" width="0.61" height="20.82"/><rect class="cls-2" x="389.97" y="32" width="0.61" height="20.82"/><rect class="cls-2" x="391.05" y="32" width="0.61" height="20.82"/><rect class="cls-2" x="391.31" y="32" width="0.61" height="20.82"/><rect class="cls-2" x="391.41" y="32" width="0.61" height="20.82"/><rect class="cls-2" x="391.62" y="32" width="0.61" height="20.82"/><rect class="cls-2" x="392.96" y="32" width="0.61" height="20.82"/><rect class="cls-2" x="398.33" y="32" width="0.61" height="20.82"/><rect class="cls-2" x="399.21" y="32" width="0.61" height="20.82"/><rect class="cls-2" x="399.88" y="32" width="0.61" height="20.82"/><polygon class="cls-1" points="152.05 45.98 147.72 52.81 156.38 52.81 152.05 45.98"/><polygon class="cls-1" points="161.85 45.98 157.53 52.81 166.18 52.81 161.85 45.98"/><polygon class="cls-1" points="178.01 45.98 173.69 52.81 182.34 52.81 178.01 45.98"/><polygon class="cls-1" points="189.53 45.98 185.19 52.81 193.85 52.81 189.53 45.98"/><polygon class="cls-1" points="256.68 45.98 252.35 52.81 261.01 52.81 256.68 45.98"/><polygon class="cls-1" points="275.73 45.98 271.4 52.81 280.06 52.81 275.73 45.98"/><polygon class="cls-1" points="302.88 45.98 298.55 52.81 307.21 52.81 302.88 45.98"/><polygon class="cls-1" points="325.64 45.98 321.31 52.81 329.97 52.81 325.64 45.98"/><polygon class="cls-1" points="336.53 45.98 332.21 52.81 340.86 52.81 336.53 45.98"/><polygon class="cls-1" points="341.49 45.98 337.16 52.81 345.82 52.81 341.49 45.98"/><polygon class="cls-1" points="349.7 45.98 345.37 52.81 354.02 52.81 349.7 45.98"/><polygon class="cls-1" points="357.34 45.98 353.01 52.81 361.67 52.81 357.34 45.98"/><polygon class="cls-1" points="390.84 45.98 386.51 52.81 395.17 52.81 390.84 45.98"/><polygon class="cls-1" points="394.25 45.98 389.92 52.81 398.57 52.81 394.25 45.98"/><circle class="cls-3" cx="178.23" cy="38.44" r="4.12"/><rect class="cls-3" x="177.24" y="41.49" width="1.95" height="11.33"/><polygon class="cls-1" points="178.22 45.98 173.89 52.81 182.55 52.81 178.22 45.98"/><circle class="cls-3" cx="295.35" cy="38.44" r="4.12"/><rect class="cls-3" x="294.36" y="41.49" width="1.95" height="11.33"/><polygon class="cls-1" points="295.34 45.98 291.01 52.81 299.67 52.81 295.34 45.98"/><circle class="cls-3" cx="375.31" cy="38.44" r="4.12"/><rect class="cls-3" x="374.32" y="41.49" width="1.95" height="11.33"/><polygon class="cls-1" points="375.3 45.98 370.97 52.81 379.63 52.81 375.3 45.98"/></svg>