<svg id="Layer_1" data-name="Layer 1" xmlns="http://www.w3.org/2000/svg" viewBox="0 0 1280.01 217.18"><defs><style>.cls-1{fill:#333132;}.cls-2{fill:#fdc659;}.cls-3{fill:#fff5e3;}</style></defs><title>yg-umbro-wireframes-170817-2130--slicing</title><path class="cls-1" d="M228.49,148.48h-3.78v9.78H222.9v-9.78h-3.79v-1.58h9.38Z"/><path class="cls-1" d="M237.8,156.67v1.58H230V146.89h7.65v1.58H231.8v3.23h5.07v1.49H231.8v3.47Z"/><path class="cls-1" d="M243,146.89h1.57L249,158.25h-1.89l-1.2-3.09h-4.38l-1.18,3.09h-1.9Zm2.61,6.94L243.78,149l-1.89,4.88Z"/><path class="cls-1" d="M260,158.25v-8.18l-3.38,6.19h-1l-3.39-6.19v8.18h-1.79V146.89h1.92l3.76,6.94,3.76-6.94h1.92v11.36Z"/><path class="cls-1" d="M274.2,156.67v1.58h-6.11v-1.58h2.27v-5.58a1.88,1.88,0,0,1-.45.4,5,5,0,0,1-.67.38,5.33,5.33,0,0,1-.77.3,2.49,2.49,0,0,1-.7.12v-1.65a1.85,1.85,0,0,0,.74-.19,6.05,6.05,0,0,0,.82-.45,6.35,6.35,0,0,0,.69-.51,1.42,1.42,0,0,0,.34-.37h1.81v7.55Z"/><path class="cls-1" d="M227.24,201.09h-3.78v9.78h-1.81v-9.78h-3.79v-1.58h9.38Z"/><path class="cls-1" d="M236.55,209.28v1.58h-7.79V199.51h7.65v1.58h-5.86v3.23h5.07v1.49h-5.07v3.47Z"/><path class="cls-1" d="M241.75,199.51h1.57l4.48,11.36h-1.89l-1.2-3.09h-4.38l-1.18,3.09h-1.9Zm2.61,6.94-1.82-4.88-1.89,4.88Z"/><path class="cls-1" d="M258.76,210.87v-8.18l-3.38,6.19h-1L251,202.69v8.18h-1.79V199.51h1.92l3.76,6.94,3.76-6.94h1.92v11.36Z"/><path class="cls-1" d="M266.44,210.87a6.5,6.5,0,0,1,.11-1.25,3.5,3.5,0,0,1,.4-1.08,4,4,0,0,1,.78-1,6.63,6.63,0,0,1,1.28-.89l1.06-.56a9.35,9.35,0,0,0,.87-.5,2.57,2.57,0,0,0,.6-.53,1,1,0,0,0,.22-.65,1.23,1.23,0,0,0-.44-.92,1.81,1.81,0,0,0-1.27-.41,2.49,2.49,0,0,0-.79.12,3.09,3.09,0,0,0-.66.3,2.88,2.88,0,0,0-.52.41q-.22.22-.4.43l-1.12-1.3a4,4,0,0,1,.5-.44,4.94,4.94,0,0,1,.83-.5,6.11,6.11,0,0,1,1.11-.41,5.23,5.23,0,0,1,1.36-.17,4.47,4.47,0,0,1,1.38.2,3.13,3.13,0,0,1,1,.55,2.37,2.37,0,0,1,.65.84,2.48,2.48,0,0,1,.22,1,2.26,2.26,0,0,1-.24,1.06,3.28,3.28,0,0,1-.59.82,4,4,0,0,1-.77.6q-.42.25-.77.42l-.76.38a6.9,6.9,0,0,0-.82.5,5.4,5.4,0,0,0-.72.6,1.8,1.8,0,0,0-.45.7h5.3v1.58Z"/><rect class="cls-2" x="303.33" y="105.63" width="1.54" height="52.62"/><rect class="cls-2" x="305.29" y="105.63" width="1.54" height="52.62"/><rect class="cls-2" x="306.85" y="105.63" width="1.55" height="52.62"/><rect class="cls-2" x="308.16" y="105.63" width="1.54" height="52.62"/><rect class="cls-2" x="310.76" y="105.63" width="1.55" height="52.62"/><rect class="cls-2" x="316.25" y="105.63" width="1.54" height="52.62"/><rect class="cls-2" x="316.51" y="105.63" width="1.54" height="52.62"/><rect class="cls-2" x="358.65" y="105.63" width="1.54" height="52.62"/><rect class="cls-2" x="365.04" y="105.63" width="1.54" height="52.62"/><rect class="cls-2" x="384.48" y="105.63" width="1.54" height="52.62"/><rect class="cls-2" x="386.96" y="105.63" width="1.55" height="52.62"/><rect class="cls-2" x="392.18" y="105.63" width="1.54" height="52.62"/><rect class="cls-2" x="394.26" y="105.63" width="1.55" height="52.62"/><rect class="cls-2" x="398.04" y="105.63" width="1.55" height="52.62"/><rect class="cls-2" x="404.7" y="105.63" width="1.55" height="52.62"/><rect class="cls-2" x="409.01" y="105.63" width="1.54" height="52.62"/><rect class="cls-2" x="410.31" y="105.63" width="1.54" height="52.62"/><rect class="cls-2" x="412" y="105.63" width="1.55" height="52.62"/><rect class="cls-2" x="413.96" y="105.63" width="1.54" height="52.62"/><rect class="cls-2" x="416.83" y="105.63" width="1.54" height="52.62"/><rect class="cls-2" x="417.23" y="105.63" width="1.55" height="52.62"/><rect class="cls-2" x="424.4" y="105.63" width="1.54" height="52.62"/><rect class="cls-2" x="425.96" y="105.63" width="1.55" height="52.62"/><rect class="cls-2" x="427.53" y="105.63" width="1.54" height="52.62"/><rect class="cls-2" x="463.41" y="105.63" width="1.55" height="52.62"/><rect class="cls-2" x="466.02" y="105.63" width="1.54" height="52.62"/><rect class="cls-2" x="468.63" y="105.63" width="1.54" height="52.62"/><rect class="cls-2" x="479.85" y="105.63" width="1.54" height="52.62"/><rect class="cls-2" x="481.42" y="105.63" width="1.54" height="52.62"/><rect class="cls-2" x="482.98" y="105.63" width="1.55" height="52.62"/><rect class="cls-2" x="488.19" y="105.63" width="1.55" height="52.62"/><rect class="cls-2" x="488.33" y="105.63" width="1.55" height="52.62"/><rect class="cls-2" x="489.24" y="105.63" width="1.54" height="52.62"/><rect class="cls-2" x="491.07" y="105.63" width="1.55" height="52.62"/><rect class="cls-2" x="495.51" y="105.63" width="1.54" height="52.62"/><rect class="cls-2" x="500.85" y="105.63" width="1.54" height="52.62"/><rect class="cls-2" x="509.2" y="105.63" width="1.55" height="52.62"/><rect class="cls-2" x="510.51" y="105.63" width="1.54" height="52.62"/><rect class="cls-2" x="510.77" y="105.63" width="1.54" height="52.62"/><rect class="cls-2" x="512.33" y="105.63" width="1.55" height="52.62"/><rect class="cls-2" x="515.59" y="105.63" width="1.55" height="52.62"/><rect class="cls-2" x="517.29" y="105.63" width="1.54" height="52.62"/><rect class="cls-2" x="534.51" y="105.63" width="1.55" height="52.62"/><rect class="cls-2" x="536.86" y="105.63" width="1.55" height="52.62"/><rect class="cls-2" x="536.99" y="105.63" width="1.54" height="52.62"/><rect class="cls-2" x="538.69" y="105.63" width="1.54" height="52.62"/><rect class="cls-2" x="540.25" y="105.63" width="1.55" height="52.62"/><rect class="cls-2" x="541.56" y="105.63" width="1.54" height="52.62"/><rect class="cls-2" x="546.9" y="105.63" width="1.54" height="52.62"/><rect class="cls-2" x="556.69" y="105.63" width="1.55" height="52.62"/><rect class="cls-2" x="559.43" y="105.63" width="1.54" height="52.62"/><rect class="cls-2" x="561.9" y="105.63" width="1.55" height="52.62"/><rect class="cls-2" x="567.13" y="105.63" width="1.54" height="52.62"/><rect class="cls-2" x="579.78" y="105.63" width="1.54" height="52.62"/><rect class="cls-2" x="586.7" y="105.63" width="1.54" height="52.62"/><rect class="cls-2" x="593.88" y="105.63" width="1.54" height="52.62"/><rect class="cls-2" x="599.22" y="105.63" width="1.55" height="52.62"/><rect class="cls-2" x="604.18" y="105.63" width="1.54" height="52.62"/><rect class="cls-2" x="613.05" y="105.63" width="1.55" height="52.62"/><rect class="cls-2" x="616.44" y="105.63" width="1.55" height="52.62"/><rect class="cls-2" x="617.1" y="105.63" width="1.54" height="52.62"/><rect class="cls-2" x="618.14" y="105.63" width="1.54" height="52.62"/><rect class="cls-2" x="620.75" y="105.63" width="1.54" height="52.62"/><rect class="cls-2" x="622.44" y="105.63" width="1.55" height="52.62"/><rect class="cls-2" x="626.1" y="105.63" width="1.55" height="52.62"/><rect class="cls-2" x="633.4" y="105.63" width="1.55" height="52.62"/><rect class="cls-2" x="633.92" y="105.63" width="1.54" height="52.62"/><rect class="cls-2" x="634.45" y="105.63" width="1.54" height="52.62"/><rect class="cls-2" x="649.58" y="105.63" width="1.55" height="52.62"/><rect class="cls-2" x="661.45" y="105.63" width="1.55" height="52.62"/><rect class="cls-2" x="662.5" y="105.63" width="1.54" height="52.62"/><rect class="cls-2" x="673.72" y="105.63" width="1.54" height="52.62"/><rect class="cls-2" x="674.11" y="105.63" width="1.54" height="52.62"/><rect class="cls-2" x="675.67" y="105.63" width="1.55" height="52.62"/><rect class="cls-2" x="676.46" y="105.63" width="1.54" height="52.62"/><rect class="cls-2" x="683.5" y="105.63" width="1.54" height="52.62"/><rect class="cls-2" x="693.02" y="105.63" width="1.55" height="52.62"/><rect class="cls-2" x="695.11" y="105.63" width="1.55" height="52.62"/><rect class="cls-2" x="696.67" y="105.63" width="1.55" height="52.62"/><rect class="cls-2" x="698.38" y="105.63" width="1.55" height="52.62"/><rect class="cls-2" x="700.33" y="105.63" width="1.55" height="52.62"/><rect class="cls-2" x="709.59" y="105.63" width="1.54" height="52.62"/><rect class="cls-2" x="710.12" y="105.63" width="1.54" height="52.62"/><rect class="cls-2" x="711.94" y="105.63" width="1.54" height="52.62"/><rect class="cls-2" x="719.9" y="105.63" width="1.55" height="52.62"/><rect class="cls-2" x="721.73" y="105.63" width="1.54" height="52.62"/><rect class="cls-2" x="726.68" y="105.63" width="1.55" height="52.62"/><rect class="cls-2" x="728.91" y="105.63" width="1.54" height="52.62"/><rect class="cls-2" x="730.6" y="105.63" width="1.55" height="52.62"/><rect class="cls-2" x="736.73" y="105.63" width="1.55" height="52.62"/><rect class="cls-2" x="747.04" y="105.63" width="1.54" height="52.62"/><rect class="cls-2" x="749.65" y="105.63" width="1.54" height="52.62"/><rect class="cls-2" x="752.25" y="105.63" width="1.55" height="52.62"/><rect class="cls-2" x="753.95" y="105.63" width="1.55" height="52.62"/><rect class="cls-2" x="756.44" y="105.63" width="1.54" height="52.62"/><rect class="cls-2" x="760.48" y="105.63" width="1.54" height="52.62"/><rect class="cls-2" x="764.52" y="105.63" width="1.54" height="52.62"/><rect class="cls-2" x="765.04" y="105.63" width="1.55" height="52.62"/><rect class="cls-2" x="772.08" y="105.63" width="1.55" height="52.62"/><rect class="cls-2" x="774.18" y="105.63" width="1.54" height="52.62"/><rect class="cls-2" x="775.74" y="105.63" width="1.55" height="52.62"/><rect class="cls-2" x="787.09" y="105.63" width="1.55" height="52.62"/><rect class="cls-2" x="787.48" y="105.63" width="1.54" height="52.62"/><rect class="cls-2" x="795.31" y="105.63" width="1.54" height="52.62"/><rect class="cls-2" x="797.26" y="105.63" width="1.55" height="52.62"/><rect class="cls-2" x="798.96" y="105.63" width="1.54" height="52.62"/><rect class="cls-2" x="804.05" y="105.63" width="1.55" height="52.62"/><rect class="cls-2" x="806.53" y="105.63" width="1.54" height="52.62"/><rect class="cls-2" x="808.49" y="105.63" width="1.54" height="52.62"/><rect class="cls-2" x="823.62" y="105.63" width="1.55" height="52.62"/><rect class="cls-2" x="825.57" y="105.63" width="1.55" height="52.62"/><rect class="cls-2" x="834.71" y="105.63" width="1.55" height="52.62"/><rect class="cls-2" x="837.06" y="105.63" width="1.54" height="52.62"/><rect class="cls-2" x="839.27" y="105.63" width="1.55" height="52.62"/><rect class="cls-2" x="849.19" y="105.63" width="1.55" height="52.62"/><rect class="cls-2" x="881.94" y="105.63" width="1.54" height="52.62"/><rect class="cls-2" x="884.93" y="105.63" width="1.55" height="52.62"/><rect class="cls-2" x="887.02" y="105.63" width="1.55" height="52.62"/><rect class="cls-2" x="903.73" y="105.63" width="1.54" height="52.62"/><rect class="cls-2" x="913.51" y="105.63" width="1.54" height="52.62"/><rect class="cls-2" x="915.6" y="105.63" width="1.54" height="52.62"/><rect class="cls-2" x="936.34" y="105.63" width="1.55" height="52.62"/><rect class="cls-2" x="953.3" y="105.63" width="1.55" height="52.62"/><rect class="cls-2" x="954.61" y="105.63" width="1.54" height="52.62"/><rect class="cls-2" x="957.21" y="105.63" width="1.55" height="52.62"/><rect class="cls-2" x="959.57" y="105.63" width="1.54" height="52.62"/><rect class="cls-2" x="963.22" y="105.63" width="1.55" height="52.62"/><rect class="cls-2" x="967.66" y="105.63" width="1.54" height="52.62"/><rect class="cls-2" x="968.7" y="105.63" width="1.54" height="52.62"/><rect class="cls-2" x="971.31" y="105.63" width="1.54" height="52.62"/><rect class="cls-2" x="978.08" y="105.63" width="1.55" height="52.62"/><rect class="cls-2" x="983.05" y="105.63" width="1.54" height="52.62"/><rect class="cls-2" x="986.18" y="105.63" width="1.54" height="52.62"/><rect class="cls-2" x="987.87" y="105.63" width="1.55" height="52.62"/><rect class="cls-2" x="994.4" y="105.63" width="1.55" height="52.62"/><rect class="cls-2" x="997.79" y="105.63" width="1.55" height="52.62"/><rect class="cls-2" x="1001.83" y="105.63" width="1.55" height="52.62"/><rect class="cls-2" x="1009.41" y="105.63" width="1.54" height="52.62"/><rect class="cls-2" x="1011.36" y="105.63" width="1.55" height="52.62"/><rect class="cls-2" x="1021.79" y="105.63" width="1.55" height="52.62"/><polygon class="cls-1" points="380.97 140.97 370.03 158.25 391.92 158.25 380.97 140.97"/><polygon class="cls-1" points="498.09 140.97 487.15 158.25 509.03 158.25 498.09 140.97"/><polygon class="cls-1" points="628.43 140.97 617.48 158.25 639.37 158.25 628.43 140.97"/><polygon class="cls-1" points="714.41 140.97 703.46 158.25 725.34 158.25 714.41 140.97"/><polygon class="cls-1" points="767.63 140.97 756.7 158.25 778.57 158.25 767.63 140.97"/><polygon class="cls-1" points="789.94 140.97 779 158.25 800.88 158.25 789.94 140.97"/><polygon class="cls-1" points="810.68 140.97 799.74 158.25 821.62 158.25 810.68 140.97"/><polygon class="cls-1" points="832.61 140.97 821.66 158.25 843.55 158.25 832.61 140.97"/><polygon class="cls-1" points="911.01 140.97 900.07 158.25 921.95 158.25 911.01 140.97"/><polygon class="cls-1" points="678.26 140.97 667.33 158.25 689.2 158.25 678.26 140.97"/><polygon class="cls-1" points="674.17 140.97 663.24 158.25 685.11 158.25 674.17 140.97"/><polygon class="cls-1" points="519.62 140.97 508.68 158.25 530.55 158.25 519.62 140.97"/><polygon class="cls-1" points="702.4 140.97 691.46 158.25 713.34 158.25 702.4 140.97"/><rect class="cls-2" x="311.15" y="158.25" width="1.55" height="52.61"/><rect class="cls-2" x="311.81" y="158.25" width="1.54" height="52.61"/><rect class="cls-2" x="313.9" y="158.25" width="1.55" height="52.61"/><rect class="cls-2" x="315.99" y="158.25" width="1.54" height="52.61"/><rect class="cls-2" x="317.55" y="158.25" width="1.54" height="52.61"/><rect class="cls-2" x="317.82" y="158.25" width="1.54" height="52.61"/><rect class="cls-2" x="319.38" y="158.25" width="1.54" height="52.61"/><rect class="cls-2" x="326.42" y="158.25" width="1.54" height="52.61"/><rect class="cls-2" x="330.34" y="158.25" width="1.54" height="52.61"/><rect class="cls-2" x="332.82" y="158.25" width="1.54" height="52.61"/><rect class="cls-2" x="357.21" y="158.25" width="1.54" height="52.61"/><rect class="cls-2" x="359.3" y="158.25" width="1.55" height="52.61"/><rect class="cls-2" x="367.39" y="158.25" width="1.54" height="52.61"/><rect class="cls-2" x="368.82" y="158.25" width="1.54" height="52.61"/><rect class="cls-2" x="369.6" y="158.25" width="1.55" height="52.61"/><rect class="cls-2" x="374.96" y="158.25" width="1.54" height="52.61"/><rect class="cls-2" x="377.95" y="158.25" width="1.55" height="52.61"/><rect class="cls-2" x="379.52" y="158.25" width="1.54" height="52.61"/><rect class="cls-2" x="380.17" y="158.25" width="1.55" height="52.61"/><rect class="cls-2" x="385.65" y="158.25" width="1.54" height="52.61"/><rect class="cls-2" x="402.62" y="158.25" width="1.54" height="52.61"/><rect class="cls-2" x="404.18" y="158.25" width="1.54" height="52.61"/><rect class="cls-2" x="406.27" y="158.25" width="1.54" height="52.61"/><rect class="cls-2" x="418.66" y="158.25" width="1.55" height="52.61"/><rect class="cls-2" x="421.53" y="158.25" width="1.55" height="52.61"/><rect class="cls-2" x="431.05" y="158.25" width="1.54" height="52.61"/><rect class="cls-2" x="434.58" y="158.25" width="1.54" height="52.61"/><rect class="cls-2" x="436.14" y="158.25" width="1.55" height="52.61"/><rect class="cls-2" x="439.79" y="158.25" width="1.54" height="52.61"/><rect class="cls-2" x="440.44" y="158.25" width="1.55" height="52.61"/><rect class="cls-2" x="441.88" y="158.25" width="1.54" height="52.61"/><rect class="cls-2" x="451.15" y="158.25" width="1.54" height="52.61"/><rect class="cls-2" x="453.36" y="158.25" width="1.55" height="52.61"/><rect class="cls-2" x="461.33" y="158.25" width="1.54" height="52.61"/><rect class="cls-2" x="462.37" y="158.25" width="1.54" height="52.61"/><rect class="cls-2" x="464.59" y="158.25" width="1.54" height="52.61"/><rect class="cls-2" x="464.85" y="158.25" width="1.54" height="52.61"/><rect class="cls-2" x="466.15" y="158.25" width="1.54" height="52.61"/><rect class="cls-2" x="466.41" y="158.25" width="1.54" height="52.61"/><rect class="cls-2" x="467.45" y="158.25" width="1.55" height="52.61"/><rect class="cls-2" x="469.54" y="158.25" width="1.54" height="52.61"/><rect class="cls-2" x="471.24" y="158.25" width="1.54" height="52.61"/><rect class="cls-2" x="477.37" y="158.25" width="1.54" height="52.61"/><rect class="cls-2" x="484.15" y="158.25" width="1.55" height="52.61"/><rect class="cls-2" x="485.85" y="158.25" width="1.54" height="52.61"/><rect class="cls-2" x="487.8" y="158.25" width="1.55" height="52.61"/><rect class="cls-2" x="503.59" y="158.25" width="1.54" height="52.61"/><rect class="cls-2" x="509.73" y="158.25" width="1.54" height="52.61"/><rect class="cls-2" x="511.68" y="158.25" width="1.54" height="52.61"/><rect class="cls-2" x="514.42" y="158.25" width="1.55" height="52.61"/><rect class="cls-2" x="516.64" y="158.25" width="1.54" height="52.61"/><rect class="cls-2" x="525.51" y="158.25" width="1.55" height="52.61"/><rect class="cls-2" x="527.08" y="158.25" width="1.54" height="52.61"/><rect class="cls-2" x="536.47" y="158.25" width="1.55" height="52.61"/><rect class="cls-2" x="539.47" y="158.25" width="1.55" height="52.61"/><rect class="cls-2" x="543.38" y="158.25" width="1.55" height="52.61"/><rect class="cls-2" x="547.29" y="158.25" width="1.55" height="52.61"/><rect class="cls-2" x="551.22" y="158.25" width="1.54" height="52.61"/><rect class="cls-2" x="552.91" y="158.25" width="1.54" height="52.61"/><rect class="cls-2" x="555.13" y="158.25" width="1.54" height="52.61"/><rect class="cls-2" x="558.12" y="158.25" width="1.55" height="52.61"/><rect class="cls-2" x="571.57" y="158.25" width="1.54" height="52.61"/><rect class="cls-2" x="573.39" y="158.25" width="1.54" height="52.61"/><rect class="cls-2" x="575.35" y="158.25" width="1.54" height="52.61"/><rect class="cls-2" x="587.61" y="158.25" width="1.54" height="52.61"/><rect class="cls-2" x="588.39" y="158.25" width="1.54" height="52.61"/><rect class="cls-2" x="589.7" y="158.25" width="1.54" height="52.61"/><rect class="cls-2" x="592.17" y="158.25" width="1.55" height="52.61"/><rect class="cls-2" x="592.57" y="158.25" width="1.54" height="52.61"/><rect class="cls-2" x="594" y="158.25" width="1.55" height="52.61"/><rect class="cls-2" x="600.13" y="158.25" width="1.55" height="52.61"/><rect class="cls-2" x="610.44" y="158.25" width="1.55" height="52.61"/><rect class="cls-2" x="615.4" y="158.25" width="1.55" height="52.61"/><rect class="cls-2" x="617.35" y="158.25" width="1.55" height="52.61"/><rect class="cls-2" x="624.54" y="158.25" width="1.54" height="52.61"/><rect class="cls-2" x="629.49" y="158.25" width="1.55" height="52.61"/><rect class="cls-2" x="630.93" y="158.25" width="1.54" height="52.61"/><rect class="cls-2" x="635.62" y="158.25" width="1.54" height="52.61"/><rect class="cls-2" x="656.76" y="158.25" width="1.55" height="52.61"/><rect class="cls-2" x="658.33" y="158.25" width="1.54" height="52.61"/><rect class="cls-2" x="661.32" y="158.25" width="1.55" height="52.61"/><rect class="cls-2" x="655.58" y="158.25" width="1.55" height="52.61"/><rect class="cls-2" x="657.28" y="158.25" width="1.55" height="52.61"/><rect class="cls-2" x="658.98" y="158.25" width="1.54" height="52.61"/><rect class="cls-2" x="660.67" y="158.25" width="1.55" height="52.61"/><rect class="cls-2" x="663.15" y="158.25" width="1.54" height="52.61"/><rect class="cls-2" x="664.19" y="158.25" width="1.54" height="52.61"/><rect class="cls-2" x="666.15" y="158.25" width="1.54" height="52.61"/><rect class="cls-2" x="671.63" y="158.25" width="1.55" height="52.61"/><rect class="cls-2" x="672.42" y="158.25" width="1.54" height="52.61"/><rect class="cls-2" x="684.28" y="158.25" width="1.54" height="52.61"/><rect class="cls-2" x="686.38" y="158.25" width="1.54" height="52.61"/><rect class="cls-2" x="687.94" y="158.25" width="1.54" height="52.61"/><rect class="cls-2" x="690.29" y="158.25" width="1.54" height="52.61"/><rect class="cls-2" x="699.69" y="158.25" width="1.54" height="52.61"/><rect class="cls-2" x="709.72" y="158.25" width="1.55" height="52.61"/><rect class="cls-2" x="709.85" y="158.25" width="1.54" height="52.61"/><rect class="cls-2" x="724.46" y="158.25" width="1.55" height="52.61"/><rect class="cls-2" x="725.25" y="158.25" width="1.54" height="52.61"/><rect class="cls-2" x="727.99" y="158.25" width="1.54" height="52.61"/><rect class="cls-2" x="730.21" y="158.25" width="1.54" height="52.61"/><rect class="cls-2" x="731.25" y="158.25" width="1.55" height="52.61"/><rect class="cls-2" x="731.91" y="158.25" width="1.54" height="52.61"/><rect class="cls-2" x="733.99" y="158.25" width="1.54" height="52.61"/><rect class="cls-2" x="737.25" y="158.25" width="1.54" height="52.61"/><rect class="cls-2" x="739.6" y="158.25" width="1.54" height="52.61"/><rect class="cls-2" x="747.17" y="158.25" width="1.54" height="52.61"/><rect class="cls-2" x="747.43" y="158.25" width="1.55" height="52.61"/><rect class="cls-2" x="747.95" y="158.25" width="1.55" height="52.61"/><rect class="cls-2" x="748.73" y="158.25" width="1.55" height="52.61"/><rect class="cls-2" x="754.6" y="158.25" width="1.55" height="52.61"/><rect class="cls-2" x="755.38" y="158.25" width="1.55" height="52.61"/><rect class="cls-2" x="758.26" y="158.25" width="1.55" height="52.61"/><rect class="cls-2" x="763.22" y="158.25" width="1.54" height="52.61"/><rect class="cls-2" x="763.74" y="158.25" width="1.54" height="52.61"/><rect class="cls-2" x="767.39" y="158.25" width="1.54" height="52.61"/><rect class="cls-2" x="767.65" y="158.25" width="1.54" height="52.61"/><rect class="cls-2" x="768.82" y="158.25" width="1.55" height="52.61"/><rect class="cls-2" x="770.52" y="158.25" width="1.54" height="52.61"/><rect class="cls-2" x="776.65" y="158.25" width="1.55" height="52.61"/><rect class="cls-2" x="780.44" y="158.25" width="1.54" height="52.61"/><rect class="cls-2" x="785.26" y="158.25" width="1.54" height="52.61"/><rect class="cls-2" x="792.96" y="158.25" width="1.55" height="52.61"/><rect class="cls-2" x="803.53" y="158.25" width="1.55" height="52.61"/><rect class="cls-2" x="805.1" y="158.25" width="1.54" height="52.61"/><rect class="cls-2" x="805.49" y="158.25" width="1.54" height="52.61"/><rect class="cls-2" x="807.57" y="158.25" width="1.55" height="52.61"/><rect class="cls-2" x="812.79" y="158.25" width="1.54" height="52.61"/><rect class="cls-2" x="816.05" y="158.25" width="1.54" height="52.61"/><rect class="cls-2" x="820.49" y="158.25" width="1.54" height="52.61"/><rect class="cls-2" x="822.19" y="158.25" width="1.54" height="52.61"/><rect class="cls-2" x="835.23" y="158.25" width="1.55" height="52.61"/><rect class="cls-2" x="842.92" y="158.25" width="1.55" height="52.61"/><rect class="cls-2" x="848.28" y="158.25" width="1.54" height="52.61"/><rect class="cls-2" x="848.8" y="158.25" width="1.55" height="52.61"/><rect class="cls-2" x="851.93" y="158.25" width="1.54" height="52.61"/><rect class="cls-2" x="854.8" y="158.25" width="1.55" height="52.61"/><rect class="cls-2" x="856.1" y="158.25" width="1.55" height="52.61"/><rect class="cls-2" x="863.02" y="158.25" width="1.55" height="52.61"/><rect class="cls-2" x="864.33" y="158.25" width="1.54" height="52.61"/><rect class="cls-2" x="875.81" y="158.25" width="1.54" height="52.61"/><rect class="cls-2" x="877.24" y="158.25" width="1.55" height="52.61"/><rect class="cls-2" x="880.11" y="158.25" width="1.55" height="52.61"/><rect class="cls-2" x="886.5" y="158.25" width="1.54" height="52.61"/><rect class="cls-2" x="889.24" y="158.25" width="1.55" height="52.61"/><rect class="cls-2" x="889.89" y="158.25" width="1.55" height="52.61"/><rect class="cls-2" x="895.9" y="158.25" width="1.54" height="52.61"/><rect class="cls-2" x="914.94" y="158.25" width="1.55" height="52.61"/><rect class="cls-2" x="919.25" y="158.25" width="1.55" height="52.61"/><rect class="cls-2" x="922.64" y="158.25" width="1.55" height="52.61"/><rect class="cls-2" x="924.34" y="158.25" width="1.54" height="52.61"/><rect class="cls-2" x="926.55" y="158.25" width="1.55" height="52.61"/><rect class="cls-2" x="929.68" y="158.25" width="1.55" height="52.61"/><rect class="cls-2" x="937" y="158.25" width="1.54" height="52.61"/><rect class="cls-2" x="937.91" y="158.25" width="1.55" height="52.61"/><rect class="cls-2" x="941.69" y="158.25" width="1.55" height="52.61"/><rect class="cls-2" x="951.35" y="158.25" width="1.54" height="52.61"/><rect class="cls-2" x="955.52" y="158.25" width="1.54" height="52.61"/><rect class="cls-2" x="960.48" y="158.25" width="1.54" height="52.61"/><rect class="cls-2" x="962.04" y="158.25" width="1.55" height="52.61"/><rect class="cls-2" x="966.09" y="158.25" width="1.55" height="52.61"/><rect class="cls-2" x="966.48" y="158.25" width="1.55" height="52.61"/><rect class="cls-2" x="972.35" y="158.25" width="1.54" height="52.61"/><rect class="cls-2" x="979" y="158.25" width="1.54" height="52.61"/><rect class="cls-2" x="980.96" y="158.25" width="1.55" height="52.61"/><rect class="cls-2" x="983.7" y="158.25" width="1.55" height="52.61"/><rect class="cls-2" x="984.35" y="158.25" width="1.55" height="52.61"/><rect class="cls-2" x="984.61" y="158.25" width="1.55" height="52.61"/><rect class="cls-2" x="985.14" y="158.25" width="1.54" height="52.61"/><rect class="cls-2" x="988.52" y="158.25" width="1.55" height="52.61"/><rect class="cls-2" x="1002.09" y="158.25" width="1.55" height="52.61"/><rect class="cls-2" x="1004.31" y="158.25" width="1.54" height="52.61"/><rect class="cls-2" x="1006.01" y="158.25" width="1.54" height="52.61"/><polygon class="cls-1" points="404.42 193.59 393.48 210.87 415.36 210.87 404.42 193.59"/><polygon class="cls-1" points="445.26 193.59 434.32 210.87 456.2 210.87 445.26 193.59"/><polygon class="cls-1" points="474.36 193.59 463.41 210.87 485.29 210.87 474.36 193.59"/><polygon class="cls-1" points="644.08 193.59 633.14 210.87 655.03 210.87 644.08 193.59"/><polygon class="cls-1" points="692.22 193.59 681.28 210.87 703.16 210.87 692.22 193.59"/><polygon class="cls-1" points="760.85 193.59 749.91 210.87 771.79 210.87 760.85 193.59"/><polygon class="cls-1" points="818.38 193.59 807.44 210.87 829.33 210.87 818.38 193.59"/><polygon class="cls-1" points="845.91 193.59 834.98 210.87 856.85 210.87 845.91 193.59"/><polygon class="cls-1" points="858.43 193.59 847.5 210.87 869.37 210.87 858.43 193.59"/><polygon class="cls-1" points="879.18 193.59 868.24 210.87 890.12 210.87 879.18 193.59"/><polygon class="cls-1" points="898.49 193.59 887.55 210.87 909.43 210.87 898.49 193.59"/><polygon class="cls-1" points="983.16 193.59 972.22 210.87 994.1 210.87 983.16 193.59"/><polygon class="cls-1" points="991.77 193.59 980.84 210.87 1002.71 210.87 991.77 193.59"/><polygon class="cls-1" points="445.78 193.59 434.84 210.87 456.71 210.87 445.78 193.59"/><polygon class="cls-1" points="741.8 193.59 730.86 210.87 752.74 210.87 741.8 193.59"/><polygon class="cls-1" points="943.89 193.59 932.94 210.87 954.83 210.87 943.89 193.59"/><path d="M376.08,121.75a109.31,109.31,0,0,1,166-98.4l-.52.85a108.31,108.31,0,0,0-164.46,97.5Z"/><polygon points="371.57 120.62 377.15 128.88 381.52 119.92 371.57 120.62"/><rect class="cls-1" x="551.47" y="15.95" width="72.02" height="18.56"/><path class="cls-3" d="M564.1,21.4a3.09,3.09,0,0,0-.58-.47,5.83,5.83,0,0,0-.89-.47,6.48,6.48,0,0,0-1.12-.36,5.57,5.57,0,0,0-1.25-.14,3.41,3.41,0,0,0-2.09.52,1.72,1.72,0,0,0-.67,1.44,1.56,1.56,0,0,0,.21.85,1.8,1.8,0,0,0,.65.58,5.11,5.11,0,0,0,1.1.44l1.54.41a17.81,17.81,0,0,1,2,.58,5.55,5.55,0,0,1,1.47.78,3.17,3.17,0,0,1,.93,1.13,3.66,3.66,0,0,1,.33,1.63,4,4,0,0,1-.41,1.86,3.49,3.49,0,0,1-1.12,1.27,4.94,4.94,0,0,1-1.65.72,8.48,8.48,0,0,1-2,.23,10.06,10.06,0,0,1-3.13-.49,9,9,0,0,1-2.73-1.43l1-1.92a4.74,4.74,0,0,0,.75.58,7,7,0,0,0,1.14.59,10,10,0,0,0,1.41.46,6.47,6.47,0,0,0,1.58.19,3.79,3.79,0,0,0,2-.46,1.51,1.51,0,0,0,.72-1.36,1.45,1.45,0,0,0-.27-.9,2.32,2.32,0,0,0-.77-.63,6.73,6.73,0,0,0-1.22-.49q-.72-.22-1.64-.46a16.85,16.85,0,0,1-1.85-.59,4.61,4.61,0,0,1-1.31-.75,2.93,2.93,0,0,1-.79-1,3.42,3.42,0,0,1-.27-1.43,4.12,4.12,0,0,1,.4-1.85,4,4,0,0,1,1.09-1.36,4.77,4.77,0,0,1,1.63-.83,7.12,7.12,0,0,1,2-.28,7.48,7.48,0,0,1,2.66.46,8.81,8.81,0,0,1,2.14,1.14Z"/><path class="cls-3" d="M580,18.06v14.2h-2.26V26h-7.16v6.26h-2.24V18.06h2.24V24h7.16V18.06Z"/><path class="cls-3" d="M589.48,32.36a6.23,6.23,0,0,1-2.77-.61,6.9,6.9,0,0,1-2.15-1.62,7.32,7.32,0,0,1-1.39-2.31,7.47,7.47,0,0,1-.49-2.66,7.25,7.25,0,0,1,.52-2.72,7.56,7.56,0,0,1,1.43-2.3,6.83,6.83,0,0,1,2.16-1.59,6.32,6.32,0,0,1,2.73-.59,6.07,6.07,0,0,1,2.77.63,7,7,0,0,1,2.14,1.65,7.57,7.57,0,0,1,1.38,2.31,7.41,7.41,0,0,1,0,5.35,7.18,7.18,0,0,1-1.43,2.29,7,7,0,0,1-2.17,1.58A6.27,6.27,0,0,1,589.48,32.36ZM585,25.16a6,6,0,0,0,.32,1.94,5.27,5.27,0,0,0,.91,1.66,4.44,4.44,0,0,0,1.43,1.15,4.06,4.06,0,0,0,1.88.43,3.94,3.94,0,0,0,1.91-.45,4.5,4.5,0,0,0,1.41-1.19A5.37,5.37,0,0,0,593.7,27a6,6,0,0,0,.3-1.88,6,6,0,0,0-.32-1.95,5.17,5.17,0,0,0-.91-1.64,4.56,4.56,0,0,0-1.42-1.14,4.26,4.26,0,0,0-3.77,0,4.57,4.57,0,0,0-1.42,1.17,5.25,5.25,0,0,0-.89,1.65A5.93,5.93,0,0,0,585,25.16Z"/><path class="cls-3" d="M608.78,20h-4.72V32.26H601.8V20h-4.74v-2h11.72Z"/><path class="cls-3" d="M619.48,21.4a3.09,3.09,0,0,0-.58-.47,5.83,5.83,0,0,0-.89-.47,6.48,6.48,0,0,0-1.12-.36,5.57,5.57,0,0,0-1.25-.14,3.41,3.41,0,0,0-2.09.52,1.72,1.72,0,0,0-.67,1.44,1.56,1.56,0,0,0,.21.85,1.8,1.8,0,0,0,.65.58,5.11,5.11,0,0,0,1.1.44l1.54.41a17.81,17.81,0,0,1,2,.58,5.55,5.55,0,0,1,1.47.78,3.17,3.17,0,0,1,.93,1.13,3.66,3.66,0,0,1,.33,1.63,4,4,0,0,1-.41,1.86,3.49,3.49,0,0,1-1.12,1.27,4.94,4.94,0,0,1-1.65.72,8.48,8.48,0,0,1-2,.23,10.06,10.06,0,0,1-3.13-.49A9,9,0,0,1,610,30.48l1-1.92a4.74,4.74,0,0,0,.75.58,7,7,0,0,0,1.14.59,10,10,0,0,0,1.41.46,6.47,6.47,0,0,0,1.58.19,3.79,3.79,0,0,0,2-.46,1.51,1.51,0,0,0,.72-1.36,1.45,1.45,0,0,0-.27-.9,2.32,2.32,0,0,0-.77-.63,6.73,6.73,0,0,0-1.22-.49q-.72-.22-1.64-.46a16.85,16.85,0,0,1-1.85-.59,4.61,4.61,0,0,1-1.31-.75,2.93,2.93,0,0,1-.79-1,3.42,3.42,0,0,1-.27-1.43,4.12,4.12,0,0,1,.4-1.85A4,4,0,0,1,612,19.07a4.77,4.77,0,0,1,1.63-.83,7.12,7.12,0,0,1,2-.28,7.48,7.48,0,0,1,2.66.46,8.81,8.81,0,0,1,2.14,1.14Z"/><path class="cls-1" d="M634.94,32.36a6.23,6.23,0,0,1-2.77-.61A6.9,6.9,0,0,1,630,30.13a7.32,7.32,0,0,1-1.39-2.31,7.47,7.47,0,0,1-.49-2.66,7.25,7.25,0,0,1,.52-2.72,7.55,7.55,0,0,1,1.43-2.3,6.83,6.83,0,0,1,2.16-1.59A6.32,6.32,0,0,1,635,18a6.07,6.07,0,0,1,2.77.63,7,7,0,0,1,2.14,1.65,7.58,7.58,0,0,1,1.38,2.31,7.41,7.41,0,0,1,0,5.35,7.19,7.19,0,0,1-1.43,2.29,7,7,0,0,1-2.17,1.58A6.27,6.27,0,0,1,634.94,32.36Zm-4.52-7.2a6,6,0,0,0,.32,1.94,5.28,5.28,0,0,0,.91,1.66,4.44,4.44,0,0,0,1.43,1.15,4.06,4.06,0,0,0,1.88.43,3.94,3.94,0,0,0,1.91-.45,4.49,4.49,0,0,0,1.41-1.19,5.36,5.36,0,0,0,.88-1.66,6,6,0,0,0,.3-1.88,6,6,0,0,0-.32-1.95,5.17,5.17,0,0,0-.91-1.64,4.56,4.56,0,0,0-1.42-1.14,4.26,4.26,0,0,0-3.77,0,4.57,4.57,0,0,0-1.42,1.17,5.26,5.26,0,0,0-.89,1.65A5.93,5.93,0,0,0,630.42,25.16Z"/><path class="cls-1" d="M646.72,22.26v10h-2.24V18.06h1.76l8.12,10.24V18.08h2.26V32.26h-1.86Z"/><path class="cls-1" d="M675.5,30.5a5.61,5.61,0,0,1-4.14,1.86,6,6,0,0,1-2.64-.59,6.8,6.8,0,0,1-2.12-1.59,7.43,7.43,0,0,1-1.41-2.32,7.59,7.59,0,0,1-.51-2.76,7.44,7.44,0,0,1,.51-2.74,7.24,7.24,0,0,1,1.41-2.28,6.63,6.63,0,0,1,2.14-1.55,7,7,0,0,1,6.12.28,5.49,5.49,0,0,1,2.08,2.25l-1.72,1.24a4,4,0,0,0-1.6-1.74,4.45,4.45,0,0,0-2.24-.58,3.86,3.86,0,0,0-1.82.43,4.48,4.48,0,0,0-1.4,1.14,5.11,5.11,0,0,0-.89,1.65,6.21,6.21,0,0,0-.31,2,5.74,5.74,0,0,0,.35,2,5.24,5.24,0,0,0,1,1.64,4.53,4.53,0,0,0,1.45,1.11,4.09,4.09,0,0,0,1.82.41,4.53,4.53,0,0,0,2.07-.5,6.07,6.07,0,0,0,1.89-1.58V26.74h-3V25.08h4.86v7.18H675.5Z"/><path class="cls-1" d="M686.24,32.36a6.23,6.23,0,0,1-2.77-.61,6.9,6.9,0,0,1-2.15-1.62,7.32,7.32,0,0,1-1.39-2.31,7.47,7.47,0,0,1-.49-2.66,7.25,7.25,0,0,1,.52-2.72,7.55,7.55,0,0,1,1.43-2.3,6.83,6.83,0,0,1,2.16-1.59,6.32,6.32,0,0,1,2.73-.59,6.07,6.07,0,0,1,2.77.63,7,7,0,0,1,2.14,1.65,7.58,7.58,0,0,1,1.38,2.31,7.41,7.41,0,0,1,0,5.35,7.19,7.19,0,0,1-1.43,2.29,7,7,0,0,1-2.17,1.58A6.27,6.27,0,0,1,686.24,32.36Zm-4.52-7.2A6,6,0,0,0,682,27.1a5.28,5.28,0,0,0,.91,1.66,4.44,4.44,0,0,0,1.43,1.15,4.06,4.06,0,0,0,1.88.43,3.94,3.94,0,0,0,1.91-.45,4.49,4.49,0,0,0,1.41-1.19,5.36,5.36,0,0,0,.88-1.66,6,6,0,0,0,.3-1.88,6,6,0,0,0-.32-1.95,5.17,5.17,0,0,0-.91-1.64,4.56,4.56,0,0,0-1.42-1.14,4.26,4.26,0,0,0-3.77,0,4.57,4.57,0,0,0-1.42,1.17,5.26,5.26,0,0,0-.89,1.65A5.93,5.93,0,0,0,681.72,25.16Z"/><path class="cls-1" d="M699.46,18.06h2l5.6,14.2h-2.36l-1.5-3.86h-5.48l-1.48,3.86h-2.38Zm3.26,8.68-2.28-6.1-2.36,6.1Z"/><path class="cls-1" d="M709.18,32.26V18.06h2.24V30.28H719v2Z"/><path class="cls-1" d="M547,46.4a3.12,3.12,0,0,0-.58-.47,5.86,5.86,0,0,0-.89-.47,6.51,6.51,0,0,0-1.12-.36,5.57,5.57,0,0,0-1.25-.14,3.4,3.4,0,0,0-2.09.52,1.72,1.72,0,0,0-.67,1.44,1.56,1.56,0,0,0,.21.85,1.81,1.81,0,0,0,.65.58,5.11,5.11,0,0,0,1.1.44l1.54.41a17.78,17.78,0,0,1,2,.58,5.55,5.55,0,0,1,1.47.78,3.18,3.18,0,0,1,.93,1.13,3.67,3.67,0,0,1,.33,1.63,4,4,0,0,1-.41,1.86A3.49,3.49,0,0,1,547,56.45a4.94,4.94,0,0,1-1.65.72,8.48,8.48,0,0,1-2,.23,10.06,10.06,0,0,1-3.13-.49,9,9,0,0,1-2.73-1.43l1-1.92a4.7,4.7,0,0,0,.75.58,6.92,6.92,0,0,0,1.14.59,10,10,0,0,0,1.41.46,6.48,6.48,0,0,0,1.58.19,3.79,3.79,0,0,0,2-.46,1.51,1.51,0,0,0,.72-1.36,1.46,1.46,0,0,0-.27-.9,2.33,2.33,0,0,0-.77-.63,6.73,6.73,0,0,0-1.22-.49q-.72-.22-1.64-.46a16.86,16.86,0,0,1-1.85-.59,4.61,4.61,0,0,1-1.31-.75,2.93,2.93,0,0,1-.79-1,3.41,3.41,0,0,1-.27-1.43,4.12,4.12,0,0,1,.4-1.85,4,4,0,0,1,1.09-1.36,4.77,4.77,0,0,1,1.63-.83,7.12,7.12,0,0,1,2-.28,7.48,7.48,0,0,1,2.66.46A8.81,8.81,0,0,1,548,44.56Z"/><path class="cls-1" d="M562.87,43.06v14.2h-2.26V51h-7.16v6.26h-2.24V43.06h2.24V49h7.16V43.06Z"/><path class="cls-1" d="M572.37,57.36a6.23,6.23,0,0,1-2.77-.61,6.9,6.9,0,0,1-2.15-1.62,7.32,7.32,0,0,1-1.39-2.31,7.48,7.48,0,0,1-.49-2.66,7.26,7.26,0,0,1,.52-2.72,7.56,7.56,0,0,1,1.43-2.3,6.84,6.84,0,0,1,2.16-1.59,6.32,6.32,0,0,1,2.73-.59,6.07,6.07,0,0,1,2.77.63,7,7,0,0,1,2.14,1.65,7.59,7.59,0,0,1,1.38,2.31,7.41,7.41,0,0,1,0,5.35,7.18,7.18,0,0,1-1.43,2.29,7,7,0,0,1-2.17,1.58A6.28,6.28,0,0,1,572.37,57.36Zm-4.52-7.2a6,6,0,0,0,.32,1.94,5.26,5.26,0,0,0,.91,1.66,4.44,4.44,0,0,0,1.43,1.15,4.06,4.06,0,0,0,1.88.43,3.94,3.94,0,0,0,1.91-.45,4.49,4.49,0,0,0,1.41-1.19,5.36,5.36,0,0,0,.88-1.66,6,6,0,0,0,.3-1.88,6,6,0,0,0-.32-1.95,5.19,5.19,0,0,0-.91-1.64,4.56,4.56,0,0,0-1.42-1.14,4.26,4.26,0,0,0-3.77,0A4.58,4.58,0,0,0,569,46.62a5.23,5.23,0,0,0-.89,1.65A5.93,5.93,0,0,0,567.85,50.16Z"/><path class="cls-1" d="M586.43,43.12h2.12l1.74,4.82L592,43.12h2.1l-2.42,6.32,2.12,5.22,4.42-11.6h2.46l-5.86,14.2h-1.92l-2.64-6.36-2.66,6.36h-1.92l-5.86-14.2h2.44l4.44,11.6,2.12-5.22Z"/><path class="cls-1" d="M611,43.06h2l5.6,14.2h-2.36l-1.5-3.86h-5.48l-1.48,3.86h-2.38Zm3.26,8.68L612,45.64l-2.36,6.1Z"/><path class="cls-1" d="M630.17,55.5A5.61,5.61,0,0,1,626,57.36a6,6,0,0,1-2.64-.59,6.81,6.81,0,0,1-2.12-1.59,7.43,7.43,0,0,1-1.41-2.32,7.58,7.58,0,0,1-.51-2.76,7.43,7.43,0,0,1,.51-2.74,7.24,7.24,0,0,1,1.41-2.28,6.63,6.63,0,0,1,2.14-1.55,7,7,0,0,1,6.12.28,5.49,5.49,0,0,1,2.08,2.25l-1.72,1.24a4,4,0,0,0-1.6-1.74A4.45,4.45,0,0,0,626,45a3.86,3.86,0,0,0-1.82.43,4.48,4.48,0,0,0-1.4,1.14,5.1,5.1,0,0,0-.89,1.65,6.21,6.21,0,0,0-.31,2,5.73,5.73,0,0,0,.35,2,5.23,5.23,0,0,0,1,1.64,4.54,4.54,0,0,0,1.45,1.11,4.09,4.09,0,0,0,1.82.41,4.53,4.53,0,0,0,2.07-.5,6.06,6.06,0,0,0,1.89-1.58V51.74h-3V50.08H632v7.18h-1.88Z"/><path class="cls-1" d="M644.95,55.5a5.61,5.61,0,0,1-4.14,1.86,6,6,0,0,1-2.64-.59A6.81,6.81,0,0,1,636,55.18a7.45,7.45,0,0,1-1.41-2.32,7.59,7.59,0,0,1-.51-2.76,7.44,7.44,0,0,1,.51-2.74A7.26,7.26,0,0,1,636,45.08a6.64,6.64,0,0,1,2.14-1.55,7,7,0,0,1,6.12.28,5.49,5.49,0,0,1,2.08,2.25l-1.72,1.24a4,4,0,0,0-1.6-1.74,4.45,4.45,0,0,0-2.24-.58,3.87,3.87,0,0,0-1.82.43,4.47,4.47,0,0,0-1.4,1.14,5.12,5.12,0,0,0-.89,1.65,6.21,6.21,0,0,0-.31,2,5.74,5.74,0,0,0,.35,2,5.26,5.26,0,0,0,1,1.64,4.54,4.54,0,0,0,1.45,1.11,4.09,4.09,0,0,0,1.82.41,4.53,4.53,0,0,0,2.07-.5,6.08,6.08,0,0,0,1.89-1.58V51.74h-3V50.08h4.86v7.18h-1.88Z"/><path class="cls-1" d="M649.79,57.26V43.06H656a3.94,3.94,0,0,1,1.77.4,4.53,4.53,0,0,1,1.39,1A5,5,0,0,1,660,46a4.55,4.55,0,0,1,.33,1.69,4.75,4.75,0,0,1-.2,1.38,4.84,4.84,0,0,1-.56,1.22,3.94,3.94,0,0,1-.88,1,3.63,3.63,0,0,1-1.14.61l3.34,5.4h-2.54l-3.08-4.94H652v4.94ZM652,50.34h3.92a1.8,1.8,0,0,0,.87-.21,2.06,2.06,0,0,0,.67-.58,2.93,2.93,0,0,0,.44-.85,3.2,3.2,0,0,0,.16-1,2.75,2.75,0,0,0-.19-1,2.94,2.94,0,0,0-.5-.84,2.37,2.37,0,0,0-.72-.57,1.84,1.84,0,0,0-.85-.21H652Z"/><path class="cls-1" d="M673.15,55.28v2h-9.74V43.06H673v2h-7.32v4H672v1.86h-6.34v4.34Z"/><path class="cls-1" d="M684,46.4a3.12,3.12,0,0,0-.58-.47,5.85,5.85,0,0,0-.89-.47,6.52,6.52,0,0,0-1.12-.36,5.58,5.58,0,0,0-1.25-.14,3.4,3.4,0,0,0-2.09.52,1.72,1.72,0,0,0-.67,1.44,1.55,1.55,0,0,0,.21.85,1.81,1.81,0,0,0,.65.58,5.12,5.12,0,0,0,1.1.44q.66.19,1.54.41a17.81,17.81,0,0,1,2,.58,5.57,5.57,0,0,1,1.47.78,3.18,3.18,0,0,1,.93,1.13,3.67,3.67,0,0,1,.33,1.63,4,4,0,0,1-.41,1.86A3.49,3.49,0,0,1,684,56.45a4.93,4.93,0,0,1-1.65.72,8.48,8.48,0,0,1-2,.23,10.06,10.06,0,0,1-3.13-.49,9,9,0,0,1-2.73-1.43l1-1.92a4.7,4.7,0,0,0,.75.58,6.94,6.94,0,0,0,1.14.59,10,10,0,0,0,1.41.46,6.48,6.48,0,0,0,1.58.19,3.79,3.79,0,0,0,2-.46,1.51,1.51,0,0,0,.72-1.36,1.46,1.46,0,0,0-.27-.9,2.32,2.32,0,0,0-.77-.63,6.71,6.71,0,0,0-1.22-.49q-.72-.22-1.64-.46a16.87,16.87,0,0,1-1.85-.59,4.63,4.63,0,0,1-1.31-.75,2.93,2.93,0,0,1-.79-1,3.42,3.42,0,0,1-.27-1.43,4.13,4.13,0,0,1,.4-1.85,4,4,0,0,1,1.09-1.36,4.77,4.77,0,0,1,1.63-.83,7.12,7.12,0,0,1,2-.28,7.48,7.48,0,0,1,2.66.46A8.81,8.81,0,0,1,685,44.56Z"/><path class="cls-1" d="M696.59,46.4a3.12,3.12,0,0,0-.58-.47,5.86,5.86,0,0,0-.89-.47A6.51,6.51,0,0,0,694,45.1a5.57,5.57,0,0,0-1.25-.14,3.4,3.4,0,0,0-2.09.52,1.72,1.72,0,0,0-.67,1.44,1.56,1.56,0,0,0,.21.85,1.81,1.81,0,0,0,.65.58,5.11,5.11,0,0,0,1.1.44l1.54.41a17.78,17.78,0,0,1,2,.58,5.55,5.55,0,0,1,1.47.78,3.18,3.18,0,0,1,.93,1.13,3.67,3.67,0,0,1,.33,1.63,4,4,0,0,1-.41,1.86,3.49,3.49,0,0,1-1.12,1.27,4.94,4.94,0,0,1-1.65.72,8.48,8.48,0,0,1-2,.23,10.06,10.06,0,0,1-3.13-.49,9,9,0,0,1-2.73-1.43l1-1.92a4.7,4.7,0,0,0,.75.58,6.92,6.92,0,0,0,1.14.59,10,10,0,0,0,1.41.46,6.48,6.48,0,0,0,1.58.19,3.79,3.79,0,0,0,2-.46,1.51,1.51,0,0,0,.72-1.36,1.46,1.46,0,0,0-.27-.9,2.33,2.33,0,0,0-.77-.63,6.73,6.73,0,0,0-1.22-.49q-.72-.22-1.64-.46a16.86,16.86,0,0,1-1.85-.59,4.61,4.61,0,0,1-1.31-.75,2.93,2.93,0,0,1-.79-1,3.41,3.41,0,0,1-.27-1.43,4.12,4.12,0,0,1,.4-1.85,4,4,0,0,1,1.09-1.36,4.77,4.77,0,0,1,1.63-.83,7.12,7.12,0,0,1,2-.28,7.48,7.48,0,0,1,2.66.46,8.81,8.81,0,0,1,2.14,1.14Z"/><path class="cls-1" d="M700.81,57.26V43.06H703v14.2Z"/><path class="cls-1" d="M712.54,57.36a6.23,6.23,0,0,1-2.77-.61,6.9,6.9,0,0,1-2.15-1.62,7.32,7.32,0,0,1-1.39-2.31,7.47,7.47,0,0,1-.49-2.66,7.25,7.25,0,0,1,.52-2.72,7.55,7.55,0,0,1,1.43-2.3,6.83,6.83,0,0,1,2.16-1.59,6.32,6.32,0,0,1,2.73-.59,6.07,6.07,0,0,1,2.77.63,7,7,0,0,1,2.14,1.65,7.58,7.58,0,0,1,1.38,2.31,7.41,7.41,0,0,1,0,5.35,7.19,7.19,0,0,1-1.43,2.29,7,7,0,0,1-2.17,1.58A6.27,6.27,0,0,1,712.54,57.36ZM708,50.16a6,6,0,0,0,.32,1.94,5.28,5.28,0,0,0,.91,1.66,4.44,4.44,0,0,0,1.43,1.15,4.06,4.06,0,0,0,1.88.43,3.94,3.94,0,0,0,1.91-.45,4.49,4.49,0,0,0,1.41-1.19,5.36,5.36,0,0,0,.88-1.66,6,6,0,0,0,.3-1.88,6,6,0,0,0-.32-1.95,5.17,5.17,0,0,0-.91-1.64,4.56,4.56,0,0,0-1.42-1.14,4.26,4.26,0,0,0-3.77,0,4.57,4.57,0,0,0-1.42,1.17,5.26,5.26,0,0,0-.89,1.65A5.93,5.93,0,0,0,708,50.16Z"/><path class="cls-1" d="M724.32,47.26v10h-2.24V43.06h1.76L732,53.3V43.08h2.26V57.26h-1.86Z"/></svg>