<svg id="Layer_1" data-name="Layer 1" xmlns="http://www.w3.org/2000/svg" viewBox="0 0 640 123.88"><defs><style>.cls-1{fill:#333132;}.cls-2{fill:#fdc659;}.cls-3{fill:#ef3e23;}</style></defs><title>yg-umbro-wireframes-170817-2130--slicing</title><path class="cls-1" d="M84.81,114a1.54,1.54,0,0,0-.29-.24,3,3,0,0,0-.44-.24,3.28,3.28,0,0,0-.56-.18,2.77,2.77,0,0,0-.62-.07,1.7,1.7,0,0,0-1,.26.86.86,0,0,0-.33.72.78.78,0,0,0,.1.42.89.89,0,0,0,.32.29,2.47,2.47,0,0,0,.55.22l.77.21a8.91,8.91,0,0,1,1,.29A2.8,2.8,0,0,1,85,116a1.59,1.59,0,0,1,.46.56,1.83,1.83,0,0,1,.17.82,2,2,0,0,1-.21.93,1.74,1.74,0,0,1-.56.63,2.45,2.45,0,0,1-.82.36,4.27,4.27,0,0,1-1,.12,5,5,0,0,1-1.56-.25,4.48,4.48,0,0,1-1.37-.71l.51-1a2.45,2.45,0,0,0,.38.29,3.56,3.56,0,0,0,.57.29,5,5,0,0,0,.71.23,3.24,3.24,0,0,0,.79.09,1.89,1.89,0,0,0,1-.23.75.75,0,0,0,.36-.68.73.73,0,0,0-.13-.45,1.16,1.16,0,0,0-.39-.32,3.42,3.42,0,0,0-.61-.25l-.82-.23a8.56,8.56,0,0,1-.93-.29,2.32,2.32,0,0,1-.65-.37,1.47,1.47,0,0,1-.4-.52,1.71,1.71,0,0,1-.14-.71,2.06,2.06,0,0,1,.2-.92,2,2,0,0,1,.54-.68,2.37,2.37,0,0,1,.81-.42,3.54,3.54,0,0,1,1-.14,3.74,3.74,0,0,1,1.33.23,4.4,4.4,0,0,1,1.07.57Z"/><path class="cls-1" d="M86.72,119.4v-7.1h3a2,2,0,0,1,.89.2,2.27,2.27,0,0,1,.69.53,2.48,2.48,0,0,1,.46.74,2.27,2.27,0,0,1,.17.84,2.46,2.46,0,0,1-.15.87,2.43,2.43,0,0,1-.44.74,2.13,2.13,0,0,1-.68.52,2,2,0,0,1-.87.2H87.84v2.47Zm1.12-3.46h1.85a.94.94,0,0,0,.44-.1,1,1,0,0,0,.33-.28,1.39,1.39,0,0,0,.22-.42,1.66,1.66,0,0,0,.08-.53,1.53,1.53,0,0,0-.09-.54,1.28,1.28,0,0,0-.25-.42,1.15,1.15,0,0,0-.37-.27,1,1,0,0,0-.42-.1H87.84Z"/><path class="cls-1" d="M94.59,112.3h1l2.8,7.1H97.19l-.75-1.93H93.7L93,119.4H91.77Zm1.63,4.34-1.14-3-1.18,3Z"/><path class="cls-1" d="M99.25,119.4v-7.1h1.12v7.1Z"/><path class="cls-1" d="M103.09,114.4v5H102v-7.1h.88l4.06,5.12v-5.11H108v7.09h-.93Z"/><path class="cls-1" d="M65.43,97.7a2.8,2.8,0,0,1-2.07.93A3,3,0,0,1,62,98.34,3.41,3.41,0,0,1,61,97.54a3.71,3.71,0,0,1-.7-1.16A3.78,3.78,0,0,1,60,95a3.71,3.71,0,0,1,.26-1.37,3.63,3.63,0,0,1,.7-1.14,3.32,3.32,0,0,1,1.07-.78,3.51,3.51,0,0,1,3.06.14,2.75,2.75,0,0,1,1,1.13l-.86.62a2,2,0,0,0-.8-.87,2.23,2.23,0,0,0-1.12-.29,1.93,1.93,0,0,0-.91.21,2.24,2.24,0,0,0-.7.57,2.56,2.56,0,0,0-.45.83,3.12,3.12,0,0,0-.15,1,2.87,2.87,0,0,0,.17,1,2.64,2.64,0,0,0,.48.82,2.28,2.28,0,0,0,.73.55,2,2,0,0,0,.91.21,2.26,2.26,0,0,0,1-.25,3,3,0,0,0,.94-.79v-.76H63.94V95h2.43v3.59h-.94Z"/><path class="cls-1" d="M72.52,97.59v1H67.65v-7.1h4.78v1H68.77v2h3.17v.93H68.77v2.17Z"/><path class="cls-1" d="M73.68,98.58v-7.1h3.09a2,2,0,0,1,.88.2,2.28,2.28,0,0,1,.7.53,2.49,2.49,0,0,1,.45.74,2.26,2.26,0,0,1,.17.84,2.38,2.38,0,0,1-.1.69,2.42,2.42,0,0,1-.28.61,2,2,0,0,1-.44.49,1.81,1.81,0,0,1-.57.3l1.67,2.7H78l-1.54-2.47H74.8v2.47Zm1.12-3.46h2A.9.9,0,0,0,77.2,95a1,1,0,0,0,.33-.29,1.47,1.47,0,0,0,.22-.42,1.61,1.61,0,0,0,.08-.51,1.37,1.37,0,0,0-.1-.51,1.46,1.46,0,0,0-.25-.42,1.2,1.2,0,0,0-.36-.29.92.92,0,0,0-.43-.11H74.8Z"/><path class="cls-1" d="M86.26,98.58V93.47l-2.11,3.87h-.62l-2.12-3.87v5.11H80.29v-7.1h1.2l2.35,4.34,2.35-4.34h1.2v7.1Z"/><path class="cls-1" d="M91.08,91.48h1l2.8,7.1H93.68l-.75-1.93H90.19l-.74,1.93H88.26Zm1.63,4.34-1.14-3-1.18,3Z"/><path class="cls-1" d="M96.86,93.58v5H95.74v-7.1h.88l4.06,5.12V91.49h1.13v7.09h-.93Z"/><path class="cls-1" d="M103.93,91.48l2,3.56,2-3.56h1.23L106.45,96v2.54h-1.12V96l-2.63-4.54Z"/><rect class="cls-2" x="122.94" y="98.59" width="0.61" height="20.82"/><rect class="cls-2" x="123.05" y="98.59" width="0.61" height="20.82"/><rect class="cls-2" x="123.66" y="98.59" width="0.61" height="20.82"/><rect class="cls-2" x="124.34" y="98.59" width="0.61" height="20.82"/><rect class="cls-2" x="125.01" y="98.59" width="0.61" height="20.82"/><rect class="cls-2" x="126.09" y="98.59" width="0.61" height="20.82"/><rect class="cls-2" x="126.76" y="98.59" width="0.61" height="20.82"/><rect class="cls-2" x="128.57" y="98.59" width="0.61" height="20.82"/><rect class="cls-2" x="128.88" y="98.59" width="0.61" height="20.82"/><rect class="cls-2" x="129.6" y="98.59" width="0.61" height="20.82"/><rect class="cls-2" x="130.22" y="98.59" width="0.61" height="20.82"/><rect class="cls-2" x="130.89" y="98.59" width="0.61" height="20.82"/><rect class="cls-2" x="131.2" y="98.59" width="0.61" height="20.82"/><rect class="cls-2" x="131.97" y="98.59" width="0.61" height="20.82"/><rect class="cls-2" x="136" y="98.59" width="0.61" height="20.82"/><rect class="cls-2" x="136.67" y="98.59" width="0.61" height="20.82"/><rect class="cls-2" x="137.45" y="98.59" width="0.61" height="20.82"/><rect class="cls-2" x="138.84" y="98.59" width="0.61" height="20.82"/><rect class="cls-2" x="139.1" y="98.59" width="0.61" height="20.82"/><rect class="cls-2" x="139.77" y="98.59" width="0.61" height="20.82"/><rect class="cls-2" x="141.52" y="98.59" width="0.61" height="20.82"/><rect class="cls-2" x="142.92" y="98.59" width="0.61" height="20.82"/><rect class="cls-2" x="143.8" y="98.59" width="0.61" height="20.82"/><rect class="cls-2" x="144.57" y="98.59" width="0.61" height="20.82"/><rect class="cls-2" x="145.29" y="98.59" width="0.61" height="20.82"/><rect class="cls-2" x="145.91" y="98.59" width="0.61" height="20.82"/><rect class="cls-2" x="146.58" y="98.59" width="0.61" height="20.82"/><rect class="cls-2" x="147.46" y="98.59" width="0.61" height="20.82"/><rect class="cls-2" x="148.13" y="98.59" width="0.61" height="20.82"/><rect class="cls-2" x="148.9" y="98.59" width="0.61" height="20.82"/><rect class="cls-2" x="150.46" y="98.59" width="0.61" height="20.82"/><rect class="cls-2" x="151.43" y="98.59" width="0.61" height="20.82"/><rect class="cls-2" x="152.16" y="98.59" width="0.61" height="20.82"/><rect class="cls-2" x="152.99" y="98.59" width="0.61" height="20.82"/><rect class="cls-2" x="153.92" y="98.59" width="0.61" height="20.82"/><rect class="cls-2" x="156.65" y="98.59" width="0.61" height="20.82"/><rect class="cls-2" x="157.63" y="98.59" width="0.61" height="20.82"/><rect class="cls-2" x="158.25" y="98.59" width="0.61" height="20.82"/><rect class="cls-2" x="159.08" y="98.59" width="0.61" height="20.82"/><rect class="cls-2" x="159.69" y="98.59" width="0.61" height="20.82"/><rect class="cls-2" x="161.76" y="98.59" width="0.61" height="20.82"/><rect class="cls-2" x="164.44" y="98.59" width="0.61" height="20.82"/><rect class="cls-2" x="165.11" y="98.59" width="0.61" height="20.82"/><rect class="cls-2" x="165.79" y="98.59" width="0.61" height="20.82"/><rect class="cls-2" x="170.85" y="98.59" width="0.61" height="20.82"/><rect class="cls-2" x="174.61" y="98.59" width="0.61" height="20.82"/><rect class="cls-2" x="176.16" y="98.59" width="0.61" height="20.82"/><rect class="cls-2" x="176.78" y="98.59" width="0.61" height="20.82"/><rect class="cls-2" x="178.17" y="98.59" width="0.61" height="20.82"/><rect class="cls-2" x="178.9" y="98.59" width="0.61" height="20.82"/><rect class="cls-2" x="179.1" y="98.59" width="0.61" height="20.82"/><rect class="cls-2" x="182.15" y="98.59" width="0.61" height="20.82"/><rect class="cls-2" x="182.46" y="98.59" width="0.61" height="20.82"/><rect class="cls-2" x="183.08" y="98.59" width="0.61" height="20.82"/><rect class="cls-2" x="184.01" y="98.59" width="0.61" height="20.82"/><rect class="cls-2" x="185.66" y="98.59" width="0.61" height="20.82"/><rect class="cls-2" x="186.43" y="98.59" width="0.61" height="20.82"/><rect class="cls-2" x="187.21" y="98.59" width="0.61" height="20.82"/><rect class="cls-2" x="188.96" y="98.59" width="0.61" height="20.82"/><rect class="cls-2" x="189.68" y="98.59" width="0.61" height="20.82"/><rect class="cls-2" x="190.2" y="98.59" width="0.61" height="20.82"/><rect class="cls-2" x="191.39" y="98.59" width="0.61" height="20.82"/><rect class="cls-2" x="192.32" y="98.59" width="0.61" height="20.82"/><rect class="cls-2" x="193.14" y="98.59" width="0.61" height="20.82"/><rect class="cls-2" x="193.25" y="98.59" width="0.61" height="20.82"/><rect class="cls-2" x="196.09" y="98.59" width="0.61" height="20.82"/><rect class="cls-2" x="197.02" y="98.59" width="0.61" height="20.82"/><rect class="cls-2" x="197.63" y="98.59" width="0.61" height="20.82"/><rect class="cls-2" x="198.72" y="98.59" width="0.61" height="20.82"/><rect class="cls-2" x="202.28" y="98.59" width="0.61" height="20.82"/><rect class="cls-2" x="202.9" y="98.59" width="0.61" height="20.82"/><rect class="cls-2" x="203.52" y="98.59" width="0.61" height="20.82"/><rect class="cls-2" x="204.19" y="98.59" width="0.61" height="20.82"/><rect class="cls-2" x="211.36" y="98.59" width="0.61" height="20.82"/><rect class="cls-2" x="212.14" y="98.59" width="0.61" height="20.82"/><rect class="cls-2" x="212.81" y="98.59" width="0.61" height="20.82"/><rect class="cls-2" x="215.19" y="98.59" width="0.61" height="20.82"/><rect class="cls-2" x="215.29" y="98.59" width="0.61" height="20.82"/><rect class="cls-2" x="216.37" y="98.59" width="0.61" height="20.82"/><rect class="cls-2" x="217.4" y="98.59" width="0.61" height="20.82"/><rect class="cls-2" x="221.53" y="98.59" width="0.61" height="20.82"/><rect class="cls-2" x="222.36" y="98.59" width="0.61" height="20.82"/><rect class="cls-2" x="223.86" y="98.59" width="0.61" height="20.82"/><rect class="cls-2" x="227.68" y="98.59" width="0.61" height="20.82"/><rect class="cls-2" x="229.07" y="98.59" width="0.61" height="20.82"/><rect class="cls-2" x="229.69" y="98.59" width="0.61" height="20.82"/><rect class="cls-2" x="234.08" y="98.59" width="0.61" height="20.82"/><rect class="cls-2" x="234.7" y="98.59" width="0.61" height="20.82"/><rect class="cls-2" x="235.32" y="98.59" width="0.61" height="20.82"/><rect class="cls-2" x="237.69" y="98.59" width="0.61" height="20.82"/><rect class="cls-2" x="237.85" y="98.59" width="0.61" height="20.82"/><rect class="cls-2" x="238.47" y="98.59" width="0.61" height="20.82"/><rect class="cls-2" x="240.79" y="98.59" width="0.61" height="20.82"/><rect class="cls-2" x="241.51" y="98.59" width="0.61" height="20.82"/><rect class="cls-2" x="245.23" y="98.59" width="0.61" height="20.82"/><rect class="cls-2" x="246.15" y="98.59" width="0.61" height="20.82"/><rect class="cls-2" x="246.57" y="98.59" width="0.61" height="20.82"/><rect class="cls-2" x="247.29" y="98.59" width="0.61" height="20.82"/><rect class="cls-2" x="247.76" y="98.59" width="0.61" height="20.82"/><rect class="cls-2" x="248.48" y="98.59" width="0.61" height="20.82"/><rect class="cls-2" x="249" y="98.59" width="0.61" height="20.82"/><rect class="cls-2" x="251.42" y="98.59" width="0.61" height="20.82"/><rect class="cls-2" x="251.73" y="98.59" width="0.61" height="20.82"/><rect class="cls-2" x="252.35" y="98.59" width="0.61" height="20.82"/><rect class="cls-2" x="253.02" y="98.59" width="0.61" height="20.82"/><rect class="cls-2" x="253.69" y="98.59" width="0.61" height="20.82"/><rect class="cls-2" x="254.36" y="98.59" width="0.61" height="20.82"/><rect class="cls-2" x="258.44" y="98.59" width="0.61" height="20.82"/><rect class="cls-2" x="260.25" y="98.59" width="0.61" height="20.82"/><rect class="cls-2" x="260.87" y="98.59" width="0.61" height="20.82"/><rect class="cls-2" x="262.52" y="98.59" width="0.61" height="20.82"/><rect class="cls-2" x="263.19" y="98.59" width="0.61" height="20.82"/><rect class="cls-2" x="264.01" y="98.59" width="0.61" height="20.82"/><rect class="cls-2" x="261.23" y="98.59" width="0.61" height="20.82"/><rect class="cls-2" x="261.9" y="98.59" width="0.61" height="20.82"/><rect class="cls-2" x="263.19" y="98.59" width="0.61" height="20.82"/><rect class="cls-2" x="263.29" y="98.59" width="0.61" height="20.82"/><rect class="cls-2" x="266.13" y="98.59" width="0.61" height="20.82"/><rect class="cls-2" x="269.54" y="98.59" width="0.61" height="20.82"/><rect class="cls-2" x="270.21" y="98.59" width="0.61" height="20.82"/><rect class="cls-2" x="272.43" y="98.59" width="0.61" height="20.82"/><rect class="cls-2" x="273.15" y="98.59" width="0.61" height="20.82"/><rect class="cls-2" x="273.88" y="98.59" width="0.61" height="20.82"/><rect class="cls-2" x="276.35" y="98.59" width="0.61" height="20.82"/><rect class="cls-2" x="277.02" y="98.59" width="0.61" height="20.82"/><rect class="cls-2" x="277.69" y="98.59" width="0.61" height="20.82"/><rect class="cls-2" x="278.62" y="98.59" width="0.61" height="20.82"/><rect class="cls-2" x="279.24" y="98.59" width="0.61" height="20.82"/><rect class="cls-2" x="280.07" y="98.59" width="0.61" height="20.82"/><rect class="cls-2" x="283.12" y="98.59" width="0.61" height="20.82"/><rect class="cls-2" x="283.63" y="98.59" width="0.61" height="20.82"/><rect class="cls-2" x="284.46" y="98.59" width="0.61" height="20.82"/><rect class="cls-2" x="285.44" y="98.59" width="0.61" height="20.82"/><rect class="cls-2" x="286.11" y="98.59" width="0.61" height="20.82"/><rect class="cls-2" x="286.16" y="98.59" width="0.61" height="20.82"/><rect class="cls-2" x="288.12" y="98.59" width="0.61" height="20.82"/><rect class="cls-2" x="289.52" y="98.59" width="0.61" height="20.82"/><rect class="cls-2" x="290.19" y="98.59" width="0.61" height="20.82"/><rect class="cls-2" x="293.44" y="98.59" width="0.61" height="20.82"/><rect class="cls-2" x="294.88" y="98.59" width="0.61" height="20.82"/><rect class="cls-2" x="296.84" y="98.59" width="0.61" height="20.82"/><rect class="cls-2" x="297.62" y="98.59" width="0.61" height="20.82"/><rect class="cls-2" x="298.6" y="98.59" width="0.61" height="20.82"/><rect class="cls-2" x="299.32" y="98.59" width="0.61" height="20.82"/><rect class="cls-2" x="300" y="98.59" width="0.61" height="20.82"/><rect class="cls-2" x="300.36" y="98.59" width="0.61" height="20.82"/><rect class="cls-2" x="301.18" y="98.59" width="0.61" height="20.82"/><rect class="cls-2" x="301.8" y="98.59" width="0.61" height="20.82"/><rect class="cls-2" x="304.33" y="98.59" width="0.61" height="20.82"/><rect class="cls-2" x="304.95" y="98.59" width="0.61" height="20.82"/><rect class="cls-2" x="308.87" y="98.59" width="0.61" height="20.82"/><rect class="cls-2" x="309.8" y="98.59" width="0.61" height="20.82"/><rect class="cls-2" x="310.42" y="98.59" width="0.61" height="20.82"/><rect class="cls-2" x="313.57" y="98.59" width="0.61" height="20.82"/><rect class="cls-2" x="314.19" y="98.59" width="0.61" height="20.82"/><rect class="cls-2" x="314.81" y="98.59" width="0.61" height="20.82"/><rect class="cls-2" x="317.39" y="98.59" width="0.61" height="20.82"/><rect class="cls-2" x="319.35" y="98.59" width="0.61" height="20.82"/><rect class="cls-2" x="320.18" y="98.59" width="0.61" height="20.82"/><rect class="cls-2" x="320.79" y="98.59" width="0.61" height="20.82"/><rect class="cls-2" x="321.42" y="98.59" width="0.61" height="20.82"/><rect class="cls-2" x="323.64" y="98.59" width="0.61" height="20.82"/><rect class="cls-2" x="324.41" y="98.59" width="0.61" height="20.82"/><rect class="cls-2" x="325.13" y="98.59" width="0.61" height="20.82"/><rect class="cls-2" x="325.24" y="98.59" width="0.61" height="20.82"/><rect class="cls-2" x="326.48" y="98.59" width="0.61" height="20.82"/><rect class="cls-2" x="326.68" y="98.59" width="0.61" height="20.82"/><rect class="cls-2" x="327.71" y="98.59" width="0.61" height="20.82"/><rect class="cls-2" x="328.34" y="98.59" width="0.61" height="20.82"/><rect class="cls-2" x="329.11" y="98.59" width="0.61" height="20.82"/><rect class="cls-2" x="330.5" y="98.59" width="0.61" height="20.82"/><rect class="cls-2" x="331.84" y="98.59" width="0.61" height="20.82"/><rect class="cls-2" x="342.79" y="98.59" width="0.61" height="20.82"/><rect class="cls-2" x="343.4" y="98.59" width="0.61" height="20.82"/><rect class="cls-2" x="344.34" y="98.59" width="0.61" height="20.82"/><rect class="cls-2" x="346.4" y="98.59" width="0.61" height="20.82"/><rect class="cls-2" x="350.79" y="98.59" width="0.61" height="20.82"/><rect class="cls-2" x="351.92" y="98.59" width="0.61" height="20.82"/><rect class="cls-2" x="356.78" y="98.59" width="0.61" height="20.82"/><rect class="cls-2" x="362.66" y="98.59" width="0.61" height="20.82"/><rect class="cls-2" x="364.67" y="98.59" width="0.61" height="20.82"/><rect class="cls-2" x="373.76" y="98.59" width="0.61" height="20.82"/><rect class="cls-2" x="380" y="98.59" width="0.61" height="20.82"/><rect class="cls-2" x="386.97" y="98.59" width="0.61" height="20.82"/><rect class="cls-2" x="387.65" y="98.59" width="0.61" height="20.82"/><rect class="cls-2" x="389.66" y="98.59" width="0.61" height="20.82"/><rect class="cls-2" x="394.2" y="98.59" width="0.61" height="20.82"/><rect class="cls-2" x="394.3" y="98.59" width="0.61" height="20.82"/><rect class="cls-2" x="396.16" y="98.59" width="0.61" height="20.82"/><rect class="cls-2" x="396.88" y="98.59" width="0.61" height="20.82"/><rect class="cls-2" x="398.59" y="98.59" width="0.61" height="20.82"/><rect class="cls-2" x="400.86" y="98.59" width="0.61" height="20.82"/><rect class="cls-2" x="401.89" y="98.59" width="0.61" height="20.82"/><rect class="cls-2" x="405.14" y="98.59" width="0.61" height="20.82"/><rect class="cls-2" x="409.12" y="98.59" width="0.61" height="20.82"/><rect class="cls-2" x="410.82" y="98.59" width="0.61" height="20.82"/><circle class="cls-3" cx="347.13" cy="105.03" r="4.12"/><rect class="cls-3" x="346.14" y="108.07" width="1.95" height="11.33"/><polygon class="cls-1" points="347.12 112.57 342.79 119.41 351.44 119.41 347.12 112.57"/><polygon class="cls-1" points="140.79 112.57 136.46 119.41 145.12 119.41 140.79 112.57"/><polygon class="cls-1" points="162.84 112.57 158.51 119.41 167.16 119.41 162.84 112.57"/><polygon class="cls-1" points="179.83 112.57 175.5 119.41 184.15 119.41 179.83 112.57"/><polygon class="cls-1" points="199.85 112.57 195.52 119.41 204.18 119.41 199.85 112.57"/><polygon class="cls-1" points="213.57 112.57 209.25 119.41 217.91 119.41 213.57 112.57"/><polygon class="cls-1" points="261.01 112.57 256.69 119.41 265.35 119.41 261.01 112.57"/><polygon class="cls-1" points="264.78 112.57 260.45 119.41 269.11 119.41 264.78 112.57"/><polygon class="cls-1" points="270.88 112.57 266.55 119.41 275.2 119.41 270.88 112.57"/><polygon class="cls-1" points="275.01 112.57 270.68 119.41 279.33 119.41 275.01 112.57"/><polygon class="cls-1" points="291.26 112.57 286.94 119.41 295.59 119.41 291.26 112.57"/><polygon class="cls-1" points="303.08 112.57 298.75 119.41 307.41 119.41 303.08 112.57"/><polygon class="cls-1" points="330.34 112.57 326.01 119.41 334.67 119.41 330.34 112.57"/><polygon class="cls-1" points="299.44 112.57 295.12 119.41 303.77 119.41 299.44 112.57"/><polygon class="cls-1" points="300.91 112.57 296.58 119.41 305.24 119.41 300.91 112.57"/><rect class="cls-2" x="121.86" y="77.77" width="0.61" height="20.82"/><rect class="cls-2" x="122.48" y="77.77" width="0.61" height="20.82"/><rect class="cls-2" x="128.16" y="77.77" width="0.61" height="20.82"/><rect class="cls-2" x="131.67" y="77.77" width="0.61" height="20.82"/><rect class="cls-2" x="132.18" y="77.77" width="0.61" height="20.82"/><rect class="cls-2" x="133.94" y="77.77" width="0.61" height="20.82"/><rect class="cls-2" x="134.61" y="77.77" width="0.61" height="20.82"/><rect class="cls-2" x="138.53" y="77.77" width="0.61" height="20.82"/><rect class="cls-2" x="140.34" y="77.77" width="0.61" height="20.82"/><rect class="cls-2" x="142.25" y="77.77" width="0.61" height="20.82"/><rect class="cls-2" x="143.33" y="77.77" width="0.61" height="20.82"/><rect class="cls-2" x="144.26" y="77.77" width="0.61" height="20.82"/><rect class="cls-2" x="144.68" y="77.77" width="0.61" height="20.82"/><rect class="cls-2" x="144.78" y="77.77" width="0.61" height="20.82"/><rect class="cls-2" x="146.79" y="77.77" width="0.61" height="20.82"/><rect class="cls-2" x="149.63" y="77.77" width="0.61" height="20.82"/><rect class="cls-2" x="154.89" y="77.77" width="0.61" height="20.82"/><rect class="cls-2" x="156.49" y="77.77" width="0.61" height="20.82"/><rect class="cls-2" x="156.91" y="77.77" width="0.61" height="20.82"/><rect class="cls-2" x="163.51" y="77.77" width="0.61" height="20.82"/><rect class="cls-2" x="166.3" y="77.77" width="0.61" height="20.82"/><rect class="cls-2" x="166.51" y="77.77" width="0.61" height="20.82"/><rect class="cls-2" x="169.92" y="77.77" width="0.61" height="20.82"/><rect class="cls-2" x="171.88" y="77.77" width="0.61" height="20.82"/><rect class="cls-2" x="175.08" y="77.77" width="0.61" height="20.82"/><rect class="cls-2" x="177.51" y="77.77" width="0.61" height="20.82"/><rect class="cls-2" x="180.91" y="77.77" width="0.61" height="20.82"/><rect class="cls-2" x="181.53" y="77.77" width="0.61" height="20.82"/><rect class="cls-2" x="183.7" y="77.77" width="0.61" height="20.82"/><rect class="cls-2" x="185.25" y="77.77" width="0.61" height="20.82"/><rect class="cls-2" x="189.27" y="77.77" width="0.61" height="20.82"/><rect class="cls-2" x="189.38" y="77.77" width="0.61" height="20.82"/><rect class="cls-2" x="189.95" y="77.77" width="0.61" height="20.82"/><rect class="cls-2" x="190.67" y="77.77" width="0.61" height="20.82"/><rect class="cls-2" x="191.59" y="77.77" width="0.61" height="20.82"/><rect class="cls-2" x="191.75" y="77.77" width="0.61" height="20.82"/><rect class="cls-2" x="195.78" y="77.77" width="0.61" height="20.82"/><rect class="cls-2" x="198.1" y="77.77" width="0.61" height="20.82"/><rect class="cls-2" x="200.06" y="77.77" width="0.61" height="20.82"/><rect class="cls-2" x="200.68" y="77.77" width="0.61" height="20.82"/><rect class="cls-2" x="201.3" y="77.77" width="0.61" height="20.82"/><rect class="cls-2" x="208.17" y="77.77" width="0.61" height="20.82"/><rect class="cls-2" x="208.78" y="77.77" width="0.61" height="20.82"/><rect class="cls-2" x="209.4" y="77.77" width="0.61" height="20.82"/><rect class="cls-2" x="210.49" y="77.77" width="0.61" height="20.82"/><rect class="cls-2" x="214.87" y="77.77" width="0.61" height="20.82"/><rect class="cls-2" x="216.01" y="77.77" width="0.61" height="20.82"/><rect class="cls-2" x="216.27" y="77.77" width="0.61" height="20.82"/><rect class="cls-2" x="217.87" y="77.77" width="0.61" height="20.82"/><rect class="cls-2" x="222.1" y="77.77" width="0.61" height="20.82"/><rect class="cls-2" x="222.93" y="77.77" width="0.61" height="20.82"/><rect class="cls-2" x="224.37" y="77.77" width="0.61" height="20.82"/><rect class="cls-2" x="225.1" y="77.77" width="0.61" height="20.82"/><rect class="cls-2" x="227.21" y="77.77" width="0.61" height="20.82"/><rect class="cls-2" x="228.45" y="77.77" width="0.61" height="20.82"/><rect class="cls-2" x="228.71" y="77.77" width="0.61" height="20.82"/><rect class="cls-2" x="230.16" y="77.77" width="0.61" height="20.82"/><rect class="cls-2" x="230.67" y="77.77" width="0.61" height="20.82"/><rect class="cls-2" x="231.5" y="77.77" width="0.61" height="20.82"/><rect class="cls-2" x="232.17" y="77.77" width="0.61" height="20.82"/><rect class="cls-2" x="237.48" y="77.77" width="0.61" height="20.82"/><rect class="cls-2" x="238.88" y="77.77" width="0.61" height="20.82"/><rect class="cls-2" x="239.5" y="77.77" width="0.61" height="20.82"/><rect class="cls-2" x="242.65" y="77.77" width="0.61" height="20.82"/><rect class="cls-2" x="243.47" y="77.77" width="0.61" height="20.82"/><rect class="cls-2" x="244.09" y="77.77" width="0.61" height="20.82"/><rect class="cls-2" x="244.76" y="77.77" width="0.61" height="20.82"/><rect class="cls-2" x="256.27" y="77.77" width="0.61" height="20.82"/><rect class="cls-2" x="257.36" y="77.77" width="0.61" height="20.82"/><rect class="cls-2" x="258.13" y="77.77" width="0.61" height="20.82"/><rect class="cls-2" x="261.28" y="77.77" width="0.61" height="20.82"/><rect class="cls-2" x="261.95" y="77.77" width="0.61" height="20.82"/><rect class="cls-2" x="262.62" y="77.77" width="0.61" height="20.82"/><rect class="cls-2" x="264.43" y="77.77" width="0.61" height="20.82"/><rect class="cls-2" x="265.1" y="77.77" width="0.61" height="20.82"/><rect class="cls-2" x="265.57" y="77.77" width="0.61" height="20.82"/><rect class="cls-2" x="266.75" y="77.77" width="0.61" height="20.82"/><rect class="cls-2" x="267.37" y="77.77" width="0.61" height="20.82"/><rect class="cls-2" x="268.14" y="77.77" width="0.61" height="20.82"/><rect class="cls-2" x="268.66" y="77.77" width="0.61" height="20.82"/><rect class="cls-2" x="269.44" y="77.77" width="0.61" height="20.82"/><rect class="cls-2" x="271.6" y="77.77" width="0.61" height="20.82"/><rect class="cls-2" x="272.28" y="77.77" width="0.61" height="20.82"/><rect class="cls-2" x="284.2" y="77.77" width="0.61" height="20.82"/><rect class="cls-2" x="285.85" y="77.77" width="0.61" height="20.82"/><rect class="cls-2" x="286.36" y="77.77" width="0.61" height="20.82"/><rect class="cls-2" x="287.81" y="77.77" width="0.61" height="20.82"/><rect class="cls-2" x="293.85" y="77.77" width="0.61" height="20.82"/><rect class="cls-2" x="295.14" y="77.77" width="0.61" height="20.82"/><rect class="cls-2" x="295.5" y="77.77" width="0.61" height="20.82"/><rect class="cls-2" x="305.31" y="77.77" width="0.61" height="20.82"/><rect class="cls-2" x="306.09" y="77.77" width="0.61" height="20.82"/><rect class="cls-2" x="307.58" y="77.77" width="0.61" height="20.82"/><rect class="cls-2" x="317.19" y="77.77" width="0.61" height="20.82"/><rect class="cls-2" x="322.81" y="77.77" width="0.61" height="20.82"/><rect class="cls-2" x="324.82" y="77.77" width="0.61" height="20.82"/><rect class="cls-2" x="325.5" y="77.77" width="0.61" height="20.82"/><rect class="cls-2" x="325.96" y="77.77" width="0.61" height="20.82"/><rect class="cls-2" x="327.1" y="77.77" width="0.61" height="20.82"/><rect class="cls-2" x="330.14" y="77.77" width="0.61" height="20.82"/><rect class="cls-2" x="332.41" y="77.77" width="0.61" height="20.82"/><rect class="cls-2" x="333.03" y="77.77" width="0.61" height="20.82"/><rect class="cls-2" x="333.75" y="77.77" width="0.61" height="20.82"/><rect class="cls-2" x="334.68" y="77.77" width="0.61" height="20.82"/><rect class="cls-2" x="337.62" y="77.77" width="0.61" height="20.82"/><rect class="cls-2" x="340.67" y="77.77" width="0.61" height="20.82"/><rect class="cls-2" x="341.39" y="77.77" width="0.61" height="20.82"/><rect class="cls-2" x="342.06" y="77.77" width="0.61" height="20.82"/><rect class="cls-2" x="349.96" y="77.77" width="0.61" height="20.82"/><rect class="cls-2" x="351.56" y="77.77" width="0.61" height="20.82"/><rect class="cls-2" x="352.49" y="77.77" width="0.61" height="20.82"/><rect class="cls-2" x="353.58" y="77.77" width="0.61" height="20.82"/><rect class="cls-2" x="353.94" y="77.77" width="0.61" height="20.82"/><rect class="cls-2" x="354.55" y="77.77" width="0.61" height="20.82"/><rect class="cls-2" x="357.5" y="77.77" width="0.61" height="20.82"/><rect class="cls-2" x="358.01" y="77.77" width="0.61" height="20.82"/><rect class="cls-2" x="358.07" y="77.77" width="0.61" height="20.82"/><rect class="cls-2" x="358.84" y="77.77" width="0.61" height="20.82"/><rect class="cls-2" x="360.9" y="77.77" width="0.61" height="20.82"/><rect class="cls-2" x="361.63" y="77.77" width="0.61" height="20.82"/><rect class="cls-2" x="362.3" y="77.77" width="0.61" height="20.82"/><rect class="cls-2" x="363.02" y="77.77" width="0.61" height="20.82"/><rect class="cls-2" x="363.43" y="77.77" width="0.61" height="20.82"/><rect class="cls-2" x="364" y="77.77" width="0.61" height="20.82"/><rect class="cls-2" x="364.52" y="77.77" width="0.61" height="20.82"/><rect class="cls-2" x="365.24" y="77.77" width="0.61" height="20.82"/><rect class="cls-2" x="365.86" y="77.77" width="0.61" height="20.82"/><rect class="cls-2" x="366.63" y="77.77" width="0.61" height="20.82"/><rect class="cls-2" x="367.26" y="77.77" width="0.61" height="20.82"/><rect class="cls-2" x="367.87" y="77.77" width="0.61" height="20.82"/><rect class="cls-2" x="372.88" y="77.77" width="0.61" height="20.82"/><rect class="cls-2" x="374.22" y="77.77" width="0.61" height="20.82"/><rect class="cls-2" x="374.33" y="77.77" width="0.61" height="20.82"/><rect class="cls-2" x="374.94" y="77.77" width="0.61" height="20.82"/><rect class="cls-2" x="375.57" y="77.77" width="0.61" height="20.82"/><rect class="cls-2" x="377.94" y="77.77" width="0.61" height="20.82"/><rect class="cls-2" x="378.56" y="77.77" width="0.61" height="20.82"/><rect class="cls-2" x="379.85" y="77.77" width="0.61" height="20.82"/><rect class="cls-2" x="380.36" y="77.77" width="0.61" height="20.82"/><rect class="cls-2" x="382.74" y="77.77" width="0.61" height="20.82"/><rect class="cls-2" x="385.94" y="77.77" width="0.61" height="20.82"/><rect class="cls-2" x="388.01" y="77.77" width="0.61" height="20.82"/><rect class="cls-2" x="388.47" y="77.77" width="0.61" height="20.82"/><rect class="cls-2" x="389.09" y="77.77" width="0.61" height="20.82"/><rect class="cls-2" x="391.98" y="77.77" width="0.61" height="20.82"/><rect class="cls-2" x="392.29" y="77.77" width="0.61" height="20.82"/><rect class="cls-2" x="392.91" y="77.77" width="0.61" height="20.82"/><rect class="cls-2" x="393.53" y="77.77" width="0.61" height="20.82"/><rect class="cls-2" x="399.1" y="77.77" width="0.61" height="20.82"/><rect class="cls-2" x="401.32" y="77.77" width="0.61" height="20.82"/><rect class="cls-2" x="404.06" y="77.77" width="0.61" height="20.82"/><rect class="cls-2" x="405.55" y="77.77" width="0.61" height="20.82"/><rect class="cls-2" x="406.64" y="77.77" width="0.61" height="20.82"/><rect class="cls-2" x="406.84" y="77.77" width="0.61" height="20.82"/><rect class="cls-2" x="408.81" y="77.77" width="0.61" height="20.82"/><rect class="cls-2" x="409.68" y="77.77" width="0.61" height="20.82"/><rect class="cls-2" x="409.89" y="77.77" width="0.61" height="20.82"/><polygon class="cls-1" points="219.1 91.75 214.77 98.59 223.43 98.59 219.1 91.75"/><polygon class="cls-1" points="266.54 91.75 262.21 98.59 270.87 98.59 266.54 91.75"/><polygon class="cls-1" points="308.61 91.75 304.28 98.59 312.94 98.59 308.61 91.75"/><polygon class="cls-1" points="334.57 91.75 330.24 98.59 338.9 98.59 334.57 91.75"/><polygon class="cls-1" points="383.32 91.75 379 98.59 387.65 98.59 383.32 91.75"/><polygon class="cls-1" points="381.3 91.75 376.97 98.59 385.63 98.59 381.3 91.75"/><path class="cls-1" d="M37.3,48.27v5H36.18v-7.1h.88l4.06,5.12V46.18h1.13v7.09h-.93Z"/><path class="cls-1" d="M48.72,52.28v1H43.85v-7.1h4.78v1H45v2h3.17v.93H45v2.17Z"/><path class="cls-1" d="M55.09,47.16H52.73v6.11H51.6V47.16H49.23v-1h5.86Z"/><path class="cls-1" d="M61.87,46.17v7.1H60.74V50.14H57.16v3.13H56v-7.1h1.12v3h3.58v-3Z"/><path class="cls-1" d="M68.34,52.28v1H63.47v-7.1h4.78v1H64.59v2h3.17v.93H64.59v2.17Z"/><path class="cls-1" d="M69.5,53.27v-7.1h3.09a2,2,0,0,1,.88.2,2.28,2.28,0,0,1,.7.53,2.49,2.49,0,0,1,.45.74,2.26,2.26,0,0,1,.17.84,2.38,2.38,0,0,1-.1.69,2.42,2.42,0,0,1-.28.61,2,2,0,0,1-.44.49,1.81,1.81,0,0,1-.57.3l1.67,2.7H73.8L72.26,50.8H70.62v2.47Zm1.12-3.46h2A.9.9,0,0,0,73,49.7a1,1,0,0,0,.33-.29,1.47,1.47,0,0,0,.22-.42,1.61,1.61,0,0,0,.08-.51,1.37,1.37,0,0,0-.1-.51,1.46,1.46,0,0,0-.25-.42,1.2,1.2,0,0,0-.36-.29.92.92,0,0,0-.43-.11h-1.9Z"/><path class="cls-1" d="M76.11,53.27v-7.1h1.12v6.11H81v1Z"/><path class="cls-1" d="M84,46.17h1l2.8,7.1H86.64l-.75-1.93H83.15l-.74,1.93H81.22Zm1.63,4.34-1.14-3-1.18,3Z"/><path class="cls-1" d="M89.82,48.27v5H88.7v-7.1h.88l4.06,5.12V46.18h1.13v7.09h-.93Z"/><path class="cls-1" d="M96.37,53.27v-7.1h2.52a3.76,3.76,0,0,1,1.51.28,3.11,3.11,0,0,1,1.08.76,3.18,3.18,0,0,1,.66,1.13,4.23,4.23,0,0,1,.22,1.38,4.16,4.16,0,0,1-.24,1.46,3.21,3.21,0,0,1-.7,1.12,3.08,3.08,0,0,1-1.09.72,3.84,3.84,0,0,1-1.43.25Zm4.84-3.56a3.27,3.27,0,0,0-.16-1,2.23,2.23,0,0,0-.46-.8,2.11,2.11,0,0,0-.73-.53,2.4,2.4,0,0,0-1-.19h-1.4v5.12h1.4a2.41,2.41,0,0,0,1-.19,2.06,2.06,0,0,0,.73-.54,2.33,2.33,0,0,0,.45-.82A3.35,3.35,0,0,0,101.21,49.71Z"/><path class="cls-1" d="M107.73,47.84a1.54,1.54,0,0,0-.29-.24,3,3,0,0,0-.44-.24,3.28,3.28,0,0,0-.56-.18,2.77,2.77,0,0,0-.62-.07,1.7,1.7,0,0,0-1,.26.86.86,0,0,0-.33.72.78.78,0,0,0,.1.42.89.89,0,0,0,.32.29,2.47,2.47,0,0,0,.55.22l.77.21a8.91,8.91,0,0,1,1,.29,2.8,2.8,0,0,1,.74.39,1.59,1.59,0,0,1,.46.56,1.83,1.83,0,0,1,.17.82,2,2,0,0,1-.21.93,1.74,1.74,0,0,1-.56.63,2.45,2.45,0,0,1-.82.36,4.27,4.27,0,0,1-1,.12,5,5,0,0,1-1.56-.25,4.48,4.48,0,0,1-1.37-.71l.51-1a2.45,2.45,0,0,0,.38.29,3.56,3.56,0,0,0,.57.29,5,5,0,0,0,.71.23,3.24,3.24,0,0,0,.79.09,1.89,1.89,0,0,0,1-.23.75.75,0,0,0,.36-.68.73.73,0,0,0-.13-.45,1.16,1.16,0,0,0-.39-.32,3.42,3.42,0,0,0-.61-.25l-.82-.23a8.56,8.56,0,0,1-.93-.29,2.32,2.32,0,0,1-.65-.37,1.47,1.47,0,0,1-.4-.52,1.71,1.71,0,0,1-.14-.71,2.06,2.06,0,0,1,.2-.92,2,2,0,0,1,.54-.68,2.37,2.37,0,0,1,.81-.42,3.54,3.54,0,0,1,1-.14,3.74,3.74,0,0,1,1.33.23,4.4,4.4,0,0,1,1.07.57Z"/><path class="cls-1" d="M64.39,31.49a1.8,1.8,0,0,0,.93-.22,1.76,1.76,0,0,0,.6-.58,2.43,2.43,0,0,0,.32-.81,4.54,4.54,0,0,0,.1-.93v-3.6h1.13V29a5.38,5.38,0,0,1-.17,1.38,3.18,3.18,0,0,1-.54,1.13,2.58,2.58,0,0,1-1,.76,3.22,3.22,0,0,1-1.41.28A3.15,3.15,0,0,1,63,32.21a2.58,2.58,0,0,1-.95-.79,3.25,3.25,0,0,1-.52-1.13A5.48,5.48,0,0,1,61.33,29v-3.6h1.12V29a4.6,4.6,0,0,0,.1.95,2.43,2.43,0,0,0,.32.81,1.69,1.69,0,0,0,.6.57A1.83,1.83,0,0,0,64.39,31.49Z"/><path class="cls-1" d="M69,32.45v-7.1H72a2,2,0,0,1,.88.2,2.28,2.28,0,0,1,.7.53,2.49,2.49,0,0,1,.45.74,2.26,2.26,0,0,1,.17.84,2.38,2.38,0,0,1-.1.69,2.42,2.42,0,0,1-.28.61,2,2,0,0,1-.44.49,1.81,1.81,0,0,1-.57.3l1.67,2.7H73.25L71.71,30H70.07v2.47ZM70.07,29h2a.9.9,0,0,0,.44-.11,1,1,0,0,0,.33-.29,1.47,1.47,0,0,0,.22-.42,1.61,1.61,0,0,0,.08-.51,1.37,1.37,0,0,0-.1-.51,1.46,1.46,0,0,0-.25-.42,1.2,1.2,0,0,0-.36-.29.92.92,0,0,0-.43-.11h-1.9Z"/><path class="cls-1" d="M78.52,31.49a1.8,1.8,0,0,0,.93-.22,1.76,1.76,0,0,0,.6-.58,2.43,2.43,0,0,0,.32-.81,4.54,4.54,0,0,0,.1-.93v-3.6h1.13V29a5.38,5.38,0,0,1-.17,1.38,3.18,3.18,0,0,1-.54,1.13,2.58,2.58,0,0,1-1,.76,3.22,3.22,0,0,1-1.41.28,3.15,3.15,0,0,1-1.43-.29,2.58,2.58,0,0,1-.95-.79,3.25,3.25,0,0,1-.52-1.13A5.48,5.48,0,0,1,75.46,29v-3.6h1.12V29a4.6,4.6,0,0,0,.1.95,2.43,2.43,0,0,0,.32.81,1.69,1.69,0,0,0,.6.57A1.83,1.83,0,0,0,78.52,31.49Z"/><path class="cls-1" d="M88.05,31.57A2.8,2.8,0,0,1,86,32.5a3,3,0,0,1-1.32-.29,3.41,3.41,0,0,1-1.06-.79,3.71,3.71,0,0,1-.7-1.16,3.78,3.78,0,0,1-.26-1.38,3.71,3.71,0,0,1,.26-1.37,3.63,3.63,0,0,1,.7-1.14,3.32,3.32,0,0,1,1.07-.78,3.51,3.51,0,0,1,3.06.14,2.75,2.75,0,0,1,1,1.13l-.86.62a2,2,0,0,0-.8-.87A2.23,2.23,0,0,0,86,26.31a1.93,1.93,0,0,0-.91.21,2.24,2.24,0,0,0-.7.57,2.56,2.56,0,0,0-.45.83,3.12,3.12,0,0,0-.15,1,2.87,2.87,0,0,0,.17,1,2.64,2.64,0,0,0,.48.82,2.28,2.28,0,0,0,.73.55,2,2,0,0,0,.91.21,2.26,2.26,0,0,0,1-.25,3,3,0,0,0,.94-.79v-.76H86.56v-.83H89v3.59h-.94Z"/><path class="cls-1" d="M93.23,31.49a1.8,1.8,0,0,0,.93-.22,1.76,1.76,0,0,0,.6-.58,2.43,2.43,0,0,0,.32-.81,4.54,4.54,0,0,0,.1-.93v-3.6H96.3V29a5.38,5.38,0,0,1-.17,1.38,3.18,3.18,0,0,1-.54,1.13,2.58,2.58,0,0,1-1,.76,3.22,3.22,0,0,1-1.41.28,3.15,3.15,0,0,1-1.43-.29,2.58,2.58,0,0,1-.95-.79,3.25,3.25,0,0,1-.52-1.13A5.48,5.48,0,0,1,90.17,29v-3.6h1.12V29a4.6,4.6,0,0,0,.1.95,2.43,2.43,0,0,0,.32.81,1.69,1.69,0,0,0,.6.57A1.83,1.83,0,0,0,93.23,31.49Z"/><path class="cls-1" d="M99.58,25.35h1l2.8,7.1h-1.18l-.75-1.93H98.69L98,32.45H96.76Zm1.63,4.34-1.14-3-1.18,3Z"/><path class="cls-1" d="M103.93,25.35l2,3.56,2-3.56h1.23l-2.65,4.56v2.54h-1.12V29.89l-2.63-4.54Z"/><rect class="cls-2" x="121.81" y="11.64" width="0.61" height="20.82"/><rect class="cls-2" x="122.37" y="11.64" width="0.61" height="20.82"/><rect class="cls-2" x="122.69" y="11.64" width="0.61" height="20.82"/><rect class="cls-2" x="123.41" y="11.64" width="0.61" height="20.82"/><rect class="cls-2" x="124.13" y="11.64" width="0.61" height="20.82"/><rect class="cls-2" x="126.97" y="11.64" width="0.61" height="20.82"/><rect class="cls-2" x="127.64" y="11.64" width="0.61" height="20.82"/><rect class="cls-2" x="132.54" y="11.64" width="0.61" height="20.82"/><rect class="cls-2" x="133.83" y="11.64" width="0.61" height="20.82"/><rect class="cls-2" x="138.02" y="11.64" width="0.61" height="20.82"/><rect class="cls-2" x="139.87" y="11.64" width="0.61" height="20.82"/><rect class="cls-2" x="141.27" y="11.64" width="0.61" height="20.82"/><rect class="cls-2" x="151.49" y="11.64" width="0.61" height="20.82"/><rect class="cls-2" x="154.53" y="11.64" width="0.61" height="20.82"/><rect class="cls-2" x="154.59" y="11.64" width="0.61" height="20.82"/><rect class="cls-2" x="155.93" y="11.64" width="0.61" height="20.82"/><rect class="cls-2" x="160.37" y="11.64" width="0.61" height="20.82"/><rect class="cls-2" x="165.17" y="11.64" width="0.61" height="20.82"/><rect class="cls-2" x="165.99" y="11.64" width="0.61" height="20.82"/><rect class="cls-2" x="166.2" y="11.64" width="0.61" height="20.82"/><rect class="cls-2" x="170.69" y="11.64" width="0.61" height="20.82"/><rect class="cls-2" x="173.38" y="11.64" width="0.61" height="20.82"/><rect class="cls-2" x="174.05" y="11.64" width="0.61" height="20.82"/><rect class="cls-2" x="180.03" y="11.64" width="0.61" height="20.82"/><rect class="cls-2" x="192.27" y="11.64" width="0.61" height="20.82"/><rect class="cls-2" x="193.09" y="11.64" width="0.61" height="20.82"/><rect class="cls-2" x="194.23" y="11.64" width="0.61" height="20.82"/><rect class="cls-2" x="196.34" y="11.64" width="0.61" height="20.82"/><rect class="cls-2" x="197.94" y="11.64" width="0.61" height="20.82"/><rect class="cls-2" x="198.05" y="11.64" width="0.61" height="20.82"/><rect class="cls-2" x="198.98" y="11.64" width="0.61" height="20.82"/><rect class="cls-2" x="201.56" y="11.64" width="0.61" height="20.82"/><rect class="cls-2" x="217.3" y="11.64" width="0.61" height="20.82"/><rect class="cls-2" x="217.97" y="11.64" width="0.61" height="20.82"/><rect class="cls-2" x="219.93" y="11.64" width="0.61" height="20.82"/><rect class="cls-2" x="220.19" y="11.64" width="0.61" height="20.82"/><rect class="cls-2" x="220.55" y="11.64" width="0.61" height="20.82"/><rect class="cls-2" x="225.77" y="11.64" width="0.61" height="20.82"/><rect class="cls-2" x="226.44" y="11.64" width="0.61" height="20.82"/><rect class="cls-2" x="227.26" y="11.64" width="0.61" height="20.82"/><rect class="cls-2" x="227.68" y="11.64" width="0.61" height="20.82"/><rect class="cls-2" x="227.99" y="11.64" width="0.61" height="20.82"/><rect class="cls-2" x="228.66" y="11.64" width="0.61" height="20.82"/><rect class="cls-2" x="229.9" y="11.64" width="0.61" height="20.82"/><rect class="cls-2" x="229.95" y="11.64" width="0.61" height="20.82"/><rect class="cls-2" x="230.57" y="11.64" width="0.61" height="20.82"/><rect class="cls-2" x="232.48" y="11.64" width="0.61" height="20.82"/><rect class="cls-2" x="233.61" y="11.64" width="0.61" height="20.82"/><rect class="cls-2" x="233.77" y="11.64" width="0.61" height="20.82"/><rect class="cls-2" x="235.06" y="11.64" width="0.61" height="20.82"/><rect class="cls-2" x="236.81" y="11.64" width="0.61" height="20.82"/><rect class="cls-2" x="237.48" y="11.64" width="0.61" height="20.82"/><rect class="cls-2" x="238.57" y="11.64" width="0.61" height="20.82"/><rect class="cls-2" x="240.22" y="11.64" width="0.61" height="20.82"/><rect class="cls-2" x="240.48" y="11.64" width="0.61" height="20.82"/><rect class="cls-2" x="241.05" y="11.64" width="0.61" height="20.82"/><rect class="cls-2" x="242.23" y="11.64" width="0.61" height="20.82"/><rect class="cls-2" x="243.78" y="11.64" width="0.61" height="20.82"/><rect class="cls-2" x="245.23" y="11.64" width="0.61" height="20.82"/><rect class="cls-2" x="250.44" y="11.64" width="0.61" height="20.82"/><rect class="cls-2" x="252.56" y="11.64" width="0.61" height="20.82"/><rect class="cls-2" x="256.27" y="11.64" width="0.61" height="20.82"/><rect class="cls-2" x="258.24" y="11.64" width="0.61" height="20.82"/><rect class="cls-2" x="259.01" y="11.64" width="0.61" height="20.82"/><rect class="cls-2" x="261.38" y="11.64" width="0.61" height="20.82"/><rect class="cls-2" x="266.39" y="11.64" width="0.61" height="20.82"/><rect class="cls-2" x="262.67" y="11.64" width="0.61" height="20.82"/><rect class="cls-2" x="265.61" y="11.64" width="0.61" height="20.82"/><rect class="cls-2" x="266.08" y="11.64" width="0.61" height="20.82"/><rect class="cls-2" x="270.78" y="11.64" width="0.61" height="20.82"/><rect class="cls-2" x="270.93" y="11.64" width="0.61" height="20.82"/><rect class="cls-2" x="276.77" y="11.64" width="0.61" height="20.82"/><rect class="cls-2" x="283.83" y="11.64" width="0.61" height="20.82"/><rect class="cls-2" x="284.56" y="11.64" width="0.61" height="20.82"/><rect class="cls-2" x="290.45" y="11.64" width="0.61" height="20.82"/><rect class="cls-2" x="293.44" y="11.64" width="0.61" height="20.82"/><rect class="cls-2" x="296.84" y="11.64" width="0.61" height="20.82"/><rect class="cls-2" x="297.77" y="11.64" width="0.61" height="20.82"/><rect class="cls-2" x="299.73" y="11.64" width="0.61" height="20.82"/><rect class="cls-2" x="304.69" y="11.64" width="0.61" height="20.82"/><rect class="cls-2" x="305.47" y="11.64" width="0.61" height="20.82"/><rect class="cls-2" x="306.24" y="11.64" width="0.61" height="20.82"/><rect class="cls-2" x="307.58" y="11.64" width="0.61" height="20.82"/><rect class="cls-2" x="307.74" y="11.64" width="0.61" height="20.82"/><rect class="cls-2" x="309.08" y="11.64" width="0.61" height="20.82"/><rect class="cls-2" x="311.25" y="11.64" width="0.61" height="20.82"/><rect class="cls-2" x="317.86" y="11.64" width="0.61" height="20.82"/><rect class="cls-2" x="319.25" y="11.64" width="0.61" height="20.82"/><rect class="cls-2" x="319.92" y="11.64" width="0.61" height="20.82"/><rect class="cls-2" x="320.85" y="11.64" width="0.61" height="20.82"/><rect class="cls-2" x="321.88" y="11.64" width="0.61" height="20.82"/><rect class="cls-2" x="322.5" y="11.64" width="0.61" height="20.82"/><rect class="cls-2" x="332.98" y="11.64" width="0.61" height="20.82"/><rect class="cls-2" x="333.6" y="11.64" width="0.61" height="20.82"/><rect class="cls-2" x="334.68" y="11.64" width="0.61" height="20.82"/><rect class="cls-2" x="339.33" y="11.64" width="0.61" height="20.82"/><rect class="cls-2" x="340.26" y="11.64" width="0.61" height="20.82"/><rect class="cls-2" x="343.61" y="11.64" width="0.61" height="20.82"/><rect class="cls-2" x="345.27" y="11.64" width="0.61" height="20.82"/><rect class="cls-2" x="350.79" y="11.64" width="0.61" height="20.82"/><rect class="cls-2" x="353.32" y="11.64" width="0.61" height="20.82"/><rect class="cls-2" x="353.62" y="11.64" width="0.61" height="20.82"/><rect class="cls-2" x="354.04" y="11.64" width="0.61" height="20.82"/><rect class="cls-2" x="354.87" y="11.64" width="0.61" height="20.82"/><rect class="cls-2" x="357.6" y="11.64" width="0.61" height="20.82"/><rect class="cls-2" x="358.01" y="11.64" width="0.61" height="20.82"/><rect class="cls-2" x="358.74" y="11.64" width="0.61" height="20.82"/><rect class="cls-2" x="361.37" y="11.64" width="0.61" height="20.82"/><rect class="cls-2" x="363.33" y="11.64" width="0.61" height="20.82"/><rect class="cls-2" x="365.71" y="11.64" width="0.61" height="20.82"/><rect class="cls-2" x="366.74" y="11.64" width="0.61" height="20.82"/><rect class="cls-2" x="367.67" y="11.64" width="0.61" height="20.82"/><rect class="cls-2" x="368.85" y="11.64" width="0.61" height="20.82"/><rect class="cls-2" x="373.55" y="11.64" width="0.61" height="20.82"/><rect class="cls-2" x="374.84" y="11.64" width="0.61" height="20.82"/><rect class="cls-2" x="374.89" y="11.64" width="0.61" height="20.82"/><rect class="cls-2" x="376.39" y="11.64" width="0.61" height="20.82"/><rect class="cls-2" x="380.99" y="11.64" width="0.61" height="20.82"/><rect class="cls-2" x="382.59" y="11.64" width="0.61" height="20.82"/><rect class="cls-2" x="383.62" y="11.64" width="0.61" height="20.82"/><rect class="cls-2" x="383.93" y="11.64" width="0.61" height="20.82"/><rect class="cls-2" x="385.73" y="11.64" width="0.61" height="20.82"/><rect class="cls-2" x="385.84" y="11.64" width="0.61" height="20.82"/><rect class="cls-2" x="386.4" y="11.64" width="0.61" height="20.82"/><rect class="cls-2" x="387.23" y="11.64" width="0.61" height="20.82"/><rect class="cls-2" x="388.16" y="11.64" width="0.61" height="20.82"/><rect class="cls-2" x="392.96" y="11.64" width="0.61" height="20.82"/><rect class="cls-2" x="395.03" y="11.64" width="0.61" height="20.82"/><rect class="cls-2" x="399.67" y="11.64" width="0.61" height="20.82"/><rect class="cls-2" x="404.21" y="11.64" width="0.61" height="20.82"/><rect class="cls-2" x="406.43" y="11.64" width="0.61" height="20.82"/><rect class="cls-2" x="407.98" y="11.64" width="0.61" height="20.82"/><rect class="cls-2" x="408.55" y="11.64" width="0.61" height="20.82"/><rect class="cls-2" x="410.25" y="11.64" width="0.61" height="20.82"/><rect class="cls-2" x="410.93" y="11.64" width="0.61" height="20.82"/><rect class="cls-2" x="414.74" y="11.64" width="0.61" height="20.82"/><rect class="cls-2" x="415.31" y="11.64" width="0.61" height="20.82"/><circle class="cls-3" cx="404.94" cy="18.09" r="4.13"/><rect class="cls-3" x="403.95" y="21.13" width="1.95" height="11.33"/><polygon class="cls-1" points="404.93 25.62 400.6 32.46 409.26 32.46 404.93 25.62"/><polygon class="cls-1" points="140.59 25.62 136.26 32.46 144.91 32.46 140.59 25.62"/><polygon class="cls-1" points="231.28 25.62 226.95 32.46 235.61 32.46 231.28 25.62"/><polygon class="cls-1" points="239.65 25.62 235.31 32.46 243.97 32.46 239.65 25.62"/><polygon class="cls-1" points="255.95 25.62 251.63 32.46 260.28 32.46 255.95 25.62"/><polygon class="cls-1" points="277.43 25.62 273.1 32.46 281.76 32.46 277.43 25.62"/><polygon class="cls-1" points="297 25.62 292.67 32.46 301.32 32.46 297 25.62"/><polygon class="cls-1" points="327.55 25.62 323.22 32.46 331.88 32.46 327.55 25.62"/><polygon class="cls-1" points="329.77 25.62 325.44 32.46 334.1 32.46 329.77 25.62"/><polygon class="cls-1" points="393.19 25.62 388.87 32.46 397.52 32.46 393.19 25.62"/><polygon class="cls-1" points="410.45 25.62 406.12 32.46 414.78 32.46 410.45 25.62"/><polygon class="cls-1" points="395.53 25.62 391.2 32.46 399.86 32.46 395.53 25.62"/><rect class="cls-2" x="123.97" y="32.46" width="0.61" height="20.82"/><rect class="cls-2" x="125.73" y="32.46" width="0.61" height="20.82"/><rect class="cls-2" x="126.4" y="32.46" width="0.61" height="20.82"/><rect class="cls-2" x="129.08" y="32.46" width="0.61" height="20.82"/><rect class="cls-2" x="129.86" y="32.46" width="0.61" height="20.82"/><rect class="cls-2" x="130.63" y="32.46" width="0.61" height="20.82"/><rect class="cls-2" x="135.02" y="32.46" width="0.61" height="20.82"/><rect class="cls-2" x="135.33" y="32.46" width="0.61" height="20.82"/><rect class="cls-2" x="136.16" y="32.46" width="0.61" height="20.82"/><rect class="cls-2" x="136.83" y="32.46" width="0.61" height="20.82"/><rect class="cls-2" x="138.22" y="32.46" width="0.61" height="20.82"/><rect class="cls-2" x="138.38" y="32.46" width="0.61" height="20.82"/><rect class="cls-2" x="139.15" y="32.46" width="0.61" height="20.82"/><rect class="cls-2" x="140.75" y="32.46" width="0.61" height="20.82"/><rect class="cls-2" x="142.35" y="32.46" width="0.61" height="20.82"/><rect class="cls-2" x="143.95" y="32.46" width="0.61" height="20.82"/><rect class="cls-2" x="144.57" y="32.46" width="0.61" height="20.82"/><rect class="cls-2" x="145.7" y="32.46" width="0.61" height="20.82"/><rect class="cls-2" x="146.33" y="32.46" width="0.61" height="20.82"/><rect class="cls-2" x="148.65" y="32.46" width="0.61" height="20.82"/><rect class="cls-2" x="149.37" y="32.46" width="0.61" height="20.82"/><rect class="cls-2" x="149.42" y="32.46" width="0.61" height="20.82"/><rect class="cls-2" x="150.5" y="32.46" width="0.61" height="20.82"/><rect class="cls-2" x="152.73" y="32.46" width="0.61" height="20.82"/><rect class="cls-2" x="153.45" y="32.46" width="0.61" height="20.82"/><rect class="cls-2" x="154.17" y="32.46" width="0.61" height="20.82"/><rect class="cls-2" x="155.2" y="32.46" width="0.61" height="20.82"/><rect class="cls-2" x="157.32" y="32.46" width="0.61" height="20.82"/><rect class="cls-2" x="158.04" y="32.46" width="0.61" height="20.82"/><rect class="cls-2" x="158.97" y="32.46" width="0.61" height="20.82"/><rect class="cls-2" x="162.22" y="32.46" width="0.61" height="20.82"/><rect class="cls-2" x="162.79" y="32.46" width="0.61" height="20.82"/><rect class="cls-2" x="163.62" y="32.46" width="0.61" height="20.82"/><rect class="cls-2" x="164.34" y="32.46" width="0.61" height="20.82"/><rect class="cls-2" x="166.97" y="32.46" width="0.61" height="20.82"/><rect class="cls-2" x="167.69" y="32.46" width="0.61" height="20.82"/><rect class="cls-2" x="168.32" y="32.46" width="0.61" height="20.82"/><rect class="cls-2" x="169.09" y="32.46" width="0.61" height="20.82"/><rect class="cls-2" x="169.71" y="32.46" width="0.61" height="20.82"/><rect class="cls-2" x="171.15" y="32.46" width="0.61" height="20.82"/><rect class="cls-2" x="171.82" y="32.46" width="0.61" height="20.82"/><rect class="cls-2" x="174.25" y="32.46" width="0.61" height="20.82"/><rect class="cls-2" x="174.35" y="32.46" width="0.61" height="20.82"/><rect class="cls-2" x="175.39" y="32.46" width="0.61" height="20.82"/><rect class="cls-2" x="181.63" y="32.46" width="0.61" height="20.82"/><rect class="cls-2" x="182.3" y="32.46" width="0.61" height="20.82"/><rect class="cls-2" x="185.25" y="32.46" width="0.61" height="20.82"/><rect class="cls-2" x="188.08" y="32.46" width="0.61" height="20.82"/><rect class="cls-2" x="190.46" y="32.46" width="0.61" height="20.82"/><rect class="cls-2" x="190.61" y="32.46" width="0.61" height="20.82"/><rect class="cls-2" x="191.08" y="32.46" width="0.61" height="20.82"/><rect class="cls-2" x="195.21" y="32.46" width="0.61" height="20.82"/><rect class="cls-2" x="196.5" y="32.46" width="0.61" height="20.82"/><rect class="cls-2" x="196.55" y="32.46" width="0.61" height="20.82"/><rect class="cls-2" x="197.12" y="32.46" width="0.61" height="20.82"/><rect class="cls-2" x="199.54" y="32.46" width="0.61" height="20.82"/><rect class="cls-2" x="200.63" y="32.46" width="0.61" height="20.82"/><rect class="cls-2" x="214.41" y="32.46" width="0.61" height="20.82"/><rect class="cls-2" x="214.67" y="32.46" width="0.61" height="20.82"/><rect class="cls-2" x="215.24" y="32.46" width="0.61" height="20.82"/><rect class="cls-2" x="215.44" y="32.46" width="0.61" height="20.82"/><rect class="cls-2" x="221.79" y="32.46" width="0.61" height="20.82"/><rect class="cls-2" x="222.31" y="32.46" width="0.61" height="20.82"/><rect class="cls-2" x="223.6" y="32.46" width="0.61" height="20.82"/><rect class="cls-2" x="224.06" y="32.46" width="0.61" height="20.82"/><rect class="cls-2" x="233.3" y="32.46" width="0.61" height="20.82"/><rect class="cls-2" x="240.01" y="32.46" width="0.61" height="20.82"/><rect class="cls-2" x="241.82" y="32.46" width="0.61" height="20.82"/><rect class="cls-2" x="242.7" y="32.46" width="0.61" height="20.82"/><rect class="cls-2" x="244.14" y="32.46" width="0.61" height="20.82"/><rect class="cls-2" x="244.45" y="32.46" width="0.61" height="20.82"/><rect class="cls-2" x="249.3" y="32.46" width="0.61" height="20.82"/><rect class="cls-2" x="250.03" y="32.46" width="0.61" height="20.82"/><rect class="cls-2" x="250.7" y="32.46" width="0.61" height="20.82"/><rect class="cls-2" x="250.75" y="32.46" width="0.61" height="20.82"/><rect class="cls-2" x="252.3" y="32.46" width="0.61" height="20.82"/><rect class="cls-2" x="257.98" y="32.46" width="0.61" height="20.82"/><rect class="cls-2" x="260.71" y="32.46" width="0.61" height="20.82"/><rect class="cls-2" x="262.05" y="32.46" width="0.61" height="20.82"/><rect class="cls-2" x="262.67" y="32.46" width="0.61" height="20.82"/><rect class="cls-2" x="263.35" y="32.46" width="0.61" height="20.82"/><rect class="cls-2" x="264.12" y="32.46" width="0.61" height="20.82"/><rect class="cls-2" x="266.7" y="32.46" width="0.61" height="20.82"/><rect class="cls-2" x="267.37" y="32.46" width="0.61" height="20.82"/><rect class="cls-2" x="261.18" y="32.46" width="0.61" height="20.82"/><rect class="cls-2" x="261.9" y="32.46" width="0.61" height="20.82"/><rect class="cls-2" x="263.04" y="32.46" width="0.61" height="20.82"/><rect class="cls-2" x="266.29" y="32.46" width="0.61" height="20.82"/><rect class="cls-2" x="267.01" y="32.46" width="0.61" height="20.82"/><rect class="cls-2" x="267.22" y="32.46" width="0.61" height="20.82"/><rect class="cls-2" x="267.94" y="32.46" width="0.61" height="20.82"/><rect class="cls-2" x="268.56" y="32.46" width="0.61" height="20.82"/><rect class="cls-2" x="270.37" y="32.46" width="0.61" height="20.82"/><rect class="cls-2" x="271.35" y="32.46" width="0.61" height="20.82"/><rect class="cls-2" x="272.02" y="32.46" width="0.61" height="20.82"/><rect class="cls-2" x="272.48" y="32.46" width="0.61" height="20.82"/><rect class="cls-2" x="274.8" y="32.46" width="0.61" height="20.82"/><rect class="cls-2" x="275.16" y="32.46" width="0.61" height="20.82"/><rect class="cls-2" x="275.94" y="32.46" width="0.61" height="20.82"/><rect class="cls-2" x="279.86" y="32.46" width="0.61" height="20.82"/><rect class="cls-2" x="280.59" y="32.46" width="0.61" height="20.82"/><rect class="cls-2" x="281.21" y="32.46" width="0.61" height="20.82"/><rect class="cls-2" x="284.2" y="32.46" width="0.61" height="20.82"/><rect class="cls-2" x="284.36" y="32.46" width="0.61" height="20.82"/><rect class="cls-2" x="286.36" y="32.46" width="0.61" height="20.82"/><rect class="cls-2" x="286.99" y="32.46" width="0.61" height="20.82"/><rect class="cls-2" x="289" y="32.46" width="0.61" height="20.82"/><rect class="cls-2" x="290.76" y="32.46" width="0.61" height="20.82"/><rect class="cls-2" x="291.06" y="32.46" width="0.61" height="20.82"/><rect class="cls-2" x="293.8" y="32.46" width="0.61" height="20.82"/><rect class="cls-2" x="296.59" y="32.46" width="0.61" height="20.82"/><rect class="cls-2" x="297.16" y="32.46" width="0.61" height="20.82"/><rect class="cls-2" x="300.1" y="32.46" width="0.61" height="20.82"/><rect class="cls-2" x="300.2" y="32.46" width="0.61" height="20.82"/><rect class="cls-2" x="303.86" y="32.46" width="0.61" height="20.82"/><rect class="cls-2" x="303.97" y="32.46" width="0.61" height="20.82"/><rect class="cls-2" x="305.05" y="32.46" width="0.61" height="20.82"/><rect class="cls-2" x="307.02" y="32.46" width="0.61" height="20.82"/><rect class="cls-2" x="308.41" y="32.46" width="0.61" height="20.82"/><rect class="cls-2" x="308.46" y="32.46" width="0.61" height="20.82"/><rect class="cls-2" x="309.34" y="32.46" width="0.61" height="20.82"/><rect class="cls-2" x="310.84" y="32.46" width="0.61" height="20.82"/><rect class="cls-2" x="311.45" y="32.46" width="0.61" height="20.82"/><rect class="cls-2" x="311.61" y="32.46" width="0.61" height="20.82"/><rect class="cls-2" x="312.64" y="32.46" width="0.61" height="20.82"/><rect class="cls-2" x="313.31" y="32.46" width="0.61" height="20.82"/><rect class="cls-2" x="313.93" y="32.46" width="0.61" height="20.82"/><rect class="cls-2" x="314.5" y="32.46" width="0.61" height="20.82"/><rect class="cls-2" x="314.97" y="32.46" width="0.61" height="20.82"/><rect class="cls-2" x="315.22" y="32.46" width="0.61" height="20.82"/><rect class="cls-2" x="317.29" y="32.46" width="0.61" height="20.82"/><rect class="cls-2" x="317.75" y="32.46" width="0.61" height="20.82"/><rect class="cls-2" x="318.32" y="32.46" width="0.61" height="20.82"/><rect class="cls-2" x="319.04" y="32.46" width="0.61" height="20.82"/><rect class="cls-2" x="330.81" y="32.46" width="0.61" height="20.82"/><rect class="cls-2" x="333.34" y="32.46" width="0.61" height="20.82"/><rect class="cls-2" x="333.8" y="32.46" width="0.61" height="20.82"/><rect class="cls-2" x="334.22" y="32.46" width="0.61" height="20.82"/><rect class="cls-2" x="335.3" y="32.46" width="0.61" height="20.82"/><rect class="cls-2" x="335.46" y="32.46" width="0.61" height="20.82"/><rect class="cls-2" x="336.13" y="32.46" width="0.61" height="20.82"/><rect class="cls-2" x="346.04" y="32.46" width="0.61" height="20.82"/><rect class="cls-2" x="346.81" y="32.46" width="0.61" height="20.82"/><rect class="cls-2" x="351.2" y="32.46" width="0.61" height="20.82"/><rect class="cls-2" x="351.87" y="32.46" width="0.61" height="20.82"/><rect class="cls-2" x="352.49" y="32.46" width="0.61" height="20.82"/><rect class="cls-2" x="357.19" y="32.46" width="0.61" height="20.82"/><rect class="cls-2" x="359.41" y="32.46" width="0.61" height="20.82"/><rect class="cls-2" x="364.16" y="32.46" width="0.61" height="20.82"/><rect class="cls-2" x="364.67" y="32.46" width="0.61" height="20.82"/><rect class="cls-2" x="365.19" y="32.46" width="0.61" height="20.82"/><rect class="cls-2" x="366.17" y="32.46" width="0.61" height="20.82"/><rect class="cls-2" x="368.59" y="32.46" width="0.61" height="20.82"/><rect class="cls-2" x="372.52" y="32.46" width="0.61" height="20.82"/><rect class="cls-2" x="373.91" y="32.46" width="0.61" height="20.82"/><rect class="cls-2" x="374.43" y="32.46" width="0.61" height="20.82"/><rect class="cls-2" x="376.8" y="32.46" width="0.61" height="20.82"/><rect class="cls-2" x="377.47" y="32.46" width="0.61" height="20.82"/><rect class="cls-2" x="378.1" y="32.46" width="0.61" height="20.82"/><rect class="cls-2" x="378.71" y="32.46" width="0.61" height="20.82"/><rect class="cls-2" x="381.14" y="32.46" width="0.61" height="20.82"/><rect class="cls-2" x="381.5" y="32.46" width="0.61" height="20.82"/><rect class="cls-2" x="381.96" y="32.46" width="0.61" height="20.82"/><rect class="cls-2" x="384.8" y="32.46" width="0.61" height="20.82"/><rect class="cls-2" x="387.49" y="32.46" width="0.61" height="20.82"/><rect class="cls-2" x="391.31" y="32.46" width="0.61" height="20.82"/><rect class="cls-2" x="391.57" y="32.46" width="0.61" height="20.82"/><rect class="cls-2" x="392.7" y="32.46" width="0.61" height="20.82"/><rect class="cls-2" x="398.9" y="32.46" width="0.61" height="20.82"/><rect class="cls-2" x="406.02" y="32.46" width="0.61" height="20.82"/><circle class="cls-3" cx="176.58" cy="38.9" r="4.13"/><rect class="cls-3" x="175.59" y="41.94" width="1.95" height="11.33"/><polygon class="cls-1" points="176.57 46.44 172.24 53.28 180.9 53.28 176.57 46.44"/><circle class="cls-3" cx="337.06" cy="38.9" r="4.13"/><rect class="cls-3" x="336.07" y="41.94" width="1.95" height="11.33"/><polygon class="cls-1" points="337.05 46.44 332.72 53.28 341.38 53.28 337.05 46.44"/><circle class="cls-3" cx="347.54" cy="38.9" r="4.13"/><rect class="cls-3" x="346.55" y="41.94" width="1.95" height="11.33"/><polygon class="cls-1" points="347.53 46.44 343.2 53.28 351.86 53.28 347.53 46.44"/><polygon class="cls-1" points="131.86 46.44 127.54 53.28 136.19 53.28 131.86 46.44"/><polygon class="cls-1" points="151.27 46.44 146.94 53.28 155.6 53.28 151.27 46.44"/><polygon class="cls-1" points="159.95 46.44 155.62 53.28 164.27 53.28 159.95 46.44"/><polygon class="cls-1" points="245.32 46.44 241 53.28 249.65 53.28 245.32 46.44"/><polygon class="cls-1" points="314.7 46.44 310.37 53.28 319.02 53.28 314.7 46.44"/><polygon class="cls-1" points="332.33 46.44 328 53.28 336.65 53.28 332.33 46.44"/><polygon class="cls-1" points="330.2 46.44 325.87 53.28 334.52 53.28 330.2 46.44"/><polygon class="cls-1" points="388.51 46.44 384.19 53.28 392.84 53.28 388.51 46.44"/><polygon class="cls-1" points="392.9 46.44 388.57 53.28 397.23 53.28 392.9 46.44"/><polygon class="cls-3" points="428.74 42.05 424.62 44.66 424.62 47 432.44 42.05 424.62 37.11 424.62 39.44 428.74 42.05"/><polygon class="cls-3" points="428.74 89.2 424.62 91.81 424.62 94.15 432.44 89.2 424.62 84.25 424.62 86.59 428.74 89.2"/></svg>