<svg id="Layer_1" data-name="Layer 1" xmlns="http://www.w3.org/2000/svg" viewBox="0 0 1280 233.89"><defs><style>.cls-1{fill:#333132;}.cls-2{fill:#fdc659;}.cls-3{fill:#ee3e23;}.cls-4{fill:#fff5e3;}</style></defs><title>yg-umbro-wireframes-170817-2130--slicing</title><path class="cls-1" d="M228.48,165.8h-3.78v9.78H222.9V165.8h-3.79v-1.58h9.38Z"/><path class="cls-1" d="M237.79,174v1.58H230V164.21h7.65v1.58h-5.86V169h5.07v1.49h-5.07V174Z"/><path class="cls-1" d="M243,164.21h1.57L249,175.58h-1.89l-1.2-3.09h-4.38l-1.18,3.09h-1.9Zm2.61,6.94-1.82-4.88-1.89,4.88Z"/><path class="cls-1" d="M260,175.58V167.4l-3.38,6.19h-1l-3.39-6.19v8.18h-1.79V164.21h1.92l3.76,6.94,3.76-6.94h1.92v11.36Z"/><path class="cls-1" d="M274.19,174v1.58h-6.11V174h2.27v-5.58a1.89,1.89,0,0,1-.45.4,5,5,0,0,1-.67.38,5.28,5.28,0,0,1-.77.3,2.51,2.51,0,0,1-.7.12V168a1.85,1.85,0,0,0,.74-.19,6.06,6.06,0,0,0,.82-.45,6.35,6.35,0,0,0,.69-.51,1.42,1.42,0,0,0,.34-.37h1.81V174Z"/><path class="cls-1" d="M227.23,218.41h-3.78v9.78h-1.81v-9.78h-3.79v-1.58h9.38Z"/><path class="cls-1" d="M236.55,226.6v1.58h-7.79V216.83h7.65v1.58h-5.86v3.23h5.07v1.49h-5.07v3.47Z"/><path class="cls-1" d="M241.75,216.83h1.57l4.48,11.36h-1.89l-1.2-3.09h-4.38l-1.18,3.09h-1.9Zm2.61,6.94-1.82-4.88-1.89,4.88Z"/><path class="cls-1" d="M258.75,228.19V220l-3.38,6.19h-1L251,220v8.18H249.2V216.83h1.92l3.76,6.94,3.76-6.94h1.92v11.36Z"/><path class="cls-1" d="M266.43,228.19a6.5,6.5,0,0,1,.11-1.25,3.5,3.5,0,0,1,.4-1.08,4,4,0,0,1,.78-1A6.6,6.6,0,0,1,269,224l1.06-.56a9.35,9.35,0,0,0,.87-.5,2.57,2.57,0,0,0,.6-.53,1,1,0,0,0,.22-.65,1.23,1.23,0,0,0-.44-.92,1.81,1.81,0,0,0-1.27-.41,2.49,2.49,0,0,0-.79.12,3.11,3.11,0,0,0-.66.3,2.88,2.88,0,0,0-.52.41q-.22.22-.4.43l-1.12-1.3a4,4,0,0,1,.5-.44,5,5,0,0,1,.83-.5,6.14,6.14,0,0,1,1.11-.41,5.21,5.21,0,0,1,1.36-.17,4.47,4.47,0,0,1,1.38.2,3.13,3.13,0,0,1,1,.55,2.36,2.36,0,0,1,.65.84,2.48,2.48,0,0,1,.22,1,2.26,2.26,0,0,1-.24,1.06,3.27,3.27,0,0,1-.59.82,4,4,0,0,1-.77.6q-.42.25-.77.42l-.76.38a6.9,6.9,0,0,0-.82.5,5.4,5.4,0,0,0-.72.6,1.79,1.79,0,0,0-.45.7h5.3v1.58Z"/><rect class="cls-2" x="303.32" y="122.95" width="1.54" height="52.62"/><rect class="cls-2" x="305.28" y="122.95" width="1.54" height="52.62"/><rect class="cls-2" x="306.85" y="122.95" width="1.55" height="52.62"/><rect class="cls-2" x="308.16" y="122.95" width="1.54" height="52.62"/><rect class="cls-2" x="310.76" y="122.95" width="1.55" height="52.62"/><rect class="cls-2" x="316.24" y="122.95" width="1.54" height="52.62"/><rect class="cls-2" x="316.5" y="122.95" width="1.54" height="52.62"/><rect class="cls-2" x="358.64" y="122.95" width="1.54" height="52.62"/><rect class="cls-2" x="365.03" y="122.95" width="1.54" height="52.62"/><rect class="cls-2" x="384.48" y="122.95" width="1.54" height="52.62"/><rect class="cls-2" x="386.95" y="122.95" width="1.55" height="52.62"/><rect class="cls-2" x="392.17" y="122.95" width="1.54" height="52.62"/><rect class="cls-2" x="394.25" y="122.95" width="1.55" height="52.62"/><rect class="cls-2" x="398.04" y="122.95" width="1.55" height="52.62"/><rect class="cls-2" x="404.69" y="122.95" width="1.55" height="52.62"/><rect class="cls-2" x="409" y="122.95" width="1.54" height="52.62"/><rect class="cls-2" x="410.3" y="122.95" width="1.54" height="52.62"/><rect class="cls-2" x="412" y="122.95" width="1.55" height="52.62"/><rect class="cls-2" x="413.96" y="122.95" width="1.54" height="52.62"/><rect class="cls-2" x="416.83" y="122.95" width="1.54" height="52.62"/><rect class="cls-2" x="417.22" y="122.95" width="1.55" height="52.62"/><rect class="cls-2" x="424.4" y="122.95" width="1.54" height="52.62"/><rect class="cls-2" x="425.96" y="122.95" width="1.55" height="52.62"/><rect class="cls-2" x="427.53" y="122.95" width="1.54" height="52.62"/><rect class="cls-2" x="463.4" y="122.95" width="1.55" height="52.62"/><rect class="cls-2" x="466.01" y="122.95" width="1.54" height="52.62"/><rect class="cls-2" x="468.62" y="122.95" width="1.54" height="52.62"/><rect class="cls-2" x="479.84" y="122.95" width="1.54" height="52.62"/><rect class="cls-2" x="481.41" y="122.95" width="1.54" height="52.62"/><rect class="cls-2" x="482.97" y="122.95" width="1.55" height="52.62"/><rect class="cls-2" x="488.19" y="122.95" width="1.55" height="52.62"/><rect class="cls-2" x="488.32" y="122.95" width="1.55" height="52.62"/><rect class="cls-2" x="489.24" y="122.95" width="1.54" height="52.62"/><rect class="cls-2" x="491.06" y="122.95" width="1.55" height="52.62"/><rect class="cls-2" x="495.5" y="122.95" width="1.54" height="52.62"/><rect class="cls-2" x="500.85" y="122.95" width="1.54" height="52.62"/><rect class="cls-2" x="509.19" y="122.95" width="1.55" height="52.62"/><rect class="cls-2" x="510.5" y="122.95" width="1.54" height="52.62"/><rect class="cls-2" x="510.76" y="122.95" width="1.54" height="52.62"/><rect class="cls-2" x="512.32" y="122.95" width="1.55" height="52.62"/><rect class="cls-2" x="515.59" y="122.95" width="1.55" height="52.62"/><rect class="cls-2" x="517.29" y="122.95" width="1.54" height="52.62"/><rect class="cls-2" x="534.5" y="122.95" width="1.55" height="52.62"/><rect class="cls-2" x="536.85" y="122.95" width="1.55" height="52.62"/><rect class="cls-2" x="536.99" y="122.95" width="1.54" height="52.62"/><rect class="cls-2" x="538.68" y="122.95" width="1.54" height="52.62"/><rect class="cls-2" x="540.24" y="122.95" width="1.55" height="52.62"/><rect class="cls-2" x="541.55" y="122.95" width="1.54" height="52.62"/><rect class="cls-2" x="546.9" y="122.95" width="1.54" height="52.62"/><rect class="cls-2" x="556.68" y="122.95" width="1.55" height="52.62"/><rect class="cls-2" x="559.43" y="122.95" width="1.54" height="52.62"/><rect class="cls-2" x="561.9" y="122.95" width="1.55" height="52.62"/><rect class="cls-2" x="567.12" y="122.95" width="1.54" height="52.62"/><rect class="cls-2" x="579.78" y="122.95" width="1.54" height="52.62"/><rect class="cls-2" x="586.69" y="122.95" width="1.54" height="52.62"/><rect class="cls-2" x="593.87" y="122.95" width="1.54" height="52.62"/><rect class="cls-2" x="599.21" y="122.95" width="1.55" height="52.62"/><rect class="cls-2" x="604.18" y="122.95" width="1.54" height="52.62"/><rect class="cls-2" x="613.04" y="122.95" width="1.55" height="52.62"/><rect class="cls-2" x="616.43" y="122.95" width="1.55" height="52.62"/><rect class="cls-2" x="617.09" y="122.95" width="1.54" height="52.62"/><rect class="cls-2" x="618.14" y="122.95" width="1.54" height="52.62"/><rect class="cls-2" x="620.75" y="122.95" width="1.54" height="52.62"/><rect class="cls-2" x="622.44" y="122.95" width="1.55" height="52.62"/><rect class="cls-2" x="626.09" y="122.95" width="1.55" height="52.62"/><rect class="cls-2" x="633.4" y="122.95" width="1.55" height="52.62"/><rect class="cls-2" x="633.92" y="122.95" width="1.54" height="52.62"/><rect class="cls-2" x="634.45" y="122.95" width="1.54" height="52.62"/><rect class="cls-2" x="649.58" y="122.95" width="1.55" height="52.62"/><rect class="cls-2" x="661.45" y="122.95" width="1.55" height="52.62"/><rect class="cls-2" x="662.5" y="122.95" width="1.54" height="52.62"/><rect class="cls-2" x="673.71" y="122.95" width="1.54" height="52.62"/><rect class="cls-2" x="674.1" y="122.95" width="1.54" height="52.62"/><rect class="cls-2" x="675.66" y="122.95" width="1.55" height="52.62"/><rect class="cls-2" x="676.46" y="122.95" width="1.54" height="52.62"/><rect class="cls-2" x="683.5" y="122.95" width="1.54" height="52.62"/><rect class="cls-2" x="693.02" y="122.95" width="1.55" height="52.62"/><rect class="cls-2" x="695.11" y="122.95" width="1.55" height="52.62"/><rect class="cls-2" x="696.67" y="122.95" width="1.55" height="52.62"/><rect class="cls-2" x="698.37" y="122.95" width="1.55" height="52.62"/><rect class="cls-2" x="700.32" y="122.95" width="1.55" height="52.62"/><rect class="cls-2" x="709.59" y="122.95" width="1.54" height="52.62"/><rect class="cls-2" x="710.12" y="122.95" width="1.54" height="52.62"/><rect class="cls-2" x="711.94" y="122.95" width="1.54" height="52.62"/><rect class="cls-2" x="719.89" y="122.95" width="1.55" height="52.62"/><rect class="cls-2" x="721.72" y="122.95" width="1.54" height="52.62"/><rect class="cls-2" x="726.68" y="122.95" width="1.55" height="52.62"/><rect class="cls-2" x="728.9" y="122.95" width="1.54" height="52.62"/><rect class="cls-2" x="730.59" y="122.95" width="1.55" height="52.62"/><rect class="cls-2" x="736.72" y="122.95" width="1.55" height="52.62"/><rect class="cls-2" x="747.03" y="122.95" width="1.54" height="52.62"/><rect class="cls-2" x="749.64" y="122.95" width="1.54" height="52.62"/><rect class="cls-2" x="752.24" y="122.95" width="1.55" height="52.62"/><rect class="cls-2" x="753.95" y="122.95" width="1.55" height="52.62"/><rect class="cls-2" x="756.43" y="122.95" width="1.54" height="52.62"/><rect class="cls-2" x="760.47" y="122.95" width="1.54" height="52.62"/><rect class="cls-2" x="764.51" y="122.95" width="1.54" height="52.62"/><rect class="cls-2" x="765.04" y="122.95" width="1.55" height="52.62"/><rect class="cls-2" x="772.08" y="122.95" width="1.55" height="52.62"/><rect class="cls-2" x="774.17" y="122.95" width="1.54" height="52.62"/><rect class="cls-2" x="775.73" y="122.95" width="1.55" height="52.62"/><rect class="cls-2" x="787.08" y="122.95" width="1.55" height="52.62"/><rect class="cls-2" x="787.48" y="122.95" width="1.54" height="52.62"/><rect class="cls-2" x="795.3" y="122.95" width="1.54" height="52.62"/><rect class="cls-2" x="797.26" y="122.95" width="1.55" height="52.62"/><rect class="cls-2" x="798.96" y="122.95" width="1.54" height="52.62"/><rect class="cls-2" x="804.04" y="122.95" width="1.55" height="52.62"/><rect class="cls-2" x="806.52" y="122.95" width="1.54" height="52.62"/><rect class="cls-2" x="808.48" y="122.95" width="1.54" height="52.62"/><rect class="cls-2" x="823.61" y="122.95" width="1.55" height="52.62"/><rect class="cls-2" x="825.57" y="122.95" width="1.55" height="52.62"/><rect class="cls-2" x="834.7" y="122.95" width="1.55" height="52.62"/><rect class="cls-2" x="837.05" y="122.95" width="1.54" height="52.62"/><rect class="cls-2" x="839.26" y="122.95" width="1.55" height="52.62"/><rect class="cls-2" x="849.18" y="122.95" width="1.55" height="52.62"/><rect class="cls-2" x="881.93" y="122.95" width="1.54" height="52.62"/><rect class="cls-2" x="884.93" y="122.95" width="1.55" height="52.62"/><rect class="cls-2" x="887.02" y="122.95" width="1.55" height="52.62"/><rect class="cls-2" x="903.72" y="122.95" width="1.54" height="52.62"/><rect class="cls-2" x="913.5" y="122.95" width="1.54" height="52.62"/><rect class="cls-2" x="915.6" y="122.95" width="1.54" height="52.62"/><rect class="cls-2" x="936.33" y="122.95" width="1.55" height="52.62"/><rect class="cls-2" x="953.29" y="122.95" width="1.55" height="52.62"/><rect class="cls-2" x="954.6" y="122.95" width="1.54" height="52.62"/><rect class="cls-2" x="957.2" y="122.95" width="1.55" height="52.62"/><rect class="cls-2" x="959.56" y="122.95" width="1.54" height="52.62"/><rect class="cls-2" x="963.21" y="122.95" width="1.55" height="52.62"/><rect class="cls-2" x="967.65" y="122.95" width="1.54" height="52.62"/><rect class="cls-2" x="968.69" y="122.95" width="1.54" height="52.62"/><rect class="cls-2" x="971.3" y="122.95" width="1.54" height="52.62"/><rect class="cls-2" x="978.08" y="122.95" width="1.55" height="52.62"/><rect class="cls-2" x="983.04" y="122.95" width="1.54" height="52.62"/><rect class="cls-2" x="986.17" y="122.95" width="1.54" height="52.62"/><rect class="cls-2" x="987.86" y="122.95" width="1.55" height="52.62"/><rect class="cls-2" x="994.39" y="122.95" width="1.55" height="52.62"/><rect class="cls-2" x="997.78" y="122.95" width="1.55" height="52.62"/><rect class="cls-2" x="1001.82" y="122.95" width="1.55" height="52.62"/><rect class="cls-2" x="1009.4" y="122.95" width="1.54" height="52.62"/><rect class="cls-2" x="1011.35" y="122.95" width="1.55" height="52.62"/><rect class="cls-2" x="1021.79" y="122.95" width="1.55" height="52.62"/><polygon class="cls-1" points="380.96 158.3 370.03 175.57 391.91 175.57 380.96 158.3"/><polygon class="cls-1" points="498.09 158.3 487.15 175.57 509.02 175.57 498.09 158.3"/><polygon class="cls-1" points="628.42 158.3 617.48 175.57 639.36 175.57 628.42 158.3"/><polygon class="cls-1" points="714.4 158.3 703.45 175.57 725.33 175.57 714.4 158.3"/><polygon class="cls-1" points="767.63 158.3 756.69 175.57 778.57 175.57 767.63 158.3"/><polygon class="cls-1" points="789.93 158.3 779 175.57 800.87 175.57 789.93 158.3"/><polygon class="cls-1" points="810.68 158.3 799.74 175.57 821.62 175.57 810.68 158.3"/><polygon class="cls-1" points="832.6 158.3 821.65 175.57 843.54 175.57 832.6 158.3"/><polygon class="cls-1" points="911 158.3 900.07 175.57 921.94 175.57 911 158.3"/><polygon class="cls-1" points="678.26 158.3 667.32 175.57 689.2 175.57 678.26 158.3"/><polygon class="cls-1" points="674.17 158.3 663.23 175.57 685.11 175.57 674.17 158.3"/><circle class="cls-3" cx="519.65" cy="139.25" r="10.43"/><polygon class="cls-3" points="521.08 175.57 518.14 175.57 518.14 146.94 521.08 146.94 521.08 175.57 521.08 175.57"/><polygon class="cls-1" points="519.61 158.3 508.67 175.57 530.55 175.57 519.61 158.3"/><path class="cls-3" d="M692,139.25a10.42,10.42,0,1,0,10.42-10.43A10.42,10.42,0,0,0,692,139.25Z"/><polygon class="cls-3" points="703.86 175.57 700.92 175.57 700.92 146.94 703.86 146.94 703.86 175.57 703.86 175.57"/><polygon class="cls-1" points="702.39 158.3 691.46 175.57 713.33 175.57 702.39 158.3"/><rect class="cls-2" x="311.15" y="175.58" width="1.55" height="52.61"/><rect class="cls-2" x="311.81" y="175.58" width="1.54" height="52.61"/><rect class="cls-2" x="313.89" y="175.58" width="1.55" height="52.61"/><rect class="cls-2" x="315.98" y="175.58" width="1.54" height="52.61"/><rect class="cls-2" x="317.54" y="175.58" width="1.54" height="52.61"/><rect class="cls-2" x="317.81" y="175.58" width="1.54" height="52.61"/><rect class="cls-2" x="319.37" y="175.58" width="1.54" height="52.61"/><rect class="cls-2" x="326.42" y="175.58" width="1.54" height="52.61"/><rect class="cls-2" x="330.33" y="175.58" width="1.54" height="52.61"/><rect class="cls-2" x="332.81" y="175.58" width="1.54" height="52.61"/><rect class="cls-2" x="357.21" y="175.58" width="1.54" height="52.61"/><rect class="cls-2" x="359.29" y="175.58" width="1.55" height="52.61"/><rect class="cls-2" x="367.39" y="175.58" width="1.54" height="52.61"/><rect class="cls-2" x="368.82" y="175.58" width="1.54" height="52.61"/><rect class="cls-2" x="369.6" y="175.58" width="1.55" height="52.61"/><rect class="cls-2" x="374.95" y="175.58" width="1.54" height="52.61"/><rect class="cls-2" x="377.94" y="175.58" width="1.55" height="52.61"/><rect class="cls-2" x="379.51" y="175.58" width="1.54" height="52.61"/><rect class="cls-2" x="380.16" y="175.58" width="1.55" height="52.61"/><rect class="cls-2" x="385.65" y="175.58" width="1.54" height="52.61"/><rect class="cls-2" x="402.61" y="175.58" width="1.54" height="52.61"/><rect class="cls-2" x="404.17" y="175.58" width="1.54" height="52.61"/><rect class="cls-2" x="406.26" y="175.58" width="1.54" height="52.61"/><rect class="cls-2" x="418.65" y="175.58" width="1.55" height="52.61"/><rect class="cls-2" x="421.52" y="175.58" width="1.55" height="52.61"/><rect class="cls-2" x="431.05" y="175.58" width="1.54" height="52.61"/><rect class="cls-2" x="434.57" y="175.58" width="1.54" height="52.61"/><rect class="cls-2" x="436.13" y="175.58" width="1.55" height="52.61"/><rect class="cls-2" x="439.79" y="175.58" width="1.54" height="52.61"/><rect class="cls-2" x="440.44" y="175.58" width="1.55" height="52.61"/><rect class="cls-2" x="441.88" y="175.58" width="1.54" height="52.61"/><rect class="cls-2" x="451.14" y="175.58" width="1.54" height="52.61"/><rect class="cls-2" x="453.35" y="175.58" width="1.55" height="52.61"/><rect class="cls-2" x="461.32" y="175.58" width="1.54" height="52.61"/><rect class="cls-2" x="462.36" y="175.58" width="1.54" height="52.61"/><rect class="cls-2" x="464.58" y="175.58" width="1.54" height="52.61"/><rect class="cls-2" x="464.84" y="175.58" width="1.54" height="52.61"/><rect class="cls-2" x="466.14" y="175.58" width="1.54" height="52.61"/><rect class="cls-2" x="466.4" y="175.58" width="1.54" height="52.61"/><rect class="cls-2" x="467.44" y="175.58" width="1.55" height="52.61"/><rect class="cls-2" x="469.53" y="175.58" width="1.54" height="52.61"/><rect class="cls-2" x="471.24" y="175.58" width="1.54" height="52.61"/><rect class="cls-2" x="477.36" y="175.58" width="1.54" height="52.61"/><rect class="cls-2" x="484.15" y="175.58" width="1.55" height="52.61"/><rect class="cls-2" x="485.85" y="175.58" width="1.54" height="52.61"/><rect class="cls-2" x="487.8" y="175.58" width="1.55" height="52.61"/><rect class="cls-2" x="503.59" y="175.58" width="1.54" height="52.61"/><rect class="cls-2" x="509.72" y="175.58" width="1.54" height="52.61"/><rect class="cls-2" x="511.67" y="175.58" width="1.54" height="52.61"/><rect class="cls-2" x="514.41" y="175.58" width="1.55" height="52.61"/><rect class="cls-2" x="516.64" y="175.58" width="1.54" height="52.61"/><rect class="cls-2" x="525.5" y="175.58" width="1.55" height="52.61"/><rect class="cls-2" x="527.07" y="175.58" width="1.54" height="52.61"/><rect class="cls-2" x="536.46" y="175.58" width="1.55" height="52.61"/><rect class="cls-2" x="539.46" y="175.58" width="1.55" height="52.61"/><rect class="cls-2" x="543.38" y="175.58" width="1.55" height="52.61"/><rect class="cls-2" x="547.29" y="175.58" width="1.55" height="52.61"/><rect class="cls-2" x="551.21" y="175.58" width="1.54" height="52.61"/><rect class="cls-2" x="552.9" y="175.58" width="1.54" height="52.61"/><rect class="cls-2" x="555.12" y="175.58" width="1.54" height="52.61"/><rect class="cls-2" x="558.11" y="175.58" width="1.55" height="52.61"/><rect class="cls-2" x="571.56" y="175.58" width="1.54" height="52.61"/><rect class="cls-2" x="573.39" y="175.58" width="1.54" height="52.61"/><rect class="cls-2" x="575.35" y="175.58" width="1.54" height="52.61"/><rect class="cls-2" x="587.6" y="175.58" width="1.54" height="52.61"/><rect class="cls-2" x="588.39" y="175.58" width="1.54" height="52.61"/><rect class="cls-2" x="589.7" y="175.58" width="1.54" height="52.61"/><rect class="cls-2" x="592.17" y="175.58" width="1.55" height="52.61"/><rect class="cls-2" x="592.57" y="175.58" width="1.54" height="52.61"/><rect class="cls-2" x="594" y="175.58" width="1.55" height="52.61"/><rect class="cls-2" x="600.12" y="175.58" width="1.55" height="52.61"/><rect class="cls-2" x="610.43" y="175.58" width="1.55" height="52.61"/><rect class="cls-2" x="615.39" y="175.58" width="1.55" height="52.61"/><rect class="cls-2" x="617.34" y="175.58" width="1.55" height="52.61"/><rect class="cls-2" x="624.53" y="175.58" width="1.54" height="52.61"/><rect class="cls-2" x="629.48" y="175.58" width="1.55" height="52.61"/><rect class="cls-2" x="630.92" y="175.58" width="1.54" height="52.61"/><rect class="cls-2" x="635.62" y="175.58" width="1.54" height="52.61"/><rect class="cls-2" x="656.75" y="175.58" width="1.55" height="52.61"/><rect class="cls-2" x="658.32" y="175.58" width="1.54" height="52.61"/><rect class="cls-2" x="661.31" y="175.58" width="1.55" height="52.61"/><rect class="cls-2" x="655.57" y="175.58" width="1.55" height="52.61"/><rect class="cls-2" x="657.27" y="175.58" width="1.55" height="52.61"/><rect class="cls-2" x="658.97" y="175.58" width="1.54" height="52.61"/><rect class="cls-2" x="660.66" y="175.58" width="1.55" height="52.61"/><rect class="cls-2" x="663.15" y="175.58" width="1.54" height="52.61"/><rect class="cls-2" x="664.19" y="175.58" width="1.54" height="52.61"/><rect class="cls-2" x="666.15" y="175.58" width="1.54" height="52.61"/><rect class="cls-2" x="671.62" y="175.58" width="1.55" height="52.61"/><rect class="cls-2" x="672.41" y="175.58" width="1.54" height="52.61"/><rect class="cls-2" x="684.28" y="175.58" width="1.54" height="52.61"/><rect class="cls-2" x="686.37" y="175.58" width="1.54" height="52.61"/><rect class="cls-2" x="687.93" y="175.58" width="1.54" height="52.61"/><rect class="cls-2" x="690.28" y="175.58" width="1.54" height="52.61"/><rect class="cls-2" x="699.68" y="175.58" width="1.54" height="52.61"/><rect class="cls-2" x="709.72" y="175.58" width="1.55" height="52.61"/><rect class="cls-2" x="709.85" y="175.58" width="1.54" height="52.61"/><rect class="cls-2" x="724.46" y="175.58" width="1.55" height="52.61"/><rect class="cls-2" x="725.25" y="175.58" width="1.54" height="52.61"/><rect class="cls-2" x="727.99" y="175.58" width="1.54" height="52.61"/><rect class="cls-2" x="730.2" y="175.58" width="1.54" height="52.61"/><rect class="cls-2" x="731.24" y="175.58" width="1.55" height="52.61"/><rect class="cls-2" x="731.9" y="175.58" width="1.54" height="52.61"/><rect class="cls-2" x="733.98" y="175.58" width="1.54" height="52.61"/><rect class="cls-2" x="737.25" y="175.58" width="1.54" height="52.61"/><rect class="cls-2" x="739.6" y="175.58" width="1.54" height="52.61"/><rect class="cls-2" x="747.16" y="175.58" width="1.54" height="52.61"/><rect class="cls-2" x="747.42" y="175.58" width="1.55" height="52.61"/><rect class="cls-2" x="747.94" y="175.58" width="1.55" height="52.61"/><rect class="cls-2" x="748.72" y="175.58" width="1.55" height="52.61"/><rect class="cls-2" x="754.6" y="175.58" width="1.55" height="52.61"/><rect class="cls-2" x="755.38" y="175.58" width="1.55" height="52.61"/><rect class="cls-2" x="758.25" y="175.58" width="1.55" height="52.61"/><rect class="cls-2" x="763.21" y="175.58" width="1.54" height="52.61"/><rect class="cls-2" x="763.73" y="175.58" width="1.54" height="52.61"/><rect class="cls-2" x="767.39" y="175.58" width="1.54" height="52.61"/><rect class="cls-2" x="767.65" y="175.58" width="1.54" height="52.61"/><rect class="cls-2" x="768.82" y="175.58" width="1.55" height="52.61"/><rect class="cls-2" x="770.52" y="175.58" width="1.54" height="52.61"/><rect class="cls-2" x="776.64" y="175.58" width="1.55" height="52.61"/><rect class="cls-2" x="780.43" y="175.58" width="1.54" height="52.61"/><rect class="cls-2" x="785.26" y="175.58" width="1.54" height="52.61"/><rect class="cls-2" x="792.95" y="175.58" width="1.55" height="52.61"/><rect class="cls-2" x="803.52" y="175.58" width="1.55" height="52.61"/><rect class="cls-2" x="805.09" y="175.58" width="1.54" height="52.61"/><rect class="cls-2" x="805.48" y="175.58" width="1.54" height="52.61"/><rect class="cls-2" x="807.56" y="175.58" width="1.55" height="52.61"/><rect class="cls-2" x="812.79" y="175.58" width="1.54" height="52.61"/><rect class="cls-2" x="816.05" y="175.58" width="1.54" height="52.61"/><rect class="cls-2" x="820.48" y="175.58" width="1.54" height="52.61"/><rect class="cls-2" x="822.18" y="175.58" width="1.54" height="52.61"/><rect class="cls-2" x="835.22" y="175.58" width="1.55" height="52.61"/><rect class="cls-2" x="842.92" y="175.58" width="1.55" height="52.61"/><rect class="cls-2" x="848.27" y="175.58" width="1.54" height="52.61"/><rect class="cls-2" x="848.79" y="175.58" width="1.55" height="52.61"/><rect class="cls-2" x="851.92" y="175.58" width="1.54" height="52.61"/><rect class="cls-2" x="854.8" y="175.58" width="1.55" height="52.61"/><rect class="cls-2" x="856.1" y="175.58" width="1.55" height="52.61"/><rect class="cls-2" x="863.01" y="175.58" width="1.55" height="52.61"/><rect class="cls-2" x="864.32" y="175.58" width="1.54" height="52.61"/><rect class="cls-2" x="875.8" y="175.58" width="1.54" height="52.61"/><rect class="cls-2" x="877.23" y="175.58" width="1.55" height="52.61"/><rect class="cls-2" x="880.1" y="175.58" width="1.55" height="52.61"/><rect class="cls-2" x="886.5" y="175.58" width="1.54" height="52.61"/><rect class="cls-2" x="889.24" y="175.58" width="1.55" height="52.61"/><rect class="cls-2" x="889.89" y="175.58" width="1.55" height="52.61"/><rect class="cls-2" x="895.89" y="175.58" width="1.54" height="52.61"/><rect class="cls-2" x="914.94" y="175.58" width="1.55" height="52.61"/><rect class="cls-2" x="919.24" y="175.58" width="1.55" height="52.61"/><rect class="cls-2" x="922.63" y="175.58" width="1.55" height="52.61"/><rect class="cls-2" x="924.33" y="175.58" width="1.54" height="52.61"/><rect class="cls-2" x="926.54" y="175.58" width="1.55" height="52.61"/><rect class="cls-2" x="929.68" y="175.58" width="1.55" height="52.61"/><rect class="cls-2" x="936.99" y="175.58" width="1.54" height="52.61"/><rect class="cls-2" x="937.9" y="175.58" width="1.55" height="52.61"/><rect class="cls-2" x="941.68" y="175.58" width="1.55" height="52.61"/><rect class="cls-2" x="951.34" y="175.58" width="1.54" height="52.61"/><rect class="cls-2" x="955.51" y="175.58" width="1.54" height="52.61"/><rect class="cls-2" x="960.48" y="175.58" width="1.54" height="52.61"/><rect class="cls-2" x="962.04" y="175.58" width="1.55" height="52.61"/><rect class="cls-2" x="966.08" y="175.58" width="1.55" height="52.61"/><rect class="cls-2" x="966.47" y="175.58" width="1.55" height="52.61"/><rect class="cls-2" x="972.34" y="175.58" width="1.54" height="52.61"/><rect class="cls-2" x="979" y="175.58" width="1.54" height="52.61"/><rect class="cls-2" x="980.95" y="175.58" width="1.55" height="52.61"/><rect class="cls-2" x="983.69" y="175.58" width="1.55" height="52.61"/><rect class="cls-2" x="984.34" y="175.58" width="1.55" height="52.61"/><rect class="cls-2" x="984.6" y="175.58" width="1.55" height="52.61"/><rect class="cls-2" x="985.13" y="175.58" width="1.54" height="52.61"/><rect class="cls-2" x="988.52" y="175.58" width="1.55" height="52.61"/><rect class="cls-2" x="1002.09" y="175.58" width="1.55" height="52.61"/><rect class="cls-2" x="1004.31" y="175.58" width="1.54" height="52.61"/><rect class="cls-2" x="1006.01" y="175.58" width="1.54" height="52.61"/><polygon class="cls-1" points="404.41 210.91 393.47 228.19 415.35 228.19 404.41 210.91"/><polygon class="cls-1" points="445.25 210.91 434.31 228.19 456.19 228.19 445.25 210.91"/><polygon class="cls-1" points="474.35 210.91 463.4 228.19 485.28 228.19 474.35 210.91"/><polygon class="cls-1" points="644.07 210.91 633.14 228.19 655.02 228.19 644.07 210.91"/><polygon class="cls-1" points="692.22 210.91 681.28 228.19 703.16 228.19 692.22 210.91"/><polygon class="cls-1" points="760.84 210.91 749.9 228.19 771.78 228.19 760.84 210.91"/><polygon class="cls-1" points="818.37 210.91 807.43 228.19 829.32 228.19 818.37 210.91"/><polygon class="cls-1" points="845.9 210.91 834.97 228.19 856.84 228.19 845.9 210.91"/><polygon class="cls-1" points="858.43 210.91 847.49 228.19 869.37 228.19 858.43 210.91"/><polygon class="cls-1" points="879.17 210.91 868.23 228.19 890.11 228.19 879.17 210.91"/><polygon class="cls-1" points="898.48 210.91 887.55 228.19 909.43 228.19 898.48 210.91"/><polygon class="cls-1" points="983.15 210.91 972.21 228.19 994.09 228.19 983.15 210.91"/><polygon class="cls-1" points="991.77 210.91 980.83 228.19 1002.7 228.19 991.77 210.91"/><path class="cls-3" d="M435.37,191.86a10.43,10.43,0,1,0,10.44-10.42A10.43,10.43,0,0,0,435.37,191.86Z"/><polygon class="cls-3" points="447.24 228.19 444.3 228.19 444.3 199.55 447.24 199.55 447.24 228.19 447.24 228.19"/><polygon class="cls-1" points="445.77 210.91 434.83 228.19 456.71 228.19 445.77 210.91"/><path class="cls-3" d="M731.4,191.86a10.42,10.42,0,1,0,10.43-10.42A10.42,10.42,0,0,0,731.4,191.86Z"/><polygon class="cls-3" points="743.26 228.19 740.32 228.19 740.32 199.55 743.26 199.55 743.26 228.19 743.26 228.19"/><polygon class="cls-1" points="741.79 210.91 730.85 228.19 752.73 228.19 741.79 210.91"/><path class="cls-3" d="M933.49,191.86a10.43,10.43,0,1,0,10.43-10.42A10.43,10.43,0,0,0,933.49,191.86Z"/><polygon class="cls-3" points="945.35 228.19 942.42 228.19 942.42 199.55 945.35 199.55 945.35 228.19 945.35 228.19"/><polygon class="cls-1" points="943.89 210.91 932.94 228.19 954.83 228.19 943.89 210.91"/><path class="cls-3" d="M516.71,115.78A109.3,109.3,0,0,1,698,33.46l-.66.75a108.3,108.3,0,0,0-179.62,81.57Z"/><polygon class="cls-3" points="512.25 114.44 517.45 122.95 522.22 114.19 512.25 114.44"/><rect class="cls-3" x="678.28" y="43.95" width="59.74" height="18.56"/><path class="cls-4" d="M692.82,58.8a5.61,5.61,0,0,1-4.14,1.86,6,6,0,0,1-2.64-.59,6.81,6.81,0,0,1-2.12-1.59,7.45,7.45,0,0,1-1.41-2.32A7.6,7.6,0,0,1,682,53.4a7.44,7.44,0,0,1,.51-2.74,7.26,7.26,0,0,1,1.41-2.28,6.64,6.64,0,0,1,2.14-1.55,7,7,0,0,1,6.12.28,5.49,5.49,0,0,1,2.08,2.25l-1.72,1.24a4,4,0,0,0-1.6-1.74,4.45,4.45,0,0,0-2.24-.58,3.86,3.86,0,0,0-1.82.43,4.47,4.47,0,0,0-1.4,1.14,5.11,5.11,0,0,0-.89,1.65,6.21,6.21,0,0,0-.31,2,5.74,5.74,0,0,0,.35,2,5.26,5.26,0,0,0,1,1.64A4.54,4.54,0,0,0,687,58.23a4.09,4.09,0,0,0,1.82.41,4.54,4.54,0,0,0,2.07-.5,6.09,6.09,0,0,0,1.89-1.58V55h-3V53.38h4.86v7.18h-1.88Z"/><path class="cls-4" d="M704,60.66a6.22,6.22,0,0,1-2.77-.61A6.89,6.89,0,0,1,699,58.43a7.32,7.32,0,0,1-1.39-2.31,7.49,7.49,0,0,1-.49-2.66,7.26,7.26,0,0,1,.52-2.72,7.56,7.56,0,0,1,1.43-2.3,6.83,6.83,0,0,1,2.16-1.59,6.32,6.32,0,0,1,2.73-.59,6.06,6.06,0,0,1,2.77.63,7,7,0,0,1,2.14,1.65,7.59,7.59,0,0,1,1.38,2.31,7.4,7.4,0,0,1,0,5.35,7.18,7.18,0,0,1-1.43,2.29,7,7,0,0,1-2.17,1.58A6.27,6.27,0,0,1,704,60.66Zm-4.52-7.2a6,6,0,0,0,.32,1.94,5.27,5.27,0,0,0,.91,1.66,4.45,4.45,0,0,0,1.43,1.15,4.07,4.07,0,0,0,1.88.43,3.94,3.94,0,0,0,1.91-.45A4.49,4.49,0,0,0,707.3,57a5.35,5.35,0,0,0,.88-1.66,6.07,6.07,0,0,0,0-3.83,5.19,5.19,0,0,0-.91-1.64,4.56,4.56,0,0,0-1.42-1.14,4.26,4.26,0,0,0-3.77,0,4.57,4.57,0,0,0-1.42,1.17,5.24,5.24,0,0,0-.89,1.65A5.93,5.93,0,0,0,699.44,53.46Z"/><path class="cls-4" d="M717.58,46.36h2l5.6,14.2h-2.36l-1.5-3.86H715.8l-1.48,3.86h-2.38ZM720.84,55l-2.28-6.1L716.2,55Z"/><path class="cls-4" d="M727.7,60.56V46.36h2.24V58.58h7.62v2Z"/><path class="cls-3" d="M740.18,60.56V46.36h2.24V58.58H750v2Z"/><path class="cls-3" d="M752.66,60.56V46.36h2.24V58.58h7.62v2Z"/><path class="cls-3" d="M765.14,60.56V46.36h2.24V58.58H775v2Z"/><path class="cls-3" d="M777.62,60.56V46.36h2.24V58.58h7.62v2Z"/><path class="cls-3" d="M790.1,60.56V46.36h2.24V58.58H800v2Z"/><path class="cls-3" d="M802.58,60.56V46.36h2.24V58.58h7.62v2Z"/><path class="cls-3" d="M815.06,60.56V46.36h2.24V58.58h7.62v2Z"/><path class="cls-3" d="M827.54,60.56V46.36h2.24V58.58h7.62v2Z"/><path class="cls-3" d="M840,60.56V46.36h2.24V58.58h7.62v2Z"/><path class="cls-3" d="M852.5,60.56V46.36h2.24V58.58h7.62v2Z"/><path class="cls-3" d="M865,60.56V46.36h2.24V58.58h7.62v2Z"/><path class="cls-3" d="M877.46,60.56V46.36h2.24V58.58h7.62v2Z"/><path class="cls-3" d="M889.94,60.56V46.36h2.24V58.58h7.62v2Z"/><path class="cls-3" d="M902.42,60.56V46.36h2.24V58.58h7.62v2Z"/><path class="cls-3" d="M914.9,60.56V46.36h2.24V58.58h7.62v2Z"/><path class="cls-3" d="M927.38,60.56V46.36h2.24V58.58h7.62v2Z"/><path class="cls-3" d="M939.86,60.56V46.36h2.24V58.58h7.62v2Z"/><path class="cls-3" d="M952.34,60.56V46.36h2.24V58.58h7.62v2Z"/><path class="cls-3" d="M964.82,60.56V46.36h2.24V58.58h7.62v2Z"/><path class="cls-3" d="M977.3,60.56V46.36h2.24V58.58h7.62v2Z"/><path class="cls-3" d="M989.78,60.56V46.36H992V58.58h7.62v2Z"/><path class="cls-3" d="M1002.26,60.56V46.36h2.24V58.58h7.62v2Z"/><path class="cls-3" d="M1014.74,60.56V46.36H1017V58.58h7.62v2Z"/><path class="cls-3" d="M1027.22,60.56V46.36h2.24V58.58h7.62v2Z"/><path class="cls-3" d="M1039.7,60.56V46.36h2.24V58.58h7.62v2Z"/><path class="cls-3" d="M1052.18,60.56V46.36h2.24V58.58H1062v2Z"/><path class="cls-3" d="M1064.66,60.56V46.36h2.24V58.58h7.62v2Z"/><path class="cls-3" d="M1077.14,60.56V46.36h2.24V58.58H1087v2Z"/><path class="cls-3" d="M1089.62,60.56V46.36h2.24V58.58h7.62v2Z"/><path class="cls-3" d="M1102.1,60.56V46.36h2.24V58.58H1112v2Z"/><path class="cls-3" d="M1114.58,60.56V46.36h2.24V58.58h7.62v2Z"/><path class="cls-3" d="M1127.06,60.56V46.36h2.24V58.58h7.62v2Z"/><path class="cls-3" d="M1139.54,60.56V46.36h2.24V58.58h7.62v2Z"/><path class="cls-3" d="M1152,60.56V46.36h2.24V58.58h7.62v2Z"/><path class="cls-3" d="M1164.5,60.56V46.36h2.24V58.58h7.62v2Z"/><path class="cls-3" d="M1177,60.56V46.36h2.24V58.58h7.62v2Z"/><path class="cls-3" d="M1189.46,60.56V46.36h2.24V58.58h7.62v2Z"/><path class="cls-3" d="M1201.94,60.56V46.36h2.24V58.58h7.62v2Z"/><path class="cls-3" d="M1214.42,60.56V46.36h2.24V58.58h7.62v2Z"/><path class="cls-3" d="M1226.9,60.56V46.36h2.24V58.58h7.62v2Z"/><path class="cls-3" d="M1239.38,60.56V46.36h2.24V58.58h7.62v2Z"/><path class="cls-3" d="M1251.86,60.56V46.36h2.24V58.58h7.62v2Z"/><path class="cls-3" d="M1264.34,60.56V46.36h2.24V58.58h7.62v2Z"/><path class="cls-3" d="M1276.82,60.56V46.36h2.24V58.58h7.62v2Z"/></svg>