<svg id="Layer_1" data-name="Layer 1" xmlns="http://www.w3.org/2000/svg" viewBox="0 0 1280 177"><defs><style>.cls-1{fill:#fdc659;}.cls-2{fill:#ee3e23;}.cls-3{fill:#333132;}</style></defs><title>yg-umbro-wireframes-170817-2130--slicing</title><rect class="cls-1" x="301.79" y="120.01" width="1.55" height="52.61"/><rect class="cls-1" x="308.97" y="120.01" width="1.55" height="52.61"/><rect class="cls-1" x="338.46" y="120.01" width="1.55" height="52.61"/><rect class="cls-1" x="355.55" y="120.01" width="1.55" height="52.61"/><rect class="cls-1" x="366.37" y="120.01" width="1.55" height="52.61"/><rect class="cls-1" x="372.9" y="120.01" width="1.54" height="52.61"/><rect class="cls-1" x="378.11" y="120.01" width="1.55" height="52.61"/><rect class="cls-1" x="392.34" y="120.01" width="1.54" height="52.61"/><rect class="cls-1" x="398.47" y="120.01" width="1.54" height="52.61"/><rect class="cls-1" x="407.86" y="120.01" width="1.55" height="52.61"/><rect class="cls-1" x="412.56" y="120.01" width="1.54" height="52.61"/><rect class="cls-1" x="422.34" y="120.01" width="1.55" height="52.61"/><rect class="cls-1" x="441.39" y="120.01" width="1.55" height="52.61"/><rect class="cls-1" x="445.43" y="120.01" width="1.55" height="52.61"/><rect class="cls-1" x="450.92" y="120.01" width="1.55" height="52.61"/><rect class="cls-1" x="453.91" y="120.01" width="1.55" height="52.61"/><rect class="cls-1" x="456.66" y="120.01" width="1.55" height="52.61"/><rect class="cls-1" x="458.22" y="120.01" width="1.55" height="52.61"/><rect class="cls-1" x="462.14" y="120.01" width="1.55" height="52.61"/><rect class="cls-1" x="471.14" y="120.01" width="1.55" height="52.61"/><rect class="cls-1" x="473.09" y="120.01" width="1.55" height="52.61"/><rect class="cls-1" x="487.84" y="120.01" width="1.55" height="52.61"/><rect class="cls-1" x="493.31" y="120.01" width="1.55" height="52.61"/><rect class="cls-1" x="502.06" y="120.01" width="1.55" height="52.61"/><rect class="cls-1" x="510.41" y="120.01" width="1.55" height="52.61"/><rect class="cls-1" x="525.28" y="120.01" width="1.55" height="52.61"/><rect class="cls-1" x="530.24" y="120.01" width="1.55" height="52.61"/><rect class="cls-1" x="562.2" y="120.01" width="1.55" height="52.61"/><rect class="cls-1" x="565.59" y="120.01" width="1.55" height="52.61"/><rect class="cls-1" x="567.16" y="120.01" width="1.55" height="52.61"/><rect class="cls-1" x="591.81" y="120.01" width="1.55" height="52.61"/><rect class="cls-1" x="594.95" y="120.01" width="1.54" height="52.61"/><rect class="cls-1" x="599.91" y="120.01" width="1.55" height="52.61"/><rect class="cls-1" x="603.3" y="120.01" width="1.55" height="52.61"/><rect class="cls-1" x="607.21" y="120.01" width="1.55" height="52.61"/><rect class="cls-1" x="608.91" y="120.01" width="1.54" height="52.61"/><rect class="cls-1" x="621.3" y="120.01" width="1.55" height="52.61"/><rect class="cls-1" x="628.48" y="120.01" width="1.55" height="52.61"/><rect class="cls-1" x="630.43" y="120.01" width="1.55" height="52.61"/><rect class="cls-1" x="641.65" y="120.01" width="1.55" height="52.61"/><rect class="cls-1" x="643.87" y="120.01" width="1.55" height="52.61"/><rect class="cls-1" x="665.13" y="120.01" width="1.55" height="52.61"/><rect class="cls-1" x="672.97" y="120.01" width="1.55" height="52.61"/><rect class="cls-1" x="683.01" y="120.01" width="1.54" height="52.61"/><rect class="cls-1" x="684.57" y="120.01" width="1.55" height="52.61"/><rect class="cls-1" x="702.71" y="120.01" width="1.55" height="52.61"/><rect class="cls-1" x="729.46" y="120.01" width="1.55" height="52.61"/><rect class="cls-1" x="739.63" y="120.01" width="1.54" height="52.61"/><rect class="cls-1" x="772.9" y="120.01" width="1.55" height="52.61"/><rect class="cls-1" x="783.99" y="120.01" width="1.55" height="52.61"/><rect class="cls-1" x="786.34" y="120.01" width="1.55" height="52.61"/><rect class="cls-1" x="809.3" y="120.01" width="1.55" height="52.61"/><rect class="cls-1" x="818.04" y="120.01" width="1.55" height="52.61"/><rect class="cls-1" x="819.74" y="120.01" width="1.55" height="52.61"/><rect class="cls-1" x="828.48" y="120.01" width="1.55" height="52.61"/><rect class="cls-1" x="834.09" y="120.01" width="1.55" height="52.61"/><rect class="cls-1" x="835.78" y="120.01" width="1.55" height="52.61"/><rect class="cls-1" x="840.48" y="120.01" width="1.55" height="52.61"/><rect class="cls-1" x="865.4" y="120.01" width="1.55" height="52.61"/><rect class="cls-1" x="866.96" y="120.01" width="1.55" height="52.61"/><rect class="cls-1" x="879.1" y="120.01" width="1.55" height="52.61"/><rect class="cls-1" x="888.1" y="120.01" width="1.54" height="52.61"/><rect class="cls-1" x="920.32" y="120.01" width="1.55" height="52.61"/><rect class="cls-1" x="923.72" y="120.01" width="1.55" height="52.61"/><rect class="cls-1" x="930.37" y="120.01" width="1.55" height="52.61"/><rect class="cls-1" x="938.46" y="120.01" width="1.55" height="52.61"/><rect class="cls-1" x="943.81" y="120.01" width="1.55" height="52.61"/><rect class="cls-1" x="948.89" y="120.01" width="1.55" height="52.61"/><rect class="cls-1" x="955.55" y="120.01" width="1.55" height="52.61"/><rect class="cls-1" x="960.51" y="120.01" width="1.55" height="52.61"/><rect class="cls-1" x="1001.21" y="120.01" width="1.55" height="52.61"/><rect class="cls-1" x="1002.78" y="120.01" width="1.55" height="52.61"/><rect class="cls-1" x="1030.44" y="120.01" width="1.55" height="52.61"/><path class="cls-2" d="M694.52,136.28a10.43,10.43,0,1,0,10.43-10.42A10.43,10.43,0,0,0,694.52,136.28Z"/><polygon class="cls-2" points="706.38 172.61 703.44 172.61 703.44 143.98 706.38 143.98 706.38 172.61 706.38 172.61"/><polygon class="cls-3" points="704.91 155.33 693.97 172.61 715.85 172.61 704.91 155.33"/><polygon class="cls-3" points="503.99 155.33 493.06 172.61 514.94 172.61 503.99 155.33"/><polygon class="cls-3" points="701.36 155.33 690.42 172.61 712.29 172.61 701.36 155.33"/><polygon class="cls-3" points="837.72 155.33 826.78 172.61 848.66 172.61 837.72 155.33"/><polygon class="cls-3" points="881.42 155.33 870.49 172.61 892.36 172.61 881.42 155.33"/><polygon class="cls-3" points="941.44 155.33 930.5 172.61 952.38 172.61 941.44 155.33"/><polygon class="cls-3" points="950.96 155.33 940.02 172.61 961.91 172.61 950.96 155.33"/><rect class="cls-1" x="305.06" y="67.36" width="1.55" height="52.61"/><rect class="cls-1" x="306.75" y="67.36" width="1.55" height="52.61"/><rect class="cls-1" x="309.23" y="67.36" width="1.55" height="52.61"/><rect class="cls-1" x="311.06" y="67.36" width="1.55" height="52.61"/><rect class="cls-1" x="312.62" y="67.36" width="1.55" height="52.61"/><rect class="cls-1" x="314.19" y="67.36" width="1.55" height="52.61"/><rect class="cls-1" x="320.97" y="67.36" width="1.55" height="52.61"/><rect class="cls-1" x="322.54" y="67.36" width="1.55" height="52.61"/><rect class="cls-1" x="329.71" y="67.36" width="1.55" height="52.61"/><rect class="cls-1" x="331.54" y="67.36" width="1.55" height="52.61"/><rect class="cls-1" x="333.23" y="67.36" width="1.55" height="52.61"/><rect class="cls-1" x="339.37" y="67.36" width="1.55" height="52.61"/><rect class="cls-1" x="340.94" y="67.36" width="1.55" height="52.61"/><rect class="cls-1" x="342.5" y="67.36" width="1.55" height="52.61"/><rect class="cls-1" x="344.06" y="67.36" width="1.55" height="52.61"/><rect class="cls-1" x="345.63" y="67.36" width="1.55" height="52.61"/><rect class="cls-1" x="347.59" y="67.36" width="1.55" height="52.61"/><rect class="cls-1" x="349.15" y="67.36" width="1.55" height="52.61"/><rect class="cls-1" x="350.72" y="67.36" width="1.55" height="52.61"/><rect class="cls-1" x="352.93" y="67.36" width="1.55" height="52.61"/><rect class="cls-1" x="354.77" y="67.36" width="1.55" height="52.61"/><rect class="cls-1" x="356.46" y="67.36" width="1.55" height="52.61"/><rect class="cls-1" x="358.16" y="67.36" width="1.55" height="52.61"/><rect class="cls-1" x="359.98" y="67.36" width="1.54" height="52.61"/><rect class="cls-1" x="361.55" y="67.36" width="1.55" height="52.61"/><rect class="cls-1" x="365.07" y="67.36" width="1.54" height="52.61"/><rect class="cls-1" x="373.42" y="67.36" width="1.55" height="52.61"/><rect class="cls-1" x="379.42" y="67.36" width="1.54" height="52.61"/><rect class="cls-1" x="381.51" y="67.36" width="1.55" height="52.61"/><rect class="cls-1" x="383.07" y="67.36" width="1.55" height="52.61"/><rect class="cls-1" x="385.3" y="67.36" width="1.55" height="52.61"/><rect class="cls-1" x="386.86" y="67.36" width="1.55" height="52.61"/><rect class="cls-1" x="388.55" y="67.36" width="1.55" height="52.61"/><rect class="cls-1" x="390.38" y="67.36" width="1.55" height="52.61"/><rect class="cls-1" x="392.59" y="67.36" width="1.55" height="52.61"/><rect class="cls-1" x="394.16" y="67.36" width="1.55" height="52.61"/><rect class="cls-1" x="401.08" y="67.36" width="1.55" height="52.61"/><rect class="cls-1" x="403.16" y="67.36" width="1.55" height="52.61"/><rect class="cls-1" x="406.3" y="67.36" width="1.55" height="52.61"/><rect class="cls-1" x="408.64" y="67.36" width="1.55" height="52.61"/><rect class="cls-1" x="410.47" y="67.36" width="1.55" height="52.61"/><rect class="cls-1" x="413.99" y="67.36" width="1.55" height="52.61"/><rect class="cls-1" x="415.56" y="67.36" width="1.54" height="52.61"/><rect class="cls-1" x="417.26" y="67.36" width="1.55" height="52.61"/><rect class="cls-1" x="418.82" y="67.36" width="1.55" height="52.61"/><rect class="cls-1" x="420.52" y="67.36" width="1.55" height="52.61"/><rect class="cls-1" x="423.52" y="67.36" width="1.55" height="52.61"/><rect class="cls-1" x="425.34" y="67.36" width="1.55" height="52.61"/><rect class="cls-1" x="426.91" y="67.36" width="1.55" height="52.61"/><rect class="cls-1" x="429.52" y="67.36" width="1.54" height="52.61"/><rect class="cls-1" x="431.08" y="67.36" width="1.55" height="52.61"/><rect class="cls-1" x="432.78" y="67.36" width="1.55" height="52.61"/><rect class="cls-1" x="439.69" y="67.36" width="1.55" height="52.61"/><rect class="cls-1" x="442.57" y="67.36" width="1.55" height="52.61"/><rect class="cls-1" x="446.48" y="67.36" width="1.55" height="52.61"/><rect class="cls-1" x="448.05" y="67.36" width="1.55" height="52.61"/><rect class="cls-1" x="449.74" y="67.36" width="1.55" height="52.61"/><rect class="cls-1" x="456.13" y="67.36" width="1.54" height="52.61"/><rect class="cls-1" x="461.09" y="67.36" width="1.55" height="52.61"/><rect class="cls-1" x="462.79" y="67.36" width="1.55" height="52.61"/><rect class="cls-1" x="465" y="67.36" width="1.55" height="52.61"/><rect class="cls-1" x="467.87" y="67.36" width="1.55" height="52.61"/><rect class="cls-1" x="469.57" y="67.36" width="1.55" height="52.61"/><rect class="cls-1" x="474.01" y="67.36" width="1.55" height="52.61"/><rect class="cls-1" x="477.66" y="67.36" width="1.55" height="52.61"/><rect class="cls-1" x="483.66" y="67.36" width="1.55" height="52.61"/><rect class="cls-1" x="485.35" y="67.36" width="1.55" height="52.61"/><rect class="cls-1" x="503.23" y="67.36" width="1.55" height="52.61"/><rect class="cls-1" x="505.06" y="67.36" width="1.55" height="52.61"/><rect class="cls-1" x="507.01" y="67.36" width="1.55" height="52.61"/><rect class="cls-1" x="508.58" y="67.36" width="1.55" height="52.61"/><rect class="cls-1" x="519.01" y="67.36" width="1.55" height="52.61"/><rect class="cls-1" x="522.8" y="67.36" width="1.55" height="52.61"/><rect class="cls-1" x="524.36" y="67.36" width="1.55" height="52.61"/><rect class="cls-1" x="530.24" y="67.36" width="1.55" height="52.61"/><rect class="cls-1" x="547.59" y="67.36" width="1.55" height="52.61"/><rect class="cls-1" x="552.68" y="67.36" width="1.55" height="52.61"/><rect class="cls-1" x="555.02" y="67.36" width="1.55" height="52.61"/><rect class="cls-1" x="556.72" y="67.36" width="1.55" height="52.61"/><rect class="cls-1" x="558.55" y="67.36" width="1.55" height="52.61"/><rect class="cls-1" x="560.37" y="67.36" width="1.55" height="52.61"/><rect class="cls-1" x="564.15" y="67.36" width="1.55" height="52.61"/><rect class="cls-1" x="569.24" y="67.36" width="1.55" height="52.61"/><rect class="cls-1" x="571.33" y="67.36" width="1.55" height="52.61"/><rect class="cls-1" x="573.03" y="67.36" width="1.55" height="52.61"/><rect class="cls-1" x="581.25" y="67.36" width="1.55" height="52.61"/><rect class="cls-1" x="584.25" y="67.36" width="1.55" height="52.61"/><rect class="cls-1" x="586.86" y="67.36" width="1.55" height="52.61"/><rect class="cls-1" x="589.86" y="67.36" width="1.55" height="52.61"/><rect class="cls-1" x="604.21" y="67.36" width="1.55" height="52.61"/><rect class="cls-1" x="609.95" y="67.36" width="1.55" height="52.61"/><rect class="cls-1" x="613.34" y="67.36" width="1.55" height="52.61"/><rect class="cls-1" x="615.04" y="67.36" width="1.55" height="52.61"/><rect class="cls-1" x="616.6" y="67.36" width="1.55" height="52.61"/><rect class="cls-1" x="624.04" y="67.36" width="1.55" height="52.61"/><rect class="cls-1" x="626" y="67.36" width="1.55" height="52.61"/><rect class="cls-1" x="628.87" y="67.36" width="1.55" height="52.61"/><rect class="cls-1" x="635.13" y="67.36" width="1.55" height="52.61"/><rect class="cls-1" x="636.83" y="67.36" width="1.55" height="52.61"/><rect class="cls-1" x="645.43" y="67.36" width="1.55" height="52.61"/><rect class="cls-1" x="648.18" y="67.36" width="1.55" height="52.61"/><rect class="cls-1" x="650.26" y="67.36" width="1.55" height="52.61"/><rect class="cls-1" x="651.83" y="67.36" width="1.55" height="52.61"/><rect class="cls-1" x="654.83" y="67.36" width="1.55" height="52.61"/><rect class="cls-1" x="657.58" y="67.36" width="1.55" height="52.61"/><rect class="cls-1" x="659.14" y="67.36" width="1.55" height="52.61"/><rect class="cls-1" x="661.09" y="67.36" width="1.55" height="52.61"/><rect class="cls-1" x="654.18" y="67.36" width="1.55" height="52.61"/><rect class="cls-1" x="655.87" y="67.36" width="1.55" height="52.61"/><rect class="cls-1" x="657.58" y="67.36" width="1.55" height="52.61"/><rect class="cls-1" x="661.62" y="67.36" width="1.55" height="52.61"/><rect class="cls-1" x="671.92" y="67.36" width="1.55" height="52.61"/><rect class="cls-1" x="675.44" y="67.36" width="1.55" height="52.61"/><rect class="cls-1" x="680.27" y="67.36" width="1.55" height="52.61"/><rect class="cls-1" x="682.36" y="67.36" width="1.55" height="52.61"/><rect class="cls-1" x="686.27" y="67.36" width="1.55" height="52.61"/><rect class="cls-1" x="692.01" y="67.36" width="1.55" height="52.61"/><rect class="cls-1" x="696.84" y="67.36" width="1.55" height="52.61"/><rect class="cls-1" x="718.11" y="67.36" width="1.55" height="52.61"/><rect class="cls-1" x="719.67" y="67.36" width="1.55" height="52.61"/><rect class="cls-1" x="721.62" y="67.36" width="1.55" height="52.61"/><rect class="cls-1" x="723.85" y="67.36" width="1.55" height="52.61"/><rect class="cls-1" x="728.67" y="67.36" width="1.54" height="52.61"/><rect class="cls-1" x="730.37" y="67.36" width="1.55" height="52.61"/><rect class="cls-1" x="740.94" y="67.36" width="1.55" height="52.61"/><rect class="cls-1" x="744.85" y="67.36" width="1.55" height="52.61"/><rect class="cls-1" x="746.42" y="67.36" width="1.55" height="52.61"/><rect class="cls-1" x="748.11" y="67.36" width="1.54" height="52.61"/><rect class="cls-1" x="750.72" y="67.36" width="1.55" height="52.61"/><rect class="cls-1" x="752.81" y="67.36" width="1.55" height="52.61"/><rect class="cls-1" x="756.46" y="67.36" width="1.55" height="52.61"/><rect class="cls-1" x="760.11" y="67.36" width="1.55" height="52.61"/><rect class="cls-1" x="761.68" y="67.36" width="1.55" height="52.61"/><rect class="cls-1" x="765.2" y="67.36" width="1.54" height="52.61"/><rect class="cls-1" x="770.81" y="67.36" width="1.55" height="52.61"/><rect class="cls-1" x="787.78" y="67.36" width="1.55" height="52.61"/><rect class="cls-1" x="789.47" y="67.36" width="1.55" height="52.61"/><rect class="cls-1" x="792.21" y="67.36" width="1.55" height="52.61"/><rect class="cls-1" x="797.95" y="67.36" width="1.55" height="52.61"/><rect class="cls-1" x="799.9" y="67.36" width="1.55" height="52.61"/><rect class="cls-1" x="803.17" y="67.36" width="1.55" height="52.61"/><rect class="cls-1" x="805.91" y="67.36" width="1.55" height="52.61"/><rect class="cls-1" x="807.73" y="67.36" width="1.55" height="52.61"/><rect class="cls-1" x="810.08" y="67.36" width="1.55" height="52.61"/><rect class="cls-1" x="814.13" y="67.36" width="1.55" height="52.61"/><rect class="cls-1" x="825.09" y="67.36" width="1.55" height="52.61"/><rect class="cls-1" x="827.7" y="67.36" width="1.54" height="52.61"/><rect class="cls-1" x="829.52" y="67.36" width="1.55" height="52.61"/><rect class="cls-1" x="838" y="67.36" width="1.55" height="52.61"/><rect class="cls-1" x="839.57" y="67.36" width="1.54" height="52.61"/><rect class="cls-1" x="843.48" y="67.36" width="1.55" height="52.61"/><rect class="cls-1" x="846.61" y="67.36" width="1.55" height="52.61"/><rect class="cls-1" x="848.83" y="67.36" width="1.55" height="52.61"/><rect class="cls-1" x="851.31" y="67.36" width="1.55" height="52.61"/><rect class="cls-1" x="857.7" y="67.36" width="1.55" height="52.61"/><rect class="cls-1" x="859.52" y="67.36" width="1.55" height="52.61"/><rect class="cls-1" x="868.4" y="67.36" width="1.55" height="52.61"/><rect class="cls-1" x="870.62" y="67.36" width="1.55" height="52.61"/><rect class="cls-1" x="874.92" y="67.36" width="1.55" height="52.61"/><rect class="cls-1" x="878.05" y="67.36" width="1.55" height="52.61"/><rect class="cls-1" x="881.44" y="67.36" width="1.55" height="52.61"/><rect class="cls-1" x="889.14" y="67.36" width="1.55" height="52.61"/><rect class="cls-1" x="902.97" y="67.36" width="1.55" height="52.61"/><rect class="cls-1" x="907.8" y="67.36" width="1.55" height="52.61"/><rect class="cls-1" x="909.49" y="67.36" width="1.55" height="52.61"/><rect class="cls-1" x="911.19" y="67.36" width="1.55" height="52.61"/><rect class="cls-1" x="921.76" y="67.36" width="1.55" height="52.61"/><rect class="cls-1" x="924.24" y="67.36" width="1.54" height="52.61"/><rect class="cls-1" x="926.32" y="67.36" width="1.55" height="52.61"/><rect class="cls-1" x="928.02" y="67.36" width="1.55" height="52.61"/><rect class="cls-1" x="933.37" y="67.36" width="1.55" height="52.61"/><rect class="cls-1" x="935.07" y="67.36" width="1.55" height="52.61"/><rect class="cls-1" x="936.89" y="67.36" width="1.55" height="52.61"/><rect class="cls-1" x="942.11" y="67.36" width="1.55" height="52.61"/><rect class="cls-1" x="951.51" y="67.36" width="1.55" height="52.61"/><rect class="cls-1" x="954.9" y="67.36" width="1.55" height="52.61"/><rect class="cls-1" x="959.86" y="67.36" width="1.55" height="52.61"/><rect class="cls-1" x="961.55" y="67.36" width="1.55" height="52.61"/><rect class="cls-1" x="965.6" y="67.36" width="1.55" height="52.61"/><rect class="cls-1" x="967.42" y="67.36" width="1.55" height="52.61"/><rect class="cls-1" x="973.56" y="67.36" width="1.55" height="52.61"/><rect class="cls-1" x="975.38" y="67.36" width="1.55" height="52.61"/><rect class="cls-1" x="977.99" y="67.36" width="1.55" height="52.61"/><rect class="cls-1" x="979.56" y="67.36" width="1.55" height="52.61"/><rect class="cls-1" x="985.95" y="67.36" width="1.55" height="52.61"/><rect class="cls-1" x="990.12" y="67.36" width="1.55" height="52.61"/><rect class="cls-1" x="991.69" y="67.36" width="1.54" height="52.61"/><rect class="cls-1" x="994.04" y="67.36" width="1.55" height="52.61"/><rect class="cls-1" x="996.65" y="67.36" width="1.55" height="52.61"/><rect class="cls-1" x="998.21" y="67.36" width="1.55" height="52.61"/><rect class="cls-1" x="999.91" y="67.36" width="1.55" height="52.61"/><rect class="cls-1" x="1001.99" y="67.36" width="1.55" height="52.61"/><rect class="cls-1" x="1003.69" y="67.36" width="1.55" height="52.61"/><rect class="cls-1" x="1005.91" y="67.36" width="1.55" height="52.61"/><rect class="cls-1" x="1009.43" y="67.36" width="1.55" height="52.61"/><rect class="cls-1" x="1021.95" y="67.36" width="1.55" height="52.61"/><rect class="cls-1" x="1030.96" y="67.36" width="1.55" height="52.61"/><rect class="cls-1" x="1032.52" y="67.36" width="1.55" height="52.61"/><rect class="cls-1" x="1040.61" y="67.36" width="1.55" height="52.61"/><rect class="cls-1" x="1044.13" y="67.36" width="1.55" height="52.61"/><polygon class="cls-3" points="428.85 102.69 417.91 119.98 439.79 119.98 428.85 102.69"/><polygon class="cls-3" points="435.63 102.69 424.69 119.98 446.57 119.98 435.63 102.69"/><polygon class="cls-3" points="466.94 102.69 456 119.98 477.88 119.98 466.94 102.69"/><polygon class="cls-3" points="488.6 102.69 477.66 119.98 499.54 119.98 488.6 102.69"/><polygon class="cls-3" points="544.31 102.69 533.37 119.98 555.25 119.98 544.31 102.69"/><polygon class="cls-3" points="547.96 102.69 537.02 119.98 558.9 119.98 547.96 102.69"/><polygon class="cls-3" points="619.2 102.69 608.25 119.98 630.13 119.98 619.2 102.69"/><polygon class="cls-3" points="639.41 102.69 628.48 119.98 650.35 119.98 639.41 102.69"/><polygon class="cls-3" points="648.16 102.69 637.22 119.98 659.1 119.98 648.16 102.69"/><polygon class="cls-3" points="663.42 102.69 652.48 119.98 674.36 119.98 663.42 102.69"/><polygon class="cls-3" points="690.3 102.69 679.36 119.98 701.24 119.98 690.3 102.69"/><polygon class="cls-3" points="699.95 102.69 689.02 119.98 710.89 119.98 699.95 102.69"/><polygon class="cls-3" points="749.92 102.69 738.98 119.98 760.86 119.98 749.92 102.69"/><polygon class="cls-3" points="767.14 102.69 756.2 119.98 778.08 119.98 767.14 102.69"/><polygon class="cls-3" points="794.41 102.69 783.47 119.98 805.34 119.98 794.41 102.69"/><polygon class="cls-3" points="812.93 102.69 802 119.98 823.87 119.98 812.93 102.69"/><polygon class="cls-3" points="831.98 102.69 821.04 119.98 842.92 119.98 831.98 102.69"/><polygon class="cls-3" points="844.66 102.69 833.72 119.98 855.6 119.98 844.66 102.69"/><polygon class="cls-3" points="848.42 102.69 837.48 119.98 859.35 119.98 848.42 102.69"/><polygon class="cls-3" points="863.16 102.69 852.22 119.98 874.1 119.98 863.16 102.69"/><polygon class="cls-3" points="876.86 102.69 865.92 119.98 887.8 119.98 876.86 102.69"/><polygon class="cls-3" points="913.65 102.69 902.71 119.98 924.59 119.98 913.65 102.69"/><polygon class="cls-3" points="977.19 102.69 966.25 119.98 988.13 119.98 977.19 102.69"/><polygon class="cls-3" points="982.8 102.69 971.86 119.98 993.74 119.98 982.8 102.69"/><path class="cls-3" d="M236.12,112a2.49,2.49,0,0,0-.46-.38,4.7,4.7,0,0,0-.71-.38,5.22,5.22,0,0,0-.9-.29,4.46,4.46,0,0,0-1-.11,2.72,2.72,0,0,0-1.67.42,1.38,1.38,0,0,0-.54,1.15,1.25,1.25,0,0,0,.17.68,1.44,1.44,0,0,0,.52.46,4.08,4.08,0,0,0,.88.35l1.23.33a14.23,14.23,0,0,1,1.56.46,4.42,4.42,0,0,1,1.18.62,2.54,2.54,0,0,1,.74.9,2.93,2.93,0,0,1,.26,1.3,3.16,3.16,0,0,1-.33,1.49,2.8,2.8,0,0,1-.9,1,4,4,0,0,1-1.32.58,6.82,6.82,0,0,1-1.62.18,8.06,8.06,0,0,1-2.5-.39,7.17,7.17,0,0,1-2.18-1.14l.82-1.54a3.78,3.78,0,0,0,.6.46,5.57,5.57,0,0,0,.91.47A8,8,0,0,0,232,119a5.21,5.21,0,0,0,1.26.15,3,3,0,0,0,1.63-.37,1.21,1.21,0,0,0,.58-1.09,1.17,1.17,0,0,0-.22-.72,1.86,1.86,0,0,0-.62-.5,5.41,5.41,0,0,0-1-.39l-1.31-.37a13.53,13.53,0,0,1-1.48-.47,3.69,3.69,0,0,1-1-.6,2.35,2.35,0,0,1-.63-.82,2.74,2.74,0,0,1-.22-1.14,3.3,3.3,0,0,1,.32-1.48,3.16,3.16,0,0,1,.87-1.09,3.81,3.81,0,0,1,1.3-.66,5.69,5.69,0,0,1,1.63-.22,6,6,0,0,1,2.13.37,7.05,7.05,0,0,1,1.71.91Z"/><path class="cls-3" d="M239.18,120.69V109.33h4.77a3.15,3.15,0,0,1,1.42.32,3.63,3.63,0,0,1,1.11.84,4,4,0,0,1,.73,1.18,3.64,3.64,0,0,1,.26,1.35,3.92,3.92,0,0,1-.25,1.38,3.88,3.88,0,0,1-.7,1.18,3.38,3.38,0,0,1-1.08.83,3.12,3.12,0,0,1-1.4.31H241v4Zm1.79-5.54h3a1.5,1.5,0,0,0,.7-.16,1.61,1.61,0,0,0,.54-.45,2.26,2.26,0,0,0,.35-.67,2.68,2.68,0,0,0,.13-.85,2.45,2.45,0,0,0-.14-.86,2,2,0,0,0-.4-.66,1.84,1.84,0,0,0-.58-.43,1.61,1.61,0,0,0-.68-.15H241Z"/><path class="cls-3" d="M251.77,109.33h1.57l4.48,11.36h-1.89l-1.2-3.09h-4.38l-1.18,3.09h-1.9Zm2.61,6.94-1.82-4.88-1.89,4.88Z"/><path class="cls-3" d="M259.23,120.69V109.33H261v11.36Z"/><path class="cls-3" d="M265.37,112.69v8h-1.79V109.33H265l6.5,8.19v-8.18h1.81v11.34H271.8Z"/><path class="cls-3" d="M167.87,164.26a2.49,2.49,0,0,0-.46-.38,4.7,4.7,0,0,0-.71-.38,5.22,5.22,0,0,0-.9-.29,4.46,4.46,0,0,0-1-.11,2.72,2.72,0,0,0-1.67.42,1.38,1.38,0,0,0-.54,1.15,1.25,1.25,0,0,0,.17.68,1.44,1.44,0,0,0,.52.46,4.08,4.08,0,0,0,.88.35l1.23.33a14.23,14.23,0,0,1,1.56.46,4.42,4.42,0,0,1,1.18.62,2.54,2.54,0,0,1,.74.9,2.93,2.93,0,0,1,.26,1.3,3.16,3.16,0,0,1-.33,1.49,2.8,2.8,0,0,1-.9,1,4,4,0,0,1-1.32.58,6.82,6.82,0,0,1-1.62.18,8.06,8.06,0,0,1-2.5-.39,7.17,7.17,0,0,1-2.18-1.14l.82-1.54a3.78,3.78,0,0,0,.6.46,5.57,5.57,0,0,0,.91.47,8,8,0,0,0,1.13.37,5.21,5.21,0,0,0,1.26.15,3,3,0,0,0,1.63-.37,1.21,1.21,0,0,0,.58-1.09,1.17,1.17,0,0,0-.22-.72,1.86,1.86,0,0,0-.62-.5,5.41,5.41,0,0,0-1-.39l-1.31-.37a13.53,13.53,0,0,1-1.48-.47,3.69,3.69,0,0,1-1-.6,2.35,2.35,0,0,1-.63-.82,2.74,2.74,0,0,1-.22-1.14,3.3,3.3,0,0,1,.32-1.48,3.16,3.16,0,0,1,.87-1.09,3.81,3.81,0,0,1,1.3-.66,5.69,5.69,0,0,1,1.63-.22,6,6,0,0,1,2.13.37,7.05,7.05,0,0,1,1.71.91Z"/><path class="cls-3" d="M174.7,161.63h1.7l1.39,3.86,1.41-3.86h1.68l-1.94,5.06,1.7,4.18,3.54-9.28h2l-4.69,11.36h-1.54l-2.11-5.09-2.13,5.09h-1.54l-4.69-11.36h2l3.55,9.28,1.7-4.18Z"/><path class="cls-3" d="M187.48,172.94V161.58h1.79v11.36Z"/><path class="cls-3" d="M200.17,163.17H196.4v9.78h-1.81v-9.78H190.8v-1.58h9.38Z"/><path class="cls-3" d="M200.91,171.57l6.9-8.4h-6.74v-1.58h8.83V163l-6.74,8.4h6.75v1.58h-9Z"/><path class="cls-3" d="M219.55,171.36v1.58h-7.79V161.58h7.65v1.58h-5.86v3.23h5.07v1.49h-5.07v3.47Z"/><path class="cls-3" d="M221.4,172.94V161.58h4.94a3.15,3.15,0,0,1,1.42.32,3.64,3.64,0,0,1,1.11.84,4,4,0,0,1,.73,1.18,3.64,3.64,0,0,1,.26,1.35,3.79,3.79,0,0,1-.16,1.1,3.88,3.88,0,0,1-.45,1,3.15,3.15,0,0,1-.7.78,2.9,2.9,0,0,1-.91.49l2.67,4.32h-2l-2.46-4H223.2v4Zm1.79-5.54h3.14a1.44,1.44,0,0,0,.7-.17,1.65,1.65,0,0,0,.54-.46,2.34,2.34,0,0,0,.35-.68,2.56,2.56,0,0,0,.13-.82,2.2,2.2,0,0,0-.15-.82,2.35,2.35,0,0,0-.4-.67,1.89,1.89,0,0,0-.58-.46,1.47,1.47,0,0,0-.68-.17h-3Z"/><path class="cls-3" d="M232,172.94V161.58h1.79v9.78h6.1v1.58Z"/><path class="cls-3" d="M244.67,161.58h1.57l4.48,11.36h-1.89l-1.2-3.09h-4.38l-1.18,3.09h-1.9Zm2.61,6.94-1.82-4.88-1.89,4.88Z"/><path class="cls-3" d="M253.92,164.94v8h-1.79V161.58h1.41l6.5,8.19V161.6h1.81v11.34h-1.49Z"/><path class="cls-3" d="M264.4,172.94V161.58h4a6,6,0,0,1,2.41.45,5,5,0,0,1,1.73,1.22,5.1,5.1,0,0,1,1,1.8,6.78,6.78,0,0,1,.35,2.2,6.65,6.65,0,0,1-.39,2.34,5.12,5.12,0,0,1-1.11,1.79,4.93,4.93,0,0,1-1.74,1.15,6.14,6.14,0,0,1-2.29.41Zm7.74-5.7a5.23,5.23,0,0,0-.25-1.65,3.59,3.59,0,0,0-.73-1.29,3.38,3.38,0,0,0-1.17-.84,3.85,3.85,0,0,0-1.57-.3h-2.24v8.19h2.24A3.85,3.85,0,0,0,270,171a3.27,3.27,0,0,0,1.17-.86,3.72,3.72,0,0,0,.71-1.3A5.35,5.35,0,0,0,272.14,167.25Z"/><path class="cls-2" d="M668.57,22.37h2.12l1.74,4.82,1.76-4.82h2.1l-2.42,6.32L676,33.91l4.42-11.6h2.46L677,36.51h-1.92l-2.64-6.36-2.66,6.36h-1.92L662,22.31h2.44l4.44,11.6L671,28.69Z"/><path class="cls-2" d="M696.61,22.31v14.2h-2.26V30.25h-7.16v6.26h-2.24V22.31h2.24v5.94h7.16V22.31Z"/><path class="cls-2" d="M706.11,36.61a6.23,6.23,0,0,1-2.77-.61,6.9,6.9,0,0,1-2.15-1.62,7.32,7.32,0,0,1-1.39-2.31,7.49,7.49,0,0,1-.49-2.66,7.25,7.25,0,0,1,.52-2.72,7.54,7.54,0,0,1,1.43-2.3,6.83,6.83,0,0,1,2.16-1.59,6.32,6.32,0,0,1,2.73-.59,6.07,6.07,0,0,1,2.77.63,7,7,0,0,1,2.14,1.65,7.6,7.6,0,0,1,1.38,2.31,7.41,7.41,0,0,1,0,5.35A7.18,7.18,0,0,1,711,34.44,7,7,0,0,1,708.82,36,6.27,6.27,0,0,1,706.11,36.61Zm-4.52-7.2a6,6,0,0,0,.32,1.94,5.27,5.27,0,0,0,.91,1.66,4.44,4.44,0,0,0,1.43,1.15,4.06,4.06,0,0,0,1.88.43,3.94,3.94,0,0,0,1.91-.45A4.49,4.49,0,0,0,709.45,33a5.36,5.36,0,0,0,.88-1.66,6,6,0,0,0,.3-1.88,6,6,0,0,0-.32-1.95,5.19,5.19,0,0,0-.91-1.64A4.56,4.56,0,0,0,708,24.68a4,4,0,0,0-1.85-.43,4,4,0,0,0-1.92.45,4.57,4.57,0,0,0-1.42,1.17,5.24,5.24,0,0,0-.89,1.65A5.93,5.93,0,0,0,701.59,29.41Z"/><path class="cls-2" d="M721.55,36.61a6.23,6.23,0,0,1-2.77-.61,6.9,6.9,0,0,1-2.15-1.62,7.32,7.32,0,0,1-1.39-2.31,7.49,7.49,0,0,1-.49-2.66,7.25,7.25,0,0,1,.52-2.72,7.54,7.54,0,0,1,1.43-2.3,6.83,6.83,0,0,1,2.16-1.59,6.32,6.32,0,0,1,2.73-.59,6.07,6.07,0,0,1,2.77.63,7,7,0,0,1,2.14,1.65,7.6,7.6,0,0,1,1.38,2.31,7.41,7.41,0,0,1,0,5.35,7.18,7.18,0,0,1-1.43,2.29A7,7,0,0,1,724.26,36,6.27,6.27,0,0,1,721.55,36.61ZM717,29.41a6,6,0,0,0,.32,1.94,5.27,5.27,0,0,0,.91,1.66,4.44,4.44,0,0,0,1.43,1.15,4.06,4.06,0,0,0,1.88.43,3.94,3.94,0,0,0,1.91-.45A4.49,4.49,0,0,0,724.89,33a5.36,5.36,0,0,0,.88-1.66,6,6,0,0,0,.3-1.88,6,6,0,0,0-.32-1.95,5.19,5.19,0,0,0-.91-1.64,4.56,4.56,0,0,0-1.42-1.14,4,4,0,0,0-1.85-.43,4,4,0,0,0-1.92.45,4.57,4.57,0,0,0-1.42,1.17,5.24,5.24,0,0,0-.89,1.65A5.93,5.93,0,0,0,717,29.41Z"/><path class="cls-2" d="M731.09,36.51V22.31h6a3.94,3.94,0,0,1,1.77.4,4.54,4.54,0,0,1,1.39,1,5,5,0,0,1,.91,1.48,4.53,4.53,0,0,1,.33,1.69,4.91,4.91,0,0,1-.31,1.73,4.83,4.83,0,0,1-.87,1.48,4.23,4.23,0,0,1-1.35,1,3.9,3.9,0,0,1-1.75.39h-3.84v4.94Zm2.24-6.92H737a1.87,1.87,0,0,0,.87-.2,2,2,0,0,0,.67-.56A2.8,2.8,0,0,0,739,28a3.34,3.34,0,0,0,.16-1.06,3.06,3.06,0,0,0-.18-1.08,2.55,2.55,0,0,0-.5-.83,2.29,2.29,0,0,0-.73-.54,2,2,0,0,0-.85-.19h-3.58Z"/><path class="cls-2" d="M752.35,25.65a3.09,3.09,0,0,0-.58-.47,5.79,5.79,0,0,0-.89-.47,6.5,6.5,0,0,0-1.12-.36,5.61,5.61,0,0,0-1.25-.14,3.41,3.41,0,0,0-2.09.52,1.72,1.72,0,0,0-.67,1.44A1.56,1.56,0,0,0,746,27a1.8,1.8,0,0,0,.65.58,5.07,5.07,0,0,0,1.1.44l1.54.41a17.6,17.6,0,0,1,2,.58,5.56,5.56,0,0,1,1.47.78,3.18,3.18,0,0,1,.93,1.13,3.66,3.66,0,0,1,.33,1.63,4,4,0,0,1-.41,1.86,3.49,3.49,0,0,1-1.12,1.27,4.93,4.93,0,0,1-1.65.72,8.51,8.51,0,0,1-2,.23,10.06,10.06,0,0,1-3.13-.49,9,9,0,0,1-2.73-1.43l1-1.92a4.67,4.67,0,0,0,.75.58,7,7,0,0,0,1.14.59,10,10,0,0,0,1.41.46,6.5,6.5,0,0,0,1.58.19,3.79,3.79,0,0,0,2-.46,1.51,1.51,0,0,0,.72-1.36,1.46,1.46,0,0,0-.27-.9,2.33,2.33,0,0,0-.77-.63,6.73,6.73,0,0,0-1.22-.49q-.72-.22-1.64-.46a16.86,16.86,0,0,1-1.85-.59,4.62,4.62,0,0,1-1.31-.75,2.93,2.93,0,0,1-.79-1,3.42,3.42,0,0,1-.27-1.43,4.13,4.13,0,0,1,.4-1.85,4,4,0,0,1,1.09-1.36,4.77,4.77,0,0,1,1.63-.83,7.12,7.12,0,0,1,2-.28,7.48,7.48,0,0,1,2.66.46,8.8,8.8,0,0,1,2.14,1.14Z"/><path class="cls-2" d="M686.84,121.62a12,12,0,0,1-7-7.56A62.23,62.23,0,0,1,701,42.52l.66.88a61.13,61.13,0,0,0-20.74,70.26c1.73,4.61,3.91,5.7,6.44,7Z"/><polygon class="cls-2" points="682.64 124.92 693.6 125.61 688.72 115.78 682.64 124.92"/></svg>