<svg id="Layer_1" data-name="Layer 1" xmlns="http://www.w3.org/2000/svg" viewBox="0 0 1280 177"><defs><style>.cls-1{fill:#fdc659;}.cls-2{fill:#ee3e23;}.cls-3{fill:#333132;}</style></defs><title>yg-umbro-wireframes-170817-2130--slicing</title><rect class="cls-1" x="316.14" y="121.18" width="1.55" height="52.62"/><rect class="cls-1" x="318.49" y="121.18" width="1.55" height="52.62"/><rect class="cls-1" x="323.58" y="121.18" width="1.54" height="52.62"/><rect class="cls-1" x="325.8" y="121.18" width="1.55" height="52.62"/><rect class="cls-1" x="328.8" y="121.18" width="1.55" height="52.62"/><rect class="cls-1" x="337.54" y="121.18" width="1.54" height="52.62"/><rect class="cls-1" x="339.1" y="121.18" width="1.55" height="52.62"/><rect class="cls-1" x="360.63" y="121.18" width="1.55" height="52.62"/><rect class="cls-1" x="362.46" y="121.18" width="1.55" height="52.62"/><rect class="cls-1" x="371.59" y="121.18" width="1.55" height="52.62"/><rect class="cls-1" x="380.2" y="121.18" width="1.55" height="52.62"/><rect class="cls-1" x="387.25" y="121.18" width="1.55" height="52.62"/><rect class="cls-1" x="398.86" y="121.18" width="1.55" height="52.62"/><rect class="cls-1" x="405.12" y="121.18" width="1.55" height="52.62"/><rect class="cls-1" x="409.29" y="121.18" width="1.55" height="52.62"/><rect class="cls-1" x="410.99" y="121.18" width="1.55" height="52.62"/><rect class="cls-1" x="426.91" y="121.18" width="1.55" height="52.62"/><rect class="cls-1" x="428.6" y="121.18" width="1.54" height="52.62"/><rect class="cls-1" x="436.3" y="121.18" width="1.55" height="52.62"/><rect class="cls-1" x="441.91" y="121.18" width="1.55" height="52.62"/><rect class="cls-1" x="448.57" y="121.18" width="1.55" height="52.62"/><rect class="cls-1" x="455.09" y="121.18" width="1.55" height="52.62"/><rect class="cls-1" x="457.3" y="121.18" width="1.55" height="52.62"/><rect class="cls-1" x="462.01" y="121.18" width="1.55" height="52.62"/><rect class="cls-1" x="466.18" y="121.18" width="1.54" height="52.62"/><rect class="cls-1" x="479.88" y="121.18" width="1.55" height="52.62"/><rect class="cls-1" x="483.79" y="121.18" width="1.55" height="52.62"/><rect class="cls-1" x="485.36" y="121.18" width="1.55" height="52.62"/><rect class="cls-1" x="495.01" y="121.18" width="1.55" height="52.62"/><rect class="cls-1" x="500.09" y="121.18" width="1.55" height="52.62"/><rect class="cls-1" x="504.66" y="121.18" width="1.55" height="52.62"/><rect class="cls-1" x="513.14" y="121.18" width="1.55" height="52.62"/><rect class="cls-1" x="530.5" y="121.18" width="1.55" height="52.62"/><rect class="cls-1" x="532.32" y="121.18" width="1.55" height="52.62"/><rect class="cls-1" x="536.36" y="121.18" width="1.55" height="52.62"/><rect class="cls-1" x="538.32" y="121.18" width="1.55" height="52.62"/><rect class="cls-1" x="539.89" y="121.18" width="1.55" height="52.62"/><rect class="cls-1" x="544.06" y="121.18" width="1.55" height="52.62"/><rect class="cls-1" x="553.85" y="121.18" width="1.55" height="52.62"/><rect class="cls-1" x="555.67" y="121.18" width="1.55" height="52.62"/><rect class="cls-1" x="557.24" y="121.18" width="1.55" height="52.62"/><rect class="cls-1" x="562.85" y="121.18" width="1.55" height="52.62"/><rect class="cls-1" x="565.98" y="121.18" width="1.55" height="52.62"/><rect class="cls-1" x="574.85" y="121.18" width="1.55" height="52.62"/><rect class="cls-1" x="576.68" y="121.18" width="1.54" height="52.62"/><rect class="cls-1" x="581.9" y="121.18" width="1.55" height="52.62"/><rect class="cls-1" x="583.85" y="121.18" width="1.55" height="52.62"/><rect class="cls-1" x="588.94" y="121.18" width="1.55" height="52.62"/><rect class="cls-1" x="596.64" y="121.18" width="1.55" height="52.62"/><rect class="cls-1" x="611.64" y="121.18" width="1.55" height="52.62"/><rect class="cls-1" x="634.6" y="121.18" width="1.55" height="52.62"/><rect class="cls-1" x="649.74" y="121.18" width="1.55" height="52.62"/><rect class="cls-1" x="654.05" y="121.18" width="1.55" height="52.62"/><rect class="cls-1" x="657.44" y="121.18" width="1.55" height="52.62"/><rect class="cls-1" x="660.83" y="121.18" width="1.55" height="52.62"/><rect class="cls-1" x="662.66" y="121.18" width="1.55" height="52.62"/><rect class="cls-1" x="665.26" y="121.18" width="1.55" height="52.62"/><rect class="cls-1" x="654.05" y="121.18" width="1.55" height="52.62"/><rect class="cls-1" x="655.74" y="121.18" width="1.55" height="52.62"/><rect class="cls-1" x="657.83" y="121.18" width="1.55" height="52.62"/><rect class="cls-1" x="665.65" y="121.18" width="1.55" height="52.62"/><rect class="cls-1" x="674.01" y="121.18" width="1.55" height="52.62"/><rect class="cls-1" x="683.27" y="121.18" width="1.55" height="52.62"/><rect class="cls-1" x="685.35" y="121.18" width="1.55" height="52.62"/><rect class="cls-1" x="687.18" y="121.18" width="1.54" height="52.62"/><rect class="cls-1" x="694.62" y="121.18" width="1.55" height="52.62"/><rect class="cls-1" x="699.84" y="121.18" width="1.55" height="52.62"/><rect class="cls-1" x="704.53" y="121.18" width="1.55" height="52.62"/><rect class="cls-1" x="709.75" y="121.18" width="1.55" height="52.62"/><rect class="cls-1" x="723.97" y="121.18" width="1.55" height="52.62"/><rect class="cls-1" x="726.19" y="121.18" width="1.54" height="52.62"/><rect class="cls-1" x="731.41" y="121.18" width="1.55" height="52.62"/><rect class="cls-1" x="742.76" y="121.18" width="1.54" height="52.62"/><rect class="cls-1" x="744.33" y="121.18" width="1.55" height="52.62"/><rect class="cls-1" x="759.46" y="121.18" width="1.55" height="52.62"/><rect class="cls-1" x="761.16" y="121.18" width="1.55" height="52.62"/><rect class="cls-1" x="762.85" y="121.18" width="1.55" height="52.62"/><rect class="cls-1" x="765.46" y="121.18" width="1.55" height="52.62"/><rect class="cls-1" x="782.55" y="121.18" width="1.55" height="52.62"/><rect class="cls-1" x="784.11" y="121.18" width="1.55" height="52.62"/><rect class="cls-1" x="788.03" y="121.18" width="1.55" height="52.62"/><rect class="cls-1" x="790.12" y="121.18" width="1.55" height="52.62"/><rect class="cls-1" x="800.56" y="121.18" width="1.55" height="52.62"/><rect class="cls-1" x="805.12" y="121.18" width="1.55" height="52.62"/><rect class="cls-1" x="806.69" y="121.18" width="1.55" height="52.62"/><rect class="cls-1" x="814.78" y="121.18" width="1.55" height="52.62"/><rect class="cls-1" x="816.86" y="121.18" width="1.54" height="52.62"/><rect class="cls-1" x="822.22" y="121.18" width="1.55" height="52.62"/><rect class="cls-1" x="833.17" y="121.18" width="1.55" height="52.62"/><rect class="cls-1" x="835.52" y="121.18" width="1.55" height="52.62"/><rect class="cls-1" x="837.47" y="121.18" width="1.55" height="52.62"/><rect class="cls-1" x="849.35" y="121.18" width="1.55" height="52.62"/><rect class="cls-1" x="856.91" y="121.18" width="1.55" height="52.62"/><rect class="cls-1" x="858.48" y="121.18" width="1.55" height="52.62"/><rect class="cls-1" x="864.09" y="121.18" width="1.55" height="52.62"/><rect class="cls-1" x="865.66" y="121.18" width="1.55" height="52.62"/><rect class="cls-1" x="870.48" y="121.18" width="1.55" height="52.62"/><rect class="cls-1" x="877.27" y="121.18" width="1.54" height="52.62"/><rect class="cls-1" x="878.83" y="121.18" width="1.55" height="52.62"/><rect class="cls-1" x="880.66" y="121.18" width="1.55" height="52.62"/><rect class="cls-1" x="882.22" y="121.18" width="1.55" height="52.62"/><rect class="cls-1" x="892.14" y="121.18" width="1.55" height="52.62"/><rect class="cls-1" x="909.49" y="121.18" width="1.55" height="52.62"/><rect class="cls-1" x="912.23" y="121.18" width="1.55" height="52.62"/><rect class="cls-1" x="914.71" y="121.18" width="1.54" height="52.62"/><rect class="cls-1" x="916.41" y="121.18" width="1.55" height="52.62"/><rect class="cls-1" x="918.76" y="121.18" width="1.55" height="52.62"/><rect class="cls-1" x="936.5" y="121.18" width="1.55" height="52.62"/><rect class="cls-1" x="942.37" y="121.18" width="1.54" height="52.62"/><rect class="cls-1" x="952.42" y="121.18" width="1.55" height="52.62"/><rect class="cls-1" x="954.11" y="121.18" width="1.55" height="52.62"/><rect class="cls-1" x="956.72" y="121.18" width="1.55" height="52.62"/><rect class="cls-1" x="959.46" y="121.18" width="1.54" height="52.62"/><rect class="cls-1" x="970.03" y="121.18" width="1.55" height="52.62"/><rect class="cls-1" x="981.38" y="121.18" width="1.55" height="52.62"/><rect class="cls-1" x="991.03" y="121.18" width="1.55" height="52.62"/><rect class="cls-1" x="1001.73" y="121.18" width="1.54" height="52.62"/><rect class="cls-1" x="1011.65" y="121.18" width="1.55" height="52.62"/><rect class="cls-1" x="1013.48" y="121.18" width="1.54" height="52.62"/><rect class="cls-1" x="1015.95" y="121.18" width="1.55" height="52.62"/><rect class="cls-1" x="301.79" y="68.57" width="1.55" height="52.62"/><rect class="cls-1" x="304.14" y="68.57" width="1.55" height="52.62"/><rect class="cls-1" x="306.75" y="68.57" width="1.55" height="52.62"/><rect class="cls-1" x="313.01" y="68.57" width="1.55" height="52.62"/><rect class="cls-1" x="317.97" y="68.57" width="1.55" height="52.62"/><rect class="cls-1" x="320.32" y="68.57" width="1.55" height="52.62"/><rect class="cls-1" x="323.84" y="68.57" width="1.55" height="52.62"/><rect class="cls-1" x="326.84" y="68.57" width="1.55" height="52.62"/><rect class="cls-1" x="331.15" y="68.57" width="1.54" height="52.62"/><rect class="cls-1" x="340.28" y="68.57" width="1.55" height="52.62"/><rect class="cls-1" x="346.41" y="68.57" width="1.55" height="52.62"/><rect class="cls-1" x="348.23" y="68.57" width="1.55" height="52.62"/><rect class="cls-1" x="352.15" y="68.57" width="1.55" height="52.62"/><rect class="cls-1" x="353.72" y="68.57" width="1.55" height="52.62"/><rect class="cls-1" x="358.94" y="68.57" width="1.55" height="52.62"/><rect class="cls-1" x="363.89" y="68.57" width="1.55" height="52.62"/><rect class="cls-1" x="365.46" y="68.57" width="1.55" height="52.62"/><rect class="cls-1" x="367.02" y="68.57" width="1.55" height="52.62"/><rect class="cls-1" x="372.5" y="68.57" width="1.55" height="52.62"/><rect class="cls-1" x="377.59" y="68.57" width="1.55" height="52.62"/><rect class="cls-1" x="395.59" y="68.57" width="1.55" height="52.62"/><rect class="cls-1" x="398.08" y="68.57" width="1.55" height="52.62"/><rect class="cls-1" x="401.86" y="68.57" width="1.55" height="52.62"/><rect class="cls-1" x="406.42" y="68.57" width="1.55" height="52.62"/><rect class="cls-1" x="408.51" y="68.57" width="1.55" height="52.62"/><rect class="cls-1" x="417.64" y="68.57" width="1.55" height="52.62"/><rect class="cls-1" x="419.21" y="68.57" width="1.55" height="52.62"/><rect class="cls-1" x="423.52" y="68.57" width="1.55" height="52.62"/><rect class="cls-1" x="425.08" y="68.57" width="1.55" height="52.62"/><rect class="cls-1" x="433.17" y="68.57" width="1.55" height="52.62"/><rect class="cls-1" x="435.25" y="68.57" width="1.55" height="52.62"/><rect class="cls-1" x="440.21" y="68.57" width="1.55" height="52.62"/><rect class="cls-1" x="442.3" y="68.57" width="1.55" height="52.62"/><rect class="cls-1" x="443.87" y="68.57" width="1.55" height="52.62"/><rect class="cls-1" x="445.56" y="68.57" width="1.55" height="52.62"/><rect class="cls-1" x="447.13" y="68.57" width="1.55" height="52.62"/><rect class="cls-1" x="449.6" y="68.57" width="1.55" height="52.62"/><rect class="cls-1" x="451.3" y="68.57" width="1.55" height="52.62"/><rect class="cls-1" x="459.65" y="68.57" width="1.55" height="52.62"/><rect class="cls-1" x="465.65" y="68.57" width="1.55" height="52.62"/><rect class="cls-1" x="467.22" y="68.57" width="1.54" height="52.62"/><rect class="cls-1" x="471.92" y="68.57" width="1.55" height="52.62"/><rect class="cls-1" x="475.31" y="68.57" width="1.55" height="52.62"/><rect class="cls-1" x="487.57" y="68.57" width="1.55" height="52.62"/><rect class="cls-1" x="489.14" y="68.57" width="1.55" height="52.62"/><rect class="cls-1" x="493.83" y="68.57" width="1.55" height="52.62"/><rect class="cls-1" x="495.67" y="68.57" width="1.55" height="52.62"/><rect class="cls-1" x="497.23" y="68.57" width="1.55" height="52.62"/><rect class="cls-1" x="499.44" y="68.57" width="1.55" height="52.62"/><rect class="cls-1" x="501.14" y="68.57" width="1.55" height="52.62"/><rect class="cls-1" x="504.01" y="68.57" width="1.54" height="52.62"/><rect class="cls-1" x="507.79" y="68.57" width="1.54" height="52.62"/><rect class="cls-1" x="512.49" y="68.57" width="1.55" height="52.62"/><rect class="cls-1" x="519.93" y="68.57" width="1.55" height="52.62"/><rect class="cls-1" x="521.49" y="68.57" width="1.55" height="52.62"/><rect class="cls-1" x="535.45" y="68.57" width="1.55" height="52.62"/><rect class="cls-1" x="544.72" y="68.57" width="1.55" height="52.62"/><rect class="cls-1" x="559.85" y="68.57" width="1.55" height="52.62"/><rect class="cls-1" x="561.55" y="68.57" width="1.55" height="52.62"/><rect class="cls-1" x="566.37" y="68.57" width="1.55" height="52.62"/><rect class="cls-1" x="569.76" y="68.57" width="1.55" height="52.62"/><rect class="cls-1" x="577.33" y="68.57" width="1.55" height="52.62"/><rect class="cls-1" x="582.55" y="68.57" width="1.55" height="52.62"/><rect class="cls-1" x="612.03" y="68.57" width="1.55" height="52.62"/><rect class="cls-1" x="613.73" y="68.57" width="1.55" height="52.62"/><rect class="cls-1" x="615.56" y="68.57" width="1.55" height="52.62"/><rect class="cls-1" x="617.38" y="68.57" width="1.55" height="52.62"/><rect class="cls-1" x="621.82" y="68.57" width="1.55" height="52.62"/><rect class="cls-1" x="623.78" y="68.57" width="1.54" height="52.62"/><rect class="cls-1" x="626.78" y="68.57" width="1.55" height="52.62"/><rect class="cls-1" x="628.35" y="68.57" width="1.55" height="52.62"/><rect class="cls-1" x="635.65" y="68.57" width="1.55" height="52.62"/><rect class="cls-1" x="637.35" y="68.57" width="1.55" height="52.62"/><rect class="cls-1" x="640.48" y="68.57" width="1.55" height="52.62"/><rect class="cls-1" x="642.7" y="68.57" width="1.55" height="52.62"/><rect class="cls-1" x="648.44" y="68.57" width="1.55" height="52.62"/><rect class="cls-1" x="650.26" y="68.57" width="1.55" height="52.62"/><rect class="cls-1" x="654.44" y="68.57" width="1.55" height="52.62"/><rect class="cls-1" x="656.13" y="68.57" width="1.54" height="52.62"/><rect class="cls-1" x="658.61" y="68.57" width="1.55" height="52.62"/><rect class="cls-1" x="660.31" y="68.57" width="1.54" height="52.62"/><rect class="cls-1" x="664.22" y="68.57" width="1.55" height="52.62"/><rect class="cls-1" x="670.48" y="68.57" width="1.55" height="52.62"/><rect class="cls-1" x="659.39" y="68.57" width="1.55" height="52.62"/><rect class="cls-1" x="671.01" y="68.57" width="1.55" height="52.62"/><rect class="cls-1" x="674.66" y="68.57" width="1.55" height="52.62"/><rect class="cls-1" x="678.7" y="68.57" width="1.54" height="52.62"/><rect class="cls-1" x="683.92" y="68.57" width="1.55" height="52.62"/><rect class="cls-1" x="705.32" y="68.57" width="1.55" height="52.62"/><rect class="cls-1" x="712.23" y="68.57" width="1.55" height="52.62"/><rect class="cls-1" x="713.93" y="68.57" width="1.55" height="52.62"/><rect class="cls-1" x="732.06" y="68.57" width="1.55" height="52.62"/><rect class="cls-1" x="733.63" y="68.57" width="1.55" height="52.62"/><rect class="cls-1" x="749.54" y="68.57" width="1.55" height="52.62"/><rect class="cls-1" x="756.72" y="68.57" width="1.55" height="52.62"/><rect class="cls-1" x="766.64" y="68.57" width="1.55" height="52.62"/><rect class="cls-1" x="776.16" y="68.57" width="1.55" height="52.62"/><rect class="cls-1" x="778.38" y="68.57" width="1.55" height="52.62"/><rect class="cls-1" x="780.2" y="68.57" width="1.55" height="52.62"/><rect class="cls-1" x="787.38" y="68.57" width="1.55" height="52.62"/><rect class="cls-1" x="791.29" y="68.57" width="1.55" height="52.62"/><rect class="cls-1" x="793.51" y="68.57" width="1.55" height="52.62"/><rect class="cls-1" x="795.08" y="68.57" width="1.55" height="52.62"/><rect class="cls-1" x="796.77" y="68.57" width="1.55" height="52.62"/><rect class="cls-1" x="809.82" y="68.57" width="1.54" height="52.62"/><rect class="cls-1" x="811.51" y="68.57" width="1.55" height="52.62"/><rect class="cls-1" x="815.3" y="68.57" width="1.55" height="52.62"/><rect class="cls-1" x="818.82" y="68.57" width="1.55" height="52.62"/><rect class="cls-1" x="820.52" y="68.57" width="1.55" height="52.62"/><rect class="cls-1" x="828.08" y="68.57" width="1.55" height="52.62"/><rect class="cls-1" x="833.96" y="68.57" width="1.55" height="52.62"/><rect class="cls-1" x="849.74" y="68.57" width="1.55" height="52.62"/><rect class="cls-1" x="854.04" y="68.57" width="1.55" height="52.62"/><rect class="cls-1" x="855.88" y="68.57" width="1.55" height="52.62"/><rect class="cls-1" x="860.18" y="68.57" width="1.54" height="52.62"/><rect class="cls-1" x="869.18" y="68.57" width="1.55" height="52.62"/><rect class="cls-1" x="871.01" y="68.57" width="1.55" height="52.62"/><rect class="cls-1" x="872.83" y="68.57" width="1.54" height="52.62"/><rect class="cls-1" x="879.62" y="68.57" width="1.55" height="52.62"/><rect class="cls-1" x="888.62" y="68.57" width="1.55" height="52.62"/><rect class="cls-1" x="893.05" y="68.57" width="1.55" height="52.62"/><rect class="cls-1" x="894.62" y="68.57" width="1.55" height="52.62"/><rect class="cls-1" x="896.84" y="68.57" width="1.55" height="52.62"/><rect class="cls-1" x="898.8" y="68.57" width="1.55" height="52.62"/><rect class="cls-1" x="907.93" y="68.57" width="1.55" height="52.62"/><rect class="cls-1" x="911.06" y="68.57" width="1.55" height="52.62"/><rect class="cls-1" x="921.89" y="68.57" width="1.55" height="52.62"/><rect class="cls-1" x="923.71" y="68.57" width="1.55" height="52.62"/><rect class="cls-1" x="925.8" y="68.57" width="1.55" height="52.62"/><rect class="cls-1" x="927.5" y="68.57" width="1.55" height="52.62"/><rect class="cls-1" x="936.76" y="68.57" width="1.55" height="52.62"/><rect class="cls-1" x="944.33" y="68.57" width="1.55" height="52.62"/><rect class="cls-1" x="945.89" y="68.57" width="1.55" height="52.62"/><rect class="cls-1" x="947.59" y="68.57" width="1.55" height="52.62"/><rect class="cls-1" x="949.81" y="68.57" width="1.55" height="52.62"/><rect class="cls-1" x="951.51" y="68.57" width="1.55" height="52.62"/><rect class="cls-1" x="957.63" y="68.57" width="1.55" height="52.62"/><rect class="cls-1" x="959.98" y="68.57" width="1.55" height="52.62"/><rect class="cls-1" x="966.38" y="68.57" width="1.54" height="52.62"/><rect class="cls-1" x="968.07" y="68.57" width="1.55" height="52.62"/><rect class="cls-1" x="971.47" y="68.57" width="1.54" height="52.62"/><rect class="cls-1" x="973.55" y="68.57" width="1.55" height="52.62"/><rect class="cls-1" x="976.03" y="68.57" width="1.55" height="52.62"/><rect class="cls-1" x="977.99" y="68.57" width="1.55" height="52.62"/><rect class="cls-1" x="991.56" y="68.57" width="1.55" height="52.62"/><rect class="cls-1" x="993.38" y="68.57" width="1.55" height="52.62"/><rect class="cls-1" x="1002.78" y="68.57" width="1.55" height="52.62"/><rect class="cls-1" x="1005.91" y="68.57" width="1.55" height="52.62"/><rect class="cls-1" x="1007.6" y="68.57" width="1.55" height="52.62"/><rect class="cls-1" x="1009.43" y="68.57" width="1.55" height="52.62"/><rect class="cls-1" x="1020.91" y="68.57" width="1.54" height="52.62"/><rect class="cls-1" x="1022.99" y="68.57" width="1.55" height="52.62"/><path class="cls-2" d="M513.82,84.86a10.43,10.43,0,1,0,10.43-10.43A10.43,10.43,0,0,0,513.82,84.86Z"/><polygon class="cls-2" points="525.68 121.19 522.74 121.19 522.74 92.55 525.68 92.55 525.68 121.19 525.68 121.19"/><polygon class="cls-3" points="524.21 103.91 513.27 121.19 535.15 121.19 524.21 103.91"/><path class="cls-2" d="M706,84.86a10.43,10.43,0,1,0,10.43-10.43A10.43,10.43,0,0,0,706,84.86Z"/><polygon class="cls-2" points="717.86 121.19 714.92 121.19 714.92 92.55 717.86 92.55 717.86 121.19 717.86 121.19"/><polygon class="cls-3" points="716.39 103.91 705.45 121.19 727.33 121.19 716.39 103.91"/><path class="cls-2" d="M725.43,84.86a10.43,10.43,0,1,0,10.43-10.43A10.43,10.43,0,0,0,725.43,84.86Z"/><polygon class="cls-2" points="737.29 121.19 734.35 121.19 734.35 92.55 737.29 92.55 737.29 121.19 737.29 121.19"/><polygon class="cls-3" points="735.82 103.91 724.89 121.19 746.76 121.19 735.82 103.91"/><path class="cls-2" d="M758.7,84.86a10.43,10.43,0,1,0,10.43-10.43A10.43,10.43,0,0,0,758.7,84.86Z"/><polygon class="cls-2" points="770.57 121.19 767.63 121.19 767.63 92.55 770.57 92.55 770.57 121.19 770.57 121.19"/><polygon class="cls-3" points="769.1 103.91 758.16 121.19 780.03 121.19 769.1 103.91"/><path class="cls-2" d="M919.69,84.86a10.43,10.43,0,1,0,10.42-10.43A10.42,10.42,0,0,0,919.69,84.86Z"/><polygon class="cls-2" points="931.56 121.19 928.62 121.19 928.62 92.55 931.56 92.55 931.56 121.19 931.56 121.19"/><polygon class="cls-3" points="930.09 103.91 919.15 121.19 941.03 121.19 930.09 103.91"/><path class="cls-2" d="M973.44,84.86a10.43,10.43,0,1,0,10.43-10.43A10.43,10.43,0,0,0,973.44,84.86Z"/><polygon class="cls-2" points="985.31 121.19 982.37 121.19 982.37 92.55 985.31 92.55 985.31 121.19 985.31 121.19"/><polygon class="cls-3" points="983.84 103.91 972.9 121.19 994.78 121.19 983.84 103.91"/><path class="cls-2" d="M985.06,84.86a10.43,10.43,0,1,0,10.43-10.43A10.43,10.43,0,0,0,985.06,84.86Z"/><polygon class="cls-2" points="996.92 121.19 993.98 121.19 993.98 92.55 996.92 92.55 996.92 121.19 996.92 121.19"/><polygon class="cls-3" points="995.45 103.91 984.51 121.19 1006.39 121.19 995.45 103.91"/><polygon class="cls-3" points="383.44 156.53 372.5 173.8 394.38 173.8 383.44 156.53"/><polygon class="cls-3" points="322.65 103.91 311.71 121.19 333.59 121.19 322.65 103.91"/><polygon class="cls-3" points="335.04 103.91 324.1 121.19 345.98 121.19 335.04 103.91"/><polygon class="cls-3" points="354.09 103.91 343.15 121.19 365.03 121.19 354.09 103.91"/><polygon class="cls-3" points="404.32 103.91 393.38 121.19 415.26 121.19 404.32 103.91"/><polygon class="cls-3" points="422.58 103.91 411.64 121.19 433.52 121.19 422.58 103.91"/><polygon class="cls-3" points="477.38 103.91 466.43 121.19 488.32 121.19 477.38 103.91"/><polygon class="cls-3" points="491.34 103.91 480.39 121.19 502.28 121.19 491.34 103.91"/><polygon class="cls-3" points="501.26 103.91 490.31 121.19 512.19 121.19 501.26 103.91"/><polygon class="cls-3" points="573.53 103.91 562.59 121.19 584.47 121.19 573.53 103.91"/><polygon class="cls-3" points="631.46 103.91 620.51 121.19 642.39 121.19 631.46 103.91"/><polygon class="cls-3" points="643.2 103.91 632.26 121.19 654.14 121.19 643.2 103.91"/><polygon class="cls-3" points="662.64 103.91 651.69 121.19 673.58 121.19 662.64 103.91"/><polygon class="cls-3" points="676.33 103.91 665.39 121.19 687.27 121.19 676.33 103.91"/><polygon class="cls-3" points="680.9 103.91 669.96 121.19 691.84 121.19 680.9 103.91"/><polygon class="cls-3" points="708.17 103.91 697.23 121.19 719.1 121.19 708.17 103.91"/><polygon class="cls-3" points="799.88 103.91 788.94 121.19 810.82 121.19 799.88 103.91"/><polygon class="cls-3" points="831.06 103.91 820.13 121.19 842.01 121.19 831.06 103.91"/><polygon class="cls-3" points="863.16 103.91 852.22 121.19 874.09 121.19 863.16 103.91"/><polygon class="cls-3" points="851.94 103.91 841 121.19 862.88 121.19 851.94 103.91"/><polygon class="cls-3" points="979.64 103.91 968.69 121.19 990.57 121.19 979.64 103.91"/><polygon class="cls-3" points="1007.07 103.91 996.12 121.19 1018 121.19 1007.07 103.91"/><polygon class="cls-3" points="393.36 156.53 382.42 173.8 404.3 173.8 393.36 156.53"/><polygon class="cls-3" points="439.02 156.53 428.08 173.8 449.96 173.8 439.02 156.53"/><polygon class="cls-3" points="435.63 156.53 424.69 173.8 446.57 173.8 435.63 156.53"/><polygon class="cls-3" points="464.59 156.53 453.65 173.8 475.53 173.8 464.59 156.53"/><polygon class="cls-3" points="483.25 156.53 472.31 173.8 494.19 173.8 483.25 156.53"/><polygon class="cls-3" points="607.72 156.53 596.77 173.8 618.65 173.8 607.72 156.53"/><polygon class="cls-3" points="668.9 156.53 657.96 173.8 679.84 173.8 668.9 156.53"/><polygon class="cls-3" points="696.3 156.53 685.35 173.8 707.24 173.8 696.3 156.53"/><polygon class="cls-3" points="728.65 156.53 717.71 173.8 739.59 173.8 728.65 156.53"/><polygon class="cls-3" points="803.28 156.53 792.34 173.8 814.22 173.8 803.28 156.53"/><polygon class="cls-3" points="808.63 156.53 797.69 173.8 819.56 173.8 808.63 156.53"/><polygon class="cls-3" points="839.67 156.53 828.74 173.8 850.62 173.8 839.67 156.53"/><polygon class="cls-3" points="867.99 156.53 857.05 173.8 878.92 173.8 867.99 156.53"/><polygon class="cls-3" points="921.61 156.53 910.67 173.8 932.55 173.8 921.61 156.53"/><path class="cls-3" d="M190.35,121.55V110.19h4.77a3.15,3.15,0,0,1,1.42.32,3.63,3.63,0,0,1,1.11.84,4,4,0,0,1,.73,1.18,3.64,3.64,0,0,1,.26,1.35,3.92,3.92,0,0,1-.25,1.38,3.88,3.88,0,0,1-.7,1.18,3.38,3.38,0,0,1-1.08.83,3.12,3.12,0,0,1-1.4.31h-3.07v4Zm1.79-5.54h3a1.5,1.5,0,0,0,.7-.16,1.61,1.61,0,0,0,.54-.45,2.26,2.26,0,0,0,.35-.67,2.68,2.68,0,0,0,.13-.85,2.45,2.45,0,0,0-.14-.86,2,2,0,0,0-.4-.66,1.84,1.84,0,0,0-.58-.43,1.61,1.61,0,0,0-.68-.15h-2.86Z"/><path class="cls-3" d="M205,121.63a5,5,0,0,1-2.22-.49,5.51,5.51,0,0,1-1.72-1.3A5.85,5.85,0,0,1,200,118a6,6,0,0,1-.39-2.13,5.81,5.81,0,0,1,.42-2.18,6,6,0,0,1,1.14-1.84,5.45,5.45,0,0,1,1.73-1.27,5,5,0,0,1,2.18-.47,4.86,4.86,0,0,1,2.22.5,5.58,5.58,0,0,1,1.71,1.32,6.06,6.06,0,0,1,1.1,1.85,5.92,5.92,0,0,1,0,4.28,5.75,5.75,0,0,1-1.14,1.83,5.62,5.62,0,0,1-1.74,1.26A5,5,0,0,1,205,121.63Zm-3.62-5.76a4.78,4.78,0,0,0,.26,1.55,4.21,4.21,0,0,0,.73,1.33,3.56,3.56,0,0,0,1.14.92,3.25,3.25,0,0,0,1.5.34,3.15,3.15,0,0,0,1.53-.36,3.6,3.6,0,0,0,1.13-1,4.28,4.28,0,0,0,.7-1.33,4.82,4.82,0,0,0,.24-1.5,4.77,4.77,0,0,0-.26-1.56,4.14,4.14,0,0,0-.73-1.31,3.63,3.63,0,0,0-1.14-.91,3.17,3.17,0,0,0-1.48-.34,3.21,3.21,0,0,0-1.54.36,3.67,3.67,0,0,0-1.14.94,4.2,4.2,0,0,0-.71,1.32A4.75,4.75,0,0,0,201.42,115.87Z"/><path class="cls-3" d="M212.35,121.55V110.19h4.94a3.15,3.15,0,0,1,1.42.32,3.64,3.64,0,0,1,1.11.84,4,4,0,0,1,.73,1.18,3.64,3.64,0,0,1,.26,1.35,3.79,3.79,0,0,1-.16,1.1,3.88,3.88,0,0,1-.45,1,3.15,3.15,0,0,1-.7.78,2.9,2.9,0,0,1-.91.49l2.67,4.32h-2l-2.46-4h-2.62v4Zm1.79-5.54h3.14a1.44,1.44,0,0,0,.7-.17,1.65,1.65,0,0,0,.54-.46,2.34,2.34,0,0,0,.35-.68,2.56,2.56,0,0,0,.13-.82,2.2,2.2,0,0,0-.15-.82,2.35,2.35,0,0,0-.4-.67,1.89,1.89,0,0,0-.58-.46,1.47,1.47,0,0,0-.68-.17h-3Z"/><path class="cls-3" d="M231.08,111.78h-3.78v9.78H225.5v-9.78h-3.79v-1.58h9.38Z"/><path class="cls-3" d="M237.34,120a2.87,2.87,0,0,0,1.49-.35,2.81,2.81,0,0,0,1-.92,3.87,3.87,0,0,0,.51-1.3,7.28,7.28,0,0,0,.15-1.5v-5.76h1.81V116a8.59,8.59,0,0,1-.27,2.2,5.08,5.08,0,0,1-.86,1.81,4.12,4.12,0,0,1-1.53,1.22,5.17,5.17,0,0,1-2.25.45,5.06,5.06,0,0,1-2.3-.47,4.13,4.13,0,0,1-1.51-1.26,5.19,5.19,0,0,1-.83-1.82,8.72,8.72,0,0,1-.26-2.13v-5.76h1.79V116a7.36,7.36,0,0,0,.15,1.51,3.87,3.87,0,0,0,.51,1.3,2.71,2.71,0,0,0,1,.91A2.93,2.93,0,0,0,237.34,120Z"/><path class="cls-3" d="M252.59,120.15a4.48,4.48,0,0,1-3.31,1.49,4.78,4.78,0,0,1-2.11-.47,5.44,5.44,0,0,1-1.7-1.27,6,6,0,0,1-1.13-1.86,6.07,6.07,0,0,1-.41-2.21,6,6,0,0,1,.41-2.19,5.8,5.8,0,0,1,1.13-1.82,5.3,5.3,0,0,1,1.71-1.24,5.61,5.61,0,0,1,4.9.22,4.39,4.39,0,0,1,1.66,1.8l-1.38,1a3.19,3.19,0,0,0-1.28-1.39,3.56,3.56,0,0,0-1.79-.46,3.08,3.08,0,0,0-1.46.34,3.58,3.58,0,0,0-1.12.91,4.09,4.09,0,0,0-.71,1.32,5,5,0,0,0-.25,1.57,4.59,4.59,0,0,0,.28,1.62,4.2,4.2,0,0,0,.77,1.31,3.64,3.64,0,0,0,1.16.89,3.27,3.27,0,0,0,1.46.33,3.63,3.63,0,0,0,1.66-.4,4.86,4.86,0,0,0,1.51-1.26v-1.22H250.2v-1.33h3.89v5.74h-1.5Z"/><path class="cls-3" d="M259.48,110.19h1.57l4.48,11.36h-1.89l-1.2-3.09h-4.38l-1.18,3.09H255Zm2.61,6.94-1.82-4.88-1.89,4.88Z"/><path class="cls-3" d="M266.94,121.55V110.19h1.79V120h6.1v1.58Z"/><path class="cls-3" d="M164.73,165.8v8h-1.79V162.44h1.41l6.5,8.19v-8.18h1.81V173.8h-1.49Z"/><path class="cls-3" d="M179.93,173.88a5,5,0,0,1-2.22-.49,5.51,5.51,0,0,1-1.72-1.3,5.85,5.85,0,0,1-1.11-1.85,6,6,0,0,1-.39-2.13,5.81,5.81,0,0,1,.42-2.18,6,6,0,0,1,1.14-1.84,5.45,5.45,0,0,1,1.73-1.27,5,5,0,0,1,2.18-.47,4.86,4.86,0,0,1,2.22.5,5.58,5.58,0,0,1,1.71,1.32A6.06,6.06,0,0,1,185,166a5.92,5.92,0,0,1,0,4.28,5.75,5.75,0,0,1-1.14,1.83,5.62,5.62,0,0,1-1.74,1.26A5,5,0,0,1,179.93,173.88Zm-3.62-5.76a4.78,4.78,0,0,0,.26,1.55,4.21,4.21,0,0,0,.73,1.33,3.56,3.56,0,0,0,1.14.92,3.25,3.25,0,0,0,1.5.34,3.15,3.15,0,0,0,1.53-.36,3.6,3.6,0,0,0,1.13-1,4.28,4.28,0,0,0,.7-1.33,4.82,4.82,0,0,0,.24-1.5,4.77,4.77,0,0,0-.26-1.56,4.14,4.14,0,0,0-.73-1.31,3.63,3.63,0,0,0-1.14-.91,3.17,3.17,0,0,0-1.48-.34,3.21,3.21,0,0,0-1.54.36,3.67,3.67,0,0,0-1.14.94,4.2,4.2,0,0,0-.71,1.32A4.75,4.75,0,0,0,176.32,168.12Z"/><path class="cls-3" d="M187.24,173.8V162.44h4.94a3.15,3.15,0,0,1,1.42.32,3.64,3.64,0,0,1,1.11.84,4,4,0,0,1,.73,1.18,3.64,3.64,0,0,1,.26,1.35,3.79,3.79,0,0,1-.16,1.1,3.88,3.88,0,0,1-.45,1,3.15,3.15,0,0,1-.7.78,2.9,2.9,0,0,1-.91.49l2.67,4.32h-2l-2.46-4H189v4Zm1.79-5.54h3.14a1.44,1.44,0,0,0,.7-.17,1.65,1.65,0,0,0,.54-.46,2.34,2.34,0,0,0,.35-.68,2.56,2.56,0,0,0,.13-.82,2.2,2.2,0,0,0-.15-.82,2.35,2.35,0,0,0-.4-.67,1.89,1.89,0,0,0-.58-.46,1.47,1.47,0,0,0-.68-.17h-3Z"/><path class="cls-3" d="M206,164H202.2v9.78H200.4V164H196.6v-1.58H206Z"/><path class="cls-3" d="M216.83,162.44V173.8H215v-5h-5.73v5H207.5V162.44h1.79v4.75H215v-4.75Z"/><path class="cls-3" d="M223.34,173.8V162.46h1.79v5.84l5.34-5.86h2l-4.48,5,4.74,6.34h-2l-3.84-5.23-1.74,1.81v3.42Z"/><path class="cls-3" d="M238,173.88a5,5,0,0,1-2.22-.49,5.51,5.51,0,0,1-1.72-1.3,5.85,5.85,0,0,1-1.11-1.85,6,6,0,0,1-.39-2.13,5.81,5.81,0,0,1,.42-2.18,6,6,0,0,1,1.14-1.84,5.45,5.45,0,0,1,1.73-1.27,5,5,0,0,1,2.18-.47,4.86,4.86,0,0,1,2.22.5,5.58,5.58,0,0,1,1.71,1.32,6.06,6.06,0,0,1,1.1,1.85,5.92,5.92,0,0,1,0,4.28,5.75,5.75,0,0,1-1.14,1.83,5.62,5.62,0,0,1-1.74,1.26A5,5,0,0,1,238,173.88Zm-3.62-5.76a4.78,4.78,0,0,0,.26,1.55,4.21,4.21,0,0,0,.73,1.33,3.56,3.56,0,0,0,1.14.92,3.25,3.25,0,0,0,1.5.34,3.15,3.15,0,0,0,1.53-.36,3.6,3.6,0,0,0,1.13-1,4.28,4.28,0,0,0,.7-1.33,4.82,4.82,0,0,0,.24-1.5,4.77,4.77,0,0,0-.26-1.56,4.14,4.14,0,0,0-.73-1.31,3.63,3.63,0,0,0-1.14-.91A3.17,3.17,0,0,0,238,164a3.21,3.21,0,0,0-1.54.36,3.67,3.67,0,0,0-1.14.94,4.2,4.2,0,0,0-.71,1.32A4.75,4.75,0,0,0,234.4,168.12Z"/><path class="cls-3" d="M245.32,173.8V162.44h4.94a3.15,3.15,0,0,1,1.42.32,3.64,3.64,0,0,1,1.11.84,4,4,0,0,1,.73,1.18,3.64,3.64,0,0,1,.26,1.35,3.79,3.79,0,0,1-.16,1.1,3.88,3.88,0,0,1-.45,1,3.15,3.15,0,0,1-.7.78,2.9,2.9,0,0,1-.91.49l2.67,4.32h-2l-2.46-4h-2.62v4Zm1.79-5.54h3.14a1.44,1.44,0,0,0,.7-.17,1.65,1.65,0,0,0,.54-.46,2.34,2.34,0,0,0,.35-.68,2.56,2.56,0,0,0,.13-.82,2.2,2.2,0,0,0-.15-.82,2.35,2.35,0,0,0-.4-.67,1.89,1.89,0,0,0-.58-.46,1.47,1.47,0,0,0-.68-.17h-3Z"/><path class="cls-3" d="M263.69,172.22v1.58H255.9V162.44h7.65V164h-5.86v3.23h5.07v1.49h-5.07v3.47Z"/><path class="cls-3" d="M268.89,162.44h1.57l4.48,11.36h-1.89l-1.2-3.09h-4.38l-1.18,3.09h-1.9Zm2.61,6.94-1.82-4.88-1.89,4.88Z"/><path class="cls-2" d="M1173.43,113.64a107.62,107.62,0,0,0-45.72-49.15A107,107,0,0,0,1015,70.57l-.63-.9a108.06,108.06,0,0,1,113.84-6.13,108.72,108.72,0,0,1,46.19,49.65Z"/><polygon class="cls-2" points="1012.79 64.82 1008.41 74.89 1019.32 73.65 1012.79 64.82"/><path class="cls-2" d="M1113.8,144.13V130H1116v7.3l6.68-7.32h2.48l-5.6,6.28,5.92,7.92H1123l-4.8-6.54-2.18,2.26v4.28Z"/><path class="cls-2" d="M1129.64,134.13v10h-2.24v-14.2h1.76l8.12,10.24V130h2.26v14.18h-1.86Z"/><path class="cls-2" d="M1149,144.23a6.23,6.23,0,0,1-2.77-.61,6.9,6.9,0,0,1-2.15-1.62,7.32,7.32,0,0,1-1.39-2.31,7.49,7.49,0,0,1-.49-2.66,7.25,7.25,0,0,1,.52-2.72,7.54,7.54,0,0,1,1.43-2.3,6.83,6.83,0,0,1,2.16-1.59,6.32,6.32,0,0,1,2.73-.59,6.07,6.07,0,0,1,2.77.63,7,7,0,0,1,2.14,1.65,7.6,7.6,0,0,1,1.38,2.31,7.41,7.41,0,0,1,0,5.35,7.18,7.18,0,0,1-1.43,2.29,7,7,0,0,1-2.17,1.58A6.27,6.27,0,0,1,1149,144.23Zm-4.52-7.2a6,6,0,0,0,.32,1.94,5.27,5.27,0,0,0,.91,1.66,4.44,4.44,0,0,0,1.43,1.15,4.06,4.06,0,0,0,1.88.43,3.94,3.94,0,0,0,1.91-.45,4.49,4.49,0,0,0,1.41-1.19,5.36,5.36,0,0,0,.88-1.66,6,6,0,0,0,.3-1.88,6,6,0,0,0-.32-1.95,5.19,5.19,0,0,0-.91-1.64,4.56,4.56,0,0,0-1.42-1.14,4,4,0,0,0-1.85-.43,4,4,0,0,0-1.92.45,4.57,4.57,0,0,0-1.42,1.17,5.24,5.24,0,0,0-.89,1.65A5.93,5.93,0,0,0,1144.52,137Z"/><path class="cls-2" d="M1157.68,136.93a7.43,7.43,0,0,1,.46-2.55,7,7,0,0,1,1.35-2.28,6.81,6.81,0,0,1,2.17-1.63,6.57,6.57,0,0,1,2.9-.62,6.15,6.15,0,0,1,3.32.86A5.59,5.59,0,0,1,1170,133l-1.76,1.18a4,4,0,0,0-.72-1.08,3.52,3.52,0,0,0-.92-.7,4,4,0,0,0-1-.37,5.22,5.22,0,0,0-1-.11,4.09,4.09,0,0,0-2,.45,4.35,4.35,0,0,0-1.41,1.19,5.31,5.31,0,0,0-.86,1.66A6.09,6.09,0,0,0,1160,137a5.78,5.78,0,0,0,.34,2,5.36,5.36,0,0,0,1,1.66,4.67,4.67,0,0,0,1.45,1.15,4,4,0,0,0,1.84.43,4.66,4.66,0,0,0,1.07-.13,4,4,0,0,0,1.06-.42,4.23,4.23,0,0,0,.94-.73,3.64,3.64,0,0,0,.71-1.06l1.86,1.06a4.35,4.35,0,0,1-1,1.41,6.12,6.12,0,0,1-1.4,1,7.16,7.16,0,0,1-1.65.64,7,7,0,0,1-1.71.22,5.88,5.88,0,0,1-2.74-.64,7.19,7.19,0,0,1-2.14-1.67,7.69,7.69,0,0,1-1.4-2.34A7.43,7.43,0,0,1,1157.68,136.93Z"/><path class="cls-2" d="M1172.66,144.13V130h2.24v7.3l6.68-7.32h2.48l-5.6,6.28,5.92,7.92h-2.5l-4.8-6.54-2.18,2.26v4.28Z"/><path class="cls-2" d="M1191.4,144.23a6.23,6.23,0,0,1-2.77-.61,6.9,6.9,0,0,1-2.15-1.62,7.32,7.32,0,0,1-1.39-2.31,7.49,7.49,0,0,1-.49-2.66,7.25,7.25,0,0,1,.52-2.72,7.54,7.54,0,0,1,1.43-2.3,6.83,6.83,0,0,1,2.16-1.59,6.32,6.32,0,0,1,2.73-.59,6.07,6.07,0,0,1,2.77.63,7,7,0,0,1,2.14,1.65,7.6,7.6,0,0,1,1.38,2.31,7.41,7.41,0,0,1,0,5.35,7.18,7.18,0,0,1-1.43,2.29,7,7,0,0,1-2.17,1.58A6.27,6.27,0,0,1,1191.4,144.23Zm-4.52-7.2a6,6,0,0,0,.32,1.94,5.27,5.27,0,0,0,.91,1.66,4.44,4.44,0,0,0,1.43,1.15,4.06,4.06,0,0,0,1.88.43,3.94,3.94,0,0,0,1.91-.45,4.49,4.49,0,0,0,1.41-1.19,5.36,5.36,0,0,0,.88-1.66,6,6,0,0,0,.3-1.88,6,6,0,0,0-.32-1.95,5.19,5.19,0,0,0-.91-1.64,4.56,4.56,0,0,0-1.42-1.14,4,4,0,0,0-1.85-.43,4,4,0,0,0-1.92.45,4.57,4.57,0,0,0-1.42,1.17,5.24,5.24,0,0,0-.89,1.65A5.93,5.93,0,0,0,1186.88,137Z"/><path class="cls-2" d="M1206.86,142.21a3.59,3.59,0,0,0,1.86-.44,3.51,3.51,0,0,0,1.19-1.15,4.84,4.84,0,0,0,.64-1.62,9.14,9.14,0,0,0,.19-1.87v-7.2H1213v7.2a10.76,10.76,0,0,1-.34,2.75,6.35,6.35,0,0,1-1.08,2.26,5.16,5.16,0,0,1-1.91,1.53,6.46,6.46,0,0,1-2.81.56,6.33,6.33,0,0,1-2.87-.59,5.17,5.17,0,0,1-1.89-1.58,6.48,6.48,0,0,1-1-2.27,10.9,10.9,0,0,1-.32-2.66v-7.2H1203v7.2a9.21,9.21,0,0,0,.19,1.89,4.83,4.83,0,0,0,.64,1.62,3.39,3.39,0,0,0,1.2,1.14A3.66,3.66,0,0,0,1206.86,142.21Z"/><path class="cls-2" d="M1226.8,131.91h-4.72v12.22h-2.26V131.91h-4.74v-2h11.72Z"/></svg>