<svg id="Layer_1" data-name="Layer 1" xmlns="http://www.w3.org/2000/svg" viewBox="0 0 1280 155"><defs><style>.cls-1{fill:#fdc659;}.cls-2{fill:#333132;}.cls-3{fill:#ee3e23;}</style></defs><title>yg-umbro-wireframes-170817-2130--slicing</title><rect class="cls-1" x="306.89" y="98.07" width="1.55" height="52.62"/><rect class="cls-1" x="314.45" y="98.07" width="1.55" height="52.62"/><rect class="cls-1" x="328.28" y="98.07" width="1.54" height="52.62"/><rect class="cls-1" x="330.1" y="98.07" width="1.55" height="52.62"/><rect class="cls-1" x="331.68" y="98.07" width="1.55" height="52.62"/><rect class="cls-1" x="339.37" y="98.07" width="1.55" height="52.62"/><rect class="cls-1" x="340.93" y="98.07" width="1.55" height="52.62"/><rect class="cls-1" x="348.24" y="98.07" width="1.55" height="52.62"/><rect class="cls-1" x="370.68" y="98.07" width="1.55" height="52.62"/><rect class="cls-1" x="372.25" y="98.07" width="1.54" height="52.62"/><rect class="cls-1" x="373.94" y="98.07" width="1.54" height="52.62"/><rect class="cls-1" x="377.86" y="98.07" width="1.55" height="52.62"/><rect class="cls-1" x="399.77" y="98.07" width="1.55" height="52.62"/><rect class="cls-1" x="403.95" y="98.07" width="1.54" height="52.62"/><rect class="cls-1" x="405.91" y="98.07" width="1.55" height="52.62"/><rect class="cls-1" x="409.3" y="98.07" width="1.55" height="52.62"/><rect class="cls-1" x="411.26" y="98.07" width="1.54" height="52.62"/><rect class="cls-1" x="413.08" y="98.07" width="1.55" height="52.62"/><rect class="cls-1" x="421.17" y="98.07" width="1.54" height="52.62"/><rect class="cls-1" x="427.3" y="98.07" width="1.55" height="52.62"/><rect class="cls-1" x="429.39" y="98.07" width="1.55" height="52.62"/><rect class="cls-1" x="434.08" y="98.07" width="1.55" height="52.62"/><rect class="cls-1" x="443.23" y="98.07" width="1.55" height="52.62"/><rect class="cls-1" x="444.79" y="98.07" width="1.54" height="52.62"/><rect class="cls-1" x="454.44" y="98.07" width="1.55" height="52.62"/><rect class="cls-1" x="456.14" y="98.07" width="1.55" height="52.62"/><rect class="cls-1" x="466.84" y="98.07" width="1.54" height="52.62"/><rect class="cls-1" x="470.62" y="98.07" width="1.54" height="52.62"/><rect class="cls-1" x="472.32" y="98.07" width="1.55" height="52.62"/><rect class="cls-1" x="473.88" y="98.07" width="1.55" height="52.62"/><rect class="cls-1" x="481.71" y="98.07" width="1.55" height="52.62"/><rect class="cls-1" x="485.5" y="98.07" width="1.54" height="52.62"/><rect class="cls-1" x="492.27" y="98.07" width="1.55" height="52.62"/><rect class="cls-1" x="500.75" y="98.07" width="1.55" height="52.62"/><rect class="cls-1" x="508.19" y="98.07" width="1.54" height="52.62"/><rect class="cls-1" x="511.32" y="98.07" width="1.54" height="52.62"/><rect class="cls-1" x="513.02" y="98.07" width="1.55" height="52.62"/><rect class="cls-1" x="518.24" y="98.07" width="1.55" height="52.62"/><rect class="cls-1" x="520.59" y="98.07" width="1.55" height="52.62"/><rect class="cls-1" x="522.67" y="98.07" width="1.54" height="52.62"/><rect class="cls-1" x="525.93" y="98.07" width="1.54" height="52.62"/><rect class="cls-1" x="550.34" y="98.07" width="1.55" height="52.62"/><rect class="cls-1" x="552.55" y="98.07" width="1.55" height="52.62"/><rect class="cls-1" x="554.24" y="98.07" width="1.55" height="52.62"/><rect class="cls-1" x="561.68" y="98.07" width="1.55" height="52.62"/><rect class="cls-1" x="563.25" y="98.07" width="1.55" height="52.62"/><rect class="cls-1" x="565.85" y="98.07" width="1.55" height="52.62"/><rect class="cls-1" x="572.25" y="98.07" width="1.55" height="52.62"/><rect class="cls-1" x="575.64" y="98.07" width="1.55" height="52.62"/><rect class="cls-1" x="580.72" y="98.07" width="1.55" height="52.62"/><rect class="cls-1" x="582.3" y="98.07" width="1.55" height="52.62"/><rect class="cls-1" x="589.47" y="98.07" width="1.55" height="52.62"/><rect class="cls-1" x="603.82" y="98.07" width="1.55" height="52.62"/><rect class="cls-1" x="614.13" y="98.07" width="1.54" height="52.62"/><rect class="cls-1" x="616.61" y="98.07" width="1.55" height="52.62"/><rect class="cls-1" x="625.22" y="98.07" width="1.54" height="52.62"/><rect class="cls-1" x="627.56" y="98.07" width="1.55" height="52.62"/><rect class="cls-1" x="629.27" y="98.07" width="1.54" height="52.62"/><rect class="cls-1" x="633.17" y="98.07" width="1.55" height="52.62"/><rect class="cls-1" x="639.96" y="98.07" width="1.54" height="52.62"/><rect class="cls-1" x="642.57" y="98.07" width="1.55" height="52.62"/><rect class="cls-1" x="644.66" y="98.07" width="1.54" height="52.62"/><rect class="cls-1" x="650.79" y="98.07" width="1.54" height="52.62"/><rect class="cls-1" x="652.49" y="98.07" width="1.55" height="52.62"/><rect class="cls-1" x="657.96" y="98.07" width="1.55" height="52.62"/><rect class="cls-1" x="654.18" y="98.07" width="1.54" height="52.62"/><rect class="cls-1" x="655.87" y="98.07" width="1.55" height="52.62"/><rect class="cls-1" x="659.4" y="98.07" width="1.55" height="52.62"/><rect class="cls-1" x="665.53" y="98.07" width="1.55" height="52.62"/><rect class="cls-1" x="671.27" y="98.07" width="1.55" height="52.62"/><rect class="cls-1" x="677.14" y="98.07" width="1.55" height="52.62"/><rect class="cls-1" x="678.97" y="98.07" width="1.55" height="52.62"/><rect class="cls-1" x="681.06" y="98.07" width="1.54" height="52.62"/><rect class="cls-1" x="682.76" y="98.07" width="1.55" height="52.62"/><rect class="cls-1" x="693.85" y="98.07" width="1.54" height="52.62"/><rect class="cls-1" x="695.41" y="98.07" width="1.55" height="52.62"/><rect class="cls-1" x="709.24" y="98.07" width="1.54" height="52.62"/><rect class="cls-1" x="711.06" y="98.07" width="1.55" height="52.62"/><rect class="cls-1" x="712.63" y="98.07" width="1.55" height="52.62"/><rect class="cls-1" x="714.58" y="98.07" width="1.55" height="52.62"/><rect class="cls-1" x="716.28" y="98.07" width="1.54" height="52.62"/><rect class="cls-1" x="717.98" y="98.07" width="1.55" height="52.62"/><rect class="cls-1" x="719.55" y="98.07" width="1.55" height="52.62"/><rect class="cls-1" x="734.81" y="98.07" width="1.55" height="52.62"/><rect class="cls-1" x="740.81" y="98.07" width="1.55" height="52.62"/><rect class="cls-1" x="750.34" y="98.07" width="1.54" height="52.62"/><rect class="cls-1" x="761.68" y="98.07" width="1.54" height="52.62"/><rect class="cls-1" x="764.03" y="98.07" width="1.55" height="52.62"/><rect class="cls-1" x="765.73" y="98.07" width="1.54" height="52.62"/><rect class="cls-1" x="768.99" y="98.07" width="1.54" height="52.62"/><rect class="cls-1" x="771.99" y="98.07" width="1.55" height="52.62"/><rect class="cls-1" x="777.85" y="98.07" width="1.55" height="52.62"/><rect class="cls-1" x="785.69" y="98.07" width="1.54" height="52.62"/><rect class="cls-1" x="787.25" y="98.07" width="1.54" height="52.62"/><rect class="cls-1" x="791.04" y="98.07" width="1.54" height="52.62"/><rect class="cls-1" x="798.61" y="98.07" width="1.54" height="52.62"/><rect class="cls-1" x="803.82" y="98.07" width="1.54" height="52.62"/><rect class="cls-1" x="813.48" y="98.07" width="1.54" height="52.62"/><rect class="cls-1" x="818.69" y="98.07" width="1.54" height="52.62"/><rect class="cls-1" x="825.22" y="98.07" width="1.55" height="52.62"/><rect class="cls-1" x="828.87" y="98.07" width="1.54" height="52.62"/><rect class="cls-1" x="830.7" y="98.07" width="1.54" height="52.62"/><rect class="cls-1" x="842.58" y="98.07" width="1.54" height="52.62"/><rect class="cls-1" x="844.27" y="98.07" width="1.54" height="52.62"/><rect class="cls-1" x="845.96" y="98.07" width="1.55" height="52.62"/><rect class="cls-1" x="854.32" y="98.07" width="1.54" height="52.62"/><rect class="cls-1" x="859.01" y="98.07" width="1.55" height="52.62"/><rect class="cls-1" x="869.45" y="98.07" width="1.55" height="52.62"/><rect class="cls-1" x="872.84" y="98.07" width="1.54" height="52.62"/><rect class="cls-1" x="878.97" y="98.07" width="1.54" height="52.62"/><rect class="cls-1" x="883.54" y="98.07" width="1.54" height="52.62"/><rect class="cls-1" x="887.32" y="98.07" width="1.55" height="52.62"/><rect class="cls-1" x="894.1" y="98.07" width="1.54" height="52.62"/><rect class="cls-1" x="898.93" y="98.07" width="1.55" height="52.62"/><rect class="cls-1" x="904.8" y="98.07" width="1.54" height="52.62"/><rect class="cls-1" x="906.5" y="98.07" width="1.54" height="52.62"/><rect class="cls-1" x="908.06" y="98.07" width="1.54" height="52.62"/><rect class="cls-1" x="909.62" y="98.07" width="1.55" height="52.62"/><rect class="cls-1" x="915.9" y="98.07" width="1.54" height="52.62"/><rect class="cls-1" x="920.85" y="98.07" width="1.54" height="52.62"/><rect class="cls-1" x="932.46" y="98.07" width="1.55" height="52.62"/><rect class="cls-1" x="942.51" y="98.07" width="1.55" height="52.62"/><rect class="cls-1" x="959.73" y="98.07" width="1.54" height="52.62"/><rect class="cls-1" x="962.08" y="98.07" width="1.55" height="52.62"/><rect class="cls-1" x="969.91" y="98.07" width="1.55" height="52.62"/><rect class="cls-1" x="972.39" y="98.07" width="1.54" height="52.62"/><rect class="cls-1" x="973.95" y="98.07" width="1.55" height="52.62"/><rect class="cls-1" x="982.95" y="98.07" width="1.54" height="52.62"/><rect class="cls-1" x="994.43" y="98.07" width="1.55" height="52.62"/><rect class="cls-1" x="997.56" y="98.07" width="1.55" height="52.62"/><rect class="cls-1" x="1000.56" y="98.07" width="1.54" height="52.62"/><rect class="cls-1" x="1011.26" y="98.07" width="1.54" height="52.62"/><rect class="cls-1" x="1033.83" y="98.07" width="1.55" height="52.62"/><rect class="cls-1" x="1038.92" y="98.07" width="1.55" height="52.62"/><rect class="cls-1" x="301.92" y="45.45" width="1.55" height="52.62"/><rect class="cls-1" x="303.49" y="45.45" width="1.54" height="52.62"/><path class="cls-2" d="M159.87,89.13a2.87,2.87,0,0,0,1.49-.35,2.81,2.81,0,0,0,1-.92,3.87,3.87,0,0,0,.51-1.3,7.28,7.28,0,0,0,.15-1.5V79.31h1.81v5.76a8.59,8.59,0,0,1-.27,2.2,5.08,5.08,0,0,1-.86,1.81,4.12,4.12,0,0,1-1.53,1.22,5.17,5.17,0,0,1-2.25.45,5.06,5.06,0,0,1-2.3-.47A4.13,4.13,0,0,1,156.06,89a5.19,5.19,0,0,1-.83-1.82,8.72,8.72,0,0,1-.26-2.13V79.31h1.79v5.76a7.36,7.36,0,0,0,.15,1.51,3.87,3.87,0,0,0,.51,1.3,2.71,2.71,0,0,0,1,.91A2.93,2.93,0,0,0,159.87,89.13Z"/><path class="cls-2" d="M169,82.67v8h-1.79V79.31h1.41l6.5,8.19V79.32h1.81V90.67h-1.49Z"/><path class="cls-2" d="M179.44,90.67V79.31h1.79V90.67Z"/><path class="cls-2" d="M192.12,80.89h-3.78v9.78h-1.81V80.89h-3.79V79.31h9.38Z"/><path class="cls-2" d="M201.44,89.09v1.58h-7.79V79.31h7.65v1.58h-5.86v3.23h5.07v1.49h-5.07v3.47Z"/><path class="cls-2" d="M203.29,90.67V79.31h4a6,6,0,0,1,2.41.45A5,5,0,0,1,211.46,81a5.1,5.1,0,0,1,1,1.8,6.78,6.78,0,0,1,.35,2.2,6.65,6.65,0,0,1-.39,2.34,5.12,5.12,0,0,1-1.11,1.79,4.93,4.93,0,0,1-1.74,1.15,6.14,6.14,0,0,1-2.29.41ZM211,85a5.23,5.23,0,0,0-.25-1.65,3.59,3.59,0,0,0-.73-1.29,3.38,3.38,0,0,0-1.17-.84,3.85,3.85,0,0,0-1.57-.3h-2.24v8.19h2.24a3.85,3.85,0,0,0,1.59-.31,3.27,3.27,0,0,0,1.17-.86,3.72,3.72,0,0,0,.71-1.3A5.35,5.35,0,0,0,211,85Z"/><path class="cls-2" d="M225.42,82a2.49,2.49,0,0,0-.46-.38,4.7,4.7,0,0,0-.71-.38,5.22,5.22,0,0,0-.9-.29,4.46,4.46,0,0,0-1-.11,2.72,2.72,0,0,0-1.67.42,1.38,1.38,0,0,0-.54,1.15,1.25,1.25,0,0,0,.17.68,1.44,1.44,0,0,0,.52.46,4.08,4.08,0,0,0,.88.35l1.23.33a14.23,14.23,0,0,1,1.56.46,4.42,4.42,0,0,1,1.18.62,2.54,2.54,0,0,1,.74.9,2.93,2.93,0,0,1,.26,1.3,3.16,3.16,0,0,1-.33,1.49,2.8,2.8,0,0,1-.9,1,4,4,0,0,1-1.32.58,6.82,6.82,0,0,1-1.62.18,8.06,8.06,0,0,1-2.5-.39,7.17,7.17,0,0,1-2.18-1.14l.82-1.54a3.78,3.78,0,0,0,.6.46,5.57,5.57,0,0,0,.91.47,8,8,0,0,0,1.13.37,5.21,5.21,0,0,0,1.26.15,3,3,0,0,0,1.63-.37,1.21,1.21,0,0,0,.58-1.09,1.17,1.17,0,0,0-.22-.72,1.86,1.86,0,0,0-.62-.5,5.41,5.41,0,0,0-1-.39l-1.31-.37a13.53,13.53,0,0,1-1.48-.47,3.69,3.69,0,0,1-1-.6,2.35,2.35,0,0,1-.63-.82,2.74,2.74,0,0,1-.22-1.14,3.3,3.3,0,0,1,.32-1.48,3.16,3.16,0,0,1,.87-1.09,3.81,3.81,0,0,1,1.3-.66,5.69,5.69,0,0,1,1.63-.22,6,6,0,0,1,2.13.37,7.05,7.05,0,0,1,1.71.91Z"/><path class="cls-2" d="M236.73,80.89H233v9.78h-1.81V80.89h-3.79V79.31h9.38Z"/><path class="cls-2" d="M240.48,79.31H242l4.48,11.36h-1.89l-1.2-3.09h-4.38l-1.18,3.09H236Zm2.61,6.94-1.82-4.88-1.89,4.88Z"/><path class="cls-2" d="M255.15,80.89h-3.78v9.78h-1.81V80.89h-3.79V79.31h9.38Z"/><path class="cls-2" d="M264.46,89.09v1.58h-7.79V79.31h7.65v1.58h-5.86v3.23h5.07v1.49h-5.07v3.47Z"/><path class="cls-2" d="M272.8,82a2.49,2.49,0,0,0-.46-.38,4.7,4.7,0,0,0-.71-.38,5.22,5.22,0,0,0-.9-.29,4.46,4.46,0,0,0-1-.11,2.72,2.72,0,0,0-1.67.42,1.38,1.38,0,0,0-.54,1.15,1.25,1.25,0,0,0,.17.68,1.44,1.44,0,0,0,.52.46,4.08,4.08,0,0,0,.88.35l1.23.33a14.23,14.23,0,0,1,1.56.46,4.42,4.42,0,0,1,1.18.62,2.54,2.54,0,0,1,.74.9,2.93,2.93,0,0,1,.26,1.3,3.16,3.16,0,0,1-.33,1.49,2.8,2.8,0,0,1-.9,1,4,4,0,0,1-1.32.58,6.82,6.82,0,0,1-1.62.18,8.06,8.06,0,0,1-2.5-.39,7.17,7.17,0,0,1-2.18-1.14l.82-1.54a3.78,3.78,0,0,0,.6.46,5.57,5.57,0,0,0,.91.47,8,8,0,0,0,1.13.37,5.21,5.21,0,0,0,1.26.15,3,3,0,0,0,1.63-.37,1.21,1.21,0,0,0,.58-1.09,1.17,1.17,0,0,0-.22-.72,1.86,1.86,0,0,0-.62-.5,5.41,5.41,0,0,0-1-.39L269,85.73a13.53,13.53,0,0,1-1.48-.47,3.69,3.69,0,0,1-1-.6,2.35,2.35,0,0,1-.63-.82,2.74,2.74,0,0,1-.22-1.14,3.3,3.3,0,0,1,.32-1.48,3.16,3.16,0,0,1,.87-1.09,3.81,3.81,0,0,1,1.3-.66,5.69,5.69,0,0,1,1.63-.22,6,6,0,0,1,2.13.37,7.05,7.05,0,0,1,1.71.91Z"/><path class="cls-2" d="M213.39,140.83H215l4.48,11.36h-1.89l-1.2-3.09H212l-1.18,3.09h-1.9Zm2.61,6.94-1.82-4.88-1.89,4.88Z"/><path class="cls-2" d="M220.84,152.19V140.83h1.79v9.78h6.1v1.58Z"/><path class="cls-2" d="M237.42,150.78a4.48,4.48,0,0,1-3.31,1.49,4.78,4.78,0,0,1-2.11-.47,5.44,5.44,0,0,1-1.7-1.27,6,6,0,0,1-1.13-1.86,6.07,6.07,0,0,1-.41-2.21,6,6,0,0,1,.41-2.19,5.8,5.8,0,0,1,1.13-1.82,5.3,5.3,0,0,1,1.71-1.24,5.61,5.61,0,0,1,4.9.22,4.39,4.39,0,0,1,1.66,1.8l-1.38,1a3.19,3.19,0,0,0-1.28-1.39,3.56,3.56,0,0,0-1.79-.46,3.08,3.08,0,0,0-1.46.34,3.58,3.58,0,0,0-1.12.91,4.09,4.09,0,0,0-.71,1.32,5,5,0,0,0-.25,1.57,4.59,4.59,0,0,0,.28,1.62,4.2,4.2,0,0,0,.77,1.31,3.64,3.64,0,0,0,1.16.89,3.27,3.27,0,0,0,1.46.33,3.63,3.63,0,0,0,1.66-.4,4.86,4.86,0,0,0,1.51-1.26v-1.22H235v-1.33h3.89v5.74h-1.5Z"/><path class="cls-2" d="M248.76,150.61v1.58H241V140.83h7.65v1.58h-5.86v3.23h5.07v1.49h-5.07v3.47Z"/><path class="cls-2" d="M250.62,152.19V140.83h4.94a3.15,3.15,0,0,1,1.42.32,3.64,3.64,0,0,1,1.11.84,4,4,0,0,1,.73,1.18,3.64,3.64,0,0,1,.26,1.35,3.79,3.79,0,0,1-.16,1.1,3.88,3.88,0,0,1-.45,1,3.15,3.15,0,0,1-.7.78,2.9,2.9,0,0,1-.91.49l2.67,4.32h-2l-2.46-4h-2.62v4Zm1.79-5.54h3.14a1.44,1.44,0,0,0,.7-.17,1.65,1.65,0,0,0,.54-.46,2.34,2.34,0,0,0,.35-.68,2.56,2.56,0,0,0,.13-.82,2.2,2.2,0,0,0-.15-.82,2.35,2.35,0,0,0-.4-.67,1.89,1.89,0,0,0-.58-.46,1.47,1.47,0,0,0-.68-.17h-3Z"/><path class="cls-2" d="M261.2,152.19V140.83H263v11.36Z"/><path class="cls-2" d="M268.89,140.83h1.57l4.48,11.36h-1.89l-1.2-3.09h-4.38l-1.18,3.09h-1.9Zm2.61,6.94-1.82-4.88-1.89,4.88Z"/><rect class="cls-1" x="308.19" y="45.45" width="1.54" height="52.62"/><rect class="cls-1" x="310.28" y="45.45" width="1.54" height="52.62"/><rect class="cls-1" x="312.1" y="45.45" width="1.55" height="52.62"/><rect class="cls-1" x="317.97" y="45.45" width="1.55" height="52.62"/><rect class="cls-1" x="324.37" y="45.45" width="1.55" height="52.62"/><rect class="cls-1" x="334.55" y="45.45" width="1.55" height="52.62"/><rect class="cls-1" x="338.46" y="45.45" width="1.54" height="52.62"/><rect class="cls-1" x="342.76" y="45.45" width="1.55" height="52.62"/><rect class="cls-1" x="344.33" y="45.45" width="1.54" height="52.62"/><rect class="cls-1" x="353.72" y="45.45" width="1.55" height="52.62"/><rect class="cls-1" x="367.42" y="45.45" width="1.55" height="52.62"/><rect class="cls-1" x="375.25" y="45.45" width="1.54" height="52.62"/><rect class="cls-1" x="383.99" y="45.45" width="1.55" height="52.62"/><rect class="cls-1" x="385.56" y="45.45" width="1.55" height="52.62"/><rect class="cls-1" x="396.78" y="45.45" width="1.55" height="52.62"/><rect class="cls-1" x="399.65" y="45.45" width="1.54" height="52.62"/><rect class="cls-1" x="401.6" y="45.45" width="1.54" height="52.62"/><rect class="cls-1" x="415.56" y="45.45" width="1.54" height="52.62"/><rect class="cls-1" x="417.52" y="45.45" width="1.55" height="52.62"/><rect class="cls-1" x="422.08" y="45.45" width="1.55" height="52.62"/><rect class="cls-1" x="446.48" y="45.45" width="1.55" height="52.62"/><rect class="cls-1" x="448.04" y="45.45" width="1.55" height="52.62"/><rect class="cls-1" x="452.62" y="45.45" width="1.54" height="52.62"/><rect class="cls-1" x="463.18" y="45.45" width="1.55" height="52.62"/><rect class="cls-1" x="482.1" y="45.45" width="1.55" height="52.62"/><rect class="cls-1" x="483.8" y="45.45" width="1.55" height="52.62"/><rect class="cls-1" x="487.06" y="45.45" width="1.55" height="52.62"/><rect class="cls-1" x="488.88" y="45.45" width="1.55" height="52.62"/><rect class="cls-1" x="493.32" y="45.45" width="1.54" height="52.62"/><rect class="cls-1" x="494.88" y="45.45" width="1.55" height="52.62"/><rect class="cls-1" x="496.71" y="45.45" width="1.55" height="52.62"/><rect class="cls-1" x="498.54" y="45.45" width="1.54" height="52.62"/><rect class="cls-1" x="502.97" y="45.45" width="1.55" height="52.62"/><rect class="cls-1" x="509.23" y="45.45" width="1.55" height="52.62"/><rect class="cls-1" x="515.5" y="45.45" width="1.55" height="52.62"/><rect class="cls-1" x="517.46" y="45.45" width="1.54" height="52.62"/><rect class="cls-1" x="523.58" y="45.45" width="1.55" height="52.62"/><rect class="cls-1" x="527.38" y="45.45" width="1.54" height="52.62"/><rect class="cls-1" x="534.55" y="45.45" width="1.55" height="52.62"/><rect class="cls-1" x="536.24" y="45.45" width="1.55" height="52.62"/><rect class="cls-1" x="537.81" y="45.45" width="1.55" height="52.62"/><rect class="cls-1" x="539.51" y="45.45" width="1.55" height="52.62"/><rect class="cls-1" x="541.2" y="45.45" width="1.55" height="52.62"/><rect class="cls-1" x="542.9" y="45.45" width="1.55" height="52.62"/><rect class="cls-1" x="545.38" y="45.45" width="1.54" height="52.62"/><rect class="cls-1" x="564.56" y="45.45" width="1.55" height="52.62"/><rect class="cls-1" x="567.55" y="45.45" width="1.54" height="52.62"/><rect class="cls-1" x="570.3" y="45.45" width="1.55" height="52.62"/><rect class="cls-1" x="577.34" y="45.45" width="1.55" height="52.62"/><rect class="cls-1" x="579.16" y="45.45" width="1.55" height="52.62"/><rect class="cls-1" x="592.34" y="45.45" width="1.55" height="52.62"/><rect class="cls-1" x="604.87" y="45.45" width="1.55" height="52.62"/><rect class="cls-1" x="606.43" y="45.45" width="1.55" height="52.62"/><rect class="cls-1" x="608.65" y="45.45" width="1.55" height="52.62"/><rect class="cls-1" x="610.47" y="45.45" width="1.55" height="52.62"/><rect class="cls-1" x="618.57" y="45.45" width="1.55" height="52.62"/><rect class="cls-1" x="620.78" y="45.45" width="1.55" height="52.62"/><rect class="cls-1" x="622.48" y="45.45" width="1.54" height="52.62"/><rect class="cls-1" x="624.04" y="45.45" width="1.55" height="52.62"/><rect class="cls-1" x="633.96" y="45.45" width="1.55" height="52.62"/><rect class="cls-1" x="639.44" y="45.45" width="1.54" height="52.62"/><rect class="cls-1" x="641.52" y="45.45" width="1.55" height="52.62"/><rect class="cls-1" x="648.83" y="45.45" width="1.55" height="52.62"/><rect class="cls-1" x="656.65" y="45.45" width="1.55" height="52.62"/><rect class="cls-1" x="659.53" y="45.45" width="1.54" height="52.62"/><rect class="cls-1" x="661.23" y="45.45" width="1.54" height="52.62"/><rect class="cls-1" x="672.96" y="45.45" width="1.55" height="52.62"/><rect class="cls-1" x="677.54" y="45.45" width="1.54" height="52.62"/><rect class="cls-1" x="679.49" y="45.45" width="1.55" height="52.62"/><rect class="cls-1" x="684.97" y="45.45" width="1.55" height="52.62"/><rect class="cls-1" x="690.19" y="45.45" width="1.55" height="52.62"/><rect class="cls-1" x="702.32" y="45.45" width="1.54" height="52.62"/><rect class="cls-1" x="705.59" y="45.45" width="1.55" height="52.62"/><rect class="cls-1" x="723.07" y="45.45" width="1.55" height="52.62"/><rect class="cls-1" x="726.46" y="45.45" width="1.54" height="52.62"/><rect class="cls-1" x="728.28" y="45.45" width="1.55" height="52.62"/><rect class="cls-1" x="731.02" y="45.45" width="1.54" height="52.62"/><rect class="cls-1" x="734.55" y="45.45" width="1.55" height="52.62"/><rect class="cls-1" x="736.5" y="45.45" width="1.55" height="52.62"/><rect class="cls-1" x="739.37" y="45.45" width="1.55" height="52.62"/><rect class="cls-1" x="746.29" y="45.45" width="1.54" height="52.62"/><rect class="cls-1" x="754.64" y="45.45" width="1.54" height="52.62"/><rect class="cls-1" x="756.73" y="45.45" width="1.54" height="52.62"/><rect class="cls-1" x="762.85" y="45.45" width="1.54" height="52.62"/><rect class="cls-1" x="774.59" y="45.45" width="1.55" height="52.62"/><rect class="cls-1" x="776.29" y="45.45" width="1.55" height="52.62"/><rect class="cls-1" x="788.95" y="45.45" width="1.54" height="52.62"/><rect class="cls-1" x="793.26" y="45.45" width="1.55" height="52.62"/><rect class="cls-1" x="795.35" y="45.45" width="1.54" height="52.62"/><rect class="cls-1" x="817.26" y="45.45" width="1.54" height="52.62"/><rect class="cls-1" x="824.7" y="45.45" width="1.55" height="52.62"/><rect class="cls-1" x="831.87" y="45.45" width="1.55" height="52.62"/><rect class="cls-1" x="838.92" y="45.45" width="1.55" height="52.62"/><rect class="cls-1" x="840.49" y="45.45" width="1.54" height="52.62"/><rect class="cls-1" x="852.49" y="45.45" width="1.54" height="52.62"/><rect class="cls-1" x="860.05" y="45.45" width="1.54" height="52.62"/><rect class="cls-1" x="863.57" y="45.45" width="1.55" height="52.62"/><rect class="cls-1" x="884.58" y="45.45" width="1.55" height="52.62"/><rect class="cls-1" x="897.76" y="45.45" width="1.55" height="52.62"/><rect class="cls-1" x="902.46" y="45.45" width="1.54" height="52.62"/><rect class="cls-1" x="929.86" y="45.45" width="1.54" height="52.62"/><rect class="cls-1" x="933.9" y="45.45" width="1.54" height="52.62"/><rect class="cls-1" x="939.76" y="45.45" width="1.54" height="52.62"/><rect class="cls-1" x="941.73" y="45.45" width="1.55" height="52.62"/><rect class="cls-1" x="957.38" y="45.45" width="1.55" height="52.62"/><rect class="cls-1" x="967.42" y="45.45" width="1.54" height="52.62"/><rect class="cls-1" x="970.81" y="45.45" width="1.55" height="52.62"/><rect class="cls-1" x="975.12" y="45.45" width="1.55" height="52.62"/><rect class="cls-1" x="980.73" y="45.45" width="1.55" height="52.62"/><rect class="cls-1" x="984.65" y="45.45" width="1.55" height="52.62"/><rect class="cls-1" x="989.22" y="45.45" width="1.54" height="52.62"/><rect class="cls-1" x="996" y="45.45" width="1.54" height="52.62"/><rect class="cls-1" x="998.08" y="45.45" width="1.55" height="52.62"/><rect class="cls-1" x="1008.26" y="45.45" width="1.55" height="52.62"/><rect class="cls-1" x="1010.08" y="45.45" width="1.55" height="52.62"/><rect class="cls-1" x="1022.22" y="45.45" width="1.55" height="52.62"/><rect class="cls-1" x="1024.7" y="45.45" width="1.55" height="52.62"/><path class="cls-3" d="M1003.33,61.74a10.43,10.43,0,1,0,10.43-10.43A10.42,10.42,0,0,0,1003.33,61.74Z"/><polygon class="cls-3" points="1015.2 98.07 1012.26 98.07 1012.26 69.43 1015.2 69.43 1015.2 98.07 1015.2 98.07"/><polygon class="cls-2" points="1013.73 80.79 1002.78 98.07 1024.66 98.07 1013.73 80.79"/><polygon class="cls-2" points="305.3 80.79 294.36 98.07 316.24 98.07 305.3 80.79"/><polygon class="cls-2" points="347.31 80.79 336.37 98.07 358.25 98.07 347.31 80.79"/><polygon class="cls-2" points="369.88 80.79 358.94 98.07 380.82 98.07 369.88 80.79"/><polygon class="cls-2" points="403.41 80.79 392.46 98.07 414.35 98.07 403.41 80.79"/><polygon class="cls-2" points="419.85 80.79 408.91 98.07 430.79 98.07 419.85 80.79"/><polygon class="cls-2" points="428.2 80.79 417.26 98.07 439.14 98.07 428.2 80.79"/><polygon class="cls-2" points="490.69 80.79 479.75 98.07 501.63 98.07 490.69 80.79"/><polygon class="cls-2" points="501.78 80.79 490.84 98.07 512.72 98.07 501.78 80.79"/><polygon class="cls-2" points="530.35 80.79 519.41 98.07 541.29 98.07 530.35 80.79"/><polygon class="cls-2" points="596.1 80.79 585.16 98.07 607.04 98.07 596.1 80.79"/><polygon class="cls-2" points="636.28 80.79 625.35 98.07 647.23 98.07 636.28 80.79"/><polygon class="cls-2" points="692 80.79 681.06 98.07 702.94 98.07 692 80.79"/><polygon class="cls-2" points="707.65 80.79 696.72 98.07 718.59 98.07 707.65 80.79"/><polygon class="cls-2" points="759.58 80.79 748.64 98.07 770.51 98.07 759.58 80.79"/><polygon class="cls-2" points="834.86 80.79 823.92 98.07 845.79 98.07 834.86 80.79"/><polygon class="cls-2" points="867.34 80.79 856.4 98.07 878.27 98.07 867.34 80.79"/><polygon class="cls-2" points="884.43 80.79 873.49 98.07 895.37 98.07 884.43 80.79"/><polygon class="cls-2" points="988.03 80.79 977.08 98.07 998.96 98.07 988.03 80.79"/><polygon class="cls-2" points="1010.7 80.79 999.78 98.07 1021.65 98.07 1010.7 80.79"/><polygon class="cls-2" points="350.57 133.41 339.63 150.68 361.51 150.68 350.57 133.41"/><polygon class="cls-2" points="366.1 133.41 355.16 150.68 377.04 150.68 366.1 133.41"/><polygon class="cls-2" points="430.7 133.41 419.76 150.68 441.63 150.68 430.7 133.41"/><polygon class="cls-2" points="436.81 133.41 425.87 150.68 447.75 150.68 436.81 133.41"/><polygon class="cls-2" points="556.84 133.41 545.9 150.68 567.78 150.68 556.84 133.41"/><polygon class="cls-2" points="575.23 133.41 564.29 150.68 586.17 150.68 575.23 133.41"/><polygon class="cls-2" points="585.54 133.41 574.6 150.68 596.48 150.68 585.54 133.41"/><polygon class="cls-2" points="631.07 133.41 620.13 150.68 642.01 150.68 631.07 133.41"/><polygon class="cls-2" points="646.99 133.41 636.05 150.68 657.93 150.68 646.99 133.41"/><polygon class="cls-2" points="743.92 133.41 732.98 150.68 754.86 150.68 743.92 133.41"/><polygon class="cls-2" points="815.28 133.41 804.34 150.68 826.22 150.68 815.28 133.41"/><polygon class="cls-2" points="832.5 133.41 821.56 150.68 843.44 150.68 832.5 133.41"/><polygon class="cls-2" points="880.78 133.41 869.84 150.68 891.72 150.68 880.78 133.41"/><polygon class="cls-2" points="917.7 133.41 906.75 150.68 928.64 150.68 917.7 133.41"/><polygon class="cls-2" points="956.32 133.41 945.38 150.68 967.26 150.68 956.32 133.41"/><polygon class="cls-2" points="1013.59 133.41 1002.65 150.68 1024.53 150.68 1013.59 133.41"/><path class="cls-3" d="M1072.07,82.9q-2.52,0-5.06-.16a80.66,80.66,0,0,1-28.28-7l.45-1a79.58,79.58,0,0,0,27.9,6.92,80.22,80.22,0,0,0,80.29-52.88l1,.37A81.36,81.36,0,0,1,1072.07,82.9Z"/><polygon class="cls-3" points="1042.9 70.99 1031.93 71.61 1037.95 80.79 1042.9 70.99"/><path class="cls-3" d="M1067.8,4.68h2.12l1.74,4.82,1.76-4.82h2.1L1073.1,11l2.12,5.22,4.42-11.6h2.46l-5.86,14.2h-1.92l-2.64-6.36L1069,18.82h-1.92l-5.86-14.2h2.44l4.44,11.6,2.12-5.22Z"/><path class="cls-3" d="M1095.84,4.62v14.2h-2.26V12.56h-7.16v6.26h-2.24V4.62h2.24v5.94h7.16V4.62Z"/><path class="cls-3" d="M1099.44,18.82V4.62h2.24v14.2Z"/><path class="cls-3" d="M1113.68,8a3.09,3.09,0,0,0-.58-.47,5.79,5.79,0,0,0-.89-.47,6.5,6.5,0,0,0-1.12-.36,5.61,5.61,0,0,0-1.25-.14,3.41,3.41,0,0,0-2.09.52,1.72,1.72,0,0,0-.67,1.44,1.56,1.56,0,0,0,.21.85,1.8,1.8,0,0,0,.65.58,5.07,5.07,0,0,0,1.1.44l1.54.41a17.6,17.6,0,0,1,2,.58,5.56,5.56,0,0,1,1.47.78,3.18,3.18,0,0,1,.93,1.13,3.66,3.66,0,0,1,.33,1.63,4,4,0,0,1-.41,1.86,3.49,3.49,0,0,1-1.12,1.27,4.93,4.93,0,0,1-1.65.72,8.51,8.51,0,0,1-2,.23,10.06,10.06,0,0,1-3.13-.49A9,9,0,0,1,1104.2,17l1-1.92a4.67,4.67,0,0,0,.75.58,7,7,0,0,0,1.14.59,10,10,0,0,0,1.41.46,6.5,6.5,0,0,0,1.58.19,3.79,3.79,0,0,0,2-.46,1.51,1.51,0,0,0,.72-1.36,1.46,1.46,0,0,0-.27-.9,2.33,2.33,0,0,0-.77-.63,6.73,6.73,0,0,0-1.22-.49q-.72-.22-1.64-.46a16.86,16.86,0,0,1-1.85-.59,4.62,4.62,0,0,1-1.31-.75,2.93,2.93,0,0,1-.79-1,3.42,3.42,0,0,1-.27-1.43,4.13,4.13,0,0,1,.4-1.85,4,4,0,0,1,1.09-1.36,4.77,4.77,0,0,1,1.63-.83,7.12,7.12,0,0,1,2-.28,7.48,7.48,0,0,1,2.66.46,8.8,8.8,0,0,1,2.14,1.14Z"/><path class="cls-3" d="M1128.22,6.6h-4.72V18.82h-2.26V6.6h-4.74v-2h11.72Z"/><path class="cls-3" d="M1130.52,18.82V4.62h2.24V16.84h7.62v2Z"/><path class="cls-3" d="M1152.34,16.84v2h-9.74V4.62h9.56v2h-7.32v4h6.34V12.5h-6.34v4.34Z"/><path class="cls-3" d="M1171.56,15.16a3.32,3.32,0,0,1-.35,1.54,3.5,3.5,0,0,1-.94,1.15,4.23,4.23,0,0,1-1.39.72,5.66,5.66,0,0,1-1.7.25h-6.78V4.62h7.32a2.8,2.8,0,0,1,1.34.32,3.33,3.33,0,0,1,1,.83,3.81,3.81,0,0,1,.65,1.16,3.92,3.92,0,0,1,.23,1.31,3.81,3.81,0,0,1-.53,2,3.24,3.24,0,0,1-1.51,1.35,3.61,3.61,0,0,1,1.93,1.31A3.75,3.75,0,0,1,1171.56,15.16Zm-8.92-8.6v4.18h4.12a1.83,1.83,0,0,0,.77-.16,2.12,2.12,0,0,0,.62-.43,1.89,1.89,0,0,0,.42-.65,2.27,2.27,0,0,0,.15-.84,2.2,2.2,0,0,0-.52-1.51,1.68,1.68,0,0,0-1.32-.59Zm6.62,8.18a2.37,2.37,0,0,0-.15-.84,2.41,2.41,0,0,0-.4-.7,1.88,1.88,0,0,0-.61-.48,1.72,1.72,0,0,0-.78-.18h-4.68v4.34h4.54a2,2,0,0,0,.82-.17,2.1,2.1,0,0,0,.66-.46,2.14,2.14,0,0,0,.44-.68A2.16,2.16,0,0,0,1169.26,14.74Z"/><path class="cls-3" d="M1184,16.84v2h-9.74V4.62h9.56v2h-7.32v4h6.34V12.5h-6.34v4.34Z"/><path class="cls-3" d="M1190.94,4.62h2l5.6,14.2h-2.36l-1.5-3.86h-5.48l-1.48,3.86h-2.38Zm3.26,8.68-2.28-6.1-2.36,6.1Z"/><path class="cls-3" d="M1209.68,6.6H1205V18.82h-2.26V6.6H1198v-2h11.72Z"/><path class="cls-3" d="M1221.72,16.84v2H1212V4.62h9.56v2h-7.32v4h6.34V12.5h-6.34v4.34Z"/><path class="cls-3" d="M1224.44,18.82V4.62h6.18a3.94,3.94,0,0,1,1.77.4,4.53,4.53,0,0,1,1.39,1,5,5,0,0,1,.91,1.48,4.54,4.54,0,0,1,.33,1.69,4.73,4.73,0,0,1-.2,1.38,4.82,4.82,0,0,1-.56,1.22,3.93,3.93,0,0,1-.88,1,3.63,3.63,0,0,1-1.14.61l3.34,5.4H1233L1230,13.88h-3.28v4.94Zm2.24-6.92h3.92a1.81,1.81,0,0,0,.87-.21,2.05,2.05,0,0,0,.67-.58,3,3,0,0,0,.44-.85,3.21,3.21,0,0,0,.16-1,2.75,2.75,0,0,0-.19-1,2.93,2.93,0,0,0-.5-.84,2.37,2.37,0,0,0-.72-.57,1.84,1.84,0,0,0-.85-.21h-3.8Z"/></svg>