<svg id="Layer_1" data-name="Layer 1" xmlns="http://www.w3.org/2000/svg" viewBox="0 0 1280 269.46"><defs><style>.cls-1,.cls-2{fill:#333132;}.cls-2{font-size:25px;font-family:Raleway-ExtraBold, Raleway;font-weight:700;}.cls-3{letter-spacing:-0.03em;}.cls-4{fill:#fdc659;}.cls-5{fill:#ef3e23;}.cls-6{fill:#ee3e23;}</style></defs><title>yg-umbro-wireframes-170817-2130--slicing</title><path class="cls-1" d="M149.59,121a2.51,2.51,0,0,0-.46-.38,4.79,4.79,0,0,0-.71-.38,5.18,5.18,0,0,0-.9-.29,4.43,4.43,0,0,0-1-.11,2.72,2.72,0,0,0-1.67.42,1.38,1.38,0,0,0-.54,1.15,1.24,1.24,0,0,0,.17.68,1.44,1.44,0,0,0,.52.46,4,4,0,0,0,.88.35l1.23.33a14.23,14.23,0,0,1,1.56.46,4.45,4.45,0,0,1,1.18.62,2.54,2.54,0,0,1,.74.9,2.93,2.93,0,0,1,.26,1.3,3.16,3.16,0,0,1-.33,1.49,2.79,2.79,0,0,1-.9,1,3.94,3.94,0,0,1-1.32.58,6.77,6.77,0,0,1-1.62.18,8.05,8.05,0,0,1-2.5-.39,7.17,7.17,0,0,1-2.18-1.14l.82-1.54a3.75,3.75,0,0,0,.6.46,5.53,5.53,0,0,0,.91.47,7.79,7.79,0,0,0,1.13.37,5.18,5.18,0,0,0,1.26.15,3,3,0,0,0,1.63-.37,1.21,1.21,0,0,0,.58-1.09,1.16,1.16,0,0,0-.22-.72,1.85,1.85,0,0,0-.62-.5,5.34,5.34,0,0,0-1-.39l-1.31-.37a13.43,13.43,0,0,1-1.48-.47,3.7,3.7,0,0,1-1-.6,2.36,2.36,0,0,1-.63-.82,2.74,2.74,0,0,1-.22-1.14,3.3,3.3,0,0,1,.32-1.48,3.15,3.15,0,0,1,.87-1.09,3.8,3.8,0,0,1,1.3-.66,5.69,5.69,0,0,1,1.63-.22,6,6,0,0,1,2.13.37,7.09,7.09,0,0,1,1.71.91Z"/><path class="cls-1" d="M152.64,129.69V118.33h4.77a3.16,3.16,0,0,1,1.42.32,3.63,3.63,0,0,1,1.11.84,4,4,0,0,1,.73,1.18,3.63,3.63,0,0,1,.26,1.35,3.95,3.95,0,0,1-.94,2.57,3.39,3.39,0,0,1-1.08.83,3.12,3.12,0,0,1-1.4.31h-3.07v4Zm1.79-5.54h3a1.49,1.49,0,0,0,.7-.16,1.6,1.6,0,0,0,.54-.45,2.26,2.26,0,0,0,.35-.67,2.68,2.68,0,0,0,.13-.85,2.45,2.45,0,0,0-.14-.86,2,2,0,0,0-.4-.66,1.84,1.84,0,0,0-.58-.43,1.6,1.6,0,0,0-.68-.15h-2.86Z"/><path class="cls-1" d="M165.24,118.33h1.57l4.48,11.36H169.4l-1.2-3.09h-4.38l-1.18,3.09h-1.9Zm2.61,6.94L166,120.39l-1.89,4.88Z"/><path class="cls-1" d="M172.69,129.69V118.33h1.79v11.36Z"/><path class="cls-1" d="M178.83,121.69v8H177V118.33h1.41l6.5,8.19v-8.18h1.81v11.34h-1.49Z"/><path class="cls-1" d="M73.57,69.23v8H71.78V65.87h1.41l6.5,8.19V65.88h1.81V77.23H80Z"/><path class="cls-1" d="M91.84,75.64v1.58H84.05V65.87H91.7v1.58H85.84v3.23h5.07v1.49H85.84v3.47Z"/><path class="cls-1" d="M102,67.45H98.26v9.78H96.45V67.45H92.66V65.87H102Z"/><path class="cls-1" d="M112.88,65.87V77.23h-1.81v-5h-5.73v5h-1.79V65.87h1.79v4.75h5.73V65.87Z"/><path class="cls-1" d="M123.24,75.64v1.58h-7.79V65.87h7.65v1.58h-5.86v3.23h5.07v1.49h-5.07v3.47Z"/><path class="cls-1" d="M125.09,77.23V65.87H130a3.16,3.16,0,0,1,1.42.32,3.64,3.64,0,0,1,1.11.84,4,4,0,0,1,.73,1.18,3.63,3.63,0,0,1,.26,1.35,3.8,3.8,0,0,1-.16,1.1,3.89,3.89,0,0,1-.45,1,3.16,3.16,0,0,1-.7.78,2.9,2.9,0,0,1-.91.49L134,77.23h-2l-2.46-4h-2.62v4Zm1.79-5.54H130a1.44,1.44,0,0,0,.7-.17,1.65,1.65,0,0,0,.54-.46,2.35,2.35,0,0,0,.35-.68,2.56,2.56,0,0,0,.13-.82,2.21,2.21,0,0,0-.15-.82,2.36,2.36,0,0,0-.4-.67,1.91,1.91,0,0,0-.58-.46,1.48,1.48,0,0,0-.68-.17h-3Z"/><path class="cls-1" d="M135.67,77.23V65.87h1.79v9.78h6.1v1.58Z"/><path class="cls-1" d="M148.36,65.87h1.57l4.48,11.36h-1.89l-1.2-3.09h-4.38l-1.18,3.09h-1.9ZM151,72.81l-1.82-4.88-1.89,4.88Z"/><path class="cls-1" d="M157.6,69.23v8h-1.79V65.87h1.41l6.5,8.19V65.88h1.81V77.23H164Z"/><path class="cls-1" d="M168.08,77.23V65.87h4a6,6,0,0,1,2.41.45,5,5,0,0,1,1.73,1.22,5.11,5.11,0,0,1,1,1.8,6.78,6.78,0,0,1,.35,2.2,6.66,6.66,0,0,1-.39,2.34,5.13,5.13,0,0,1-1.11,1.79,4.94,4.94,0,0,1-1.74,1.15,6.13,6.13,0,0,1-2.29.41Zm7.74-5.7a5.23,5.23,0,0,0-.25-1.65,3.58,3.58,0,0,0-.73-1.29,3.37,3.37,0,0,0-1.17-.84,3.84,3.84,0,0,0-1.57-.3h-2.24v8.19h2.24a3.85,3.85,0,0,0,1.59-.31,3.26,3.26,0,0,0,1.17-.86,3.72,3.72,0,0,0,.71-1.3A5.35,5.35,0,0,0,175.83,71.53Z"/><path class="cls-1" d="M186.26,68.54a2.51,2.51,0,0,0-.46-.38,4.79,4.79,0,0,0-.71-.38,5.18,5.18,0,0,0-.9-.29,4.43,4.43,0,0,0-1-.11,2.72,2.72,0,0,0-1.67.42A1.38,1.38,0,0,0,181,69a1.24,1.24,0,0,0,.17.68,1.44,1.44,0,0,0,.52.46,4,4,0,0,0,.88.35l1.23.33a14.23,14.23,0,0,1,1.56.46,4.45,4.45,0,0,1,1.18.62,2.54,2.54,0,0,1,.74.9,2.93,2.93,0,0,1,.26,1.3,3.16,3.16,0,0,1-.33,1.49,2.79,2.79,0,0,1-.9,1,3.94,3.94,0,0,1-1.32.58,6.77,6.77,0,0,1-1.62.18,8.05,8.05,0,0,1-2.5-.39,7.17,7.17,0,0,1-2.18-1.14l.82-1.54a3.75,3.75,0,0,0,.6.46,5.53,5.53,0,0,0,.91.47,7.79,7.79,0,0,0,1.13.37,5.18,5.18,0,0,0,1.26.15,3,3,0,0,0,1.63-.37,1.21,1.21,0,0,0,.58-1.09,1.16,1.16,0,0,0-.22-.72,1.85,1.85,0,0,0-.62-.5,5.34,5.34,0,0,0-1-.39l-1.31-.37a13.43,13.43,0,0,1-1.48-.47,3.7,3.7,0,0,1-1-.6,2.36,2.36,0,0,1-.63-.82,2.74,2.74,0,0,1-.22-1.14,3.3,3.3,0,0,1,.32-1.48,3.15,3.15,0,0,1,.87-1.09,3.8,3.8,0,0,1,1.3-.66,5.69,5.69,0,0,1,1.63-.22,6,6,0,0,1,2.13.37,7.09,7.09,0,0,1,1.71.91Z"/><text class="cls-2" transform="translate(619.72 -1.73)">FINA<tspan class="cls-3" x="57.45" y="0">L</tspan></text><rect class="cls-4" x="211.22" y="24.78" width="1.54" height="52.47"/><rect class="cls-4" x="216.68" y="77.24" width="1.55" height="52.47"/><rect class="cls-4" x="220.71" y="77.24" width="1.55" height="52.47"/><rect class="cls-4" x="222.41" y="24.78" width="1.54" height="52.47"/><rect class="cls-4" x="222.8" y="77.24" width="1.55" height="52.47"/><rect class="cls-4" x="223.18" y="77.24" width="1.54" height="52.47"/><rect class="cls-4" x="223.96" y="77.24" width="1.55" height="52.47"/><rect class="cls-4" x="225.66" y="77.24" width="1.54" height="52.47"/><rect class="cls-4" x="227.22" y="77.24" width="1.55" height="52.47"/><rect class="cls-4" x="228.77" y="77.24" width="1.55" height="52.47"/><rect class="cls-4" x="229.69" y="24.78" width="1.54" height="52.47"/><rect class="cls-4" x="230.6" y="77.24" width="1.55" height="52.47"/><rect class="cls-4" x="234.11" y="24.78" width="1.55" height="52.47"/><rect class="cls-4" x="236.32" y="24.78" width="1.54" height="52.47"/><rect class="cls-4" x="238.27" y="77.24" width="1.55" height="52.47"/><rect class="cls-4" x="240.23" y="77.24" width="1.55" height="52.47"/><rect class="cls-4" x="245.04" y="77.24" width="1.54" height="52.47"/><rect class="cls-4" x="247.38" y="77.24" width="1.54" height="52.47"/><rect class="cls-4" x="250.11" y="77.24" width="1.55" height="52.47"/><rect class="cls-4" x="256.62" y="77.24" width="1.54" height="52.47"/><rect class="cls-4" x="258.82" y="24.78" width="1.55" height="52.47"/><rect class="cls-4" x="260.25" y="77.24" width="1.55" height="52.47"/><rect class="cls-4" x="261.69" y="77.24" width="1.54" height="52.47"/><rect class="cls-4" x="263.25" y="24.78" width="1.54" height="52.47"/><rect class="cls-4" x="264.94" y="24.78" width="1.54" height="52.47"/><rect class="cls-4" x="265.59" y="77.24" width="1.55" height="52.47"/><rect class="cls-4" x="267.02" y="77.24" width="1.54" height="52.47"/><rect class="cls-4" x="270.28" y="24.78" width="1.54" height="52.47"/><rect class="cls-4" x="271.06" y="77.24" width="1.54" height="52.47"/><rect class="cls-4" x="272.61" y="24.78" width="1.54" height="52.47"/><rect class="cls-4" x="274.57" y="77.24" width="1.54" height="52.47"/><rect class="cls-4" x="275.09" y="77.24" width="1.55" height="52.47"/><rect class="cls-4" x="276.77" y="24.78" width="1.55" height="52.47"/><rect class="cls-4" x="277.69" y="77.24" width="1.54" height="52.47"/><rect class="cls-4" x="279.38" y="24.78" width="1.55" height="52.47"/><rect class="cls-4" x="283.03" y="77.24" width="1.54" height="52.47"/><rect class="cls-4" x="284.2" y="24.78" width="1.54" height="52.47"/><rect class="cls-4" x="287.71" y="77.24" width="1.54" height="52.47"/><rect class="cls-4" x="290.31" y="77.24" width="1.54" height="52.47"/><rect class="cls-4" x="292.52" y="77.24" width="1.54" height="52.47"/><rect class="cls-4" x="293.04" y="77.24" width="1.55" height="52.47"/><rect class="cls-4" x="296.95" y="77.24" width="1.54" height="52.47"/><rect class="cls-4" x="300.85" y="24.78" width="1.54" height="52.47"/><rect class="cls-4" x="305.66" y="24.78" width="1.54" height="52.47"/><rect class="cls-4" x="308.26" y="77.24" width="1.54" height="52.47"/><rect class="cls-4" x="310.99" y="77.24" width="1.55" height="52.47"/><rect class="cls-4" x="316.32" y="77.24" width="1.54" height="52.47"/><rect class="cls-4" x="319.19" y="24.78" width="1.55" height="52.47"/><rect class="cls-4" x="320.74" y="77.24" width="1.54" height="52.47"/><rect class="cls-4" x="321" y="77.24" width="1.55" height="52.47"/><rect class="cls-4" x="333.49" y="24.78" width="1.54" height="52.47"/><rect class="cls-4" x="335.44" y="24.78" width="1.55" height="52.47"/><rect class="cls-4" x="349.1" y="24.78" width="1.55" height="52.47"/><rect class="cls-4" x="350.92" y="77.24" width="1.54" height="52.47"/><rect class="cls-4" x="352.22" y="24.78" width="1.55" height="52.47"/><rect class="cls-4" x="356.39" y="24.78" width="1.54" height="52.47"/><rect class="cls-4" x="357.56" y="24.78" width="1.54" height="52.47"/><rect class="cls-4" x="360.02" y="24.78" width="1.55" height="52.47"/><rect class="cls-4" x="364.32" y="24.78" width="1.54" height="52.47"/><rect class="cls-4" x="364.84" y="77.24" width="1.55" height="52.47"/><rect class="cls-4" x="365.62" y="24.78" width="1.55" height="52.47"/><rect class="cls-4" x="375.38" y="77.24" width="1.54" height="52.47"/><rect class="cls-4" x="376.29" y="24.78" width="1.55" height="52.47"/><rect class="cls-4" x="376.82" y="77.24" width="1.54" height="52.47"/><rect class="cls-4" x="377.07" y="77.24" width="1.54" height="52.47"/><rect class="cls-4" x="382.14" y="77.24" width="1.55" height="52.47"/><rect class="cls-4" x="384.75" y="24.78" width="1.54" height="52.47"/><rect class="cls-4" x="399.06" y="24.78" width="1.54" height="52.47"/><rect class="cls-4" x="400.35" y="77.24" width="1.55" height="52.47"/><rect class="cls-4" x="403.09" y="77.24" width="1.55" height="52.47"/><rect class="cls-4" x="405.3" y="77.24" width="1.54" height="52.47"/><rect class="cls-4" x="408.94" y="77.24" width="1.54" height="52.47"/><rect class="cls-4" x="410.11" y="24.78" width="1.54" height="52.47"/><rect class="cls-4" x="410.37" y="24.78" width="1.54" height="52.47"/><rect class="cls-4" x="412.19" y="77.24" width="1.54" height="52.47"/><rect class="cls-4" x="415.58" y="24.78" width="1.54" height="52.47"/><rect class="cls-4" x="418.83" y="77.24" width="1.54" height="52.47"/><rect class="cls-4" x="421.29" y="24.78" width="1.55" height="52.47"/><rect class="cls-4" x="425.46" y="77.24" width="1.54" height="52.47"/><rect class="cls-4" x="426.89" y="77.24" width="1.54" height="52.47"/><rect class="cls-4" x="440.16" y="77.24" width="1.54" height="52.47"/><rect class="cls-4" x="442.38" y="77.24" width="1.54" height="52.47"/><rect class="cls-4" x="444.97" y="24.78" width="1.55" height="52.47"/><rect class="cls-4" x="447.7" y="24.78" width="1.54" height="52.47"/><rect class="cls-4" x="448.22" y="77.24" width="1.54" height="52.47"/><rect class="cls-4" x="450.7" y="24.78" width="1.54" height="52.47"/><rect class="cls-4" x="453.17" y="77.24" width="1.54" height="52.47"/><rect class="cls-4" x="454.6" y="77.24" width="1.54" height="52.47"/><rect class="cls-4" x="457.07" y="77.24" width="1.54" height="52.47"/><rect class="cls-4" x="459.28" y="77.24" width="1.55" height="52.47"/><rect class="cls-4" x="463.7" y="24.78" width="1.55" height="52.47"/><rect class="cls-4" x="469.04" y="24.78" width="1.54" height="52.47"/><rect class="cls-4" x="473.33" y="77.24" width="1.55" height="52.47"/><rect class="cls-4" x="476.45" y="24.78" width="1.55" height="52.47"/><rect class="cls-4" x="478.92" y="24.78" width="1.54" height="52.47"/><rect class="cls-4" x="480.75" y="77.24" width="1.54" height="52.47"/><rect class="cls-4" x="481.53" y="77.24" width="1.54" height="52.47"/><rect class="cls-4" x="483.73" y="77.24" width="1.55" height="52.47"/><rect class="cls-4" x="489.46" y="77.24" width="1.54" height="52.47"/><rect class="cls-4" x="489.98" y="24.78" width="1.54" height="52.47"/><rect class="cls-4" x="492.71" y="24.78" width="1.55" height="52.47"/><rect class="cls-4" x="497.26" y="24.78" width="1.55" height="52.47"/><rect class="cls-4" x="500.64" y="77.24" width="1.55" height="52.47"/><rect class="cls-4" x="501.3" y="77.24" width="1.54" height="52.47"/><rect class="cls-4" x="505.19" y="24.78" width="1.55" height="52.47"/><rect class="cls-4" x="507.28" y="77.24" width="1.54" height="52.47"/><rect class="cls-4" x="508.06" y="24.78" width="1.55" height="52.47"/><rect class="cls-4" x="508.33" y="24.78" width="1.54" height="52.47"/><rect class="cls-4" x="508.71" y="77.24" width="1.55" height="52.47"/><rect class="cls-4" x="511.7" y="77.24" width="1.55" height="52.47"/><rect class="cls-4" x="520.55" y="77.24" width="1.54" height="52.47"/><rect class="cls-4" x="524.06" y="24.78" width="1.54" height="52.47"/><rect class="cls-4" x="525.89" y="77.24" width="1.54" height="52.47"/><rect class="cls-4" x="528.09" y="77.24" width="1.55" height="52.47"/><rect class="cls-4" x="531.21" y="77.24" width="1.54" height="52.47"/><rect class="cls-4" x="533.69" y="77.24" width="1.54" height="52.47"/><rect class="cls-4" x="535.51" y="77.24" width="1.54" height="52.47"/><rect class="cls-4" x="547.87" y="24.78" width="1.54" height="52.47"/><rect class="cls-4" x="549.3" y="24.78" width="1.54" height="52.47"/><rect class="cls-4" x="552.16" y="77.24" width="1.55" height="52.47"/><rect class="cls-4" x="552.94" y="77.24" width="1.55" height="52.47"/><rect class="cls-4" x="554.76" y="24.78" width="1.54" height="52.47"/><rect class="cls-4" x="557.11" y="77.24" width="1.54" height="52.47"/><rect class="cls-4" x="559.05" y="24.78" width="1.54" height="52.47"/><rect class="cls-4" x="560.22" y="77.24" width="1.55" height="52.47"/><rect class="cls-4" x="560.88" y="24.78" width="1.54" height="52.47"/><rect class="cls-4" x="565.69" y="24.78" width="1.54" height="52.47"/><rect class="cls-4" x="566.99" y="24.78" width="1.54" height="52.47"/><rect class="cls-4" x="570.89" y="77.24" width="1.54" height="52.47"/><rect class="cls-4" x="575.44" y="77.24" width="1.54" height="52.47"/><rect class="cls-4" x="579.22" y="24.78" width="1.55" height="52.47"/><rect class="cls-4" x="562.43" y="77.24" width="1.55" height="52.47"/><rect class="cls-4" x="562.95" y="24.78" width="1.55" height="52.47"/><rect class="cls-4" x="564.52" y="24.78" width="1.54" height="52.47"/><rect class="cls-4" x="565.95" y="77.24" width="1.55" height="52.47"/><rect class="cls-4" x="567.64" y="24.78" width="1.54" height="52.47"/><rect class="cls-4" x="569.85" y="77.24" width="1.55" height="52.47"/><rect class="cls-4" x="572.32" y="77.24" width="1.55" height="52.47"/><rect class="cls-4" x="574.92" y="77.24" width="1.54" height="52.47"/><rect class="cls-4" x="575.7" y="77.24" width="1.55" height="52.47"/><rect class="cls-4" x="582.73" y="77.24" width="1.54" height="52.47"/><rect class="cls-4" x="587.81" y="77.24" width="1.54" height="52.47"/><rect class="cls-4" x="592.23" y="24.78" width="1.54" height="52.47"/><rect class="cls-4" x="594.56" y="24.78" width="1.55" height="52.47"/><rect class="cls-4" x="597.94" y="77.24" width="1.55" height="52.47"/><rect class="cls-4" x="599.25" y="77.24" width="1.54" height="52.47"/><rect class="cls-4" x="602.11" y="24.78" width="1.54" height="52.47"/><rect class="cls-4" x="602.5" y="24.78" width="1.54" height="52.47"/><rect class="cls-4" x="605.88" y="77.24" width="1.55" height="52.47"/><rect class="cls-4" x="609" y="24.78" width="1.55" height="52.47"/><rect class="cls-4" x="610.69" y="24.78" width="1.54" height="52.47"/><rect class="cls-4" x="612.51" y="77.24" width="1.55" height="52.47"/><rect class="cls-4" x="614.99" y="77.24" width="1.54" height="52.47"/><rect class="cls-4" x="617.72" y="24.78" width="1.55" height="52.47"/><rect class="cls-4" x="619.14" y="24.78" width="1.55" height="52.47"/><rect class="cls-4" x="620.84" y="24.78" width="1.54" height="52.47"/><rect class="cls-4" x="621.62" y="77.24" width="1.55" height="52.47"/><rect class="cls-4" x="623.83" y="77.24" width="1.54" height="52.47"/><rect class="cls-4" x="638.53" y="24.78" width="1.54" height="52.47"/><rect class="cls-4" x="640.1" y="24.78" width="1.54" height="52.47"/><rect class="cls-4" x="641.91" y="77.24" width="1.54" height="52.47"/><rect class="cls-4" x="651.8" y="24.78" width="1.54" height="52.47"/><rect class="cls-4" x="656.22" y="77.24" width="1.54" height="52.47"/><rect class="cls-4" x="665.07" y="77.24" width="1.54" height="52.47"/><rect class="cls-4" x="667.41" y="77.24" width="1.54" height="52.47"/><rect class="cls-4" x="669.88" y="77.24" width="1.54" height="52.47"/><rect class="cls-4" x="671.83" y="77.24" width="1.54" height="52.47"/><rect class="cls-4" x="678.86" y="24.78" width="1.54" height="52.47"/><rect class="cls-4" x="688.87" y="24.78" width="1.55" height="52.47"/><rect class="cls-4" x="689.65" y="24.78" width="1.54" height="52.47"/><rect class="cls-4" x="699.41" y="77.24" width="1.54" height="52.47"/><rect class="cls-4" x="703.3" y="24.78" width="1.55" height="52.47"/><rect class="cls-4" x="704.22" y="77.24" width="1.55" height="52.47"/><rect class="cls-4" x="705.39" y="24.78" width="1.55" height="52.47"/><rect class="cls-4" x="707.6" y="24.78" width="1.54" height="52.47"/><rect class="cls-4" x="711.24" y="77.24" width="1.55" height="52.47"/><rect class="cls-4" x="711.89" y="24.78" width="1.55" height="52.47"/><rect class="cls-4" x="713.33" y="77.24" width="1.54" height="52.47"/><rect class="cls-4" x="713.85" y="77.24" width="1.54" height="52.47"/><rect class="cls-4" x="715.92" y="77.24" width="1.55" height="52.47"/><rect class="cls-4" x="718.53" y="77.24" width="1.55" height="52.47"/><rect class="cls-4" x="721.26" y="77.24" width="1.54" height="52.47"/><rect class="cls-4" x="723.74" y="24.78" width="1.54" height="52.47"/><rect class="cls-4" x="724.64" y="77.24" width="1.54" height="52.47"/><rect class="cls-4" x="726.33" y="24.78" width="1.55" height="52.47"/><rect class="cls-4" x="735.7" y="24.78" width="1.54" height="52.47"/><rect class="cls-4" x="736.22" y="77.24" width="1.55" height="52.47"/><rect class="cls-4" x="739.08" y="24.78" width="1.54" height="52.47"/><rect class="cls-4" x="740.25" y="24.78" width="1.55" height="52.47"/><rect class="cls-4" x="740.78" y="77.24" width="1.54" height="52.47"/><rect class="cls-4" x="744.68" y="24.78" width="1.54" height="52.47"/><rect class="cls-4" x="745.72" y="77.24" width="1.55" height="52.47"/><rect class="cls-4" x="747.41" y="77.24" width="1.54" height="52.47"/><rect class="cls-4" x="754.04" y="77.24" width="1.55" height="52.47"/><rect class="cls-4" x="760.94" y="77.24" width="1.54" height="52.47"/><rect class="cls-4" x="763.8" y="77.24" width="1.55" height="52.47"/><rect class="cls-4" x="764.71" y="24.78" width="1.54" height="52.47"/><rect class="cls-4" x="764.97" y="24.78" width="1.54" height="52.47"/><rect class="cls-4" x="765.62" y="77.24" width="1.54" height="52.47"/><rect class="cls-4" x="768.09" y="77.24" width="1.55" height="52.47"/><rect class="cls-4" x="770.17" y="24.78" width="1.55" height="52.47"/><rect class="cls-4" x="771.34" y="77.24" width="1.55" height="52.47"/><rect class="cls-4" x="774.6" y="77.24" width="1.54" height="52.47"/><rect class="cls-4" x="777.33" y="77.24" width="1.55" height="52.47"/><rect class="cls-4" x="787.86" y="24.78" width="1.55" height="52.47"/><rect class="cls-4" x="790.08" y="24.78" width="1.54" height="52.47"/><rect class="cls-4" x="796.58" y="77.24" width="1.54" height="52.47"/><rect class="cls-4" x="800.61" y="24.78" width="1.55" height="52.47"/><rect class="cls-4" x="802.83" y="24.78" width="1.54" height="52.47"/><rect class="cls-4" x="803.09" y="77.24" width="1.54" height="52.47"/><rect class="cls-4" x="803.73" y="77.24" width="1.54" height="52.47"/><rect class="cls-4" x="808.93" y="77.24" width="1.55" height="52.47"/><rect class="cls-4" x="811.93" y="24.78" width="1.55" height="52.47"/><rect class="cls-4" x="815.57" y="77.24" width="1.54" height="52.47"/><rect class="cls-4" x="824.03" y="24.78" width="1.54" height="52.47"/><rect class="cls-4" x="825.33" y="77.24" width="1.54" height="52.47"/><rect class="cls-4" x="829.88" y="77.24" width="1.55" height="52.47"/><rect class="cls-4" x="833.66" y="24.78" width="1.54" height="52.47"/><rect class="cls-4" x="836.64" y="77.24" width="1.55" height="52.47"/><rect class="cls-4" x="840.16" y="77.24" width="1.54" height="52.47"/><rect class="cls-4" x="845.23" y="77.24" width="1.54" height="52.47"/><rect class="cls-4" x="847.57" y="77.24" width="1.54" height="52.47"/><rect class="cls-4" x="847.96" y="24.78" width="1.54" height="52.47"/><rect class="cls-4" x="852.12" y="77.24" width="1.54" height="52.47"/><rect class="cls-4" x="854.33" y="77.24" width="1.55" height="52.47"/><rect class="cls-4" x="854.99" y="24.78" width="1.54" height="52.47"/><rect class="cls-4" x="856.16" y="77.24" width="1.54" height="52.47"/><rect class="cls-4" x="857.06" y="24.78" width="1.55" height="52.47"/><rect class="cls-4" x="865.26" y="24.78" width="1.54" height="52.47"/><rect class="cls-4" x="866.17" y="24.78" width="1.55" height="52.47"/><rect class="cls-4" x="868.65" y="24.78" width="1.54" height="52.47"/><rect class="cls-4" x="869.17" y="77.24" width="1.54" height="52.47"/><rect class="cls-4" x="869.43" y="77.24" width="1.54" height="52.47"/><rect class="cls-4" x="872.16" y="24.78" width="1.54" height="52.47"/><rect class="cls-4" x="875.02" y="77.24" width="1.54" height="52.47"/><rect class="cls-4" x="876.19" y="24.78" width="1.54" height="52.47"/><rect class="cls-4" x="878.53" y="77.24" width="1.54" height="52.47"/><rect class="cls-4" x="880.61" y="24.78" width="1.54" height="52.47"/><rect class="cls-4" x="889.72" y="77.24" width="1.54" height="52.47"/><rect class="cls-4" x="891.15" y="77.24" width="1.54" height="52.47"/><rect class="cls-4" x="893.36" y="77.24" width="1.54" height="52.47"/><rect class="cls-4" x="895.83" y="77.24" width="1.55" height="52.47"/><rect class="cls-4" x="898.04" y="77.24" width="1.55" height="52.47"/><rect class="cls-4" x="899.35" y="77.24" width="1.54" height="52.47"/><rect class="cls-4" x="900.13" y="77.24" width="1.55" height="52.47"/><rect class="cls-4" x="900.64" y="24.78" width="1.54" height="52.47"/><rect class="cls-4" x="900.9" y="24.78" width="1.54" height="52.47"/><rect class="cls-4" x="903.9" y="77.24" width="1.54" height="52.47"/><rect class="cls-4" x="904.68" y="24.78" width="1.54" height="52.47"/><rect class="cls-4" x="908.06" y="77.24" width="1.55" height="52.47"/><rect class="cls-4" x="910.27" y="77.24" width="1.54" height="52.47"/><rect class="cls-4" x="912.22" y="77.24" width="1.54" height="52.47"/><rect class="cls-4" x="913.78" y="24.78" width="1.54" height="52.47"/><rect class="cls-4" x="914.17" y="24.78" width="1.54" height="52.47"/><rect class="cls-4" x="917.17" y="77.24" width="1.54" height="52.47"/><rect class="cls-4" x="922.37" y="77.24" width="1.54" height="52.47"/><rect class="cls-4" x="924.32" y="77.24" width="1.54" height="52.47"/><rect class="cls-4" x="926.79" y="77.24" width="1.55" height="52.47"/><rect class="cls-4" x="927.3" y="77.24" width="1.55" height="52.47"/><rect class="cls-4" x="929.52" y="77.24" width="1.55" height="52.47"/><rect class="cls-4" x="931.6" y="77.24" width="1.54" height="52.47"/><rect class="cls-4" x="933.29" y="24.78" width="1.55" height="52.47"/><rect class="cls-4" x="937.58" y="77.24" width="1.55" height="52.47"/><rect class="cls-4" x="944.87" y="77.24" width="1.54" height="52.47"/><rect class="cls-4" x="947.61" y="77.24" width="1.54" height="52.47"/><rect class="cls-4" x="948.26" y="77.24" width="1.54" height="52.47"/><rect class="cls-4" x="949.16" y="24.78" width="1.55" height="52.47"/><rect class="cls-4" x="950.33" y="77.24" width="1.55" height="52.47"/><rect class="cls-4" x="955.01" y="77.24" width="1.55" height="52.47"/><rect class="cls-4" x="955.28" y="77.24" width="1.54" height="52.47"/><rect class="cls-4" x="955.8" y="77.24" width="1.54" height="52.47"/><rect class="cls-4" x="965.82" y="24.78" width="1.54" height="52.47"/><rect class="cls-4" x="969.2" y="77.24" width="1.55" height="52.47"/><rect class="cls-4" x="969.59" y="77.24" width="1.54" height="52.47"/><rect class="cls-4" x="971.93" y="77.24" width="1.54" height="52.47"/><rect class="cls-4" x="974.66" y="77.24" width="1.55" height="52.47"/><rect class="cls-4" x="975.43" y="77.24" width="1.55" height="52.47"/><rect class="cls-4" x="976.74" y="24.78" width="1.55" height="52.47"/><rect class="cls-4" x="979.09" y="77.24" width="1.54" height="52.47"/><rect class="cls-4" x="979.99" y="24.78" width="1.55" height="52.47"/><rect class="cls-4" x="981.03" y="77.24" width="1.55" height="52.47"/><rect class="cls-4" x="982.08" y="24.78" width="1.54" height="52.47"/><rect class="cls-4" x="986.89" y="24.78" width="1.54" height="52.47"/><rect class="cls-4" x="990.01" y="77.24" width="1.54" height="52.47"/><rect class="cls-4" x="991.31" y="24.78" width="1.55" height="52.47"/><rect class="cls-4" x="992.61" y="77.24" width="1.55" height="52.47"/><rect class="cls-4" x="994.69" y="77.24" width="1.55" height="52.47"/><rect class="cls-4" x="997.04" y="77.24" width="1.54" height="52.47"/><rect class="cls-4" x="1001.2" y="77.24" width="1.54" height="52.47"/><rect class="cls-4" x="1003.15" y="24.78" width="1.54" height="52.47"/><rect class="cls-4" x="1005.75" y="77.24" width="1.55" height="52.47"/><rect class="cls-4" x="1008.09" y="77.24" width="1.54" height="52.47"/><rect class="cls-4" x="1016.67" y="24.78" width="1.55" height="52.47"/><rect class="cls-4" x="1017.72" y="24.78" width="1.54" height="52.47"/><rect class="cls-4" x="1020.18" y="24.78" width="1.55" height="52.47"/><rect class="cls-4" x="1021.09" y="77.24" width="1.55" height="52.47"/><rect class="cls-4" x="1022.27" y="24.78" width="1.55" height="52.47"/><rect class="cls-4" x="1023.7" y="77.24" width="1.54" height="52.47"/><rect class="cls-4" x="1031.25" y="24.78" width="1.54" height="52.47"/><rect class="cls-4" x="1031.9" y="77.24" width="1.54" height="52.47"/><rect class="cls-4" x="1033.72" y="24.78" width="1.54" height="52.47"/><rect class="cls-4" x="1035.8" y="77.24" width="1.54" height="52.47"/><rect class="cls-4" x="1038" y="77.24" width="1.55" height="52.47"/><rect class="cls-4" x="1041.65" y="24.78" width="1.54" height="52.47"/><rect class="cls-4" x="1046.2" y="77.24" width="1.54" height="52.47"/><rect class="cls-4" x="1052.71" y="24.78" width="1.54" height="52.47"/><rect class="cls-4" x="1060.64" y="24.78" width="1.55" height="52.47"/><rect class="cls-4" x="1064.02" y="77.24" width="1.55" height="52.47"/><rect class="cls-4" x="1067.66" y="24.78" width="1.55" height="52.47"/><rect class="cls-4" x="1069.22" y="77.24" width="1.55" height="52.47"/><rect class="cls-4" x="1061.95" y="24.78" width="1.54" height="52.47"/><rect class="cls-4" x="1063.11" y="24.78" width="1.54" height="52.47"/><rect class="cls-4" x="1065.58" y="24.78" width="1.55" height="52.47"/><rect class="cls-4" x="1066.5" y="77.24" width="1.54" height="52.47"/><rect class="cls-4" x="1069.75" y="77.24" width="1.54" height="52.47"/><rect class="cls-4" x="1071.05" y="24.78" width="1.55" height="52.47"/><rect class="cls-4" x="1072.21" y="24.78" width="1.55" height="52.47"/><rect class="cls-4" x="1073.26" y="77.24" width="1.54" height="52.47"/><rect class="cls-4" x="1074.43" y="77.24" width="1.54" height="52.47"/><rect class="cls-4" x="1075.08" y="24.78" width="1.55" height="52.47"/><rect class="cls-4" x="1077.42" y="24.78" width="1.55" height="52.47"/><rect class="cls-4" x="1083.41" y="77.24" width="1.54" height="52.47"/><rect class="cls-4" x="1086.01" y="77.24" width="1.54" height="52.47"/><rect class="cls-4" x="1087.57" y="24.78" width="1.54" height="52.47"/><rect class="cls-4" x="1088.22" y="77.24" width="1.55" height="52.47"/><rect class="cls-4" x="1104.61" y="77.24" width="1.54" height="52.47"/><rect class="cls-4" x="1104.87" y="77.24" width="1.54" height="52.47"/><rect class="cls-4" x="1114.24" y="24.78" width="1.54" height="52.47"/><rect class="cls-4" x="1116.31" y="77.24" width="1.55" height="52.47"/><rect class="cls-4" x="1116.58" y="24.78" width="1.54" height="52.47"/><rect class="cls-4" x="1119.7" y="24.78" width="1.55" height="52.47"/><rect class="cls-4" x="1120.35" y="24.78" width="1.55" height="52.47"/><rect class="cls-4" x="1140.25" y="77.24" width="1.54" height="52.47"/><rect class="cls-4" x="1141.03" y="24.78" width="1.55" height="52.47"/><rect class="cls-4" x="1144.03" y="77.24" width="1.54" height="52.47"/><rect class="cls-4" x="1145.46" y="77.24" width="1.54" height="52.47"/><rect class="cls-4" x="1145.98" y="77.24" width="1.54" height="52.47"/><rect class="cls-4" x="1146.63" y="77.24" width="1.54" height="52.47"/><rect class="cls-4" x="1162.89" y="24.78" width="1.54" height="52.47"/><rect class="cls-4" x="1167.18" y="24.78" width="1.54" height="52.47"/><rect class="cls-4" x="1168.74" y="77.24" width="1.55" height="52.47"/><rect class="cls-4" x="1171.99" y="77.24" width="1.55" height="52.47"/><rect class="cls-4" x="1180.32" y="24.78" width="1.54" height="52.47"/><rect class="cls-4" x="1184.74" y="24.78" width="1.55" height="52.47"/><rect class="cls-4" x="1185.53" y="24.78" width="1.54" height="52.47"/><rect class="cls-4" x="1190.46" y="24.78" width="1.55" height="52.47"/><rect class="cls-4" x="1191.89" y="24.78" width="1.55" height="52.47"/><rect class="cls-4" x="1199.18" y="24.78" width="1.54" height="52.47"/><rect class="cls-4" x="1199.83" y="24.78" width="1.54" height="52.47"/><polygon class="cls-1" points="268.48 60.02 257.57 77.24 279.39 77.24 268.48 60.02"/><polygon class="cls-1" points="347.31 60.02 336.4 77.24 358.22 77.24 347.31 60.02"/><polygon class="cls-1" points="499.76 60.02 488.86 77.24 510.67 77.24 499.76 60.02"/><polygon class="cls-1" points="569.23 60.02 558.32 77.24 580.13 77.24 569.23 60.02"/><polygon class="cls-1" points="613.2 60.02 602.29 77.24 624.1 77.24 613.2 60.02"/><polygon class="cls-1" points="682.01 60.02 671.1 77.24 692.92 77.24 682.01 60.02"/><polygon class="cls-1" points="691.89 60.02 680.98 77.24 702.8 77.24 691.89 60.02"/><polygon class="cls-1" points="697.74 60.02 686.84 77.24 708.66 77.24 697.74 60.02"/><polygon class="cls-1" points="888.05 60.02 877.14 77.24 898.97 77.24 888.05 60.02"/><polygon class="cls-1" points="935.93 60.02 925.02 77.24 946.84 77.24 935.93 60.02"/><polygon class="cls-1" points="989.12 60.02 978.22 77.24 1000.04 77.24 989.12 60.02"/><polygon class="cls-1" points="993.81 60.02 982.9 77.24 1004.72 77.24 993.81 60.02"/><polygon class="cls-1" points="1140.02 60.02 1129.11 77.24 1150.92 77.24 1140.02 60.02"/><polygon class="cls-1" points="1164.87 60.02 1153.95 77.24 1175.78 77.24 1164.87 60.02"/><polygon class="cls-1" points="247.15 112.48 236.24 129.72 258.06 129.72 247.15 112.48"/><polygon class="cls-1" points="293.64 112.48 282.73 129.72 304.55 129.72 293.64 112.48"/><polygon class="cls-1" points="300.1 112.48 289.19 129.72 311 129.72 300.1 112.48"/><polygon class="cls-1" points="504.06 112.48 493.15 129.72 514.96 129.72 504.06 112.48"/><polygon class="cls-1" points="547.38 112.48 536.47 129.72 558.28 129.72 547.38 112.48"/><polygon class="cls-1" points="584.97 112.48 574.06 129.72 595.88 129.72 584.97 112.48"/><polygon class="cls-1" points="638.04 112.48 627.13 129.72 648.95 129.72 638.04 112.48"/><polygon class="cls-1" points="756.28 112.48 745.37 129.72 767.19 129.72 756.28 112.48"/><polygon class="cls-1" points="749.44 112.48 738.53 129.72 760.35 129.72 749.44 112.48"/><polygon class="cls-1" points="788.16 112.48 777.24 129.72 799.05 129.72 788.16 112.48"/><polygon class="cls-1" points="800.12 112.48 789.21 129.72 811.03 129.72 800.12 112.48"/><polygon class="cls-1" points="807.4 112.48 796.5 129.72 818.31 129.72 807.4 112.48"/><polygon class="cls-1" points="811.18 112.48 800.27 129.72 822.08 129.72 811.18 112.48"/><polygon class="cls-1" points="959.34 112.48 948.43 129.72 970.25 129.72 959.34 112.48"/><polygon class="cls-1" points="983.27 112.48 972.37 129.72 994.18 129.72 983.27 112.48"/><polygon class="cls-1" points="1003.31 112.48 992.39 129.72 1014.22 129.72 1003.31 112.48"/><polygon class="cls-1" points="1026.72 112.48 1015.81 129.72 1037.63 129.72 1026.72 112.48"/><polygon class="cls-1" points="1050.39 112.48 1039.48 129.72 1061.3 129.72 1050.39 112.48"/><polygon class="cls-1" points="1102.17 112.48 1091.26 129.72 1113.07 129.72 1102.17 112.48"/><polygon class="cls-1" points="1113.09 112.48 1102.19 129.72 1124.01 129.72 1113.09 112.48"/><path class="cls-5" d="M1138.38,93.49a10.4,10.4,0,1,0,10.41-10.39A10.4,10.4,0,0,0,1138.38,93.49Z"/><rect class="cls-5" x="1147.43" y="101.16" width="2.6" height="28.55"/><polygon class="cls-1" points="1148.73 112.48 1137.83 129.71 1159.64 129.71 1148.73 112.48"/><rect class="cls-1" x="944.1" y="2.34" width="1.33" height="22.43"/><path class="cls-6" d="M1164.56,228.21l-.56-.83a74.44,74.44,0,0,0,3.56-120.55l.61-.79a75.44,75.44,0,0,1-3.61,122.17Z"/><polygon class="cls-6" points="1171.89 103.31 1161.97 102.35 1166.1 111.43 1171.89 103.31"/><path class="cls-6" d="M1046.47,238v-14.2h2.24V236h7.62v2Z"/><path class="cls-6" d="M1062.73,223.79h2l5.6,14.2h-2.36l-1.5-3.86h-5.48l-1.48,3.86h-2.38Zm3.26,8.68-2.28-6.1-2.36,6.1Z"/><path class="cls-6" d="M1080.63,227.13a3.09,3.09,0,0,0-.58-.47,5.83,5.83,0,0,0-.89-.47,6.54,6.54,0,0,0-1.12-.36,5.61,5.61,0,0,0-1.25-.14,3.41,3.41,0,0,0-2.09.52,1.72,1.72,0,0,0-.67,1.44,1.56,1.56,0,0,0,.21.85,1.79,1.79,0,0,0,.65.58,5.1,5.1,0,0,0,1.1.44l1.54.41a17.6,17.6,0,0,1,2,.58,5.56,5.56,0,0,1,1.47.78,3.18,3.18,0,0,1,.93,1.13,3.66,3.66,0,0,1,.33,1.63,4,4,0,0,1-.41,1.86,3.5,3.5,0,0,1-1.12,1.27,5,5,0,0,1-1.65.72,8.48,8.48,0,0,1-2,.23,10.09,10.09,0,0,1-3.13-.49,9,9,0,0,1-2.73-1.43l1-1.92a4.67,4.67,0,0,0,.75.58,6.91,6.91,0,0,0,1.14.59,9.8,9.8,0,0,0,1.41.46,6.48,6.48,0,0,0,1.58.19,3.79,3.79,0,0,0,2-.46,1.51,1.51,0,0,0,.72-1.36,1.46,1.46,0,0,0-.27-.9,2.33,2.33,0,0,0-.77-.63,6.73,6.73,0,0,0-1.22-.49q-.72-.22-1.64-.46a17.07,17.07,0,0,1-1.85-.59,4.65,4.65,0,0,1-1.31-.75,2.94,2.94,0,0,1-.79-1,3.42,3.42,0,0,1-.27-1.43,4.13,4.13,0,0,1,.4-1.85,4,4,0,0,1,1.09-1.36,4.77,4.77,0,0,1,1.63-.83,7.09,7.09,0,0,1,2-.28,7.48,7.48,0,0,1,2.66.46,8.8,8.8,0,0,1,2.14,1.14Z"/><path class="cls-6" d="M1095.17,225.77h-4.72V238h-2.26V225.77h-4.74v-2h11.72Z"/><path class="cls-6" d="M1112.19,236.23a5.6,5.6,0,0,1-4.14,1.86,6,6,0,0,1-2.64-.59,6.8,6.8,0,0,1-2.12-1.59,7.42,7.42,0,0,1-1.41-2.32,7.59,7.59,0,0,1-.51-2.76,7.44,7.44,0,0,1,.51-2.74,7.25,7.25,0,0,1,1.41-2.28,6.65,6.65,0,0,1,2.14-1.55,7,7,0,0,1,6.12.28,5.5,5.5,0,0,1,2.08,2.25l-1.72,1.24a4,4,0,0,0-1.6-1.74,4.45,4.45,0,0,0-2.24-.58,3.85,3.85,0,0,0-1.82.43,4.45,4.45,0,0,0-1.4,1.14,5.1,5.1,0,0,0-.89,1.65,6.2,6.2,0,0,0-.31,2,5.74,5.74,0,0,0,.35,2,5.24,5.24,0,0,0,1,1.64,4.54,4.54,0,0,0,1.45,1.11,4.09,4.09,0,0,0,1.82.41,4.54,4.54,0,0,0,2.07-.5,6.08,6.08,0,0,0,1.89-1.58v-1.52h-3v-1.66h4.86V238h-1.88Z"/><path class="cls-6" d="M1122.93,238.09a6.23,6.23,0,0,1-2.77-.61,6.92,6.92,0,0,1-2.15-1.62,7.31,7.31,0,0,1-1.39-2.31,7.48,7.48,0,0,1-.49-2.66,7.25,7.25,0,0,1,.52-2.72,7.54,7.54,0,0,1,1.43-2.3,6.84,6.84,0,0,1,2.16-1.59,6.31,6.31,0,0,1,2.73-.59,6.07,6.07,0,0,1,2.77.63,7,7,0,0,1,2.14,1.65,7.58,7.58,0,0,1,1.38,2.31,7.41,7.41,0,0,1,0,5.35,7.18,7.18,0,0,1-1.43,2.29,7,7,0,0,1-2.17,1.58A6.27,6.27,0,0,1,1122.93,238.09Zm-4.52-7.2a6,6,0,0,0,.32,1.94,5.27,5.27,0,0,0,.91,1.66,4.45,4.45,0,0,0,1.43,1.15,4.07,4.07,0,0,0,1.88.43,4,4,0,0,0,1.91-.45,4.5,4.5,0,0,0,1.41-1.19,5.37,5.37,0,0,0,.88-1.66,6,6,0,0,0,.3-1.88,6,6,0,0,0-.32-2,5.19,5.19,0,0,0-.91-1.64,4.56,4.56,0,0,0-1.42-1.14,4.26,4.26,0,0,0-3.77,0,4.56,4.56,0,0,0-1.42,1.17,5.23,5.23,0,0,0-.89,1.65A5.93,5.93,0,0,0,1118.41,230.89Z"/><path class="cls-6" d="M1136.15,223.79h2l5.6,14.2h-2.36l-1.5-3.86h-5.48l-1.48,3.86h-2.38Zm3.26,8.68-2.28-6.1-2.36,6.1Z"/><path class="cls-6" d="M1145.87,238v-14.2h2.24V236h7.62v2Z"/><path class="cls-6" d="M997.17,263.09a6.23,6.23,0,0,1-2.77-.61,6.92,6.92,0,0,1-2.15-1.62,7.31,7.31,0,0,1-1.39-2.31,7.48,7.48,0,0,1-.49-2.66,7.25,7.25,0,0,1,.52-2.72,7.54,7.54,0,0,1,1.43-2.3,6.84,6.84,0,0,1,2.16-1.59,6.31,6.31,0,0,1,2.73-.59,6.07,6.07,0,0,1,2.77.63,7,7,0,0,1,2.14,1.65,7.58,7.58,0,0,1,1.38,2.31,7.41,7.41,0,0,1,0,5.35,7.18,7.18,0,0,1-1.43,2.29,7,7,0,0,1-2.17,1.58A6.27,6.27,0,0,1,997.17,263.09Zm-4.52-7.2a6,6,0,0,0,.32,1.94,5.27,5.27,0,0,0,.91,1.66,4.45,4.45,0,0,0,1.43,1.15,4.07,4.07,0,0,0,1.88.43,4,4,0,0,0,1.91-.45,4.5,4.5,0,0,0,1.41-1.19,5.37,5.37,0,0,0,.88-1.66,6,6,0,0,0,.3-1.88,6,6,0,0,0-.32-2,5.19,5.19,0,0,0-.91-1.64,4.56,4.56,0,0,0-1.42-1.14,4.26,4.26,0,0,0-3.77,0,4.56,4.56,0,0,0-1.42,1.17A5.23,5.23,0,0,0,993,254,5.93,5.93,0,0,0,992.65,255.89Z"/><path class="cls-6" d="M1006.71,263v-14.2h9.46v2h-7.22V255h6v1.86h-6V263Z"/><path class="cls-6" d="M1033.45,250.77h-4.72V263h-2.26V250.77h-4.74v-2h11.72Z"/><path class="cls-6" d="M1047.41,248.79V263h-2.26v-6.26H1038V263h-2.24v-14.2H1038v5.94h7.16v-5.94Z"/><path class="cls-6" d="M1060.75,261v2H1051v-14.2h9.56v2h-7.32v4h6.34v1.86h-6.34V261Z"/><path class="cls-6" d="M1078.67,250.77h-4.72V263h-2.26V250.77h-4.74v-2h11.72Z"/><path class="cls-6" d="M1086.21,263.09a6.23,6.23,0,0,1-2.77-.61,6.92,6.92,0,0,1-2.15-1.62,7.31,7.31,0,0,1-1.39-2.31,7.48,7.48,0,0,1-.49-2.66,7.25,7.25,0,0,1,.52-2.72,7.54,7.54,0,0,1,1.43-2.3,6.84,6.84,0,0,1,2.16-1.59,6.31,6.31,0,0,1,2.73-.59,6.07,6.07,0,0,1,2.77.63,7,7,0,0,1,2.14,1.65,7.58,7.58,0,0,1,1.38,2.31,7.41,7.41,0,0,1,0,5.35,7.18,7.18,0,0,1-1.43,2.29,7,7,0,0,1-2.17,1.58A6.27,6.27,0,0,1,1086.21,263.09Zm-4.52-7.2a6,6,0,0,0,.32,1.94,5.27,5.27,0,0,0,.91,1.66,4.45,4.45,0,0,0,1.43,1.15,4.07,4.07,0,0,0,1.88.43,4,4,0,0,0,1.91-.45,4.5,4.5,0,0,0,1.41-1.19,5.37,5.37,0,0,0,.88-1.66,6,6,0,0,0,.3-1.88,6,6,0,0,0-.32-2,5.19,5.19,0,0,0-.91-1.64,4.56,4.56,0,0,0-1.42-1.14,4.26,4.26,0,0,0-3.77,0,4.56,4.56,0,0,0-1.42,1.17A5.23,5.23,0,0,0,1082,254,5.93,5.93,0,0,0,1081.69,255.89Z"/><path class="cls-6" d="M1101.67,261.07a3.58,3.58,0,0,0,1.86-.44,3.5,3.5,0,0,0,1.19-1.15,4.85,4.85,0,0,0,.64-1.62,9.14,9.14,0,0,0,.19-1.87v-7.2h2.26V256a10.76,10.76,0,0,1-.34,2.75,6.35,6.35,0,0,1-1.08,2.26,5.15,5.15,0,0,1-1.91,1.53,6.47,6.47,0,0,1-2.81.56,6.33,6.33,0,0,1-2.87-.59,5.17,5.17,0,0,1-1.89-1.58,6.48,6.48,0,0,1-1-2.27,10.9,10.9,0,0,1-.32-2.66v-7.2h2.24V256a9.2,9.2,0,0,0,.19,1.89,4.83,4.83,0,0,0,.64,1.62,3.4,3.4,0,0,0,1.2,1.14A3.67,3.67,0,0,0,1101.67,261.07Z"/><path class="cls-6" d="M1111.19,263v-14.2h6.18a3.94,3.94,0,0,1,1.77.4,4.52,4.52,0,0,1,1.39,1,5,5,0,0,1,.91,1.48,4.54,4.54,0,0,1,.33,1.69,4.73,4.73,0,0,1-.2,1.38A4.82,4.82,0,0,1,1121,256a3.93,3.93,0,0,1-.88,1,3.62,3.62,0,0,1-1.14.61l3.34,5.4h-2.54l-3.08-4.94h-3.28V263Zm2.24-6.92h3.92a1.81,1.81,0,0,0,.87-.21,2,2,0,0,0,.67-.58,3,3,0,0,0,.44-.85,3.21,3.21,0,0,0,.16-1,2.74,2.74,0,0,0-.19-1,2.94,2.94,0,0,0-.5-.84,2.38,2.38,0,0,0-.72-.57,1.84,1.84,0,0,0-.85-.21h-3.8Z"/><path class="cls-6" d="M1127,253v10h-2.24v-14.2h1.76l8.12,10.24V248.81h2.26V263h-1.86Z"/><path class="cls-6" d="M1144.73,248.79h2l5.6,14.2h-2.36l-1.5-3.86h-5.48l-1.48,3.86h-2.38Zm3.26,8.68-2.28-6.1-2.36,6.1Z"/><path class="cls-6" d="M1166.39,263V252.77l-4.22,7.74h-1.24l-4.24-7.74V263h-2.24v-14.2h2.4l4.7,8.68,4.7-8.68h2.4V263Z"/><path class="cls-6" d="M1182,261v2h-9.74v-14.2h9.56v2h-7.32v4h6.34v1.86h-6.34V261Z"/><path class="cls-6" d="M1186.95,253v10h-2.24v-14.2h1.76l8.12,10.24V248.81h2.26V263H1195Z"/><path class="cls-6" d="M1210.87,250.77h-4.72V263h-2.26V250.77h-4.74v-2h11.72Z"/><path class="cls-1" d="M960.35,16.58a5,5,0,0,1-2.22-.49,5.51,5.51,0,0,1-1.72-1.3,5.84,5.84,0,0,1-1.11-1.85,6,6,0,0,1-.39-2.13,5.81,5.81,0,0,1,.42-2.18,6.05,6.05,0,0,1,1.14-1.84,5.46,5.46,0,0,1,1.73-1.27,5.05,5.05,0,0,1,2.18-.47,4.84,4.84,0,0,1,2.22.5,5.58,5.58,0,0,1,1.71,1.32,6.05,6.05,0,0,1,1.1,1.85,5.92,5.92,0,0,1,0,4.28,5.74,5.74,0,0,1-1.14,1.83,5.61,5.61,0,0,1-1.74,1.26A5,5,0,0,1,960.35,16.58Zm-3.62-5.76a4.78,4.78,0,0,0,.26,1.55,4.21,4.21,0,0,0,.73,1.33,3.56,3.56,0,0,0,1.14.92,3.25,3.25,0,0,0,1.5.34,3.15,3.15,0,0,0,1.53-.36,3.59,3.59,0,0,0,1.13-1,4.29,4.29,0,0,0,.7-1.33,4.85,4.85,0,0,0,0-3.06A4.14,4.14,0,0,0,963,7.95,3.63,3.63,0,0,0,961.85,7a3.17,3.17,0,0,0-1.48-.34,3.2,3.2,0,0,0-1.54.36A3.65,3.65,0,0,0,957.7,8,4.19,4.19,0,0,0,957,9.31,4.75,4.75,0,0,0,956.74,10.82Z"/><path class="cls-1" d="M968.29,5.14l3.42,9.1,3.41-9.1H977L972.48,16.5h-1.54L966.38,5.14Z"/><path class="cls-1" d="M986.53,14.91V16.5h-7.79V5.14h7.65V6.72h-5.86V10h5.07v1.49h-5.07v3.47Z"/><path class="cls-1" d="M988.7,16.5V5.14h4.94a3.16,3.16,0,0,1,1.42.32,3.64,3.64,0,0,1,1.11.84,4,4,0,0,1,.73,1.18,3.63,3.63,0,0,1,.26,1.35,3.8,3.8,0,0,1-.16,1.1,3.89,3.89,0,0,1-.45,1,3.16,3.16,0,0,1-.7.78,2.9,2.9,0,0,1-.91.49l2.67,4.32h-2l-2.46-4H990.5v4ZM990.5,11h3.14a1.44,1.44,0,0,0,.7-.17,1.65,1.65,0,0,0,.54-.46,2.35,2.35,0,0,0,.35-.68,2.56,2.56,0,0,0,.13-.82,2.21,2.21,0,0,0-.15-.82,2.36,2.36,0,0,0-.4-.67,1.91,1.91,0,0,0-.58-.46,1.48,1.48,0,0,0-.68-.17h-3Z"/><path class="cls-1" d="M1007.76,6.72H1004V16.5h-1.81V6.72h-3.79V5.14h9.38Z"/><path class="cls-1" d="M1009.6,16.5V5.14h1.79V16.5Z"/><path class="cls-1" d="M1023.82,16.5V8.32l-3.38,6.19h-1l-3.39-6.19V16.5h-1.79V5.14h1.92l3.76,6.94,3.76-6.94h1.92V16.5Z"/><path class="cls-1" d="M1036.3,14.91V16.5h-7.79V5.14h7.65V6.72h-5.86V10h5.07v1.49h-5.07v3.47Z"/></svg>