<svg id="Layer_1" data-name="Layer 1" xmlns="http://www.w3.org/2000/svg" viewBox="0 0 1280 177"><defs><style>.cls-1{fill:#fdc659;}.cls-2{fill:#333132;}.cls-3{fill:#ee3e23;}</style></defs><title>yg-umbro-wireframes-170817-2130--slicing</title><rect class="cls-1" x="301.93" y="67.6" width="1.55" height="52.61"/><path class="cls-2" d="M187.61,110.12h1.57l4.48,11.36h-1.89l-1.2-3.09h-4.38L185,121.48h-1.9Zm2.61,6.94-1.82-4.88-1.89,4.88Z"/><path class="cls-2" d="M195.07,121.48V110.12H200a3.15,3.15,0,0,1,1.42.32,3.64,3.64,0,0,1,1.11.84,4,4,0,0,1,.73,1.18,3.64,3.64,0,0,1,.26,1.35,3.79,3.79,0,0,1-.16,1.1,3.88,3.88,0,0,1-.45,1,3.15,3.15,0,0,1-.7.78,2.9,2.9,0,0,1-.91.49l2.67,4.32h-2l-2.46-4h-2.62v4Zm1.79-5.54H200a1.44,1.44,0,0,0,.7-.17,1.65,1.65,0,0,0,.54-.46,2.34,2.34,0,0,0,.35-.68,2.56,2.56,0,0,0,.13-.82,2.2,2.2,0,0,0-.15-.82,2.35,2.35,0,0,0-.4-.67,1.89,1.89,0,0,0-.58-.46,1.47,1.47,0,0,0-.68-.17h-3Z"/><path class="cls-2" d="M213.6,120.08a4.48,4.48,0,0,1-3.31,1.49,4.78,4.78,0,0,1-2.11-.47,5.44,5.44,0,0,1-1.7-1.27,6,6,0,0,1-1.13-1.86,6.07,6.07,0,0,1-.41-2.21,6,6,0,0,1,.41-2.19,5.8,5.8,0,0,1,1.13-1.82,5.3,5.3,0,0,1,1.71-1.24,5.61,5.61,0,0,1,4.9.22,4.39,4.39,0,0,1,1.66,1.8l-1.38,1a3.19,3.19,0,0,0-1.28-1.39,3.56,3.56,0,0,0-1.79-.46,3.08,3.08,0,0,0-1.46.34,3.58,3.58,0,0,0-1.12.91,4.09,4.09,0,0,0-.71,1.32,5,5,0,0,0-.25,1.57,4.59,4.59,0,0,0,.28,1.62,4.2,4.2,0,0,0,.77,1.31,3.64,3.64,0,0,0,1.16.89,3.27,3.27,0,0,0,1.46.33,3.63,3.63,0,0,0,1.66-.4,4.86,4.86,0,0,0,1.51-1.26v-1.22h-2.38v-1.33h3.89v5.74h-1.5Z"/><path class="cls-2" d="M224.94,119.9v1.58h-7.79V110.12h7.65v1.58h-5.86v3.23H224v1.49h-5.07v3.47Z"/><path class="cls-2" d="M228.59,113.48v8H226.8V110.12h1.41l6.5,8.19v-8.18h1.81v11.34H235Z"/><path class="cls-2" d="M247.4,111.71h-3.78v9.78h-1.81v-9.78H238v-1.58h9.38Z"/><path class="cls-2" d="M248.92,121.48V110.12h1.79v11.36Z"/><path class="cls-2" d="M255.07,113.48v8h-1.79V110.12h1.41l6.5,8.19v-8.18H263v11.34H261.5Z"/><path class="cls-2" d="M268.89,110.12h1.57l4.48,11.36h-1.89l-1.2-3.09h-4.38l-1.18,3.09h-1.9Zm2.61,6.94-1.82-4.88-1.89,4.88Z"/><path class="cls-2" d="M214.64,165.73v8h-1.79V162.37h1.41l6.5,8.19v-8.18h1.81v11.34h-1.49Z"/><path class="cls-2" d="M225.12,173.73V162.37h1.79v11.36Z"/><path class="cls-2" d="M237.42,172.33a4.48,4.48,0,0,1-3.31,1.49,4.78,4.78,0,0,1-2.11-.47,5.44,5.44,0,0,1-1.7-1.27,6,6,0,0,1-1.13-1.86,6.07,6.07,0,0,1-.41-2.21,6,6,0,0,1,.41-2.19A5.8,5.8,0,0,1,230.3,164a5.3,5.3,0,0,1,1.71-1.24,5.61,5.61,0,0,1,4.9.22,4.39,4.39,0,0,1,1.66,1.8l-1.38,1a3.19,3.19,0,0,0-1.28-1.39,3.56,3.56,0,0,0-1.79-.46,3.08,3.08,0,0,0-1.46.34,3.58,3.58,0,0,0-1.12.91,4.09,4.09,0,0,0-.71,1.32,5,5,0,0,0-.25,1.57,4.59,4.59,0,0,0,.28,1.62,4.2,4.2,0,0,0,.77,1.31,3.64,3.64,0,0,0,1.16.89,3.27,3.27,0,0,0,1.46.33,3.63,3.63,0,0,0,1.66-.4,4.86,4.86,0,0,0,1.51-1.26v-1.22H235V168h3.89v5.74h-1.5Z"/><path class="cls-2" d="M248.76,172.15v1.58H241V162.37h7.65V164h-5.86v3.23h5.07v1.49h-5.07v3.47Z"/><path class="cls-2" d="M250.62,173.73V162.37h4.94a3.15,3.15,0,0,1,1.42.32,3.64,3.64,0,0,1,1.11.84,4,4,0,0,1,.73,1.18,3.64,3.64,0,0,1,.26,1.35,3.79,3.79,0,0,1-.16,1.1,3.88,3.88,0,0,1-.45,1,3.15,3.15,0,0,1-.7.78,2.9,2.9,0,0,1-.91.49l2.67,4.32h-2l-2.46-4h-2.62v4Zm1.79-5.54h3.14a1.44,1.44,0,0,0,.7-.17,1.65,1.65,0,0,0,.54-.46,2.34,2.34,0,0,0,.35-.68,2.56,2.56,0,0,0,.13-.82,2.2,2.2,0,0,0-.15-.82,2.35,2.35,0,0,0-.4-.67,1.89,1.89,0,0,0-.58-.46,1.47,1.47,0,0,0-.68-.17h-3Z"/><path class="cls-2" d="M261.2,173.73V162.37H263v11.36Z"/><path class="cls-2" d="M268.89,162.37h1.57l4.48,11.36h-1.89l-1.2-3.09h-4.38l-1.18,3.09h-1.9Zm2.61,6.94-1.82-4.88-1.89,4.88Z"/><rect class="cls-1" x="306.1" y="67.6" width="1.55" height="52.61"/><rect class="cls-1" x="310.28" y="67.6" width="1.55" height="52.61"/><rect class="cls-1" x="314.32" y="67.6" width="1.55" height="52.61"/><rect class="cls-1" x="320.33" y="67.6" width="1.55" height="52.61"/><rect class="cls-1" x="321.89" y="67.6" width="1.55" height="52.61"/><rect class="cls-1" x="323.85" y="67.6" width="1.55" height="52.61"/><rect class="cls-1" x="326.07" y="67.6" width="1.54" height="52.61"/><rect class="cls-1" x="332.2" y="67.6" width="1.55" height="52.61"/><rect class="cls-1" x="332.85" y="67.6" width="1.55" height="52.61"/><rect class="cls-1" x="335.59" y="67.6" width="1.55" height="52.61"/><rect class="cls-1" x="337.55" y="67.6" width="1.55" height="52.61"/><rect class="cls-1" x="339.64" y="67.6" width="1.55" height="52.61"/><rect class="cls-1" x="341.6" y="67.6" width="1.55" height="52.61"/><rect class="cls-1" x="346.42" y="67.6" width="1.55" height="52.61"/><rect class="cls-1" x="354.9" y="67.6" width="1.55" height="52.61"/><rect class="cls-1" x="355.16" y="67.6" width="1.55" height="52.61"/><rect class="cls-1" x="356.73" y="67.6" width="1.55" height="52.61"/><rect class="cls-1" x="365.08" y="67.6" width="1.54" height="52.61"/><rect class="cls-1" x="366.64" y="67.6" width="1.55" height="52.61"/><rect class="cls-1" x="368.21" y="67.6" width="1.55" height="52.61"/><rect class="cls-1" x="369.51" y="67.6" width="1.54" height="52.61"/><rect class="cls-1" x="373.69" y="67.6" width="1.55" height="52.61"/><rect class="cls-1" x="375.51" y="67.6" width="1.55" height="52.61"/><rect class="cls-1" x="387.12" y="67.6" width="1.55" height="52.61"/><rect class="cls-1" x="396.78" y="67.6" width="1.55" height="52.61"/><rect class="cls-1" x="400.04" y="67.6" width="1.55" height="52.61"/><rect class="cls-1" x="400.43" y="67.6" width="1.54" height="52.61"/><rect class="cls-1" x="400.95" y="67.6" width="1.55" height="52.61"/><rect class="cls-1" x="402.65" y="67.6" width="1.55" height="52.61"/><rect class="cls-1" x="411.39" y="67.6" width="1.54" height="52.61"/><rect class="cls-1" x="413.48" y="67.6" width="1.55" height="52.61"/><rect class="cls-1" x="415.17" y="67.6" width="1.54" height="52.61"/><rect class="cls-1" x="417.39" y="67.6" width="1.55" height="52.61"/><rect class="cls-1" x="417.78" y="67.6" width="1.55" height="52.61"/><rect class="cls-1" x="418.44" y="67.6" width="1.55" height="52.61"/><rect class="cls-1" x="424.31" y="67.6" width="1.54" height="52.61"/><rect class="cls-1" x="425.87" y="67.6" width="1.55" height="52.61"/><rect class="cls-1" x="430.57" y="67.6" width="1.55" height="52.61"/><rect class="cls-1" x="438.66" y="67.6" width="1.55" height="52.61"/><rect class="cls-1" x="439.05" y="67.6" width="1.54" height="52.61"/><rect class="cls-1" x="443.09" y="67.6" width="1.54" height="52.61"/><rect class="cls-1" x="460.32" y="67.6" width="1.55" height="52.61"/><rect class="cls-1" x="460.71" y="67.6" width="1.55" height="52.61"/><rect class="cls-1" x="462.79" y="67.6" width="1.55" height="52.61"/><rect class="cls-1" x="463.44" y="67.6" width="1.55" height="52.61"/><rect class="cls-1" x="465.14" y="67.6" width="1.55" height="52.61"/><rect class="cls-1" x="465.8" y="67.6" width="1.55" height="52.61"/><rect class="cls-1" x="478.19" y="67.6" width="1.55" height="52.61"/><rect class="cls-1" x="482.75" y="67.6" width="1.55" height="52.61"/><rect class="cls-1" x="499.71" y="67.6" width="1.55" height="52.61"/><rect class="cls-1" x="501.54" y="67.6" width="1.55" height="52.61"/><rect class="cls-1" x="503.1" y="67.6" width="1.55" height="52.61"/><rect class="cls-1" x="525.55" y="67.6" width="1.55" height="52.61"/><rect class="cls-1" x="527.12" y="67.6" width="1.54" height="52.61"/><rect class="cls-1" x="528.68" y="67.6" width="1.55" height="52.61"/><rect class="cls-1" x="530.37" y="67.6" width="1.55" height="52.61"/><rect class="cls-1" x="531.94" y="67.6" width="1.55" height="52.61"/><rect class="cls-1" x="533.64" y="67.6" width="1.55" height="52.61"/><rect class="cls-1" x="535.47" y="67.6" width="1.55" height="52.61"/><rect class="cls-1" x="537.03" y="67.6" width="1.55" height="52.61"/><rect class="cls-1" x="540.42" y="67.6" width="1.55" height="52.61"/><rect class="cls-1" x="541.99" y="67.6" width="1.55" height="52.61"/><rect class="cls-1" x="543.94" y="67.6" width="1.55" height="52.61"/><rect class="cls-1" x="546.29" y="67.6" width="1.55" height="52.61"/><rect class="cls-1" x="547.07" y="67.6" width="1.55" height="52.61"/><rect class="cls-1" x="568.21" y="67.6" width="1.55" height="52.61"/><rect class="cls-1" x="570.82" y="67.6" width="1.55" height="52.61"/><rect class="cls-1" x="579.95" y="67.6" width="1.54" height="52.61"/><rect class="cls-1" x="583.08" y="67.6" width="1.55" height="52.61"/><rect class="cls-1" x="587.51" y="67.6" width="1.55" height="52.61"/><rect class="cls-1" x="594.43" y="67.6" width="1.55" height="52.61"/><rect class="cls-1" x="595.47" y="67.6" width="1.55" height="52.61"/><rect class="cls-1" x="605.65" y="67.6" width="1.55" height="52.61"/><rect class="cls-1" x="612.04" y="67.6" width="1.55" height="52.61"/><rect class="cls-1" x="613.74" y="67.6" width="1.54" height="52.61"/><rect class="cls-1" x="628.61" y="67.6" width="1.55" height="52.61"/><rect class="cls-1" x="634.09" y="67.6" width="1.55" height="52.61"/><rect class="cls-1" x="637.09" y="67.6" width="1.55" height="52.61"/><rect class="cls-1" x="652.75" y="67.6" width="1.55" height="52.61"/><rect class="cls-1" x="654.84" y="67.6" width="1.55" height="52.61"/><rect class="cls-1" x="661.23" y="67.6" width="1.55" height="52.61"/><rect class="cls-1" x="658.23" y="67.6" width="1.55" height="52.61"/><rect class="cls-1" x="659.79" y="67.6" width="1.55" height="52.61"/><rect class="cls-1" x="668.67" y="67.6" width="1.55" height="52.61"/><rect class="cls-1" x="669.71" y="67.6" width="1.54" height="52.61"/><rect class="cls-1" x="675.19" y="67.6" width="1.54" height="52.61"/><rect class="cls-1" x="676.76" y="67.6" width="1.55" height="52.61"/><rect class="cls-1" x="678.32" y="67.6" width="1.55" height="52.61"/><rect class="cls-1" x="680.15" y="67.6" width="1.55" height="52.61"/><rect class="cls-1" x="684.32" y="67.6" width="1.55" height="52.61"/><rect class="cls-1" x="688.62" y="67.6" width="1.55" height="52.61"/><rect class="cls-1" x="689.93" y="67.6" width="1.55" height="52.61"/><rect class="cls-1" x="691.63" y="67.6" width="1.55" height="52.61"/><rect class="cls-1" x="693.45" y="67.6" width="1.55" height="52.61"/><rect class="cls-1" x="695.54" y="67.6" width="1.54" height="52.61"/><rect class="cls-1" x="697.5" y="67.6" width="1.55" height="52.61"/><rect class="cls-1" x="710.68" y="67.6" width="1.54" height="52.61"/><rect class="cls-1" x="710.94" y="67.6" width="1.55" height="52.61"/><rect class="cls-1" x="714.46" y="67.6" width="1.55" height="52.61"/><rect class="cls-1" x="716.28" y="67.6" width="1.55" height="52.61"/><rect class="cls-1" x="723.72" y="67.6" width="1.55" height="52.61"/><rect class="cls-1" x="725.41" y="67.6" width="1.55" height="52.61"/><rect class="cls-1" x="726.98" y="67.6" width="1.55" height="52.61"/><rect class="cls-1" x="730.24" y="67.6" width="1.55" height="52.61"/><rect class="cls-1" x="730.38" y="67.6" width="1.55" height="52.61"/><rect class="cls-1" x="735.33" y="67.6" width="1.55" height="52.61"/><rect class="cls-1" x="739.9" y="67.6" width="1.55" height="52.61"/><rect class="cls-1" x="740.55" y="67.6" width="1.55" height="52.61"/><rect class="cls-1" x="744.34" y="67.6" width="1.55" height="52.61"/><rect class="cls-1" x="745.9" y="67.6" width="1.55" height="52.61"/><rect class="cls-1" x="747.47" y="67.6" width="1.55" height="52.61"/><rect class="cls-1" x="749.55" y="67.6" width="1.55" height="52.61"/><rect class="cls-1" x="751.12" y="67.6" width="1.55" height="52.61"/><rect class="cls-1" x="756.99" y="67.6" width="1.55" height="52.61"/><rect class="cls-1" x="757.25" y="67.6" width="1.55" height="52.61"/><rect class="cls-1" x="760.77" y="67.6" width="1.55" height="52.61"/><rect class="cls-1" x="762.34" y="67.6" width="1.55" height="52.61"/><rect class="cls-1" x="794.17" y="67.6" width="1.55" height="52.61"/><rect class="cls-1" x="795.74" y="67.6" width="1.55" height="52.61"/><rect class="cls-1" x="797.7" y="67.6" width="1.55" height="52.61"/><rect class="cls-1" x="805.65" y="67.6" width="1.55" height="52.61"/><rect class="cls-1" x="810.87" y="67.6" width="1.55" height="52.61"/><rect class="cls-1" x="811.78" y="67.6" width="1.55" height="52.61"/><rect class="cls-1" x="812.83" y="67.6" width="1.55" height="52.61"/><rect class="cls-1" x="817.53" y="67.6" width="1.55" height="52.61"/><rect class="cls-1" x="819.22" y="67.6" width="1.55" height="52.61"/><rect class="cls-1" x="820.79" y="67.6" width="1.54" height="52.61"/><rect class="cls-1" x="825.74" y="67.6" width="1.55" height="52.61"/><rect class="cls-1" x="827.31" y="67.6" width="1.55" height="52.61"/><rect class="cls-1" x="829.14" y="67.6" width="1.55" height="52.61"/><rect class="cls-1" x="832.01" y="67.6" width="1.55" height="52.61"/><rect class="cls-1" x="837.36" y="67.6" width="1.55" height="52.61"/><rect class="cls-1" x="840.36" y="67.6" width="1.55" height="52.61"/><rect class="cls-1" x="860.45" y="67.6" width="1.55" height="52.61"/><rect class="cls-1" x="861.36" y="67.6" width="1.55" height="52.61"/><rect class="cls-1" x="861.62" y="67.6" width="1.55" height="52.61"/><rect class="cls-1" x="863.19" y="67.6" width="1.55" height="52.61"/><rect class="cls-1" x="864.75" y="67.6" width="1.55" height="52.61"/><rect class="cls-1" x="866.45" y="67.6" width="1.55" height="52.61"/><rect class="cls-1" x="868.14" y="67.6" width="1.55" height="52.61"/><rect class="cls-1" x="869.97" y="67.6" width="1.55" height="52.61"/><rect class="cls-1" x="872.19" y="67.6" width="1.55" height="52.61"/><rect class="cls-1" x="896.06" y="67.6" width="1.55" height="52.61"/><rect class="cls-1" x="897.76" y="67.6" width="1.55" height="52.61"/><rect class="cls-1" x="903.63" y="67.6" width="1.55" height="52.61"/><rect class="cls-1" x="906.11" y="67.6" width="1.55" height="52.61"/><rect class="cls-1" x="923.46" y="67.6" width="1.55" height="52.61"/><rect class="cls-1" x="923.86" y="67.6" width="1.55" height="52.61"/><rect class="cls-1" x="925.68" y="67.6" width="1.55" height="52.61"/><rect class="cls-1" x="927.25" y="67.6" width="1.54" height="52.61"/><rect class="cls-1" x="929.07" y="67.6" width="1.55" height="52.61"/><rect class="cls-1" x="932.2" y="67.6" width="1.55" height="52.61"/><rect class="cls-1" x="932.98" y="67.6" width="1.55" height="52.61"/><rect class="cls-1" x="934.55" y="67.6" width="1.55" height="52.61"/><rect class="cls-1" x="939.25" y="67.6" width="1.55" height="52.61"/><rect class="cls-1" x="950.73" y="67.6" width="1.55" height="52.61"/><rect class="cls-1" x="953.34" y="67.6" width="1.55" height="52.61"/><rect class="cls-1" x="955.16" y="67.6" width="1.54" height="52.61"/><rect class="cls-1" x="968.6" y="67.6" width="1.55" height="52.61"/><rect class="cls-1" x="979.95" y="67.6" width="1.55" height="52.61"/><rect class="cls-1" x="982.17" y="67.6" width="1.54" height="52.61"/><rect class="cls-1" x="982.96" y="67.6" width="1.55" height="52.61"/><rect class="cls-1" x="983.73" y="67.6" width="1.55" height="52.61"/><rect class="cls-1" x="993.26" y="67.6" width="1.55" height="52.61"/><rect class="cls-1" x="995.35" y="67.6" width="1.55" height="52.61"/><rect class="cls-1" x="996.91" y="67.6" width="1.55" height="52.61"/><rect class="cls-1" x="998.61" y="67.6" width="1.55" height="52.61"/><rect class="cls-1" x="1000.56" y="67.6" width="1.55" height="52.61"/><rect class="cls-1" x="1002" y="67.6" width="1.55" height="52.61"/><rect class="cls-1" x="1006.56" y="67.6" width="1.55" height="52.61"/><rect class="cls-1" x="1008.39" y="67.6" width="1.55" height="52.61"/><rect class="cls-1" x="1010.35" y="67.6" width="1.55" height="52.61"/><rect class="cls-1" x="1030.83" y="67.6" width="1.55" height="52.61"/><rect class="cls-1" x="1032.4" y="67.6" width="1.55" height="52.61"/><rect class="cls-1" x="1033.44" y="67.6" width="1.55" height="52.61"/><rect class="cls-1" x="1035.53" y="67.6" width="1.55" height="52.61"/><path class="cls-3" d="M337.83,83.88a10.43,10.43,0,1,0,10.43-10.42A10.43,10.43,0,0,0,337.83,83.88Z"/><polygon class="cls-3" points="349.69 120.21 346.75 120.21 346.75 91.57 349.69 91.57 349.69 120.21 349.69 120.21"/><polygon class="cls-2" points="348.22 102.93 337.29 120.21 359.17 120.21 348.22 102.93"/><polygon class="cls-2" points="327.75 102.93 316.81 120.21 338.68 120.21 327.75 102.93"/><polygon class="cls-2" points="343.53 102.93 332.59 120.21 354.47 120.21 343.53 102.93"/><polygon class="cls-2" points="371.45 102.93 360.51 120.21 382.39 120.21 371.45 102.93"/><polygon class="cls-2" points="442.03 102.93 431.09 120.21 452.97 120.21 442.03 102.93"/><polygon class="cls-2" points="462.64 102.93 451.7 120.21 473.58 120.21 462.64 102.93"/><polygon class="cls-2" points="480.12 102.93 469.19 120.21 491.07 120.21 480.12 102.93"/><polygon class="cls-2" points="589.72 102.93 578.78 120.21 600.66 120.21 589.72 102.93"/><polygon class="cls-2" points="651.29 102.93 640.35 120.21 662.23 120.21 651.29 102.93"/><polygon class="cls-2" points="682.35 102.93 671.41 120.21 693.28 120.21 682.35 102.93"/><polygon class="cls-2" points="697.35 102.93 686.41 120.21 708.29 120.21 697.35 102.93"/><polygon class="cls-2" points="705.44 102.93 694.5 120.21 716.38 120.21 705.44 102.93"/><polygon class="cls-2" points="763.51 102.93 752.57 120.21 774.45 120.21 763.51 102.93"/><polygon class="cls-2" points="771.84 102.93 760.91 120.21 782.79 120.21 771.84 102.93"/><polygon class="cls-2" points="807.59 102.93 796.65 120.21 818.53 120.21 807.59 102.93"/><polygon class="cls-2" points="814.51 102.93 803.57 120.21 825.45 120.21 814.51 102.93"/><polygon class="cls-2" points="835.12 102.93 824.18 120.21 846.06 120.21 835.12 102.93"/><polygon class="cls-2" points="842.3 102.93 831.36 120.21 853.24 120.21 842.3 102.93"/><polygon class="cls-2" points="884.04 102.93 873.11 120.21 894.98 120.21 884.04 102.93"/><polygon class="cls-2" points="936.36 102.93 925.42 120.21 947.3 120.21 936.36 102.93"/><rect class="cls-1" x="304.28" y="120.23" width="1.54" height="52.61"/><rect class="cls-1" x="305.84" y="120.23" width="1.55" height="52.61"/><rect class="cls-1" x="312.63" y="120.23" width="1.55" height="52.61"/><rect class="cls-1" x="315.11" y="120.23" width="1.55" height="52.61"/><rect class="cls-1" x="317.07" y="120.23" width="1.55" height="52.61"/><rect class="cls-1" x="331.29" y="120.23" width="1.55" height="52.61"/><rect class="cls-1" x="333.24" y="120.23" width="1.55" height="52.61"/><rect class="cls-1" x="333.37" y="120.23" width="1.55" height="52.61"/><rect class="cls-1" x="340.55" y="120.23" width="1.55" height="52.61"/><rect class="cls-1" x="353.6" y="120.23" width="1.55" height="52.61"/><rect class="cls-1" x="357.25" y="120.23" width="1.55" height="52.61"/><rect class="cls-1" x="385.82" y="120.23" width="1.55" height="52.61"/><rect class="cls-1" x="388.3" y="120.23" width="1.55" height="52.61"/><rect class="cls-1" x="393.13" y="120.23" width="1.55" height="52.61"/><rect class="cls-1" x="399.39" y="120.23" width="1.55" height="52.61"/><rect class="cls-1" x="404.22" y="120.23" width="1.55" height="52.61"/><rect class="cls-1" x="407.35" y="120.23" width="1.54" height="52.61"/><rect class="cls-1" x="412.3" y="120.23" width="1.55" height="52.61"/><rect class="cls-1" x="412.56" y="120.23" width="1.55" height="52.61"/><rect class="cls-1" x="423.53" y="120.23" width="1.55" height="52.61"/><rect class="cls-1" x="429.79" y="120.23" width="1.55" height="52.61"/><rect class="cls-1" x="434.09" y="120.23" width="1.55" height="52.61"/><rect class="cls-1" x="438.4" y="120.23" width="1.55" height="52.61"/><rect class="cls-1" x="444.66" y="120.23" width="1.55" height="52.61"/><rect class="cls-1" x="449.49" y="120.23" width="1.55" height="52.61"/><rect class="cls-1" x="455.09" y="120.23" width="1.55" height="52.61"/><rect class="cls-1" x="456.53" y="120.23" width="1.55" height="52.61"/><rect class="cls-1" x="458.62" y="120.23" width="1.55" height="52.61"/><rect class="cls-1" x="488.49" y="120.23" width="1.54" height="52.61"/><rect class="cls-1" x="491.24" y="120.23" width="1.55" height="52.61"/><rect class="cls-1" x="495.54" y="120.23" width="1.55" height="52.61"/><rect class="cls-1" x="505.58" y="120.23" width="1.55" height="52.61"/><rect class="cls-1" x="513.93" y="120.23" width="1.55" height="52.61"/><rect class="cls-1" x="515.76" y="120.23" width="1.55" height="52.61"/><rect class="cls-1" x="524.76" y="120.23" width="1.55" height="52.61"/><rect class="cls-1" x="537.81" y="120.23" width="1.55" height="52.61"/><rect class="cls-1" x="538.46" y="120.23" width="1.55" height="52.61"/><rect class="cls-1" x="538.72" y="120.23" width="1.55" height="52.61"/><rect class="cls-1" x="551.25" y="120.23" width="1.55" height="52.61"/><rect class="cls-1" x="552.94" y="120.23" width="1.55" height="52.61"/><rect class="cls-1" x="557.64" y="120.23" width="1.55" height="52.61"/><rect class="cls-1" x="558.56" y="120.23" width="1.55" height="52.61"/><rect class="cls-1" x="560.9" y="120.23" width="1.55" height="52.61"/><rect class="cls-1" x="562.46" y="120.23" width="1.55" height="52.61"/><rect class="cls-1" x="576.56" y="120.23" width="1.55" height="52.61"/><rect class="cls-1" x="599.13" y="120.23" width="1.55" height="52.61"/><rect class="cls-1" x="606.56" y="120.23" width="1.55" height="52.61"/><rect class="cls-1" x="615.44" y="120.23" width="1.55" height="52.61"/><rect class="cls-1" x="617" y="120.23" width="1.55" height="52.61"/><rect class="cls-1" x="625.35" y="120.23" width="1.55" height="52.61"/><rect class="cls-1" x="627.44" y="120.23" width="1.55" height="52.61"/><rect class="cls-1" x="651.7" y="120.23" width="1.55" height="52.61"/><rect class="cls-1" x="660.31" y="120.23" width="1.55" height="52.61"/><rect class="cls-1" x="654.19" y="120.23" width="1.55" height="52.61"/><rect class="cls-1" x="655.49" y="120.23" width="1.55" height="52.61"/><rect class="cls-1" x="656.27" y="120.23" width="1.55" height="52.61"/><rect class="cls-1" x="660.71" y="120.23" width="1.55" height="52.61"/><rect class="cls-1" x="662.66" y="120.23" width="1.55" height="52.61"/><rect class="cls-1" x="664.49" y="120.23" width="1.55" height="52.61"/><rect class="cls-1" x="669.06" y="120.23" width="1.54" height="52.61"/><rect class="cls-1" x="670.88" y="120.23" width="1.55" height="52.61"/><rect class="cls-1" x="685.36" y="120.23" width="1.55" height="52.61"/><rect class="cls-1" x="696.59" y="120.23" width="1.54" height="52.61"/><rect class="cls-1" x="709.63" y="120.23" width="1.55" height="52.61"/><rect class="cls-1" x="711.98" y="120.23" width="1.55" height="52.61"/><rect class="cls-1" x="716.68" y="120.23" width="1.55" height="52.61"/><rect class="cls-1" x="716.8" y="120.23" width="1.55" height="52.61"/><rect class="cls-1" x="720.98" y="120.23" width="1.55" height="52.61"/><rect class="cls-1" x="730.77" y="120.23" width="1.55" height="52.61"/><rect class="cls-1" x="731.81" y="120.23" width="1.55" height="52.61"/><rect class="cls-1" x="752.43" y="120.23" width="1.55" height="52.61"/><rect class="cls-1" x="753.21" y="120.23" width="1.55" height="52.61"/><rect class="cls-1" x="758.81" y="120.23" width="1.55" height="52.61"/><rect class="cls-1" x="759.34" y="120.23" width="1.55" height="52.61"/><rect class="cls-1" x="770.95" y="120.23" width="1.55" height="52.61"/><rect class="cls-1" x="779.04" y="120.23" width="1.55" height="52.61"/><rect class="cls-1" x="782.82" y="120.23" width="1.55" height="52.61"/><rect class="cls-1" x="785.04" y="120.23" width="1.54" height="52.61"/><rect class="cls-1" x="798.74" y="120.23" width="1.55" height="52.61"/><rect class="cls-1" x="811.13" y="120.23" width="1.55" height="52.61"/><rect class="cls-1" x="822.35" y="120.23" width="1.55" height="52.61"/><rect class="cls-1" x="848.84" y="120.23" width="1.55" height="52.61"/><rect class="cls-1" x="885.76" y="120.23" width="1.55" height="52.61"/><rect class="cls-1" x="886.54" y="120.23" width="1.55" height="52.61"/><rect class="cls-1" x="906.63" y="120.23" width="1.55" height="52.61"/><rect class="cls-1" x="907.42" y="120.23" width="1.55" height="52.61"/><rect class="cls-1" x="910.55" y="120.23" width="1.54" height="52.61"/><rect class="cls-1" x="931.16" y="120.23" width="1.55" height="52.61"/><rect class="cls-1" x="940.81" y="120.23" width="1.54" height="52.61"/><rect class="cls-1" x="942.38" y="120.23" width="1.55" height="52.61"/><rect class="cls-1" x="947.34" y="120.23" width="1.55" height="52.61"/><rect class="cls-1" x="949.3" y="120.23" width="1.55" height="52.61"/><rect class="cls-1" x="952.43" y="120.23" width="1.55" height="52.61"/><rect class="cls-1" x="958.03" y="120.23" width="1.55" height="52.61"/><rect class="cls-1" x="960.12" y="120.23" width="1.55" height="52.61"/><rect class="cls-1" x="967.04" y="120.23" width="1.55" height="52.61"/><rect class="cls-1" x="970.56" y="120.23" width="1.55" height="52.61"/><rect class="cls-1" x="972.52" y="120.23" width="1.55" height="52.61"/><rect class="cls-1" x="973.69" y="120.23" width="1.55" height="52.61"/><rect class="cls-1" x="983.87" y="120.23" width="1.55" height="52.61"/><rect class="cls-1" x="984.26" y="120.23" width="1.54" height="52.61"/><rect class="cls-1" x="985.95" y="120.23" width="1.55" height="52.61"/><rect class="cls-1" x="988.3" y="120.23" width="1.54" height="52.61"/><rect class="cls-1" x="1014.92" y="120.23" width="1.55" height="52.61"/><rect class="cls-1" x="1016.36" y="120.23" width="1.54" height="52.61"/><rect class="cls-1" x="1017.39" y="120.23" width="1.55" height="52.61"/><rect class="cls-1" x="1020.52" y="120.23" width="1.55" height="52.61"/><rect class="cls-1" x="1037.49" y="120.23" width="1.55" height="52.61"/><polygon class="cls-2" points="319.4 155.57 308.46 172.85 330.34 172.85 319.4 155.57"/><polygon class="cls-2" points="409.42 155.57 398.48 172.85 420.35 172.85 409.42 155.57"/><polygon class="cls-2" points="497.61 155.57 486.67 172.85 508.55 172.85 497.61 155.57"/><polygon class="cls-2" points="514.07 155.57 503.12 172.85 525 172.85 514.07 155.57"/><polygon class="cls-2" points="518.74 155.57 507.81 172.85 529.68 172.85 518.74 155.57"/><polygon class="cls-2" points="773.67 155.57 762.73 172.85 784.61 172.85 773.67 155.57"/><polygon class="cls-2" points="781.37 155.57 770.43 172.85 792.31 172.85 781.37 155.57"/><polygon class="cls-2" points="792.59 155.57 781.65 172.85 803.53 172.85 792.59 155.57"/><polygon class="cls-2" points="851.82 155.57 840.88 172.85 862.76 172.85 851.82 155.57"/><polygon class="cls-2" points="912.48 155.57 901.54 172.85 923.43 172.85 912.48 155.57"/><polygon class="cls-2" points="944.58 155.57 933.64 172.85 955.52 172.85 944.58 155.57"/><polygon class="cls-2" points="976.94 155.57 966 172.85 987.87 172.85 976.94 155.57"/><path class="cls-3" d="M149,69.11a6.82,6.82,0,0,1-1.73.84,6.37,6.37,0,0,1-2,.3,6.14,6.14,0,0,1-2.77-.62A7.1,7.1,0,0,1,140.36,68a7.19,7.19,0,0,1-1.39-2.3,7.49,7.49,0,0,1-.49-2.66,7.25,7.25,0,0,1,.52-2.72,7.54,7.54,0,0,1,1.43-2.3,6.83,6.83,0,0,1,2.16-1.59,6.32,6.32,0,0,1,2.73-.59,6.07,6.07,0,0,1,2.77.63,7,7,0,0,1,2.14,1.65,7.6,7.6,0,0,1,1.38,2.31,7.35,7.35,0,0,1,.49,2.63,7.27,7.27,0,0,1-.5,2.69A7.43,7.43,0,0,1,150.2,68l1.86,2.12H149.9Zm-3.68-.88a4.16,4.16,0,0,0,1.24-.18,4.08,4.08,0,0,0,1.06-.5l-2-2.34h2.16l1,1.18a5,5,0,0,0,.78-1.57A6.15,6.15,0,0,0,149.8,63a6,6,0,0,0-.32-1.95,5.31,5.31,0,0,0-.91-1.65,4.49,4.49,0,0,0-1.42-1.15,4,4,0,0,0-1.85-.43,4,4,0,0,0-1.92.45A4.51,4.51,0,0,0,142,59.5a5.37,5.37,0,0,0-.89,1.66,6,6,0,0,0,0,3.83,5.27,5.27,0,0,0,.91,1.66,4.44,4.44,0,0,0,1.43,1.15A4.06,4.06,0,0,0,145.3,68.23Z"/><path class="cls-3" d="M160.7,68.23a3.59,3.59,0,0,0,1.86-.44,3.51,3.51,0,0,0,1.19-1.15,4.84,4.84,0,0,0,.64-1.62,9.14,9.14,0,0,0,.19-1.87v-7.2h2.26v7.2a10.76,10.76,0,0,1-.34,2.75,6.35,6.35,0,0,1-1.08,2.26,5.16,5.16,0,0,1-1.91,1.53,6.46,6.46,0,0,1-2.81.56,6.33,6.33,0,0,1-2.87-.59,5.17,5.17,0,0,1-1.89-1.58,6.48,6.48,0,0,1-1-2.27,10.9,10.9,0,0,1-.32-2.66v-7.2h2.24v7.2A9.21,9.21,0,0,0,157,65a4.83,4.83,0,0,0,.64,1.62,3.39,3.39,0,0,0,1.2,1.14A3.66,3.66,0,0,0,160.7,68.23Z"/><path class="cls-3" d="M170.22,70.15V55.95h2.24v14.2Z"/><path class="cls-3" d="M175.16,62.95a7.43,7.43,0,0,1,.46-2.55A7,7,0,0,1,177,58.12a6.81,6.81,0,0,1,2.17-1.63,6.57,6.57,0,0,1,2.9-.62,6.15,6.15,0,0,1,3.32.86A5.59,5.59,0,0,1,187.44,59l-1.76,1.18a4,4,0,0,0-.72-1.08,3.52,3.52,0,0,0-.92-.7,4,4,0,0,0-1-.37,5.22,5.22,0,0,0-1-.11,4.09,4.09,0,0,0-2,.45,4.35,4.35,0,0,0-1.41,1.19,5.31,5.31,0,0,0-.86,1.66,6.09,6.09,0,0,0-.29,1.84,5.78,5.78,0,0,0,.34,2,5.36,5.36,0,0,0,1,1.66,4.67,4.67,0,0,0,1.45,1.15,4,4,0,0,0,1.84.43,4.66,4.66,0,0,0,1.07-.13,4,4,0,0,0,1.06-.42,4.23,4.23,0,0,0,.94-.73,3.64,3.64,0,0,0,.71-1.06L187.66,67a4.35,4.35,0,0,1-1,1.41,6.12,6.12,0,0,1-1.4,1,7.16,7.16,0,0,1-1.65.64,7,7,0,0,1-1.71.22,5.88,5.88,0,0,1-2.74-.64A7.19,7.19,0,0,1,177.06,68a7.69,7.69,0,0,1-1.4-2.34A7.43,7.43,0,0,1,175.16,62.95Z"/><path class="cls-3" d="M190.14,70.15V56h2.24v7.3l6.68-7.32h2.48l-5.6,6.28,5.92,7.92h-2.5l-4.8-6.54-2.18,2.26v4.28Z"/><path class="cls-3" d="M203.74,70.15V55.95H206v14.2Z"/><path class="cls-3" d="M219.32,68.17v2h-9.74V55.95h9.56v2h-7.32v4h6.34v1.86h-6.34v4.34Z"/><path class="cls-3" d="M333.11,56.16a81.58,81.58,0,0,0-149.68-8l-1-.49a82.68,82.68,0,0,1,151.7,8.12Z"/><polygon class="cls-3" points="338.26 52.76 336 63.5 327.82 56.18 338.26 52.76"/></svg>