<?xml version="1.0" encoding="utf-8"?>
<!-- Generator: Adobe Illustrator 24.3.0, SVG Export Plug-In . SVG Version: 6.00 Build 0)  -->
<svg version="1.1" id="Layer_1" xmlns="http://www.w3.org/2000/svg" xmlns:xlink="http://www.w3.org/1999/xlink" x="0px" y="0px"
	 viewBox="0 0 1280 233.9" style="enable-background:new 0 0 1280 233.9;" xml:space="preserve">
<style type="text/css">
	.st0{fill:#333132;}
	.st1{fill:#FDC659;}
	.st2{fill:#EE3E23;}
	.st3{fill:#FFF5E3;}
</style>
<path class="st0" d="M228.5,165.8h-3.8v9.8h-1.8v-9.8h-3.8v-1.6h9.4L228.5,165.8z"/>
<path class="st0" d="M237.8,174v1.6H230v-11.4h7.6v1.6h-5.9v3.2h5.1v1.5h-5.1v3.5H237.8z"/>
<path class="st0" d="M243,164.2h1.6l4.4,11.4h-1.9l-1.2-3.1h-4.4l-1.2,3.1h-1.9L243,164.2z M245.6,171.2l-1.8-4.9l-1.9,4.9H245.6z"
	/>
<path class="st0" d="M260,175.6v-8.2l-3.4,6.2h-1l-3.4-6.2v8.2h-1.8v-11.4h1.9l3.8,6.9l3.8-6.9h1.9v11.4L260,175.6z"/>
<path class="st0" d="M274.2,174v1.6h-6.1V174h2.3v-5.6c-0.1,0.2-0.3,0.3-0.5,0.4c-0.2,0.1-0.4,0.3-0.7,0.4c-0.2,0.1-0.5,0.2-0.8,0.3
	c-0.2,0.1-0.5,0.1-0.7,0.1V168c0.3,0,0.5-0.1,0.7-0.2c0.3-0.1,0.6-0.3,0.8-0.4c0.2-0.2,0.5-0.3,0.7-0.5c0.1-0.1,0.2-0.2,0.3-0.4h1.8
	v7.5H274.2z"/>
<path class="st0" d="M227.2,218.4h-3.8v9.8h-1.8v-9.8h-3.8v-1.6h9.4L227.2,218.4z"/>
<path class="st0" d="M236.6,226.6v1.6h-7.8v-11.4h7.6v1.6h-5.9v3.2h5.1v1.5h-5.1v3.5H236.6z"/>
<path class="st0" d="M241.8,216.8h1.6l4.5,11.4h-1.9l-1.2-3.1h-4.4l-1.2,3.1h-1.9L241.8,216.8z M244.4,223.8l-1.8-4.9l-1.9,4.9
	H244.4z"/>
<path class="st0" d="M258.8,228.2V220l-3.4,6.2h-1L251,220v8.2h-1.8v-11.3h1.9l3.8,6.9l3.8-6.9h1.9v11.4H258.8z"/>
<path class="st0" d="M266.4,228.2c0-0.4,0-0.8,0.1-1.2c0.1-0.4,0.2-0.7,0.4-1.1c0.2-0.4,0.5-0.7,0.8-1c0.4-0.3,0.8-0.6,1.3-0.9
	l1.1-0.6c0.3-0.2,0.6-0.3,0.9-0.5c0.2-0.1,0.4-0.3,0.6-0.5c0.1-0.2,0.2-0.4,0.2-0.6c0-0.4-0.2-0.7-0.4-0.9c-0.4-0.3-0.8-0.4-1.3-0.4
	c-0.3,0-0.5,0-0.8,0.1c-0.2,0.1-0.5,0.2-0.7,0.3c-0.2,0.1-0.4,0.3-0.5,0.4c-0.1,0.1-0.3,0.3-0.4,0.4l-1.1-1.3
	c0.2-0.2,0.3-0.3,0.5-0.4c0.3-0.2,0.5-0.4,0.8-0.5c0.4-0.2,0.7-0.3,1.1-0.4c0.4-0.1,0.9-0.2,1.4-0.2c0.5,0,0.9,0.1,1.4,0.2
	c0.4,0.1,0.7,0.3,1,0.6c0.3,0.2,0.5,0.5,0.6,0.8c0.1,0.3,0.2,0.7,0.2,1c0,0.4-0.1,0.7-0.2,1.1c-0.2,0.3-0.4,0.6-0.6,0.8
	c-0.2,0.2-0.5,0.4-0.8,0.6c-0.3,0.2-0.5,0.3-0.8,0.4l-0.8,0.4c-0.3,0.1-0.6,0.3-0.8,0.5c-0.3,0.2-0.5,0.4-0.7,0.6
	c-0.2,0.2-0.4,0.4-0.5,0.7h5.3v1.6L266.4,228.2z"/>
<rect x="303.3" y="122.9" class="st1" width="1.5" height="52.6"/>
<rect x="305.3" y="122.9" class="st1" width="1.5" height="52.6"/>
<rect x="306.9" y="122.9" class="st1" width="1.5" height="52.6"/>
<rect x="308.2" y="122.9" class="st1" width="1.5" height="52.6"/>
<rect x="310.8" y="122.9" class="st1" width="1.5" height="52.6"/>
<rect x="316.2" y="122.9" class="st1" width="1.5" height="52.6"/>
<rect x="316.5" y="122.9" class="st1" width="1.5" height="52.6"/>
<rect x="358.6" y="122.9" class="st1" width="1.5" height="52.6"/>
<rect x="365" y="122.9" class="st1" width="1.5" height="52.6"/>
<rect x="384.5" y="122.9" class="st1" width="1.5" height="52.6"/>
<rect x="387" y="122.9" class="st1" width="1.5" height="52.6"/>
<rect x="392.2" y="122.9" class="st1" width="1.5" height="52.6"/>
<rect x="394.2" y="122.9" class="st1" width="1.5" height="52.6"/>
<rect x="398" y="122.9" class="st1" width="1.5" height="52.6"/>
<rect x="404.7" y="122.9" class="st1" width="1.5" height="52.6"/>
<rect x="409" y="122.9" class="st1" width="1.5" height="52.6"/>
<rect x="410.3" y="122.9" class="st1" width="1.5" height="52.6"/>
<rect x="412" y="122.9" class="st1" width="1.5" height="52.6"/>
<rect x="414" y="122.9" class="st1" width="1.5" height="52.6"/>
<rect x="416.8" y="122.9" class="st1" width="1.5" height="52.6"/>
<rect x="417.2" y="122.9" class="st1" width="1.5" height="52.6"/>
<rect x="424.4" y="122.9" class="st1" width="1.5" height="52.6"/>
<rect x="426" y="122.9" class="st1" width="1.5" height="52.6"/>
<rect x="427.5" y="122.9" class="st1" width="1.5" height="52.6"/>
<rect x="463.4" y="122.9" class="st1" width="1.5" height="52.6"/>
<rect x="466" y="122.9" class="st1" width="1.5" height="52.6"/>
<rect x="468.6" y="122.9" class="st1" width="1.5" height="52.6"/>
<rect x="479.8" y="122.9" class="st1" width="1.5" height="52.6"/>
<rect x="481.4" y="122.9" class="st1" width="1.5" height="52.6"/>
<rect x="483" y="122.9" class="st1" width="1.5" height="52.6"/>
<rect x="488.2" y="122.9" class="st1" width="1.5" height="52.6"/>
<rect x="488.3" y="122.9" class="st1" width="1.5" height="52.6"/>
<rect x="489.2" y="122.9" class="st1" width="1.5" height="52.6"/>
<rect x="491.1" y="122.9" class="st1" width="1.5" height="52.6"/>
<rect x="495.5" y="122.9" class="st1" width="1.5" height="52.6"/>
<rect x="500.9" y="122.9" class="st1" width="1.5" height="52.6"/>
<rect x="509.2" y="122.9" class="st1" width="1.5" height="52.6"/>
<rect x="510.5" y="122.9" class="st1" width="1.5" height="52.6"/>
<rect x="510.8" y="122.9" class="st1" width="1.5" height="52.6"/>
<rect x="512.3" y="122.9" class="st1" width="1.5" height="52.6"/>
<rect x="515.6" y="122.9" class="st1" width="1.5" height="52.6"/>
<rect x="517.3" y="122.9" class="st1" width="1.5" height="52.6"/>
<rect x="534.5" y="122.9" class="st1" width="1.5" height="52.6"/>
<rect x="536.8" y="122.9" class="st1" width="1.5" height="52.6"/>
<rect x="537" y="122.9" class="st1" width="1.5" height="52.6"/>
<rect x="538.7" y="122.9" class="st1" width="1.5" height="52.6"/>
<rect x="540.2" y="122.9" class="st1" width="1.5" height="52.6"/>
<rect x="541.5" y="122.9" class="st1" width="1.5" height="52.6"/>
<rect x="546.9" y="122.9" class="st1" width="1.5" height="52.6"/>
<rect x="556.7" y="122.9" class="st1" width="1.5" height="52.6"/>
<rect x="559.4" y="122.9" class="st1" width="1.5" height="52.6"/>
<rect x="561.9" y="122.9" class="st1" width="1.5" height="52.6"/>
<rect x="567.1" y="122.9" class="st1" width="1.5" height="52.6"/>
<rect x="579.8" y="122.9" class="st1" width="1.5" height="52.6"/>
<rect x="586.7" y="122.9" class="st1" width="1.5" height="52.6"/>
<rect x="593.9" y="122.9" class="st1" width="1.5" height="52.6"/>
<rect x="599.2" y="122.9" class="st1" width="1.5" height="52.6"/>
<rect x="604.2" y="122.9" class="st1" width="1.5" height="52.6"/>
<rect x="613" y="122.9" class="st1" width="1.5" height="52.6"/>
<rect x="616.4" y="122.9" class="st1" width="1.5" height="52.6"/>
<rect x="617.1" y="122.9" class="st1" width="1.5" height="52.6"/>
<rect x="618.1" y="122.9" class="st1" width="1.5" height="52.6"/>
<rect x="620.8" y="122.9" class="st1" width="1.5" height="52.6"/>
<rect x="622.4" y="122.9" class="st1" width="1.5" height="52.6"/>
<rect x="626.1" y="122.9" class="st1" width="1.5" height="52.6"/>
<rect x="633.4" y="122.9" class="st1" width="1.5" height="52.6"/>
<rect x="633.9" y="122.9" class="st1" width="1.5" height="52.6"/>
<rect x="634.5" y="122.9" class="st1" width="1.5" height="52.6"/>
<rect x="649.6" y="122.9" class="st1" width="1.5" height="52.6"/>
<rect x="661.5" y="122.9" class="st1" width="1.5" height="52.6"/>
<rect x="662.5" y="122.9" class="st1" width="1.5" height="52.6"/>
<rect x="673.7" y="122.9" class="st1" width="1.5" height="52.6"/>
<rect x="674.1" y="122.9" class="st1" width="1.5" height="52.6"/>
<rect x="675.7" y="122.9" class="st1" width="1.5" height="52.6"/>
<rect x="676.5" y="122.9" class="st1" width="1.5" height="52.6"/>
<rect x="683.5" y="122.9" class="st1" width="1.5" height="52.6"/>
<rect x="693" y="122.9" class="st1" width="1.5" height="52.6"/>
<rect x="695.1" y="122.9" class="st1" width="1.5" height="52.6"/>
<rect x="696.7" y="122.9" class="st1" width="1.5" height="52.6"/>
<rect x="698.4" y="122.9" class="st1" width="1.5" height="52.6"/>
<rect x="700.3" y="122.9" class="st1" width="1.5" height="52.6"/>
<rect x="709.6" y="122.9" class="st1" width="1.5" height="52.6"/>
<rect x="710.1" y="122.9" class="st1" width="1.5" height="52.6"/>
<rect x="711.9" y="122.9" class="st1" width="1.5" height="52.6"/>
<rect x="719.9" y="122.9" class="st1" width="1.5" height="52.6"/>
<rect x="721.7" y="122.9" class="st1" width="1.5" height="52.6"/>
<rect x="726.7" y="122.9" class="st1" width="1.5" height="52.6"/>
<rect x="728.9" y="122.9" class="st1" width="1.5" height="52.6"/>
<rect x="730.6" y="122.9" class="st1" width="1.5" height="52.6"/>
<rect x="736.7" y="122.9" class="st1" width="1.5" height="52.6"/>
<rect x="747" y="122.9" class="st1" width="1.5" height="52.6"/>
<rect x="749.6" y="122.9" class="st1" width="1.5" height="52.6"/>
<rect x="752.2" y="122.9" class="st1" width="1.5" height="52.6"/>
<rect x="754" y="122.9" class="st1" width="1.5" height="52.6"/>
<rect x="756.4" y="122.9" class="st1" width="1.5" height="52.6"/>
<rect x="760.5" y="122.9" class="st1" width="1.5" height="52.6"/>
<rect x="764.5" y="122.9" class="st1" width="1.5" height="52.6"/>
<rect x="765" y="122.9" class="st1" width="1.5" height="52.6"/>
<rect x="772.1" y="122.9" class="st1" width="1.5" height="52.6"/>
<rect x="774.2" y="122.9" class="st1" width="1.5" height="52.6"/>
<rect x="775.7" y="122.9" class="st1" width="1.5" height="52.6"/>
<rect x="787.1" y="122.9" class="st1" width="1.5" height="52.6"/>
<rect x="787.5" y="122.9" class="st1" width="1.5" height="52.6"/>
<rect x="795.3" y="122.9" class="st1" width="1.5" height="52.6"/>
<rect x="797.3" y="122.9" class="st1" width="1.5" height="52.6"/>
<rect x="799" y="122.9" class="st1" width="1.5" height="52.6"/>
<rect x="804" y="122.9" class="st1" width="1.5" height="52.6"/>
<rect x="806.5" y="122.9" class="st1" width="1.5" height="52.6"/>
<rect x="808.5" y="122.9" class="st1" width="1.5" height="52.6"/>
<rect x="823.6" y="122.9" class="st1" width="1.5" height="52.6"/>
<rect x="825.6" y="122.9" class="st1" width="1.5" height="52.6"/>
<rect x="834.7" y="122.9" class="st1" width="1.5" height="52.6"/>
<rect x="837" y="122.9" class="st1" width="1.5" height="52.6"/>
<rect x="839.3" y="122.9" class="st1" width="1.5" height="52.6"/>
<rect x="849.2" y="122.9" class="st1" width="1.5" height="52.6"/>
<rect x="881.9" y="122.9" class="st1" width="1.5" height="52.6"/>
<rect x="884.9" y="122.9" class="st1" width="1.5" height="52.6"/>
<rect x="887" y="122.9" class="st1" width="1.5" height="52.6"/>
<rect x="903.7" y="122.9" class="st1" width="1.5" height="52.6"/>
<rect x="913.5" y="122.9" class="st1" width="1.5" height="52.6"/>
<rect x="915.6" y="122.9" class="st1" width="1.5" height="52.6"/>
<rect x="936.3" y="122.9" class="st1" width="1.5" height="52.6"/>
<rect x="953.3" y="122.9" class="st1" width="1.5" height="52.6"/>
<rect x="954.6" y="122.9" class="st1" width="1.5" height="52.6"/>
<rect x="957.2" y="122.9" class="st1" width="1.5" height="52.6"/>
<rect x="959.6" y="122.9" class="st1" width="1.5" height="52.6"/>
<rect x="963.2" y="122.9" class="st1" width="1.5" height="52.6"/>
<rect x="967.7" y="122.9" class="st1" width="1.5" height="52.6"/>
<rect x="968.7" y="122.9" class="st1" width="1.5" height="52.6"/>
<rect x="971.3" y="122.9" class="st1" width="1.5" height="52.6"/>
<rect x="978.1" y="122.9" class="st1" width="1.5" height="52.6"/>
<rect x="983" y="122.9" class="st1" width="1.5" height="52.6"/>
<rect x="986.2" y="122.9" class="st1" width="1.5" height="52.6"/>
<rect x="987.9" y="122.9" class="st1" width="1.5" height="52.6"/>
<rect x="994.4" y="122.9" class="st1" width="1.5" height="52.6"/>
<rect x="997.8" y="122.9" class="st1" width="1.5" height="52.6"/>
<rect x="1001.8" y="122.9" class="st1" width="1.5" height="52.6"/>
<rect x="1009.4" y="122.9" class="st1" width="1.5" height="52.6"/>
<rect x="1011.3" y="122.9" class="st1" width="1.5" height="52.6"/>
<rect x="1021.8" y="122.9" class="st1" width="1.5" height="52.6"/>
<polygon class="st0" points="381,158.3 370,175.6 391.9,175.6 "/>
<polygon class="st0" points="498.1,158.3 487.1,175.6 509,175.6 "/>
<polygon class="st0" points="628.4,158.3 617.5,175.6 639.4,175.6 "/>
<polygon class="st0" points="714.4,158.3 703.5,175.6 725.3,175.6 "/>
<polygon class="st0" points="767.6,158.3 756.7,175.6 778.6,175.6 "/>
<polygon class="st0" points="789.9,158.3 779,175.6 800.9,175.6 "/>
<polygon class="st0" points="810.7,158.3 799.7,175.6 821.6,175.6 "/>
<polygon class="st0" points="832.6,158.3 821.7,175.6 843.5,175.6 "/>
<polygon class="st0" points="911,158.3 900.1,175.6 921.9,175.6 "/>
<polygon class="st0" points="678.3,158.3 667.3,175.6 689.2,175.6 "/>
<polygon class="st0" points="674.2,158.3 663.2,175.6 685.1,175.6 "/>
<circle class="st2" cx="519.7" cy="139.2" r="10.4"/>
<polygon class="st2" points="521.1,175.6 518.1,175.6 518.1,146.9 521.1,146.9 521.1,175.6 "/>
<polygon class="st0" points="519.6,158.3 508.7,175.6 530.5,175.6 "/>
<path class="st2" d="M692,139.2c0,5.8,4.7,10.4,10.4,10.4s10.4-4.7,10.4-10.4c0-5.8-4.7-10.4-10.4-10.4
	C696.7,128.8,692,133.5,692,139.2C692,139.2,692,139.2,692,139.2z"/>
<polygon class="st2" points="703.9,175.6 700.9,175.6 700.9,146.9 703.9,146.9 703.9,175.6 "/>
<polygon class="st0" points="702.4,158.3 691.5,175.6 713.3,175.6 "/>
<rect x="311.1" y="175.6" class="st1" width="1.5" height="52.6"/>
<rect x="311.8" y="175.6" class="st1" width="1.5" height="52.6"/>
<rect x="313.9" y="175.6" class="st1" width="1.5" height="52.6"/>
<rect x="316" y="175.6" class="st1" width="1.5" height="52.6"/>
<rect x="317.5" y="175.6" class="st1" width="1.5" height="52.6"/>
<rect x="317.8" y="175.6" class="st1" width="1.5" height="52.6"/>
<rect x="319.4" y="175.6" class="st1" width="1.5" height="52.6"/>
<rect x="326.4" y="175.6" class="st1" width="1.5" height="52.6"/>
<rect x="330.3" y="175.6" class="st1" width="1.5" height="52.6"/>
<rect x="332.8" y="175.6" class="st1" width="1.5" height="52.6"/>
<rect x="357.2" y="175.6" class="st1" width="1.5" height="52.6"/>
<rect x="359.3" y="175.6" class="st1" width="1.5" height="52.6"/>
<rect x="367.4" y="175.6" class="st1" width="1.5" height="52.6"/>
<rect x="368.8" y="175.6" class="st1" width="1.5" height="52.6"/>
<rect x="369.6" y="175.6" class="st1" width="1.5" height="52.6"/>
<rect x="375" y="175.6" class="st1" width="1.5" height="52.6"/>
<rect x="377.9" y="175.6" class="st1" width="1.5" height="52.6"/>
<rect x="379.5" y="175.6" class="st1" width="1.5" height="52.6"/>
<rect x="380.2" y="175.6" class="st1" width="1.5" height="52.6"/>
<rect x="385.6" y="175.6" class="st1" width="1.5" height="52.6"/>
<rect x="402.6" y="175.6" class="st1" width="1.5" height="52.6"/>
<rect x="404.2" y="175.6" class="st1" width="1.5" height="52.6"/>
<rect x="406.3" y="175.6" class="st1" width="1.5" height="52.6"/>
<rect x="418.6" y="175.6" class="st1" width="1.5" height="52.6"/>
<rect x="421.5" y="175.6" class="st1" width="1.5" height="52.6"/>
<rect x="431" y="175.6" class="st1" width="1.5" height="52.6"/>
<rect x="434.6" y="175.6" class="st1" width="1.5" height="52.6"/>
<rect x="436.1" y="175.6" class="st1" width="1.5" height="52.6"/>
<rect x="439.8" y="175.6" class="st1" width="1.5" height="52.6"/>
<rect x="440.4" y="175.6" class="st1" width="1.5" height="52.6"/>
<rect x="441.9" y="175.6" class="st1" width="1.5" height="52.6"/>
<rect x="451.1" y="175.6" class="st1" width="1.5" height="52.6"/>
<rect x="453.4" y="175.6" class="st1" width="1.5" height="52.6"/>
<rect x="461.3" y="175.6" class="st1" width="1.5" height="52.6"/>
<rect x="462.4" y="175.6" class="st1" width="1.5" height="52.6"/>
<rect x="464.6" y="175.6" class="st1" width="1.5" height="52.6"/>
<rect x="464.8" y="175.6" class="st1" width="1.5" height="52.6"/>
<rect x="466.1" y="175.6" class="st1" width="1.5" height="52.6"/>
<rect x="466.4" y="175.6" class="st1" width="1.5" height="52.6"/>
<rect x="467.4" y="175.6" class="st1" width="1.5" height="52.6"/>
<rect x="469.5" y="175.6" class="st1" width="1.5" height="52.6"/>
<rect x="471.2" y="175.6" class="st1" width="1.5" height="52.6"/>
<rect x="477.4" y="175.6" class="st1" width="1.5" height="52.6"/>
<rect x="484.1" y="175.6" class="st1" width="1.5" height="52.6"/>
<rect x="485.9" y="175.6" class="st1" width="1.5" height="52.6"/>
<rect x="487.8" y="175.6" class="st1" width="1.5" height="52.6"/>
<rect x="503.6" y="175.6" class="st1" width="1.5" height="52.6"/>
<rect x="509.7" y="175.6" class="st1" width="1.5" height="52.6"/>
<rect x="511.7" y="175.6" class="st1" width="1.5" height="52.6"/>
<rect x="514.4" y="175.6" class="st1" width="1.5" height="52.6"/>
<rect x="516.6" y="175.6" class="st1" width="1.5" height="52.6"/>
<rect x="525.5" y="175.6" class="st1" width="1.5" height="52.6"/>
<rect x="527.1" y="175.6" class="st1" width="1.5" height="52.6"/>
<rect x="536.5" y="175.6" class="st1" width="1.5" height="52.6"/>
<rect x="539.5" y="175.6" class="st1" width="1.5" height="52.6"/>
<rect x="543.4" y="175.6" class="st1" width="1.5" height="52.6"/>
<rect x="547.3" y="175.6" class="st1" width="1.5" height="52.6"/>
<rect x="551.2" y="175.6" class="st1" width="1.5" height="52.6"/>
<rect x="552.9" y="175.6" class="st1" width="1.5" height="52.6"/>
<rect x="555.1" y="175.6" class="st1" width="1.5" height="52.6"/>
<rect x="558.1" y="175.6" class="st1" width="1.5" height="52.6"/>
<rect x="571.6" y="175.6" class="st1" width="1.5" height="52.6"/>
<rect x="573.4" y="175.6" class="st1" width="1.5" height="52.6"/>
<rect x="575.3" y="175.6" class="st1" width="1.5" height="52.6"/>
<rect x="587.6" y="175.6" class="st1" width="1.5" height="52.6"/>
<rect x="588.4" y="175.6" class="st1" width="1.5" height="52.6"/>
<rect x="589.7" y="175.6" class="st1" width="1.5" height="52.6"/>
<rect x="592.2" y="175.6" class="st1" width="1.5" height="52.6"/>
<rect x="592.6" y="175.6" class="st1" width="1.5" height="52.6"/>
<rect x="594" y="175.6" class="st1" width="1.5" height="52.6"/>
<rect x="600.1" y="175.6" class="st1" width="1.5" height="52.6"/>
<rect x="610.4" y="175.6" class="st1" width="1.5" height="52.6"/>
<rect x="615.4" y="175.6" class="st1" width="1.5" height="52.6"/>
<rect x="617.3" y="175.6" class="st1" width="1.5" height="52.6"/>
<rect x="624.5" y="175.6" class="st1" width="1.5" height="52.6"/>
<rect x="629.5" y="175.6" class="st1" width="1.5" height="52.6"/>
<rect x="630.9" y="175.6" class="st1" width="1.5" height="52.6"/>
<rect x="635.6" y="175.6" class="st1" width="1.5" height="52.6"/>
<rect x="656.8" y="175.6" class="st1" width="1.5" height="52.6"/>
<rect x="658.3" y="175.6" class="st1" width="1.5" height="52.6"/>
<rect x="661.3" y="175.6" class="st1" width="1.5" height="52.6"/>
<rect x="655.6" y="175.6" class="st1" width="1.5" height="52.6"/>
<rect x="657.3" y="175.6" class="st1" width="1.5" height="52.6"/>
<rect x="659" y="175.6" class="st1" width="1.5" height="52.6"/>
<rect x="660.7" y="175.6" class="st1" width="1.5" height="52.6"/>
<rect x="663.2" y="175.6" class="st1" width="1.5" height="52.6"/>
<rect x="664.2" y="175.6" class="st1" width="1.5" height="52.6"/>
<rect x="666.2" y="175.6" class="st1" width="1.5" height="52.6"/>
<rect x="671.6" y="175.6" class="st1" width="1.5" height="52.6"/>
<rect x="672.4" y="175.6" class="st1" width="1.5" height="52.6"/>
<rect x="684.3" y="175.6" class="st1" width="1.5" height="52.6"/>
<rect x="686.4" y="175.6" class="st1" width="1.5" height="52.6"/>
<rect x="687.9" y="175.6" class="st1" width="1.5" height="52.6"/>
<rect x="690.3" y="175.6" class="st1" width="1.5" height="52.6"/>
<rect x="699.7" y="175.6" class="st1" width="1.5" height="52.6"/>
<rect x="709.7" y="175.6" class="st1" width="1.5" height="52.6"/>
<rect x="709.8" y="175.6" class="st1" width="1.5" height="52.6"/>
<rect x="724.5" y="175.6" class="st1" width="1.5" height="52.6"/>
<rect x="725.2" y="175.6" class="st1" width="1.5" height="52.6"/>
<rect x="728" y="175.6" class="st1" width="1.5" height="52.6"/>
<rect x="730.2" y="175.6" class="st1" width="1.5" height="52.6"/>
<rect x="731.2" y="175.6" class="st1" width="1.5" height="52.6"/>
<rect x="731.9" y="175.6" class="st1" width="1.5" height="52.6"/>
<rect x="734" y="175.6" class="st1" width="1.5" height="52.6"/>
<rect x="737.2" y="175.6" class="st1" width="1.5" height="52.6"/>
<rect x="739.6" y="175.6" class="st1" width="1.5" height="52.6"/>
<rect x="747.2" y="175.6" class="st1" width="1.5" height="52.6"/>
<rect x="747.4" y="175.6" class="st1" width="1.5" height="52.6"/>
<rect x="747.9" y="175.6" class="st1" width="1.5" height="52.6"/>
<rect x="748.7" y="175.6" class="st1" width="1.5" height="52.6"/>
<rect x="754.6" y="175.6" class="st1" width="1.5" height="52.6"/>
<rect x="755.4" y="175.6" class="st1" width="1.5" height="52.6"/>
<rect x="758.2" y="175.6" class="st1" width="1.5" height="52.6"/>
<rect x="763.2" y="175.6" class="st1" width="1.5" height="52.6"/>
<rect x="763.7" y="175.6" class="st1" width="1.5" height="52.6"/>
<rect x="767.4" y="175.6" class="st1" width="1.5" height="52.6"/>
<rect x="767.7" y="175.6" class="st1" width="1.5" height="52.6"/>
<rect x="768.8" y="175.6" class="st1" width="1.5" height="52.6"/>
<rect x="770.5" y="175.6" class="st1" width="1.5" height="52.6"/>
<rect x="776.6" y="175.6" class="st1" width="1.5" height="52.6"/>
<rect x="780.4" y="175.6" class="st1" width="1.5" height="52.6"/>
<rect x="785.3" y="175.6" class="st1" width="1.5" height="52.6"/>
<rect x="793" y="175.6" class="st1" width="1.5" height="52.6"/>
<rect x="803.5" y="175.6" class="st1" width="1.5" height="52.6"/>
<rect x="805.1" y="175.6" class="st1" width="1.5" height="52.6"/>
<rect x="805.5" y="175.6" class="st1" width="1.5" height="52.6"/>
<rect x="807.6" y="175.6" class="st1" width="1.5" height="52.6"/>
<rect x="812.8" y="175.6" class="st1" width="1.5" height="52.6"/>
<rect x="816" y="175.6" class="st1" width="1.5" height="52.6"/>
<rect x="820.5" y="175.6" class="st1" width="1.5" height="52.6"/>
<rect x="822.2" y="175.6" class="st1" width="1.5" height="52.6"/>
<rect x="835.2" y="175.6" class="st1" width="1.5" height="52.6"/>
<rect x="842.9" y="175.6" class="st1" width="1.5" height="52.6"/>
<rect x="848.3" y="175.6" class="st1" width="1.5" height="52.6"/>
<rect x="848.8" y="175.6" class="st1" width="1.5" height="52.6"/>
<rect x="851.9" y="175.6" class="st1" width="1.5" height="52.6"/>
<rect x="854.8" y="175.6" class="st1" width="1.5" height="52.6"/>
<rect x="856.1" y="175.6" class="st1" width="1.5" height="52.6"/>
<rect x="863" y="175.6" class="st1" width="1.5" height="52.6"/>
<rect x="864.3" y="175.6" class="st1" width="1.5" height="52.6"/>
<rect x="875.8" y="175.6" class="st1" width="1.5" height="52.6"/>
<rect x="877.2" y="175.6" class="st1" width="1.5" height="52.6"/>
<rect x="880.1" y="175.6" class="st1" width="1.5" height="52.6"/>
<rect x="886.5" y="175.6" class="st1" width="1.5" height="52.6"/>
<rect x="889.2" y="175.6" class="st1" width="1.5" height="52.6"/>
<rect x="889.9" y="175.6" class="st1" width="1.5" height="52.6"/>
<rect x="895.9" y="175.6" class="st1" width="1.5" height="52.6"/>
<rect x="914.9" y="175.6" class="st1" width="1.5" height="52.6"/>
<rect x="919.2" y="175.6" class="st1" width="1.5" height="52.6"/>
<rect x="922.6" y="175.6" class="st1" width="1.5" height="52.6"/>
<rect x="924.3" y="175.6" class="st1" width="1.5" height="52.6"/>
<rect x="926.5" y="175.6" class="st1" width="1.5" height="52.6"/>
<rect x="929.7" y="175.6" class="st1" width="1.5" height="52.6"/>
<rect x="937" y="175.6" class="st1" width="1.5" height="52.6"/>
<rect x="937.9" y="175.6" class="st1" width="1.5" height="52.6"/>
<rect x="941.7" y="175.6" class="st1" width="1.5" height="52.6"/>
<rect x="951.3" y="175.6" class="st1" width="1.5" height="52.6"/>
<rect x="955.5" y="175.6" class="st1" width="1.5" height="52.6"/>
<rect x="960.5" y="175.6" class="st1" width="1.5" height="52.6"/>
<rect x="962" y="175.6" class="st1" width="1.5" height="52.6"/>
<rect x="966.1" y="175.6" class="st1" width="1.5" height="52.6"/>
<rect x="966.5" y="175.6" class="st1" width="1.5" height="52.6"/>
<rect x="972.3" y="175.6" class="st1" width="1.5" height="52.6"/>
<rect x="979" y="175.6" class="st1" width="1.5" height="52.6"/>
<rect x="981" y="175.6" class="st1" width="1.5" height="52.6"/>
<rect x="983.7" y="175.6" class="st1" width="1.5" height="52.6"/>
<rect x="984.3" y="175.6" class="st1" width="1.5" height="52.6"/>
<rect x="984.6" y="175.6" class="st1" width="1.5" height="52.6"/>
<rect x="985.1" y="175.6" class="st1" width="1.5" height="52.6"/>
<rect x="988.5" y="175.6" class="st1" width="1.5" height="52.6"/>
<rect x="1002.1" y="175.6" class="st1" width="1.5" height="52.6"/>
<rect x="1004.3" y="175.6" class="st1" width="1.5" height="52.6"/>
<rect x="1006" y="175.6" class="st1" width="1.5" height="52.6"/>
<polygon class="st0" points="404.4,210.9 393.5,228.2 415.4,228.2 "/>
<polygon class="st0" points="445.2,210.9 434.3,228.2 456.2,228.2 "/>
<polygon class="st0" points="474.4,210.9 463.4,228.2 485.3,228.2 "/>
<polygon class="st0" points="644.1,210.9 633.1,228.2 655,228.2 "/>
<polygon class="st0" points="692.2,210.9 681.3,228.2 703.2,228.2 "/>
<polygon class="st0" points="760.8,210.9 749.9,228.2 771.8,228.2 "/>
<polygon class="st0" points="818.4,210.9 807.4,228.2 829.3,228.2 "/>
<polygon class="st0" points="845.9,210.9 835,228.2 856.8,228.2 "/>
<polygon class="st0" points="858.4,210.9 847.5,228.2 869.4,228.2 "/>
<polygon class="st0" points="879.2,210.9 868.2,228.2 890.1,228.2 "/>
<polygon class="st0" points="898.5,210.9 887.5,228.2 909.4,228.2 "/>
<polygon class="st0" points="983.2,210.9 972.2,228.2 994.1,228.2 "/>
<polygon class="st0" points="991.8,210.9 980.8,228.2 1002.7,228.2 "/>
<path class="st2" d="M435.4,191.9c0,5.8,4.7,10.4,10.4,10.4c5.8,0,10.4-4.7,10.4-10.4c0-5.8-4.7-10.4-10.4-10.4
	S435.4,186.1,435.4,191.9C435.4,191.9,435.4,191.9,435.4,191.9z"/>
<polygon class="st2" points="447.2,228.2 444.3,228.2 444.3,199.6 447.2,199.6 447.2,228.2 "/>
<polygon class="st0" points="445.8,210.9 434.8,228.2 456.7,228.2 "/>
<path class="st2" d="M731.4,191.9c0,5.8,4.7,10.4,10.4,10.4c5.8,0,10.4-4.7,10.4-10.4c0-5.8-4.7-10.4-10.4-10.4
	C736.1,181.4,731.4,186.1,731.4,191.9C731.4,191.9,731.4,191.9,731.4,191.9z"/>
<polygon class="st2" points="743.3,228.2 740.3,228.2 740.3,199.6 743.3,199.6 743.3,228.2 "/>
<polygon class="st0" points="741.8,210.9 730.8,228.2 752.7,228.2 "/>
<path class="st2" d="M933.5,191.9c0,5.8,4.7,10.4,10.4,10.4s10.4-4.7,10.4-10.4c0-5.8-4.7-10.4-10.4-10.4c0,0,0,0,0,0
	C938.2,181.4,933.5,186.1,933.5,191.9z"/>
<polygon class="st2" points="945.3,228.2 942.4,228.2 942.4,199.6 945.3,199.6 945.3,228.2 "/>
<polygon class="st0" points="943.9,210.9 932.9,228.2 954.8,228.2 "/>
<path class="st2" d="M516.7,115.8c0-60.4,48.9-109.3,109.2-109.4c26.5,0,52.1,9.6,72.1,27.1l-0.7,0.8
	c-45-39.4-113.4-34.8-152.8,10.2c-17.3,19.8-26.8,45.1-26.8,71.4H516.7z"/>
<polygon class="st2" points="512.2,114.4 517.5,122.9 522.2,114.2 "/>
<rect x="682.3" y="44" class="st2" width="59.7" height="18.6"/>
<path class="st3" d="M696.8,58.8c-1.1,1.2-2.6,1.9-4.1,1.9c-0.9,0-1.8-0.2-2.6-0.6c-0.8-0.4-1.5-0.9-2.1-1.6
	c-0.6-0.7-1.1-1.5-1.4-2.3c-0.3-0.9-0.5-1.8-0.5-2.8c0-0.9,0.2-1.9,0.5-2.7c0.3-0.8,0.8-1.6,1.4-2.3c0.6-0.7,1.3-1.2,2.1-1.5
	c2-0.9,4.2-0.7,6.1,0.3c0.9,0.5,1.6,1.3,2.1,2.2l-1.7,1.2c-0.3-0.7-0.9-1.3-1.6-1.7c-0.7-0.4-1.5-0.6-2.2-0.6
	c-0.6,0-1.3,0.1-1.8,0.4c-0.5,0.3-1,0.7-1.4,1.1c-0.4,0.5-0.7,1-0.9,1.7c-0.2,0.6-0.3,1.3-0.3,2c0,0.7,0.1,1.4,0.3,2
	c0.2,0.6,0.6,1.2,1,1.6c0.4,0.4,0.8,0.8,1.4,1.1c0.6,0.3,1.2,0.4,1.8,0.4c0.7,0,1.4-0.2,2.1-0.5c0.7-0.4,1.4-0.9,1.9-1.6V55h-3v-1.6
	h4.9v7.2h-1.9L696.8,58.8z"/>
<path class="st3" d="M708,60.7c-1,0-1.9-0.2-2.8-0.6c-0.8-0.4-1.6-0.9-2.2-1.6c-0.6-0.7-1.1-1.5-1.4-2.3c-0.3-0.8-0.5-1.8-0.5-2.7
	c0-0.9,0.2-1.9,0.5-2.7c0.3-0.8,0.8-1.6,1.4-2.3c0.6-0.7,1.3-1.2,2.2-1.6c0.9-0.4,1.8-0.6,2.7-0.6c1,0,1.9,0.2,2.8,0.6
	c0.8,0.4,1.5,1,2.1,1.7c0.6,0.7,1.1,1.5,1.4,2.3c0.7,1.7,0.7,3.6,0,5.3c-0.3,0.8-0.8,1.6-1.4,2.3c-0.6,0.7-1.4,1.2-2.2,1.6
	C709.8,60.5,708.9,60.7,708,60.7z M703.5,53.5c0,0.7,0.1,1.3,0.3,1.9c0.2,0.6,0.5,1.2,0.9,1.7c0.4,0.5,0.9,0.9,1.4,1.2
	c0.6,0.3,1.2,0.4,1.9,0.4c0.7,0,1.3-0.1,1.9-0.5c0.5-0.3,1-0.7,1.4-1.2c0.4-0.5,0.7-1.1,0.9-1.7c0.4-1.2,0.4-2.6,0-3.8
	c-0.2-0.6-0.5-1.2-0.9-1.6c-0.4-0.5-0.9-0.9-1.4-1.1c-1.2-0.6-2.6-0.6-3.8,0c-0.5,0.3-1,0.7-1.4,1.2c-0.4,0.5-0.7,1.1-0.9,1.7
	C703.6,52.2,703.4,52.8,703.5,53.5L703.5,53.5z"/>
<path class="st3" d="M721.6,46.4h2l5.6,14.2h-2.4l-1.5-3.9h-5.5l-1.5,3.9h-2.4L721.6,46.4z M724.8,55l-2.3-6.1l-2.4,6.1H724.8z"/>
<path class="st3" d="M731.7,60.6V46.4h2.2v12.2h7.6v2L731.7,60.6z"/>
<path class="st2" d="M744.2,60.6V46.4h2.2v12.2h7.6v2L744.2,60.6z"/>
<path class="st2" d="M756.7,60.6V46.4h2.2v12.2h7.6v2L756.7,60.6z"/>
<path class="st2" d="M769.1,60.6V46.4h2.2v12.2h7.6v2L769.1,60.6z"/>
<path class="st2" d="M781.6,60.6V46.4h2.2v12.2h7.6v2L781.6,60.6z"/>
<path class="st2" d="M794.1,60.6V46.4h2.2v12.2h7.7v2L794.1,60.6z"/>
<path class="st2" d="M806.6,60.6V46.4h2.2v12.2h7.6v2L806.6,60.6z"/>
<path class="st2" d="M819.1,60.6V46.4h2.2v12.2h7.6v2L819.1,60.6z"/>
<path class="st2" d="M831.5,60.6V46.4h2.2v12.2h7.6v2L831.5,60.6z"/>
<path class="st2" d="M844,60.6V46.4h2.2v12.2h7.6v2L844,60.6z"/>
<path class="st2" d="M856.5,60.6V46.4h2.2v12.2h7.6v2L856.5,60.6z"/>
<path class="st2" d="M869,60.6V46.4h2.2v12.2h7.6v2L869,60.6z"/>
<path class="st2" d="M881.5,60.6V46.4h2.2v12.2h7.6v2L881.5,60.6z"/>
<path class="st2" d="M893.9,60.6V46.4h2.2v12.2h7.6v2L893.9,60.6z"/>
<path class="st2" d="M906.4,60.6V46.4h2.2v12.2h7.6v2L906.4,60.6z"/>
<path class="st2" d="M918.9,60.6V46.4h2.2v12.2h7.6v2L918.9,60.6z"/>
<path class="st2" d="M931.4,60.6V46.4h2.2v12.2h7.6v2L931.4,60.6z"/>
<path class="st2" d="M943.9,60.6V46.4h2.2v12.2h7.6v2L943.9,60.6z"/>
<path class="st2" d="M956.3,60.6V46.4h2.2v12.2h7.6v2L956.3,60.6z"/>
<path class="st2" d="M968.8,60.6V46.4h2.2v12.2h7.6v2L968.8,60.6z"/>
<path class="st2" d="M981.3,60.6V46.4h2.2v12.2h7.6v2L981.3,60.6z"/>
<path class="st2" d="M993.8,60.6V46.4h2.2v12.2h7.6v2L993.8,60.6z"/>
<path class="st2" d="M1006.3,60.6V46.4h2.2v12.2h7.6v2L1006.3,60.6z"/>
<path class="st2" d="M1018.7,60.6V46.4h2.3v12.2h7.6v2L1018.7,60.6z"/>
<path class="st2" d="M1031.2,60.6V46.4h2.2v12.2h7.6v2L1031.2,60.6z"/>
<path class="st2" d="M1043.7,60.6V46.4h2.2v12.2h7.6v2L1043.7,60.6z"/>
<path class="st2" d="M1056.2,60.6V46.4h2.2v12.2h7.6v2L1056.2,60.6z"/>
<path class="st2" d="M1068.7,60.6V46.4h2.2v12.2h7.6v2L1068.7,60.6z"/>
<path class="st2" d="M1081.1,60.6V46.4h2.2v12.2h7.6v2L1081.1,60.6z"/>
<path class="st2" d="M1093.6,60.6V46.4h2.2v12.2h7.6v2L1093.6,60.6z"/>
<path class="st2" d="M1106.1,60.6V46.4h2.2v12.2h7.7v2L1106.1,60.6z"/>
<path class="st2" d="M1118.6,60.6V46.4h2.2v12.2h7.6v2L1118.6,60.6z"/>
<path class="st2" d="M1131.1,60.6V46.4h2.2v12.2h7.6v2L1131.1,60.6z"/>
<path class="st2" d="M1143.5,60.6V46.4h2.2v12.2h7.6v2L1143.5,60.6z"/>
<path class="st2" d="M1156,60.6V46.4h2.2v12.2h7.6v2L1156,60.6z"/>
<path class="st2" d="M1168.5,60.6V46.4h2.2v12.2h7.6v2L1168.5,60.6z"/>
<path class="st2" d="M1181,60.6V46.4h2.2v12.2h7.6v2L1181,60.6z"/>
<path class="st2" d="M1193.5,60.6V46.4h2.2v12.2h7.6v2L1193.5,60.6z"/>
<path class="st2" d="M1205.9,60.6V46.4h2.2v12.2h7.6v2L1205.9,60.6z"/>
<path class="st2" d="M1218.4,60.6V46.4h2.2v12.2h7.6v2L1218.4,60.6z"/>
<path class="st2" d="M1230.9,60.6V46.4h2.2v12.2h7.6v2L1230.9,60.6z"/>
<path class="st2" d="M1243.4,60.6V46.4h2.2v12.2h7.6v2L1243.4,60.6z"/>
<path class="st2" d="M1255.9,60.6V46.4h2.2v12.2h7.6v2L1255.9,60.6z"/>
<path class="st2" d="M1268.3,60.6V46.4h2.2v12.2h7.6v2L1268.3,60.6z"/>
</svg>
