<?xml version="1.0" encoding="utf-8"?>
<!-- Generator: Adobe Illustrator 24.3.0, SVG Export Plug-In . SVG Version: 6.00 Build 0)  -->
<svg version="1.1" id="Layer_1" xmlns="http://www.w3.org/2000/svg" xmlns:xlink="http://www.w3.org/1999/xlink" x="0px" y="0px"
	 viewBox="0 0 1920 1080" style="enable-background:new 0 0 1920 1080;" xml:space="preserve">
<style type="text/css">
	.st0{fill:#0F1629;}
	.st1{opacity:0.66;}
	.st2{fill:none;stroke:#FFFFFF;stroke-width:2;stroke-miterlimit:10;}
	.st3{fill:#FFFFFF;stroke:#FFFFFF;stroke-width:2;stroke-miterlimit:10;}
	.st4{clip-path:url(#SVGID_2_);fill:#F4B31A;}
	.st5{clip-path:url(#SVGID_4_);fill:#F4B31A;}
	.st6{clip-path:url(#SVGID_6_);fill:#F4B31A;}
	.st7{opacity:0.85;clip-path:url(#SVGID_8_);}
	.st8{opacity:0.66;clip-path:url(#SVGID_10_);fill:#FFFFFF;}
	.st9{opacity:0.85;clip-path:url(#SVGID_12_);}
	.st10{opacity:0.66;clip-path:url(#SVGID_14_);fill:#FFFFFF;}
	.st11{opacity:0.85;clip-path:url(#SVGID_16_);}
	.st12{opacity:0.66;clip-path:url(#SVGID_18_);fill:#FFFFFF;}
	.st13{opacity:0.85;clip-path:url(#SVGID_20_);}
	.st14{opacity:0.66;clip-path:url(#SVGID_22_);fill:#FFFFFF;}
	.st15{clip-path:url(#SVGID_24_);fill:#37B680;}
	.st16{clip-path:url(#SVGID_26_);fill:#37B680;}
	.st17{clip-path:url(#SVGID_28_);fill:#37B680;}
	.st18{opacity:0.78;clip-path:url(#SVGID_30_);}
	.st19{opacity:0.66;clip-path:url(#SVGID_32_);fill:#FFFFFF;}
	.st20{opacity:0.78;clip-path:url(#SVGID_34_);}
	.st21{opacity:0.66;clip-path:url(#SVGID_36_);fill:#FFFFFF;}
	.st22{opacity:0.78;clip-path:url(#SVGID_38_);}
	.st23{opacity:0.66;clip-path:url(#SVGID_40_);fill:#FFFFFF;}
	.st24{opacity:0.78;clip-path:url(#SVGID_42_);}
	.st25{opacity:0.66;clip-path:url(#SVGID_44_);fill:#FFFFFF;}
	.st26{opacity:0.78;clip-path:url(#SVGID_46_);}
	.st27{opacity:0.66;clip-path:url(#SVGID_48_);fill:#FFFFFF;}
	.st28{clip-path:url(#SVGID_50_);fill:#E66577;}
	.st29{clip-path:url(#SVGID_52_);fill:#E66577;}
	.st30{clip-path:url(#SVGID_54_);fill:#E66577;}
	.st31{opacity:0.8;clip-path:url(#SVGID_56_);}
	.st32{opacity:0.66;clip-path:url(#SVGID_58_);fill:#FFFFFF;}
	.st33{opacity:0.8;clip-path:url(#SVGID_60_);}
	.st34{opacity:0.66;clip-path:url(#SVGID_62_);fill:#FFFFFF;}
	.st35{opacity:0.8;clip-path:url(#SVGID_64_);}
	.st36{opacity:0.66;clip-path:url(#SVGID_66_);fill:#FFFFFF;}
	.st37{opacity:0.8;clip-path:url(#SVGID_68_);}
	.st38{opacity:0.66;clip-path:url(#SVGID_70_);fill:#FFFFFF;}
	.st39{opacity:0.8;clip-path:url(#SVGID_72_);}
	.st40{opacity:0.66;clip-path:url(#SVGID_74_);fill:#FFFFFF;}
	.st41{opacity:0.8;}
	.st42{opacity:0.66;clip-path:url(#SVGID_76_);fill:#FFFFFF;}
</style>
<rect class="st0" width="1920" height="1079.2"/>
<g class="st1">
	<line class="st2" x1="1919" y1="435.4" x2="2.1" y2="435.4"/>
	<line class="st2" x1="2.1" y1="235.1" x2="1919" y2="235.1"/>
	<line class="st2" x1="2.1" y1="385.3" x2="1919" y2="385.3"/>
	<line class="st2" x1="2.1" y1="335.3" x2="1919" y2="335.3"/>
	<line class="st2" x1="2.1" y1="285.2" x2="1919" y2="285.2"/>
	<line class="st2" x1="1919" y1="742" x2="2.1" y2="741.9"/>
	<line class="st2" x1="2.1" y1="541.6" x2="1919" y2="541.7"/>
	<line class="st2" x1="2.1" y1="691.9" x2="1919" y2="691.9"/>
	<line class="st2" x1="2.1" y1="641.8" x2="1919" y2="641.8"/>
	<line class="st2" x1="2.1" y1="591.7" x2="1919" y2="591.7"/>
	<rect x="2.1" y="235.1" class="st3" width="13.8" height="200.3"/>
	<rect x="2.1" y="541.6" class="st3" width="13.8" height="200.3"/>
	<rect x="1905.2" y="235.1" class="st3" width="13.8" height="200.3"/>
	<rect x="1905.2" y="541.6" class="st3" width="13.8" height="200.3"/>
</g>
<g>
	<g>
		<g>
			<g>
				<defs>
					<rect id="SVGID_1_" x="881.5" y="243.1" width="138.7" height="763.1"/>
				</defs>
				<clipPath id="SVGID_2_">
					<use xlink:href="#SVGID_1_"  style="overflow:visible;"/>
				</clipPath>
				<path class="st4" d="M899.2,875.6c13.5,4.8,22.3-10.4,35.6-5.3c5,1.9,8.4,4.7,10.9,8c9.5,12.5,13.4,33.9,15,48.7
					c1.3,11.9,1.7,24.1,3.2,35.7c1.4,10.5,3.4,21,7.5,30.9c2.5,5.8,5.4,14.5,14,12.2c7.2-1.9,3-7.5,2.8-12.9
					c-0.5-8.7-1.9-18.8-0.6-27.5c2.9-19.3,9.3-37.2,10.7-56.7c3.5-46.9-20.3-89.5-33.7-133.8c-15.9-52.5-10-96.8-6.3-151.1
					c1.1-15.5,5.5-52.2-2.9-65.2c-18.5-28.7-26.5,9.5-26.7,29.7c-0.2,20.1,4.5,40,4,60c-0.2,8-1.1,17.8-5.5,24.7
					c-4.4,6.8-13,13.9-19.9,18.2c-2,1.3-4.5,2-6.3,3.5c-2.2,1.7-4.4,4-6.4,6.1c-4.1,4.3-6,9.3-7.8,14.9c-3.1,10-1,23.4-1,33.8
					c0,7.7-0.1,15.1-1.3,22.6c-0.3,2.1-0.5,4.3-0.7,6.4c-2.6,20-3.3,40.7-1.1,60.9C884,850.8,886.2,871,899.2,875.6"/>
			</g>
			<g>
				<defs>
					<rect id="SVGID_3_" x="881.5" y="243.1" width="138.7" height="763.1"/>
				</defs>
				<clipPath id="SVGID_4_">
					<use xlink:href="#SVGID_3_"  style="overflow:visible;"/>
				</clipPath>
				<path class="st5" d="M955.5,449.8C947.8,457.2,968.5,437.2,955.5,449.8c-7.7,7.5-17.9,18.8-29.8,17.5c-9-1-15.2-7-23.1-8.7
					c-11.1-2.5-11.6,2.3-9.8,12c2.3,12.6,9.4,25.1,19.6,32.2c14,9.8,30.5,3.4,43.1-5.6c18.9-13.6,30.6-33.4,42-53.1
					c3.7-6.4,9.5-13.6,15.7-18.3c1.6-1.2,3.4-2.4,4.8-3.9c1.1-1.2,2.2-2.8,2.2-4.5c-0.1-2.6-1.2-5.1-3.5-6.6
					c-5-3.3-12.5,0.2-17.1,2.8c-4.1,2.3-7.9,5-11.6,7.8c-8.2,6.2-16,13-23.5,20C961.5,444.1,958.5,446.9,955.5,449.8"/>
			</g>
			<g>
				<defs>
					<rect id="SVGID_5_" x="881.5" y="243.1" width="138.7" height="763.1"/>
				</defs>
				<clipPath id="SVGID_6_">
					<use xlink:href="#SVGID_5_"  style="overflow:visible;"/>
				</clipPath>
				<path class="st6" d="M944.8,271.3c-8.4-21.6,23.7-23.1,44.7-26.5c1.2-0.2,2.3-0.4,3.4-0.6c2.4-0.4,6.2-2.4,7.9,0.4
					c2,3.3,1.4,9.8,0.7,13.4c-0.7,3.4-2.2,6.7-4.9,8.9c-4.6,3.8-11.2,3.2-16,6.6c-4.6,3.3-5.7,7.3-11.9,9.2
					C957.9,286,948.8,281.5,944.8,271.3"/>
			</g>
			<g>
				<defs>
					<rect id="SVGID_7_" x="881.5" y="243.1" width="138.7" height="763.1"/>
				</defs>
				<clipPath id="SVGID_8_">
					<use xlink:href="#SVGID_7_"  style="overflow:visible;"/>
				</clipPath>
				<g class="st7">
					<g>
						<g>
							<defs>
								<rect id="SVGID_9_" x="890" y="557.7" width="61.7" height="307.4"/>
							</defs>
							<clipPath id="SVGID_10_">
								<use xlink:href="#SVGID_9_"  style="overflow:visible;"/>
							</clipPath>
							<path class="st8" d="M902.9,865.1c0,0-0.3-0.1-1-0.2c-0.7-0.2-1.7-0.7-2.7-1.6c-2.1-1.7-4.2-5.2-5.7-9.8
								c-1.5-4.6-2.3-10.3-2.8-16.7c-0.3-3.2-0.4-6.7-0.5-10.2c-0.1-3.8-0.3-7.3-0.1-11.4c0.1-8.1,0.9-16.6,2-25.6
								c1.1-9,2.5-18.3,2.9-28.1c0.3-9.5-1.7-19.5-1.9-30.2c0-5.3,0.3-10.9,2.3-16.4c1-2.7,2.4-5.4,4.4-7.8c1.1-1.3,1.9-2,2.8-3
								c1-1,2-2,3-2.8c8.1-7.3,16.7-12.9,22.8-20.5c6.2-7.5,9.7-16.6,10.7-26.1c1.1-9.5,0.1-18.9-0.9-27.8c-1-8.9-2.2-17.4-2.7-25.3
								s-0.9-15.2-0.6-21.7c0.4-6.5,1.1-12.2,3.3-17c1.1-2.3,3-4.7,5.7-5.2c0.6-0.2,2.4-0.2,3.2,0c1,0.2,1.7,0.7,2.3,1.1
								c2.5,1.9,2.1,3.9,2.2,3.8c0,0.1,0,0.1,0,0.2c-0.1,0-0.1,0-0.2,0c0,0-0.3-0.2-0.9-0.5c-0.6-0.3-1.4-0.6-2.4-0.8
								c-0.5-0.1-1-0.1-1.6-0.1c-0.7,0-0.7,0-1.7,0.3c-0.8,0.2-2,1.2-2.8,3c-1.6,3.7-2.3,9.2-2.5,15.4c-0.2,6.2-0.1,13.4,0.4,21.2
								c0.5,7.8,1.3,16.2,2.4,25.2c1,9,2,18.5,1.5,28.7c-0.3,5-1,10.3-2.7,15.4c-1.8,5.2-4.3,9.9-7.7,14.3
								c-3.3,4.3-7.3,8.2-11.3,11.6c-4.1,3.5-8.2,6.6-12,10c-1,0.8-1.8,1.7-2.7,2.5c-0.8,0.8-2,2-2.6,2.7c-1.5,1.6-2.6,3.5-3.5,5.7
								c-1.7,4.3-2.4,9.2-2.7,14.2c-0.2,5,0,10,0.2,15.1c0.2,5,0.6,10.1,0.3,15.2c-0.6,9.8-1.2,19.3-1.8,28.4
								c-0.6,8.9-1.3,17.4-1.3,25c-0.2,3.8,0.2,7.7,0.2,11.1c0.1,3.6,0.1,7,0.2,10.2c0.2,6.3,0.6,11.7,1.2,16
								c0.6,4.4,1.7,7.6,2.9,9.5c0.6,1,1.3,1.5,1.7,1.9c0.5,0.4,0.8,0.6,0.8,0.6c0.2,0.1,0.2,0.3,0.1,0.4
								C903.2,865,903,865.1,902.9,865.1"/>
						</g>
					</g>
				</g>
			</g>
			<g>
				<defs>
					<rect id="SVGID_11_" x="881.5" y="243.1" width="138.7" height="763.1"/>
				</defs>
				<clipPath id="SVGID_12_">
					<use xlink:href="#SVGID_11_"  style="overflow:visible;"/>
				</clipPath>
				<g class="st9">
					<g>
						<g>
							<defs>
								<rect id="SVGID_13_" x="938.4" y="858.9" width="37.5" height="108.7"/>
							</defs>
							<clipPath id="SVGID_14_">
								<use xlink:href="#SVGID_13_"  style="overflow:visible;"/>
							</clipPath>
							<path class="st10" d="M974.1,966.9c0,0-0.3-1.8-0.8-5.1c-0.5-3.2-1.1-8-1.6-13.5c-0.5-5.6-1.2-12.1-1.8-19
								c-0.8-6.9-1.6-14.3-3-21.5c-0.8-3.6-1.5-7.2-2.7-10.5c-0.5-1.7-1.1-3.3-1.6-5c-0.7-1.6-1.3-3.1-1.9-4.7
								c-0.5-1.6-1.3-3-2.1-4.3c-0.8-1.4-1.3-2.8-2.2-4c-1.7-2.4-3-4.9-4.8-6.7c-0.8-1-1.6-2-2.3-2.9c-0.9-0.8-1.7-1.5-2.4-2.3
								c-0.8-0.8-1.5-1.4-2.1-2.2c-0.7-0.7-1.4-1.1-2-1.6c-2.5-1.9-4-3.3-4-3.3l-0.1-0.1c-0.3-0.3-0.3-0.7,0-1
								c0.2-0.2,0.4-0.2,0.6-0.2c0,0,1.9,0.2,5.3,1.2c0.8,0.2,1.8,0.5,2.8,0.9c1,0.5,1.9,1,3,1.6c1.1,0.6,2.2,1.2,3.4,2
								c1,0.9,2.2,1.8,3.3,2.9c2.4,2,4.2,4.7,6.3,7.5c1.7,3,3.5,6.2,4.7,9.7c0.6,1.8,1.2,3.5,1.8,5.3c0.4,1.8,0.8,3.7,1.2,5.5
								c0.8,3.7,1.3,7.5,1.8,11.3c0.4,3.8,0.8,7.6,1,11.3c0.3,3.7,0.4,7.3,0.5,10.9c0.2,7,0.3,13.5,0.5,19.2
								c0.1,5.6,0.4,10.2,0.6,13.5c0.3,3.2,0.5,5.1,0.5,5.1c0,0.5-0.3,0.9-0.8,1C974.6,967.7,974.2,967.3,974.1,966.9"/>
						</g>
					</g>
				</g>
			</g>
			<g>
				<defs>
					<rect id="SVGID_15_" x="881.5" y="243.1" width="138.7" height="763.1"/>
				</defs>
				<clipPath id="SVGID_16_">
					<use xlink:href="#SVGID_15_"  style="overflow:visible;"/>
				</clipPath>
				<g class="st11">
					<g>
						<g>
							<defs>
								<rect id="SVGID_17_" x="897" y="413.8" width="115.4" height="66.6"/>
							</defs>
							<clipPath id="SVGID_18_">
								<use xlink:href="#SVGID_17_"  style="overflow:visible;"/>
							</clipPath>
							<path class="st12" d="M1011.8,415.1c0,0-0.6,0-1.6,0.2c-0.9,0.1-2.4,0.6-4.1,1.4c-3.4,1.6-7.8,5-12.6,9.5
								c-4.8,4.6-9.9,10.4-15.2,16.9c-2.6,3.2-5.3,6.7-8.1,10.1c-2.9,3.4-6,6.7-9.3,10c-6.5,6.4-14,12.5-22.6,15.5
								c-4.3,1.5-8.9,2-13.1,1.6c-1.2-0.1-2-0.3-3-0.4c-1-0.2-2.1-0.4-3-0.8c-1.9-0.6-3.7-1.4-5.3-2.4c-3.2-1.9-5.5-4-7.7-5.6
								c-1-0.8-1.9-1.4-2.8-1.9c-0.4-0.2-0.9-0.5-1.2-0.6c-0.1-0.1-0.4-0.1-0.7-0.2c-1.2-0.1-2.3,0.3-3.1,0.9
								c-0.8,0.6-1.1,1.2-1.1,1.2c0,0-0.5-0.5-0.4-1.9c0.1-1.3,1.3-3.5,4.1-4.2c0.7-0.1,1.5-0.2,2.4,0c0.8,0.1,1.3,0.4,2,0.7
								c1.2,0.5,2.4,1.3,3.7,2.2c2.2,1.6,4.5,3.8,7.2,5.2c1.3,0.8,2.7,1.3,4.3,1.8c0.8,0.2,1.5,0.4,2.3,0.5c0.9,0.1,2,0.3,2.7,0.3
								c3.5,0.3,7.2-0.2,10.8-1.6c7.3-2.7,14.1-8.3,20.1-14.6c3.1-3.1,5.9-6.5,8.8-9.8c2.9-3.3,6-6.4,8.9-9.5
								c5.9-6.1,11.6-11.6,17-15.9c5.3-4.3,10.3-7.4,14.1-8.7c1.9-0.7,3.5-1,4.7-1.1c1.1-0.1,1.7,0,1.7,0l0.1,0
								c0.3,0,0.6,0.3,0.6,0.7C1012.3,414.9,1012.1,415.1,1011.8,415.1"/>
						</g>
					</g>
				</g>
			</g>
			<g>
				<defs>
					<rect id="SVGID_19_" x="881.5" y="243.1" width="138.7" height="763.1"/>
				</defs>
				<clipPath id="SVGID_20_">
					<use xlink:href="#SVGID_19_"  style="overflow:visible;"/>
				</clipPath>
				<g class="st13">
					<g>
						<g>
							<defs>
								<rect id="SVGID_21_" x="949.1" y="247.6" width="48.4" height="26.4"/>
							</defs>
							<clipPath id="SVGID_22_">
								<use xlink:href="#SVGID_21_"  style="overflow:visible;"/>
							</clipPath>
							<path class="st14" d="M955.1,274c0-0.1-1,0.1-2.7-1c-1.6-1-3.4-3.7-3.3-7.2c0-0.9,0.2-1.8,0.6-2.9c0.1-0.2,0.2-0.5,0.4-0.8
								l0.1-0.2l0,0l0.2-0.2l0-0.1l0.2-0.2c0.3-0.3,0.4-0.6,0.8-1c1.7-1.7,3.1-2.5,4.8-3.5c1.7-0.9,3.5-1.8,5.5-2.4
								c2-0.6,3.7-0.9,5.6-1.4c1.8-0.4,3.7-0.8,5.5-1.2c1.8-0.4,3.7-0.5,5.5-0.8c3.6-0.4,7-0.8,9.7-1.2c2.7-0.4,4.8-0.8,6.3-1.3
								c1.5-0.4,2.2-0.9,2.2-0.9c0.3-0.2,0.6-0.1,0.8,0.2c0.1,0.2,0.1,0.4,0,0.5l0,0c0,0-0.5,1-1.9,2.2c-1.5,1.2-3.8,2.2-6.7,2.9
								c-1.5,0.3-2.9,0.7-4.5,1.1c-1.5,0.4-3.2,0.8-4.9,1.3c-1.7,0.5-3.4,0.8-5.2,1.4c-1.8,0.6-3.6,1.1-5.4,1.6
								c-1.8,0.5-3.6,0.9-5.4,1.3c-1.5,0.4-3.1,1-4.5,1.7c-1.4,0.6-2.9,1.6-3.7,2.1c-0.2,0.1-0.6,0.5-0.9,0.7l-0.2,0.2l-0.1,0
								c0-0.1-0.2,0.2,0.1-0.1l0,0l0,0c0,0-0.1,0.1-0.2,0.2c-0.2,0.3-0.5,0.9-0.7,1.4c-0.7,2.1-0.5,4.2,0.2,5.5
								C954.2,273.3,955.1,274,955.1,274"/>
						</g>
					</g>
				</g>
			</g>
		</g>
	</g>
	<g>
		<g>
			<g>
				<defs>
					<rect id="SVGID_23_" x="496.3" y="108.5" width="185.2" height="631.2"/>
				</defs>
				<clipPath id="SVGID_24_">
					<use xlink:href="#SVGID_23_"  style="overflow:visible;"/>
				</clipPath>
				<path class="st15" d="M604,562.4C571.7,573.4,619.7,557.1,604,562.4c-32.4,11-66.7,25.8-85.8,56c-8.9,14-19.4,31.1-16.4,48.5
					c1.3,7.1,2.3,14,10.2,16c8.5,2.2,12.1-5.6,17.8-10.5c3.7-3.3,7-3,11.7-3c6.9,0,12.2,4.1,15.7,9.8c5.2,8.5,7.2,18.7,10,28.1
					c2.5,8.6,5.2,18.7,12.1,24.9c29.1,26.5,58.4-23.1,62.5-47.5c5.4-31.4,2.1-59.2,17.4-87.9c10.8-20.2,20.7-37.5,22.1-60.7
					c0.4-6.8,0.3-13.6-0.2-20.4c-0.6-8.7-0.8-20.1-6.4-28.6c-1.9-2.9-3.9-5.9-6.6-8.2c-1.3-1.1-2.8-2-4.4-2.4
					c-1.1-0.3-4.1-0.9-5-0.2c-0.7,0.5-0.5,0.8-0.2,1.7c1.3,3.2,2,6.5,2.3,9.9c1.3,16.5,0,39.1-11.4,52
					C638,553,619.7,557.1,604,562.4C571.7,573.4,619.7,557.1,604,562.4"/>
			</g>
			<g>
				<defs>
					<rect id="SVGID_25_" x="496.3" y="108.5" width="185.2" height="631.2"/>
				</defs>
				<clipPath id="SVGID_26_">
					<use xlink:href="#SVGID_25_"  style="overflow:visible;"/>
				</clipPath>
				<path class="st16" d="M504.6,545.5c-2.1,8.6-19,44.8,2.5,43.3c7.8-0.6,12.9-6.5,17.5-12.2c5.4-6.7,12.1-12.1,18.9-17.4
					c7.2-5.7,15.4-10,23.9-13.5c11.2-4.6,23.7-10.3,35.2-13.8c13.5-4.1,22.1-12.8,26.4-25.1c4.7-13.4,1.8-26.3,0-39.7
					c-2.7-19.4,13.2-52.3,0.3-69.1c-6.3-8.3-18.8-0.9-25.3,3.2c-14.9,9.5-19.3,28.2-27.7,42.8c-10.2,17.6-24.6,28.9-37.6,43.2
					C522.6,505.1,510.4,522.2,504.6,545.5"/>
			</g>
			<g>
				<defs>
					<rect id="SVGID_27_" x="496.3" y="108.5" width="185.2" height="631.2"/>
				</defs>
				<clipPath id="SVGID_28_">
					<use xlink:href="#SVGID_27_"  style="overflow:visible;"/>
				</clipPath>
				<path class="st17" d="M507.5,109.4c-30.6,10.6,12,31,24.5,32.9c6.7,1,12.4-0.8,19.2,1.1c13,3.7,21.1,12.9,24.4,25.9
					c1.8,7.2,13.7,2.8,23-2.5c11.3-6.4,36.4-32.9,29.5-47.7c-21.9-22.4-60.3,3.1-86.2,0.2C532.2,118.1,519.8,105.1,507.5,109.4"/>
			</g>
			<g>
				<defs>
					<rect id="SVGID_29_" x="496.3" y="108.5" width="185.2" height="631.2"/>
				</defs>
				<clipPath id="SVGID_30_">
					<use xlink:href="#SVGID_29_"  style="overflow:visible;"/>
				</clipPath>
				<g class="st18">
					<g>
						<g>
							<defs>
								<rect id="SVGID_31_" x="511.8" y="494.6" width="160.7" height="178.4"/>
							</defs>
							<clipPath id="SVGID_32_">
								<use xlink:href="#SVGID_31_"  style="overflow:visible;"/>
							</clipPath>
							<path class="st19" d="M514.5,673c0,0-0.1-0.2-0.3-0.7c-0.2-0.5-0.6-1.1-0.9-2c-0.7-1.8-1.5-4.6-1.5-8.3
								c-0.1-3.7,0.6-8.2,2.2-13c1.5-4.9,4-10.1,7.2-15.5c3.2-5.4,7.1-11,11.7-16.5c2.3-2.8,4.7-5.5,7.4-8.3
								c2.6-2.6,5.6-5.3,8.7-7.8c6.2-5,13-9.4,20.3-13.4c7.2-4,14.9-7.3,22.7-10.3c7.7-3.1,15.6-5.6,23.4-8
								c7.8-2.3,15.3-4.5,22.1-7.6c6.8-3,12.8-6.8,17.5-11.6c4.8-4.6,8.4-10.1,10.8-15.5c4.9-11,5.2-21.5,4.9-28.5
								c-0.2-3.6-0.5-6.4-0.8-8.3c-0.3-1.9-0.4-2.9-0.4-2.9c0-0.1,0-0.2,0.2-0.3c0.1,0,0.2,0.1,0.3,0.2c0,0,0.2,1,0.7,2.9
								c0.5,1.9,1,4.7,1.5,8.3c0.9,7.1,1.5,17.9-2.6,30.1c-2.1,6-5.4,12.3-10.4,17.9c-5,5.6-11.7,10.1-18.9,13.5
								c-7.2,3.5-14.9,6-22.6,8.6c-7.6,2.5-15.3,5.3-22.9,8.1c-15.1,5.8-30,12.4-42,21.4c-3.1,2.2-5.7,4.5-8.5,7
								c-2.6,2.4-5.1,5-7.5,7.5c-4.7,5.1-8.9,10.2-12.3,15.2c-6.8,10-10.8,19.6-11.2,26.7c-0.3,3.5,0.2,6.3,0.7,8.2
								c0.2,0.9,0.5,1.6,0.7,2.1C514.5,672.8,514.5,673,514.5,673"/>
						</g>
					</g>
				</g>
			</g>
			<g>
				<defs>
					<rect id="SVGID_33_" x="496.3" y="108.5" width="185.2" height="631.2"/>
				</defs>
				<clipPath id="SVGID_34_">
					<use xlink:href="#SVGID_33_"  style="overflow:visible;"/>
				</clipPath>
				<g class="st20">
					<g>
						<g>
							<defs>
								<rect id="SVGID_35_" x="554.1" y="660.4" width="44" height="69.6"/>
							</defs>
							<clipPath id="SVGID_36_">
								<use xlink:href="#SVGID_35_"  style="overflow:visible;"/>
							</clipPath>
							<path class="st21" d="M596.4,730c0,0-0.3,0-0.9,0c-0.6,0-1.4,0.1-2.9-0.3c-0.7-0.1-1.5-0.3-2.2-0.6c-0.8-0.3-1.6-0.6-2.3-1.1
								c-1.7-0.9-3.1-2.3-4.5-4c-2.8-3.4-4.9-7.8-6.4-12.5c-0.8-2.4-1.5-4.9-2.1-7.3c-0.7-2.5-1.3-4.9-2-7.4
								c-1.4-4.9-2.6-9.9-4.3-14.2c-0.7-2.3-1.7-4.3-2.6-6.2c-0.8-2-2.1-3.5-3-5.1c-0.9-1.6-2.2-2.7-3.1-3.9c-0.9-1.2-2-2-2.8-2.7
								c-1.7-1.4-2.6-2.2-2.6-2.2l-0.2-0.1c-0.4-0.4-0.5-1-0.1-1.4c0.3-0.4,0.9-0.5,1.3-0.2c0,0,1.2,0.7,3.2,1.9
								c1,0.6,2.3,1.3,3.5,2.5c1.2,1.2,2.8,2.2,4,3.9c1.2,1.6,2.8,3.3,3.8,5.3c1.2,2,2.4,4.1,3.4,6.4c1.1,2.3,1.9,4.7,2.8,7.1
								c0.9,2.4,1.6,5,2.4,7.5c1.4,4.9,2.8,9.9,4.1,14.5c1.3,4.5,2.9,8.4,4.9,11.2c1,1.3,2,2.5,3.1,3.3c1,0.8,2.1,1.4,2.9,1.7
								c0.7,0.4,1.7,0.5,2.3,0.6c0.6,0.1,0.9,0.2,0.9,0.2c0.9,0.2,1.5,1,1.4,2C598,729.4,597.2,730,596.4,730"/>
						</g>
					</g>
				</g>
			</g>
			<g>
				<defs>
					<rect id="SVGID_37_" x="496.3" y="108.5" width="185.2" height="631.2"/>
				</defs>
				<clipPath id="SVGID_38_">
					<use xlink:href="#SVGID_37_"  style="overflow:visible;"/>
				</clipPath>
				<g class="st22">
					<g>
						<g>
							<defs>
								<rect id="SVGID_39_" x="505.2" y="403" width="120.3" height="175.1"/>
							</defs>
							<clipPath id="SVGID_40_">
								<use xlink:href="#SVGID_39_"  style="overflow:visible;"/>
							</clipPath>
							<path class="st23" d="M506.9,578.1c0,0-0.8-0.5-1.3-2.1c-0.5-1.6-0.6-4.1,0-7c1.1-6,4.2-14.2,8.4-23.6c1-2.3,2.2-4.8,3.2-7.3
								c1-2.6,1.9-5.3,3.1-8.1c2.5-5.5,5.4-11.2,9.1-16.7c3.6-5.5,7.7-10.9,12.2-16.1c4.4-5.3,9.2-10.3,13.9-15.3
								c9.5-10,18.9-19.9,25.4-30.5c1.7-2.6,3.2-5.2,4.6-7.9c1.3-2.8,2.7-5.5,3.9-8.1c2.7-5.4,5.5-10.3,8.3-14.8
								c2.8-4.5,5.8-8.5,9.2-11.4c3.3-3.1,6.9-5,10.1-5.9c1.6-0.4,3.3-0.4,4.6,0c1.4,0.4,2.3,1.3,2.7,2c0.9,1.5,0.8,2.5,0.9,2.4
								c0,0-0.1-0.2-0.4-0.5c-0.3-0.3-0.7-0.8-1.2-1.3c-1.2-1-3.2-1.1-5.6,0.2c-2.4,1.3-5.1,3.5-7.5,6.5c-2.4,3.1-4.9,6.9-7.4,11.2
								c-2.5,4.4-4.9,9.3-7.3,14.6c-1.3,2.7-2.6,5.5-3.9,8.3c-1.5,2.9-3,5.8-4.9,8.5c-7.4,11.2-17.3,21.2-27.1,30.9
								c-4.9,4.8-9.8,9.6-14.3,14.5c-4.6,4.9-8.7,10-12.5,15.1c-3.8,5.1-7,10.4-9.6,15.5c-1.3,2.6-2.4,5.3-3.6,7.8
								c-1.2,2.7-2.5,5-3.7,7.3c-4.8,9.1-8.5,16.8-10,22.7c-0.8,2.9-0.9,5.2-0.5,6.8c0.4,1.5,1.1,2.1,1.1,2.1L506.9,578.1
								C506.9,578,506.9,578.1,506.9,578.1C506.9,578.1,506.9,578.1,506.9,578.1"/>
						</g>
					</g>
				</g>
			</g>
			<g>
				<defs>
					<rect id="SVGID_41_" x="496.3" y="108.5" width="185.2" height="631.2"/>
				</defs>
				<clipPath id="SVGID_42_">
					<use xlink:href="#SVGID_41_"  style="overflow:visible;"/>
				</clipPath>
				<g class="st24">
					<g>
						<g>
							<defs>
								<rect id="SVGID_43_" x="502" y="114.8" width="118.1" height="17.1"/>
							</defs>
							<clipPath id="SVGID_44_">
								<use xlink:href="#SVGID_43_"  style="overflow:visible;"/>
							</clipPath>
							<path class="st25" d="M620.1,124.1c0,0-0.3-0.4-1-1c-0.7-0.6-1.8-1.4-3.3-2c-3.1-1.3-8-1.5-13.7-0.6
								c-5.7,0.8-12.4,2.6-19.5,4.6c-7.2,2-14.7,4.4-22.8,5.9c-2,0.4-4,0.7-6.3,0.8c-2,0.1-3.9,0.2-6.1,0.1
								c-4.2-0.3-8.2-0.9-11.9-2.2c-3.7-1.2-7.1-2.8-10.2-4.5c-0.8-0.4-1.5-0.8-2.3-1.4c-0.7-0.5-1.3-0.9-2-1.4
								c-1.3-0.9-2.6-1.8-3.8-2.5c-2.5-1.5-4.9-2.7-7.1-3.3c-2.2-0.6-4.3-0.4-5.5,0.5c-1.2,1-1.8,2.3-2,3.2c-0.2,0.9,0,1.3,0,1.3
								l0,0c0,0.1,0,0.2-0.1,0.2c-0.1,0-0.1,0-0.2-0.1c0,0-0.3-0.5-0.2-1.5c0.1-1,0.4-2.4,1.8-3.8c1.4-1.5,4-1.8,6.5-1.4
								c2.5,0.4,5.2,1.4,7.9,2.8c2.8,1.2,5.6,3.3,8.5,4.4c3,1.4,6.4,2.5,9.9,3.3c3.5,0.9,7.2,1.1,10.8,1c1.7-0.1,3.7-0.2,5.7-0.5
								c1.7-0.2,3.6-0.6,5.5-1.1c7.5-1.8,15.3-3.9,22.6-5.5c7.4-1.6,14.4-2.8,20.6-2.8c6.2-0.1,11.5,1.1,14.6,3.3
								c1.6,1,2.5,2.1,3,2.9C619.9,123.7,620.1,124.1,620.1,124.1"/>
						</g>
					</g>
				</g>
			</g>
			<g>
				<defs>
					<rect id="SVGID_45_" x="496.3" y="108.5" width="185.2" height="631.2"/>
				</defs>
				<clipPath id="SVGID_46_">
					<use xlink:href="#SVGID_45_"  style="overflow:visible;"/>
				</clipPath>
				<g class="st26">
					<g>
						<g>
							<defs>
								<rect id="SVGID_47_" x="566" y="144.2" width="15.4" height="20.2"/>
							</defs>
							<clipPath id="SVGID_48_">
								<use xlink:href="#SVGID_47_"  style="overflow:visible;"/>
							</clipPath>
							<path class="st27" d="M566.7,144.2c0,0,0.4,0.1,1.1,0.3c0.7,0.3,1.6,0.4,2.7,1c0.5,0.4,1.1,0.7,1.8,1.1
								c0.6,0.4,1.4,0.8,1.8,1.4c0.5,0.6,1.1,1.2,1.7,1.8c0.6,0.6,1,1.3,1.5,2c0.4,0.7,0.9,1.4,1.3,2.1c0.4,0.7,0.7,1.4,1,2.1
								c0.3,0.7,0.5,1.4,0.7,2.1c0.2,0.7,0.4,1.3,0.5,1.9c0.6,2.4,0.6,4,0.6,4c0,0.2-0.2,0.4-0.4,0.4c-0.2,0-0.3-0.1-0.3-0.2
								c0,0-0.2-0.4-0.4-1c-0.2-0.6-0.7-1.5-1.2-2.6c-0.4-1.1-1.2-2.2-1.8-3.5c-0.4-0.6-0.7-1.2-1.1-1.9c-0.3-0.7-0.8-1.2-1.3-1.9
								c-0.5-0.6-0.8-1.3-1.3-1.8c-0.5-0.6-1-1.1-1.4-1.6c-0.4-0.6-1-0.9-1.4-1.4c-0.5-0.4-0.9-0.8-1.3-1.2c-2-1.3-3.3-2.2-3.3-2.2
								c-0.2-0.2-0.3-0.5-0.1-0.8C566.2,144.3,566.5,144.2,566.7,144.2"/>
						</g>
					</g>
				</g>
			</g>
		</g>
	</g>
	<g>
		<g>
			<g>
				<defs>
					<rect id="SVGID_49_" x="1169.7" y="102.8" width="270" height="492.2"/>
				</defs>
				<clipPath id="SVGID_50_">
					<use xlink:href="#SVGID_49_"  style="overflow:visible;"/>
				</clipPath>
				<path class="st28" d="M1274.3,440c24.5,6.4,47.9,1.5,70.9-6.9c19.4-7,53.7-34.9,70.6-35.5c47.8-1.7,11.9,83.3-6.3,100.9
					c-16.5,15.8-38.3,14.6-56.9,27.5c-19.5,13.5-26.9,37.1-50.1,46.6c-16.4,6.7-35.6,8.3-50-1.4c-16.9-11.4-12.3-33.1-25.4-45.1
					c-27.3-24.9-35,13-38.6,38c-2.2,15.6,1.3,22.5-0.7,27.2c-1.8,3.9-5.9,4.8-9.9,2.3c-15.3-12.3-5.1-43.9-1-59
					c6.6-24.3,9.3-47.8,19-71.1c6.5-15.6,9.8-26.4,26.8-33.8C1241.6,421.4,1256.5,435.4,1274.3,440"/>
			</g>
			<g>
				<defs>
					<rect id="SVGID_51_" x="1169.7" y="102.8" width="270" height="492.2"/>
				</defs>
				<clipPath id="SVGID_52_">
					<use xlink:href="#SVGID_51_"  style="overflow:visible;"/>
				</clipPath>
				<path class="st29" d="M1325.9,348.4c8.6,9,1.2,12.4-6.3,15.1c-4.2,1.2-8,3.3-11.4,6.2c-4.1,3.3-8.1,6.9-13.2,7.3
					c-31.5,2.6-62.7-41.9-15-39.7C1286,337.5,1317.8,340,1325.9,348.4"/>
			</g>
			<g>
				<defs>
					<rect id="SVGID_53_" x="1169.7" y="102.8" width="270" height="492.2"/>
				</defs>
				<clipPath id="SVGID_54_">
					<use xlink:href="#SVGID_53_"  style="overflow:visible;"/>
				</clipPath>
				<path class="st30" d="M1222.2,104.9c-21.4,13.6,5.7,24.4,12.1,35c7.5,12.5,5.6,29.3,18.6,37.9c20.6,13.7,31.9-7.2,50.3-7
					c23.7,0.2,32.7,22.9,56.6,23.2c25,0.3,37.8-18.9,45.8-38.2c25.3-60.7-48.8-51.7-85.3-45.6c-23.6,3.9-39.5,1.3-62.7-1.8
					C1248.2,107.3,1231.8,98.9,1222.2,104.9"/>
			</g>
			<g>
				<defs>
					<rect id="SVGID_55_" x="1169.7" y="102.8" width="270" height="492.2"/>
				</defs>
				<clipPath id="SVGID_56_">
					<use xlink:href="#SVGID_55_"  style="overflow:visible;"/>
				</clipPath>
				<g class="st31">
					<g>
						<g>
							<defs>
								<rect id="SVGID_57_" x="1176.1" y="406.8" width="251.5" height="177"/>
							</defs>
							<clipPath id="SVGID_58_">
								<use xlink:href="#SVGID_57_"  style="overflow:visible;"/>
							</clipPath>
							<path class="st32" d="M1178.3,583.8c0,0-0.1-0.3-0.4-1c-0.2-0.7-0.6-1.6-0.9-3c-0.7-2.7-1.2-6.7-0.9-11.9
								c0.3-5.2,1.6-11.3,3.4-18.3c0.9-3.4,1.8-7.1,2.9-11c0.9-3.9,1.8-8,2.7-12.3c1.8-8.6,4-17.9,6.5-27.7c2.5-9.8,5-20.1,8.6-30.7
								c1.8-5.3,4-10.6,7-15.8c2.9-5.1,6.7-10.3,12.1-14.1c2.7-1.9,5.9-3.3,9.2-3.9c3.4-0.6,6.8-0.3,9.9,0.5
								c3.2,0.7,6.1,2.3,8.7,3.7c2.6,1.4,5.1,2.9,7.7,4.1c5.1,2.6,10.5,4.6,16,6.1c5.5,1.3,11.2,2.3,16.8,2.4c2.8,0.2,5.7,0,8.4,0
								c2.8-0.2,5.8-0.3,8.4-0.7c5.4-0.6,10.8-1.7,16-2.9c10.4-2.5,20.5-5.5,29.7-9c9-3.6,17.2-8.3,24.7-12.7
								c7.6-4.4,14.6-8.5,21-11.7c6.4-3.3,12.4-5.6,17.6-6.6c5.1-1,9.7-0.3,11.8,1.9c2.1,2,2.2,3.7,2.3,3.6
								c-0.1,0.1-0.4-1.6-2.6-3.2c-2.1-1.7-6.3-2-11.1-0.6c-4.8,1.4-10.3,4.2-16.3,7.8c-6.1,3.7-12.7,8.1-19.9,13.1
								c-7.3,4.8-15.5,10.2-25.1,14.3c-9.5,4-19.7,7.4-30.7,9.5c-5.6,0.9-11.1,1.7-17,1.9c-3,0.2-5.7,0-8.6,0.1
								c-3-0.2-5.8-0.3-8.8-0.5c-5.8-0.5-11.7-1.5-17.5-2.8c-5.8-1.5-11.4-3.4-17-5.7c-5.6-2.1-10.8-5.3-15.7-6.1
								c-5.1-0.9-9.9,0.4-13.8,3.5c-7.9,6.3-12.5,16.8-16.6,26.6c-4,10-7.3,20.1-10.1,29.7c-2.8,9.6-5.5,18.7-8,27.1
								c-1.2,4.2-2.4,8.3-3.6,12.1c-1.2,3.8-2.4,7.4-3.6,10.8c-2.2,6.8-3.8,12.7-4.4,17.8c-0.7,5-0.4,9.1,0.1,11.8
								c0.2,1.3,0.5,2.4,0.7,3C1178.2,583.5,1178.3,583.8,1178.3,583.8"/>
						</g>
					</g>
				</g>
			</g>
			<g>
				<defs>
					<rect id="SVGID_59_" x="1169.7" y="102.8" width="270" height="492.2"/>
				</defs>
				<clipPath id="SVGID_60_">
					<use xlink:href="#SVGID_59_"  style="overflow:visible;"/>
				</clipPath>
				<g class="st33">
					<g>
						<g>
							<defs>
								<rect id="SVGID_61_" x="1232.9" y="517.5" width="43.8" height="49.6"/>
							</defs>
							<clipPath id="SVGID_62_">
								<use xlink:href="#SVGID_61_"  style="overflow:visible;"/>
							</clipPath>
							<path class="st34" d="M1276.7,566.6c0,0-1.1,0.2-3.1,0.4c-1,0-2.2,0.2-3.6,0.1c-1.4-0.1-3-0.2-4.7-0.6
								c-1.7-0.4-3.6-1-5.5-1.8l-1.4-0.7c-0.3-0.2-0.3-0.2-0.8-0.5l-0.6-0.4l-1.3-0.8c-0.4-0.3-0.9-0.8-1.4-1.2
								c-1.8-1.8-3.2-3.8-4.3-5.9c-1.1-2.1-1.9-4.3-2.7-6.5c-1.5-4.4-2.6-8.5-3.8-12.4c-1.3-3.8-2.6-7.3-4-10.2
								c-0.7-1.4-1.5-2.7-2.2-3.7c-0.7-1.1-1.5-2-2.1-2.7c-0.7-0.7-1.2-1.2-1.6-1.6c-0.4-0.3-0.6-0.5-0.6-0.5c0,0.1,1.2,0.2,3,1.1
								c1.8,0.9,4.3,2.7,6.5,5.4c2.3,2.7,4.4,6.3,6.1,10.2c1.8,3.9,3.1,8.3,4.4,12.4c0.7,2.1,1.4,4.1,2.2,5.9
								c0.8,1.8,1.7,3.5,2.8,4.8l0.8,1l1.1,1l0.6,0.5c-0.1,0,0.3,0.2,0.4,0.3l1.1,0.8c1.5,0.9,2.9,1.8,4.4,2.5
								c2.9,1.3,5.6,2.1,7.4,2.5C1275.6,566.3,1276.7,566.6,1276.7,566.6"/>
						</g>
					</g>
				</g>
			</g>
			<g>
				<defs>
					<rect id="SVGID_63_" x="1169.7" y="102.8" width="270" height="492.2"/>
				</defs>
				<clipPath id="SVGID_64_">
					<use xlink:href="#SVGID_63_"  style="overflow:visible;"/>
				</clipPath>
				<g class="st35">
					<g>
						<g>
							<defs>
								<rect id="SVGID_65_" x="1238.2" y="135.6" width="25.8" height="39.5"/>
							</defs>
							<clipPath id="SVGID_66_">
								<use xlink:href="#SVGID_65_"  style="overflow:visible;"/>
							</clipPath>
							<path class="st36" d="M1264,175.1c0-0.1-0.8,0-2-0.6c-1.3-0.5-3-1.7-4.6-3.4c-1.7-1.7-3.2-4.1-4.6-6.6
								c-0.7-1.3-1.4-2.6-1.8-4.1c-0.5-1.4-0.8-3-1.1-4.4c-1.2-5.5-3.7-10.9-6.3-14.3c-1.3-1.7-2.5-3-3.5-3.9
								c-1-0.8-1.6-1.2-1.6-1.2c-0.2-0.1-0.3-0.5-0.1-0.7c0.1-0.2,0.4-0.3,0.6-0.2c0,0,0.7,0.3,1.9,1c1.2,0.7,2.8,1.8,4.5,3.4
								c3.4,3.2,6.9,8.5,9.1,14.5c0.5,1.4,1,2.8,1.5,4.1c0.4,1.4,0.8,2.7,1.1,4c0.7,2.6,1.6,4.9,2.5,6.9c0.9,1.9,2.1,3.4,2.9,4.2
								C1263.3,174.7,1264,175,1264,175.1"/>
						</g>
					</g>
				</g>
			</g>
			<g>
				<defs>
					<rect id="SVGID_67_" x="1169.7" y="102.8" width="270" height="492.2"/>
				</defs>
				<clipPath id="SVGID_68_">
					<use xlink:href="#SVGID_67_"  style="overflow:visible;"/>
				</clipPath>
				<g class="st37">
					<g>
						<g>
							<defs>
								<rect id="SVGID_69_" x="1223.1" y="111.1" width="174.3" height="17.5"/>
							</defs>
							<clipPath id="SVGID_70_">
								<use xlink:href="#SVGID_69_"  style="overflow:visible;"/>
							</clipPath>
							<path class="st38" d="M1397.4,126.8c0,0-0.5-0.5-1.4-1.5c-1-0.9-2.5-2.2-4.7-3.1c-4.4-2.1-11.4-2.8-19.9-2.4
								c-2.1,0.1-4.4,0.3-6.7,0.4c-2.3,0.2-4.7,0.4-7.1,0.7c-4.7,0.6-9.6,1.4-14.8,2.6c-5.2,1.1-10.6,2.6-16.3,3.5
								c-2.8,0.5-5.8,0.9-8.7,1.2l-2.2,0.2l-2.3,0.1l-4.3,0.2c-6,0.1-11.9-0.2-17.6-0.8c-5.7-0.5-11.3-1.2-16.7-2.1
								c-5.4-0.8-10.7-2-15.5-3.3c-4.8-1.3-9.2-2.4-13.4-3.5c-2.1-0.6-4.1-1-5.9-1.6c-1.8-0.5-3.4-0.8-5-1.1c-3.2-0.4-6-0.2-7.4,0.4
								c-0.7,0.3-1.2,0.7-1.5,1.3c-0.3,0.7-0.4,1.4-0.5,2.1c-0.1,1.3-0.1,2.1-0.1,2.1s-0.7-0.5-1.4-1.8c-0.4-0.7-0.8-1.6-0.9-2.9
								c-0.1-1.3,0.5-3.1,1.9-4.3c2.8-2.4,6.5-2.4,10.2-2.3c1.9,0.1,3.9,0.4,5.9,0.8c1.9,0.4,3.9,1,6,1.5c8.5,2,17.8,5.6,28.4,6.6
								c2.6,0.3,5.3,0.5,8.1,0.7c2.7,0.2,5.5,0.3,8.3,0.3c5.6,0.1,11.2-0.2,16.7-0.5l4.3-0.4l2-0.2c0.7-0.1,1.4-0.2,2.1-0.3
								c2.8-0.3,5.5-0.6,8.2-1.1c5.4-1,10.9-1.7,16.3-2.6c5.4-0.8,10.8-1.3,15.9-1.6c2.5,0,4.8,0.1,7.3,0.2c2.3,0.2,4.6,0.3,6.8,0.4
								c4.4,0.4,8.4,0.8,11.9,1.9c3.5,1,6.4,2.4,8.6,3.9c2.2,1.4,3.5,3.1,4.3,4.2C1397,126.2,1397.4,126.8,1397.4,126.8"/>
						</g>
					</g>
				</g>
			</g>
			<g>
				<defs>
					<rect id="SVGID_71_" x="1169.7" y="102.8" width="270" height="492.2"/>
				</defs>
				<clipPath id="SVGID_72_">
					<use xlink:href="#SVGID_71_"  style="overflow:visible;"/>
				</clipPath>
				<g class="st39">
					<g>
						<g>
							<defs>
								<rect id="SVGID_73_" x="1261.5" y="341.4" width="59.2" height="19"/>
							</defs>
							<clipPath id="SVGID_74_">
								<use xlink:href="#SVGID_73_"  style="overflow:visible;"/>
							</clipPath>
							<path class="st40" d="M1267.6,360.4c0.1-0.1-1.3-0.1-2.9-1.7c-1.6-1.6-3.3-4.6-3.1-8.8c0-1,0.4-2.5,1.2-3.7
								c0.1-0.3,0.9-1.2,1.4-1.6c0.5-0.5,1.1-0.8,1.6-1.2c2.2-1.3,4.6-1.8,6.9-2c4.6-0.3,9.2,0.2,13.7,0.8c9,1.1,18,2.9,24.5,5.1
								c3.2,1.1,5.9,2.3,7.5,3.4c0.8,0.5,1.4,1.1,1.8,1.4c0.4,0.4,0.6,0.6,0.6,0.6s-0.8-0.8-2.6-1.6c-1.8-0.8-4.5-1.6-7.8-2.2
								c-6.6-1.2-15.5-1.9-24.4-2.1c-4.4-0.1-8.9,0.1-12.7,0.7c-1.9,0.3-3.6,0.7-4.8,1.1c-0.3,0.1-0.6,0.2-0.8,0.4
								c-0.2,0.2-0.2-0.1-0.6,0.4c-0.3,0.2-0.4,0.5-0.7,1.2c-0.4,1.2-0.6,2.6-0.6,3.8c0,1.2,0.2,2.3,0.4,3.1c0.3,0.9,0.6,1.5,0.8,2
								C1267.4,360.1,1267.6,360.4,1267.6,360.4"/>
						</g>
					</g>
				</g>
			</g>
		</g>
		<g class="st41">
			<g>
				<g>
					<defs>
						<rect id="SVGID_75_" x="1319.4" y="164.3" width="39.4" height="19.4"/>
					</defs>
					<clipPath id="SVGID_76_">
						<use xlink:href="#SVGID_75_"  style="overflow:visible;"/>
					</clipPath>
					<path class="st42" d="M1319.4,164.5c0,0,0.7-0.1,1.9-0.2c0.6-0.1,1.3-0.1,2.2,0c0.9,0.1,1.9,0.1,2.9,0.4
						c1.1,0.2,2.2,0.6,3.3,1.1c1.2,0.4,2.3,1.1,3.5,1.7c2.3,1.4,4.7,3,6.9,4.7c2.2,1.7,4.4,3.5,6.4,5c2,1.5,4,2.9,5.8,3.8
						c0.9,0.5,1.7,0.9,2.5,1.2c0.8,0.3,1.4,0.6,2,0.7c1.2,0.3,1.9,0.5,1.9,0.5s-0.7,0.1-2,0.1c-0.6,0.1-1.4,0-2.3-0.2
						c-0.9-0.1-1.9-0.3-2.9-0.7c-2.1-0.6-4.4-1.8-6.6-3.3c-2.2-1.5-4.4-3.2-6.6-5c-4.3-3.6-8.6-6.8-12.4-8.3
						c-0.9-0.4-1.8-0.7-2.6-0.9c-0.8-0.3-1.5-0.4-2.1-0.4C1320.1,164.6,1319.4,164.5,1319.4,164.5"/>
				</g>
			</g>
		</g>
	</g>
</g>
</svg>
