<?xml version="1.0" encoding="utf-8"?>
<!-- Generator: Adobe Illustrator 23.0.1, SVG Export Plug-In . SVG Version: 6.00 Build 0)  -->
<svg version="1.1" id="Layer_1" xmlns="http://www.w3.org/2000/svg" xmlns:xlink="http://www.w3.org/1999/xlink" x="0px" y="0px"
	 viewBox="0 0 1920 1080" style="enable-background:new 0 0 1920 1080;" xml:space="preserve">
<style type="text/css">
	.st0{fill:#0F1629;}
	.st1{opacity:0.66;}
	.st2{fill:#FFFFFF;stroke:#FFFFFF;stroke-width:2;stroke-miterlimit:10;}
	.st3{clip-path:url(#SVGID_2_);fill:#F4B31A;}
	.st4{opacity:0.85;clip-path:url(#SVGID_2_);}
	.st5{clip-path:url(#SVGID_4_);fill:#FFFFFF;}
	.st6{clip-path:url(#SVGID_6_);fill:#FFFFFF;}
	.st7{clip-path:url(#SVGID_8_);fill:#FFFFFF;}
	.st8{clip-path:url(#SVGID_10_);fill:#FFFFFF;}
	.st9{clip-path:url(#SVGID_12_);fill:#37B680;}
	.st10{opacity:0.78;clip-path:url(#SVGID_12_);}
	.st11{clip-path:url(#SVGID_14_);fill:#FFFFFF;}
	.st12{clip-path:url(#SVGID_16_);fill:#FFFFFF;}
	.st13{clip-path:url(#SVGID_18_);fill:#FFFFFF;}
	.st14{clip-path:url(#SVGID_20_);fill:#FFFFFF;}
	.st15{clip-path:url(#SVGID_22_);fill:#FFFFFF;}
	.st16{clip-path:url(#SVGID_24_);fill:#E66577;}
	.st17{opacity:0.8;clip-path:url(#SVGID_24_);}
	.st18{clip-path:url(#SVGID_26_);fill:#FFFFFF;}
	.st19{clip-path:url(#SVGID_28_);fill:#FFFFFF;}
	.st20{clip-path:url(#SVGID_30_);fill:#FFFFFF;}
	.st21{clip-path:url(#SVGID_32_);fill:#FFFFFF;}
	.st22{clip-path:url(#SVGID_34_);fill:#FFFFFF;}
	.st23{opacity:0.8;}
	.st24{clip-path:url(#SVGID_36_);fill:#FFFFFF;}
</style>
<rect x="0" class="st0" width="1920" height="1079.17"/>
<g class="st1">
	<line class="st2" x1="1919" y1="435.41" x2="2.1" y2="435.41"/>
	<line class="st2" x1="2.1" y1="235.09" x2="1919" y2="235.09"/>
	<line class="st2" x1="2.1" y1="385.34" x2="1919" y2="385.34"/>
	<line class="st2" x1="2.1" y1="335.26" x2="1919" y2="335.26"/>
	<line class="st2" x1="2.1" y1="285.18" x2="1919" y2="285.18"/>
	<line class="st2" x1="1919" y1="741.97" x2="2.1" y2="741.94"/>
	<line class="st2" x1="2.1" y1="541.64" x2="1919" y2="541.65"/>
	<line class="st2" x1="2.1" y1="691.88" x2="1919" y2="691.88"/>
	<line class="st2" x1="2.1" y1="641.8" x2="1919" y2="641.8"/>
	<line class="st2" x1="2.1" y1="591.73" x2="1919" y2="591.73"/>
	<rect x="2.1" y="235.09" class="st2" width="13.84" height="200.32"/>
	<rect x="2.1" y="541.64" class="st2" width="13.84" height="200.32"/>
	<rect x="1905.15" y="235.09" class="st2" width="13.84" height="200.32"/>
	<rect x="1905.15" y="541.64" class="st2" width="13.84" height="200.32"/>
</g>
<g>
	<g>
		<g>
			<defs>
				<rect id="SVGID_1_" x="881.53" y="243.09" width="138.65" height="763.09"/>
			</defs>
			<clipPath id="SVGID_2_">
				<use xlink:href="#SVGID_1_"  style="overflow:visible;"/>
			</clipPath>
			<path class="st3" d="M899.22,875.61c13.54,4.75,22.33-10.41,35.61-5.32c5.03,1.93,8.42,4.68,10.9,7.96
				c9.48,12.55,13.36,33.86,15.03,48.74c1.34,11.93,1.67,24.08,3.17,35.72c1.37,10.55,3.38,21.03,7.54,30.87
				c2.45,5.78,5.37,14.47,14.03,12.25c7.24-1.87,3.05-7.5,2.75-12.9c-0.49-8.74-1.9-18.81-0.6-27.52
				c2.9-19.32,9.27-37.2,10.73-56.69c3.5-46.91-20.28-89.49-33.66-133.76c-15.88-52.55-9.96-96.82-6.26-151.14
				c1.06-15.54,5.47-52.16-2.9-65.16c-18.49-28.71-26.5,9.55-26.7,29.67c-0.2,20.11,4.47,39.96,3.97,60.05
				c-0.2,7.98-1.1,17.78-5.52,24.72c-4.37,6.85-13.05,13.86-19.91,18.24c-1.99,1.27-4.51,2.05-6.35,3.45
				c-2.23,1.7-4.43,4.03-6.36,6.06c-4.07,4.3-6.04,9.34-7.76,14.92c-3.09,10.02-0.97,23.42-0.97,33.78c0,7.65-0.12,15.07-1.31,22.64
				c-0.33,2.11-0.45,4.26-0.72,6.37c-2.59,19.95-3.26,40.73-1.12,60.86C884.01,850.83,886.2,871.05,899.22,875.61"/>
			<path class="st3" d="M955.5,449.78C947.76,457.24,968.54,437.2,955.5,449.78c-7.74,7.46-17.87,18.78-29.78,17.46
				c-8.98-0.99-15.22-6.97-23.06-8.72c-11.13-2.49-11.6,2.29-9.79,11.98c2.34,12.58,9.39,25.06,19.62,32.17
				c14.02,9.75,30.47,3.42,43.07-5.65c18.87-13.58,30.62-33.38,41.98-53.07c3.69-6.4,9.53-13.65,15.73-18.29
				c1.6-1.2,3.41-2.37,4.76-3.85c1.14-1.25,2.19-2.79,2.15-4.51c-0.06-2.64-1.2-5.14-3.48-6.63c-5.02-3.28-12.46,0.17-17.06,2.76
				c-4.08,2.29-7.91,5.02-11.63,7.84c-8.21,6.21-15.96,13.03-23.52,20.01C961.46,444.08,958.47,446.91,955.5,449.78"/>
			<path class="st3" d="M944.8,271.31c-8.44-21.62,23.73-23.1,44.65-26.52c1.18-0.19,2.34-0.39,3.44-0.6
				c2.38-0.45,6.25-2.39,7.86,0.35c1.95,3.31,1.4,9.79,0.69,13.36c-0.67,3.4-2.17,6.69-4.91,8.91c-4.63,3.75-11.22,3.22-15.97,6.63
				c-4.63,3.32-5.72,7.33-11.87,9.24C957.88,286.01,948.76,281.46,944.8,271.31"/>
			<g class="st4">
				<g>
					<defs>
						<rect id="SVGID_3_" x="890.01" y="557.7" width="61.69" height="307.38"/>
					</defs>
					<clipPath id="SVGID_4_">
						<use xlink:href="#SVGID_3_"  style="overflow:visible;"/>
					</clipPath>
					<path class="st5" d="M902.89,865.07c0,0-0.32-0.07-0.95-0.22c-0.66-0.24-1.66-0.69-2.68-1.57c-2.14-1.72-4.22-5.2-5.67-9.76
						c-1.51-4.57-2.34-10.27-2.84-16.73c-0.3-3.21-0.39-6.71-0.54-10.16c-0.09-3.76-0.32-7.31-0.11-11.42
						c0.14-8.09,0.94-16.58,1.98-25.57c1.14-8.95,2.5-18.33,2.92-28.06c0.28-9.45-1.74-19.55-1.88-30.18
						c-0.04-5.31,0.28-10.9,2.31-16.41c0.99-2.73,2.43-5.44,4.43-7.77c1.1-1.32,1.87-1.98,2.85-3.01c1.01-0.96,2.02-1.95,3.02-2.83
						c8.07-7.26,16.71-12.87,22.83-20.46c6.22-7.53,9.65-16.56,10.74-26.09c1.13-9.49,0.08-18.91-0.92-27.81
						c-1.03-8.93-2.16-17.42-2.74-25.31c-0.58-7.89-0.87-15.17-0.58-21.68c0.41-6.5,1.08-12.25,3.28-16.98
						c1.07-2.29,2.97-4.66,5.71-5.2c0.63-0.19,2.39-0.24,3.15,0.05c0.95,0.23,1.72,0.65,2.32,1.12c2.51,1.92,2.07,3.93,2.18,3.78
						c0.03,0.06,0.01,0.13-0.05,0.17c-0.06,0.03-0.13,0.01-0.16-0.05c0,0-0.3-0.17-0.89-0.49c-0.58-0.27-1.37-0.62-2.37-0.77
						c-0.47-0.11-1.03-0.12-1.57-0.1c-0.72,0.03-0.65,0.02-1.74,0.28c-0.85,0.17-1.96,1.2-2.75,3.03c-1.64,3.65-2.3,9.17-2.51,15.38
						c-0.25,6.25-0.11,13.39,0.41,21.17c0.49,7.78,1.31,16.21,2.38,25.16c1.02,8.96,2.02,18.55,1.5,28.67
						c-0.26,5.05-1.02,10.26-2.67,15.37c-1.75,5.23-4.32,9.94-7.67,14.29c-3.33,4.32-7.26,8.16-11.31,11.62
						c-4.07,3.45-8.23,6.56-11.99,9.95c-0.97,0.84-1.83,1.68-2.73,2.53c-0.84,0.85-2,1.98-2.58,2.66c-1.47,1.6-2.62,3.53-3.48,5.67
						c-1.73,4.28-2.39,9.22-2.65,14.17c-0.24,4.98-0.01,10.04,0.22,15.08c0.24,5.05,0.64,10.1,0.33,15.22
						c-0.63,9.84-1.24,19.35-1.82,28.37c-0.64,8.94-1.33,17.42-1.33,25.04c-0.15,3.75,0.17,7.72,0.15,11.12
						c0.07,3.58,0.14,6.97,0.21,10.16c0.15,6.28,0.6,11.68,1.2,16.03c0.62,4.36,1.68,7.57,2.87,9.5c0.59,0.99,1.26,1.5,1.66,1.93
						c0.53,0.37,0.81,0.56,0.81,0.56c0.15,0.1,0.18,0.3,0.08,0.44C903.15,865.05,903.01,865.1,902.89,865.07"/>
				</g>
			</g>
			<g class="st4">
				<g>
					<defs>
						<rect id="SVGID_5_" x="938.38" y="858.92" width="37.48" height="108.69"/>
					</defs>
					<clipPath id="SVGID_6_">
						<use xlink:href="#SVGID_5_"  style="overflow:visible;"/>
					</clipPath>
					<path class="st6" d="M974.12,966.87c0,0-0.3-1.84-0.82-5.07c-0.49-3.22-1.07-7.95-1.61-13.52c-0.53-5.58-1.15-12.08-1.81-19.05
						c-0.75-6.93-1.62-14.29-3.05-21.48c-0.8-3.57-1.55-7.15-2.66-10.52c-0.55-1.68-1.1-3.35-1.64-4.99
						c-0.65-1.58-1.3-3.14-1.94-4.67c-0.55-1.57-1.35-2.97-2.11-4.34c-0.75-1.37-1.3-2.84-2.15-4.04c-1.66-2.41-2.99-4.91-4.77-6.74
						c-0.84-0.96-1.57-1.96-2.31-2.9c-0.88-0.77-1.69-1.53-2.44-2.29c-0.76-0.75-1.49-1.44-2.14-2.15
						c-0.68-0.65-1.44-1.06-2.04-1.59c-2.51-1.92-3.95-3.32-3.95-3.32l-0.09-0.08c-0.28-0.27-0.29-0.72-0.02-1
						c0.16-0.17,0.38-0.24,0.59-0.21c0,0,1.91,0.23,5.29,1.16c0.84,0.23,1.8,0.47,2.77,0.88c0.95,0.45,1.94,1.01,3.01,1.61
						c1.08,0.59,2.23,1.25,3.4,1.99c1.03,0.9,2.16,1.83,3.26,2.89c2.42,1.95,4.19,4.72,6.26,7.53c1.73,2.95,3.52,6.18,4.67,9.68
						c0.59,1.75,1.25,3.5,1.79,5.32c0.41,1.83,0.83,3.68,1.25,5.54c0.82,3.72,1.34,7.51,1.84,11.29c0.41,3.78,0.84,7.56,1.03,11.26
						c0.3,3.71,0.37,7.35,0.53,10.87c0.17,7.01,0.33,13.54,0.47,19.15c0.14,5.61,0.37,10.18,0.64,13.45
						c0.3,3.25,0.47,5.12,0.47,5.12c0.05,0.48-0.31,0.91-0.79,0.95C974.6,967.65,974.19,967.32,974.12,966.87"/>
				</g>
			</g>
			<g class="st4">
				<g>
					<defs>
						<rect id="SVGID_7_" x="897.01" y="413.83" width="115.36" height="66.6"/>
					</defs>
					<clipPath id="SVGID_8_">
						<use xlink:href="#SVGID_7_"  style="overflow:visible;"/>
					</clipPath>
					<path class="st7" d="M1011.75,415.1c0,0-0.6,0.01-1.57,0.18c-0.92,0.13-2.38,0.59-4.07,1.4c-3.42,1.62-7.85,4.95-12.64,9.53
						c-4.79,4.59-9.94,10.42-15.18,16.93c-2.63,3.23-5.26,6.74-8.14,10.1c-2.89,3.37-6,6.71-9.26,9.95
						c-6.51,6.41-13.95,12.51-22.63,15.5c-4.31,1.46-8.86,2.05-13.08,1.58c-1.24-0.12-1.97-0.29-2.96-0.43
						c-1-0.23-2.07-0.44-3.03-0.75c-1.92-0.59-3.74-1.4-5.33-2.35c-3.25-1.91-5.52-4-7.68-5.59c-0.97-0.75-1.94-1.37-2.79-1.92
						c-0.4-0.2-0.88-0.53-1.16-0.65c-0.09-0.07-0.37-0.14-0.65-0.17c-1.15-0.11-2.34,0.28-3.06,0.86c-0.8,0.56-1.08,1.24-1.12,1.22
						c0,0-0.47-0.52-0.4-1.9c0.06-1.31,1.26-3.53,4.08-4.17c0.69-0.15,1.46-0.19,2.43,0c0.77,0.15,1.28,0.43,1.97,0.68
						c1.25,0.53,2.43,1.31,3.68,2.16c2.25,1.63,4.52,3.8,7.16,5.22c1.32,0.75,2.74,1.33,4.3,1.77c0.77,0.22,1.53,0.35,2.35,0.53
						c0.87,0.1,2,0.3,2.69,0.32c3.47,0.31,7.16-0.25,10.79-1.57c7.3-2.67,14.08-8.33,20.14-14.6c3.06-3.14,5.92-6.51,8.83-9.8
						c2.92-3.31,5.95-6.41,8.86-9.51c5.87-6.14,11.63-11.64,16.96-15.94c5.31-4.32,10.27-7.35,14.14-8.72
						c1.93-0.69,3.49-1.02,4.67-1.08c1.12-0.07,1.65-0.02,1.65-0.02l0.09,0.01c0.34,0.04,0.59,0.34,0.56,0.68
						C1012.33,414.86,1012.06,415.1,1011.75,415.1"/>
				</g>
			</g>
			<g class="st4">
				<g>
					<defs>
						<rect id="SVGID_9_" x="949.11" y="247.63" width="48.4" height="26.37"/>
					</defs>
					<clipPath id="SVGID_10_">
						<use xlink:href="#SVGID_9_"  style="overflow:visible;"/>
					</clipPath>
					<path class="st8" d="M955.08,274.01c0.01-0.08-1.01,0.08-2.68-0.97c-1.59-1.01-3.42-3.68-3.29-7.23c0-0.89,0.18-1.82,0.58-2.86
						c0.09-0.25,0.23-0.54,0.4-0.82l0.12-0.21l0.03-0.05l0.16-0.19l0.04-0.06l0.17-0.24c0.27-0.34,0.38-0.61,0.8-1.01
						c1.67-1.72,3.09-2.51,4.84-3.53c1.71-0.94,3.46-1.76,5.55-2.39c1.99-0.55,3.69-0.95,5.57-1.4c1.85-0.41,3.69-0.83,5.52-1.16
						c1.81-0.39,3.72-0.54,5.49-0.8c3.56-0.45,6.98-0.79,9.7-1.2c2.69-0.38,4.84-0.83,6.3-1.27c1.47-0.41,2.23-0.9,2.23-0.9
						c0.26-0.17,0.61-0.1,0.78,0.17c0.11,0.17,0.12,0.37,0.04,0.54l-0.02,0.04c0,0-0.47,1.03-1.93,2.19
						c-1.45,1.16-3.82,2.24-6.7,2.9c-1.48,0.26-2.89,0.7-4.46,1.09c-1.55,0.41-3.19,0.83-4.88,1.27c-1.7,0.45-3.44,0.77-5.22,1.37
						c-1.78,0.57-3.6,1.06-5.42,1.56c-1.8,0.45-3.6,0.9-5.37,1.34c-1.48,0.43-3.12,1.04-4.55,1.74c-1.37,0.65-2.94,1.58-3.68,2.06
						c-0.22,0.11-0.58,0.49-0.86,0.72l-0.22,0.19l-0.06,0.05c0.05-0.07-0.15,0.18,0.11-0.14l-0.01,0.01l-0.04,0.03
						c-0.05,0.04-0.11,0.09-0.17,0.18c-0.25,0.34-0.47,0.85-0.65,1.36c-0.69,2.13-0.46,4.21,0.25,5.54
						C954.23,273.28,955.13,274.01,955.08,274.01"/>
				</g>
			</g>
		</g>
	</g>
	<g>
		<g>
			<defs>
				<rect id="SVGID_11_" x="496.34" y="108.51" width="185.22" height="631.25"/>
			</defs>
			<clipPath id="SVGID_12_">
				<use xlink:href="#SVGID_11_"  style="overflow:visible;"/>
			</clipPath>
			<path class="st9" d="M604.03,562.41C571.66,573.41,619.74,557.07,604.03,562.41c-32.38,11-66.71,25.82-85.85,55.96
				c-8.88,13.98-19.44,31.13-16.35,48.49c1.26,7.06,2.28,14.03,10.2,16.04c8.51,2.16,12.13-5.64,17.75-10.53
				c3.74-3.26,6.97-3.03,11.65-3.01c6.91,0.03,12.19,4.08,15.69,9.78c5.21,8.46,7.24,18.68,9.97,28.11
				c2.5,8.63,5.24,18.67,12.13,24.94c29.12,26.47,58.37-23.1,62.54-47.46c5.37-31.37,2.13-59.19,17.4-87.86
				c10.75-20.2,20.68-37.51,22.13-60.67c0.43-6.79,0.32-13.63-0.15-20.41c-0.6-8.68-0.75-20.14-6.37-28.6
				c-1.93-2.9-3.88-5.93-6.6-8.17c-1.31-1.07-2.8-1.95-4.44-2.4c-1.08-0.29-4.07-0.89-4.97-0.22c-0.73,0.54-0.53,0.77-0.15,1.68
				c1.32,3.2,2.01,6.52,2.28,9.91c1.31,16.48,0.04,39.09-11.38,52.03C638.05,552.98,619.74,557.07,604.03,562.41
				C571.66,573.41,619.74,557.07,604.03,562.41"/>
			<path class="st9" d="M504.61,545.5c-2.12,8.56-18.97,44.84,2.55,43.29c7.82-0.57,12.92-6.54,17.51-12.21
				c5.41-6.68,12.14-12.08,18.87-17.36c7.24-5.68,15.44-9.96,23.92-13.46c11.25-4.64,23.7-10.32,35.23-13.85
				c13.51-4.14,22.09-12.83,26.37-25.07c4.69-13.41,1.85-26.34,0.03-39.72c-2.65-19.41,13.22-52.26,0.35-69.06
				c-6.34-8.27-18.84-0.89-25.3,3.24c-14.92,9.55-19.3,28.19-27.73,42.81c-10.15,17.6-24.63,28.89-37.63,43.23
				C522.61,505.15,510.38,522.16,504.61,545.5"/>
			<path class="st9" d="M507.5,109.36c-30.57,10.62,11.98,30.98,24.46,32.86c6.7,1.01,12.42-0.82,19.17,1.1
				c13,3.7,21.1,12.87,24.39,25.89c1.84,7.25,13.66,2.8,23.04-2.49c11.27-6.35,36.42-32.87,29.48-47.66
				c-21.93-22.37-60.3,3.13-86.16,0.15C532.23,118.09,519.75,105.11,507.5,109.36"/>
			<g class="st10">
				<g>
					<defs>
						<rect id="SVGID_13_" x="511.83" y="494.64" width="160.75" height="178.38"/>
					</defs>
					<clipPath id="SVGID_14_">
						<use xlink:href="#SVGID_13_"  style="overflow:visible;"/>
					</clipPath>
					<path class="st11" d="M514.54,673.02c0,0-0.11-0.23-0.33-0.68c-0.21-0.45-0.57-1.1-0.88-2.02c-0.7-1.81-1.47-4.62-1.5-8.3
						c-0.08-3.67,0.59-8.15,2.15-13.01c1.5-4.9,4-10.13,7.18-15.53c3.19-5.4,7.1-10.96,11.65-16.52c2.3-2.79,4.67-5.55,7.44-8.26
						c2.56-2.56,5.57-5.35,8.65-7.76c6.15-4.99,13.03-9.43,20.29-13.37c7.23-4,14.91-7.35,22.67-10.35
						c7.72-3.06,15.62-5.62,23.41-8.01c7.76-2.34,15.28-4.53,22.07-7.56c6.81-2.97,12.79-6.84,17.49-11.56
						c4.83-4.61,8.37-10.07,10.79-15.49c4.86-10.96,5.16-21.45,4.88-28.5c-0.22-3.56-0.49-6.37-0.82-8.26
						c-0.28-1.9-0.42-2.92-0.42-2.92c-0.03-0.12,0.05-0.24,0.18-0.27c0.12-0.02,0.24,0.06,0.27,0.17c0,0,0.24,1.01,0.67,2.89
						c0.49,1.88,1,4.67,1.53,8.26c0.87,7.13,1.55,17.89-2.63,30.07c-2.1,6.03-5.43,12.3-10.39,17.92
						c-4.99,5.6-11.68,10.07-18.86,13.51c-7.21,3.48-14.94,6.02-22.6,8.56c-7.64,2.47-15.28,5.33-22.91,8.12
						c-15.13,5.8-30,12.38-42.03,21.43c-3.07,2.23-5.73,4.49-8.53,7.05c-2.62,2.39-5.14,4.99-7.52,7.5
						c-4.74,5.08-8.88,10.23-12.3,15.24c-6.85,9.99-10.75,19.59-11.16,26.69c-0.26,3.52,0.17,6.33,0.66,8.17
						c0.2,0.93,0.5,1.62,0.65,2.09C514.46,672.78,514.54,673.02,514.54,673.02"/>
				</g>
			</g>
			<g class="st10">
				<g>
					<defs>
						<rect id="SVGID_15_" x="554.09" y="660.4" width="44.03" height="69.59"/>
					</defs>
					<clipPath id="SVGID_16_">
						<use xlink:href="#SVGID_15_"  style="overflow:visible;"/>
					</clipPath>
					<path class="st12" d="M596.44,729.96c0,0-0.32,0-0.93,0.01c-0.61,0-1.43,0.11-2.88-0.26c-0.7-0.13-1.46-0.3-2.17-0.63
						c-0.75-0.29-1.57-0.6-2.32-1.12c-1.66-0.86-3.11-2.35-4.53-3.98c-2.76-3.36-4.9-7.79-6.43-12.55
						c-0.82-2.37-1.45-4.86-2.11-7.31c-0.65-2.45-1.31-4.94-1.96-7.42c-1.38-4.92-2.61-9.87-4.33-14.2
						c-0.71-2.26-1.68-4.26-2.6-6.18c-0.8-2.01-2.08-3.53-3-5.14c-0.92-1.63-2.19-2.73-3.1-3.93c-0.9-1.24-1.96-2-2.8-2.67
						c-1.67-1.41-2.63-2.22-2.63-2.22l-0.16-0.13c-0.43-0.37-0.49-1.01-0.12-1.44c0.32-0.39,0.88-0.47,1.3-0.22
						c0,0,1.16,0.68,3.19,1.86c1.01,0.62,2.3,1.31,3.46,2.49c1.15,1.16,2.8,2.23,3.97,3.9c1.17,1.64,2.75,3.28,3.8,5.34
						c1.18,1.99,2.43,4.11,3.4,6.41c1.09,2.28,1.94,4.69,2.83,7.14c0.91,2.44,1.59,4.96,2.37,7.45c1.4,4.94,2.79,9.87,4.1,14.5
						c1.35,4.47,2.93,8.42,4.88,11.24c1.01,1.35,2.02,2.53,3.06,3.29c0.99,0.83,2.09,1.4,2.86,1.65c0.71,0.36,1.68,0.5,2.27,0.61
						c0.6,0.11,0.92,0.17,0.92,0.17c0.92,0.17,1.53,1.05,1.36,1.98C597.95,729.38,597.23,729.95,596.44,729.96"/>
				</g>
			</g>
			<g class="st10">
				<g>
					<defs>
						<rect id="SVGID_17_" x="505.22" y="402.95" width="120.28" height="175.13"/>
					</defs>
					<clipPath id="SVGID_18_">
						<use xlink:href="#SVGID_17_"  style="overflow:visible;"/>
					</clipPath>
					<path class="st13" d="M506.94,578.08c0.05-0.02-0.77-0.52-1.31-2.13c-0.52-1.58-0.56-4.06-0.01-7.05
						c1.07-6.02,4.16-14.2,8.43-23.63c1.04-2.34,2.24-4.84,3.19-7.28c1.02-2.63,1.93-5.31,3.14-8.07
						c2.53-5.55,5.43-11.22,9.12-16.66c3.63-5.47,7.72-10.88,12.19-16.09c4.42-5.27,9.17-10.32,13.9-15.34
						c9.48-9.97,18.86-19.85,25.43-30.45c1.66-2.63,3.2-5.25,4.61-7.89c1.34-2.77,2.65-5.48,3.93-8.12
						c2.69-5.35,5.5-10.32,8.34-14.8c2.83-4.47,5.83-8.45,9.22-11.44c3.34-3.07,6.86-5.02,10.14-5.85c1.63-0.43,3.28-0.43,4.62-0.02
						c1.36,0.39,2.26,1.3,2.73,2.02c0.92,1.53,0.85,2.45,0.91,2.43c0,0-0.13-0.18-0.37-0.52c-0.26-0.33-0.65-0.82-1.25-1.27
						c-1.19-0.99-3.25-1.15-5.64,0.17c-2.36,1.28-5.08,3.52-7.48,6.55c-2.38,3.1-4.92,6.87-7.4,11.25c-2.5,4.36-4.9,9.31-7.35,14.61
						c-1.26,2.71-2.56,5.48-3.89,8.33c-1.51,2.85-3.04,5.79-4.94,8.54c-7.39,11.2-17.3,21.24-27.11,30.86
						c-4.92,4.8-9.8,9.6-14.3,14.54c-4.56,4.9-8.74,9.99-12.46,15.13c-3.77,5.11-6.96,10.38-9.62,15.45
						c-1.31,2.58-2.43,5.31-3.57,7.8c-1.23,2.68-2.5,4.97-3.69,7.28c-4.79,9.11-8.53,16.85-9.99,22.65
						c-0.75,2.88-0.9,5.25-0.51,6.79c0.38,1.53,1.15,2.11,1.1,2.13l-0.11,0.05c-0.01,0-0.01,0.02-0.01,0.02
						C506.92,578.08,506.93,578.08,506.94,578.08"/>
				</g>
			</g>
			<g class="st10">
				<g>
					<defs>
						<rect id="SVGID_19_" x="502.01" y="114.82" width="118.11" height="17.09"/>
					</defs>
					<clipPath id="SVGID_20_">
						<use xlink:href="#SVGID_19_"  style="overflow:visible;"/>
					</clipPath>
					<path class="st14" d="M620.12,124.1c0,0-0.35-0.36-1.01-1.03c-0.72-0.6-1.76-1.41-3.33-2.02c-3.08-1.31-7.96-1.47-13.68-0.6
						c-5.74,0.82-12.38,2.58-19.51,4.58c-7.15,1.98-14.72,4.4-22.78,5.93c-2.05,0.35-4.04,0.66-6.29,0.8
						c-1.97,0.09-3.94,0.23-6.13,0.06c-4.19-0.26-8.22-0.93-11.93-2.21c-3.7-1.24-7.14-2.75-10.18-4.49
						c-0.75-0.42-1.54-0.79-2.32-1.36c-0.68-0.47-1.35-0.95-2.01-1.41c-1.31-0.91-2.58-1.75-3.84-2.5c-2.51-1.5-4.92-2.69-7.15-3.27
						c-2.22-0.61-4.26-0.44-5.5,0.52c-1.23,0.98-1.79,2.33-1.96,3.15c-0.2,0.89,0,1.33-0.01,1.29l0.01,0.03
						c0.04,0.07,0,0.16-0.07,0.19c-0.06,0.03-0.15,0-0.18-0.06c0,0-0.32-0.54-0.22-1.52c0.11-0.97,0.44-2.44,1.78-3.84
						c1.4-1.46,4-1.81,6.48-1.36c2.53,0.42,5.19,1.45,7.94,2.77c2.75,1.21,5.62,3.27,8.49,4.45c3.05,1.41,6.38,2.51,9.86,3.35
						c3.45,0.86,7.18,1.07,10.81,0.96c1.74-0.05,3.71-0.22,5.7-0.46c1.7-0.22,3.64-0.61,5.5-1.05c7.53-1.78,15.26-3.93,22.61-5.53
						c7.36-1.63,14.42-2.75,20.61-2.84c6.17-0.13,11.53,1.12,14.57,3.27c1.56,0.97,2.49,2.14,3.02,2.92
						C619.87,123.66,620.12,124.1,620.12,124.1"/>
				</g>
			</g>
			<g class="st10">
				<g>
					<defs>
						<rect id="SVGID_21_" x="566" y="144.22" width="15.39" height="20.23"/>
					</defs>
					<clipPath id="SVGID_22_">
						<use xlink:href="#SVGID_21_"  style="overflow:visible;"/>
					</clipPath>
					<path class="st15" d="M566.69,144.24c0,0,0.39,0.11,1.06,0.31c0.65,0.26,1.63,0.45,2.72,0.99c0.54,0.35,1.13,0.73,1.75,1.13
						c0.6,0.42,1.36,0.81,1.84,1.42c0.54,0.57,1.1,1.16,1.68,1.75c0.6,0.57,1.03,1.29,1.51,1.97c0.43,0.71,0.94,1.38,1.27,2.12
						c0.36,0.73,0.71,1.44,1.05,2.14c0.35,0.69,0.5,1.43,0.74,2.09c0.22,0.67,0.43,1.29,0.54,1.9c0.58,2.38,0.56,4.03,0.56,4.03
						c0,0.2-0.17,0.36-0.37,0.36c-0.15,0-0.27-0.09-0.33-0.22c0,0-0.16-0.36-0.44-1c-0.21-0.64-0.69-1.52-1.15-2.58
						c-0.43-1.07-1.15-2.23-1.79-3.51c-0.36-0.62-0.72-1.25-1.1-1.9c-0.34-0.67-0.85-1.23-1.28-1.85c-0.46-0.58-0.77-1.3-1.3-1.81
						c-0.48-0.55-0.96-1.1-1.42-1.62c-0.44-0.57-0.97-0.89-1.4-1.35c-0.46-0.43-0.89-0.83-1.29-1.2c-1.97-1.28-3.29-2.23-3.29-2.23
						c-0.24-0.17-0.3-0.51-0.13-0.75C566.24,144.26,566.48,144.18,566.69,144.24"/>
				</g>
			</g>
		</g>
	</g>
	<g>
		<g>
			<defs>
				<rect id="SVGID_23_" x="1169.69" y="102.76" width="269.97" height="492.21"/>
			</defs>
			<clipPath id="SVGID_24_">
				<use xlink:href="#SVGID_23_"  style="overflow:visible;"/>
			</clipPath>
			<path class="st16" d="M1274.3,440.04c24.52,6.43,47.88,1.5,70.95-6.87c19.42-7.05,53.71-34.88,70.56-35.48
				c47.84-1.69,11.95,83.33-6.29,100.85c-16.47,15.82-38.26,14.61-56.91,27.51c-19.47,13.46-26.93,37.09-50.06,46.57
				c-16.37,6.71-35.58,8.32-50.03-1.42c-16.89-11.38-12.27-33.06-25.45-45.07c-27.34-24.92-35.01,12.98-38.59,37.98
				c-2.23,15.62,1.33,22.53-0.74,27.15c-1.75,3.91-5.95,4.84-9.91,2.29c-15.31-12.35-5.06-43.87-0.98-59
				c6.55-24.3,9.31-47.83,19-71.15c6.46-15.56,9.8-26.38,26.77-33.76C1241.61,421.37,1256.54,435.38,1274.3,440.04"/>
			<path class="st16" d="M1325.86,348.39c8.62,8.99,1.18,12.39-6.32,15.13c-4.21,1.22-8.02,3.27-11.41,6.16
				c-4.09,3.29-8.09,6.89-13.2,7.31c-31.46,2.58-62.7-41.86-15.01-39.74C1286,337.52,1317.79,339.96,1325.86,348.39"/>
			<path class="st16" d="M1222.25,104.94c-21.38,13.55,5.74,24.36,12.14,35.03c7.48,12.46,5.58,29.27,18.64,37.95
				c20.64,13.71,31.92-7.2,50.27-7c23.69,0.25,32.67,22.95,56.62,23.25c24.97,0.32,37.76-18.94,45.76-38.15
				c25.29-60.72-48.81-51.71-85.35-45.63c-23.62,3.92-39.46,1.33-62.72-1.84C1248.18,107.27,1231.85,98.86,1222.25,104.94"/>
			<g class="st17">
				<g>
					<defs>
						<rect id="SVGID_25_" x="1176.1" y="406.79" width="251.5" height="177.03"/>
					</defs>
					<clipPath id="SVGID_26_">
						<use xlink:href="#SVGID_25_"  style="overflow:visible;"/>
					</clipPath>
					<path class="st18" d="M1178.35,583.82c0,0-0.12-0.34-0.36-1.01c-0.23-0.67-0.63-1.64-0.91-3c-0.69-2.67-1.22-6.74-0.87-11.91
						c0.3-5.17,1.57-11.35,3.37-18.28c0.9-3.44,1.85-7.11,2.86-10.98c0.86-3.9,1.78-8.01,2.73-12.29
						c1.83-8.58,3.99-17.88,6.48-27.67c2.49-9.77,4.98-20.08,8.62-30.72c1.83-5.3,4.02-10.65,6.99-15.81
						c2.95-5.14,6.65-10.26,12.06-14.06c2.71-1.85,5.86-3.32,9.24-3.89c3.36-0.6,6.8-0.34,9.95,0.46c3.17,0.73,6.11,2.29,8.68,3.66
						c2.57,1.35,5.14,2.92,7.7,4.11c5.09,2.59,10.52,4.56,16,6.11c5.54,1.31,11.17,2.26,16.84,2.39c2.79,0.18,5.72,0.02,8.39-0.01
						c2.82-0.24,5.76-0.28,8.42-0.7c5.39-0.56,10.82-1.7,16.02-2.92c10.4-2.5,20.53-5.5,29.7-9c9.04-3.63,17.17-8.28,24.72-12.74
						c7.55-4.42,14.62-8.46,21.01-11.74c6.4-3.32,12.39-5.62,17.57-6.58c5.12-1.03,9.73-0.27,11.79,1.87
						c2.07,2.01,2.16,3.66,2.26,3.59c-0.08,0.09-0.43-1.56-2.6-3.17c-2.14-1.66-6.28-2.01-11.05-0.56
						c-4.8,1.4-10.29,4.19-16.34,7.79c-6.07,3.67-12.66,8.15-19.95,13.11c-7.33,4.8-15.49,10.17-25.05,14.27
						c-9.5,3.97-19.67,7.43-30.73,9.49c-5.55,0.91-11.14,1.7-17.03,1.9c-2.96,0.24-5.71,0.05-8.6,0.08
						c-3.03-0.16-5.85-0.28-8.8-0.55c-5.85-0.45-11.71-1.48-17.51-2.84c-5.76-1.55-11.42-3.39-16.96-5.72
						c-5.57-2.09-10.75-5.29-15.74-6.1c-5.1-0.93-9.87,0.4-13.78,3.45c-7.87,6.32-12.53,16.83-16.64,26.58
						c-3.96,9.95-7.26,20.09-10.06,29.72c-2.83,9.63-5.51,18.74-7.98,27.15c-1.25,4.22-2.43,8.27-3.57,12.11
						c-1.25,3.81-2.44,7.42-3.55,10.82c-2.22,6.75-3.84,12.72-4.45,17.77c-0.67,5.03-0.4,9.07,0.11,11.75
						c0.19,1.35,0.54,2.36,0.72,3.04C1178.25,583.47,1178.35,583.82,1178.35,583.82"/>
				</g>
			</g>
			<g class="st17">
				<g>
					<defs>
						<rect id="SVGID_27_" x="1232.87" y="517.49" width="43.79" height="49.64"/>
					</defs>
					<clipPath id="SVGID_28_">
						<use xlink:href="#SVGID_27_"  style="overflow:visible;"/>
					</clipPath>
					<path class="st19" d="M1276.66,566.59c0,0-1.11,0.23-3.09,0.43c-1,0.05-2.24,0.17-3.64,0.07c-1.4-0.07-3.02-0.19-4.74-0.61
						c-1.73-0.37-3.59-0.96-5.48-1.82l-1.4-0.73c-0.29-0.17-0.35-0.16-0.84-0.47l-0.62-0.41l-1.27-0.85
						c-0.45-0.35-0.93-0.82-1.39-1.25c-1.84-1.77-3.15-3.77-4.28-5.9c-1.1-2.13-1.89-4.33-2.65-6.48
						c-1.48-4.36-2.58-8.54-3.84-12.38c-1.27-3.84-2.58-7.33-4.02-10.17c-0.74-1.4-1.46-2.68-2.2-3.74
						c-0.72-1.08-1.46-1.97-2.1-2.66c-0.65-0.71-1.2-1.24-1.61-1.57c-0.4-0.35-0.62-0.54-0.62-0.54c-0.04,0.07,1.16,0.16,2.98,1.1
						c1.83,0.89,4.29,2.69,6.54,5.42c2.28,2.71,4.39,6.28,6.08,10.24c1.79,3.94,3.06,8.35,4.37,12.44c0.65,2.07,1.36,4.08,2.17,5.89
						c0.75,1.82,1.73,3.54,2.8,4.77l0.79,0.95l1.13,1.02l0.56,0.5c-0.07-0.04,0.3,0.22,0.42,0.31l1.08,0.79
						c1.5,0.92,2.93,1.85,4.4,2.45c2.89,1.31,5.55,2.06,7.42,2.51C1275.56,566.34,1276.66,566.59,1276.66,566.59"/>
				</g>
			</g>
			<g class="st17">
				<g>
					<defs>
						<rect id="SVGID_29_" x="1238.22" y="135.58" width="25.75" height="39.48"/>
					</defs>
					<clipPath id="SVGID_30_">
						<use xlink:href="#SVGID_29_"  style="overflow:visible;"/>
					</clipPath>
					<path class="st20" d="M1263.97,175.06c0-0.06-0.75-0.04-2.02-0.63c-1.28-0.54-2.96-1.68-4.59-3.44
						c-1.66-1.73-3.18-4.07-4.6-6.64c-0.71-1.29-1.38-2.65-1.84-4.1c-0.46-1.42-0.8-3.02-1.1-4.4c-1.25-5.49-3.72-10.85-6.29-14.28
						c-1.28-1.72-2.53-3.04-3.5-3.85c-0.97-0.81-1.57-1.23-1.57-1.23c-0.23-0.15-0.29-0.46-0.13-0.69c0.14-0.2,0.4-0.27,0.61-0.18
						c0,0,0.7,0.31,1.89,0.97c1.18,0.67,2.8,1.78,4.48,3.42c3.42,3.25,6.86,8.54,9.06,14.5c0.49,1.39,0.98,2.77,1.46,4.13
						c0.45,1.35,0.76,2.7,1.11,4.01c0.68,2.62,1.61,4.93,2.51,6.88c0.95,1.91,2.05,3.35,2.95,4.24
						C1263.26,174.66,1264,175.04,1263.97,175.06"/>
				</g>
			</g>
			<g class="st17">
				<g>
					<defs>
						<rect id="SVGID_31_" x="1223.06" y="111.13" width="174.34" height="17.54"/>
					</defs>
					<clipPath id="SVGID_32_">
						<use xlink:href="#SVGID_31_"  style="overflow:visible;"/>
					</clipPath>
					<path class="st21" d="M1397.41,126.8c0,0-0.49-0.53-1.4-1.52c-0.99-0.89-2.47-2.15-4.73-3.13c-4.45-2.09-11.45-2.79-19.89-2.4
						c-2.13,0.13-4.36,0.26-6.66,0.39c-2.29,0.21-4.65,0.43-7.08,0.67c-4.66,0.61-9.61,1.4-14.81,2.62
						c-5.18,1.11-10.59,2.62-16.31,3.51c-2.84,0.52-5.75,0.92-8.69,1.24l-2.21,0.22l-2.27,0.09l-4.3,0.17
						c-6.02,0.06-11.89-0.23-17.59-0.76c-5.73-0.52-11.33-1.17-16.74-2.11c-5.37-0.83-10.74-1.98-15.54-3.28
						c-4.75-1.26-9.25-2.44-13.39-3.54c-2.06-0.55-4.05-1.01-5.92-1.57c-1.75-0.51-3.44-0.84-5.03-1.05
						c-3.18-0.41-5.96-0.15-7.37,0.44c-0.66,0.32-1.19,0.66-1.5,1.35c-0.31,0.66-0.38,1.43-0.49,2.08
						c-0.09,1.31-0.07,2.12-0.07,2.12s-0.65-0.47-1.43-1.77c-0.4-0.65-0.82-1.55-0.89-2.86c-0.07-1.27,0.52-3.1,1.94-4.27
						c2.83-2.36,6.49-2.44,10.19-2.28c1.87,0.12,3.86,0.37,5.89,0.81c1.94,0.38,3.94,0.96,6.04,1.47
						c8.47,1.99,17.83,5.57,28.41,6.59c2.64,0.31,5.33,0.54,8.07,0.7c2.73,0.22,5.5,0.33,8.29,0.34c5.6,0.08,11.25-0.18,16.74-0.49
						l4.28-0.41l2.03-0.2c0.69-0.11,1.37-0.25,2.06-0.31c2.75-0.28,5.49-0.64,8.21-1.12c5.42-0.99,10.88-1.74,16.29-2.57
						c5.36-0.84,10.75-1.29,15.93-1.55c2.51,0,4.78,0.14,7.28,0.22c2.34,0.15,4.59,0.29,6.76,0.43c4.37,0.36,8.45,0.83,11.95,1.87
						c3.51,1,6.45,2.38,8.6,3.87c2.2,1.42,3.51,3.1,4.31,4.19C1397.03,126.18,1397.41,126.8,1397.41,126.8"/>
				</g>
			</g>
			<g class="st17">
				<g>
					<defs>
						<rect id="SVGID_33_" x="1261.51" y="341.4" width="59.25" height="19"/>
					</defs>
					<clipPath id="SVGID_34_">
						<use xlink:href="#SVGID_33_"  style="overflow:visible;"/>
					</clipPath>
					<path class="st22" d="M1267.59,360.39c0.06-0.06-1.29-0.07-2.95-1.69c-1.62-1.58-3.31-4.59-3.12-8.79
						c0.03-0.99,0.36-2.45,1.19-3.67c0.09-0.26,0.86-1.18,1.36-1.61c0.52-0.45,1.06-0.84,1.62-1.16c2.24-1.33,4.6-1.75,6.9-1.98
						c4.62-0.34,9.17,0.25,13.74,0.79c9.04,1.14,18,2.92,24.51,5.12c3.25,1.08,5.87,2.34,7.54,3.44c0.84,0.54,1.44,1.06,1.82,1.43
						c0.36,0.39,0.55,0.6,0.55,0.6s-0.81-0.83-2.61-1.6c-1.77-0.81-4.46-1.56-7.75-2.16c-6.56-1.23-15.51-1.91-24.42-2.14
						c-4.4-0.14-8.89,0.13-12.67,0.69c-1.88,0.26-3.59,0.69-4.79,1.15c-0.31,0.11-0.56,0.25-0.78,0.38
						c-0.19,0.19-0.15-0.13-0.56,0.38c-0.33,0.21-0.45,0.52-0.71,1.18c-0.43,1.2-0.56,2.6-0.59,3.78c-0.02,1.21,0.15,2.27,0.4,3.14
						c0.26,0.88,0.56,1.53,0.85,2.01C1267.42,360.15,1267.59,360.39,1267.59,360.39"/>
				</g>
			</g>
		</g>
		<g class="st23">
			<g>
				<defs>
					<rect id="SVGID_35_" x="1319.39" y="164.26" width="39.43" height="19.36"/>
				</defs>
				<clipPath id="SVGID_36_">
					<use xlink:href="#SVGID_35_"  style="overflow:visible;"/>
				</clipPath>
				<path class="st24" d="M1319.39,164.54c0,0,0.7-0.08,1.93-0.21c0.61-0.09,1.35-0.09,2.23,0.01c0.89,0.05,1.9,0.13,2.95,0.42
					c1.08,0.21,2.18,0.6,3.34,1.06c1.18,0.43,2.3,1.1,3.51,1.71c2.32,1.37,4.67,2.99,6.87,4.73c2.23,1.69,4.37,3.46,6.43,4.97
					c2.04,1.53,3.99,2.88,5.78,3.79c0.88,0.52,1.72,0.89,2.49,1.19c0.76,0.34,1.44,0.63,2.03,0.74c1.17,0.29,1.86,0.54,1.86,0.54
					s-0.69,0.09-1.96,0.11c-0.64,0.06-1.39-0.04-2.27-0.16c-0.9-0.06-1.86-0.34-2.9-0.67c-2.11-0.63-4.36-1.83-6.63-3.28
					c-2.24-1.48-4.44-3.25-6.6-5.01c-4.28-3.55-8.61-6.83-12.42-8.3c-0.93-0.44-1.81-0.71-2.6-0.91c-0.79-0.26-1.52-0.41-2.14-0.45
					C1320.08,164.65,1319.39,164.54,1319.39,164.54"/>
			</g>
		</g>
	</g>
</g>
</svg>
